<svg id="b203e5e2-7c9d-4b9a-a104-b8d5e87377d7" data-name="Layer 1" xmlns="http://www.w3.org/2000/svg" viewBox="0 0 4311.61 4311.61"><defs><style>.b22d13fb-0944-4e54-ace7-202db7ce688a{fill:#3d5b73;fill-rule:evenodd;}</style></defs><polygon class="b22d13fb-0944-4e54-ace7-202db7ce688a" points="1966.26 193.74 1556.51 603.49 1433.48 726.52 1080 1080 1275.64 1275.64 1629.12 922.15 2032.78 1325.81 1202.79 2155.81 799.13 2559.47 389.38 2149.71 793.03 1746.05 599.3 1552.32 195.64 1955.97 0 2151.61 193.74 2345.35 603.49 2755.1 726.52 2878.13 1080 3231.61 1275.64 3035.97 922.15 2682.49 1325.81 2278.83 2155.81 3108.82 2559.47 3512.48 2149.71 3922.24 1746.05 3518.58 1552.32 3712.32 1955.97 4115.97 2151.61 4311.61 2345.35 4117.87 2755.1 3708.12 2878.13 3585.09 3231.61 3231.61 3035.97 3035.97 2682.49 3389.46 2278.83 2985.8 3108.82 2155.81 3512.48 1752.15 3922.24 2161.9 3518.58 2565.56 3712.32 2759.3 4115.97 2355.64 4311.61 2160 4117.87 1966.26 3708.12 1556.51 3585.09 1433.48 3231.61 1080 3035.97 1275.64 3389.46 1629.12 2985.8 2032.78 2155.81 1202.79 1752.15 799.13 2161.9 389.38 2565.56 793.03 2759.3 599.3 2355.64 195.64 2160 0 1966.26 193.74"/></svg>