<svg id="a1920959-0372-45f4-ae0f-9e86cbd617e1" data-name="Layer 1" xmlns="http://www.w3.org/2000/svg" viewBox="0 0 7680 2039.37"><defs><style>.bc383d92-1fb7-4e5b-868f-730ed01d18b8,.f0a4fb6b-b0a2-4026-8df0-7467e7802b32{fill:#3d5b73;}.f0a4fb6b-b0a2-4026-8df0-7467e7802b32{fill-rule:evenodd;}.b2f45dd1-1c33-45ca-9767-a23e741aaa4c{fill:#e81c24;}</style></defs><polygon class="f0a4fb6b-b0a2-4026-8df0-7467e7802b32" points="930.03 91.64 736.22 285.45 678.03 343.64 510.83 510.83 603.37 603.37 770.57 436.17 961.5 627.1 568.91 1019.68 377.98 1210.61 184.17 1016.8 375.1 825.87 283.46 734.24 92.53 925.17 0 1017.7 91.64 1109.34 285.45 1303.15 343.64 1361.34 510.83 1528.54 603.37 1436 436.17 1268.8 627.1 1077.88 1019.68 1470.46 1210.61 1661.39 1016.8 1855.2 825.87 1664.27 734.24 1755.91 925.17 1946.84 1017.7 2039.37 1109.34 1947.73 1303.15 1753.92 1361.34 1695.73 1528.54 1528.54 1436 1436 1268.8 1603.2 1077.88 1412.27 1470.46 1019.68 1661.39 828.76 1855.2 1022.57 1664.27 1213.5 1755.91 1305.13 1946.84 1114.2 2039.37 1021.67 1947.73 930.03 1753.92 736.22 1695.73 678.03 1528.54 510.83 1436 603.37 1603.2 770.57 1412.27 961.5 1019.68 568.91 828.76 377.98 1022.57 184.17 1213.5 375.1 1305.13 283.46 1114.2 92.53 1021.67 0 930.03 91.64"/><g id="aae749b9-61f4-44f1-aa6a-321c6351c15b" data-name="path1053"><path class="b2f45dd1-1c33-45ca-9767-a23e741aaa4c" d="M7447.14,433.82c-17.32-6.19-27.3-27-21.42-44.7,8.05-24.24,37.91-32.68,57.2-16.17a34.13,34.13,0,0,1,12.33,24.13c1.93,21.25-13.84,38.72-34.79,38.57-4.6,0-10.6-.86-13.32-1.83Z"/></g><g id="a7ff30db-e33f-4346-b72c-a19c5b60e15b" data-name="path1051"><path class="b2f45dd1-1c33-45ca-9767-a23e741aaa4c" d="M7482.76,816.44a36.76,36.76,0,0,1-22.26-17.5c-3.58-6.34-4.18-8.81-4.14-17.12.1-20.49,14.78-35.35,35-35.45,20.54-.1,36,15.1,36,35.41,0,23.62-22.07,40.77-44.6,34.66Z"/></g><g id="ae4a9035-ebb5-4e5e-a46e-5217028712d2" data-name="path1027"><path class="b2f45dd1-1c33-45ca-9767-a23e741aaa4c" d="M7545.35,1078.72c-15.58-11.81-29.12-22.26-30.09-23.22-1.43-1.4.71-5.45,11.23-21.2,40.12-60.1,62.86-120.11,73.7-194.49,3.09-21.21,3.49-91,.64-111.22-7.79-55.3-20.18-97.49-41.72-142-11.27-23.3-20.28-39.15-32.31-56.88-3.86-5.67-7.48-11.07-8.06-12-.71-1.14,8.59-8.68,28.59-23.21,16.31-11.84,30.49-21.84,31.51-22.24,1.22-.46,5.77,5.21,13.05,16.25,48.51,73.54,76.9,153,86.28,241.47,1,9.53,1.83,32.74,1.83,51.8,0,36.76-1.59,56.86-7.05,89.1a530.6,530.6,0,0,1-68.19,183.76c-9.31,15.38-29.75,45.62-30.81,45.58C7573.8,1100.21,7560.93,1090.54,7545.35,1078.72Z"/></g><g id="aaa3fe4f-4ba4-483c-97ce-e41594d14232" data-name="path967"><path class="b2f45dd1-1c33-45ca-9767-a23e741aaa4c" d="M7467.49,1180.87c-9.23-2.84-19-12.75-22.28-22.54-4.67-14.07-.66-28.18,10.89-38.35,23.12-20.35,58.9-3.43,58.84,27.81,0,14.51-11,29-25,33.18-8.8,2.61-13.66,2.59-22.43-.11Z"/></g><g id="e23d224a-f457-42b2-bddd-29c3757dd7b3" data-name="path963"><path class="b2f45dd1-1c33-45ca-9767-a23e741aaa4c" d="M7119.84,1310.11c-223.08-12.9-415.93-167.25-477.15-381.88-15.51-54.38-21.11-99.44-19.79-159.27,1.32-60,9.37-105.32,28.67-161.25,33.76-97.84,98.08-186,181.6-248.87,136.55-102.8,316.38-133.22,479.39-81.08,21.35,6.83,50.51,18.4,51.25,20.34.48,1.25-25.92,63.32-29.17,68.57-.37.59-5.8-1.08-12.07-3.72-46.15-19.49-114.28-33.62-162-33.62h-8.91v75.56l18,.91a371.94,371.94,0,0,1,152,40.4c37,18.73,64.4,38.77,95.32,69.61,32.76,32.67,53.06,61.2,73.26,103,9.58,19.82,23.36,55.75,23.36,60.92,0,1.69-5.58,1.93-37.33,1.62l-37.33-.37-6-14.66c-47.77-117.22-166.08-193.58-292.38-188.71-113.35,4.38-213.84,69.85-263.23,171.51a305.16,305.16,0,0,0-15,228.73c22.15,66.73,68.6,125.69,128.08,162.58,121.17,75.13,277.2,56.57,377.73-45,27.48-27.75,52.43-65.87,65.87-100.63l4.7-12.16,37.41-.37c31.23-.31,37.41-.07,37.41,1.56,0,3.66-12.24,37.55-19.15,53-23,51.38-62.05,101.91-107.11,138.47-27.58,22.37-72.4,47.73-106.33,60.15-36.16,13.24-86.37,22.79-119.84,22.79h-9.53v76.42l19.9-.91c71.66-3.25,145.82-24.68,203.82-58.88,4.07-2.39,7.83-3.85,8.38-3.24,3.86,4.38,38.59,64.6,37.72,65.41-2.49,2.28-35.33,19.45-50.15,26.21-60.78,27.76-123.1,42.94-192.73,47-25.89,1.49-31.42,1.48-58.71-.11Z"/></g><path class="bc383d92-1fb7-4e5b-868f-730ed01d18b8" d="M2571.8,982.07H2288.1V824.72h751.74V982.07H2753.4v867.82H2571.8Z"/><path class="bc383d92-1fb7-4e5b-868f-730ed01d18b8" d="M3311.52,902.17c.2,55.92-39.16,101-103.44,101-60.19,0-99.64-45.07-99.44-101-.2-57.06,40.65-101.22,101.59-101.22C3271.89,801,3310.88,844.63,3311.52,902.17Zm-192.25,947.72V1109.41h181.62v740.48Z"/><path class="bc383d92-1fb7-4e5b-868f-730ed01d18b8" d="M3496.66,1329.62c0-85.55-2.61-156.08-5.89-220.21h155l8.3,108.74h4.21c34.64-57.43,100-125.47,221-125.47,95.05,0,168.24,54.48,199.1,136.56h3c25.09-40.55,55.28-71.51,87.77-93,40.88-28.35,86-43.54,145.89-43.54,118.62,0,239.51,83.81,239.51,321.31v435.9h-177V1440.3c0-123.43-41.43-195.83-128-195.83-62.07,0-107.57,45.18-126.21,98.58-5.77,17.88-9.2,41.56-9.2,62.5v444.34h-177V1421.72c0-104.31-40.41-177.25-123.85-177.25-68,0-113.49,55-130.59,105.79-6.47,18.8-9,40.92-9,61.91v437.72h-177Z"/><path class="bc383d92-1fb7-4e5b-868f-730ed01d18b8" d="M5150.52,1849.89l-12.43-82.49h-4.35c-43.52,58.44-118.63,99.23-211.53,99.23-145.63,0-226.28-107.33-226.28-220.25,0-186.86,161.36-281.46,425.73-280.37v-12.25c0-48.66-18.67-129.59-145.74-129.09-70.32,0-144,23.38-192.95,55.24l-36-121.51c54.23-34,147.16-65.72,260.16-65.72,230.2,0,295.9,149.75,295.9,312.2v266.64c0,67.32,3.28,132.65,11.17,178.37Zm-24-362.66c-128.06-1.75-250.55,26.11-250.55,138.87,0,72.48,46.11,106.65,103.47,106.65,72.44,0,124.61-48.24,142-102.47,3.89-13,5-27.71,5-40.69Z"/><path class="bc383d92-1fb7-4e5b-868f-730ed01d18b8" d="M5495.69,770h181.59v440.45h3a257.72,257.72,0,0,1,90.26-84.77c35.3-20.66,79-33,124-33,122.05,0,250.89,83.52,250.89,321.2v436H5963.75V1434.42c0-107.33-37.54-189-137.94-189-71.1,0-120.65,49.21-140.6,105-6.13,16-7.93,36.15-7.93,56.5v443H5495.69Z"/></svg>