<svg id="e3d3bb24-7582-4f24-a083-627973c0899b" data-name="Layer 1" xmlns="http://www.w3.org/2000/svg" viewBox="0 0 512 75.74"><defs><style>.a6a54e80-7890-436a-8fb2-e02198994cd1{fill:#5c91fa;}.a1ab20e4-dfa7-402f-9a80-d07a34b6c1f2,.a6a54e80-7890-436a-8fb2-e02198994cd1,.bde05f0b-fdc8-4abf-874d-e9f788179d80,.e54096ec-3b25-49bc-aa2c-f8e3dd6e3229{fill-rule:evenodd;}.bde05f0b-fdc8-4abf-874d-e9f788179d80{fill:#f3f5f6;}.e54096ec-3b25-49bc-aa2c-f8e3dd6e3229{fill:#588bf0;}.a1ab20e4-dfa7-402f-9a80-d07a34b6c1f2{fill:#5687e9;}.b7adb051-d869-47f9-ae9e-f554157c9d44{fill:#263b66;}.e1119e42-4c01-4c12-bb37-48a44c563345{fill:#575b66;}</style></defs><g id="fe300fdc-c7e6-4cd4-86dc-2ea78b7ecc4c" data-name="Horizontal"><polygon class="a6a54e80-7890-436a-8fb2-e02198994cd1" points="51.49 0 0 25.25 51.49 50.49 102.98 25.25 51.49 0"/><path class="bde05f0b-fdc8-4abf-874d-e9f788179d80" d="M91.09,245.73l-6.2,3a5,5,0,0,1-3.91,0c-1.08-.53-1.08-1.39,0-1.92l6.2-3-8.28-4.06-8.15,4L54,252l8.15,4,5.19-2.54a5,5,0,0,1,3.91,0l0,0c1.08.53,1.08,1.39,0,1.92l-5.19,2.54-2.48,1.22-8.28,4.06-2,1a5,5,0,0,1-3.91,0l-2-1-6.2-3c-1.08-.53-1.08-1.39,0-1.92h0a5,5,0,0,1,3.91,0l6.2,3,8.28-4.06-8.16-4L34.72,245l-8.15,4,5.18,2.54c1.09.53,1.09,1.39,0,1.92l0,0a5,5,0,0,1-3.92,0l-5.18-2.54-2.49-1.22-8.28-4.06-1.95-1c-1.08-.53-1.08-1.39,0-1.92l2-1,6.2-3a5,5,0,0,1,3.91,0h0c1.09.53,1.09,1.39,0,1.92l-6.19,3,8.27,4.06,8.16-4L49,235.53l-8.16-4-5.18,2.54a5,5,0,0,1-3.92,0h0c-1.08-.53-1.08-1.39,0-1.92l5.18-2.54,2.49-1.22,8.27-4.06,2-1a5,5,0,0,1,3.91,0l2,1,6.2,3c1.08.53,1.08,1.38,0,1.91a5,5,0,0,1-3.92,0l-6.19-3-8.28,4.05,8.15,4,16.77,8.22,8.15-4L71.23,236c-1.08-.53-1.08-1.39,0-1.92h0a5,5,0,0,1,3.91,0l5.19,2.54,2.48,1.22,8.28,4.05,2,1c1.08.53,1.08,1.39,0,1.92Z" transform="translate(0 -218.51)"/><polygon class="e54096ec-3b25-49bc-aa2c-f8e3dd6e3229" points="51.49 50.49 51.49 75.74 102.98 50.49 102.98 25.25 51.49 50.49"/><path class="bde05f0b-fdc8-4abf-874d-e9f788179d80" d="M93.27,263.39,63,278.24a2,2,0,0,1-.88.2,2,2,0,0,1-.9-3.83l30.29-14.85a2,2,0,1,1,1.78,3.63Z" transform="translate(0 -218.51)"/><polygon class="a1ab20e4-dfa7-402f-9a80-d07a34b6c1f2" points="51.49 50.49 51.49 75.74 0 50.49 0 25.25 51.49 50.49"/><path class="bde05f0b-fdc8-4abf-874d-e9f788179d80" d="M9.71,263.39,40,278.24a2,2,0,0,0,.89.2,2,2,0,0,0,.89-3.83L11.49,259.76a2,2,0,0,0-1.78,3.63Z" transform="translate(0 -218.51)"/><path class="b7adb051-d869-47f9-ae9e-f554157c9d44" d="M138.35,252.48a24.94,24.94,0,0,1-3.55-.26,19.19,19.19,0,0,1-3.34-.81,13.14,13.14,0,0,1-2.82-1.35,2.56,2.56,0,0,1-1-1.16,2.47,2.47,0,0,1-.18-1.35,2.27,2.27,0,0,1,.52-1.17,1.75,1.75,0,0,1,1.07-.62,1.94,1.94,0,0,1,1.41.36,13.52,13.52,0,0,0,3.74,1.53,17.48,17.48,0,0,0,4.15.48,7.85,7.85,0,0,0,4.63-1.07,3.29,3.29,0,0,0,1.45-2.75,2.69,2.69,0,0,0-1-2.22,9.07,9.07,0,0,0-3.52-1.33l-4.43-.92a11,11,0,0,1-5.7-2.72,6.89,6.89,0,0,1-1.87-5.05,8,8,0,0,1,.8-3.59,8.19,8.19,0,0,1,2.28-2.77,10.63,10.63,0,0,1,3.5-1.8,15.47,15.47,0,0,1,4.49-.62,17.19,17.19,0,0,1,4.59.6,13.55,13.55,0,0,1,3.91,1.78,2.18,2.18,0,0,1,.86,1.08,2.41,2.41,0,0,1,.1,1.27,2.06,2.06,0,0,1-.56,1.07,1.86,1.86,0,0,1-1.11.52,2.46,2.46,0,0,1-1.51-.4,11.17,11.17,0,0,0-3-1.21,14.39,14.39,0,0,0-3.3-.36,8.69,8.69,0,0,0-3.18.52,4.5,4.5,0,0,0-2,1.47,3.65,3.65,0,0,0-.71,2.24,2.94,2.94,0,0,0,1,2.31,7.13,7.13,0,0,0,3.3,1.35l4.39.93a12.44,12.44,0,0,1,5.94,2.65,6.28,6.28,0,0,1,1.95,4.83,7.55,7.55,0,0,1-3,6.2,10.64,10.64,0,0,1-3.52,1.74A16.55,16.55,0,0,1,138.35,252.48Z" transform="translate(0 -218.51)"/><path class="b7adb051-d869-47f9-ae9e-f554157c9d44" d="M189.52,252.4a2.5,2.5,0,0,1-1.91-.71,2.7,2.7,0,0,1-.67-1.95V226a2.67,2.67,0,0,1,.67-2,3,3,0,0,1,3.82,0,2.71,2.71,0,0,1,.66,2v23.71a2.78,2.78,0,0,1-.64,1.95A2.48,2.48,0,0,1,189.52,252.4Z" transform="translate(0 -218.51)"/><path class="b7adb051-d869-47f9-ae9e-f554157c9d44" d="M233.68,252.4a2.27,2.27,0,0,1-1.73-.65,2.48,2.48,0,0,1-.6-1.77V225.79A2.4,2.4,0,0,1,232,224a2.47,2.47,0,0,1,1.78-.62,2.92,2.92,0,0,1,1.59.38,3.48,3.48,0,0,1,1.06,1.31l10,18.4h-1.29l9.94-18.4a3.56,3.56,0,0,1,1-1.31,2.82,2.82,0,0,1,1.57-.38,2.32,2.32,0,0,1,1.73.62,2.51,2.51,0,0,1,.61,1.8V250a2.52,2.52,0,0,1-.59,1.77,2.65,2.65,0,0,1-3.48,0,2.48,2.48,0,0,1-.6-1.77V231.34h.88l-8.45,15.42a3.28,3.28,0,0,1-.85,1,2.07,2.07,0,0,1-1.21.32,2.12,2.12,0,0,1-1.25-.34,3,3,0,0,1-.84-1l-8.54-15.46h1V250a2.57,2.57,0,0,1-.58,1.77A2.27,2.27,0,0,1,233.68,252.4Z" transform="translate(0 -218.51)"/><path class="b7adb051-d869-47f9-ae9e-f554157c9d44" d="M299.47,252.4a2.54,2.54,0,0,1-1.55-.44,1.79,1.79,0,0,1-.7-1.19,3,3,0,0,1,.28-1.67l10.63-23.56a4,4,0,0,1,1.26-1.67,3,3,0,0,1,1.72-.5,3,3,0,0,1,1.67.5,4,4,0,0,1,1.27,1.67l10.67,23.56a2.92,2.92,0,0,1,.32,1.69,1.77,1.77,0,0,1-.69,1.19,2.42,2.42,0,0,1-1.49.42,2.6,2.6,0,0,1-1.75-.54,4.8,4.8,0,0,1-1.11-1.68l-2.61-6.07,2.17,1.4h-17l2.18-1.4-2.58,6.07a5.24,5.24,0,0,1-1.09,1.7A2.31,2.31,0,0,1,299.47,252.4ZM311,229.29l-5.64,13.41-1.05-1.29h13.45l-1,1.29-5.67-13.41Z" transform="translate(0 -218.51)"/><path class="b7adb051-d869-47f9-ae9e-f554157c9d44" d="M364.53,252.4a2.25,2.25,0,0,1-1.73-.65,2.48,2.48,0,0,1-.6-1.77V225.79a2.4,2.4,0,0,1,.64-1.8,2.46,2.46,0,0,1,1.77-.62,2.92,2.92,0,0,1,1.59.38,3.4,3.4,0,0,1,1.07,1.31l10,18.4h-1.29l9.94-18.4a3.47,3.47,0,0,1,1.05-1.31,2.8,2.8,0,0,1,1.57-.38,2.32,2.32,0,0,1,1.73.62,2.51,2.51,0,0,1,.6,1.8V250a2.52,2.52,0,0,1-.58,1.77,2.65,2.65,0,0,1-3.48,0,2.44,2.44,0,0,1-.61-1.77V231.34H387l-8.46,15.42a3.26,3.26,0,0,1-.84,1,2.07,2.07,0,0,1-1.21.32,2.12,2.12,0,0,1-1.25-.34,3,3,0,0,1-.84-1L365.9,231.3h1V250a2.52,2.52,0,0,1-.59,1.77A2.23,2.23,0,0,1,364.53,252.4Z" transform="translate(0 -218.51)"/><path class="b7adb051-d869-47f9-ae9e-f554157c9d44" d="M430.32,252.4a2.54,2.54,0,0,1-1.55-.44,1.84,1.84,0,0,1-.71-1.19,3,3,0,0,1,.29-1.67L439,225.54a3.89,3.89,0,0,1,1.26-1.67,3,3,0,0,1,1.71-.5,3,3,0,0,1,1.68.5,3.89,3.89,0,0,1,1.26,1.67l10.67,23.56a2.86,2.86,0,0,1,.33,1.69,1.77,1.77,0,0,1-.69,1.19,2.44,2.44,0,0,1-1.49.42,2.6,2.6,0,0,1-1.75-.54,4.67,4.67,0,0,1-1.11-1.68l-2.61-6.07,2.17,1.4h-17l2.17-1.4L433,250.18a5.24,5.24,0,0,1-1.09,1.7A2.32,2.32,0,0,1,430.32,252.4Zm11.55-23.11-5.63,13.41-1.05-1.29h13.45l-1,1.29L442,229.29Z" transform="translate(0 -218.51)"/><path class="b7adb051-d869-47f9-ae9e-f554157c9d44" d="M499.25,252.4a2.52,2.52,0,0,1-1.92-.71,2.74,2.74,0,0,1-.66-1.95V228h-7.85a2.2,2.2,0,0,1-1.63-.58,2.15,2.15,0,0,1-.59-1.59,2.06,2.06,0,0,1,.59-1.59,2.27,2.27,0,0,1,1.63-.55h20.85a2.29,2.29,0,0,1,1.64.55,2.09,2.09,0,0,1,.58,1.59,2.19,2.19,0,0,1-.58,1.59,2.22,2.22,0,0,1-1.64.58h-7.85v21.74a2.78,2.78,0,0,1-.64,1.95A2.48,2.48,0,0,1,499.25,252.4Z" transform="translate(0 -218.51)"/><path class="e1119e42-4c01-4c12-bb37-48a44c563345" d="M135.38,279.27l.09-.23.3-.34a1.14,1.14,0,0,1,.39-.45.48.48,0,0,1,.07-.18.84.84,0,0,0,.07-.26l.1-.18a.18.18,0,0,0,0-.07s0-.06-.09-.14l-.06-.25c0-.06-.21-.26-.62-.61h-.09l-.84-.41-.05-.12-.09,0-.12.05h0l-.4-.12a3.94,3.94,0,0,1-.63-.2s0,0-.07,0l-.46-.11a.45.45,0,0,1-.24-.1.45.45,0,0,0-.2-.1.71.71,0,0,1-.2-.1.29.29,0,0,0-.19-.05l-.29.07s-.11-.06-.33-.11c0-.08-.05-.12-.07-.12l-.33.05-.35-.17-.41-.06a1.31,1.31,0,0,1-.46-.14,1.92,1.92,0,0,0-.31-.14l-.07-.07a.39.39,0,0,0-.13,0h-.21a.35.35,0,0,1-.19-.12,2.08,2.08,0,0,0-.31-.23,1,1,0,0,1-.34-.37,1.05,1.05,0,0,1-.16-.5s0,0,0-.05l.07-.37a2.48,2.48,0,0,1,.66-1.32.68.68,0,0,1,.39-.45l0-.17a3.88,3.88,0,0,0,.49-.46,1.15,1.15,0,0,1,.33-.29,2,2,0,0,0,.29-.2l.21-.09c0-.07.16-.24.52-.5a4.12,4.12,0,0,1,.83-.51,3.2,3.2,0,0,0,.39-.18,3.1,3.1,0,0,1,.58-.18c.08-.2.2-.31.37-.31h.17l.24-.23.31,0a1,1,0,0,0,.13-.14.42.42,0,0,1,.35-.13l1.41-.43H136l.09,0c.07,0,.15-.06.24-.17a.49.49,0,0,1,.38-.16.46.46,0,0,1,.18.09s0,0,0,0l.3-.1.36,0L138,267a1.34,1.34,0,0,1,.75.21l0,0v-.07c0-.13.07-.19.22-.19s.1,0,.11,0l.14.08h.09l.3.14a.68.68,0,0,1,.22-.11.41.41,0,0,1,.35.18l.2,0a.38.38,0,0,1,.11-.09s.11.06.19.18l.07,0h.29s.05,0,.09.07l.13.1a.75.75,0,0,1,.13.15.44.44,0,0,0,.08.11,1.94,1.94,0,0,1,.33-.13c.07,0,.13.06.17.2a.43.43,0,0,0,.21.32.43.43,0,0,1,.2.33.38.38,0,0,1,.25.37l.23.57,0,.2a1,1,0,0,1,.09.21l0,.43,0,.45a.75.75,0,0,1-.34.62.48.48,0,0,0-.22.1l-.18.1a.44.44,0,0,1-.4-.15.81.81,0,0,0-.2-.21.23.23,0,0,1-.09-.19.68.68,0,0,1,.36-.52.25.25,0,0,0,.23-.11.42.42,0,0,0-.1-.33,2.1,2.1,0,0,1-.23-.26,1.07,1.07,0,0,0-.26-.26.92.92,0,0,1-.23-.25c-.05-.1-.11-.15-.15-.15l-.17,0-.33-.07a4,4,0,0,1-1-.25h-.23l-.63-.09a1.19,1.19,0,0,1-.47.07l-.77.12-.31,0-.64.2-.12,0h-.31a1.41,1.41,0,0,0-.3.11,4.74,4.74,0,0,1-.46.17l-.1,0a.08.08,0,0,1-.07,0l-.19,0-1,.5-.17-.09-.22-.09a.14.14,0,0,0-.16.16l0,.22a1,1,0,0,0-.19.14.35.35,0,0,1-.12.07H133a.37.37,0,0,0-.26.12.43.43,0,0,1-.22.14.66.66,0,0,0-.26.1.36.36,0,0,1-.19.09.41.41,0,0,0-.25.22c-.06.11-.13.17-.2.17l-.24-.05-.13.23-.27.07a1.5,1.5,0,0,1-.31.31,3.15,3.15,0,0,0-.29.22.78.78,0,0,0-.21.25.51.51,0,0,1-.2.21.6.6,0,0,0-.22.31l-.11.11a.69.69,0,0,0-.29.53c0,.13.09.23.27.29a1.1,1.1,0,0,1,.35.15.33.33,0,0,0,.21.06.6.6,0,0,1,.27.06l.43.18c0,.13.08.19.12.19s0,0,.09-.1a.26.26,0,0,1,.21-.09.37.37,0,0,1,.29.19l.1-.07h0l.15,0h0l.14-.07a.1.1,0,0,1,.07,0l.36.12h0l.19-.05a.75.75,0,0,1,.19.07l.17.09s0,0,0,0a.39.39,0,0,0,.14-.05.32.32,0,0,1,.18-.06.35.35,0,0,1,.21.13l.21-.08a.81.81,0,0,1,.36.18l.22,0h.25l.39.07a1.19,1.19,0,0,0,.34.27.14.14,0,0,1,.16-.13,1.83,1.83,0,0,1,.57.15l.09,0,.09.07a1.09,1.09,0,0,1,.25-.05c.15,0,.23.05.23.16a1.08,1.08,0,0,1-.07.36s0,0,.07.05a.22.22,0,0,1,.13-.09l.19-.11s0-.05.07-.05a1.48,1.48,0,0,1,.75.38,1.31,1.31,0,0,1,.56.85.74.74,0,0,0,.09.32l0,.16,0,.18a.48.48,0,0,1,0,.16l0,.18a.18.18,0,0,1-.07.08.27.27,0,0,0-.07.08l.07.2V278s0,.07-.09.12a.66.66,0,0,0-.11.16.41.41,0,0,1-.08.14.49.49,0,0,0-.08.18.5.5,0,0,1-.23.24c-.13.09-.2.16-.2.2s0,.07,0,.07A.44.44,0,0,0,138,279a1.06,1.06,0,0,1,.24-.16,1,1,0,0,0,.28-.14l1.09-.51a8.33,8.33,0,0,1,1.36-.58c.13,0,.19.06.19.18a.57.57,0,0,1-.16.27.6.6,0,0,1-.48.64.94.94,0,0,0-.27.25h-.09a.91.91,0,0,1-.67.32h-.06a1.61,1.61,0,0,1-1,.48,1.13,1.13,0,0,1-.68.41l-.18.05a1.56,1.56,0,0,1-.41.11s-.05,0-.09.09l-.18.13a1.15,1.15,0,0,0-.48.26,1.12,1.12,0,0,1-.39.24,1.19,1.19,0,0,0-.28.1c-.1,0-.51.31-1.22.79l-.15,0a1.91,1.91,0,0,0-.58.35,1,1,0,0,1-.27.22h0a1,1,0,0,0-.63.35,1.25,1.25,0,0,1-.51.2,3.28,3.28,0,0,0-.92.41l-.69.19-.59.14-.82.17-.61.14a1.08,1.08,0,0,0-.36-.07l-.21,0s-.08,0-.15-.08a1.48,1.48,0,0,0-.26-.16c-.11-.05-.16-.18-.16-.4s.21-.38.64-.57.7-.33.84-.41a.44.44,0,0,1,.32-.15.74.74,0,0,0,.39-.14,1.9,1.9,0,0,1,.5-.21l.46-.24.06,0h.16a.54.54,0,0,0,.25-.13,1.05,1.05,0,0,1,.34-.19h.14a.15.15,0,0,0,.07-.06.7.7,0,0,1,.21-.15l0,0H132a1.09,1.09,0,0,1,.3-.18,1.24,1.24,0,0,0,.34-.18l.91-.35.21,0a.3.3,0,0,0,.18-.11,1.23,1.23,0,0,1,.52-.22.88.88,0,0,1,.24-.23,3.08,3.08,0,0,0,.44-.37Zm-4.06,2.91-.17,0a.79.79,0,0,1-.32.1,1.33,1.33,0,0,0-.49.22,7.59,7.59,0,0,1-.76.39c-.29.12-.43.2-.43.24a4.77,4.77,0,0,0,1.19-.31l.84-.24a.69.69,0,0,0,.22-.09l.26-.13.18-.14.26-.09c.13-.05.2-.09.2-.14a0,0,0,0,0-.05-.05,1.56,1.56,0,0,0-.67.13Z" transform="translate(0 -218.51)"/><path class="e1119e42-4c01-4c12-bb37-48a44c563345" d="M139.68,278.15l.18-.16h.07c.06,0,.14-.06.25-.18l.12,0a1,1,0,0,1,.4-.41l.19-.14a.41.41,0,0,1,.13-.08.89.89,0,0,0,.28-.23c.13-.12.23-.19.31-.19l.19,0a.81.81,0,0,1,.28-.27,1.3,1.3,0,0,0,.34-.32l.15-.07a1.27,1.27,0,0,0,.33-.24.5.5,0,0,1,.38-.14,1,1,0,0,1,.7.34.94.94,0,0,1,.37.66l-.2.91c-.13.66-.28,1-.44,1l-.05.25c-.11.08-.16.14-.16.18l.07.28s0,.1-.13.18,0,0,0,.07v.48a.24.24,0,0,1-.16.2.1.1,0,0,0,.07,0s.15-.07.31-.07l.19,0,.25-.25a1.13,1.13,0,0,0,.23-.11,3.37,3.37,0,0,1,.49-.23l1.53-1.16c.2-.21.36-.32.47-.32s.18.08.18.22a.91.91,0,0,1-.1.43,1.74,1.74,0,0,0-.18.41.82.82,0,0,1-.19.33.89.89,0,0,0-.19.2,1.28,1.28,0,0,1-.37.32,3.41,3.41,0,0,0-.53.43,2.46,2.46,0,0,1-.35.3l-.5.37-.07.11a.94.94,0,0,1-.22.1,1.58,1.58,0,0,0-.34.19l-.21.12a.54.54,0,0,1-.23.06.43.43,0,0,0-.27.13c-.08.08-.14.12-.19.12l-.17,0-.23.07a.82.82,0,0,1-.49-.24.67.67,0,0,1-.28-.5v-.07l0-.17a.93.93,0,0,0-.07-.24,1.08,1.08,0,0,1-.07-.21l0-.16,0-.07a1,1,0,0,1,.05-.4.79.79,0,0,0,.07-.23c0-.09,0-.17,0-.24l.06-.29a.32.32,0,0,1,.12-.18,2.1,2.1,0,0,1,.09-.32l0-.21.11-.16a.36.36,0,0,0,.11-.25.91.91,0,0,1,.13-.33.76.76,0,0,0,.1-.21.12.12,0,0,0-.14-.14.92.92,0,0,0-.29.19l-.21-.07a.36.36,0,0,0-.13.11s0,.06-.1.07a.37.37,0,0,0-.2.18l-.09,0-.15-.07h-.05c-.08,0-.12.08-.14.26a.63.63,0,0,1-.34.24l-.25.07a.31.31,0,0,0-.19.21.71.71,0,0,1-.23.3.56.56,0,0,1-.24.13c-.21,0-.32-.12-.32-.36l.09-.55Zm5-5.82-.07-.45v-.07c0-.37.12-.57.37-.61l.49-.15a.78.78,0,0,1,.43.37,1,1,0,0,1,.23.56.45.45,0,0,1,0,.11.83.83,0,0,0,0,.31.51.51,0,0,1-.23.39.73.73,0,0,1-.46.17.72.72,0,0,1-.41-.23A.67.67,0,0,1,144.71,272.33Z" transform="translate(0 -218.51)"/><path class="e1119e42-4c01-4c12-bb37-48a44c563345" d="M148.76,276.63l.16-.29.18-.22a1.29,1.29,0,0,0,.24-.57,1.54,1.54,0,0,1,.29-.63.57.57,0,0,1,.46-.18,1,1,0,0,1,.46.17,1.88,1.88,0,0,1,.56,1,4.76,4.76,0,0,1,.27,1.2,1.13,1.13,0,0,0,.08.35,3.07,3.07,0,0,1,.11.33,1.4,1.4,0,0,0-.09.23l0,.47-.14.39v.28a.94.94,0,0,0-.14.29.22.22,0,0,0,.05.14,2.06,2.06,0,0,0,.66-.38.46.46,0,0,1,.23-.18,1.33,1.33,0,0,0,.36-.3l.22-.12.2-.25a.48.48,0,0,1,.19-.16,1,1,0,0,0,.26-.16,2.92,2.92,0,0,1,.44-.27l.12-.14a1.39,1.39,0,0,1,.41-.31l.27-.12c.05,0,.11.07.16.22a1.06,1.06,0,0,1,.09.42.51.51,0,0,1-.23.39,2.11,2.11,0,0,0-.3.29.86.86,0,0,1-.38.16l-.38.48-.23.14-.12.15s-.12.06-.31.09t-.06.12c0,.08-.11.13-.25.16a4.76,4.76,0,0,0-.43.43l-.24.05a1,1,0,0,1-.12.27c-.18,0-.29.12-.31.23l-.12,0,0,0a1.37,1.37,0,0,1-.53.26l-.26.07-.1.14s-.09.08-.28.15a1.15,1.15,0,0,0-.43.23l-.19.15a1.12,1.12,0,0,0-.46.26H149a1.09,1.09,0,0,0-.51.24,1.15,1.15,0,0,1-.56.23,1.86,1.86,0,0,1-.93-.16,1.81,1.81,0,0,1-.41-.42,4.55,4.55,0,0,0-.29-.41.44.44,0,0,1-.14-.24.22.22,0,0,1,.11-.16.93.93,0,0,0,.24-.33c.09-.17.3-.28.65-.32l.17-.07a.56.56,0,0,1,.24-.07c.08,0,.17.07.29.21s0,0,.05,0l.18,0a.46.46,0,0,0,.18.09.91.91,0,0,0,.59-.28l.05,0H149s.06-.07.12-.2l.19-.41.41-.52v-.12a.89.89,0,0,1,.07-.21v-.17c0-.07,0-.12.14-.14s.14-.07.14-.14l0-.1a.34.34,0,0,1-.1-.19L150,278l0-.24,0-.09a1.21,1.21,0,0,1,0-.19l0-.29L150,277c0-.14-.08-.21-.1-.21s-.19.12-.44.36a2.52,2.52,0,0,0-.45.51.59.59,0,0,1-.29.27.78.78,0,0,0-.31.28c-.06.1-.12.16-.2.17l-.78.63-.85.63c-.06.07-.1.1-.12.1-.29,0-.43-.15-.43-.47a1.65,1.65,0,0,1,.18-.55l.12-.07s0,0,0,0h0l.07.05h0a4,4,0,0,1,.56-.34.47.47,0,0,0,.23-.25l.49-.35c.12-.1.31-.27.57-.52A3.16,3.16,0,0,0,148.76,276.63Z" transform="translate(0 -218.51)"/><path class="e1119e42-4c01-4c12-bb37-48a44c563345" d="M156.68,271.67l.16-.05.12-.12h0l.11.05h0a1.15,1.15,0,0,0,.5-.11,2.53,2.53,0,0,1,.36-.16.58.58,0,0,0,.18-.07l.06,0,.19,0c.06,0,.15-.11.25-.33a1.24,1.24,0,0,1,.35-.48,1.44,1.44,0,0,0,.4-.57,1.18,1.18,0,0,0,.11-.18c0-.08.07-.12.09-.12a.34.34,0,0,0,.28-.22c.23-.28.42-.41.57-.41s.33.18.4.56l.12.44s0,.06-.06.17a.84.84,0,0,0,0,.31,1,1,0,0,1,0,.21.5.5,0,0,0,0,.12c0,.07.07.1.2.1a.66.66,0,0,0,.26-.1l.07,0a.34.34,0,0,0,.19.07l.33-.12a2.52,2.52,0,0,1,.39-.12,1.2,1.2,0,0,0,.28-.1h.14l.1,0a.68.68,0,0,0,.19-.1,1.09,1.09,0,0,1,.55-.12l.17-.07h0q.39,0,.39.33a.66.66,0,0,1-.11.25,1.76,1.76,0,0,0-.19.39l-.53.68a.74.74,0,0,1-.54.35s-.12-.11-.29-.32c0,0,0,0,0,0a.79.79,0,0,0-.25.05.59.59,0,0,1-.21,0l-.61.18-.28,0-.23,0-.59.12a1.07,1.07,0,0,0-.48.57.36.36,0,0,1-.11.1l-.53,1a.49.49,0,0,0-.34.3l0,.07a.39.39,0,0,0-.24.15,1.69,1.69,0,0,1-.19.19l-.21.31a3.32,3.32,0,0,0-.26.36,1.28,1.28,0,0,0-.19.41,1.16,1.16,0,0,1-.09.25.17.17,0,0,0,0,.12l0,.1a.43.43,0,0,0-.14.31l0,.19c-.11.37-.17.57-.17.59a.66.66,0,0,0,0,.13v.07a1.65,1.65,0,0,1-.19.64l0,.19-.07.52a2.44,2.44,0,0,0,.07.38.13.13,0,0,0,0,.07,1.13,1.13,0,0,0,.34.72,1.8,1.8,0,0,1,.34,1.22,1.06,1.06,0,0,1,0,.2,2.5,2.5,0,0,0-.05.29.51.51,0,0,1-.18.31.48.48,0,0,1-.28.15c-.42,0-.72-.3-.93-.9a5,5,0,0,1-.3-1.15l0-.45-.07-.24.07-1,0-.24.27-1v-.36a1,1,0,0,1,.16-.18s0,0,0,0-.11,0-.18.14a1.31,1.31,0,0,1-.3.27l-.09.16-.09,0a2.51,2.51,0,0,0-.39.55.5.5,0,0,0-.38.27.42.42,0,0,1-.39.25l0,0c0,.23-.14.34-.33.34l-.05,0q-.16.41-.36.39a.76.76,0,0,1-.57.47.41.41,0,0,1-.2.21,1,1,0,0,0-.2.13.14.14,0,0,1-.1.06q-.15,0-.15-.33a.35.35,0,0,1,.07-.2.38.38,0,0,0,.08-.16.61.61,0,0,0-.12-.14c0-.24.07-.39.19-.45a.61.61,0,0,0,.28-.27.38.38,0,0,1,.23-.2c.12,0,.18-.09.18-.15s.1-.16.3-.32a3,3,0,0,0,.44-.43c.1-.12.17-.18.24-.18l0,0c0-.2.09-.3.22-.3l.12-.07,0-.09.07-.05h.1l.06,0a.55.55,0,0,1,.27-.46,5.57,5.57,0,0,0,.91-.91,4.75,4.75,0,0,0,.75-1,2.89,2.89,0,0,1,.3-.56,1.65,1.65,0,0,0,.24-.67.61.61,0,0,0-.07-.1l-.5.25s-.08-.06-.24-.11a.92.92,0,0,0-.25.21c-.06.07-.1.11-.13.11l-.16,0-.52.06a2.31,2.31,0,0,0-1,.28l-.48.14H154a.56.56,0,0,0-.28.12l-.27,0a1.27,1.27,0,0,1-.55.2l-.14,0-1.19.32a3.25,3.25,0,0,0-.62.48l-.1,0c-.08,0-.17-.08-.27-.26a.88.88,0,0,1-.16-.47c0-.77.66-1.21,2-1.34l.48-.18h0l.13,0h.05a.66.66,0,0,0,.22-.08,3.13,3.13,0,0,1,.67-.22l.48-.13.15,0a.5.5,0,0,0,.26-.1,1.28,1.28,0,0,1,.44-.13,2.35,2.35,0,0,0,.42-.09l.18-.05a.44.44,0,0,0,.2-.08.78.78,0,0,1,.37-.08Z" transform="translate(0 -218.51)"/><path class="e1119e42-4c01-4c12-bb37-48a44c563345" d="M161.47,277.44l.25-.2a.28.28,0,0,0,.3-.29.65.65,0,0,1,.39-.46l.14-.2a2.82,2.82,0,0,1,.95-.45,1.14,1.14,0,0,0,.27-.21.05.05,0,0,1,0,0l.19,0a1.41,1.41,0,0,0,.39-.08,1.28,1.28,0,0,1,.46-.08l.49,0a.94.94,0,0,1,.19.07.75.75,0,0,0,.35.07.66.66,0,0,1,.48.24.64.64,0,0,1,.21.43,1.05,1.05,0,0,1-.37.73,1.46,1.46,0,0,1-.59.42,1.94,1.94,0,0,1-.31.25.73.73,0,0,0-.21.16.26.26,0,0,1-.18.11.08.08,0,0,1-.07,0,.09.09,0,0,0-.07,0c-.12,0-.26.16-.41.46l-.21,0a.58.58,0,0,0-.25.27.23.23,0,0,1-.25.16c-.28.28-.48.43-.58.43l-.16-.05a.4.4,0,0,0-.09.24c0,.1-.06.15-.19.17l-.15.14-.12,0-.23.25a.7.7,0,0,0-.36.12c0,.09,0,.21-.07.35a1.71,1.71,0,0,0,0,.24c0,.22.2.34.61.34l.56-.09a.72.72,0,0,0,.41-.11.79.79,0,0,1,.42-.12.8.8,0,0,0,.21,0l.11,0a.83.83,0,0,1,.31-.31.72.72,0,0,1,.35-.14l.11-.07a.32.32,0,0,1,.14-.19l.1-.08a.26.26,0,0,1,.17-.09h.16l.05,0a.54.54,0,0,1,.39-.35c.17,0,.27-.09.31-.17a.31.31,0,0,1,.23-.14.42.42,0,0,0,.27-.16,1.72,1.72,0,0,1,.28-.25,1.3,1.3,0,0,0,.22-.17.19.19,0,0,1,.12-.06s.07,0,.07.1,0,.11,0,.11a0,0,0,0,0,0-.05.52.52,0,0,0,0-.11v-.09a.23.23,0,0,1,.18-.23l.53-.34c0-.16.06-.25.13-.28l.17-.09a.18.18,0,0,1,.13-.06q.15,0,.15.18l-.06.3.06.32a.38.38,0,0,1-.11.19.75.75,0,0,0-.17.37q-.06.25-.15.27h-.07a1,1,0,0,1-.34.27.33.33,0,0,0-.19.14l-.39.46a1.29,1.29,0,0,0-.2.21c-.06.06-.1.09-.13.09l-.09-.09s0,0-.05,0-.13.05-.15.14a.49.49,0,0,1-.12.25,1.18,1.18,0,0,0-.45.3l-.07,0h-.21c-.1,0-.17.08-.21.23a.35.35,0,0,1-.33.26.65.65,0,0,0-.39.14.28.28,0,0,1-.11.05,1.24,1.24,0,0,0-.32.18l-1,.35-.15.06-.33,0s-.09,0-.14-.1l-.09-.09-.21.07a1.5,1.5,0,0,1-.45.07.56.56,0,0,1-.25-.08l-.22-.12c-.23,0-.39-.17-.48-.52l-.14,0a3.31,3.31,0,0,1-.32-.82.35.35,0,0,0-.22-.14.2.2,0,0,1-.15-.22.89.89,0,0,1,.23-.71.78.78,0,0,0,.25-.27l.16-.61a.62.62,0,0,0,.12-.23l.27-.49C161.3,277.8,161.37,277.66,161.47,277.44Zm2.47-.7-.14.07-.28.21a3.32,3.32,0,0,1-.44.29,1.22,1.22,0,0,0-.44.57,2.73,2.73,0,0,0-.23.54c0,.05,0,.07.07.07l.4-.17a2.07,2.07,0,0,0,.41-.27,6.25,6.25,0,0,1,.55-.4l.1-.09a.59.59,0,0,1,.21-.17,1.05,1.05,0,0,0,.29-.24l.11,0a.92.92,0,0,1,.41-.39c.13-.05.2-.09.2-.14s-.07-.14-.22-.14a.6.6,0,0,0-.28.12h-.27a.71.71,0,0,0-.26.14Z" transform="translate(0 -218.51)"/><path class="e1119e42-4c01-4c12-bb37-48a44c563345" d="M172.37,276.9l.33-.16a1.44,1.44,0,0,0,.31-.3l.41-.29a1.28,1.28,0,0,1,.45-.23l.19.07a.67.67,0,0,0,.14-.15.37.37,0,0,1,.29-.14,1,1,0,0,1,.57.31.85.85,0,0,1,.36.56l0,.4a4.14,4.14,0,0,0,.09.52v.09l-.05.28.05.29-.13.57c0,.15,0,.22.15.22a1,1,0,0,1,.34-.22l.16-.16c.07-.06.11-.09.14-.09s.07,0,.13-.11a.37.37,0,0,1,.19-.16.31.31,0,0,0,.16-.16,2.8,2.8,0,0,1,1-.82s.08,0,.16-.11A.4.4,0,0,1,178,277l.26-.2.1,0h0a.56.56,0,0,0,.19-.11.54.54,0,0,1,.23-.12,1,1,0,0,1,.73.3c.19.2.29.35.29.46l-.06.27.08.36v.23l-.06.24a.34.34,0,0,0,.1.2c.07.09.1.14.1.18s-.14.16-.14.19l0,.21-.06.64a.53.53,0,0,0,.15.27.76.76,0,0,1,.2-.08.64.64,0,0,0,.2-.08l.07,0h0l.14.05h0c.07,0,.1-.06.11-.18a.37.37,0,0,1,.23-.3l.28,0a.82.82,0,0,0,.1-.19,1.77,1.77,0,0,1,.49-.5,1.18,1.18,0,0,1,.63-.33c.12,0,.18.05.18.16a1.4,1.4,0,0,1,0,.25.6.6,0,0,1,.09.28c0,.14-.13.3-.38.47a1.82,1.82,0,0,0-.57.64l0,0-.23,0s0,.06-.11.18-.13.19-.21.2a.4.4,0,0,0-.16.07l-.24.15a5,5,0,0,0-.46.47c-.26.29-.48.43-.66.43a1.38,1.38,0,0,1-.42-.12,1.06,1.06,0,0,1-.4-.25,1.67,1.67,0,0,0-.3-.29.79.79,0,0,1-.19-.62s0,0,.06-.08.07-.07.07-.1a1,1,0,0,1-.27-.5,1,1,0,0,1,0-.15.39.39,0,0,0,0-.15l0-.41,0-.21,0-.12.07-.6c0-.09,0-.14-.16-.14s-.07,0-.13.1a.48.48,0,0,1-.2.14.73.73,0,0,0-.26.33.94.94,0,0,0-.29.23c0,.07-.09.11-.12.11l-.09,0a.24.24,0,0,0-.14.21v0l0,.1c0,.07-.06.13-.18.19a1.78,1.78,0,0,0-.43.48.3.3,0,0,0-.16,0l-.14.27a.69.69,0,0,0-.22.25l-.14.07a2.22,2.22,0,0,1-.16.25l-.07.13c-.34.4-.57.6-.7.6s-.3-.18-.48-.53a1.88,1.88,0,0,1-.28-.81l0-.43a.81.81,0,0,0-.09-.19v-.05a2.67,2.67,0,0,1,.09-.26V279a.11.11,0,0,0,0-.07v-.06a.81.81,0,0,1,.09-.19l-.07-.33.05-.19,0-.41,0-.36a.31.31,0,0,0-.06-.12q-.06-.09-.09-.09a1.77,1.77,0,0,0-.48.27,3.16,3.16,0,0,0-.54.42c-.09.1-.22.22-.37.36a.77.77,0,0,0-.34.59s0,0,0,0,0,0-.07-.05h0s-.16.17-.36.5l-.05.05-.22-.05c-.19,0-.28.2-.28.59,0,.07-.05.12-.14.14a.35.35,0,0,0-.23.2,1.94,1.94,0,0,1-.22.34,1,1,0,0,0-.31.17,3,3,0,0,1-.25.35,3.08,3.08,0,0,0-.28.4.38.38,0,0,1-.16.13c-.09.05-.14.1-.14.14l0,.19c0,.13-.12.19-.36.19-.47,0-.7-.48-.7-1.45a.69.69,0,0,1,.14-.37,2.87,2.87,0,0,0,.29-.5,4.52,4.52,0,0,0,.52-.64,4.87,4.87,0,0,1,.46-.57l.15-.24a.33.33,0,0,1,.06-.21.27.27,0,0,0,0-.18q0-.18-.09-.18a.54.54,0,0,0-.35.11,1,1,0,0,1-.28.16.28.28,0,0,0-.21.16.9.9,0,0,0-.34.3l-.24.28a.74.74,0,0,0-.11.16.2.2,0,0,1-.13.11.22.22,0,0,0-.15.08.29.29,0,0,1-.22.07c-.07,0-.14-.07-.2-.22a1.43,1.43,0,0,1-.08-.26c0-.56.37-1.05,1.13-1.46a1.24,1.24,0,0,0,.24-.17.57.57,0,0,1,.18-.12l0-.09a2,2,0,0,1,.7-.39H170l.79-.2c.33-.08.5.3.5,1.13l0,.21.05.09c.13-.12.27-.23.4-.33a1.39,1.39,0,0,0,.3-.26A.82.82,0,0,1,172.37,276.9Z" transform="translate(0 -218.51)"/><path class="e1119e42-4c01-4c12-bb37-48a44c563345" d="M195.4,267.14l.07-.12a.26.26,0,0,1,.25-.15l.18.05a.09.09,0,0,1,0-.07.13.13,0,0,1,.14-.14h.05l.27-.07.8-.09a2.16,2.16,0,0,1,.72.14H198l.31.09a.93.93,0,0,0,.31.22c.06,0,.09,0,.09.07a1.11,1.11,0,0,0,.29.28l.34.36,0,.09c.07.12.14.24.23.37a1.08,1.08,0,0,1,.13.61l0,.14c.08,0,.12.07.12.11l-.07.41v.37a1.12,1.12,0,0,1-.06.38,1,1,0,0,0-.06.36.88.88,0,0,1-.17.26v0l.05.31s0,.09-.1.16-.11.12-.11.16a.48.48,0,0,1-.13.37,1.15,1.15,0,0,1-.28.61,2,2,0,0,0-.33.63,2.37,2.37,0,0,1-.32.65l-.13.42a.74.74,0,0,1-.25.32.63.63,0,0,0-.21.5.57.57,0,0,1-.33.35l-.26.25v.14a.82.82,0,0,1-.28.52l-.4.82a.36.36,0,0,1-.3.23l-.05,0a1,1,0,0,1-.11.45l-.18.24-.17.25a1.23,1.23,0,0,0-.18.35,1.15,1.15,0,0,1-.26.41l-.12.26v.09c0,.21-.07.32-.21.32l-.13,0h0a1.41,1.41,0,0,1,.07.37,4.91,4.91,0,0,1-.33.73l0,.17v.19a1,1,0,0,0-.24.33.3.3,0,0,1-.18.2c-.09,0-.13.07-.13.09l.05.07v0l-.08.36.05.43a.7.7,0,0,1-.1.25.77.77,0,0,1,.38.59c0,.34-.13.53-.4.6h-.07l-.24,0a1,1,0,0,1-.57-.12,2.32,2.32,0,0,1-.4-.36l-.15-.09a.32.32,0,0,1-.12-.18l-.12-.11a1.58,1.58,0,0,1-.24-1,.22.22,0,0,1,.1-.16l0-.07,0-.22a7.1,7.1,0,0,1,.26-.76l.34-.7a2.7,2.7,0,0,1,.38-.66,2.18,2.18,0,0,1,.12-.43l.07-.05a.68.68,0,0,1,.18-.36,1.24,1.24,0,0,0,.23-.46c.1,0,.16,0,.16-.06a.84.84,0,0,0,0-.1v0a.49.49,0,0,1,.16-.37.9.9,0,0,0,.25-.37.8.8,0,0,1,.2-.32,1,1,0,0,0,.2-.38.55.55,0,0,1,.23-.12c.1,0,.15-.06.15-.11a1.13,1.13,0,0,0-.1-.22,4,4,0,0,1,.68-1.12.77.77,0,0,0,.09-.23.33.33,0,0,1,.18-.22,2.46,2.46,0,0,1,.31-.65,5,5,0,0,0,.32-.57c.1-.2.21-.31.35-.31l.05-.07,0-.24a1.55,1.55,0,0,1,.1-.22q.09-.21.18-.24c.05,0,.12-.07.19-.18l-.09-.19a.24.24,0,0,0,.08-.11c0-.06.05-.09.08-.09.2-.1.3-.22.3-.35a.64.64,0,0,0,0-.15v0c0-.05.07-.15.22-.31a.84.84,0,0,0,.21-.58.69.69,0,0,1,.14-.3.39.39,0,0,0,.12-.23.29.29,0,0,1,.07-.18l-.05-.29a1.11,1.11,0,0,0,.22-.62l0-.11a.46.46,0,0,1-.06-.25.34.34,0,0,0-.13-.18l0-.12a1.26,1.26,0,0,1-.46-.23,1,1,0,0,0-.59-.11l-.21.05-.17-.05a.28.28,0,0,1-.12.05h0l-.12,0a1.52,1.52,0,0,0-.55.15,1.53,1.53,0,0,1-.47.16.53.53,0,0,0-.49.2c-.08.14-.14.21-.19.21l-.12-.05h0c-.06,0-.12.11-.16.33l0,0a3.73,3.73,0,0,0-.72.53l-.76.79a1.69,1.69,0,0,0-.42.53.48.48,0,0,1-.24.26,1.31,1.31,0,0,0-.18.48.54.54,0,0,1-.13.41c-.09.08-.13.14-.13.18a.44.44,0,0,0,0,.1,1.68,1.68,0,0,1,.1.25v.06a.36.36,0,0,1-.09.24.47.47,0,0,0-.09.13s.07.11.21.25.2.24.2.3a.81.81,0,0,1-.27.58.87.87,0,0,1-.58.26.6.6,0,0,1-.42-.13c-.11-.09-.16-.35-.16-.78l0-.3.11-.34,0-.36a2.23,2.23,0,0,1,.22-.4,3.16,3.16,0,0,0,.28-.52,2.27,2.27,0,0,1,.64-1.06.19.19,0,0,0,.1-.16.44.44,0,0,1,.14-.32s.05-.09.16-.18a.59.59,0,0,0,.2-.3.27.27,0,0,1,.21-.2c.12,0,.19-.14.24-.32a2,2,0,0,1,.64-.52.81.81,0,0,1,.41-.41l.31-.21.07-.12a1,1,0,0,1,.19-.12.57.57,0,0,0,.22-.17,1.27,1.27,0,0,1,.43-.16Z" transform="translate(0 -218.51)"/><path class="e1119e42-4c01-4c12-bb37-48a44c563345" d="M207.76,279.9h.05l.12.05a.05.05,0,0,0,0,0,.42.42,0,0,1,.19-.34.54.54,0,0,1,.26-.33l.65-.39.29-.25.14-.07.09-.12a.36.36,0,0,1,.25-.15c.12,0,.17,0,.17.13l-.1.23.05.38a.55.55,0,0,1-.15.38l-.45.47-.59.63-.32.17a.83.83,0,0,0-.21.16l-.45.38a.31.31,0,0,1-.11.25h-.18l-.1,0a.9.9,0,0,1-.48.43l-.16.12a.21.21,0,0,1-.15.07l-.33-.05-.22.05a.58.58,0,0,1-.25-.09,1.87,1.87,0,0,0-.32-.15c-.11,0-.25-.18-.41-.43a2.36,2.36,0,0,1-.28-.49.34.34,0,0,0-.05-.16l-.05-.13a1,1,0,0,1,.1-.24v0a.54.54,0,0,0-.06-.16.76.76,0,0,1-.06-.32.89.89,0,0,0-.07-.27c.06-.06.09-.1.09-.14a.3.3,0,0,0,0-.13.45.45,0,0,1,0-.13l.07-.57,0-.3,0-.27c0-.17-.07-.25-.21-.25a.38.38,0,0,0-.24.13l-.08,0a3.37,3.37,0,0,0-.44.25.39.39,0,0,1-.26.1.67.67,0,0,1-.27.13l-.09.07-.19.14a2.76,2.76,0,0,1-.43.39c-.29.24-.56.46-.79.67a1.37,1.37,0,0,1-.5.34c-.11,0-.16.12-.16.3s-.07.09-.21.19a1.86,1.86,0,0,0-.24.25.93.93,0,0,0-.21-.14c-.1,0-.18.13-.22.39,0,.1-.17.16-.38.18a.83.83,0,0,0-.08.18l0,0h-.12s-.07.05-.16.14a.92.92,0,0,1-.25.17c-.1.21-.19.31-.26.31a.36.36,0,0,1-.13-.05l-.22-.08c-.08,0-.18-.12-.28-.28a.82.82,0,0,1-.16-.43c0-.86.17-1.33.5-1.41l0,0v-.1a.21.21,0,0,1,.13-.21.72.72,0,0,0,.27-.26.82.82,0,0,1,.19-.21h.15s0-.08,0-.25a.19.19,0,0,1,.06-.13.3.3,0,0,0,.07-.16.93.93,0,0,1,.16-.37.94.94,0,0,0,.16-.29l0,0a1.13,1.13,0,0,1-.42.29c-.09,0-.2.13-.35.34l-.19,0a3.4,3.4,0,0,1-.6.41.61.61,0,0,0-.26.27.09.09,0,0,1-.08.09,1.2,1.2,0,0,0-.3.19h-.07q-.3,0-.3-.42l.25-.66a1,1,0,0,1,.49-.53,5.89,5.89,0,0,0,.66-.42.92.92,0,0,1,.53-.2l.09-.12a.88.88,0,0,0,.53-.48c.09-.22.22-.32.38-.32a1.11,1.11,0,0,1,1,.47,1.4,1.4,0,0,1,.34.75l0,.31a2,2,0,0,1-.07.46.7.7,0,0,0-.14.31q0,.09.12.09a.32.32,0,0,0,.19-.1,2,2,0,0,1,.26-.18.43.43,0,0,0,.17-.14.66.66,0,0,1,.4-.38,1.18,1.18,0,0,0,.36-.17l.12-.1.09-.17a1.39,1.39,0,0,0,.42-.26.45.45,0,0,1,.28-.15.91.91,0,0,0,.4-.21l.17-.05.16-.09.14-.06.35-.12a1.06,1.06,0,0,1,.3-.09,1.09,1.09,0,0,1,.94.48,1.44,1.44,0,0,1,.34.77l0,.21,0,.31v.05l-.1.64,0,.22a1,1,0,0,1-.24.76s0,.05,0,.11V280l.23.49c.07.17.12.25.16.25l.38-.1a.45.45,0,0,0,.26-.25,1.59,1.59,0,0,0,.33-.27C207.59,280,207.66,279.9,207.76,279.9Z" transform="translate(0 -218.51)"/><path class="e1119e42-4c01-4c12-bb37-48a44c563345" d="M208.29,285.3l.12-.26.07-.29s0-.07.11-.14.11-.11.11-.16a5,5,0,0,1,.57-1.48l.28-.7a.59.59,0,0,1,.22-.37c.11-.09.17-.17.17-.24s-.08-.12-.24-.21-.24-.17-.24-.25.25-.23.77-.45a1,1,0,0,1,.35-.69.21.21,0,0,0,.08-.16.89.89,0,0,1,.11-.46l.1-.26a.81.81,0,0,1,.19-.31.48.48,0,0,0,.14-.33v-.1c-.1,0-.24.13-.43.4-.19,0-.35.14-.47.43a.54.54,0,0,1-.43.31.82.82,0,0,1-.51.39c-.16-.1-.24-.19-.24-.26l.1-.72c0-.16.4-.57,1.19-1.22.05,0,.2-.15.46-.44l.64-.73c.35-.34.61-.6.79-.76a2.9,2.9,0,0,0,.5-1,1.85,1.85,0,0,0,.4-.87,4.62,4.62,0,0,1,.32-.95,1.87,1.87,0,0,0,.16-.44,10.56,10.56,0,0,1,.69-1.77l.12-.38.17-.14a1.79,1.79,0,0,0,.05-.36c.08,0,.17-.21.27-.52a1.86,1.86,0,0,1,.28-.64.94.94,0,0,0,.18-.36.76.76,0,0,1,.29-.39.75.75,0,0,1,.48-.19s.15.08.27.24a1.1,1.1,0,0,1,.24.55c0,.2.05.34.06.41a1.32,1.32,0,0,1,0,.3l0,.34a4.39,4.39,0,0,1-.1.59c-.06.34-.1.58-.13.72a.35.35,0,0,1-.24.28c-.13.05-.2.1-.2.14s0,.09.1.11.09.05.09.07a1.29,1.29,0,0,1-.13.31,1,1,0,0,1-.25.33l.07.16a1.65,1.65,0,0,1-.17.37,2.46,2.46,0,0,1-.28.41,1.21,1.21,0,0,0-.21.48,1.06,1.06,0,0,1-.53.63,1.3,1.3,0,0,0-.29.53.69.69,0,0,1-.35.47l-.15.22v.05a.79.79,0,0,1-.12.38,4.82,4.82,0,0,0-.23.5,1,1,0,0,1-.22.37,1.58,1.58,0,0,1-.17.49,1.49,1.49,0,0,0-.14.38l-.08.09c-.15,0-.23.1-.23.22l0,.26-.21.38-.05.23a.53.53,0,0,1-.22.39.57.57,0,0,0-.21.44l0,.28a.17.17,0,0,0,0,.07.54.54,0,0,0,.14-.13l.18.06c.05,0,.09,0,.14-.1a.39.39,0,0,1,.2-.15l0,0c0-.11.09-.17.17-.17a.33.33,0,0,0,.2-.11c.05-.07.09-.1.13-.1l.16.09h0l.11,0,0-.18a.14.14,0,0,1,.11-.15.31.31,0,0,0,.15-.12l.43-.28a1.26,1.26,0,0,0,.41-.25.85.85,0,0,1,.29-.19.66.66,0,0,0,.25-.15.69.69,0,0,1,.39-.11,3.8,3.8,0,0,1,.52-.39l.09-.13.1,0a.54.54,0,0,0,.18-.14.27.27,0,0,1,.2-.11c.16,0,.23.07.23.23a.69.69,0,0,1-.35.61l0,0c0,.31-.13.46-.29.46s-.08.07-.16.2l-.15,0a1.45,1.45,0,0,1-.24.26h-.07a6.72,6.72,0,0,0-1.5,1.08.27.27,0,0,1-.11.09l-.22,0-.14.23a1.31,1.31,0,0,0-.39.22,2.16,2.16,0,0,1-.3.21.56.56,0,0,0-.19.16.41.41,0,0,1-.22.16l-.15.14h-.07a.47.47,0,0,0-.36.33.49.49,0,0,0,.11.19c.06-.05.28.19.65.7a2.61,2.61,0,0,1,.56,1.49,1,1,0,0,1-.16.68c-.1.1-.16.18-.16.23a1.6,1.6,0,0,0,0,.26v0c0,.08,0,.12-.14.14s-.14,0-.15.09v.29l0,.14a1,1,0,0,0-.31.55,1.63,1.63,0,0,1-.51.41l0,.05,0,.31a.22.22,0,0,1-.1.19,1.52,1.52,0,0,0-.29.29,1.15,1.15,0,0,1-.36.32.48.48,0,0,1-.18.32,1.63,1.63,0,0,0-.28.26l-.07.05c-.07,0-.13.1-.19.26l-.1,0a1.27,1.27,0,0,1-.32.4.92.92,0,0,0-.22.23l-.19.12a1.48,1.48,0,0,1-.43.47s-.05,0-.09-.07h0s-.06,0-.08.1a.41.41,0,0,1-.13.17,1.66,1.66,0,0,0-.19.23l0,.05c-.1,0-.26.14-.48.41a.93.93,0,0,0-.38.16c-.17.19-.28.28-.34.28l-.26-.19a.74.74,0,0,1-.24-.61.43.43,0,0,0-.14-.25c0-.08,0-.21-.05-.37v-.1a.65.65,0,0,1,.1-.33l.06-.24A.48.48,0,0,1,207,289a1.09,1.09,0,0,0,.14-.33c.06-.18.12-.36.2-.54l0-.12q.12-.56.21-.54c0-.12.09-.27.14-.47s.07-.35.09-.48a.51.51,0,0,1,.17-.3Zm2.42-2.23,0,.5a2.27,2.27,0,0,1-.19.44,3.56,3.56,0,0,0-.25.65c0,.16-.12.24-.26.24h-.11a.22.22,0,0,0,0,.1l0,.25a3.63,3.63,0,0,1-.08.54.82.82,0,0,1-.24.49l-.07.08a2,2,0,0,1-.18.55c-.1.25-.19.45-.26.6a2.08,2.08,0,0,0-.16.53.87.87,0,0,1-.15.41c-.05.22-.1.4-.14.55s-.11.33-.18.57c0,0,0,.05.07.05s.11-.09.18-.26a.26.26,0,0,1,.15-.06c.08,0,.14-.1.2-.25l0-.05a.26.26,0,0,0,.19-.13.25.25,0,0,1,.12-.14.43.43,0,0,0,.17-.11l.08,0s.06,0,.08-.12a.54.54,0,0,1,.08-.17H210l.05,0a.88.88,0,0,1,.23-.48.7.7,0,0,0,.2-.26.64.64,0,0,1,.17-.24.52.52,0,0,0,.15-.3,1.6,1.6,0,0,0,.26-.38.7.7,0,0,1,.17-.24l0-.08,0-.14v0a1.25,1.25,0,0,1,.28-.47,2.32,2.32,0,0,0,.34-.62c0-.17.09-.3.13-.41a1.53,1.53,0,0,0,.09-.34.81.81,0,0,1,.13-.31.54.54,0,0,0,.09-.33,1.84,1.84,0,0,0-.32-.91.34.34,0,0,1,0-.14c0-.08-.09-.17-.23-.28a.6.6,0,0,0-.29-.15l-.1,0s-.06,0-.14.07a.21.21,0,0,0-.12.22v.05l0,.26Q211,282.9,210.71,283.07Z" transform="translate(0 -218.51)"/><path class="e1119e42-4c01-4c12-bb37-48a44c563345" d="M221.17,281l-.55.48a.14.14,0,0,0-.09-.05c-.08,0-.18.07-.29.21s-.19.21-.24.21l-.11,0a1.8,1.8,0,0,1-.42.25l-.31.13a.77.77,0,0,1-.33.1.44.44,0,0,0-.24.1.71.71,0,0,1-.45.09l-.19,0a1,1,0,0,1-.2.07.27.27,0,0,1-.19-.1.38.38,0,0,0-.23-.11.4.4,0,0,1-.25-.16.71.71,0,0,0-.24-.21.49.49,0,0,1-.18-.17l-.16-.14a1.3,1.3,0,0,1-.39-.51,1.52,1.52,0,0,1-.19-.58v-.05l0-.22,0-.25a.79.79,0,0,0,.12-.2v-.38l.28-.93s0-.09-.09-.15a.45.45,0,0,1-.24.21.22.22,0,0,0-.15.16c0,.09-.08.13-.14.13l-.14,0a.92.92,0,0,0-.11.23.28.28,0,0,1-.28.22c-.14,0-.21,0-.21-.16l0-.21-.08-.29a1,1,0,0,1,.19-.37c.13-.18.24-.29.35-.31a.47.47,0,0,0,.26-.23,1.85,1.85,0,0,1,.49-.43.57.57,0,0,0,.36-.3,1.18,1.18,0,0,1,.42-.21.91.91,0,0,0,.4-.24,3.12,3.12,0,0,1,.79-.49,2.52,2.52,0,0,1,1-.33.79.79,0,0,0,.25-.06l.31-.09a1.45,1.45,0,0,0,.29-.13.51.51,0,0,1,.24-.09l.34.12a3.41,3.41,0,0,1,.46.15.74.74,0,0,0,.23.1,2.27,2.27,0,0,1,.45.21.49.49,0,0,1,.23.47,1.63,1.63,0,0,0-.2.32s.09.08.27.14a4.1,4.1,0,0,0,.28.45l.12.41,0,.95,0,.1q-.12.11-.12.15l0,.23-.09.33a.31.31,0,0,1-.12.19c-.05,0-.09.07-.1.12l-.07.09a2.28,2.28,0,0,0-.1.21.9.9,0,0,1-.17.26.48.48,0,0,0-.12.22.23.23,0,0,1-.12.19.51.51,0,0,0-.13.12A.36.36,0,0,1,221.17,281Zm-3.62.3,0,.27,0,0h.19l.05,0a1.94,1.94,0,0,0,.35,0,.89.89,0,0,0,.58-.18.59.59,0,0,1,.34-.18.25.25,0,0,0,.21-.17.6.6,0,0,1,.11-.18h.17l0,0a.38.38,0,0,1,.24-.38.74.74,0,0,0,.34-.31.76.76,0,0,1,.22-.29.5.5,0,0,0,.18-.27l.09-.14a.23.23,0,0,0,.05-.17l.22-.42a1.83,1.83,0,0,0,.07-.45.43.43,0,0,0-.25-.39.55.55,0,0,1-.25-.54.65.65,0,0,1,.27-.5c.18-.15.28-.24.28-.27a.06.06,0,0,0-.07-.07l-.27.09c-.06.11-.33.25-.83.43a1.4,1.4,0,0,0-.26-.11c-.05,0-.1,0-.14.13a.74.74,0,0,1-.14.2h-.15s-.07.05-.15.15a.43.43,0,0,1-.33.15l-.14.14a.49.49,0,0,1-.23.39l-.13.15-.3.33-.21.52a1.21,1.21,0,0,0-.13.45.35.35,0,0,1-.15.15.21.21,0,0,0-.13.19s0,.06.08.12a.26.26,0,0,1,.09.14l-.05.15,0,.43Z" transform="translate(0 -218.51)"/><path class="e1119e42-4c01-4c12-bb37-48a44c563345" d="M225.92,276.53l.17,0,.07-.15a3.38,3.38,0,0,0,.82-.64.24.24,0,0,1,.1-.1.79.79,0,0,0,.18-.16,1.36,1.36,0,0,1,1-.43c.47,0,.71.28.74.85l.07.17a4.15,4.15,0,0,1,.27.67,3.3,3.3,0,0,1,.17.61,1.2,1.2,0,0,1-.2.63,4.65,4.65,0,0,0-.78.88l-.12.08a2.25,2.25,0,0,1-.24.42c-.16.05-.24.11-.24.17v.21a.14.14,0,0,1,0,.09,2.89,2.89,0,0,0-.14.27l-.1.14a.56.56,0,0,0-.09.19,1.13,1.13,0,0,1-.13.27.33.33,0,0,0-.09.18q0,.18.45.18L228,281l.16,0s.05,0,.12-.07a.67.67,0,0,1,.28-.12,1.51,1.51,0,0,0,.34-.14,1.43,1.43,0,0,1,.35-.17,1.29,1.29,0,0,0,.39-.22A1.13,1.13,0,0,1,230,280a1,1,0,0,0,.33-.22l.36-.27a5.22,5.22,0,0,0,.63-.56,1.05,1.05,0,0,1,.38-.24,1.49,1.49,0,0,0,.2-.31.5.5,0,0,1,.42-.31.21.21,0,0,1,.24.23.38.38,0,0,1-.11.25v.07l0,.18a.31.31,0,0,1,0,.11s0,.07-.09.14a.67.67,0,0,0-.12.24.26.26,0,0,1-.22.19c-.05.17-.11.27-.18.29a.91.91,0,0,0-.31.23,5.42,5.42,0,0,1-.56.47,3.76,3.76,0,0,0-.49.41q-.13.15-.18.15a.21.21,0,0,1-.09,0l-.1-.05s-.08.06-.09.17l-.05.11-.17.1-.07,0h0c-.09,0-.14,0-.14.11l.07.11v0c0,.11-.06.16-.18.16a2.36,2.36,0,0,0-.75.43l-.34.07-.28.15-.17-.08-.19.06-.33,0-.43-.23c-.27-.16-.44-.31-.49-.47s-.13-.31-.21-.47a.84.84,0,0,1-.13-.33,2.52,2.52,0,0,1,.09-.8c.06-.16.1-.27.12-.35a.55.55,0,0,1,.13-.25,1,1,0,0,0,.18-.44,5.48,5.48,0,0,1,.47-.83,1.18,1.18,0,0,0,.2-.37l.15-.21a.6.6,0,0,0,.07-.18.29.29,0,0,1,.11-.18.56.56,0,0,0,.1-.21c0-.22-.1-.34-.31-.34,0,0-.08.05-.12.13a.8.8,0,0,1-.32.24,1.07,1.07,0,0,0-.31.17.87.87,0,0,1-.25.14.9.9,0,0,0-.34.28l-.19.09c-.06.15-.12.23-.17.25l-.43.11-.11.14a.31.31,0,0,1-.27.13,2.41,2.41,0,0,0-.28.33,1.08,1.08,0,0,0-.25.09l-.23.06a.89.89,0,0,0-.2.22.5.5,0,0,1-.42.15c-.11,0-.17-.09-.17-.28a1.13,1.13,0,0,1,.4-.91,1.63,1.63,0,0,1,.59-.36.24.24,0,0,0,.23-.14.38.38,0,0,1,.23-.19,1.27,1.27,0,0,0,.42-.34,1.23,1.23,0,0,1,.52-.35Z" transform="translate(0 -218.51)"/><path class="e1119e42-4c01-4c12-bb37-48a44c563345" d="M237,276.9l.32-.16a1.27,1.27,0,0,0,.32-.3l.41-.29a1.28,1.28,0,0,1,.45-.23l.19.07a.67.67,0,0,0,.14-.15.35.35,0,0,1,.29-.14,1,1,0,0,1,.57.31.85.85,0,0,1,.36.56l-.05.4a3.28,3.28,0,0,0,.1.52v.09l0,.28,0,.29-.13.57c0,.15.05.22.15.22a.92.92,0,0,1,.34-.22l.16-.16a.26.26,0,0,1,.14-.09s.07,0,.12-.11a.41.41,0,0,1,.19-.16.3.3,0,0,0,.17-.16,2.8,2.8,0,0,1,1-.82s.08,0,.16-.11a.4.4,0,0,1,.18-.14l.25-.2.11,0h0a.56.56,0,0,0,.19-.11.49.49,0,0,1,.23-.12,1,1,0,0,1,.73.3c.19.2.28.35.28.46l-.06.27.09.36v.23l-.06.24a.34.34,0,0,0,.1.2c.06.09.1.14.1.18s-.14.16-.14.19l0,.21-.06.64a.53.53,0,0,0,.15.27.64.64,0,0,1,.2-.08.76.76,0,0,0,.2-.08l.07,0h0l.14.05h.05c.06,0,.1-.06.11-.18a.36.36,0,0,1,.23-.3l.28,0a1.12,1.12,0,0,0,.09-.19,1.93,1.93,0,0,1,.49-.5,1.23,1.23,0,0,1,.64-.33c.12,0,.18.05.18.16a1,1,0,0,1,0,.25.53.53,0,0,1,.1.28c0,.14-.13.3-.38.47a2,2,0,0,0-.58.64l0,0-.23,0s-.06.06-.12.18-.12.19-.2.2a.34.34,0,0,0-.16.07l-.25.15s-.2.19-.46.47-.47.43-.65.43a1.38,1.38,0,0,1-.42-.12,1.12,1.12,0,0,1-.41-.25,2,2,0,0,0-.29-.29.79.79,0,0,1-.2-.62s0,0,.07-.08.06-.07.06-.1a1,1,0,0,1-.27-.5.49.49,0,0,1,0-.15.77.77,0,0,0,0-.15l0-.41,0-.21,0-.12.07-.6c0-.09-.05-.14-.16-.14s-.08,0-.13.1a.48.48,0,0,1-.2.14.73.73,0,0,0-.27.33.87.87,0,0,0-.28.23c-.05.07-.09.11-.12.11l-.1,0a.26.26,0,0,0-.14.21v0l0,.1c0,.07-.06.13-.18.19a1.62,1.62,0,0,0-.43.48.3.3,0,0,0-.16,0l-.14.27a.69.69,0,0,0-.22.25l-.14.07a1.35,1.35,0,0,1-.17.25L240,281c-.33.4-.57.6-.7.6s-.29-.18-.48-.53a2,2,0,0,1-.27-.81l0-.43a.81.81,0,0,0-.09-.19v-.05a2.67,2.67,0,0,1,.09-.26V279a.25.25,0,0,0,0-.07v-.06a.81.81,0,0,1,.09-.19l-.07-.33,0-.19,0-.41,0-.36a.31.31,0,0,0-.06-.12q-.06-.09-.09-.09a1.77,1.77,0,0,0-.48.27,3.16,3.16,0,0,0-.54.42l-.37.36c-.17.08-.28.27-.34.59,0,0,0,0-.05,0s0,0-.07-.05h0s-.16.17-.36.5l-.05.05-.22-.05c-.19,0-.28.2-.28.59,0,.07,0,.12-.15.14a.36.36,0,0,0-.22.2,2.77,2.77,0,0,1-.22.34,1,1,0,0,0-.31.17,3,3,0,0,1-.25.35,3.88,3.88,0,0,0-.29.4s-.06.08-.15.13-.14.1-.14.14l0,.19c0,.13-.12.19-.36.19-.47,0-.7-.48-.7-1.45a.61.61,0,0,1,.14-.37,3.69,3.69,0,0,0,.29-.5,5.35,5.35,0,0,0,.52-.64,5.09,5.09,0,0,1,.45-.57l.16-.24a.33.33,0,0,1,.05-.21.28.28,0,0,0,.06-.18q0-.18-.09-.18a.52.52,0,0,0-.35.11,1,1,0,0,1-.29.16.28.28,0,0,0-.2.16.9.9,0,0,0-.34.3l-.24.28a.5.5,0,0,0-.11.16.21.21,0,0,1-.14.11.28.28,0,0,0-.15.08.28.28,0,0,1-.22.07c-.07,0-.13-.07-.19-.22a1.08,1.08,0,0,1-.09-.26c0-.56.38-1.05,1.13-1.46a1.24,1.24,0,0,0,.24-.17l.18-.12.05-.09a1.93,1.93,0,0,1,.7-.39h.16l.78-.2c.34-.08.5.3.5,1.13l0,.21,0,.09a4.12,4.12,0,0,1,.4-.33,2.15,2.15,0,0,0,.3-.26A.82.82,0,0,1,237,276.9Z" transform="translate(0 -218.51)"/><path class="e1119e42-4c01-4c12-bb37-48a44c563345" d="M256.13,279.18l.19-.17a.18.18,0,0,0,.2-.15.39.39,0,0,1,.25-.25,1,1,0,0,0,.41-.38c.12-.19.25-.29.38-.29s.1,0,.16.12a.35.35,0,0,1,.09.19,1.55,1.55,0,0,1-.23.79l-.05.32-.08.15a.55.55,0,0,0-.22.2.9.9,0,0,1-.28.26l-.11.16a.56.56,0,0,0-.35.27.35.35,0,0,1-.24.21.6.6,0,0,0-.35.23,1.26,1.26,0,0,1-.28.11l0,.11a.87.87,0,0,1-.36.19,2.66,2.66,0,0,0-.38.13.35.35,0,0,1-.17.07.9.9,0,0,1-.4-.09,1.15,1.15,0,0,0-.39-.11.37.37,0,0,1-.08-.15.54.54,0,0,0-.12-.22.64.64,0,0,1-.1-.36l.05-.23s0-.06-.06-.11a.22.22,0,0,1-.06-.12.14.14,0,0,1,0-.07.08.08,0,0,0,0-.07.35.35,0,0,0,0-.13.52.52,0,0,1,0-.11l.07-.57c0-.05,0-.07,0-.07s-.08,0-.17.11a.38.38,0,0,1-.28.12.55.55,0,0,0-.15.29.93.93,0,0,1-.23.21l-.05.07c0,.06-.08.1-.18.13a.43.43,0,0,0-.21.14l-.11.12-.22,0a1.78,1.78,0,0,0-.13.21.94.94,0,0,1-.27.29l-.88.72c-.1.07-.23.14-.41.24l-.07.07a3,3,0,0,1-1.32.61,2.05,2.05,0,0,1-.73-.17q-.42-.18-.45-.42l-.12-.48a.83.83,0,0,1-.11-.45.41.41,0,0,1,0-.19v-.07l0-.38c0-.09.08-.14.23-.14l0-.32a1.61,1.61,0,0,1,.21-.36,1.33,1.33,0,0,1,.27-.37l.12-.15a.38.38,0,0,1,.16-.3,1.37,1.37,0,0,0,.28-.32,1.39,1.39,0,0,1,.39-.36l.35-.35a3.62,3.62,0,0,1,.89-.65,1,1,0,0,0,.29-.23,1.32,1.32,0,0,1,.49-.31,3.65,3.65,0,0,0,.53-.25.93.93,0,0,1,.42-.15h.09a5.32,5.32,0,0,0,.62-.29h.07a.78.78,0,0,1,.22.09h0l.19-.09a.2.2,0,0,1,.11,0c.49,0,.75.34.8,1,0,.14,0,.21.11.21s.19-.14.34-.42a.92.92,0,0,1,.91-.43c.33,0,.5.22.5.64a2,2,0,0,1-.67,1.44.48.48,0,0,0-.07.21l-.17.47v0a.34.34,0,0,1-.1.19.4.4,0,0,0-.1.21l0,.29-.05.33a.38.38,0,0,0,.08.29.9.9,0,0,0,.54-.31.84.84,0,0,1,.24-.24l.12,0A1,1,0,0,1,256.13,279.18Zm-3.87,0a.57.57,0,0,1,.29-.39.53.53,0,0,0,.28-.28,6.22,6.22,0,0,0,.64-.58c.27-.28.41-.45.41-.51a0,0,0,0,0,0,0h0l-.09.06-.21,0-.22,0-.16-.08-.16,0-.23,0a.66.66,0,0,0-.32.07,2.24,2.24,0,0,1-.51.17,1.85,1.85,0,0,0-.68.32,1,1,0,0,1-.44.23,1.85,1.85,0,0,1-.55.5.52.52,0,0,0-.36.41c-.2.16-.31.25-.31.28l-.08.19a.74.74,0,0,1-.23.14.26.26,0,0,0-.16.24.66.66,0,0,1-.16.35.45.45,0,0,0-.13.25c0,.38.07.57.22.57a1.45,1.45,0,0,0,.39-.12,1.36,1.36,0,0,0,.34-.17.47.47,0,0,1,.19-.09l.22-.12a.21.21,0,0,1,.1-.06.19.19,0,0,0,.12-.07.83.83,0,0,1,.21-.14.57.57,0,0,0,.23-.2l.64-.37.25-.18a1,1,0,0,0,.31-.2A.65.65,0,0,1,252.26,279.18Z" transform="translate(0 -218.51)"/><path class="e1119e42-4c01-4c12-bb37-48a44c563345" d="M259.35,276.63l.17-.29a1.09,1.09,0,0,1,.18-.22,1.59,1.59,0,0,0,.24-.57,1.55,1.55,0,0,1,.28-.63.59.59,0,0,1,.46-.18,1,1,0,0,1,.46.17,1.88,1.88,0,0,1,.56,1,4.76,4.76,0,0,1,.27,1.2,1,1,0,0,0,.09.35c.05.15.08.26.1.33a1.4,1.4,0,0,0-.09.23l0,.47-.14.39v.28a.94.94,0,0,0-.14.29.3.3,0,0,0,.05.14,2.06,2.06,0,0,0,.66-.38.46.46,0,0,1,.23-.18,1.33,1.33,0,0,0,.36-.3l.22-.12a3.11,3.11,0,0,0,.2-.25.56.56,0,0,1,.19-.16,1.17,1.17,0,0,0,.27-.16,2.48,2.48,0,0,1,.44-.27l.11-.14a1.43,1.43,0,0,1,.42-.31,1.27,1.27,0,0,1,.26-.12s.11.07.17.22a1.25,1.25,0,0,1,.08.42.53.53,0,0,1-.22.39,1.84,1.84,0,0,0-.31.29.86.86,0,0,1-.37.16,5.52,5.52,0,0,0-.39.48l-.23.14-.12.15s-.12.06-.31.09c0,0,0,0,0,.12s-.11.13-.25.16a2.81,2.81,0,0,0-.43.43l-.25.05a.82.82,0,0,1-.11.27c-.19,0-.29.12-.32.23l-.11,0-.05,0a1.34,1.34,0,0,1-.52.26l-.27.07-.1.14s-.09.08-.28.15a1,1,0,0,0-.42.23l-.2.15a1.2,1.2,0,0,0-.46.26h-.16a1.09,1.09,0,0,0-.51.24,1.15,1.15,0,0,1-.56.23,1.79,1.79,0,0,1-.92-.16,1.68,1.68,0,0,1-.42-.42,3.16,3.16,0,0,0-.29-.41.44.44,0,0,1-.14-.24.22.22,0,0,1,.11-.16.93.93,0,0,0,.24-.33.79.79,0,0,1,.65-.32l.17-.07a.56.56,0,0,1,.24-.07c.08,0,.18.07.29.21s0,0,.05,0l.19,0a.39.39,0,0,0,.17.09.89.89,0,0,0,.59-.28l.05,0h.09s.06-.07.12-.2l.2-.41.4-.52v-.12s0-.09.07-.21v-.17c0-.07.05-.12.14-.14s.14-.07.14-.14l0-.1a.39.39,0,0,1-.09-.19l.11-.24,0-.24.05-.09a.81.81,0,0,1-.05-.19l.05-.29s0-.08-.07-.22-.08-.21-.1-.21-.19.12-.44.36a2.09,2.09,0,0,0-.44.51.67.67,0,0,1-.3.27.78.78,0,0,0-.31.28.28.28,0,0,1-.2.17L258,279l-.85.63c-.06.07-.1.1-.12.1-.28,0-.43-.15-.43-.47a1.65,1.65,0,0,1,.18-.55l.12-.07s0,0,0,0h0l.07.05h0a4,4,0,0,1,.56-.34.44.44,0,0,0,.23-.25l.49-.35a6.41,6.41,0,0,0,.57-.52A3.16,3.16,0,0,0,259.35,276.63Z" transform="translate(0 -218.51)"/><path class="e1119e42-4c01-4c12-bb37-48a44c563345" d="M263.83,278.15,264,278h.07q.07,0,.24-.18l.12,0a1,1,0,0,1,.41-.41l.18-.14a.37.37,0,0,1,.14-.08,1,1,0,0,0,.28-.23.54.54,0,0,1,.31-.19l.18,0a.81.81,0,0,1,.28-.27,1.3,1.3,0,0,0,.34-.32l.15-.07a1,1,0,0,0,.33-.24.51.51,0,0,1,.38-.14,1.06,1.06,0,0,1,.71.34,1,1,0,0,1,.36.66l-.19.91c-.14.66-.28,1-.45,1l0,.25c-.11.08-.17.14-.17.18l.07.28s0,.1-.12.18,0,0,0,.07v.48c0,.08-.05.15-.16.2a.18.18,0,0,0,.07,0,.45.45,0,0,1,.31-.07l.19,0,.26-.25a1.1,1.1,0,0,0,.22-.11,3.12,3.12,0,0,1,.5-.23l1.52-1.16c.21-.21.37-.32.48-.32s.17.08.17.22a.81.81,0,0,1-.1.43,3.31,3.31,0,0,0-.18.41.72.72,0,0,1-.19.33,1.12,1.12,0,0,0-.18.2,1.37,1.37,0,0,1-.38.32,2.9,2.9,0,0,0-.52.43,3.1,3.1,0,0,1-.36.3l-.5.37-.07.11a.78.78,0,0,1-.21.1,1.66,1.66,0,0,0-.35.19l-.21.12a.49.49,0,0,1-.22.06.43.43,0,0,0-.28.13q-.12.12-.18.12l-.18,0-.23.07a.82.82,0,0,1-.48-.24.68.68,0,0,1-.29-.5v-.07l0-.17a.93.93,0,0,0-.07-.24l-.07-.21,0-.16,0-.07a1,1,0,0,1,.05-.4.57.57,0,0,0,.07-.23c0-.09,0-.17.05-.24l.06-.29a.37.37,0,0,1,.11-.18l.1-.32,0-.21.12-.16a.41.41,0,0,0,.11-.25.74.74,0,0,1,.12-.33,1,1,0,0,0,.11-.21.13.13,0,0,0-.14-.14s-.13.06-.29.19l-.21-.07s-.06,0-.13.11,0,.06-.11.07a.41.41,0,0,0-.2.18l-.09,0-.15-.07h0c-.07,0-.12.08-.14.26a.57.57,0,0,1-.33.24l-.26.07a.31.31,0,0,0-.19.21.64.64,0,0,1-.23.3.54.54,0,0,1-.23.13q-.33,0-.33-.36l.1-.55Zm5-5.82-.07-.45v-.07c0-.37.12-.57.37-.61l.49-.15a.8.8,0,0,1,.44.37,1,1,0,0,1,.23.56.82.82,0,0,1,0,.11,1.13,1.13,0,0,0,0,.31.5.5,0,0,1-.22.39.77.77,0,0,1-.46.17.74.74,0,0,1-.42-.23A.78.78,0,0,1,268.86,272.33Z" transform="translate(0 -218.51)"/><path class="e1119e42-4c01-4c12-bb37-48a44c563345" d="M281.44,272.42l.07,0h.31c.1,0,.23-.11.41-.32a5.91,5.91,0,0,1,.62-.23l0,0,.23-.19h.23l.18-.11a2.67,2.67,0,0,1,.7-.25,3.51,3.51,0,0,0,.69-.23,3.42,3.42,0,0,1,.51-.07l.33-.06.25,0c.42,0,.71.27.89.82a.3.3,0,0,0,.06.14.37.37,0,0,1,.06.15,1.55,1.55,0,0,1-.48,1l-.16.43a.79.79,0,0,1-.13.18,1.71,1.71,0,0,0-.21.35,2.48,2.48,0,0,1-.5.61c-.05.1-.12.24-.2.44a1.49,1.49,0,0,1-.22.39c-.05.06-.21.3-.45.7a3.05,3.05,0,0,0-.37.71.77.77,0,0,0-.24.43,1.75,1.75,0,0,1-.23.57l0,.08c.25-.08.37-.22.37-.4s.07-.09.2-.18l.1-.16a.53.53,0,0,1,.24-.19.83.83,0,0,1,.24-.27l.3-.25a.78.78,0,0,1,.25-.15c.12,0,.25-.24.4-.57,0-.07.07-.12.18-.16a.53.53,0,0,0,.26-.19.75.75,0,0,1,.17-.18l.09-.14a1.52,1.52,0,0,1,.18-.14l.57-.7c.3-.19.47-.34.5-.45l.09,0H288l.25-.21a.44.44,0,0,1,.26-.46,1.06,1.06,0,0,0,.38-.27.32.32,0,0,1,.25-.16s.07,0,.13.07h0s.05,0,.07-.11v-.12a.48.48,0,0,1,.12-.33.63.63,0,0,1,.31-.17.67.67,0,0,0,.39-.29.56.56,0,0,1,.42-.27.33.33,0,0,0,.32-.19,1,1,0,0,1,.5-.37,3.91,3.91,0,0,1,.52-.23.66.66,0,0,0,.2-.06.35.35,0,0,1,.18-.05,1.5,1.5,0,0,1,.33.07l.21.05a1.24,1.24,0,0,1,.5.43l.12.12v0l0,.2v.09c.1.05.15.1.15.14l-.08.16a.36.36,0,0,0,0,.19,1.64,1.64,0,0,1,0,.22,1.49,1.49,0,0,1,0,.21c0,.07,0,.13-.05.19l-.06.16-.09.14-.09.38a1.62,1.62,0,0,1-.25.53,2,2,0,0,0-.24.43,1.57,1.57,0,0,1-.16.33l0,.07v.16c.24,0,.36-.12.36-.28s.1-.28.3-.36l.25-.21a1.51,1.51,0,0,1,.75-.7.57.57,0,0,1,.22-.38l.45-.42.31-.17a.94.94,0,0,1,.48-.53l.26-.16c.16-.08.24-.16.26-.23a.5.5,0,0,1,.18-.23,4.32,4.32,0,0,0,.45-.38l.09-.05.12-.11a1.1,1.1,0,0,1,.29-.12l.09-.05a2,2,0,0,1,.53-.29,3.4,3.4,0,0,0,.52-.25l.41-.06.18,0c.74,0,1.11.42,1.11,1.25l0,.18,0,.68a3.88,3.88,0,0,0-.29.5l0,.21a1,1,0,0,1-.15.27l-.18.28a2.31,2.31,0,0,1-.22.24l-.11.35a.68.68,0,0,1-.2.22v.14c0,.12-.15.29-.45.52a.79.79,0,0,1-.21.45,1,1,0,0,0-.22.31.9.9,0,0,1-.24.29,1.27,1.27,0,0,1-.2.52,2.23,2.23,0,0,1-.3.46,1,1,0,0,0-.23.34l-.11.05c0,.29-.1.46-.16.5l-.19,0v.05l.05.08a.18.18,0,0,1,0,.27c-.05,0-.08.08-.08.11a.34.34,0,0,1-.06.12.66.66,0,0,0,0,.23,1.47,1.47,0,0,1-.17.46,1.42,1.42,0,0,0-.18.39.8.8,0,0,1,0,.18.59.59,0,0,0,0,.14,2.7,2.7,0,0,1-.06.36c.15.35.26.58.32.71a.72.72,0,0,1,.09.24,1.28,1.28,0,0,1-.11.63c-.08.1-.27.15-.58.15a.72.72,0,0,1-.5-.2.61.61,0,0,0-.38-.2v-.21l0,0h-.18l-.1-.08a.78.78,0,0,1-.15-.16l-.07-.07a1.23,1.23,0,0,1-.16-.39l-.07-.23,0-.18,0-.3a.82.82,0,0,1,0-.18l0-.32a.82.82,0,0,1,0-.2,1.91,1.91,0,0,0,.06-.37.5.5,0,0,1,.11-.33.52.52,0,0,0,.1-.2.3.3,0,0,1,.06-.14.44.44,0,0,0,.09-.26.49.49,0,0,1,.25-.34c.07-.14.14-.27.19-.39a3.68,3.68,0,0,1,.26-.34h.16a.5.5,0,0,1-.11-.16c0-.21.08-.32.24-.32l.12,0,0-.1,0-.19c0-.14.1-.27.3-.4a.78.78,0,0,1,.31-.61l0-.18a1.65,1.65,0,0,0,.2-.31,2.67,2.67,0,0,1,.32-.48l.37-.55.16-.19h0s0,0,0-.05l0-.12.07-.17.08-.1q.3-.07.3-.21l-.09-.15v0c0-.07.05-.14.14-.24a1.39,1.39,0,0,0,.26-.39,1.07,1.07,0,0,0,.12-.31s0,0,0,0a.5.5,0,0,0-.5.26c0,.05-.15.14-.46.28l-.11.18a.46.46,0,0,1-.25.13.47.47,0,0,0-.27.13l-.74.61a7.85,7.85,0,0,0-.84.77l-.27.19c-.11.05-.16.09-.16.13s-.07.17-.2.3l-.14.17-.19-.06a.29.29,0,0,0-.22.13q.09.09.09.12c0,.12-.11.25-.35.38l-.5.53-.17.12a.67.67,0,0,0-.23.27,3.33,3.33,0,0,1-.42.54,3,3,0,0,1-.39.42.38.38,0,0,0-.14.16,2,2,0,0,1-.34.36.84.84,0,0,0-.29.51c-.15.06-.23.1-.23.14l-.07.12-.09.05a.43.43,0,0,0,0,.15c0,.08-.17.21-.47.4a1.64,1.64,0,0,1-.57.28l-.11.05a.21.21,0,0,1-.09.05l-.31-.14a1,1,0,0,1-.4-.66l.09-.3,0-.24a.35.35,0,0,1,.11-.19.42.42,0,0,0,.11-.29c.12-.28.22-.48.28-.59l0-.19a1.31,1.31,0,0,1,.16-.26.68.68,0,0,0,.13-.33.25.25,0,0,1,.15-.22,7.12,7.12,0,0,0,.95-1.41v-.17l.34-.58c.1-.17.22-.36.37-.58l.1-.27-.38-.14a.28.28,0,0,0-.18.1c0,.13-.22.26-.68.4a1.19,1.19,0,0,0-.36.34l-.33.19a1.75,1.75,0,0,0-.22.18l-.16.16a.85.85,0,0,0-.5.32l-.32.22-.18.18a2.21,2.21,0,0,1-.43.25l-.19.19-.17.09a2.23,2.23,0,0,0-.28.34.37.37,0,0,1-.25.16l-.25.1a1.11,1.11,0,0,1-.43.58l-.34.42-.16.13a.33.33,0,0,1-.17.16l-.2.25-.13.11c-.21.08-.32.14-.32.19l0,.2c0,.09-.09.17-.27.25a.23.23,0,0,0-.14.19.73.73,0,0,1-.09.26h-.21a1,1,0,0,0-.22.12l0,0,0,.27a.5.5,0,0,1-.18.32,2.53,2.53,0,0,0-.29.32c-.06.09-.11.14-.14.14h-.07l-.07.05c0,.15-.09.3-.29.47l-.14.18a4,4,0,0,0-.4.58,6.07,6.07,0,0,1-.62.85,1.78,1.78,0,0,1-.53.44l-.53.22-.48-.09a.57.57,0,0,0-.2-.21c-.09-.05-.13-.11-.13-.17l-.14-.41a.84.84,0,0,1,.13-.4,2,2,0,0,0,.15-.37,2.32,2.32,0,0,1,.14-.37,1.21,1.21,0,0,0,.1-.25c0-.2,0-.33.1-.39l.45-.34s0,0,0-.05v0l0-.2c.18-.3.29-.45.34-.45l.09,0-.07-.25s0-.09.13-.16a.69.69,0,0,0,.19-.23l0-.14v0a.65.65,0,0,1,.29-.46c0-.06.09-.22.19-.47l.3-.54a.71.71,0,0,1,.25-.3.27.27,0,0,0,.14-.18.58.58,0,0,1,.08-.23s0,0,0,0a2,2,0,0,0,.05-.22.44.44,0,0,1,.27-.28q.27-.69.42-.69a.36.36,0,0,1,.13.05h0c.12,0,.18-.05.18-.14s0-.05,0-.05a.3.3,0,0,1-.19.12c-.06,0-.08,0-.08,0a.05.05,0,0,1,0,0L284,274l0-.22a1,1,0,0,1,.19-.21l.2-.27v-.11a1,1,0,0,1,.1-.24,2,2,0,0,0,.15-.43l.2-.29a.85.85,0,0,0,.05-.25c0-.12,0-.18-.05-.18l-.68.13c-.36.19-.62.33-.78.44l-.27.06a2.13,2.13,0,0,0-.31.16,1.34,1.34,0,0,1-.5.17.6.6,0,0,0-.38.17l-.05,0h-.22l-.17.23c0,.05-.06.08-.08.08-.79.52-1.28.83-1.49.94a2.92,2.92,0,0,0-.48.3,1.54,1.54,0,0,1-.28.19v.14a.69.69,0,0,1-.29.45.84.84,0,0,1-.49.25.59.59,0,0,1-.22-.08,1,1,0,0,0-.32-.1c-.12,0-.18-.16-.18-.44s.32-.76,1-1.08a1.1,1.1,0,0,0,.28-.17,10,10,0,0,1,1-.45l.34-.16a1.14,1.14,0,0,1,.39-.22,4.29,4.29,0,0,0,.43-.17l.25-.09Zm10.92,2.82.12-.21v0s0,0-.05,0-.14.07-.18.23,0,.07,0,.07A.08.08,0,0,0,292.36,275.24Z" transform="translate(0 -218.51)"/><path class="e1119e42-4c01-4c12-bb37-48a44c563345" d="M307.79,279.18,308,279a.18.18,0,0,0,.21-.15c0-.11.11-.19.25-.25a1,1,0,0,0,.4-.38c.12-.19.25-.29.38-.29s.1,0,.16.12a.32.32,0,0,1,.1.19,1.57,1.57,0,0,1-.24.79l0,.32-.08.15a.52.52,0,0,0-.23.2,1,1,0,0,1-.27.26l-.12.16a.53.53,0,0,0-.34.27.35.35,0,0,1-.25.21.59.59,0,0,0-.34.23,1.49,1.49,0,0,1-.28.11l0,.11a.85.85,0,0,1-.37.19,2.45,2.45,0,0,0-.37.13.39.39,0,0,1-.17.07.91.91,0,0,1-.41-.09,1,1,0,0,0-.38-.11.22.22,0,0,1-.08-.15.54.54,0,0,0-.12-.22.57.57,0,0,1-.11-.36l.05-.23s0-.06-.06-.11a.22.22,0,0,1-.06-.12.09.09,0,0,1,0-.07.12.12,0,0,0,0-.07.69.69,0,0,0,0-.13.26.26,0,0,1,0-.11l.07-.57c0-.05,0-.07,0-.07a.4.4,0,0,0-.17.11.4.4,0,0,1-.29.12.55.55,0,0,0-.15.29.93.93,0,0,1-.23.21l-.05.07c0,.06-.07.1-.17.13a.43.43,0,0,0-.21.14l-.12.12-.22,0-.13.21a1,1,0,0,1-.26.29l-.89.72a3.76,3.76,0,0,1-.41.24l-.07.07a3.05,3.05,0,0,1-1.31.61,2.1,2.1,0,0,1-.74-.17q-.42-.18-.45-.42l-.12-.48a.83.83,0,0,1-.1-.45.71.71,0,0,1,0-.19v-.07l0-.38c0-.09.07-.14.22-.14l0-.32a1.35,1.35,0,0,1,.2-.36,2,2,0,0,1,.27-.37l.12-.15a.41.41,0,0,1,.16-.3,1.37,1.37,0,0,0,.28-.32,1.46,1.46,0,0,1,.4-.36l.35-.35a3.57,3.57,0,0,1,.88-.65.91.91,0,0,0,.29-.23,1.41,1.41,0,0,1,.49-.31,4.34,4.34,0,0,0,.54-.25.9.9,0,0,1,.41-.15h.09a5.32,5.32,0,0,0,.62-.29h.07a.68.68,0,0,1,.22.09h0l.18-.09a.21.21,0,0,1,.12,0c.48,0,.74.34.79,1q0,.21.12.21t.33-.42a.93.93,0,0,1,.91-.43c.34,0,.51.22.51.64A2,2,0,0,1,307,278a1,1,0,0,0-.07.21l-.16.47v0a.43.43,0,0,1-.1.19.33.33,0,0,0-.1.21l0,.29,0,.33c0,.15,0,.25.08.29a1,1,0,0,0,.54-.31,1,1,0,0,1,.23-.24l.12,0A1,1,0,0,1,307.79,279.18Zm-3.86,0a.53.53,0,0,1,.28-.39.56.56,0,0,0,.29-.28,5.41,5.41,0,0,0,.63-.58q.42-.42.42-.51a0,0,0,0,0-.05,0h0l-.1.06-.2,0-.23,0-.16-.08-.15,0-.23,0a.63.63,0,0,0-.32.07,2.19,2.19,0,0,1-.52.17,1.85,1.85,0,0,0-.68.32,1,1,0,0,1-.44.23,1.72,1.72,0,0,1-.55.5.56.56,0,0,0-.36.41c-.2.16-.3.25-.3.28l-.08.19a.69.69,0,0,1-.24.14.27.27,0,0,0-.16.24.6.6,0,0,1-.16.35.54.54,0,0,0-.13.25c0,.38.07.57.22.57a1.45,1.45,0,0,0,.39-.12,1.82,1.82,0,0,0,.35-.17.49.49,0,0,1,.18-.09l.22-.12a.24.24,0,0,1,.11-.06.15.15,0,0,0,.11-.07.83.83,0,0,1,.21-.14.68.68,0,0,0,.24-.2l.64-.37.24-.18a1,1,0,0,0,.32-.2A.5.5,0,0,1,303.93,279.18Z" transform="translate(0 -218.51)"/><path class="e1119e42-4c01-4c12-bb37-48a44c563345" d="M308.61,289.23l-.19.13a.42.42,0,0,1-.24.07.76.76,0,0,1-.57-.38,1.37,1.37,0,0,1-.27-.79,2.55,2.55,0,0,1,.15-1,2.81,2.81,0,0,0,.17-.46s.08-.2.25-.58a4.08,4.08,0,0,1,.47-.86c.14-.19.27-.37.37-.54l.05-.1a1.3,1.3,0,0,1,.33-.38q0-.07.45-.48a9.68,9.68,0,0,1,.85-.71l.11-.16a1.39,1.39,0,0,1,.33-.18l.67-.18.46-.36h.09l.31-.1a4,4,0,0,1,.8-.21c.36-.07.56-.15.61-.23s.09-.18.13-.26.12-.24.25-.48.06-.24.08-.32.05-.12.08-.14.07-.09.13-.22.13-.25.19-.35,0,0,0,0l-.07-.2c.07-.19.13-.3.2-.34s.09-.07.09-.09l-.08-.21.2-.43s0-.05,0-.05a2.67,2.67,0,0,1-.72.43,2.18,2.18,0,0,1-.25.28.42.42,0,0,0-.27.25l-.09,0-.07.12-.08.06a2,2,0,0,0-.33.18l-.14,0s-.07.08-.12.23a.84.84,0,0,1-.37.29.37.37,0,0,0-.23.12l-.09.12-.12,0c-.16,0-.24.06-.24.19a.38.38,0,0,1-.14.24.69.69,0,0,0-.24.07h-.17a.56.56,0,0,1-.42.32l-.34.23-.19.07a1.61,1.61,0,0,0-.28.17,1.14,1.14,0,0,1-.48.12,2.27,2.27,0,0,0-.5-.18c-.22-.06-.38-.44-.48-1.13h0a.35.35,0,0,0-.2.07.46.46,0,0,1-.16.06c-.19,0-.28-.07-.28-.23a.64.64,0,0,1,.4-.68l.29-.37.74-.73c.52-.52.87-.85,1.05-1a6.9,6.9,0,0,1,.59-.43l.59-.4a2.09,2.09,0,0,1,.37-.21.37.37,0,0,0,.15-.08,2,2,0,0,1,.43-.17l.21-.1a3.91,3.91,0,0,1,.84-.22l.16,0a.34.34,0,0,0,.24-.1,1,1,0,0,0,.51-.25l.42-.12a.88.88,0,0,1,.29-.06h.22c.16,0,.27.13.32.39s.09.38.13.38.07-.06.14-.17l.17-.12a.59.59,0,0,1,.22-.12.33.33,0,0,1,.35.24v0l0,.06a5.88,5.88,0,0,1,.11.69,1.41,1.41,0,0,1-.24.87,2.06,2.06,0,0,0-.29.44,7.62,7.62,0,0,1-.46,1.42l-.28.68-.12.11a.08.08,0,0,0,0,.07l0,.16a1.08,1.08,0,0,0-.2.51,1.23,1.23,0,0,1-.19.43l.21.12a1.61,1.61,0,0,1,.41.37.78.78,0,0,1,.22.41,4.37,4.37,0,0,1-.12.46,1.27,1.27,0,0,1-.72.31.69.69,0,0,1-.33-.15l-.07,0v0a.55.55,0,0,1-.24-.09.41.41,0,0,0-.17,0c-.06,0-.1,0-.1.09a.16.16,0,0,0,0,.09l-.19.18a1.7,1.7,0,0,1-.16.34,1.53,1.53,0,0,1-.29.42c-.17,0-.29.13-.35.38a1.07,1.07,0,0,1-.22.48l-.12-.05a3.9,3.9,0,0,1-.79,1.14c-.17,0-.25.07-.25.09a.61.61,0,0,0,0,.15.84.84,0,0,1-.28.38q-.25.27-.3.27l-.12,0-.07.07c0,.15-.2.4-.62.74-.22.13-.34.21-.36.26s-.29.32-.69.52l-.22.2a.87.87,0,0,1-.3.2Zm4.2-6-.35.05a.37.37,0,0,0-.2-.09s-.05,0-.07.07a1.17,1.17,0,0,1-.61.31,1.81,1.81,0,0,0-.65.26.64.64,0,0,1-.28.15c-.08,0-.12,0-.12,0a1.56,1.56,0,0,0-.18.17,1.18,1.18,0,0,0-.23.14.45.45,0,0,1-.24.12c-.14.31-.24.46-.31.46l-.11,0h0c-.11.21-.18.32-.24.35a.47.47,0,0,0-.14.14.73.73,0,0,1-.22.19.52.52,0,0,0-.23.35.72.72,0,0,1-.15.34.79.79,0,0,0-.11.39l-.07.17a3.47,3.47,0,0,0-.1.4l-.06.34a.38.38,0,0,0,.14.29.34.34,0,0,1,.2-.08l.68-.28.26-.21a1.13,1.13,0,0,1,.39-.25.78.78,0,0,0,.31-.21.76.76,0,0,1,.23-.24.35.35,0,0,0,.15-.23l.49-.44a1.49,1.49,0,0,0,.29-.33.55.55,0,0,1,.2-.23l.05-.15.1,0c.05,0,.13-.14.25-.38l.31-.52a2.05,2.05,0,0,0,.45-.71l.17-.14s0-.05,0-.11Zm-.21-3.71.14-.2a.46.46,0,0,1,.24-.14.51.51,0,0,0,.28-.2,1.66,1.66,0,0,1,.66-.58l.11-.08c.12-.23.23-.35.32-.37a.39.39,0,0,0,.24-.21.66.66,0,0,0,.11-.29s0-.05-.07-.05a.48.48,0,0,0-.29.09c-.08.06-.13.1-.17.1l-.23,0c-.14.08-.33.17-.58.28l-.21.18a.66.66,0,0,1-.25.11.28.28,0,0,0-.17.15q-.06.12-.15.12l-.09.05s-.12,0-.27,0a1.41,1.41,0,0,0-.24.2c-.08.09-.13.13-.15.13a1.32,1.32,0,0,1-.46.36.43.43,0,0,0-.25.2.67.67,0,0,0-.37.26,1,1,0,0,1-.27.28,1,1,0,0,0-.22.19l-.11.1a.91.91,0,0,0-.2.3,1.13,1.13,0,0,0-.12.37c0,.05,0,.07.08.07a1.26,1.26,0,0,0,.44-.17,2,2,0,0,0,.41-.26c.07-.06.11-.09.13-.09l.44,0a.37.37,0,0,1,.24-.2.41.41,0,0,0,.26-.2,1.17,1.17,0,0,1,.53-.32l.13-.21Z" transform="translate(0 -218.51)"/><path class="e1119e42-4c01-4c12-bb37-48a44c563345" d="M326.68,279.18l.18-.17a.18.18,0,0,0,.21-.15c0-.11.11-.19.25-.25a1,1,0,0,0,.4-.38c.12-.19.25-.29.38-.29s.1,0,.17.12a.35.35,0,0,1,.09.19,1.65,1.65,0,0,1-.23.79l-.05.32-.08.15a.59.59,0,0,0-.23.2.74.74,0,0,1-.27.26l-.12.16a.56.56,0,0,0-.34.27.35.35,0,0,1-.25.21.59.59,0,0,0-.34.23,1.49,1.49,0,0,1-.28.11l0,.11a.85.85,0,0,1-.37.19,2.45,2.45,0,0,0-.37.13.39.39,0,0,1-.17.07,1,1,0,0,1-.41-.09,1,1,0,0,0-.38-.11.22.22,0,0,1-.08-.15.54.54,0,0,0-.12-.22.57.57,0,0,1-.1-.36l0-.23s0-.06-.06-.11a.28.28,0,0,1-.05-.12.08.08,0,0,1,0-.07.12.12,0,0,0,0-.07.69.69,0,0,0,0-.13.23.23,0,0,1,0-.11l.07-.57c0-.05,0-.07,0-.07a.4.4,0,0,0-.17.11.39.39,0,0,1-.28.12.49.49,0,0,0-.16.29.93.93,0,0,1-.23.21l-.05.07c0,.06-.07.1-.17.13a.43.43,0,0,0-.21.14l-.12.12-.22,0-.13.21a.8.8,0,0,1-.26.29l-.89.72a3.76,3.76,0,0,1-.41.24l-.07.07a3,3,0,0,1-1.31.61,2,2,0,0,1-.73-.17c-.28-.12-.44-.26-.46-.42l-.12-.48a.83.83,0,0,1-.1-.45.71.71,0,0,1,0-.19v-.07l0-.38c0-.09.07-.14.22-.14l0-.32a1.81,1.81,0,0,1,.2-.36,1.5,1.5,0,0,1,.28-.37l.11-.15c0-.09.05-.19.17-.3a1.31,1.31,0,0,0,.27-.32,1.46,1.46,0,0,1,.4-.36l.35-.35a3.44,3.44,0,0,1,.89-.65,1.06,1.06,0,0,0,.28-.23,1.5,1.5,0,0,1,.49-.31,4.34,4.34,0,0,0,.54-.25.9.9,0,0,1,.41-.15h.09a4.57,4.57,0,0,0,.62-.29h.07a.68.68,0,0,1,.22.09h0l.18-.09a.21.21,0,0,1,.12,0c.48,0,.75.34.79,1q0,.21.12.21t.33-.42a.93.93,0,0,1,.92-.43c.33,0,.5.22.5.64a2,2,0,0,1-.68,1.44,1,1,0,0,0-.07.21l-.16.47v0a.34.34,0,0,1-.1.19.33.33,0,0,0-.1.21l0,.29,0,.33c0,.15,0,.25.08.29a.9.9,0,0,0,.54-.31.84.84,0,0,1,.24-.24l.11,0A.89.89,0,0,1,326.68,279.18Zm-3.87,0a.55.55,0,0,1,.29-.39.57.57,0,0,0,.28-.28,6.22,6.22,0,0,0,.64-.58c.27-.28.41-.45.41-.51a0,0,0,0,0-.05,0h0l-.09.06-.21,0-.23,0-.16-.08-.15,0-.23,0a.63.63,0,0,0-.32.07,2.24,2.24,0,0,1-.51.17,1.9,1.9,0,0,0-.69.32,1,1,0,0,1-.44.23,1.72,1.72,0,0,1-.55.5.56.56,0,0,0-.36.41c-.2.16-.3.25-.3.28l-.08.19a.74.74,0,0,1-.23.14.27.27,0,0,0-.17.24.58.58,0,0,1-.15.35.49.49,0,0,0-.14.25c0,.38.08.57.22.57a1.27,1.27,0,0,0,.39-.12,1.53,1.53,0,0,0,.35-.17.49.49,0,0,1,.18-.09l.22-.12a.3.3,0,0,1,.11-.06.19.19,0,0,0,.12-.07.57.57,0,0,1,.21-.14.64.64,0,0,0,.23-.2l.64-.37.24-.18a1,1,0,0,0,.32-.2A.56.56,0,0,1,322.81,279.18Z" transform="translate(0 -218.51)"/><path class="e1119e42-4c01-4c12-bb37-48a44c563345" d="M338.28,279.9h.05l.12.05a.05.05,0,0,0,0,0,.44.44,0,0,1,.19-.34.54.54,0,0,1,.26-.33l.65-.39.29-.25.14-.07.1-.12a.33.33,0,0,1,.24-.15c.12,0,.18,0,.18.13l-.11.23.05.38a.55.55,0,0,1-.15.38l-.45.47-.59.63-.32.17a1.46,1.46,0,0,0-.21.16l-.45.38a.31.31,0,0,1-.11.25H338l-.1,0a.91.91,0,0,1-.47.43l-.17.12a.21.21,0,0,1-.15.07l-.32-.05-.23.05a.58.58,0,0,1-.25-.09,1.87,1.87,0,0,0-.32-.15c-.11,0-.24-.18-.41-.43a1.78,1.78,0,0,1-.27-.49.4.4,0,0,0-.06-.16l0-.13a1.44,1.44,0,0,1,.11-.24v0a.73.73,0,0,0-.07-.16.76.76,0,0,1-.06-.32.89.89,0,0,0-.07-.27c.06-.06.09-.1.09-.14a.45.45,0,0,0,0-.13.3.3,0,0,1,0-.13l.07-.57-.05-.3,0-.27c0-.17-.07-.25-.21-.25a.36.36,0,0,0-.23.13l-.08,0a3.67,3.67,0,0,0-.45.25.39.39,0,0,1-.26.1.67.67,0,0,1-.27.13l-.09.07-.19.14a2.76,2.76,0,0,1-.43.39l-.79.67a1.37,1.37,0,0,1-.5.34c-.11,0-.16.12-.16.3s-.07.09-.21.19a1.86,1.86,0,0,0-.24.25.93.93,0,0,0-.21-.14c-.1,0-.17.13-.22.39-.05.1-.17.16-.37.18t-.09.18l0,0H330a.83.83,0,0,0-.16.14.92.92,0,0,1-.25.17c-.1.21-.18.31-.25.31a.39.39,0,0,1-.14-.05L329,282c-.09,0-.18-.12-.29-.28a.92.92,0,0,1-.16-.43c0-.86.17-1.33.5-1.41l0,0v-.1a.21.21,0,0,1,.13-.21.82.82,0,0,0,.28-.26.69.69,0,0,1,.18-.21h.15s0-.08,0-.25a.19.19,0,0,1,.06-.13.24.24,0,0,0,.07-.16,1,1,0,0,1,.17-.37,1.06,1.06,0,0,0,.15-.29l0,0a1,1,0,0,1-.42.29c-.08,0-.2.13-.35.34l-.18,0a3.71,3.71,0,0,1-.61.41.67.67,0,0,0-.26.27.09.09,0,0,1-.08.09,1.72,1.72,0,0,0-.3.19h-.07c-.2,0-.29-.14-.29-.42l.24-.66a1,1,0,0,1,.49-.53,5.89,5.89,0,0,0,.66-.42.93.93,0,0,1,.54-.2l.08-.12a.88.88,0,0,0,.53-.48c.1-.22.22-.32.39-.32a1.1,1.1,0,0,1,1,.47,1.4,1.4,0,0,1,.34.75l0,.31a2,2,0,0,1-.07.46.7.7,0,0,0-.14.31q0,.09.12.09a.32.32,0,0,0,.19-.1,2,2,0,0,1,.26-.18.36.36,0,0,0,.17-.14.66.66,0,0,1,.4-.38,1.18,1.18,0,0,0,.36-.17l.12-.1.09-.17a1.39,1.39,0,0,0,.42-.26.48.48,0,0,1,.28-.15.91.91,0,0,0,.4-.21l.17-.05.17-.09.13-.06.35-.12a1,1,0,0,1,.31-.09,1.09,1.09,0,0,1,.93.48,1.48,1.48,0,0,1,.35.77l0,.21.05.31v.05l-.09.64,0,.22a1,1,0,0,1-.23.76s-.06.05-.06.11V280l.23.49c.07.17.12.25.16.25l.38-.1a.44.44,0,0,0,.27-.25,1.62,1.62,0,0,0,.32-.27C338.11,280,338.18,279.9,338.28,279.9Z" transform="translate(0 -218.51)"/><path class="e1119e42-4c01-4c12-bb37-48a44c563345" d="M339.87,289.23l-.19.13a.45.45,0,0,1-.25.07.74.74,0,0,1-.56-.38,1.37,1.37,0,0,1-.27-.79,2.78,2.78,0,0,1,.14-1,1.67,1.67,0,0,0,.17-.46s.08-.2.25-.58a5.26,5.26,0,0,1,.47-.86c.15-.19.27-.37.38-.54l0-.1a1.31,1.31,0,0,1,.34-.38q0-.07.45-.48c.3-.28.58-.51.84-.71l.12-.16a1.24,1.24,0,0,1,.32-.18l.68-.18a5.45,5.45,0,0,1,.45-.36h.1l.31-.1a3.84,3.84,0,0,1,.8-.21c.36-.07.56-.15.61-.23a2,2,0,0,0,.12-.26c0-.07.12-.24.26-.48s.06-.24.08-.32a.22.22,0,0,1,.08-.14.72.72,0,0,0,.13-.22,1.9,1.9,0,0,1,.19-.35,0,0,0,0,0,0,0l-.07-.2a.66.66,0,0,1,.19-.34c.07-.05.1-.07.1-.09l-.08-.21.2-.43a0,0,0,0,0-.05-.05,2.67,2.67,0,0,1-.72.43,2.53,2.53,0,0,1-.26.28.41.41,0,0,0-.26.25l-.1,0-.07.12s0,0-.08.06a2.63,2.63,0,0,0-.32.18l-.14,0s-.07.08-.12.23a.86.86,0,0,1-.38.29.34.34,0,0,0-.22.12l-.1.12-.11,0c-.17,0-.25.06-.25.19a.34.34,0,0,1-.14.24.65.65,0,0,0-.23.07h-.17a.56.56,0,0,1-.42.32l-.34.23-.2.07-.28.17a1.08,1.08,0,0,1-.47.12,2.48,2.48,0,0,0-.5-.18c-.23-.06-.39-.44-.48-1.13h0a.37.37,0,0,0-.21.07.37.37,0,0,1-.15.06c-.19,0-.28-.07-.28-.23a.65.65,0,0,1,.39-.68l.29-.37.75-.73c.52-.52.87-.85,1.05-1a6.71,6.71,0,0,1,.58-.43l.6-.4a1.77,1.77,0,0,1,.37-.21.37.37,0,0,0,.15-.08,2.05,2.05,0,0,1,.42-.17l.21-.1a4.23,4.23,0,0,1,.84-.22l.16,0a.36.36,0,0,0,.25-.1,1,1,0,0,0,.5-.25l.42-.12a1,1,0,0,1,.29-.06h.23c.16,0,.26.13.32.39s.09.38.13.38a.82.82,0,0,0,.14-.17l.16-.12a.68.68,0,0,1,.22-.12.32.32,0,0,1,.35.24v0l0,.06a5,5,0,0,1,.1.69,1.41,1.41,0,0,1-.24.87,2.33,2.33,0,0,0-.28.44,7.51,7.51,0,0,1-.47,1.42c0,.09-.13.31-.28.68l-.11.11s-.05,0-.05.07l0,.16a1,1,0,0,0-.2.51,1.49,1.49,0,0,1-.19.43l.2.12a1.46,1.46,0,0,1,.41.37.82.82,0,0,1,.23.41,3.39,3.39,0,0,1-.13.46,1.28,1.28,0,0,1-.71.31.71.71,0,0,1-.34-.15l-.07,0v0a.67.67,0,0,1-.24-.09.37.37,0,0,0-.17,0,.08.08,0,0,0-.09.09.29.29,0,0,0,0,.09l-.18.18a2.23,2.23,0,0,1-.17.34,1.34,1.34,0,0,1-.29.42c-.17,0-.29.13-.35.38a.89.89,0,0,1-.22.48l-.11-.05a3.72,3.72,0,0,1-.8,1.14c-.16,0-.24.07-.25.09s0,.07,0,.15a.93.93,0,0,1-.28.38c-.17.18-.28.27-.31.27l-.11,0-.07.07c0,.15-.2.4-.62.74-.23.13-.35.21-.36.26s-.29.32-.69.52l-.22.2a.87.87,0,0,1-.3.2Zm4.2-6-.35.05a.41.41,0,0,0-.2-.09s0,0-.07.07a1.21,1.21,0,0,1-.62.31,1.74,1.74,0,0,0-.64.26.67.67,0,0,1-.29.15c-.08,0-.12,0-.12,0l-.17.17a1,1,0,0,0-.23.14.45.45,0,0,1-.25.12c-.14.31-.24.46-.3.46l-.12,0h0a.93.93,0,0,1-.23.35.38.38,0,0,0-.14.14.79.79,0,0,1-.23.19.51.51,0,0,0-.22.35.72.72,0,0,1-.15.34.62.62,0,0,0-.11.39l-.07.17a2.09,2.09,0,0,0-.1.4l-.06.34a.35.35,0,0,0,.14.29s.09-.06.19-.08l.69-.28.26-.21a1,1,0,0,1,.39-.25.75.75,0,0,0,.3-.21.88.88,0,0,1,.23-.24.36.36,0,0,0,.16-.23l.49-.44a1.39,1.39,0,0,0,.28-.33.58.58,0,0,1,.21-.23l0-.15.1,0c.05,0,.14-.14.25-.38l.32-.52a2.4,2.4,0,0,0,.45-.71l.16-.14a.12.12,0,0,0,0-.11Zm-.21-3.71.14-.2a.46.46,0,0,1,.24-.14.48.48,0,0,0,.27-.2,1.8,1.8,0,0,1,.66-.58l.12-.08c.12-.23.22-.35.31-.37a.39.39,0,0,0,.25-.21.62.62,0,0,0,.1-.29s0-.05-.07-.05a.47.47,0,0,0-.28.09.46.46,0,0,1-.17.1l-.23,0c-.14.08-.34.17-.58.28l-.21.18a.73.73,0,0,1-.25.11.25.25,0,0,0-.17.15q-.06.12-.15.12l-.1.05s-.12,0-.26,0a1.41,1.41,0,0,0-.24.2c-.09.09-.13.13-.15.13a1.41,1.41,0,0,1-.46.36.4.4,0,0,0-.25.2.64.64,0,0,0-.37.26.92.92,0,0,1-.28.28.76.76,0,0,0-.21.19l-.12.1a.94.94,0,0,0-.19.3,1.13,1.13,0,0,0-.12.37c0,.05,0,.07.08.07a1.33,1.33,0,0,0,.44-.17,2,2,0,0,0,.41-.26c.06-.06.1-.09.13-.09l.44,0a.37.37,0,0,1,.24-.2.43.43,0,0,0,.26-.2,1.11,1.11,0,0,1,.53-.32l.12-.21Z" transform="translate(0 -218.51)"/><path class="e1119e42-4c01-4c12-bb37-48a44c563345" d="M359.47,272.42l.07,0h.31c.1,0,.23-.11.41-.32,0,0,.23-.09.62-.23l.05,0,.23-.19h.23l.18-.11a2.67,2.67,0,0,1,.7-.25A3.51,3.51,0,0,0,363,271a3.42,3.42,0,0,1,.51-.07l.33-.06.26,0c.41,0,.7.27.88.82a.3.3,0,0,0,.06.14.37.37,0,0,1,.06.15,1.55,1.55,0,0,1-.48,1l-.16.43a.54.54,0,0,1-.13.18,1.71,1.71,0,0,0-.21.35,2.48,2.48,0,0,1-.5.61l-.2.44a1.56,1.56,0,0,1-.21.39,7.37,7.37,0,0,0-.46.7,3.05,3.05,0,0,0-.37.71.71.71,0,0,0-.23.43,2,2,0,0,1-.24.57l0,.08c.25-.08.38-.22.38-.4s.06-.09.19-.18l.1-.16a.53.53,0,0,1,.24-.19.83.83,0,0,1,.24-.27l.3-.25a.78.78,0,0,1,.25-.15c.12,0,.25-.24.4-.57,0-.07.07-.12.18-.16a.53.53,0,0,0,.26-.19,1,1,0,0,1,.17-.18l.1-.14a1,1,0,0,1,.17-.14l.57-.7c.3-.19.47-.34.5-.45l.09,0h.07l.25-.21a.44.44,0,0,1,.26-.46,1.06,1.06,0,0,0,.38-.27.32.32,0,0,1,.25-.16s.07,0,.13.07h0s.05,0,.07-.11v-.12a.48.48,0,0,1,.12-.33.63.63,0,0,1,.31-.17.64.64,0,0,0,.39-.29.56.56,0,0,1,.42-.27.33.33,0,0,0,.32-.19,1.09,1.09,0,0,1,.5-.37,3.91,3.91,0,0,1,.52-.23.66.66,0,0,0,.2-.06.35.35,0,0,1,.18-.05,1.5,1.5,0,0,1,.33.07l.21.05a1.24,1.24,0,0,1,.5.43l.12.12v0l0,.2v.09c.1.05.16.1.16.14l-.09.16a.36.36,0,0,0,0,.19c0,.07,0,.15,0,.22l0,.21a1.05,1.05,0,0,1-.05.19l-.06.16a.67.67,0,0,1-.09.14l-.09.38a1.62,1.62,0,0,1-.25.53,2.66,2.66,0,0,0-.24.43,1.57,1.57,0,0,1-.16.33l0,.07v.16c.25,0,.37-.12.37-.28a.38.38,0,0,1,.29-.36l.25-.21a1.51,1.51,0,0,1,.75-.7.57.57,0,0,1,.22-.38l.45-.42.31-.17a.94.94,0,0,1,.48-.53l.26-.16c.16-.08.24-.16.26-.23a.5.5,0,0,1,.18-.23,4.32,4.32,0,0,0,.45-.38l.09-.05.12-.11a1.1,1.1,0,0,1,.29-.12l.09-.05a2,2,0,0,1,.53-.29,3,3,0,0,0,.52-.25l.41-.06.18,0c.74,0,1.11.42,1.11,1.25l0,.18,0,.68c-.19.32-.29.48-.29.5l0,.21a1,1,0,0,1-.15.27l-.18.28-.21.24-.12.35a.68.68,0,0,1-.2.22v.14c0,.12-.15.29-.45.52a.79.79,0,0,1-.21.45,1.26,1.26,0,0,0-.22.31.9.9,0,0,1-.24.29,1.27,1.27,0,0,1-.2.52,2.23,2.23,0,0,1-.3.46,1,1,0,0,0-.23.34l-.11.05c0,.29-.1.46-.16.5l-.18,0v.05a.18.18,0,0,0,0,.08.21.21,0,0,1,.05.13.17.17,0,0,1-.07.14.23.23,0,0,0-.08.11.34.34,0,0,1-.06.12.66.66,0,0,0-.05.23,1.25,1.25,0,0,1-.17.46,1.42,1.42,0,0,0-.18.39l0,.18a.32.32,0,0,0,0,.14,2.7,2.7,0,0,1-.06.36c.15.35.26.58.32.71a.72.72,0,0,1,.09.24,1.28,1.28,0,0,1-.11.63c-.08.1-.27.15-.58.15a.72.72,0,0,1-.5-.2.59.59,0,0,0-.38-.2v-.21l0,0h-.18l-.1-.08a.78.78,0,0,1-.15-.16l-.07-.07a1.23,1.23,0,0,1-.16-.39l-.07-.23,0-.18,0-.3a.82.82,0,0,1,0-.18l0-.32a.82.82,0,0,1,0-.2,1.91,1.91,0,0,0,.06-.37.5.5,0,0,1,.11-.33.52.52,0,0,0,.1-.2.3.3,0,0,1,.06-.14.44.44,0,0,0,.09-.26.52.52,0,0,1,.25-.34c.07-.14.14-.27.19-.39a3.68,3.68,0,0,1,.26-.34h.16a.85.85,0,0,1-.11-.16c0-.21.08-.32.24-.32l.12,0,.05-.1-.05-.19c0-.14.1-.27.3-.4a.79.79,0,0,1,.32-.61l0-.18a1.65,1.65,0,0,0,.2-.31,2.75,2.75,0,0,1,.33-.48l.36-.55.16-.19h0l0-.05s0-.06,0-.12l.07-.17.08-.1q.3-.07.3-.21a.81.81,0,0,0-.09-.15v0c0-.07.05-.14.14-.24a1.39,1.39,0,0,0,.26-.39,1.07,1.07,0,0,0,.12-.31s0,0,0,0a.5.5,0,0,0-.5.26c0,.05-.15.14-.46.28l-.11.18a.46.46,0,0,1-.25.13.47.47,0,0,0-.27.13l-.74.61a7.85,7.85,0,0,0-.84.77l-.27.19c-.11.05-.16.09-.16.13s-.07.17-.2.3l-.14.17-.19-.06a.29.29,0,0,0-.22.13c.06.06.1.1.1.12s-.12.25-.35.38l-.51.53-.17.12a.67.67,0,0,0-.23.27,3.72,3.72,0,0,1-.41.54,3.4,3.4,0,0,1-.4.42.38.38,0,0,0-.14.16,2,2,0,0,1-.34.36.84.84,0,0,0-.29.51c-.15.06-.22.1-.22.14l-.07.12-.1.05a.43.43,0,0,0,0,.15c0,.08-.17.21-.47.4a1.64,1.64,0,0,1-.57.28.23.23,0,0,0-.1.05l-.1.05-.3-.14a1,1,0,0,1-.41-.66l.1-.3-.05-.24a.35.35,0,0,1,.11-.19.42.42,0,0,0,.11-.29c.13-.28.22-.48.28-.59l0-.19a1.31,1.31,0,0,1,.16-.26.81.81,0,0,0,.14-.33.22.22,0,0,1,.15-.22,7.38,7.38,0,0,0,.94-1.41v-.17l.34-.58c.1-.17.22-.36.37-.58l.1-.27-.38-.14a.28.28,0,0,0-.18.1c0,.13-.22.26-.68.4a1.32,1.32,0,0,0-.36.34l-.33.19-.22.18-.16.16a.85.85,0,0,0-.5.32l-.32.22-.18.18a2.21,2.21,0,0,1-.43.25l-.19.19-.17.09a2.23,2.23,0,0,0-.28.34.37.37,0,0,1-.25.16l-.25.1a1.11,1.11,0,0,1-.43.58l-.34.42-.16.13a.33.33,0,0,1-.17.16c-.1.12-.16.21-.19.25l-.14.11c-.21.08-.32.14-.32.19l0,.2c0,.09-.09.17-.27.25a.23.23,0,0,0-.14.19.73.73,0,0,1-.09.26h-.21a1,1,0,0,0-.22.12l0,0,0,.27a.5.5,0,0,1-.18.32,2.53,2.53,0,0,0-.29.32c-.06.09-.11.14-.14.14h-.07l-.07.05c0,.15-.09.3-.29.47l-.14.18a4,4,0,0,0-.4.58,6.07,6.07,0,0,1-.62.85,1.78,1.78,0,0,1-.53.44l-.53.22-.47-.09a.7.7,0,0,0-.21-.21c-.09-.05-.13-.11-.13-.17l-.14-.41a.84.84,0,0,1,.13-.4,2,2,0,0,0,.15-.37,2.32,2.32,0,0,1,.14-.37,1.21,1.21,0,0,0,.1-.25c0-.2,0-.33.1-.39l.45-.34s0,0,0-.05v0l0-.2c.18-.3.29-.45.34-.45l.09,0-.07-.25s0-.09.13-.16a.87.87,0,0,0,.2-.23l-.05-.14v0a.65.65,0,0,1,.29-.46c0-.06.09-.22.19-.47l.3-.54a.71.71,0,0,1,.25-.3.27.27,0,0,0,.14-.18.58.58,0,0,1,.08-.23s0,0,0,0l.06-.22a.4.4,0,0,1,.26-.28q.27-.69.42-.69a.31.31,0,0,1,.13.05h.05c.12,0,.18-.05.18-.14s0-.05,0-.05a.3.3,0,0,1-.19.12c-.05,0-.08,0-.08,0a.05.05,0,0,1,0,0L362,274l0-.22a1.47,1.47,0,0,1,.19-.21l.2-.27v-.11a1,1,0,0,1,.1-.24,2,2,0,0,0,.15-.43l.2-.29a.85.85,0,0,0,.05-.25c0-.12,0-.18-.05-.18l-.67.13a8.16,8.16,0,0,0-.79.44l-.27.06-.31.16a1.34,1.34,0,0,1-.5.17.63.63,0,0,0-.38.17l-.05,0h-.22l-.17.23c0,.05-.06.08-.08.08-.79.52-1.28.83-1.49.94a2.92,2.92,0,0,0-.48.3,1.54,1.54,0,0,1-.28.19v.14a.67.67,0,0,1-.28.45.87.87,0,0,1-.5.25.51.51,0,0,1-.21-.08,1.15,1.15,0,0,0-.33-.1c-.12,0-.18-.16-.18-.44s.32-.76,1-1.08a1.61,1.61,0,0,0,.28-.17,8.45,8.45,0,0,1,1-.45l.34-.16a1.14,1.14,0,0,1,.39-.22,3.49,3.49,0,0,0,.43-.17l.25-.09Zm10.93,2.82.11-.21v0s0,0,0,0-.14.07-.19.23,0,.07.05.07S370.38,275.27,370.4,275.24Z" transform="translate(0 -218.51)"/><path class="e1119e42-4c01-4c12-bb37-48a44c563345" d="M385.83,279.18,386,279a.18.18,0,0,0,.21-.15c0-.11.11-.19.25-.25a1,1,0,0,0,.4-.38c.12-.19.25-.29.38-.29s.1,0,.17.12a.35.35,0,0,1,.09.19,1.65,1.65,0,0,1-.23.79l0,.32-.08.15a.59.59,0,0,0-.23.2.83.83,0,0,1-.27.26l-.12.16a.56.56,0,0,0-.34.27.35.35,0,0,1-.25.21.59.59,0,0,0-.34.23,1.49,1.49,0,0,1-.28.11l0,.11a.85.85,0,0,1-.37.19,2.45,2.45,0,0,0-.37.13.39.39,0,0,1-.17.07,1,1,0,0,1-.41-.09,1,1,0,0,0-.38-.11.22.22,0,0,1-.08-.15.54.54,0,0,0-.12-.22.57.57,0,0,1-.1-.36l0-.23s0-.06-.06-.11a.28.28,0,0,1,0-.12.08.08,0,0,1,0-.07.12.12,0,0,0,0-.07.69.69,0,0,0,0-.13.23.23,0,0,1,0-.11l.07-.57c0-.05,0-.07-.05-.07a.4.4,0,0,0-.17.11.39.39,0,0,1-.28.12.49.49,0,0,0-.16.29.93.93,0,0,1-.23.21l-.05.07c0,.06-.07.1-.17.13a.43.43,0,0,0-.21.14l-.12.12-.22,0-.13.21a.91.91,0,0,1-.26.29l-.89.72a3.76,3.76,0,0,1-.41.24l-.07.07a3,3,0,0,1-1.31.61,2,2,0,0,1-.73-.17c-.28-.12-.44-.26-.46-.42l-.12-.48a.83.83,0,0,1-.1-.45.71.71,0,0,1,0-.19v-.07l0-.38c0-.09.07-.14.22-.14l0-.32a1.81,1.81,0,0,1,.2-.36,1.5,1.5,0,0,1,.28-.37l.11-.15c0-.09.05-.19.17-.3a1.58,1.58,0,0,0,.27-.32,1.46,1.46,0,0,1,.4-.36l.35-.35a3.44,3.44,0,0,1,.89-.65,1.06,1.06,0,0,0,.28-.23,1.5,1.5,0,0,1,.49-.31,4.34,4.34,0,0,0,.54-.25.9.9,0,0,1,.41-.15h.09a4.57,4.57,0,0,0,.62-.29h.07a.68.68,0,0,1,.22.09h0l.18-.09a.21.21,0,0,1,.12,0c.48,0,.75.34.79,1q0,.21.12.21t.33-.42a.93.93,0,0,1,.92-.43c.33,0,.5.22.5.64a2,2,0,0,1-.68,1.44,1,1,0,0,0-.07.21l-.16.47v0a.34.34,0,0,1-.1.19.33.33,0,0,0-.1.21l0,.29,0,.33c0,.15,0,.25.08.29a.9.9,0,0,0,.54-.31.84.84,0,0,1,.24-.24l.11,0A.89.89,0,0,1,385.83,279.18Zm-3.87,0a.55.55,0,0,1,.29-.39.57.57,0,0,0,.28-.28,5.41,5.41,0,0,0,.63-.58q.42-.42.42-.51a0,0,0,0,0-.05,0h0l-.09.06-.21,0-.23,0-.16-.08-.15,0-.23,0a.63.63,0,0,0-.32.07,2.24,2.24,0,0,1-.51.17,1.9,1.9,0,0,0-.69.32,1,1,0,0,1-.44.23,1.72,1.72,0,0,1-.55.5.56.56,0,0,0-.36.41c-.2.16-.3.25-.3.28l-.08.19a.74.74,0,0,1-.23.14.27.27,0,0,0-.17.24.58.58,0,0,1-.15.35.49.49,0,0,0-.14.25c0,.38.08.57.22.57a1.27,1.27,0,0,0,.39-.12,1.53,1.53,0,0,0,.35-.17.49.49,0,0,1,.18-.09l.22-.12a.3.3,0,0,1,.11-.06.19.19,0,0,0,.12-.07.6.6,0,0,1,.2-.14.6.6,0,0,0,.24-.2l.64-.37.24-.18a1,1,0,0,0,.32-.2A.56.56,0,0,1,382,279.18Z" transform="translate(0 -218.51)"/><path class="e1119e42-4c01-4c12-bb37-48a44c563345" d="M387.52,277.94l.1-.13a.49.49,0,0,0,.38-.23,5,5,0,0,1,.59-.6,8.08,8.08,0,0,1,.6-.56,4.88,4.88,0,0,0,.46-1c.09,0,.14-.1.14-.16l.09-.18.1,0,0,0v-.11a3.06,3.06,0,0,1,.45-1c.3-.62.47-1,.49-1a2.28,2.28,0,0,1,.14-.29,6.62,6.62,0,0,0,.32-.74,5,5,0,0,1,.67-1.14s.08-.1.14-.26a1.58,1.58,0,0,1,.29-.47l.14-.25c.05-.07.13-.21.24-.4a3.86,3.86,0,0,1,.32-.46,1.45,1.45,0,0,0,.23-.36.71.71,0,0,1,.18-.27.8.8,0,0,0,.21-.29.35.35,0,0,1,.34-.22.68.68,0,0,1,.66.37,1.39,1.39,0,0,1,.21.65s-.05.19-.14.51l-.18,1c-.15.08-.23.17-.23.27a2.2,2.2,0,0,1-.48,1.28.69.69,0,0,0-.07.3.65.65,0,0,1-.21.42,1.45,1.45,0,0,0-.31.55l-1.08,1.55-.1.09a.75.75,0,0,0-.16.2l-.19-.06c-.21,0-.31.07-.31.2a.41.41,0,0,0,0,.19v0l-.87,1.22a3.24,3.24,0,0,0-.16.46l-.16.34a2.36,2.36,0,0,0-.35.66,1.33,1.33,0,0,1-.26.52c-.15.35-.23.53-.23.55a.06.06,0,0,0,.07.07c.05,0,.16-.12.33-.35a2.32,2.32,0,0,1,.43-.47,1,1,0,0,0,.29-.32l.11-.09a1.06,1.06,0,0,0,.2-.14l.12,0a.36.36,0,0,0,.12-.16.19.19,0,0,1,.07-.14c.2,0,.32-.1.37-.23s.12-.18.19-.18.14-.07.24-.22a1.09,1.09,0,0,1,.43-.35,2.53,2.53,0,0,0,.4-.23,2.17,2.17,0,0,1,.55-.26,2.31,2.31,0,0,1,.54-.14h.07l.1,0,.17,0a1.6,1.6,0,0,1,.82.23.64.64,0,0,1,.35.7l-.1.72-.12.57a6,6,0,0,1-.19.62,3.11,3.11,0,0,0-.16.55l0,.22,0,.3,0,.25c0,.07,0,.11.12.11s.12-.07.26-.21c.08,0,.16,0,.24-.14a2.33,2.33,0,0,1,.31-.34s.05-.06.15-.08a1.29,1.29,0,0,0,.42-.28,2,2,0,0,1,.45-.44,3.72,3.72,0,0,1,.78-.53l.07-.1a.55.55,0,0,1,.36-.2c.11,0,.16.06.16.18a.53.53,0,0,1-.06.24,1.31,1.31,0,0,0-.08.34,1.65,1.65,0,0,1-.23.58l-.05.12a.35.35,0,0,1-.19.23.61.61,0,0,0-.25.2,1.34,1.34,0,0,1-.56.29c-.12.24-.22.35-.29.35l-.21-.09a.55.55,0,0,0-.24.41,3.67,3.67,0,0,0-.36.33l-.23,0c-.07,0-.1.08-.1.26l-.23.15a2.39,2.39,0,0,0-.37.24,1,1,0,0,1-.55.11.26.26,0,0,1-.14-.09.84.84,0,0,0-.27-.14.38.38,0,0,1-.25-.27,2.27,2.27,0,0,0-.15-.34.32.32,0,0,1-.08-.19l0-.23-.06-.24.11-.17a.63.63,0,0,1-.07-.22l.11-.71a9.3,9.3,0,0,1,.21-1s0-.06,0-.14l0-.29,0-.16c0-.12,0-.18-.12-.19s-.12,0-.14-.06l-.17-.07c-.07,0-.12,0-.17.15a1.1,1.1,0,0,1-.18.26l-.29-.05v0c0,.06-.11.18-.32.36a.9.9,0,0,0-.5.3.7.7,0,0,0-.32.18,1.1,1.1,0,0,1-.3.2l-.09.19-.19.06a.48.48,0,0,1-.38.3l-.12.22a.41.41,0,0,0-.34.25c-.06.15-.11.23-.14.23l-.07,0-.1,0c-.17,0-.27.13-.28.39a3.48,3.48,0,0,1-.48.54,4.78,4.78,0,0,1-.51.51s-.07.09-.14.24a.67.67,0,0,1-.27.34,1.85,1.85,0,0,0-.26.18.23.23,0,0,1-.14.07c-.16,0-.29-.12-.39-.35s-.15-.35-.15-.36l.07-.24,0-.21s.05-.17.15-.47a3,3,0,0,1,.33-.73,2.24,2.24,0,0,0,.29-.85,2.31,2.31,0,0,1-.63.35c-.15,0-.23-.1-.23-.31A1.56,1.56,0,0,1,387.52,277.94Z" transform="translate(0 -218.51)"/><path class="e1119e42-4c01-4c12-bb37-48a44c563345" d="M406.52,279.18l.19-.17a.18.18,0,0,0,.21-.15c0-.11.1-.19.25-.25a1.09,1.09,0,0,0,.4-.38c.12-.19.25-.29.38-.29s.1,0,.16.12a.39.39,0,0,1,.1.19,1.57,1.57,0,0,1-.24.79l0,.32-.08.15a.52.52,0,0,0-.23.2,1,1,0,0,1-.27.26l-.12.16a.53.53,0,0,0-.34.27.35.35,0,0,1-.25.21.59.59,0,0,0-.34.23,1.49,1.49,0,0,1-.28.11l0,.11a.85.85,0,0,1-.37.19,2.45,2.45,0,0,0-.37.13.39.39,0,0,1-.17.07.91.91,0,0,1-.41-.09,1,1,0,0,0-.38-.11.3.3,0,0,1-.09-.15.41.41,0,0,0-.11-.22.57.57,0,0,1-.11-.36l.05-.23s0-.06-.06-.11a.22.22,0,0,1-.06-.12.09.09,0,0,1,0-.07.12.12,0,0,0,0-.07.69.69,0,0,0,0-.13.26.26,0,0,1,0-.11l.07-.57c0-.05,0-.07,0-.07a.4.4,0,0,0-.17.11.4.4,0,0,1-.29.12.55.55,0,0,0-.15.29.93.93,0,0,1-.23.21l-.05.07c0,.06-.07.1-.17.13a.43.43,0,0,0-.21.14l-.12.12-.22,0a1.78,1.78,0,0,0-.13.21.94.94,0,0,1-.27.29l-.88.72a3.76,3.76,0,0,1-.41.24l-.07.07a3.05,3.05,0,0,1-1.31.61,2.1,2.1,0,0,1-.74-.17q-.42-.18-.45-.42l-.12-.48a.83.83,0,0,1-.1-.45.45.45,0,0,1,0-.19v-.07l0-.38c0-.09.07-.14.22-.14l0-.32a1.35,1.35,0,0,1,.2-.36,1.59,1.59,0,0,1,.27-.37l.12-.15a.41.41,0,0,1,.16-.3,1.37,1.37,0,0,0,.28-.32,1.32,1.32,0,0,1,.4-.36l.35-.35a3.57,3.57,0,0,1,.88-.65.91.91,0,0,0,.29-.23,1.41,1.41,0,0,1,.49-.31,4.34,4.34,0,0,0,.54-.25.9.9,0,0,1,.41-.15h.09a5.32,5.32,0,0,0,.62-.29h.07a.68.68,0,0,1,.22.09h0l.19-.09a.21.21,0,0,1,.12,0c.48,0,.74.34.79,1,0,.14.05.21.12.21s.18-.14.33-.42a.93.93,0,0,1,.91-.43c.34,0,.5.22.5.64a2,2,0,0,1-.67,1.44.65.65,0,0,0-.07.21l-.16.47v0a.43.43,0,0,1-.1.19.33.33,0,0,0-.1.21l0,.29,0,.33c0,.15,0,.25.08.29a1,1,0,0,0,.54-.31,1,1,0,0,1,.23-.24l.12,0A1,1,0,0,1,406.52,279.18Zm-3.86,0a.53.53,0,0,1,.28-.39.56.56,0,0,0,.29-.28,5.41,5.41,0,0,0,.63-.58q.42-.42.42-.51a0,0,0,0,0,0,0h0l-.1.06-.21,0-.22,0-.16-.08-.15,0-.23,0a.61.61,0,0,0-.32.07,2.19,2.19,0,0,1-.52.17,1.85,1.85,0,0,0-.68.32,1,1,0,0,1-.44.23,1.85,1.85,0,0,1-.55.5.56.56,0,0,0-.36.41c-.2.16-.3.25-.3.28l-.08.19a.8.8,0,0,1-.24.14.27.27,0,0,0-.16.24.6.6,0,0,1-.16.35.45.45,0,0,0-.13.25c0,.38.07.57.22.57a1.45,1.45,0,0,0,.39-.12,1.36,1.36,0,0,0,.34-.17.67.67,0,0,1,.19-.09l.22-.12a.24.24,0,0,1,.11-.06s.07,0,.11-.07a.83.83,0,0,1,.21-.14.68.68,0,0,0,.24-.2l.64-.37.24-.18a1,1,0,0,0,.32-.2A.5.5,0,0,1,402.66,279.18Z" transform="translate(0 -218.51)"/><path class="e1119e42-4c01-4c12-bb37-48a44c563345" d="M409.75,276.63l.16-.29.18-.22a1.59,1.59,0,0,0,.24-.57,1.55,1.55,0,0,1,.28-.63.59.59,0,0,1,.46-.18,1,1,0,0,1,.46.17c.2.11.38.45.56,1a4.48,4.48,0,0,1,.28,1.2.9.9,0,0,0,.08.35,2.53,2.53,0,0,1,.1.33,1.4,1.4,0,0,0-.09.23l0,.47-.14.39v.28a.94.94,0,0,0-.14.29.3.3,0,0,0,.05.14,1.84,1.84,0,0,0,.66-.38.5.5,0,0,1,.23-.18,1.32,1.32,0,0,0,.37-.3l.22-.12.2-.25a.42.42,0,0,1,.19-.16,1.14,1.14,0,0,0,.26-.16,2.92,2.92,0,0,1,.44-.27l.12-.14a1.27,1.27,0,0,1,.41-.31l.26-.12c.06,0,.11.07.17.22a1.06,1.06,0,0,1,.09.42.55.55,0,0,1-.23.39,3.28,3.28,0,0,0-.31.29.81.81,0,0,1-.37.16s-.14.17-.38.48l-.24.14-.11.15s-.12.06-.32.09c0,0,0,0-.05.12s-.11.13-.25.16a3.54,3.54,0,0,0-.43.43l-.24.05a1,1,0,0,1-.12.27c-.19,0-.29.12-.31.23l-.12,0-.05,0a1.34,1.34,0,0,1-.52.26l-.27.07-.09.14s-.1.08-.29.15a1,1,0,0,0-.42.23l-.2.15a1.06,1.06,0,0,0-.45.26h-.16a1.15,1.15,0,0,0-.52.24,1.16,1.16,0,0,1-.55.23,1.86,1.86,0,0,1-.93-.16,1.63,1.63,0,0,1-.41-.42,4.43,4.43,0,0,0-.3-.41.41.41,0,0,1-.13-.24.2.2,0,0,1,.11-.16,1.27,1.27,0,0,0,.24-.33c.08-.17.3-.28.65-.32l.17-.07a.49.49,0,0,1,.23-.07q.12,0,.3.21s0,0,0,0l.19,0a.39.39,0,0,0,.17.09.91.91,0,0,0,.6-.28l0,0h.1s.06-.07.11-.2l.2-.41.41-.52v-.12a.89.89,0,0,1,.07-.21v-.17c0-.07,0-.12.14-.14s.14-.07.14-.14l0-.1a.39.39,0,0,1-.09-.19L411,278l0-.24,0-.09,0-.19,0-.29A1.72,1.72,0,0,0,411,277q-.06-.21-.09-.21t-.45.36a2.36,2.36,0,0,0-.44.51.67.67,0,0,1-.3.27.86.86,0,0,0-.31.28.28.28,0,0,1-.19.17l-.79.63-.85.63c-.06.07-.1.1-.11.1-.29,0-.43-.15-.43-.47a1.55,1.55,0,0,1,.17-.55l.12-.07s0,0,0,0h0l.07.05h0a4.69,4.69,0,0,1,.56-.34.45.45,0,0,0,.24-.25l.49-.35c.12-.1.31-.27.57-.52A3.67,3.67,0,0,0,409.75,276.63Z" transform="translate(0 -218.51)"/><path class="e1119e42-4c01-4c12-bb37-48a44c563345" d="M414.22,278.15l.19-.16h.07c.06,0,.14-.06.25-.18l.11,0c.16-.23.29-.37.41-.41l.19-.14a.32.32,0,0,1,.13-.08,1,1,0,0,0,.28-.23c.13-.12.23-.19.31-.19l.19,0a.73.73,0,0,1,.28-.27,1.12,1.12,0,0,0,.33-.32l.15-.07a1.16,1.16,0,0,0,.34-.24.48.48,0,0,1,.38-.14,1,1,0,0,1,.7.34,1,1,0,0,1,.37.66l-.2.91c-.13.66-.28,1-.44,1l-.05.25c-.11.08-.16.14-.16.18l.07.28s-.05.1-.13.18,0,0,0,.07v.48c0,.08-.06.15-.17.2a.18.18,0,0,0,.07,0c.05,0,.15-.07.32-.07l.18,0,.26-.25a1.45,1.45,0,0,0,.23-.11,2.91,2.91,0,0,1,.49-.23l1.52-1.16c.21-.21.37-.32.48-.32s.17.08.17.22a.81.81,0,0,1-.1.43,3.31,3.31,0,0,0-.18.41.64.64,0,0,1-.19.33,1.12,1.12,0,0,0-.18.2,1.22,1.22,0,0,1-.38.32,3.31,3.31,0,0,0-.52.43,2.46,2.46,0,0,1-.35.3l-.51.37-.07.11a.63.63,0,0,1-.21.1,1.58,1.58,0,0,0-.34.19l-.21.12a.58.58,0,0,1-.23.06.39.39,0,0,0-.27.13c-.08.08-.14.12-.19.12l-.18,0-.23.07a.82.82,0,0,1-.48-.24.68.68,0,0,1-.29-.5v-.07l0-.17a1.8,1.8,0,0,0-.07-.24,1.08,1.08,0,0,1-.07-.21l0-.16,0-.07a1.09,1.09,0,0,1,0-.4.45.45,0,0,0,.07-.23c0-.09,0-.17,0-.24l.06-.29a.32.32,0,0,1,.12-.18,2.1,2.1,0,0,1,.09-.32l0-.21.12-.16a.41.41,0,0,0,.11-.25.74.74,0,0,1,.12-.33,1,1,0,0,0,.11-.21.13.13,0,0,0-.14-.14.92.92,0,0,0-.29.19l-.21-.07s-.06,0-.13.11,0,.06-.1.07a.37.37,0,0,0-.2.18l-.1,0-.15-.07h0c-.08,0-.13.08-.14.26a.63.63,0,0,1-.34.24l-.26.07a.32.32,0,0,0-.18.21.67.67,0,0,1-.24.3.49.49,0,0,1-.23.13c-.22,0-.32-.12-.32-.36l.09-.55Zm5-5.82-.07-.45v-.07c0-.37.13-.57.38-.61l.49-.15a.78.78,0,0,1,.43.37,1,1,0,0,1,.23.56.29.29,0,0,1,0,.11,1.27,1.27,0,0,0,0,.31.54.54,0,0,1-.23.39.75.75,0,0,1-.46.17.69.69,0,0,1-.41-.23A.75.75,0,0,1,419.25,272.33Z" transform="translate(0 -218.51)"/><path class="e1119e42-4c01-4c12-bb37-48a44c563345" d="M423.31,276.63l.16-.29.18-.22a1.29,1.29,0,0,0,.24-.57,1.54,1.54,0,0,1,.29-.63.56.56,0,0,1,.46-.18,1,1,0,0,1,.46.17,2,2,0,0,1,.56,1,4.76,4.76,0,0,1,.27,1.2,1.13,1.13,0,0,0,.08.35,3.07,3.07,0,0,1,.11.33,1.07,1.07,0,0,0-.1.23l0,.47-.14.39v.28a.74.74,0,0,0-.14.29.27.27,0,0,0,0,.14,2,2,0,0,0,.67-.38.44.44,0,0,1,.22-.18,1.19,1.19,0,0,0,.37-.3l.22-.12.2-.25a.48.48,0,0,1,.19-.16,1.14,1.14,0,0,0,.26-.16,2.92,2.92,0,0,1,.44-.27l.12-.14a1.27,1.27,0,0,1,.41-.31l.26-.12c.06,0,.11.07.17.22a1.06,1.06,0,0,1,.09.42.55.55,0,0,1-.23.39,3.28,3.28,0,0,0-.31.29.75.75,0,0,1-.37.16l-.38.48-.23.14-.12.15s-.12.06-.32.09l-.05.12c0,.08-.11.13-.25.16a3.54,3.54,0,0,0-.43.43l-.24.05a1,1,0,0,1-.12.27c-.19,0-.29.12-.31.23l-.12,0-.05,0a1.27,1.27,0,0,1-.52.26l-.27.07-.09.14s-.09.08-.28.15a1.08,1.08,0,0,0-.43.23l-.2.15a1.06,1.06,0,0,0-.45.26h-.16a1.09,1.09,0,0,0-.51.24,1.19,1.19,0,0,1-.56.23,1.86,1.86,0,0,1-.93-.16,1.81,1.81,0,0,1-.41-.42,4.43,4.43,0,0,0-.3-.41.41.41,0,0,1-.13-.24.22.22,0,0,1,.11-.16,1.27,1.27,0,0,0,.24-.33c.08-.17.3-.28.65-.32l.17-.07a.49.49,0,0,1,.24-.07c.07,0,.17.07.29.21s0,0,0,0l.19,0a.45.45,0,0,0,.17.09.91.91,0,0,0,.6-.28l0,0h.1s.06-.07.11-.2l.2-.41.41-.52v-.12a.89.89,0,0,1,.07-.21v-.17c0-.07,0-.12.14-.14s.14-.07.14-.14l0-.1a.39.39,0,0,1-.09-.19l.12-.24,0-.24,0-.09,0-.19,0-.29-.06-.22c0-.14-.08-.21-.1-.21s-.2.12-.45.36a2.71,2.71,0,0,0-.44.51.58.58,0,0,1-.3.27.75.75,0,0,0-.3.28c-.06.1-.12.16-.2.17L422,279l-.85.63a.43.43,0,0,1-.12.1c-.29,0-.43-.15-.43-.47a1.81,1.81,0,0,1,.17-.55l.12-.07s0,0,0,0h0l.07.05h0a3.46,3.46,0,0,1,.56-.34.47.47,0,0,0,.23-.25l.49-.35c.12-.1.31-.27.57-.52A3.67,3.67,0,0,0,423.31,276.63Z" transform="translate(0 -218.51)"/><path class="e1119e42-4c01-4c12-bb37-48a44c563345" d="M429.42,277l.2,0,.2-.24a.85.85,0,0,1,.31-.22.63.63,0,0,0,.31-.36,2,2,0,0,1,.84-.57c.33.14.52.29.58.46a2.67,2.67,0,0,1,.09.82.86.86,0,0,1-.12.38,2.94,2.94,0,0,0-.16.35,2.51,2.51,0,0,1-.22.4.21.21,0,0,1-.06.08.79.79,0,0,0-.14.24,1.21,1.21,0,0,1-.22.32,1,1,0,0,0-.2.32,4.23,4.23,0,0,1-.32.59,4.38,4.38,0,0,0-.25.8c0,.09,0,.13.07.13a.37.37,0,0,0,.16-.07l.11,0h.13l.17-.11a1.23,1.23,0,0,0,0-.16,1.31,1.31,0,0,1,.32-.14l0,0a.51.51,0,0,1,0-.13c0-.07.07-.12.22-.15a.57.57,0,0,0,.35-.15c0-.1,0-.16.05-.17a.36.36,0,0,0,.14-.17.32.32,0,0,1,.25-.16c.11,0,.17-.06.17-.14a.66.66,0,0,1,.43-.6.13.13,0,0,0,.1-.12.52.52,0,0,1,0-.25l.21-.14.23-.3.11-.24a.58.58,0,0,1,.11-.15.93.93,0,0,0,.18-.26,1.17,1.17,0,0,1,.17-.28l.13-.2c.11-.2.24-.3.4-.3s.28.12.57.37a1.33,1.33,0,0,1,.44,1.09q0,.27-.15.33c-.1,0-.17.17-.22.4a2.18,2.18,0,0,1-.22.62,1.67,1.67,0,0,0-.16.31l.05.14v.05a.65.65,0,0,1-.14.43.6.6,0,0,1,.07.2l-.12.18c0,.3.09.46.16.46a.59.59,0,0,0,.19,0,.83.83,0,0,1,.21-.06,1.06,1.06,0,0,0,.35-.16l.76-.48.14-.16.11-.07a.49.49,0,0,0,.25-.26.29.29,0,0,1,.23-.2.94.94,0,0,1,.28-.5l.34-.64a1.6,1.6,0,0,1,.16-.29,3.27,3.27,0,0,0-.3-1.12v-.07a.81.81,0,0,1,.15-.45c.1-.15.2-.22.29-.22l.24,0,.32-.07a1.59,1.59,0,0,1,.5.35,1.06,1.06,0,0,1,.42.85,1.26,1.26,0,0,1-.12.57,1.49,1.49,0,0,0-.15.45.46.46,0,0,1-.23.33l0,.06a1,1,0,0,1-.45.83,4.67,4.67,0,0,0-.25.42.6.6,0,0,1-.23.3s-.08.09-.18.26a1.06,1.06,0,0,1-.24.31l-.32.16c-.16.06-.24.15-.24.25l0,.16a3.27,3.27,0,0,0-.52.43l-.23,0a1.84,1.84,0,0,1-1.33.47,1.36,1.36,0,0,1-.88-.4,1.13,1.13,0,0,1-.47-.82l-.1-.37a7.53,7.53,0,0,1,.07-1.29.19.19,0,0,0,0-.1c0-.09,0-.14-.08-.14a.7.7,0,0,0-.12.2.35.35,0,0,1-.15.18l-.18.15c0,.18-.08.29-.12.31l-.21.18a1.63,1.63,0,0,1-.31.27,3.17,3.17,0,0,1-.47.69V281l-.12.07-.19.19a5.42,5.42,0,0,1-.88.61,3.87,3.87,0,0,1-.83.44.82.82,0,0,1-.55-.22.88.88,0,0,1-.26-.48,2.17,2.17,0,0,0-.1-.47,1,1,0,0,1-.07-.31.84.84,0,0,1,.05-.23,1.55,1.55,0,0,0,.05-.35.38.38,0,0,1,0-.18v-.22a.81.81,0,0,1,.13-.19.51.51,0,0,0,.14-.33.44.44,0,0,1,.1-.22,1.54,1.54,0,0,0,.15-.27.66.66,0,0,1,.18-.25,2.14,2.14,0,0,1,.1-.33.88.88,0,0,0,.08-.26.06.06,0,0,0,0-.05c-.11,0-.27.1-.48.31l-.21.11a4.43,4.43,0,0,0-.52.39c-.11.14-.22.22-.31.22-.36,0-.55-.17-.55-.5a.38.38,0,0,1,.14-.34.3.3,0,0,0,.15-.18c0-.06.11-.11.29-.14s.36-.22.56-.54c.18,0,.28,0,.31-.08A.73.73,0,0,1,429.42,277Z" transform="translate(0 -218.51)"/><path class="e1119e42-4c01-4c12-bb37-48a44c563345" d="M449.42,279.18l.19-.17a.2.2,0,0,0,.21-.15c0-.11.1-.19.25-.25a1.09,1.09,0,0,0,.4-.38c.12-.19.25-.29.38-.29s.1,0,.16.12a.35.35,0,0,1,.09.19,1.55,1.55,0,0,1-.23.79l-.05.32-.08.15a.55.55,0,0,0-.22.2.9.9,0,0,1-.28.26l-.11.16a.59.59,0,0,0-.35.27.33.33,0,0,1-.24.21.56.56,0,0,0-.34.23,1.49,1.49,0,0,1-.28.11l0,.11a.81.81,0,0,1-.36.19l-.38.13a.37.37,0,0,1-.16.07.91.91,0,0,1-.41-.09,1.09,1.09,0,0,0-.39-.11.37.37,0,0,1-.08-.15.41.41,0,0,0-.11-.22.57.57,0,0,1-.11-.36l.05-.23s0-.06-.06-.11a.22.22,0,0,1-.06-.12.09.09,0,0,1,0-.07.12.12,0,0,0,0-.07.69.69,0,0,0,0-.13.26.26,0,0,1,0-.11l.07-.57c0-.05,0-.07,0-.07s-.09,0-.17.11a.42.42,0,0,1-.29.12.55.55,0,0,0-.15.29.93.93,0,0,1-.23.21l-.05.07c0,.06-.07.1-.17.13a.35.35,0,0,0-.21.14l-.12.12-.22,0a1.78,1.78,0,0,0-.13.21.94.94,0,0,1-.27.29l-.88.72c-.1.07-.23.14-.41.24l-.07.07a3.05,3.05,0,0,1-1.31.61,2.1,2.1,0,0,1-.74-.17q-.42-.18-.45-.42l-.12-.48a.83.83,0,0,1-.1-.45.45.45,0,0,1,0-.19v-.07l0-.38c0-.09.07-.14.22-.14l0-.32a1.61,1.61,0,0,1,.21-.36,1.33,1.33,0,0,1,.27-.37l.12-.15a.38.38,0,0,1,.16-.3,1.37,1.37,0,0,0,.28-.32,1.32,1.32,0,0,1,.4-.36l.35-.35a3.4,3.4,0,0,1,.88-.65,1,1,0,0,0,.29-.23,1.32,1.32,0,0,1,.49-.31,3.65,3.65,0,0,0,.53-.25,1,1,0,0,1,.42-.15h.09a5.32,5.32,0,0,0,.62-.29h.07a.78.78,0,0,1,.22.09h0l.19-.09a.21.21,0,0,1,.12,0c.48,0,.74.34.79,1,0,.14,0,.21.11.21s.19-.14.34-.42a.93.93,0,0,1,.91-.43c.34,0,.5.22.5.64a2,2,0,0,1-.67,1.44.65.65,0,0,0-.07.21l-.17.47v0a.39.39,0,0,1-.09.19.33.33,0,0,0-.1.21l0,.29-.05.33a.38.38,0,0,0,.08.29.9.9,0,0,0,.54-.31,1.23,1.23,0,0,1,.24-.24l.12,0A1,1,0,0,1,449.42,279.18Zm-3.86,0a.53.53,0,0,1,.28-.39.56.56,0,0,0,.29-.28,6.39,6.39,0,0,0,.63-.58c.28-.28.41-.45.41-.51a0,0,0,0,0,0,0h0l-.09.06-.21,0-.22,0-.16-.08-.15,0-.24,0a.66.66,0,0,0-.32.07,2.24,2.24,0,0,1-.51.17,1.85,1.85,0,0,0-.68.32,1,1,0,0,1-.44.23,1.85,1.85,0,0,1-.55.5.52.52,0,0,0-.36.41c-.2.16-.3.25-.3.28l-.08.19a.8.8,0,0,1-.24.14.26.26,0,0,0-.16.24.66.66,0,0,1-.16.35.45.45,0,0,0-.13.25c0,.38.07.57.22.57a1.45,1.45,0,0,0,.39-.12,1.36,1.36,0,0,0,.34-.17.56.56,0,0,1,.19-.09l.22-.12a.24.24,0,0,1,.11-.06.2.2,0,0,0,.11-.07.83.83,0,0,1,.21-.14.57.57,0,0,0,.23-.2l.64-.37.25-.18a1,1,0,0,0,.31-.2A.62.62,0,0,1,445.56,279.18Z" transform="translate(0 -218.51)"/><path class="e1119e42-4c01-4c12-bb37-48a44c563345" d="M461.88,268.87l.2-.16.23,0a.55.55,0,0,0,.34-.1.56.56,0,0,1,.23-.12.42.42,0,0,0,.21-.11.76.76,0,0,1,.35-.15.63.63,0,0,0,.34-.14A.49.49,0,0,1,464,268a1.5,1.5,0,0,0,.3-.1l1.06-.32.13,0h.05a.39.39,0,0,0,.27-.11.52.52,0,0,1,.32-.11,1.39,1.39,0,0,0,.46-.14l.07.07a.49.49,0,0,1,.31-.21h.07l.21.05a1.65,1.65,0,0,1,.48-.09l.26,0,.07,0a.41.41,0,0,1,.26-.13h.13l.48-.12.14.05a.63.63,0,0,1,.43-.12h.11l.12,0,.21-.07a3.57,3.57,0,0,1,.94-.07l.3,0,.32-.11.32.07.13-.05h0l.12.05h0l.84-.12.09,0a.29.29,0,0,1,.14-.08l.22.06a.84.84,0,0,0,.33-.13l.07.07.79-.09.29,0,.26,0a.74.74,0,0,1,.57.2.59.59,0,0,1,.19.41l.05.36-.07.2,0,.23a.31.31,0,0,1-.18.19s0,0-.1.05a.67.67,0,0,0-.21.1,1.75,1.75,0,0,1-.69.07c-.19,0-.32-.06-.37-.18s-.11-.19-.17-.2l-.51-.21s-.06,0-.13,0h-.1l-.47.05-.13,0-.17.07-.86-.05-.35,0-.24,0-.16,0a2.49,2.49,0,0,1-.49.06c-.25,0-.37.09-.37.23a.54.54,0,0,0,.09.28.45.45,0,0,1,.1.25.87.87,0,0,0-.17.31l-.16.15c-.08.08-.22.2-.43.37a1.6,1.6,0,0,0-.43.46.35.35,0,0,1-.28.21,1.23,1.23,0,0,0-.29.36l-.1.09a.23.23,0,0,0,0,.11.21.21,0,0,1-.07.14l-.11.28a2.87,2.87,0,0,0-.47.6l-.14.07-.14.16h-.16c-.07,0-.11.05-.11.14l.05.34a1,1,0,0,0-.28.41l-.14.23c-.16.17-.25.26-.25.27a2.08,2.08,0,0,1-.23.5l0,.12a3.65,3.65,0,0,1-.82,1.14,1.93,1.93,0,0,0-.14.67c-.23.46-.39.68-.47.67a2.28,2.28,0,0,1-.15.72c-.08.19-.18.46-.31.82a2.34,2.34,0,0,1-.4.77l-.05.1a.94.94,0,0,1-.12.18,5.14,5.14,0,0,1-.22,1l-.07.5-.23.66a.33.33,0,0,0,0,.14.56.56,0,0,0,.08.18.52.52,0,0,1,.08.25.5.5,0,0,1-.06.26.48.48,0,0,0-.06.26.48.48,0,0,1-.38.48H463l-.24,0a1.16,1.16,0,0,1-.89-.46,2,2,0,0,1-.39-1.28,2.35,2.35,0,0,1,.07-.36c0-.21.07-.34.08-.4a.7.7,0,0,1,.06-.19.75.75,0,0,0,0-.29,1.72,1.72,0,0,1,.29-1c.19-.28.31-.48.38-.6a.14.14,0,0,1,.08-.11.53.53,0,0,1,0-.23.65.65,0,0,1,.29-.55,1.65,1.65,0,0,1,.09-.21c0-.08.12-.28.24-.6a.81.81,0,0,1,.49-.55s0-.08.14-.19l-.05-.4c0-.07.07-.17.21-.32l.2-.32a.61.61,0,0,1,.3-.37.29.29,0,0,1,.15-.13s0-.13.1-.3a2.58,2.58,0,0,1,.37-.61c.19-.24.38-.5.55-.76s.34-.4.48-.41a.24.24,0,0,0,.24-.24l.07-.43a3,3,0,0,0,.41-.41l.16-.19a.38.38,0,0,1,.12-.21.9.9,0,0,0,.19-.22,1.59,1.59,0,0,1,.29-.29,1.53,1.53,0,0,1,.69-.82l.19-.2a2,2,0,0,1,.32-.38.55.55,0,0,0,.19-.26.49.49,0,0,1,.26-.25q.18-.08.18-.18s0-.05-.09-.05a1.15,1.15,0,0,0-.32.07h-.09l-.21,0h-.07l-.2,0a1,1,0,0,1-.32.07l-.15.1h-.26l-.14.14-.1,0-.31-.05a.64.64,0,0,0-.33.14,1.22,1.22,0,0,1-.38.08,2.61,2.61,0,0,0-.72.22,1.6,1.6,0,0,1-.41.15l-.21,0h0a.38.38,0,0,0-.28.15.6.6,0,0,1-.37.19h-.14a1.08,1.08,0,0,0-.47.14l-.32.14-.21,0a1.51,1.51,0,0,1-.24.13.52.52,0,0,0-.19.11.77.77,0,0,1-.19.11,1.12,1.12,0,0,0-.22.13.35.35,0,0,1-.19.09h0l-.14,0c-.06,0-.13.05-.21.14a.73.73,0,0,1-.24.19.53.53,0,0,0-.21.11.37.37,0,0,1-.21.08,1.37,1.37,0,0,0-.16.26,1.13,1.13,0,0,1-.27.34,1,1,0,0,0-.21.23c0,.05-.07.08-.1.08-.38,0-.57-.24-.57-.71l.23-.5a1.08,1.08,0,0,1,.74-.72,2.54,2.54,0,0,0,.67-.26Z" transform="translate(0 -218.51)"/><path class="e1119e42-4c01-4c12-bb37-48a44c563345" d="M468.43,278.15l.18-.16h.07c.06,0,.14-.06.25-.18l.11,0a1.1,1.1,0,0,1,.41-.41l.19-.14a.41.41,0,0,1,.13-.08,1,1,0,0,0,.28-.23c.13-.12.23-.19.31-.19l.19,0a.73.73,0,0,1,.28-.27,1.3,1.3,0,0,0,.34-.32l.15-.07a1.27,1.27,0,0,0,.33-.24.5.5,0,0,1,.38-.14,1,1,0,0,1,.7.34.94.94,0,0,1,.37.66l-.2.91c-.13.66-.28,1-.44,1l0,.25c-.11.08-.16.14-.16.18l.07.28s0,.1-.13.18,0,0,0,.07v.48a.24.24,0,0,1-.16.2.1.1,0,0,0,.07,0s.15-.07.31-.07l.19,0,.25-.25a1.13,1.13,0,0,0,.23-.11,3.37,3.37,0,0,1,.49-.23l1.53-1.16c.2-.21.36-.32.47-.32s.18.08.18.22a.91.91,0,0,1-.1.43,1.74,1.74,0,0,0-.18.41.82.82,0,0,1-.19.33.89.89,0,0,0-.19.2,1.28,1.28,0,0,1-.37.32,3.41,3.41,0,0,0-.53.43,2.46,2.46,0,0,1-.35.3l-.5.37-.07.11a.94.94,0,0,1-.22.1,1.58,1.58,0,0,0-.34.19l-.21.12a.54.54,0,0,1-.23.06.43.43,0,0,0-.27.13c-.08.08-.14.12-.19.12l-.17,0-.23.07a.82.82,0,0,1-.49-.24.67.67,0,0,1-.28-.5v-.07l0-.17a.93.93,0,0,0-.07-.24,1.08,1.08,0,0,1-.07-.21l0-.16,0-.07a1,1,0,0,1,.05-.4.79.79,0,0,0,.07-.23c0-.09,0-.17,0-.24l.06-.29a.32.32,0,0,1,.12-.18,2.1,2.1,0,0,1,.09-.32l.05-.21.11-.16a.36.36,0,0,0,.11-.25.91.91,0,0,1,.13-.33.76.76,0,0,0,.1-.21.12.12,0,0,0-.14-.14.92.92,0,0,0-.29.19l-.21-.07a.36.36,0,0,0-.13.11s0,.06-.1.07a.37.37,0,0,0-.2.18l-.09,0-.15-.07h-.05c-.08,0-.13.08-.14.26a.63.63,0,0,1-.34.24l-.25.07a.31.31,0,0,0-.19.21.71.71,0,0,1-.23.3.56.56,0,0,1-.24.13c-.21,0-.32-.12-.32-.36l.09-.55Zm5-5.82-.07-.45v-.07c0-.37.12-.57.37-.61l.49-.15a.78.78,0,0,1,.43.37,1,1,0,0,1,.23.56.45.45,0,0,1,0,.11.83.83,0,0,0-.05.31.51.51,0,0,1-.23.39.73.73,0,0,1-.46.17.72.72,0,0,1-.41-.23A.67.67,0,0,1,473.46,272.33Z" transform="translate(0 -218.51)"/><path class="e1119e42-4c01-4c12-bb37-48a44c563345" d="M480.42,276.9l.33-.16a1.24,1.24,0,0,0,.31-.3l.41-.29a1.28,1.28,0,0,1,.45-.23l.19.07s.06-.05.15-.15a.34.34,0,0,1,.28-.14,1,1,0,0,1,.57.31.85.85,0,0,1,.36.56l0,.4a4.14,4.14,0,0,0,.09.52v.09l0,.28,0,.29-.13.57c0,.15.05.22.15.22a1,1,0,0,1,.34-.22l.16-.16c.07-.06.11-.09.14-.09s.08,0,.13-.11a.37.37,0,0,1,.19-.16.28.28,0,0,0,.16-.16,2.89,2.89,0,0,1,1-.82.34.34,0,0,0,.16-.11A.4.4,0,0,1,486,277l.26-.2.1,0h0a.56.56,0,0,0,.19-.11.54.54,0,0,1,.23-.12,1,1,0,0,1,.73.3c.19.2.29.35.29.46l-.06.27.08.36v.23l-.06.24a.34.34,0,0,0,.1.2c.07.09.1.14.1.18s-.14.16-.14.19l0,.21-.05.64a.53.53,0,0,0,.15.27.57.57,0,0,1,.19-.08.64.64,0,0,0,.2-.08l.07,0h0l.14.05h0c.07,0,.1-.06.11-.18a.37.37,0,0,1,.23-.3l.28,0s.05-.07.1-.19a1.77,1.77,0,0,1,.49-.5,1.18,1.18,0,0,1,.63-.33c.12,0,.18.05.18.16a1.4,1.4,0,0,1,0,.25.6.6,0,0,1,.09.28c0,.14-.12.3-.38.47a1.82,1.82,0,0,0-.57.64l0,0-.23,0s-.05.06-.11.18-.13.19-.21.2a.4.4,0,0,0-.16.07l-.24.15a5,5,0,0,0-.46.47c-.26.29-.48.43-.66.43a1.38,1.38,0,0,1-.42-.12,1.06,1.06,0,0,1-.4-.25,1.67,1.67,0,0,0-.3-.29.79.79,0,0,1-.19-.62s0,0,.06-.08.07-.07.07-.1a1,1,0,0,1-.27-.5,1,1,0,0,1,0-.15.39.39,0,0,0,0-.15l0-.41,0-.21,0-.12.07-.6c0-.09-.05-.14-.16-.14s-.07,0-.13.1a.48.48,0,0,1-.2.14.73.73,0,0,0-.26.33.94.94,0,0,0-.29.23c0,.07-.09.11-.12.11l-.09,0a.24.24,0,0,0-.14.21v0l0,.1c0,.07-.06.13-.18.19a1.78,1.78,0,0,0-.43.48.32.32,0,0,0-.16,0l-.14.27a.69.69,0,0,0-.22.25l-.14.07a2.22,2.22,0,0,1-.16.25l-.07.13c-.34.4-.57.6-.7.6s-.29-.18-.48-.53a1.88,1.88,0,0,1-.28-.81l.05-.43a1.18,1.18,0,0,0-.1-.19v-.05a1.81,1.81,0,0,1,.1-.26V279a.13.13,0,0,0,0-.07v-.06a.65.65,0,0,1,.1-.19l-.07-.33,0-.19,0-.41.05-.36a.41.41,0,0,0-.07-.12q-.06-.09-.09-.09a1.77,1.77,0,0,0-.48.27,3.16,3.16,0,0,0-.54.42c-.09.1-.22.22-.37.36a.77.77,0,0,0-.34.59s0,0,0,0,0,0-.07-.05H480s-.16.17-.36.5l-.05.05-.22-.05c-.18,0-.28.2-.28.59,0,.07-.05.12-.14.14a.35.35,0,0,0-.23.2,1.94,1.94,0,0,1-.22.34c-.18.08-.28.13-.3.17s-.09.13-.26.35a3.08,3.08,0,0,0-.28.4.38.38,0,0,1-.16.13c-.09.05-.13.1-.13.14l0,.19c0,.13-.12.19-.36.19-.47,0-.7-.48-.7-1.45a.63.63,0,0,1,.15-.37,3.72,3.72,0,0,0,.28-.5,4.52,4.52,0,0,0,.52-.64,6.22,6.22,0,0,1,.46-.57l.15-.24a.33.33,0,0,1,.06-.21A.28.28,0,0,0,478,278c0-.12,0-.18-.1-.18a.54.54,0,0,0-.35.11,1,1,0,0,1-.28.16.3.3,0,0,0-.21.16,1,1,0,0,0-.34.3l-.24.28a.74.74,0,0,0-.11.16.2.2,0,0,1-.13.11.22.22,0,0,0-.15.08.29.29,0,0,1-.22.07c-.07,0-.14-.07-.2-.22a1.43,1.43,0,0,1-.08-.26c0-.56.37-1.05,1.13-1.46a1.24,1.24,0,0,0,.24-.17.57.57,0,0,1,.18-.12l0-.09a2.16,2.16,0,0,1,.7-.39h.17l.78-.2c.33-.08.5.3.5,1.13l0,.21.05.09c.13-.12.27-.23.4-.33a1.39,1.39,0,0,0,.3-.26A.82.82,0,0,1,480.42,276.9Z" transform="translate(0 -218.51)"/><path class="e1119e42-4c01-4c12-bb37-48a44c563345" d="M499.51,279.18l.19-.17a.18.18,0,0,0,.21-.15c0-.11.1-.19.25-.25a1.09,1.09,0,0,0,.4-.38c.12-.19.25-.29.38-.29s.1,0,.16.12a.32.32,0,0,1,.1.19,1.57,1.57,0,0,1-.24.79l0,.32-.08.15a.52.52,0,0,0-.23.2,1,1,0,0,1-.27.26l-.12.16a.53.53,0,0,0-.34.27.35.35,0,0,1-.25.21.59.59,0,0,0-.34.23,1.49,1.49,0,0,1-.28.11l0,.11a.85.85,0,0,1-.37.19,2.45,2.45,0,0,0-.37.13.39.39,0,0,1-.17.07.91.91,0,0,1-.41-.09,1,1,0,0,0-.38-.11.3.3,0,0,1-.09-.15.41.41,0,0,0-.11-.22.57.57,0,0,1-.11-.36l0-.23s0-.06-.06-.11a.22.22,0,0,1-.06-.12.09.09,0,0,1,0-.07.12.12,0,0,0,0-.07.69.69,0,0,0,0-.13.26.26,0,0,1,0-.11l.07-.57c0-.05,0-.07,0-.07a.4.4,0,0,0-.17.11.4.4,0,0,1-.29.12.55.55,0,0,0-.15.29.93.93,0,0,1-.23.21l-.05.07c0,.06-.07.1-.17.13a.43.43,0,0,0-.21.14l-.12.12-.22,0-.13.21a1,1,0,0,1-.26.29l-.89.72a3.76,3.76,0,0,1-.41.24l-.07.07a3.05,3.05,0,0,1-1.31.61,2.1,2.1,0,0,1-.74-.17q-.42-.18-.45-.42l-.12-.48a.83.83,0,0,1-.1-.45.71.71,0,0,1,0-.19v-.07l0-.38c0-.09.07-.14.22-.14l0-.32a1.35,1.35,0,0,1,.2-.36,1.59,1.59,0,0,1,.27-.37l.12-.15a.41.41,0,0,1,.16-.3,1.37,1.37,0,0,0,.28-.32,1.32,1.32,0,0,1,.4-.36l.35-.35a3.57,3.57,0,0,1,.88-.65.91.91,0,0,0,.29-.23,1.41,1.41,0,0,1,.49-.31,4.34,4.34,0,0,0,.54-.25.9.9,0,0,1,.41-.15h.09a5.32,5.32,0,0,0,.62-.29h.07a.68.68,0,0,1,.22.09h0l.18-.09a.21.21,0,0,1,.12,0c.48,0,.74.34.79,1,0,.14.05.21.12.21s.19-.14.33-.42a.93.93,0,0,1,.91-.43c.34,0,.5.22.5.64a2,2,0,0,1-.67,1.44,1,1,0,0,0-.07.21l-.16.47v0a.43.43,0,0,1-.1.19.33.33,0,0,0-.1.21l0,.29,0,.33c0,.15,0,.25.08.29a1,1,0,0,0,.54-.31,1,1,0,0,1,.23-.24l.12,0A1,1,0,0,1,499.51,279.18Zm-3.86,0a.53.53,0,0,1,.28-.39.56.56,0,0,0,.29-.28,5.41,5.41,0,0,0,.63-.58q.42-.42.42-.51a0,0,0,0,0,0,0h0l-.1.06-.21,0-.22,0-.16-.08-.15,0-.23,0a.61.61,0,0,0-.32.07,2.19,2.19,0,0,1-.52.17,1.85,1.85,0,0,0-.68.32,1,1,0,0,1-.44.23,1.85,1.85,0,0,1-.55.5.56.56,0,0,0-.36.41c-.2.16-.3.25-.3.28l-.08.19a.8.8,0,0,1-.24.14.27.27,0,0,0-.16.24.6.6,0,0,1-.16.35.45.45,0,0,0-.13.25c0,.38.07.57.22.57a1.45,1.45,0,0,0,.39-.12,1.82,1.82,0,0,0,.35-.17.49.49,0,0,1,.18-.09l.22-.12a.24.24,0,0,1,.11-.06s.07,0,.11-.07a.83.83,0,0,1,.21-.14.68.68,0,0,0,.24-.2l.64-.37.24-.18a1,1,0,0,0,.32-.2A.5.5,0,0,1,495.65,279.18Z" transform="translate(0 -218.51)"/><path class="e1119e42-4c01-4c12-bb37-48a44c563345" d="M501.21,277.94l.09-.13a.52.52,0,0,0,.39-.23,5.4,5.4,0,0,1,.58-.6c.37-.35.57-.54.61-.56a4.26,4.26,0,0,0,.45-1c.1,0,.14-.1.14-.16l.1-.18.1,0,.05,0v-.11a3.06,3.06,0,0,1,.45-1c.3-.62.46-1,.49-1a2.28,2.28,0,0,1,.14-.29c.07-.13.17-.37.32-.74a4.62,4.62,0,0,1,.67-1.14s.07-.1.14-.26a1.58,1.58,0,0,1,.29-.47l.14-.25.24-.4a3.86,3.86,0,0,1,.32-.46,1.4,1.4,0,0,0,.22-.36.71.71,0,0,1,.18-.27.8.8,0,0,0,.22-.29.35.35,0,0,1,.34-.22.7.7,0,0,1,.66.37,1.36,1.36,0,0,1,.2.65,3.85,3.85,0,0,1-.14.51l-.17,1c-.16.08-.23.17-.23.27a2.2,2.2,0,0,1-.48,1.28.64.64,0,0,0-.08.3.64.64,0,0,1-.2.42,1.33,1.33,0,0,0-.31.55L506,274.65l-.09.09a.6.6,0,0,0-.16.2l-.19-.06c-.21,0-.31.07-.31.2a.54.54,0,0,0,0,.19v0s-.28.41-.86,1.22a3.24,3.24,0,0,0-.16.46l-.16.34a2.36,2.36,0,0,0-.35.66,1.33,1.33,0,0,1-.26.52c-.15.35-.23.53-.23.55a.06.06,0,0,0,.07.07s.15-.12.33-.35a2.06,2.06,0,0,1,.43-.47.88.88,0,0,0,.28-.32l.12-.09a1.06,1.06,0,0,0,.2-.14l.12,0a.28.28,0,0,0,.11-.16.3.3,0,0,1,.07-.14c.21,0,.33-.1.38-.23s.11-.18.18-.18.15-.07.25-.22a1.13,1.13,0,0,1,.42-.35,2.29,2.29,0,0,0,.41-.23,2.24,2.24,0,0,1,.54-.26,2.47,2.47,0,0,1,.55-.14h.07l.09,0,.18,0a1.62,1.62,0,0,1,.82.23.64.64,0,0,1,.34.7l-.09.72-.13.57a3.7,3.7,0,0,1-.18.62,3.74,3.74,0,0,0-.17.55l0,.22,0,.3,0,.25c0,.07,0,.11.12.11s.11-.07.25-.21c.09,0,.17,0,.25-.14a1.87,1.87,0,0,1,.31-.34s.05-.06.15-.08a1.29,1.29,0,0,0,.42-.28,2,2,0,0,1,.45-.44,3.72,3.72,0,0,1,.78-.53l.07-.1a.55.55,0,0,1,.36-.2c.11,0,.16.06.16.18a.53.53,0,0,1-.06.24,1.31,1.31,0,0,0-.08.34,1.87,1.87,0,0,1-.23.58l-.05.12a.34.34,0,0,1-.2.23.68.68,0,0,0-.25.2,1.23,1.23,0,0,1-.55.29c-.12.24-.22.35-.29.35l-.21-.09a.55.55,0,0,0-.24.41,3.67,3.67,0,0,0-.36.33l-.24,0c-.06,0-.09.08-.09.26l-.24.15a2.21,2.21,0,0,0-.36.24,1,1,0,0,1-.55.11.26.26,0,0,1-.14-.09.84.84,0,0,0-.27-.14.36.36,0,0,1-.25-.27,2.27,2.27,0,0,0-.15-.34.32.32,0,0,1-.08-.19l0-.23-.06-.24.11-.17a.63.63,0,0,1-.07-.22l.11-.71a9.3,9.3,0,0,1,.21-1s0-.06,0-.14l0-.29,0-.16c0-.12,0-.18-.11-.19s-.13,0-.14-.06a.62.62,0,0,0-.18-.07c-.06,0-.11,0-.16.15a1.15,1.15,0,0,1-.19.26l-.29-.05v0c0,.06-.1.18-.31.36a.87.87,0,0,0-.5.3.7.7,0,0,0-.32.18,1.1,1.1,0,0,1-.3.2l-.09.19-.19.06a.48.48,0,0,1-.38.3l-.12.22a.39.39,0,0,0-.34.25c-.06.15-.11.23-.14.23l-.07,0-.1,0c-.18,0-.27.13-.28.39a3.48,3.48,0,0,1-.48.54,4.78,4.78,0,0,1-.51.51s-.07.09-.14.24a.72.72,0,0,1-.27.34,1.39,1.39,0,0,0-.26.18.25.25,0,0,1-.14.07c-.16,0-.29-.12-.39-.35a3.62,3.62,0,0,1-.16-.36l.07-.24,0-.21s.05-.17.15-.47a2.37,2.37,0,0,1,.33-.73,2.24,2.24,0,0,0,.29-.85,2.31,2.31,0,0,1-.63.35c-.16,0-.23-.1-.23-.31A1.56,1.56,0,0,1,501.21,277.94Z" transform="translate(0 -218.51)"/></g></svg>