<svg id="f704ecc4-0ac0-44c3-8712-6734a5e4b997" data-name="Layer 1" xmlns="http://www.w3.org/2000/svg" viewBox="0 0 512 403.48"><defs><style>.bc6cb6a4-2b89-44e9-9ae1-2206eec4f35e{fill:#5c91fa;}.a85d0327-5dea-484c-8206-1e1d8c94b574,.aaa8daf0-3073-449f-a64e-40f357b4fd4f,.bc6cb6a4-2b89-44e9-9ae1-2206eec4f35e{fill-rule:evenodd;}.aaa8daf0-3073-449f-a64e-40f357b4fd4f{fill:#588bf0;}.a85d0327-5dea-484c-8206-1e1d8c94b574{fill:#5687e9;}.a864b211-fa89-4dbc-b172-a435e4143a9a{fill:#263b66;}.b61e12ab-be86-4d20-b299-f624e9f1e51a{fill:#575b66;}</style></defs><g id="fc13833e-705d-4ce7-b841-faee1a0b5b04" data-name="Vertical"><path class="bc6cb6a4-2b89-44e9-9ae1-2206eec4f35e" d="M256,0,84.19,84.24,256,168.48,427.81,84.24ZM394.79,87.58l-6.66,3.26L367.45,101a16.72,16.72,0,0,1-13.06,0c-3.61-1.77-3.61-4.63,0-6.4l20.68-10.14L347.45,70.9,320.24,84.24l-55.95,27.43L291.5,125l17.3-8.48a16.72,16.72,0,0,1,13.06,0l.13.06c3.6,1.77,3.6,4.64,0,6.4l-17.3,8.48-8.29,4.07-27.62,13.54-6.53,3.2a16.72,16.72,0,0,1-13.06,0L242.53,149l-20.68-10.14c-3.61-1.77-3.61-4.63,0-6.4a16.72,16.72,0,0,1,13.06,0l20.68,10.14,27.62-13.54L256,115.73,200.05,88.3l-27.21,13.34,17.3,8.49c3.61,1.76,3.61,4.63,0,6.4l-.13.06a16.72,16.72,0,0,1-13.06,0l-17.29-8.48-8.3-4.07L123.74,90.5l-6.53-3.2c-3.6-1.77-3.6-4.63,0-6.4l6.66-3.27,20.68-10.14a16.81,16.81,0,0,1,13.06,0h0c3.61,1.77,3.61,4.64,0,6.41L136.93,84l27.62,13.54,27.21-13.34,56-27.43L220.5,43.47,203.2,52a16.72,16.72,0,0,1-13.06,0l-.13-.07c-3.6-1.76-3.6-4.63,0-6.4L207.31,37l8.29-4.06,27.62-13.55,6.53-3.2a16.72,16.72,0,0,1,13.06,0l6.66,3.27,20.68,10.13c3.61,1.77,3.61,4.64,0,6.41a16.72,16.72,0,0,1-13.06,0L256.41,25.86,228.79,39.4,256,52.74,312,80.17l27.21-13.34-17.3-8.48c-3.61-1.77-3.61-4.63,0-6.4l.13-.07a16.81,16.81,0,0,1,13.06,0l17.29,8.49,8.3,4.06L388.26,78l6.53,3.21C398.39,82.94,398.39,85.81,394.79,87.58Z"/><path class="aaa8daf0-3073-449f-a64e-40f357b4fd4f" d="M256,168.48v84.23l171.81-84.23V84.24Zm139.41-18.73L294.34,199.3a6.74,6.74,0,0,1-9-3.08,6.75,6.75,0,0,1,3.09-9l101.06-49.55a6.74,6.74,0,1,1,5.94,12.1Z"/><path class="a85d0327-5dea-484c-8206-1e1d8c94b574" d="M84.19,84.24v84.24L256,252.71V168.48Zm142.49,112a6.74,6.74,0,0,1-9,3.08L116.59,149.75a6.74,6.74,0,1,1,5.94-12.1L223.59,187.2A6.75,6.75,0,0,1,226.68,196.22Z"/><path class="a864b211-fa89-4dbc-b172-a435e4143a9a" d="M93.6,347.37a48.11,48.11,0,0,1-7-.51A37.13,37.13,0,0,1,80,345.27a25.55,25.55,0,0,1-5.56-2.66,5.09,5.09,0,0,1-2-2.3,5,5,0,0,1-.36-2.66,4.61,4.61,0,0,1,1-2.3,3.5,3.5,0,0,1,2.1-1.23,3.86,3.86,0,0,1,2.77.71,26.82,26.82,0,0,0,7.39,3,33.93,33.93,0,0,0,8.17.95q6.27,0,9.13-2.1a6.46,6.46,0,0,0,2.85-5.44,5.23,5.23,0,0,0-2-4.36c-1.35-1.06-3.66-1.93-7-2.62l-8.72-1.82q-7.55-1.59-11.23-5.36a13.62,13.62,0,0,1-3.69-10,15.52,15.52,0,0,1,1.58-7.06A16.27,16.27,0,0,1,79,294.6a20.82,20.82,0,0,1,6.9-3.53,30.05,30.05,0,0,1,8.85-1.23,33.81,33.81,0,0,1,9,1.19,26.18,26.18,0,0,1,7.69,3.49,4.28,4.28,0,0,1,1.71,2.14,4.78,4.78,0,0,1,.2,2.5,4,4,0,0,1-1.11,2.11,3.63,3.63,0,0,1-2.18,1,4.85,4.85,0,0,1-3-.8,22.78,22.78,0,0,0-6-2.38,28.55,28.55,0,0,0-6.51-.71,17.09,17.09,0,0,0-6.27,1,9,9,0,0,0-4,2.9,7.19,7.19,0,0,0-1.38,4.4,5.83,5.83,0,0,0,1.9,4.57c1.27,1.13,3.44,2,6.51,2.65l8.65,1.83q7.86,1.66,11.7,5.24a12.34,12.34,0,0,1,3.85,9.52,14.89,14.89,0,0,1-6,12.22,21,21,0,0,1-6.94,3.41A32.12,32.12,0,0,1,93.6,347.37Z"/><path class="a864b211-fa89-4dbc-b172-a435e4143a9a" d="M129.47,347.21a5,5,0,0,1-3.77-1.38,5.41,5.41,0,0,1-1.31-3.85V295.23a5.36,5.36,0,0,1,1.31-3.88,5.94,5.94,0,0,1,7.54,0,5.36,5.36,0,0,1,1.31,3.88V342a5.53,5.53,0,0,1-1.27,3.85A4.94,4.94,0,0,1,129.47,347.21Z"/><path class="a864b211-fa89-4dbc-b172-a435e4143a9a" d="M151.53,347.21a4.43,4.43,0,0,1-3.41-1.27,4.89,4.89,0,0,1-1.19-3.49V294.76a4.68,4.68,0,0,1,1.27-3.53,4.81,4.81,0,0,1,3.49-1.23,5.66,5.66,0,0,1,3.13.75,6.76,6.76,0,0,1,2.11,2.58l19.6,36.27H174l19.6-36.27a7,7,0,0,1,2.07-2.58,5.47,5.47,0,0,1,3.09-.75,4.52,4.52,0,0,1,3.41,1.23,4.85,4.85,0,0,1,1.19,3.53v47.69a5,5,0,0,1-1.15,3.49,5.27,5.27,0,0,1-6.86,0,4.85,4.85,0,0,1-1.19-3.49V305.71h1.74L179.23,336.1a6.49,6.49,0,0,1-1.67,2,4,4,0,0,1-2.38.63,4.16,4.16,0,0,1-2.46-.67,5.92,5.92,0,0,1-1.67-1.95l-16.82-30.47h1.91v36.82a5,5,0,0,1-1.16,3.49A4.39,4.39,0,0,1,151.53,347.21Z"/><path class="a864b211-fa89-4dbc-b172-a435e4143a9a" d="M216.21,347.21a5,5,0,0,1-3.06-.87,3.56,3.56,0,0,1-1.39-2.34,6,6,0,0,1,.56-3.29l21-46.43a7.59,7.59,0,0,1,2.5-3.29,5.88,5.88,0,0,1,3.37-1,5.77,5.77,0,0,1,3.3,1,7.59,7.59,0,0,1,2.5,3.29l21,46.43a5.68,5.68,0,0,1,.63,3.33,3.46,3.46,0,0,1-1.35,2.34,4.74,4.74,0,0,1-2.93.83,5.08,5.08,0,0,1-3.46-1.07,9,9,0,0,1-2.18-3.29l-5.16-12,4.29,2.77H222.32l4.29-2.77-5.08,12a10.33,10.33,0,0,1-2.15,3.33A4.46,4.46,0,0,1,216.21,347.21ZM239,301.66l-11.1,26.43-2.07-2.54h26.51l-2,2.54-11.19-26.43Z"/><path class="a864b211-fa89-4dbc-b172-a435e4143a9a" d="M279.46,347.21a4.45,4.45,0,0,1-3.42-1.27,4.89,4.89,0,0,1-1.19-3.49V294.76a4.72,4.72,0,0,1,1.27-3.53,4.81,4.81,0,0,1,3.49-1.23,5.7,5.7,0,0,1,3.14.75,6.66,6.66,0,0,1,2.1,2.58l19.6,36.27h-2.54l19.61-36.27a6.89,6.89,0,0,1,2.06-2.58,5.47,5.47,0,0,1,3.09-.75,4.56,4.56,0,0,1,3.42,1.23,4.89,4.89,0,0,1,1.19,3.53v47.69a5,5,0,0,1-1.15,3.49,5.28,5.28,0,0,1-6.87,0,4.89,4.89,0,0,1-1.19-3.49V305.71h1.75L307.15,336.1a6.48,6.48,0,0,1-1.66,2,4,4,0,0,1-2.38.63,4.19,4.19,0,0,1-2.47-.67A5.9,5.9,0,0,1,299,336.1l-16.83-30.47h1.91v36.82a5,5,0,0,1-1.15,3.49A4.42,4.42,0,0,1,279.46,347.21Z"/><path class="a864b211-fa89-4dbc-b172-a435e4143a9a" d="M344.13,347.21a4.91,4.91,0,0,1-3.05-.87,3.52,3.52,0,0,1-1.39-2.34,6,6,0,0,1,.55-3.29l21-46.43a7.58,7.58,0,0,1,2.49-3.29,5.92,5.92,0,0,1,3.38-1,5.77,5.77,0,0,1,3.29,1,7.59,7.59,0,0,1,2.5,3.29l21,46.43a5.77,5.77,0,0,1,.64,3.33,3.46,3.46,0,0,1-1.35,2.34,4.75,4.75,0,0,1-2.94.83,5.06,5.06,0,0,1-3.45-1.07,9,9,0,0,1-2.19-3.29l-5.15-12,4.28,2.77H350.24l4.29-2.77-5.08,12a10.33,10.33,0,0,1-2.14,3.33A4.49,4.49,0,0,1,344.13,347.21Zm22.78-45.55L355.8,328.09l-2.07-2.54h26.51l-2,2.54-11.18-26.43Z"/><path class="a864b211-fa89-4dbc-b172-a435e4143a9a" d="M415,347.21a5,5,0,0,1-3.77-1.38,5.41,5.41,0,0,1-1.31-3.85V299.12H394.45a4.34,4.34,0,0,1-3.22-1.15,4.21,4.21,0,0,1-1.15-3.13,4.08,4.08,0,0,1,1.15-3.14,4.57,4.57,0,0,1,3.22-1.07h41.1a4.57,4.57,0,0,1,3.22,1.07,4.08,4.08,0,0,1,1.15,3.14,4.21,4.21,0,0,1-1.15,3.13,4.34,4.34,0,0,1-3.22,1.15H420.08V342a5.49,5.49,0,0,1-1.27,3.85A4.91,4.91,0,0,1,415,347.21Z"/><path class="b61e12ab-be86-4d20-b299-f624e9f1e51a" d="M10.55,387.52l.12-.31.41-.45a1.59,1.59,0,0,1,.51-.61,1.09,1.09,0,0,1,.09-.23,1,1,0,0,0,.09-.34l.14-.25s.06-.07.06-.09a.73.73,0,0,0-.12-.19l-.08-.32c0-.08-.27-.36-.82-.82h-.12l-1.12-.55-.06-.15-.13,0-.15.06h0l-.53-.16a6.94,6.94,0,0,1-.84-.26.12.12,0,0,1-.09,0l-.62-.14a.61.61,0,0,1-.32-.13.72.72,0,0,0-.26-.14.66.66,0,0,1-.27-.13.38.38,0,0,0-.25-.06l-.39.09s-.15-.08-.43-.15c0-.11-.08-.16-.1-.16l-.45.06-.46-.21-.55-.09a1.7,1.7,0,0,1-.6-.18,1.73,1.73,0,0,0-.42-.18l-.09-.1a.44.44,0,0,0-.17-.06H2.22a.47.47,0,0,1-.26-.15,2.08,2.08,0,0,0-.42-.31,1.52,1.52,0,0,1-.65-1.16s0,0,0-.07l.1-.49a3.18,3.18,0,0,1,.88-1.75.92.92,0,0,1,.51-.61l.07-.22a6.55,6.55,0,0,0,.64-.62,1.77,1.77,0,0,1,.44-.38,2.88,2.88,0,0,0,.39-.27l.28-.12q0-.14.69-.66a5.78,5.78,0,0,1,1.1-.68l.53-.24a4.45,4.45,0,0,1,.77-.24c.1-.28.26-.41.49-.41H8l.31-.31.42,0,.17-.2a.59.59,0,0,1,.47-.16l1.87-.57h.13l.12,0c.08,0,.19-.07.32-.22a.67.67,0,0,1,.5-.22.62.62,0,0,1,.23.13s0,0,0,0l.4-.12.48,0,.6-.16a1.78,1.78,0,0,1,1,.28l0-.06v-.09q0-.27.3-.27c.08,0,.13,0,.15.07l.19.1h.11a2.8,2.8,0,0,1,.4.19,1,1,0,0,1,.29-.16.56.56,0,0,1,.47.25l.26,0a.42.42,0,0,1,.16-.12c.06,0,.14.08.25.24l.09,0h.39s.06,0,.12.09l.17.14a1.2,1.2,0,0,1,.17.2.76.76,0,0,0,.11.14l.43-.17c.11,0,.18.09.23.26a.58.58,0,0,0,.28.43.58.58,0,0,1,.27.44.53.53,0,0,1,.34.5l.29.76-.06.26a2,2,0,0,1,.13.28l-.07.57.07.61a1,1,0,0,1-.45.82.63.63,0,0,0-.3.13.92.92,0,0,1-.25.13.61.61,0,0,1-.53-.19,1.08,1.08,0,0,0-.26-.29.29.29,0,0,1-.12-.25.89.89,0,0,1,.48-.69.36.36,0,0,0,.31-.14.63.63,0,0,0-.14-.46,2.17,2.17,0,0,1-.3-.34,1.59,1.59,0,0,0-.35-.34,1,1,0,0,1-.3-.34c-.08-.13-.15-.2-.21-.2L18,374l-.45-.09a5.16,5.16,0,0,1-1.3-.33h-.31l-.84-.12a1.66,1.66,0,0,1-.62.09l-1,.16-.42,0-.85.26L12,374h-.41a2.14,2.14,0,0,0-.4.16,4.47,4.47,0,0,1-.61.21l-.14.07a.13.13,0,0,1-.1,0l-.24,0-1.37.66L8.52,375l-.3-.13A.19.19,0,0,0,8,375l0,.29a2.56,2.56,0,0,0-.26.19.35.35,0,0,1-.16.09H7.37a.51.51,0,0,0-.35.17.45.45,0,0,1-.29.17,1.18,1.18,0,0,0-.35.14c0,.05-.11.09-.25.13a.52.52,0,0,0-.33.29c-.08.15-.17.22-.28.22l-.3-.06L5,377l-.37.09a2,2,0,0,1-.4.41,3.79,3.79,0,0,0-.4.3,1.05,1.05,0,0,0-.28.33.65.65,0,0,1-.25.27.79.79,0,0,0-.29.41l-.16.16a.91.91,0,0,0-.39.7c0,.17.13.3.37.38a2.14,2.14,0,0,1,.47.2.43.43,0,0,0,.28.08.85.85,0,0,1,.35.08l.58.25q.08.24.15.24s.06,0,.13-.12a.32.32,0,0,1,.27-.12.5.5,0,0,1,.39.24l.13-.09h.06l.2.06h0l.19-.09a.12.12,0,0,1,.09,0l.48.15h0l.25-.06a.71.71,0,0,1,.26.1l.22.12s0,0,.06,0a.56.56,0,0,0,.19-.07.43.43,0,0,1,.23-.07.39.39,0,0,1,.28.17l.28-.11a1.19,1.19,0,0,1,.48.23l.29.06h.34l.51.1a2,2,0,0,0,.45.35.21.21,0,0,1,.22-.17,2.42,2.42,0,0,1,.76.2l.12,0,.13.1.32-.07c.21,0,.31.08.31.22a1.65,1.65,0,0,1-.09.48s0,0,.09.06a.44.44,0,0,1,.17-.12l.25-.14s.07-.06.09-.06a2,2,0,0,1,1,.5,1.69,1.69,0,0,1,.74,1.13,1,1,0,0,0,.13.43l-.06.2,0,.25a1.53,1.53,0,0,1-.06.22l0,.23a.31.31,0,0,1-.09.11.31.31,0,0,0-.09.11l.09.26v.06a.31.31,0,0,1-.11.17.5.5,0,0,0-.15.2.66.66,0,0,1-.11.2.59.59,0,0,0-.11.24c0,.09-.12.2-.3.32s-.27.21-.27.27,0,.09.06.09a.64.64,0,0,0,.4-.18,1,1,0,0,1,.31-.21,1.66,1.66,0,0,0,.37-.18l1.46-.69a11.47,11.47,0,0,1,1.81-.77.22.22,0,0,1,.25.25.77.77,0,0,1-.22.35.8.8,0,0,1-.64.86A1.38,1.38,0,0,0,17,387h-.12a1.18,1.18,0,0,1-.89.44h-.09a2.14,2.14,0,0,1-1.4.63,1.48,1.48,0,0,1-.89.54l-.25.07a1.82,1.82,0,0,1-.55.15s-.06,0-.12.12l-.23.18a1.49,1.49,0,0,0-.64.34,1.6,1.6,0,0,1-.52.32,1.43,1.43,0,0,0-.38.13q-.2.09-1.62,1.05l-.21.06a2.51,2.51,0,0,0-.75.46,1.4,1.4,0,0,1-.38.3H7.87a1.39,1.39,0,0,0-.84.47c0,.05-.24.13-.67.25a4.51,4.51,0,0,0-1.23.55l-.92.25a6.79,6.79,0,0,1-.78.19l-1.09.23c-.24,0-.51.1-.82.18a1.65,1.65,0,0,0-.48-.09l-.28,0a.4.4,0,0,1-.2-.1,1.33,1.33,0,0,0-.34-.22c-.15-.06-.22-.24-.22-.53s.28-.51.85-.77.94-.43,1.12-.53a.57.57,0,0,1,.43-.2,1.12,1.12,0,0,0,.52-.19,2.09,2.09,0,0,1,.66-.28l.62-.32.08,0H4.5a.66.66,0,0,0,.32-.17,1.45,1.45,0,0,1,.45-.25h.19s0,0,.09-.08a1.37,1.37,0,0,1,.28-.2l0,0H6a1.64,1.64,0,0,1,.41-.24,2.46,2.46,0,0,0,.45-.24L8.1,389l.28,0a.44.44,0,0,0,.24-.14,1.71,1.71,0,0,1,.69-.31,1.18,1.18,0,0,1,.32-.29,5.26,5.26,0,0,0,.59-.5Zm-5.41,3.87-.22,0a.91.91,0,0,1-.43.14,1.8,1.8,0,0,0-.65.29,8,8,0,0,1-1,.52c-.38.16-.57.27-.57.32a6.47,6.47,0,0,0,1.58-.41L5,391.9a1.1,1.1,0,0,0,.31-.12,1.53,1.53,0,0,1,.33-.17l.25-.19.34-.12c.18-.06.27-.12.27-.19s0-.06-.07-.06a2,2,0,0,0-.88.17A1.86,1.86,0,0,1,5.14,391.39Z"/><path class="b61e12ab-be86-4d20-b299-f624e9f1e51a" d="M16.27,386l.25-.22h.09c.07,0,.19-.07.33-.23l.15-.06a1.29,1.29,0,0,1,.55-.54l.25-.19a.5.5,0,0,1,.18-.11,1.55,1.55,0,0,0,.37-.3c.17-.17.3-.26.41-.26a.9.9,0,0,1,.25,0,1,1,0,0,1,.37-.36,1.54,1.54,0,0,0,.45-.43l.2-.09a1.55,1.55,0,0,0,.44-.32.73.73,0,0,1,.51-.19,1.41,1.41,0,0,1,.94.46,1.25,1.25,0,0,1,.48.87l-.26,1.21c-.18.89-.37,1.35-.59,1.4l-.06.32c-.15.11-.22.19-.22.25l.1.37q0,.08-.18.24s0,0,0,.09v.63a.31.31,0,0,1-.21.28l.09.06a.64.64,0,0,1,.42-.09l.24,0,.35-.34a1.36,1.36,0,0,0,.3-.15q.19-.11.66-.3l2-1.55c.28-.28.49-.42.64-.42s.23.1.23.3a1.06,1.06,0,0,1-.13.56,2.59,2.59,0,0,0-.24.55,1,1,0,0,1-.26.44,1.22,1.22,0,0,0-.24.27,2,2,0,0,1-.5.43,4.18,4.18,0,0,0-.7.56,3.44,3.44,0,0,1-.47.41l-.67.48-.09.16a1.85,1.85,0,0,1-.29.13,1.94,1.94,0,0,0-.45.25l-.28.16a.64.64,0,0,1-.3.08.55.55,0,0,0-.37.18.46.46,0,0,1-.25.16l-.23,0-.31.09a1.09,1.09,0,0,1-.64-.32.86.86,0,0,1-.38-.67v-.09l0-.22a1.2,1.2,0,0,0-.1-.32,1.68,1.68,0,0,1-.09-.29l0-.21,0-.1a1.13,1.13,0,0,1,.07-.52,1,1,0,0,0,.09-.31c0-.12,0-.23.06-.31l.08-.39a.45.45,0,0,1,.15-.25c0-.08.06-.22.13-.42l.06-.28.15-.21a.51.51,0,0,0,.15-.34,1.24,1.24,0,0,1,.16-.44.8.8,0,0,0,.14-.28.16.16,0,0,0-.18-.18,1.29,1.29,0,0,0-.39.24l-.28-.09s-.08.05-.17.16-.05.07-.14.09a.46.46,0,0,0-.26.23l-.13,0-.2-.09h-.06c-.11,0-.17.11-.19.34a.75.75,0,0,1-.45.33l-.34.09a.44.44,0,0,0-.25.28.93.93,0,0,1-.31.4.73.73,0,0,1-.31.17c-.29,0-.43-.16-.43-.48l.12-.73Zm6.7-7.75-.09-.6v-.1c0-.48.16-.75.49-.8.07,0,.29-.08.65-.2a1.07,1.07,0,0,1,.58.48,1.35,1.35,0,0,1,.31.76.81.81,0,0,1-.05.14,1.35,1.35,0,0,0-.06.41.68.68,0,0,1-.31.52.77.77,0,0,1-1.16-.07A1,1,0,0,1,23,378.28Z"/><path class="b61e12ab-be86-4d20-b299-f624e9f1e51a" d="M28.37,384l.21-.39a3,3,0,0,1,.24-.28,2,2,0,0,0,.32-.76,2.35,2.35,0,0,1,.38-.85.81.81,0,0,1,.61-.23,1.32,1.32,0,0,1,.62.22,2.59,2.59,0,0,1,.74,1.36,6.38,6.38,0,0,1,.37,1.6,1.41,1.41,0,0,0,.1.47,1.76,1.76,0,0,1,.14.44,2,2,0,0,0-.12.3l0,.63-.18.51v.38a1.09,1.09,0,0,0-.19.38.35.35,0,0,0,.06.19,2.75,2.75,0,0,0,.89-.51.71.71,0,0,1,.3-.24,1.55,1.55,0,0,0,.48-.4l.3-.16c.1-.12.19-.23.26-.33a.66.66,0,0,1,.26-.21,1.75,1.75,0,0,0,.34-.21,3.46,3.46,0,0,1,.59-.36l.16-.19a1.62,1.62,0,0,1,.55-.41,2.05,2.05,0,0,1,.34-.16c.08,0,.15.1.23.29a1.45,1.45,0,0,1,.12.56.68.68,0,0,1-.31.52,4.46,4.46,0,0,0-.41.38.93.93,0,0,1-.49.22s-.19.22-.51.64l-.31.18-.16.2s-.16.08-.42.13c0,0,0,0-.07.15s-.14.18-.33.22a4.15,4.15,0,0,0-.57.57l-.33.06a1.08,1.08,0,0,1-.15.36c-.25.06-.39.17-.42.31a.53.53,0,0,1-.16.06l-.06.05a1.7,1.7,0,0,1-.69.34l-.36.09-.12.19c0,.05-.13.12-.38.2a1.38,1.38,0,0,0-.57.31l-.26.2a1.65,1.65,0,0,0-.61.34h-.21a1.49,1.49,0,0,0-.68.32,1.5,1.5,0,0,1-.75.32,2.37,2.37,0,0,1-1.23-.23,2.06,2.06,0,0,1-.55-.55,4,4,0,0,0-.39-.54.55.55,0,0,1-.18-.33q0-.11.15-.21a1.21,1.21,0,0,0,.31-.44c.12-.23.41-.37.87-.43l.23-.09a.65.65,0,0,1,.31-.1c.11,0,.24.1.39.28t.06,0l.25,0a.49.49,0,0,0,.23.13,1.23,1.23,0,0,0,.79-.38l.06,0h.13s.08-.08.15-.26l.27-.54.54-.7v-.16a1.47,1.47,0,0,1,.09-.27v-.24c0-.09.06-.15.19-.17s.18-.09.18-.2l0-.12a.54.54,0,0,1-.12-.27l.15-.31,0-.32.06-.13a1.8,1.8,0,0,1-.06-.24l.06-.39a1.91,1.91,0,0,0-.08-.29c-.06-.19-.1-.28-.13-.28s-.26.16-.59.48a2.7,2.7,0,0,0-.59.68.9.9,0,0,1-.4.36.94.94,0,0,0-.41.37.41.41,0,0,1-.26.23l-1,.84-1.14.83c-.08.1-.13.14-.15.14q-.57,0-.57-.63a2.07,2.07,0,0,1,.23-.73l.16-.1s0,0,0,0,0,0,0,0l.09.06h0a5.31,5.31,0,0,1,.74-.44.65.65,0,0,0,.31-.34l.65-.47a7.73,7.73,0,0,0,.76-.68A5.36,5.36,0,0,0,28.37,384Z"/><path class="b61e12ab-be86-4d20-b299-f624e9f1e51a" d="M38.91,377.4l.22-.06.15-.16h0l.14.06h0a1.53,1.53,0,0,0,.66-.14c.2-.1.36-.17.49-.22l.24-.09.08,0,.25,0c.08,0,.19-.15.33-.44a1.68,1.68,0,0,1,.48-.64,2.15,2.15,0,0,0,.52-.76,1.17,1.17,0,0,0,.14-.24c0-.11.1-.16.13-.16s.27-.1.37-.3c.31-.36.56-.54.76-.54s.44.25.54.74l.15.59a1.57,1.57,0,0,1-.07.23,1,1,0,0,0-.07.42.87.87,0,0,1,0,.27.79.79,0,0,0,0,.17c0,.08.09.12.26.12a1,1,0,0,0,.34-.12l.1,0a.48.48,0,0,0,.26.1,3.3,3.3,0,0,0,.44-.16,3.89,3.89,0,0,1,.52-.17,1.84,1.84,0,0,0,.37-.12h.19l.12.05a.73.73,0,0,0,.26-.14,1.67,1.67,0,0,1,.73-.16l.22-.09h.06q.51,0,.51.45a.83.83,0,0,1-.14.32,2.14,2.14,0,0,0-.24.53l-.71.9a1,1,0,0,1-.72.46s-.17-.14-.39-.42t-.06,0a.77.77,0,0,0-.32.07.94.94,0,0,1-.28.06l-.82.23-.38.06a1.19,1.19,0,0,0-.29.07l-.79.15A1.41,1.41,0,0,0,43,379s0,.07-.15.14l-.7,1.27a.61.61,0,0,0-.45.4l-.06.1a.49.49,0,0,0-.31.19,1.94,1.94,0,0,1-.27.25l-.28.42c-.11.15-.22.3-.34.48a1.89,1.89,0,0,0-.25.54,1,1,0,0,1-.12.33.25.25,0,0,0,0,.17l-.05.13a.58.58,0,0,0-.18.42l.06.24c-.14.5-.22.76-.22.79a.69.69,0,0,0,0,.17v.1a2.13,2.13,0,0,1-.25.85l0,.25-.1.69a2.91,2.91,0,0,0,.1.52s-.06.07-.06.09a1.5,1.5,0,0,0,.45.95,2.39,2.39,0,0,1,.46,1.62.86.86,0,0,1-.05.27,2.28,2.28,0,0,0-.06.39.62.62,0,0,1-.24.41.59.59,0,0,1-.38.2c-.55,0-1-.4-1.23-1.19a6.66,6.66,0,0,1-.4-1.53l0-.61-.09-.31.09-1.36-.06-.33.36-1.33v-.48a1,1,0,0,1,.21-.25s0,0-.06,0-.14.06-.25.18a1.7,1.7,0,0,1-.39.36l-.12.22a.33.33,0,0,0-.12-.06,3.45,3.45,0,0,0-.52.72.74.74,0,0,0-.51.38.57.57,0,0,1-.51.32l-.06,0c0,.3-.19.45-.44.45l-.06,0c-.15.35-.32.53-.48.52a1,1,0,0,1-.76.63A.57.57,0,0,1,34,388a1.05,1.05,0,0,0-.26.17.23.23,0,0,1-.14.08c-.13,0-.2-.15-.2-.44a.48.48,0,0,1,.1-.27.42.42,0,0,0,.1-.21s0-.08-.15-.18c0-.32.08-.53.24-.61a.86.86,0,0,0,.38-.35.47.47,0,0,1,.31-.27c.15-.05.23-.12.23-.2s.13-.22.4-.43a3.62,3.62,0,0,0,.59-.57c.13-.16.23-.24.31-.24l.06-.06c0-.26.12-.39.3-.39l.16-.09,0-.12.09-.07h.12l.08-.06a.74.74,0,0,1,.36-.6,8.15,8.15,0,0,0,1.22-1.22,7.45,7.45,0,0,0,1-1.28,4.58,4.58,0,0,1,.39-.75A2.05,2.05,0,0,0,40,379a.51.51,0,0,0-.09-.13l-.67.33s-.1-.08-.31-.14a1.27,1.27,0,0,0-.34.28c-.07.09-.13.14-.17.14l-.22,0-.68.08a3,3,0,0,0-1.38.37l-.63.18h-.14a.83.83,0,0,0-.37.16l-.36,0a1.93,1.93,0,0,1-.73.26l-.19,0-1.58.43a4.58,4.58,0,0,0-.83.64l-.13,0c-.1,0-.22-.12-.36-.35a1.24,1.24,0,0,1-.21-.63c0-1,.88-1.61,2.63-1.78l.64-.25h0l.17.07h.06a.74.74,0,0,0,.3-.12,4.2,4.2,0,0,1,.9-.29L36,378l.2,0a.67.67,0,0,0,.35-.12,1.65,1.65,0,0,1,.59-.18,3,3,0,0,0,.55-.12l.25-.06a.56.56,0,0,0,.25-.11,1.08,1.08,0,0,1,.51-.1A.67.67,0,0,1,38.91,377.4Z"/><path class="b61e12ab-be86-4d20-b299-f624e9f1e51a" d="M45.29,385.09l.33-.27a.39.39,0,0,0,.4-.39.85.85,0,0,1,.51-.62l.19-.26A4.09,4.09,0,0,1,48,383a1.8,1.8,0,0,0,.36-.28.09.09,0,0,1,.06,0l.24.06a1.73,1.73,0,0,0,.52-.11,2,2,0,0,1,.62-.11l.65,0a.83.83,0,0,1,.25.09,1.14,1.14,0,0,0,.48.1.83.83,0,0,1,.62.31.87.87,0,0,1,.29.57,1.39,1.39,0,0,1-.5,1,1.83,1.83,0,0,1-.78.56,1.86,1.86,0,0,1-.41.34.85.85,0,0,0-.28.21.41.41,0,0,1-.24.15.11.11,0,0,1-.1,0,.13.13,0,0,0-.09,0c-.16,0-.35.21-.54.61l-.28,0a.84.84,0,0,0-.34.37.31.31,0,0,1-.32.2c-.39.38-.64.58-.78.58l-.21-.07a.48.48,0,0,0-.13.33c0,.12-.08.19-.25.22l-.2.18-.15,0-.31.32a.92.92,0,0,0-.48.16c0,.12,0,.28-.09.47s-.07.3-.07.32c0,.3.28.45.82.45l.75-.11a1.06,1.06,0,0,0,.55-.15,1,1,0,0,1,.55-.16,1,1,0,0,0,.28-.06l.16.06a1,1,0,0,1,.4-.42,1,1,0,0,1,.46-.18l.16-.1a.39.39,0,0,1,.18-.24l.13-.11a.32.32,0,0,1,.23-.13h.22l.06,0a.75.75,0,0,1,.52-.47.6.6,0,0,0,.42-.23.37.37,0,0,1,.3-.18.61.61,0,0,0,.37-.21,1.45,1.45,0,0,1,.36-.33c.14-.11.24-.18.3-.24a.25.25,0,0,1,.15-.07c.06,0,.09,0,.09.14s0,.13.06.13.06,0,.06-.06a.49.49,0,0,0,0-.15v-.11a.31.31,0,0,1,.25-.31l.7-.45c0-.22.08-.34.18-.38a.86.86,0,0,0,.22-.12.25.25,0,0,1,.17-.07c.14,0,.2.08.2.23l-.07.4.07.42a.44.44,0,0,1-.14.26,1,1,0,0,0-.23.49c0,.22-.12.35-.2.37h-.09a1.65,1.65,0,0,1-.44.35.46.46,0,0,0-.26.19l-.53.6-.26.28c-.07.09-.13.13-.17.13l-.13-.13s0,0-.06,0-.17.06-.19.19a.74.74,0,0,1-.16.32,1.57,1.57,0,0,0-.61.41l-.09,0H51c-.14,0-.23.1-.28.3a.47.47,0,0,1-.44.35,1,1,0,0,0-.52.18.35.35,0,0,1-.14.07,2.31,2.31,0,0,0-.44.24l-1.3.47a.7.7,0,0,1-.2.08l-.44.06c-.06,0-.12,0-.18-.13s-.11-.12-.13-.12l-.28.09a1.78,1.78,0,0,1-.59.1.74.74,0,0,1-.34-.11l-.29-.16c-.3,0-.51-.23-.64-.69l-.18,0a4.86,4.86,0,0,1-.42-1.1.5.5,0,0,0-.3-.18.28.28,0,0,1-.2-.3,1.16,1.16,0,0,1,.3-.94c.21-.16.32-.28.34-.36l.21-.81a.69.69,0,0,0,.16-.31l.36-.65Zm3.28-.94-.18.1a2.53,2.53,0,0,0-.37.27,3.34,3.34,0,0,1-.59.39,1.67,1.67,0,0,0-.59.76,3.47,3.47,0,0,0-.3.72.08.08,0,0,0,.09.09l.53-.23a2.9,2.9,0,0,0,.55-.36,8.92,8.92,0,0,1,.74-.53l.12-.12a1.07,1.07,0,0,1,.29-.23,1.4,1.4,0,0,0,.38-.31l.15-.07a1.27,1.27,0,0,1,.54-.51q.27-.09.27-.18c0-.13-.1-.19-.29-.19a.78.78,0,0,0-.38.16h-.35a1.08,1.08,0,0,0-.34.18Z"/><path class="b61e12ab-be86-4d20-b299-f624e9f1e51a" d="M59.8,384.36l.44-.21a1.54,1.54,0,0,0,.41-.4l.55-.39a1.8,1.8,0,0,1,.6-.31l.25.1s.09-.07.19-.2a.52.52,0,0,1,.38-.19,1.35,1.35,0,0,1,.76.42c.32.28.49.53.49.74l-.07.53a4.7,4.7,0,0,0,.13.7v.12l-.06.37.06.39-.17.76c0,.2.06.29.2.29a1.08,1.08,0,0,1,.45-.29l.21-.22c.09-.08.15-.12.19-.12s.1-.05.16-.15a.58.58,0,0,1,.26-.21.38.38,0,0,0,.22-.21,3.82,3.82,0,0,1,1.33-1.09s.11-.05.21-.16a.73.73,0,0,1,.24-.18l.34-.26.14.06h0a1.07,1.07,0,0,0,.25-.16.68.68,0,0,1,.31-.15,1.3,1.3,0,0,1,1,.39c.25.27.38.47.38.62l-.08.35.11.48v.31l-.08.33a.56.56,0,0,0,.13.26.49.49,0,0,1,.13.23q-.18.21-.18.27l0,.28-.08.85a.82.82,0,0,0,.2.36.76.76,0,0,1,.27-.11,1.42,1.42,0,0,0,.26-.1l.09-.07h0l.18.06h.06c.09,0,.13-.08.14-.24a.5.5,0,0,1,.31-.4l.37,0a1,1,0,0,0,.13-.25,2.65,2.65,0,0,1,.65-.67,1.65,1.65,0,0,1,.85-.44c.16,0,.24.07.24.22a2.08,2.08,0,0,1-.06.32.86.86,0,0,1,.13.38q0,.28-.51.63a2.29,2.29,0,0,0-.76.85l-.07.06-.3,0s-.08.08-.15.24a.49.49,0,0,1-.27.28.41.41,0,0,0-.22.09l-.33.2a7.78,7.78,0,0,0-.61.63c-.34.38-.63.56-.87.56a1.81,1.81,0,0,1-.56-.16,1.39,1.39,0,0,1-.54-.33,2.85,2.85,0,0,0-.39-.39,1,1,0,0,1-.26-.82s0-.06.08-.11.09-.09.09-.13a1.38,1.38,0,0,1-.36-.66.75.75,0,0,1,0-.2.51.51,0,0,0,0-.2l0-.55.07-.28,0-.17.09-.79c0-.12-.08-.18-.22-.18s-.1,0-.17.12a.79.79,0,0,1-.27.2c-.11,0-.23.19-.35.44a1,1,0,0,0-.38.3c-.07.1-.12.15-.16.15l-.13,0a.34.34,0,0,0-.18.28v.06l0,.12c0,.09-.08.18-.24.26a2.22,2.22,0,0,0-.57.64.57.57,0,0,0-.22,0l-.18.37a.82.82,0,0,0-.3.33l-.18.09a2.89,2.89,0,0,1-.22.34l-.09.17c-.45.53-.76.79-.94.79s-.38-.23-.63-.69a2.56,2.56,0,0,1-.37-1.09l.06-.57a.92.92,0,0,0-.13-.25v-.06a2.39,2.39,0,0,1,.13-.36v-.46a.22.22,0,0,0,0-.1v-.08a1.13,1.13,0,0,1,.12-.24l-.09-.45.06-.25,0-.54L62,385a.46.46,0,0,0-.08-.17c-.06-.07-.1-.11-.12-.11a2.29,2.29,0,0,0-.64.35,4.39,4.39,0,0,0-.72.56,6,6,0,0,1-.5.48,1.09,1.09,0,0,0-.45.79s0,0-.06,0,0,0-.09-.06h-.06s-.22.22-.48.67l-.06.06-.3-.06c-.25,0-.37.26-.37.79,0,.09-.07.15-.2.18a.49.49,0,0,0-.3.27,3.06,3.06,0,0,1-.29.45,1.23,1.23,0,0,0-.41.23l-.34.47a4.44,4.44,0,0,0-.37.52.49.49,0,0,1-.21.18q-.18.11-.18.18l.05.26c0,.17-.16.25-.49.25-.62,0-.93-.65-.93-1.94a.92.92,0,0,1,.2-.49,5.34,5.34,0,0,0,.38-.65,6.88,6.88,0,0,0,.69-.86,7.14,7.14,0,0,1,.61-.76l.2-.32a.43.43,0,0,1,.08-.28.35.35,0,0,0,.07-.23c0-.17,0-.25-.12-.25a.67.67,0,0,0-.46.15,1.41,1.41,0,0,1-.38.21.38.38,0,0,0-.27.21,1.25,1.25,0,0,0-.46.4l-.32.38a1,1,0,0,0-.15.21.23.23,0,0,1-.17.14.39.39,0,0,0-.21.11.36.36,0,0,1-.29.09c-.09,0-.18-.09-.26-.28a1.83,1.83,0,0,1-.11-.35q0-1.14,1.5-2a1.93,1.93,0,0,0,.32-.22,1.18,1.18,0,0,1,.24-.17l.06-.11a2.86,2.86,0,0,1,.93-.53h.22l1-.26c.45-.1.67.4.67,1.5l0,.28.06.13a5.29,5.29,0,0,1,.53-.45,1.83,1.83,0,0,0,.4-.34A1.13,1.13,0,0,1,59.8,384.36Z"/><path class="b61e12ab-be86-4d20-b299-f624e9f1e51a" d="M90.46,371.37l.09-.16a.37.37,0,0,1,.34-.2l.24.06a.1.1,0,0,1,0-.09.17.17,0,0,1,.19-.19h.06l.36-.09,1.07-.12a3.3,3.3,0,0,1,1,.18H94l.42.13a1.22,1.22,0,0,0,.4.29q.12,0,.12.09a1.76,1.76,0,0,0,.39.38l.45.48.06.12a5.6,5.6,0,0,0,.31.49,1.44,1.44,0,0,1,.17.81l-.07.19c.11.05.17.1.17.14l-.1.56v.48a1.37,1.37,0,0,1-.08.51,1.21,1.21,0,0,0-.09.48,1.14,1.14,0,0,1-.21.34v0l.06.42s0,.11-.14.2a.4.4,0,0,0-.14.22.66.66,0,0,1-.17.49,1.63,1.63,0,0,1-.37.82,2.32,2.32,0,0,0-.44.83,3.41,3.41,0,0,1-.43.87c-.08.25-.14.44-.17.55a1,1,0,0,1-.33.43.86.86,0,0,0-.29.67.74.74,0,0,1-.43.47l-.36.33v.18a1,1,0,0,1-.37.7l-.53,1.08c-.1.21-.23.31-.4.31l-.06.06a1.16,1.16,0,0,1-.16.59c-.07.1-.15.2-.23.33l-.23.33a2,2,0,0,0-.23.47,1.69,1.69,0,0,1-.36.55l-.15.34v.12c0,.28-.1.42-.28.42l-.17,0h0a2.08,2.08,0,0,1,.09.48,7.26,7.26,0,0,1-.43,1l-.07.23V390a1.71,1.71,0,0,0-.31.44.46.46,0,0,1-.24.27c-.12.05-.17.09-.17.11l.06.09v.06l-.11.48.08.58a1.2,1.2,0,0,1-.14.32,1,1,0,0,1,.51.79.71.71,0,0,1-.54.8h-.1l-.31,0a1.36,1.36,0,0,1-.75-.15,3.94,3.94,0,0,1-.55-.48l-.2-.12a.45.45,0,0,1-.15-.24l-.16-.15a2.12,2.12,0,0,1-.32-1.3.29.29,0,0,1,.14-.22l0-.09,0-.3a8.53,8.53,0,0,1,.34-1l.45-.93a4.28,4.28,0,0,1,.51-.88,4.44,4.44,0,0,1,.15-.57l.1-.07a1,1,0,0,1,.24-.47,1.52,1.52,0,0,0,.3-.61c.14,0,.22,0,.22-.09a.53.53,0,0,0,0-.13v-.06a.66.66,0,0,1,.22-.49,1.25,1.25,0,0,0,.33-.49,1.22,1.22,0,0,1,.26-.43,1.2,1.2,0,0,0,.27-.5.75.75,0,0,1,.31-.16c.14,0,.2-.08.2-.14a1,1,0,0,0-.14-.3,5.47,5.47,0,0,1,.9-1.49,1.09,1.09,0,0,0,.13-.3.46.46,0,0,1,.24-.3,3.53,3.53,0,0,1,.41-.87,6.69,6.69,0,0,0,.43-.75c.13-.28.28-.41.47-.41l.06-.1,0-.32a2.55,2.55,0,0,1,.13-.3c.09-.18.17-.29.24-.31a.67.67,0,0,0,.27-.24l-.13-.25a.34.34,0,0,0,.11-.16c0-.07.07-.11.11-.11.26-.14.39-.29.39-.46a.68.68,0,0,0,0-.2v-.06c0-.07.1-.2.29-.41a1.13,1.13,0,0,0,.29-.77.84.84,0,0,1,.18-.41.49.49,0,0,0,.16-.3.42.42,0,0,1,.09-.24l-.06-.38a1.54,1.54,0,0,0,.3-.83.54.54,0,0,0-.08-.15.62.62,0,0,1-.08-.33c0-.06-.06-.14-.17-.24l-.06-.16a1.8,1.8,0,0,1-.62-.31,1.36,1.36,0,0,0-.78-.14l-.28.06-.23-.06a.29.29,0,0,1-.16.06h0l-.15,0a2,2,0,0,0-.74.21,2.15,2.15,0,0,1-.63.21.68.68,0,0,0-.64.27c-.11.18-.2.27-.26.27l-.16-.06h0c-.08,0-.15.15-.22.44l0,.06a4.78,4.78,0,0,0-1,.69l-1,1.06a2.48,2.48,0,0,0-.56.7.66.66,0,0,1-.31.35,1.56,1.56,0,0,0-.25.64.72.72,0,0,1-.17.55c-.12.1-.17.18-.17.24a.27.27,0,0,0,0,.12s.06.16.12.34v.08a.55.55,0,0,1-.11.33.5.5,0,0,0-.12.17,1.2,1.2,0,0,0,.27.32c.18.19.27.32.27.4a1.05,1.05,0,0,1-.36.77,1.11,1.11,0,0,1-.77.35.9.9,0,0,1-.57-.17c-.14-.11-.2-.46-.2-1l0-.4.14-.45,0-.48a2.21,2.21,0,0,1,.29-.53,3.77,3.77,0,0,0,.37-.7,3.09,3.09,0,0,1,.85-1.41.25.25,0,0,0,.13-.21.61.61,0,0,1,.18-.42s.08-.13.22-.25a.73.73,0,0,0,.27-.39.4.4,0,0,1,.28-.28.51.51,0,0,0,.32-.41,2.87,2.87,0,0,1,.85-.7,1.05,1.05,0,0,1,.55-.54l.42-.28.09-.16a.83.83,0,0,1,.25-.16.87.87,0,0,0,.29-.23,1.82,1.82,0,0,1,.57-.21Z"/><path class="b61e12ab-be86-4d20-b299-f624e9f1e51a" d="M106.92,388.35H107l.16.07a.09.09,0,0,0,.06,0,.53.53,0,0,1,.25-.45.69.69,0,0,1,.35-.45l.86-.51.39-.34.19-.1.12-.15c.12-.14.22-.21.33-.21s.23.06.23.18l-.14.3.06.52a.7.7,0,0,1-.19.49c-.13.15-.33.36-.6.64l-.79.84-.42.21a2.09,2.09,0,0,0-.28.22l-.6.51a.41.41,0,0,1-.14.33h-.25l-.12.06a1.26,1.26,0,0,1-.64.57l-.22.16a.32.32,0,0,1-.2.09l-.44-.06-.29.06a.7.7,0,0,1-.33-.12,2.07,2.07,0,0,0-.43-.2c-.15,0-.33-.24-.55-.57a3,3,0,0,1-.37-.66.55.55,0,0,0-.07-.21,1.32,1.32,0,0,1-.07-.18,2.63,2.63,0,0,1,.14-.31v0a.84.84,0,0,0-.08-.21.93.93,0,0,1-.09-.42,1,1,0,0,0-.09-.36c.08-.08.12-.14.12-.19a.45.45,0,0,0,0-.17.62.62,0,0,1,0-.18l.09-.76-.06-.39,0-.37c0-.22-.09-.33-.28-.33a.52.52,0,0,0-.3.17l-.11,0a3.59,3.59,0,0,0-.59.34.54.54,0,0,1-.35.13,1,1,0,0,1-.36.17l-.12.09a1.9,1.9,0,0,1-.25.19,3.58,3.58,0,0,1-.58.52c-.39.31-.73.61-1,.89a1.89,1.89,0,0,1-.67.46q-.21,0-.21.39s-.1.13-.28.25a1.91,1.91,0,0,0-.33.34,1.3,1.3,0,0,0-.27-.18c-.14,0-.24.16-.3.51-.06.13-.23.21-.5.24a1.12,1.12,0,0,0-.11.24l-.06.06H96a1,1,0,0,0-.22.18.82.82,0,0,1-.33.22c-.13.28-.25.42-.34.42a.46.46,0,0,1-.18-.06,1.26,1.26,0,0,0-.28-.11c-.12,0-.24-.16-.38-.38a1.11,1.11,0,0,1-.21-.57c0-1.14.22-1.77.66-1.87l0-.06v-.13a.28.28,0,0,1,.17-.28,1.13,1.13,0,0,0,.37-.34.86.86,0,0,1,.25-.29h.2s.06-.11.06-.33a.22.22,0,0,1,.08-.17.34.34,0,0,0,.09-.22,1.5,1.5,0,0,1,.22-.48,1.63,1.63,0,0,0,.21-.4l0-.06a1.46,1.46,0,0,1-.56.39c-.11,0-.26.17-.46.45l-.25-.05a5.11,5.11,0,0,1-.81.54.91.91,0,0,0-.34.36c0,.06,0,.1-.11.12a2.09,2.09,0,0,0-.4.25h-.09c-.26,0-.39-.19-.39-.56l.32-.88a1.4,1.4,0,0,1,.66-.71,7.18,7.18,0,0,0,.88-.55,1.38,1.38,0,0,1,.71-.28l.11-.15a1.21,1.21,0,0,0,.71-.63c.12-.29.29-.44.51-.44a1.5,1.5,0,0,1,1.3.63,1.94,1.94,0,0,1,.45,1l0,.42a2.89,2.89,0,0,1-.09.6.88.88,0,0,0-.19.42c0,.08.05.12.16.12a.41.41,0,0,0,.24-.13c.11-.08.23-.17.35-.24s.21-.13.23-.18a.9.9,0,0,1,.54-.52,1.49,1.49,0,0,0,.48-.23l.16-.12.12-.23a2,2,0,0,0,.56-.34.6.6,0,0,1,.37-.21,1.22,1.22,0,0,0,.52-.28l.24-.06.21-.12a.6.6,0,0,1,.19-.08l.46-.16a1.34,1.34,0,0,1,.41-.12,1.43,1.43,0,0,1,1.24.64,1.9,1.9,0,0,1,.46,1l0,.28.06.42V386l-.12.85,0,.3a1.33,1.33,0,0,1-.31,1,.17.17,0,0,0-.08.16v.14l.31.65c.09.23.17.34.22.34l.49-.14a.58.58,0,0,0,.36-.33,1.7,1.7,0,0,0,.44-.37C106.69,388.44,106.79,388.35,106.92,388.35Z"/><path class="b61e12ab-be86-4d20-b299-f624e9f1e51a" d="M107.63,395.55l.16-.34.09-.39s.05-.11.15-.19.14-.15.14-.21a6.17,6.17,0,0,1,.76-2l.37-.93a.87.87,0,0,1,.29-.5c.15-.12.23-.23.23-.32s-.11-.16-.32-.28-.32-.22-.32-.33.34-.3,1-.6a1.39,1.39,0,0,1,.47-.92.28.28,0,0,0,.11-.22,1.11,1.11,0,0,1,.15-.6l.12-.35a1.41,1.41,0,0,1,.26-.42.68.68,0,0,0,.2-.44v-.12c-.14,0-.33.16-.58.52-.26,0-.47.2-.63.58a.72.72,0,0,1-.58.42,1.09,1.09,0,0,1-.66.51c-.22-.14-.33-.25-.33-.34l.14-1c0-.22.52-.76,1.58-1.63.06,0,.26-.2.6-.59l.86-1q.69-.71,1-1a3.71,3.71,0,0,0,.67-1.4,2.41,2.41,0,0,0,.53-1.15,6.84,6.84,0,0,1,.42-1.27,2.49,2.49,0,0,0,.23-.59,14.94,14.94,0,0,1,.91-2.35l.16-.51.23-.19a2.54,2.54,0,0,0,.06-.48c.11,0,.23-.27.36-.68a2.68,2.68,0,0,1,.37-.85,1.2,1.2,0,0,0,.25-.49,1,1,0,0,1,.38-.51,1,1,0,0,1,.64-.26c.07,0,.2.11.37.32a1.45,1.45,0,0,1,.31.73c0,.27.06.46.08.55a2.1,2.1,0,0,1,0,.4l0,.45a7.5,7.5,0,0,1-.12.79c-.08.44-.14.76-.18,1a.47.47,0,0,1-.32.38c-.17.06-.26.13-.26.19s0,.11.12.14.13.07.13.09a1.73,1.73,0,0,1-.18.41,1.07,1.07,0,0,1-.33.44,1.15,1.15,0,0,1,.09.22,2,2,0,0,1-.23.49,2.86,2.86,0,0,1-.36.55,1.55,1.55,0,0,0-.28.63,1.46,1.46,0,0,1-.71.84,1.79,1.79,0,0,0-.38.71.91.91,0,0,1-.48.62l-.2.3v.06a1.06,1.06,0,0,1-.15.51,6.93,6.93,0,0,0-.31.66,1.27,1.27,0,0,1-.3.5,2.16,2.16,0,0,1-.21.65,1.66,1.66,0,0,0-.19.5l-.11.13c-.2,0-.31.12-.31.29l.06.34-.27.51-.07.31a.75.75,0,0,1-.29.52.74.74,0,0,0-.28.58l-.06.37a.22.22,0,0,0,0,.1s.08-.06.19-.17l.24.07c.07,0,.12,0,.18-.13a.55.55,0,0,1,.27-.19l.06,0c.06-.15.13-.22.24-.23a.37.37,0,0,0,.26-.15c.07-.09.13-.13.17-.13a1,1,0,0,1,.22.12h0l.14-.06,0-.25a.19.19,0,0,1,.14-.2.32.32,0,0,0,.2-.16l.57-.37a1.63,1.63,0,0,0,.55-.33,1.07,1.07,0,0,1,.39-.26.82.82,0,0,0,.32-.19.86.86,0,0,1,.52-.15,4.18,4.18,0,0,1,.7-.52l.12-.17a.22.22,0,0,1,.13-.07.73.73,0,0,0,.24-.18.41.41,0,0,1,.27-.16.28.28,0,0,1,.31.31.94.94,0,0,1-.47.82l0,.05c0,.41-.18.62-.38.62,0,0-.12.09-.22.26l-.2,0a1.67,1.67,0,0,1-.31.34h-.1a9.1,9.1,0,0,0-2,1.44.69.69,0,0,1-.16.13l-.29,0a1.62,1.62,0,0,1-.19.31,2,2,0,0,0-.51.29,2.28,2.28,0,0,1-.41.28.59.59,0,0,0-.24.21.55.55,0,0,1-.3.21l-.2.19h-.09a.52.52,0,0,0-.3.15.43.43,0,0,0-.18.3.63.63,0,0,0,.14.24c.08-.06.37.25.87.94a3.46,3.46,0,0,1,.74,2,1.33,1.33,0,0,1-.21.9c-.14.14-.21.24-.21.31s0,.16,0,.35v.07q0,.15-.18.18t-.21.12v.39l-.06.19c-.13.07-.27.31-.42.73a2.2,2.2,0,0,1-.66.54l0,.06,0,.42a.3.3,0,0,1-.14.25,1.75,1.75,0,0,0-.38.39,1.57,1.57,0,0,1-.49.43.62.62,0,0,1-.24.42,2,2,0,0,0-.37.35l-.09.07c-.09,0-.18.13-.26.34l-.13,0a1.77,1.77,0,0,1-.42.53,1.49,1.49,0,0,0-.31.3l-.24.16a2.29,2.29,0,0,1-.58.64s-.06,0-.12-.1h0s-.08.05-.11.13a.6.6,0,0,1-.17.23,1.76,1.76,0,0,0-.25.31l-.06.06q-.19,0-.63.54a1.63,1.63,0,0,0-.52.22c-.21.25-.36.37-.44.37a2.52,2.52,0,0,1-.34-.25,1,1,0,0,1-.33-.82.48.48,0,0,0-.19-.32c0-.12,0-.28-.06-.5v-.14a.91.91,0,0,1,.13-.43l.09-.33a.53.53,0,0,1,.09-.2,2,2,0,0,0,.18-.44q.12-.36.27-.72l0-.16c.12-.49.21-.73.28-.72a5.27,5.27,0,0,0,.19-.62c.06-.26.1-.48.13-.64a.59.59,0,0,1,.22-.4Zm3.21-3,.07.67a3.78,3.78,0,0,1-.26.59,5.93,5.93,0,0,0-.34.86c0,.22-.16.33-.34.33h-.15a.27.27,0,0,0,0,.12l0,.34a4.33,4.33,0,0,1-.11.72,1.06,1.06,0,0,1-.31.65l-.09.11a3.28,3.28,0,0,1-.24.73c-.14.34-.26.6-.35.8a2.71,2.71,0,0,0-.22.71,1.19,1.19,0,0,1-.2.55q-.09.44-.18.72c-.07.19-.14.44-.24.77a.1.1,0,0,0,.1.06c.06,0,.14-.12.23-.34a.34.34,0,0,1,.21-.09c.09,0,.18-.12.25-.33l0-.06a.34.34,0,0,0,.25-.18.33.33,0,0,1,.17-.18.55.55,0,0,0,.22-.16l.11,0s.07-.07.11-.17a.69.69,0,0,1,.1-.21h.22l.06,0a1.3,1.3,0,0,1,.31-.64,1.17,1.17,0,0,0,.27-.35.82.82,0,0,1,.22-.31.65.65,0,0,0,.19-.4,2.21,2.21,0,0,0,.36-.51.79.79,0,0,1,.22-.31l0-.11-.06-.18v-.07a1.85,1.85,0,0,1,.36-.62,2.72,2.72,0,0,0,.46-.83c.06-.22.12-.4.17-.53a2.8,2.8,0,0,0,.12-.46,1,1,0,0,1,.18-.42.72.72,0,0,0,.12-.44,2.56,2.56,0,0,0-.44-1.21.69.69,0,0,1-.06-.18.71.71,0,0,0-.3-.37.8.8,0,0,0-.4-.21l-.12.06a.43.43,0,0,1-.19.1.28.28,0,0,0-.17.29v.06l0,.35C111.25,392.31,111.11,392.43,110.84,392.57Z"/><path class="b61e12ab-be86-4d20-b299-f624e9f1e51a" d="M124.77,389.78l-.73.64a.15.15,0,0,0-.12-.07c-.11,0-.23.1-.38.28s-.26.28-.32.28l-.15,0a2,2,0,0,1-.56.34,2.11,2.11,0,0,0-.41.17,1.06,1.06,0,0,1-.44.14.58.58,0,0,0-.32.13,1,1,0,0,1-.6.12l-.25,0a.86.86,0,0,1-.26.09.4.4,0,0,1-.27-.13.48.48,0,0,0-.3-.15.52.52,0,0,1-.33-.21,1.1,1.1,0,0,0-.32-.28.64.64,0,0,1-.24-.22l-.22-.19A1.79,1.79,0,0,1,118,390a1.85,1.85,0,0,1-.25-.77v-.06l0-.3,0-.34a1,1,0,0,0,.16-.26v-.5l.37-1.24c0-.05,0-.12-.13-.2a.62.62,0,0,1-.31.28.32.32,0,0,0-.21.21q0,.18-.18.18l-.18-.07a2,2,0,0,0-.15.32.38.38,0,0,1-.37.29c-.19,0-.28-.07-.28-.22l0-.28-.09-.38a1.13,1.13,0,0,1,.25-.49.86.86,0,0,1,.46-.42.66.66,0,0,0,.35-.3,2.28,2.28,0,0,1,.65-.58.78.78,0,0,0,.48-.4,1.72,1.72,0,0,1,.56-.28,1.06,1.06,0,0,0,.53-.32,4.34,4.34,0,0,1,1.06-.65,3.39,3.39,0,0,1,1.28-.44,1.13,1.13,0,0,0,.34-.07l.4-.12a2.2,2.2,0,0,0,.39-.17.7.7,0,0,1,.33-.12l.45.16a2.74,2.74,0,0,1,.6.2,1.93,1.93,0,0,0,.32.13,3.4,3.4,0,0,1,.59.27.66.66,0,0,1,.31.63,3.07,3.07,0,0,0-.27.42s.12.11.36.19a6.74,6.74,0,0,0,.37.6l.17.55,0,1.27,0,.12c-.11.1-.17.17-.17.2l0,.31-.13.44a.38.38,0,0,1-.15.26.25.25,0,0,0-.14.15l-.09.13a2.55,2.55,0,0,0-.14.27,1.05,1.05,0,0,1-.22.35.64.64,0,0,0-.16.29.34.34,0,0,1-.15.25.73.73,0,0,0-.18.16A.45.45,0,0,1,124.77,389.78Zm-4.81.4.06.36,0,0h.25l.07,0a2.7,2.7,0,0,0,.47.06,1.09,1.09,0,0,0,.76-.24.84.84,0,0,1,.46-.24c.11,0,.21-.07.29-.23s.12-.23.14-.23h.22l.06,0a.53.53,0,0,1,.32-.51.93.93,0,0,0,.44-.41,1,1,0,0,1,.31-.39.66.66,0,0,0,.23-.35l.12-.19a.33.33,0,0,0,.07-.23l.29-.56a2.89,2.89,0,0,0,.09-.6.56.56,0,0,0-.33-.51.77.77,0,0,1-.33-.73.86.86,0,0,1,.36-.66q.36-.3.36-.36c0-.07,0-.1-.09-.1a1.58,1.58,0,0,0-.35.13,2.58,2.58,0,0,1-1.1.57l-.36-.16c-.06,0-.12.07-.18.19a1.11,1.11,0,0,1-.19.27h-.2s-.09.06-.2.2a.57.57,0,0,1-.43.2l-.19.18a.63.63,0,0,1-.31.51l-.17.21c-.1.12-.24.26-.4.43l-.28.7a1.85,1.85,0,0,0-.17.6.58.58,0,0,1-.21.2.28.28,0,0,0-.16.25.35.35,0,0,0,.11.16.33.33,0,0,1,.1.18l-.06.2-.06.58Z"/><path class="b61e12ab-be86-4d20-b299-f624e9f1e51a" d="M131.09,383.88l.24-.07.09-.2a4.07,4.07,0,0,0,1.09-.85.31.31,0,0,1,.13-.12,1,1,0,0,0,.24-.22,1.86,1.86,0,0,1,1.36-.58q.93,0,1,1.14l.1.23a6.53,6.53,0,0,1,.34.88,4.32,4.32,0,0,1,.23.82,1.61,1.61,0,0,1-.26.84,5.48,5.48,0,0,0-1,1.16l-.16.11a2.87,2.87,0,0,1-.32.56c-.21.07-.31.15-.31.23v.28a.57.57,0,0,1-.07.13,2.61,2.61,0,0,0-.2.35l-.12.19a.72.72,0,0,0-.12.25,1.28,1.28,0,0,1-.18.35.49.49,0,0,0-.12.25c0,.16.2.23.6.23a1.09,1.09,0,0,0,.24-.09l.22.06s.07,0,.15-.1a.9.9,0,0,1,.38-.16,1.3,1.3,0,0,0,.45-.19,2.19,2.19,0,0,1,.46-.21,1.75,1.75,0,0,0,.52-.31,1.75,1.75,0,0,1,.49-.3,1.38,1.38,0,0,0,.45-.29,4.47,4.47,0,0,1,.47-.36,5.66,5.66,0,0,0,.84-.74,1.77,1.77,0,0,1,.51-.33,2,2,0,0,0,.27-.41.69.69,0,0,1,.55-.41c.22,0,.33.1.33.31a.47.47,0,0,1-.16.33v.09l0,.25a.24.24,0,0,1,0,.14s0,.1-.12.18a.65.65,0,0,0-.16.32c0,.13-.13.21-.3.26-.06.22-.14.35-.24.38a1.47,1.47,0,0,0-.41.31,7,7,0,0,1-.74.62,5.44,5.44,0,0,0-.66.55c-.12.13-.2.2-.24.2a.26.26,0,0,1-.12-.07l-.13-.06c-.06,0-.1.07-.12.22l-.07.15a.81.81,0,0,1-.23.13l-.09,0h-.06c-.13,0-.19,0-.19.14l.09.15v0c0,.15-.08.22-.24.22a3.18,3.18,0,0,0-1,.57l-.46.1-.37.2a.8.8,0,0,0-.23-.11l-.25.08-.45,0s-.2-.1-.56-.31a1.33,1.33,0,0,1-.66-.62,3.47,3.47,0,0,0-.28-.63,1.26,1.26,0,0,1-.17-.44,3.28,3.28,0,0,1,.12-1.06,2.39,2.39,0,0,0,.16-.48.78.78,0,0,1,.18-.33,1.52,1.52,0,0,0,.24-.58,6.57,6.57,0,0,1,.62-1.1,1.39,1.39,0,0,0,.26-.5l.2-.28a1.07,1.07,0,0,0,.1-.24c0-.13.09-.22.15-.24a1,1,0,0,0,.13-.27c0-.31-.14-.46-.41-.46,0,0-.11.06-.17.17a.87.87,0,0,1-.42.31,2.24,2.24,0,0,0-.42.24,1.09,1.09,0,0,1-.33.19,1.11,1.11,0,0,0-.44.37l-.26.12c-.09.2-.16.31-.22.33l-.58.15a.8.8,0,0,0-.15.19.42.42,0,0,1-.36.17,3.29,3.29,0,0,0-.37.43,1.19,1.19,0,0,0-.32.12l-.32.08a1.39,1.39,0,0,0-.27.3.64.64,0,0,1-.55.2c-.15,0-.23-.12-.23-.37a1.51,1.51,0,0,1,.53-1.21,1.93,1.93,0,0,1,.79-.48.34.34,0,0,0,.31-.19.53.53,0,0,1,.3-.26,1.63,1.63,0,0,0,.56-.44,1.64,1.64,0,0,1,.69-.48Z"/><path class="b61e12ab-be86-4d20-b299-f624e9f1e51a" d="M145.9,384.36l.43-.21a1.43,1.43,0,0,0,.42-.4l.55-.39a1.8,1.8,0,0,1,.6-.31l.25.1s.08-.07.19-.2a.52.52,0,0,1,.38-.19,1.35,1.35,0,0,1,.76.42c.32.28.49.53.49.74l-.07.53a4.7,4.7,0,0,0,.13.7v.12l-.06.37.06.39-.17.76c0,.2.06.29.2.29a1.08,1.08,0,0,1,.45-.29l.21-.22c.09-.08.15-.12.19-.12s.1-.05.16-.15a.58.58,0,0,1,.26-.21.34.34,0,0,0,.21-.21,3.92,3.92,0,0,1,1.34-1.09s.11-.05.21-.16a.73.73,0,0,1,.24-.18l.34-.26.14.06h0a1.07,1.07,0,0,0,.25-.16.68.68,0,0,1,.31-.15,1.31,1.31,0,0,1,1,.39c.25.27.38.47.38.62l-.08.35.11.48v.31l-.08.33a.56.56,0,0,0,.13.26.49.49,0,0,1,.13.23q-.18.21-.18.27l0,.28-.08.85a.82.82,0,0,0,.2.36.76.76,0,0,1,.27-.11,1.42,1.42,0,0,0,.26-.1l.09-.07h0l.18.06h.06c.09,0,.13-.08.14-.24a.5.5,0,0,1,.31-.4l.37,0a1,1,0,0,0,.13-.25,2.65,2.65,0,0,1,.65-.67,1.65,1.65,0,0,1,.85-.44c.16,0,.24.07.24.22a2.08,2.08,0,0,1-.06.32.86.86,0,0,1,.13.38q0,.28-.51.63a2.29,2.29,0,0,0-.76.85l-.07.06-.3,0s-.08.08-.15.24a.49.49,0,0,1-.27.28.41.41,0,0,0-.22.09l-.33.2a7.78,7.78,0,0,0-.61.63c-.34.38-.63.56-.87.56a1.81,1.81,0,0,1-.56-.16,1.39,1.39,0,0,1-.54-.33A2.85,2.85,0,0,0,154,390a1,1,0,0,1-.26-.82s0-.06.08-.11.09-.09.09-.13a1.38,1.38,0,0,1-.36-.66.75.75,0,0,1,0-.2.51.51,0,0,0,0-.2l0-.55.07-.28,0-.17.09-.79c0-.12-.08-.18-.22-.18s-.1,0-.17.12a.79.79,0,0,1-.27.2c-.11,0-.23.19-.35.44a1,1,0,0,0-.38.3c-.07.1-.12.15-.16.15l-.13,0a.35.35,0,0,0-.19.28v.06l0,.12c0,.09-.08.18-.24.26a2.22,2.22,0,0,0-.57.64.57.57,0,0,0-.22,0l-.18.37a.82.82,0,0,0-.3.33l-.19.09a2,2,0,0,1-.21.34l-.09.17c-.45.53-.76.79-.94.79s-.38-.23-.63-.69a2.56,2.56,0,0,1-.37-1.09l.06-.57a.92.92,0,0,0-.13-.25v-.06a2.39,2.39,0,0,1,.13-.36v-.46a.22.22,0,0,0,0-.1v-.08a1.13,1.13,0,0,1,.12-.24l-.09-.45L148,386l0-.54.06-.48a.46.46,0,0,0-.08-.17c-.06-.07-.1-.11-.12-.11a2.29,2.29,0,0,0-.64.35,4.39,4.39,0,0,0-.72.56,6,6,0,0,1-.5.48,1.09,1.09,0,0,0-.45.79s0,0-.06,0,0,0-.09-.06h-.06c-.05,0-.22.22-.48.67l-.06.06-.3-.06c-.25,0-.37.26-.37.79,0,.09-.07.15-.2.18a.49.49,0,0,0-.3.27,3.06,3.06,0,0,1-.29.45,1.23,1.23,0,0,0-.41.23l-.34.47a4.44,4.44,0,0,0-.37.52.49.49,0,0,1-.21.18q-.18.11-.18.18l.05.26c0,.17-.16.25-.49.25-.62,0-.93-.65-.93-1.94a.92.92,0,0,1,.2-.49,5.34,5.34,0,0,0,.38-.65,6.88,6.88,0,0,0,.69-.86,7.14,7.14,0,0,1,.61-.76l.2-.32a.43.43,0,0,1,.08-.28.35.35,0,0,0,.07-.23c0-.17,0-.25-.12-.25a.67.67,0,0,0-.46.15,1.41,1.41,0,0,1-.38.21.36.36,0,0,0-.27.21,1.25,1.25,0,0,0-.46.4l-.32.38a1,1,0,0,0-.15.21.23.23,0,0,1-.18.14.4.4,0,0,0-.2.11.36.36,0,0,1-.29.09c-.09,0-.18-.09-.26-.28a1.83,1.83,0,0,1-.11-.35q0-1.14,1.5-2a1.93,1.93,0,0,0,.32-.22,1.18,1.18,0,0,1,.24-.17l.06-.11a2.86,2.86,0,0,1,.93-.53h.22l1-.26c.45-.1.67.4.67,1.5l0,.28.06.13A5.29,5.29,0,0,1,145,385a1.83,1.83,0,0,0,.4-.34A1.13,1.13,0,0,1,145.9,384.36Z"/><path class="b61e12ab-be86-4d20-b299-f624e9f1e51a" d="M171.32,387.4l.25-.22a.26.26,0,0,0,.28-.21.49.49,0,0,1,.33-.33,1.27,1.27,0,0,0,.53-.51c.17-.25.34-.38.51-.38s.14.05.22.16a.44.44,0,0,1,.12.24,2.08,2.08,0,0,1-.31,1.06l-.06.43-.11.2a.73.73,0,0,0-.3.27,1.32,1.32,0,0,1-.36.34l-.16.22a.71.71,0,0,0-.46.35.41.41,0,0,1-.32.28.89.89,0,0,0-.46.31,2.21,2.21,0,0,1-.37.14l0,.16a1.12,1.12,0,0,1-.49.24,3.31,3.31,0,0,0-.5.18.55.55,0,0,1-.22.09,1.19,1.19,0,0,1-.54-.12,1.65,1.65,0,0,0-.51-.15.31.31,0,0,1-.11-.2.59.59,0,0,0-.16-.28.81.81,0,0,1-.14-.49l.07-.3a.28.28,0,0,0-.08-.15.3.3,0,0,1-.08-.16.12.12,0,0,1,0-.09.12.12,0,0,0,0-.09.51.51,0,0,0,0-.17.61.61,0,0,1,0-.16l.09-.76q0-.09-.06-.09s-.11.05-.22.15a.52.52,0,0,1-.38.16.77.77,0,0,0-.21.39,1.31,1.31,0,0,1-.3.27l-.07.1c0,.07-.1.13-.23.18a.54.54,0,0,0-.28.17l-.15.16-.3,0s-.07.11-.17.27a1.35,1.35,0,0,1-.35.4l-1.18,1-.54.31-.1.09a4,4,0,0,1-1.75.82,2.74,2.74,0,0,1-1-.23c-.37-.16-.57-.34-.6-.56l-.16-.64a1.11,1.11,0,0,1-.14-.6.6.6,0,0,1,0-.25v-.09l0-.51c0-.13.1-.19.3-.19l0-.42a2.17,2.17,0,0,1,.27-.48,2.14,2.14,0,0,1,.36-.49l.16-.21a.5.5,0,0,1,.22-.39,2.07,2.07,0,0,0,.37-.43,2,2,0,0,1,.53-.48l.46-.46a4.86,4.86,0,0,1,1.18-.87A1.47,1.47,0,0,0,164,384a1.79,1.79,0,0,1,.65-.41,5.17,5.17,0,0,0,.72-.33,1.16,1.16,0,0,1,.55-.21H166a5.2,5.2,0,0,0,.82-.38h.1a.93.93,0,0,1,.29.12h0l.25-.12a.35.35,0,0,1,.16,0c.64,0,1,.44,1.05,1.33,0,.18.07.28.16.28s.25-.19.44-.57a1.24,1.24,0,0,1,1.22-.56c.44,0,.66.28.66.85a2.69,2.69,0,0,1-.9,1.91,1.07,1.07,0,0,0-.09.27l-.21.64v0a.51.51,0,0,1-.14.26.44.44,0,0,0-.13.28l0,.39-.06.43a.52.52,0,0,0,.11.39,1.26,1.26,0,0,0,.72-.41c.15-.19.25-.3.31-.32l.16-.06A1.5,1.5,0,0,1,171.32,387.4Zm-5.14,0a.68.68,0,0,1,.38-.52.79.79,0,0,0,.38-.37,8.72,8.72,0,0,0,.84-.77c.37-.38.55-.6.55-.69s0,0-.06,0h0l-.13.08-.27,0-.3,0-.22-.11-.2,0-.31-.06a.85.85,0,0,0-.43.1,3.12,3.12,0,0,1-.68.22,2.54,2.54,0,0,0-.91.43,1.2,1.2,0,0,1-.58.3,2.32,2.32,0,0,1-.73.66.73.73,0,0,0-.48.55c-.27.21-.4.34-.4.37l-.11.26a.87.87,0,0,1-.31.18.36.36,0,0,0-.22.33.84.84,0,0,1-.21.46.59.59,0,0,0-.18.34c0,.5.1.76.29.76a1.8,1.8,0,0,0,.52-.17,2.12,2.12,0,0,0,.46-.22.91.91,0,0,1,.25-.13l.3-.15a.26.26,0,0,1,.13-.08.26.26,0,0,0,.16-.1.88.88,0,0,1,.28-.19.68.68,0,0,0,.31-.27l.85-.48.33-.24a1.35,1.35,0,0,0,.42-.27A.74.74,0,0,1,166.18,387.4Z"/><path class="b61e12ab-be86-4d20-b299-f624e9f1e51a" d="M175.61,384l.22-.39a1.49,1.49,0,0,1,.24-.28,2.18,2.18,0,0,0,.32-.76,2.19,2.19,0,0,1,.38-.85.79.79,0,0,1,.61-.23,1.26,1.26,0,0,1,.61.22,2.52,2.52,0,0,1,.75,1.36,6.23,6.23,0,0,1,.36,1.6,1.47,1.47,0,0,0,.11.47,2.32,2.32,0,0,1,.14.44,2,2,0,0,0-.12.3l0,.63-.19.51v.38a1.19,1.19,0,0,0-.18.38.35.35,0,0,0,.06.19,2.66,2.66,0,0,0,.88-.51.85.85,0,0,1,.3-.24,1.55,1.55,0,0,0,.49-.4l.29-.16c.11-.12.19-.23.27-.33a.7.7,0,0,1,.25-.21,1.53,1.53,0,0,0,.35-.21,3.1,3.1,0,0,1,.59-.36l.15-.19a1.84,1.84,0,0,1,.55-.41,1.93,1.93,0,0,1,.35-.16c.07,0,.15.1.22.29a1.45,1.45,0,0,1,.12.56.7.7,0,0,1-.3.52,4.46,4.46,0,0,0-.41.38.93.93,0,0,1-.5.22s-.19.22-.51.64l-.31.18-.15.2s-.16.08-.42.13c0,0,0,0-.07.15s-.15.18-.33.22a4.15,4.15,0,0,0-.57.57l-.33.06a.86.86,0,0,1-.16.36c-.24.06-.38.17-.41.31l-.16.06-.06.05a1.68,1.68,0,0,1-.7.34l-.35.09-.13.19c0,.05-.12.12-.38.2a1.4,1.4,0,0,0-.56.31l-.26.2a1.57,1.57,0,0,0-.61.34h-.21a1.51,1.51,0,0,0-.69.32,1.47,1.47,0,0,1-.74.32,2.34,2.34,0,0,1-1.23-.23,2.06,2.06,0,0,1-.55-.55,4,4,0,0,0-.4-.54.58.58,0,0,1-.17-.33.29.29,0,0,1,.14-.21,1.21,1.21,0,0,0,.32-.44c.12-.23.4-.37.87-.43l.22-.09a.72.72,0,0,1,.32-.1c.1,0,.23.1.39.28t.06,0l.25,0a.49.49,0,0,0,.23.13,1.23,1.23,0,0,0,.79-.38l.06,0h.13s.08-.08.15-.26l.26-.54.54-.7v-.16a2.15,2.15,0,0,1,.1-.27v-.24c0-.09.06-.15.18-.17s.19-.09.19-.2l0-.12a.54.54,0,0,1-.12-.27l.15-.31,0-.32.06-.13a1.8,1.8,0,0,1-.06-.24l.06-.39-.08-.29c-.06-.19-.1-.28-.14-.28s-.26.16-.59.48a3.24,3.24,0,0,0-.59.68.86.86,0,0,1-.39.36.94.94,0,0,0-.41.37.42.42,0,0,1-.27.23l-1,.84-1.13.83c-.08.1-.13.14-.15.14-.39,0-.58-.21-.58-.63a2.32,2.32,0,0,1,.23-.73l.17-.1s.05,0,.05,0,0,0,0,0l.09.06h0a5.19,5.19,0,0,1,.75-.44.75.75,0,0,0,.31-.34l.65-.47a7.73,7.73,0,0,0,.76-.68A4.51,4.51,0,0,0,175.61,384Z"/><path class="b61e12ab-be86-4d20-b299-f624e9f1e51a" d="M181.58,386l.25-.22h.09c.07,0,.18-.07.32-.23l.16-.06a1.34,1.34,0,0,1,.54-.54l.25-.19a.5.5,0,0,1,.18-.11,1.37,1.37,0,0,0,.37-.3.72.72,0,0,1,.41-.26.81.81,0,0,1,.25,0,1.06,1.06,0,0,1,.37-.36,1.43,1.43,0,0,0,.45-.43l.2-.09a1.6,1.6,0,0,0,.45-.32.72.72,0,0,1,.5-.19,1.41,1.41,0,0,1,.94.46,1.23,1.23,0,0,1,.49.87l-.26,1.21c-.18.89-.38,1.35-.59,1.4l-.07.32c-.14.11-.21.19-.21.25l.09.37c0,.05-.06.13-.17.24s0,0,0,.09v.63c0,.12-.07.21-.22.28a.29.29,0,0,0,.1.06.63.63,0,0,1,.41-.09l.25,0,.34-.34a1.36,1.36,0,0,0,.3-.15q.19-.11.66-.3l2-1.55q.42-.42.63-.42c.16,0,.23.1.23.3a1.06,1.06,0,0,1-.13.56,4.27,4.27,0,0,0-.24.55.94.94,0,0,1-.25.44,1,1,0,0,0-.24.27,1.92,1.92,0,0,1-.51.43,4.53,4.53,0,0,0-.69.56,2.92,2.92,0,0,1-.48.41l-.66.48-.1.16a1.53,1.53,0,0,1-.28.13,2,2,0,0,0-.46.25l-.28.16a.64.64,0,0,1-.3.08.52.52,0,0,0-.36.18c-.11.1-.19.16-.25.16l-.24,0-.3.09a1.14,1.14,0,0,1-.65-.32.89.89,0,0,1-.38-.67v-.09l0-.22a1.47,1.47,0,0,0-.09-.32,1.68,1.68,0,0,1-.09-.29l0-.21,0-.1a1.36,1.36,0,0,1,.06-.52,1,1,0,0,0,.09-.31c0-.12,0-.23.06-.31l.08-.39a.4.4,0,0,1,.16-.25q0-.12.12-.42l.06-.28.16-.21a.63.63,0,0,0,.15-.34,1,1,0,0,1,.16-.44,1.07,1.07,0,0,0,.14-.28c0-.12-.06-.18-.19-.18a1.43,1.43,0,0,0-.39.24l-.28-.09s-.07.05-.17.16,0,.07-.14.09a.46.46,0,0,0-.26.23l-.12,0-.2-.09h-.07c-.1,0-.16.11-.18.34a.81.81,0,0,1-.45.33l-.34.09a.4.4,0,0,0-.25.28,1,1,0,0,1-.31.4.87.87,0,0,1-.31.17c-.29,0-.44-.16-.44-.48l.13-.73Zm6.69-7.75-.09-.6v-.1c0-.48.17-.75.5-.8.07,0,.29-.08.65-.2a1.1,1.1,0,0,1,.58.48,1.4,1.4,0,0,1,.3.76.37.37,0,0,1-.05.14,1.35,1.35,0,0,0-.06.41.7.7,0,0,1-.3.52,1,1,0,0,1-.61.23.92.92,0,0,1-.55-.3A1,1,0,0,1,188.27,378.28Z"/><path class="b61e12ab-be86-4d20-b299-f624e9f1e51a" d="M205,378.4l.09,0h.42c.13,0,.31-.14.55-.43a8,8,0,0,1,.82-.3l.06-.06a3.19,3.19,0,0,1,.32-.24h.29a1,1,0,0,0,.25-.15,3.8,3.8,0,0,1,.93-.34,4,4,0,0,0,.92-.31,5.82,5.82,0,0,1,.68-.09l.43-.08.35,0c.54,0,.94.36,1.17,1.08a.45.45,0,0,0,.08.19.53.53,0,0,1,.08.2,2.07,2.07,0,0,1-.64,1.36l-.21.57s-.06.1-.17.24a2.34,2.34,0,0,0-.28.47,3.77,3.77,0,0,1-.67.81c-.06.13-.15.32-.26.59a2.37,2.37,0,0,1-.29.52,7.91,7.91,0,0,0-.6.92,3.74,3.74,0,0,0-.49.95.88.88,0,0,0-.32.57,2.2,2.2,0,0,1-.32.76l0,.11c.33-.11.5-.29.5-.54,0,0,.08-.11.26-.23l.12-.22a.71.71,0,0,1,.33-.25,1,1,0,0,1,.32-.36c.2-.16.33-.27.4-.34a1.52,1.52,0,0,1,.33-.19c.16-.07.33-.32.53-.77,0-.08.1-.15.24-.2a.87.87,0,0,0,.35-.25,1.07,1.07,0,0,1,.23-.24l.12-.19.24-.19.75-.93c.41-.25.63-.46.67-.6l.12,0h.1l.32-.28a.59.59,0,0,1,.35-.61,1.18,1.18,0,0,0,.5-.36.45.45,0,0,1,.34-.21.34.34,0,0,1,.17.09h0s.07-.05.1-.15v-.16a.63.63,0,0,1,.15-.43.78.78,0,0,1,.42-.23.82.82,0,0,0,.51-.39.75.75,0,0,1,.57-.36.43.43,0,0,0,.42-.25,1.51,1.51,0,0,1,.67-.5,3.23,3.23,0,0,1,.7-.29,1.06,1.06,0,0,0,.25-.09.53.53,0,0,1,.24-.06,1.74,1.74,0,0,1,.45.09l.28.06a1.78,1.78,0,0,1,.67.58l.15.15v.06l0,.27v.12c.13.07.2.13.2.19l-.11.2a.53.53,0,0,0-.06.26c0,.09,0,.19,0,.29s0,.19,0,.28l-.06.25-.09.21a1.28,1.28,0,0,1-.11.2l-.12.5a2,2,0,0,1-.34.7,2.4,2.4,0,0,0-.31.57,2,2,0,0,1-.22.44l0,.1v.22c.32-.05.48-.17.48-.38a.52.52,0,0,1,.39-.48l.34-.28a2,2,0,0,1,1-.93.73.73,0,0,1,.3-.51l.59-.56.42-.23a1.3,1.3,0,0,1,.63-.7l.35-.21c.2-.11.32-.21.35-.3a.58.58,0,0,1,.24-.31c.13-.1.33-.27.59-.51l.12-.06.16-.16a1.76,1.76,0,0,1,.39-.15l.12-.06a2.45,2.45,0,0,1,.7-.4,4.25,4.25,0,0,0,.7-.33l.54-.08a.93.93,0,0,1,.25-.06c1,0,1.47.55,1.47,1.66l0,.24,0,.9c-.26.43-.39.65-.39.67l0,.28a1.1,1.1,0,0,1-.2.36l-.24.37a3.37,3.37,0,0,1-.29.32l-.15.47a.81.81,0,0,1-.27.29v.19c0,.15-.2.39-.6.7a1.12,1.12,0,0,1-.27.59,1.59,1.59,0,0,0-.3.41,1.11,1.11,0,0,1-.31.39,1.69,1.69,0,0,1-.27.68,2.56,2.56,0,0,1-.41.62,1.34,1.34,0,0,0-.3.45l-.14.06c-.06.4-.13.62-.22.67l-.25,0v.06a.3.3,0,0,0,.07.11.27.27,0,0,1,.06.17.25.25,0,0,1-.09.19.29.29,0,0,0-.11.15.46.46,0,0,1-.07.16.59.59,0,0,0-.07.3,1.62,1.62,0,0,1-.23.61,1.83,1.83,0,0,0-.24.53.71.71,0,0,1-.05.23.63.63,0,0,0,0,.19,3.43,3.43,0,0,1-.07.48c.19.46.33.78.42.94a1.1,1.1,0,0,1,.12.33,1.57,1.57,0,0,1-.15.83c-.11.14-.36.21-.77.21a.94.94,0,0,1-.67-.27.8.8,0,0,0-.51-.27v-.28l0,0h-.25a.54.54,0,0,0-.13-.11,1,1,0,0,1-.19-.22l-.1-.09a1.54,1.54,0,0,1-.21-.52l-.1-.3,0-.25,0-.39a.6.6,0,0,1,0-.25l0-.42a1.35,1.35,0,0,1,.06-.27,1.75,1.75,0,0,0,.07-.49.8.8,0,0,1,.14-.45.51.51,0,0,0,.14-.26.31.31,0,0,1,.09-.18.64.64,0,0,0,.12-.35.68.68,0,0,1,.32-.45c.1-.18.19-.36.26-.52.22-.3.33-.45.34-.45h.22a1,1,0,0,1-.15-.22c0-.28.11-.42.32-.42l.16,0,.06-.12-.06-.26c0-.18.13-.36.4-.53a1.05,1.05,0,0,1,.42-.81l0-.25a1.7,1.7,0,0,0,.26-.41,4.59,4.59,0,0,1,.44-.64l.48-.73.21-.25s0,0,0,0,0,0,0-.06,0-.09.06-.16l.09-.24.11-.12c.27-.07.4-.16.4-.28a.7.7,0,0,0-.12-.2v-.06a.48.48,0,0,1,.18-.31,2,2,0,0,0,.35-.52,1.42,1.42,0,0,0,.16-.41.05.05,0,0,0-.06-.06.66.66,0,0,0-.66.35c0,.07-.21.19-.61.37l-.15.24a.58.58,0,0,1-.33.17.66.66,0,0,0-.36.18l-1,.8a11.2,11.2,0,0,0-1.11,1l-.36.25c-.14.07-.22.13-.22.17a.63.63,0,0,1-.26.4l-.19.24a1,1,0,0,0-.25-.08.36.36,0,0,0-.29.17q.12.12.12.15c0,.17-.15.34-.46.52l-.67.7-.24.16a1,1,0,0,0-.3.35,4.56,4.56,0,0,1-.55.73,3.69,3.69,0,0,1-.53.56.67.67,0,0,0-.19.21,2.87,2.87,0,0,1-.45.48,1.09,1.09,0,0,0-.39.68c-.19.07-.29.14-.29.19l-.1.15-.12.06a.81.81,0,0,0-.05.21c0,.1-.21.28-.62.53a2.31,2.31,0,0,1-.76.38.3.3,0,0,0-.14.06.41.41,0,0,1-.12.07,2.78,2.78,0,0,1-.41-.19,1.31,1.31,0,0,1-.54-.87l.13-.4-.06-.33a.42.42,0,0,1,.14-.25.52.52,0,0,0,.15-.38c.17-.37.29-.64.37-.79l0-.25a1.53,1.53,0,0,1,.21-.35.86.86,0,0,0,.18-.43.33.33,0,0,1,.2-.31,8.85,8.85,0,0,0,1.26-1.87v-.22L218,380c.13-.23.3-.49.49-.78l.14-.36-.51-.18a.39.39,0,0,0-.23.12c0,.18-.3.36-.92.54a2.25,2.25,0,0,0-.48.45l-.43.25a3.15,3.15,0,0,0-.29.25l-.22.2a1.22,1.22,0,0,0-.67.44l-.41.29a1.52,1.52,0,0,0-.25.23,2.54,2.54,0,0,1-.57.34l-.25.25-.24.13a5.09,5.09,0,0,0-.37.44.44.44,0,0,1-.32.22l-.34.13a1.53,1.53,0,0,1-.58.77l-.45.56-.21.17a.43.43,0,0,1-.22.22l-.26.34-.19.14q-.42.15-.42.24l0,.28c0,.12-.12.23-.37.33a.32.32,0,0,0-.18.25,1,1,0,0,1-.11.35h-.28a1.06,1.06,0,0,0-.3.16.09.09,0,0,0-.06,0l.06.36a.66.66,0,0,1-.24.42,2.65,2.65,0,0,0-.38.43c-.09.12-.16.18-.2.18h-.09l-.09.07a.84.84,0,0,1-.39.63l-.18.23a6,6,0,0,0-.53.78,8.53,8.53,0,0,1-.83,1.13,2.29,2.29,0,0,1-.71.58l-.7.3-.63-.12a.8.8,0,0,0-.27-.28c-.12-.07-.18-.15-.18-.23l-.19-.54a1.23,1.23,0,0,1,.17-.54,2,2,0,0,0,.21-.49,3.52,3.52,0,0,1,.18-.49,2.81,2.81,0,0,0,.14-.33c0-.28,0-.45.13-.52l.6-.45s0,0,0-.07v0l0-.26c.23-.4.39-.61.45-.61a.31.31,0,0,1,.12,0l-.09-.34c0-.05.06-.11.17-.21a1,1,0,0,0,.26-.31l-.06-.18v-.06a.84.84,0,0,1,.39-.61c0-.08.12-.29.24-.64l.41-.71a.89.89,0,0,1,.33-.39.39.39,0,0,0,.19-.24.8.8,0,0,1,.1-.31s0,0,0,0l.08-.3a.55.55,0,0,1,.35-.37c.24-.61.42-.91.56-.91a.38.38,0,0,1,.17.06h.06c.17,0,.25-.06.25-.19a.05.05,0,0,0-.06-.06.38.38,0,0,1-.25.15c-.07,0-.11,0-.11-.06s0,0,.05-.06l.34-.7,0-.29a2.29,2.29,0,0,1,.25-.28l.26-.36v-.15a2.36,2.36,0,0,1,.14-.32,2.22,2.22,0,0,0,.2-.56l.27-.39a1.16,1.16,0,0,0,.06-.34q0-.24-.06-.24l-.9.17a9.69,9.69,0,0,0-1,.59l-.36.08a3.31,3.31,0,0,0-.42.21,1.57,1.57,0,0,1-.67.23.8.8,0,0,0-.5.23l-.06,0h-.3a2.42,2.42,0,0,0-.23.3c0,.07-.08.1-.11.1-1,.69-1.71,1.11-2,1.26a3.31,3.31,0,0,0-.64.39,2,2,0,0,1-.37.26v.18a.9.9,0,0,1-.38.6,1.1,1.1,0,0,1-.66.34.76.76,0,0,1-.29-.11,1.36,1.36,0,0,0-.43-.13c-.16,0-.24-.22-.24-.59s.43-1,1.3-1.44a1.51,1.51,0,0,0,.37-.22,12.9,12.9,0,0,1,1.38-.6l.45-.22A1.46,1.46,0,0,1,204,379l.58-.23.33-.12Zm14.55,3.76.15-.28v0s0,0-.06,0-.19.11-.25.31,0,.1.06.1A.1.1,0,0,0,219.57,382.16Z"/><path class="b61e12ab-be86-4d20-b299-f624e9f1e51a" d="M240.11,387.4l.25-.22a.26.26,0,0,0,.28-.21.49.49,0,0,1,.33-.33,1.27,1.27,0,0,0,.53-.51c.17-.25.34-.38.51-.38s.14.05.22.16a.44.44,0,0,1,.12.24,2.08,2.08,0,0,1-.31,1.06l-.06.43-.11.2a.73.73,0,0,0-.3.27,1.25,1.25,0,0,1-.37.34l-.15.22a.71.71,0,0,0-.46.35.41.41,0,0,1-.32.28.89.89,0,0,0-.46.31,2.21,2.21,0,0,1-.37.14l0,.16a1.18,1.18,0,0,1-.49.24,3.31,3.31,0,0,0-.5.18.55.55,0,0,1-.22.09,1.19,1.19,0,0,1-.54-.12,1.65,1.65,0,0,0-.51-.15.31.31,0,0,1-.11-.2.59.59,0,0,0-.16-.28.81.81,0,0,1-.14-.49l.07-.3a.28.28,0,0,0-.08-.15.3.3,0,0,1-.08-.16.12.12,0,0,1,0-.09.12.12,0,0,0,0-.09.51.51,0,0,0,0-.17.61.61,0,0,1,0-.16l.09-.76q0-.09-.06-.09s-.11.05-.22.15a.52.52,0,0,1-.38.16.7.7,0,0,0-.21.39,1.31,1.31,0,0,1-.3.27l-.07.1c0,.07-.1.13-.23.18a.54.54,0,0,0-.28.17l-.15.16-.3,0a1.92,1.92,0,0,0-.17.27,1.35,1.35,0,0,1-.35.4l-1.18,1-.55.31-.09.09a4,4,0,0,1-1.75.82,2.74,2.74,0,0,1-1-.23c-.37-.16-.57-.34-.6-.56l-.16-.64a1.11,1.11,0,0,1-.14-.6,1,1,0,0,1,0-.25v-.09l0-.51c0-.13.1-.19.3-.19l0-.42a2.17,2.17,0,0,1,.27-.48,2.14,2.14,0,0,1,.36-.49l.16-.21a.5.5,0,0,1,.22-.39,2.42,2.42,0,0,0,.37-.43,2,2,0,0,1,.53-.48l.46-.46a4.86,4.86,0,0,1,1.18-.87,1.47,1.47,0,0,0,.38-.31,1.79,1.79,0,0,1,.65-.41,5.17,5.17,0,0,0,.72-.33,1.16,1.16,0,0,1,.55-.21h.12a5.2,5.2,0,0,0,.82-.38h.1a.93.93,0,0,1,.29.12h0l.25-.12a.35.35,0,0,1,.16,0c.64,0,1,.44,1,1.33,0,.18.07.28.16.28s.25-.19.44-.57a1.24,1.24,0,0,1,1.22-.56c.44,0,.66.28.66.85a2.69,2.69,0,0,1-.9,1.91,1.07,1.07,0,0,0-.09.27l-.22.64v0a.47.47,0,0,1-.13.26.44.44,0,0,0-.13.28l0,.39-.06.43c0,.2,0,.33.11.39a1.26,1.26,0,0,0,.72-.41c.15-.19.25-.3.31-.32l.16-.06A1.5,1.5,0,0,1,240.11,387.4Zm-5.15,0a.73.73,0,0,1,.38-.52.71.71,0,0,0,.38-.37,7.53,7.53,0,0,0,.85-.77c.37-.38.55-.6.55-.69s0,0-.06,0h0l-.13.08-.28,0-.29,0-.22-.11-.2,0-.31-.06a.85.85,0,0,0-.43.1,3.12,3.12,0,0,1-.68.22,2.54,2.54,0,0,0-.91.43,1.2,1.2,0,0,1-.58.3,2.45,2.45,0,0,1-.73.66.73.73,0,0,0-.48.55c-.27.21-.4.34-.4.37l-.12.26a.75.75,0,0,1-.3.18.36.36,0,0,0-.22.33.84.84,0,0,1-.21.46.59.59,0,0,0-.18.34c0,.5.1.76.29.76a1.8,1.8,0,0,0,.52-.17,2.12,2.12,0,0,0,.46-.22.91.91,0,0,1,.25-.13l.29-.15a.34.34,0,0,1,.14-.08.26.26,0,0,0,.16-.1.88.88,0,0,1,.28-.19.68.68,0,0,0,.31-.27l.85-.48.33-.24a1.5,1.5,0,0,0,.42-.27A.77.77,0,0,1,235,387.4Z"/><path class="b61e12ab-be86-4d20-b299-f624e9f1e51a" d="M241.2,400.79,241,401a.63.63,0,0,1-.33.09,1,1,0,0,1-.75-.51,1.81,1.81,0,0,1-.36-1.06,3.48,3.48,0,0,1,.19-1.38,2.11,2.11,0,0,0,.22-.62l.34-.76a5.66,5.66,0,0,1,.63-1.14,7.77,7.77,0,0,0,.49-.73l.07-.12a1.72,1.72,0,0,1,.44-.52c0-.06.2-.27.6-.64a12.19,12.19,0,0,1,1.13-.94l.15-.21a1.83,1.83,0,0,1,.43-.24l.9-.24a5.83,5.83,0,0,1,.61-.48h.12l.42-.13a5.2,5.2,0,0,1,1.06-.29c.48-.08.75-.19.82-.31s.12-.23.16-.33.16-.32.34-.65c0-.17.08-.31.11-.42s.06-.16.1-.18a1,1,0,0,0,.18-.31,2.33,2.33,0,0,1,.25-.45s0,0,0,0l-.1-.26c.09-.25.17-.4.26-.45s.13-.1.13-.12l-.11-.28.27-.58s0-.06-.07-.06a3.38,3.38,0,0,1-1,.58,3.71,3.71,0,0,1-.34.37.55.55,0,0,0-.35.33l-.13,0-.09.15s0,.05-.11.08a3.1,3.1,0,0,0-.43.25l-.19,0s-.09.11-.15.32a1.25,1.25,0,0,1-.51.38.55.55,0,0,0-.3.16l-.12.15-.16,0c-.21,0-.32.09-.32.25a.52.52,0,0,1-.19.33.79.79,0,0,0-.31.09h-.23a.75.75,0,0,1-.55.42l-.45.31-.27.09a3.6,3.6,0,0,0-.37.22,1.22,1.22,0,0,1-.63.17,2.4,2.4,0,0,0-.67-.24c-.3-.08-.51-.58-.64-1.52h0a.56.56,0,0,0-.28.1.47.47,0,0,1-.21.09c-.24,0-.37-.1-.37-.31a.88.88,0,0,1,.53-.91l.39-.48,1-1c.69-.69,1.16-1.14,1.4-1.33a8.14,8.14,0,0,1,.77-.58l.8-.52a2.42,2.42,0,0,1,.49-.29.47.47,0,0,0,.2-.1,2.28,2.28,0,0,1,.56-.23l.28-.13a5.2,5.2,0,0,1,1.12-.29l.22,0a.56.56,0,0,0,.33-.12,1.45,1.45,0,0,0,.67-.35l.55-.15a1.41,1.41,0,0,1,.39-.08h.3c.21,0,.36.17.42.51s.13.52.18.52.08-.08.19-.24l.21-.15a.84.84,0,0,1,.3-.16.43.43,0,0,1,.46.31v0l.07.08a7.43,7.43,0,0,1,.13.91,1.91,1.91,0,0,1-.31,1.17,2.76,2.76,0,0,0-.38.59,11.23,11.23,0,0,1-.62,1.89c-.05.11-.18.41-.37.9l-.16.15a.1.1,0,0,0-.06.1l0,.21a1.33,1.33,0,0,0-.26.67,1.79,1.79,0,0,1-.25.57,1.45,1.45,0,0,0,.27.16,2.16,2.16,0,0,1,.54.5,1.07,1.07,0,0,1,.3.55,5,5,0,0,1-.17.61,1.72,1.72,0,0,1-.94.41.83.83,0,0,1-.45-.2l-.1,0v-.06a.91.91,0,0,1-.31-.12.53.53,0,0,0-.23-.06.11.11,0,0,0-.12.12.27.27,0,0,0,0,.12,2.58,2.58,0,0,0-.25.24,2.35,2.35,0,0,1-.22.45,1.73,1.73,0,0,1-.39.55c-.23,0-.38.18-.46.51a1.21,1.21,0,0,1-.3.64l-.15-.06a4.91,4.91,0,0,1-1.06,1.52c-.21,0-.33.09-.33.11a1.23,1.23,0,0,0,0,.2,1.34,1.34,0,0,1-.37.52c-.24.23-.37.35-.41.35l-.16,0-.09.09c0,.21-.26.54-.82,1-.3.17-.46.28-.48.34a2,2,0,0,1-.92.7l-.29.26a1.38,1.38,0,0,1-.41.27Zm5.59-8-.46.06a.58.58,0,0,0-.27-.12s-.07,0-.09.09a1.54,1.54,0,0,1-.82.42,2.42,2.42,0,0,0-.86.35.78.78,0,0,1-.38.19c-.11,0-.16,0-.16.06a2.58,2.58,0,0,0-.23.22,1.08,1.08,0,0,0-.31.2.84.84,0,0,1-.33.16c-.18.4-.31.6-.4.6l-.15,0h0a1.33,1.33,0,0,1-.31.46.66.66,0,0,0-.19.18.9.9,0,0,1-.3.26.7.7,0,0,0-.3.47,1.06,1.06,0,0,1-.2.45,1,1,0,0,0-.15.52l-.09.22a3.49,3.49,0,0,0-.13.53c-.06.3-.08.45-.08.46a.54.54,0,0,0,.18.39.37.37,0,0,1,.26-.11l.92-.37.34-.29a1.68,1.68,0,0,1,.52-.33,1.11,1.11,0,0,0,.41-.28,1,1,0,0,1,.3-.31.46.46,0,0,0,.21-.31l.65-.58a1.66,1.66,0,0,0,.38-.45.88.88,0,0,1,.27-.31l.06-.2.14,0c.06,0,.18-.18.33-.5l.42-.7a2.71,2.71,0,0,0,.6-.94l.22-.19s.06-.07.06-.14Zm-.28-4.94.19-.27a.65.65,0,0,1,.32-.19.59.59,0,0,0,.36-.26,2.31,2.31,0,0,1,.89-.77l.15-.11c.16-.3.29-.46.42-.49a.53.53,0,0,0,.32-.28.77.77,0,0,0,.14-.39c0-.05,0-.07-.09-.07a.65.65,0,0,0-.38.13.53.53,0,0,1-.22.12l-.31,0a7.45,7.45,0,0,1-.78.37l-.28.24a1,1,0,0,1-.33.15.36.36,0,0,0-.23.19c-.05.11-.12.17-.2.17l-.12.06a.62.62,0,0,1-.36.06,1.48,1.48,0,0,0-.32.27c-.1.11-.17.16-.19.16a1.73,1.73,0,0,1-.61.48.54.54,0,0,0-.33.27.87.87,0,0,0-.5.35,1.81,1.81,0,0,1-.36.37,1,1,0,0,0-.29.26l-.16.12a1.26,1.26,0,0,0-.25.41,1.32,1.32,0,0,0-.16.49c0,.06,0,.09.1.09a1.52,1.52,0,0,0,.58-.22,3,3,0,0,0,.56-.35c.08-.09.13-.13.17-.13l.58,0a.49.49,0,0,1,.32-.26.58.58,0,0,0,.35-.26,1.53,1.53,0,0,1,.7-.44l.17-.27Z"/><path class="b61e12ab-be86-4d20-b299-f624e9f1e51a" d="M265.25,387.4l.25-.22a.24.24,0,0,0,.27-.21.53.53,0,0,1,.34-.33,1.27,1.27,0,0,0,.53-.51c.17-.25.34-.38.51-.38s.14.05.22.16a.44.44,0,0,1,.12.24,2.08,2.08,0,0,1-.31,1.06l-.06.43-.11.2a.73.73,0,0,0-.3.27,1.25,1.25,0,0,1-.37.34l-.15.22a.71.71,0,0,0-.46.35.42.42,0,0,1-.32.28.89.89,0,0,0-.46.31,2.21,2.21,0,0,1-.37.14l0,.16a1.18,1.18,0,0,1-.49.24,3.31,3.31,0,0,0-.5.18.55.55,0,0,1-.22.09,1.19,1.19,0,0,1-.54-.12,1.65,1.65,0,0,0-.51-.15.31.31,0,0,1-.11-.2.69.69,0,0,0-.16-.28.81.81,0,0,1-.14-.49l.07-.3a.28.28,0,0,0-.08-.15.3.3,0,0,1-.08-.16.12.12,0,0,1,0-.09.12.12,0,0,0,0-.09.51.51,0,0,0,0-.17.61.61,0,0,1,0-.16l.09-.76q0-.09-.06-.09a.51.51,0,0,0-.23.15.49.49,0,0,1-.37.16.64.64,0,0,0-.21.39,1.18,1.18,0,0,1-.31.27l-.06.1c0,.07-.1.13-.23.18a.54.54,0,0,0-.28.17l-.15.16-.3,0a1.92,1.92,0,0,0-.17.27,1.25,1.25,0,0,1-.36.4l-1.17,1-.55.31-.09.09a4.06,4.06,0,0,1-1.75.82,2.69,2.69,0,0,1-1-.23c-.37-.16-.57-.34-.6-.56l-.16-.64a1.11,1.11,0,0,1-.14-.6.65.65,0,0,1,0-.25v-.09l0-.51c0-.13.1-.19.3-.19l0-.42a2.17,2.17,0,0,1,.27-.48,2.14,2.14,0,0,1,.36-.49l.16-.21a.51.51,0,0,1,.21-.39,2.13,2.13,0,0,0,.38-.43,2.08,2.08,0,0,1,.52-.48l.47-.46a4.86,4.86,0,0,1,1.18-.87,1.47,1.47,0,0,0,.38-.31,1.79,1.79,0,0,1,.65-.41,5.76,5.76,0,0,0,.72-.33,1.16,1.16,0,0,1,.55-.21H260a5.2,5.2,0,0,0,.82-.38h.1a.93.93,0,0,1,.29.12h0l.25-.12a.33.33,0,0,1,.15,0c.65,0,1,.44,1.06,1.33,0,.18.07.28.16.28s.25-.19.44-.57a1.24,1.24,0,0,1,1.22-.56c.44,0,.66.28.66.85a2.69,2.69,0,0,1-.9,1.91,1.07,1.07,0,0,0-.09.27l-.22.64v0a.47.47,0,0,1-.13.26.44.44,0,0,0-.13.28l0,.39-.06.43c0,.2,0,.33.11.39a1.26,1.26,0,0,0,.72-.41c.15-.19.25-.3.31-.32l.16-.06A1.5,1.5,0,0,1,265.25,387.4Zm-5.15,0a.73.73,0,0,1,.38-.52.75.75,0,0,0,.38-.37,7.53,7.53,0,0,0,.85-.77c.37-.38.55-.6.55-.69s0,0-.06,0h0l-.13.08-.28,0-.29,0-.22-.11-.2,0-.31-.06a.83.83,0,0,0-.43.1,3.33,3.33,0,0,1-.68.22,2.47,2.47,0,0,0-.91.43,1.18,1.18,0,0,1-.59.3,2.24,2.24,0,0,1-.72.66.73.73,0,0,0-.48.55,1.76,1.76,0,0,0-.41.37l-.11.26a.73.73,0,0,1-.31.18.37.37,0,0,0-.21.33.84.84,0,0,1-.21.46.59.59,0,0,0-.18.34c0,.5.1.76.29.76a1.8,1.8,0,0,0,.52-.17,2.12,2.12,0,0,0,.46-.22.78.78,0,0,1,.25-.13l.29-.15a.34.34,0,0,1,.14-.08.28.28,0,0,0,.16-.1.88.88,0,0,1,.28-.19.68.68,0,0,0,.31-.27l.85-.48.33-.24a1.27,1.27,0,0,0,.41-.27A.92.92,0,0,1,260.1,387.4Z"/><path class="b61e12ab-be86-4d20-b299-f624e9f1e51a" d="M280.71,388.35h.06l.15.07.07,0a.54.54,0,0,1,.24-.45.72.72,0,0,1,.35-.45l.87-.51.39-.34.18-.1.12-.15a.48.48,0,0,1,.33-.21c.16,0,.23.06.23.18l-.14.3.07.52a.71.71,0,0,1-.2.49l-.59.64-.8.84-.42.21-.28.22-.6.51a.41.41,0,0,1-.14.33h-.25l-.12.06a1.22,1.22,0,0,1-.64.57l-.22.16a.32.32,0,0,1-.2.09l-.43-.06-.3.06a.74.74,0,0,1-.33-.12,1.86,1.86,0,0,0-.43-.2c-.14,0-.33-.24-.55-.57a2.83,2.83,0,0,1-.36-.66.82.82,0,0,0-.07-.21.62.62,0,0,1-.07-.18,1.49,1.49,0,0,1,.14-.31v0a.67.67,0,0,0-.09-.21.93.93,0,0,1-.08-.42.86.86,0,0,0-.1-.36c.09-.08.13-.14.13-.19a.51.51,0,0,0-.05-.17.62.62,0,0,1-.05-.18l.1-.76-.06-.39,0-.37c0-.22-.1-.33-.28-.33a.51.51,0,0,0-.31.17l-.11,0a3.4,3.4,0,0,0-.58.34.59.59,0,0,1-.36.13.85.85,0,0,1-.36.17l-.12.09a1.38,1.38,0,0,1-.25.19,3.58,3.58,0,0,1-.58.52c-.38.31-.73.61-1,.89a1.89,1.89,0,0,1-.67.46q-.21,0-.21.39s-.09.13-.28.25a1.71,1.71,0,0,0-.32.34,1.52,1.52,0,0,0-.28-.18c-.13,0-.23.16-.29.51-.07.13-.23.21-.5.24a.75.75,0,0,0-.11.24l-.06.06h-.16a1,1,0,0,0-.22.18.87.87,0,0,1-.32.22c-.14.28-.25.42-.35.42a.38.38,0,0,1-.17-.06,1.6,1.6,0,0,0-.29-.11c-.11,0-.24-.16-.38-.38a1.11,1.11,0,0,1-.21-.57c0-1.14.22-1.77.67-1.87l0-.06v-.13a.28.28,0,0,1,.18-.28,1,1,0,0,0,.36-.34,1,1,0,0,1,.25-.29h.2s.06-.11.06-.33a.27.27,0,0,1,.08-.17.34.34,0,0,0,.09-.22,1.38,1.38,0,0,1,.23-.48,1.63,1.63,0,0,0,.21-.4l0-.06a1.45,1.45,0,0,1-.55.39c-.12,0-.27.17-.47.45l-.25-.05a5.82,5.82,0,0,1-.8.54.91.91,0,0,0-.35.36.12.12,0,0,1-.1.12,1.8,1.8,0,0,0-.41.25h-.09c-.26,0-.39-.19-.39-.56l.33-.88a1.33,1.33,0,0,1,.65-.71,7.18,7.18,0,0,0,.88-.55,1.41,1.41,0,0,1,.71-.28l.11-.15a1.18,1.18,0,0,0,.71-.63c.13-.29.3-.44.51-.44a1.48,1.48,0,0,1,1.3.63,1.94,1.94,0,0,1,.45,1l0,.42a3.06,3.06,0,0,1-.1.6,1,1,0,0,0-.18.42q0,.12.15.12a.45.45,0,0,0,.25-.13,2.38,2.38,0,0,1,.35-.24c.13-.07.2-.13.22-.18a.92.92,0,0,1,.54-.52,1.49,1.49,0,0,0,.48-.23l.16-.12.12-.23a1.89,1.89,0,0,0,.56-.34.63.63,0,0,1,.37-.21,1.3,1.3,0,0,0,.53-.28l.23-.06.22-.12a.51.51,0,0,1,.18-.08l.46-.16a1.42,1.42,0,0,1,.41-.12,1.45,1.45,0,0,1,1.25.64,2,2,0,0,1,.45,1l0,.28.06.42V386l-.12.85,0,.3a1.29,1.29,0,0,1-.31,1,.17.17,0,0,0-.08.16v.14l.31.65c.1.23.17.34.22.34l.5-.14A.63.63,0,0,0,280,389a1.92,1.92,0,0,0,.43-.37A.32.32,0,0,1,280.71,388.35Z"/><path class="b61e12ab-be86-4d20-b299-f624e9f1e51a" d="M282.81,400.79l-.24.17a.68.68,0,0,1-.33.09,1,1,0,0,1-.75-.51,1.75,1.75,0,0,1-.37-1.06,3.44,3.44,0,0,1,.2-1.38,2.46,2.46,0,0,0,.22-.62l.33-.76a6.87,6.87,0,0,1,.63-1.14,8,8,0,0,0,.5-.73l.06-.12a1.73,1.73,0,0,1,.45-.52c0-.06.2-.27.6-.64a12.15,12.15,0,0,1,1.12-.94l.16-.21a1.64,1.64,0,0,1,.43-.24l.9-.24a4.51,4.51,0,0,1,.6-.48h.13l.42-.13a4.84,4.84,0,0,1,1.06-.29c.47-.08.75-.19.81-.31s.12-.23.17-.33.16-.32.33-.65c.05-.17.08-.31.11-.42a.29.29,0,0,1,.11-.18,1.32,1.32,0,0,0,.17-.31,4.3,4.3,0,0,1,.25-.45s0,0,0,0l-.09-.26a.8.8,0,0,1,.26-.45c.08-.06.13-.1.13-.12l-.11-.28.26-.58a.06.06,0,0,0-.06-.06,3.7,3.7,0,0,1-1,.58c0,.07-.17.19-.34.37a.54.54,0,0,0-.36.33l-.12,0-.09.15s0,.05-.11.08a3,3,0,0,0-.44.25l-.18,0s-.1.11-.16.32a1.17,1.17,0,0,1-.5.38.51.51,0,0,0-.3.16l-.13.15-.15,0c-.22,0-.32.09-.32.25a.57.57,0,0,1-.19.33.74.74,0,0,0-.31.09h-.23a.77.77,0,0,1-.56.42l-.45.31-.26.09a2.77,2.77,0,0,0-.37.22,1.3,1.3,0,0,1-.64.17,2.2,2.2,0,0,0-.66-.24c-.3-.08-.51-.58-.64-1.52h0a.56.56,0,0,0-.27.1.52.52,0,0,1-.21.09c-.25,0-.37-.1-.37-.31a.87.87,0,0,1,.52-.91l.39-.48,1-1c.69-.69,1.15-1.14,1.39-1.33s.5-.39.78-.58l.79-.52a2.36,2.36,0,0,1,.5-.29.5.5,0,0,0,.19-.1,2.66,2.66,0,0,1,.57-.23l.28-.13a5.06,5.06,0,0,1,1.12-.29l.22,0a.51.51,0,0,0,.32-.12,1.37,1.37,0,0,0,.67-.35l.56-.15a1.29,1.29,0,0,1,.39-.08h.29c.22,0,.36.17.43.51s.13.52.18.52.08-.08.18-.24l.22-.15a.76.76,0,0,1,.29-.16.44.44,0,0,1,.47.31v0l.06.08a8.53,8.53,0,0,1,.14.91,1.91,1.91,0,0,1-.32,1.17,2.76,2.76,0,0,0-.38.59,9.66,9.66,0,0,1-.62,1.89c-.05.11-.17.41-.37.9l-.15.15a.09.09,0,0,0-.06.1l0,.21a1.43,1.43,0,0,0-.26.67,1.57,1.57,0,0,1-.25.57l.27.16a2.17,2.17,0,0,1,.55.5,1.07,1.07,0,0,1,.3.55s-.06.23-.17.61a1.75,1.75,0,0,1-.95.41.9.9,0,0,1-.45-.2l-.09,0v-.06a1.07,1.07,0,0,1-.32-.12.49.49,0,0,0-.22-.06c-.09,0-.13,0-.13.12a.27.27,0,0,0,0,.12l-.25.24a2.68,2.68,0,0,1-.21.45,1.9,1.9,0,0,1-.39.55c-.23,0-.39.18-.47.51a1.22,1.22,0,0,1-.29.64l-.16-.06a5.09,5.09,0,0,1-1.05,1.52,1,1,0,0,0-.34.11s0,.1,0,.2a1.29,1.29,0,0,1-.38.52,1.58,1.58,0,0,1-.41.35l-.15,0-.1.09c0,.21-.26.54-.82,1-.3.17-.46.28-.48.34s-.39.43-.91.7l-.3.26a1.23,1.23,0,0,1-.4.27Zm5.6-8-.47.06a.52.52,0,0,0-.26-.12s-.07,0-.1.09a1.5,1.5,0,0,1-.82.42,2.51,2.51,0,0,0-.86.35.75.75,0,0,1-.38.19q-.15,0-.15.06a3,3,0,0,0-.24.22,1,1,0,0,0-.3.2.92.92,0,0,1-.33.16c-.19.4-.32.6-.4.6l-.16,0h0a1.2,1.2,0,0,1-.31.46.77.77,0,0,0-.18.18,1.08,1.08,0,0,1-.31.26.7.7,0,0,0-.3.47,1,1,0,0,1-.19.45.86.86,0,0,0-.15.52l-.09.22a3,3,0,0,0-.14.53c-.05.3-.08.45-.08.46a.52.52,0,0,0,.19.39c0-.06.12-.09.26-.11l.91-.37a3.47,3.47,0,0,0,.34-.29,1.81,1.81,0,0,1,.52-.33,1.11,1.11,0,0,0,.41-.28,1.14,1.14,0,0,1,.31-.31.5.5,0,0,0,.21-.31l.65-.58a1.87,1.87,0,0,0,.38-.45.72.72,0,0,1,.27-.31l.06-.2.13,0c.07,0,.18-.18.34-.5l.41-.7a2.88,2.88,0,0,0,.61-.94l.22-.19s.06-.07.06-.14Zm-.28-4.94.18-.27a.7.7,0,0,1,.32-.19.64.64,0,0,0,.37-.26,2.29,2.29,0,0,1,.88-.77l.16-.11c.15-.3.29-.46.42-.49a.53.53,0,0,0,.32-.28.88.88,0,0,0,.14-.39c0-.05,0-.07-.09-.07a.62.62,0,0,0-.38.13.54.54,0,0,1-.23.12l-.31,0a7.14,7.14,0,0,1-.77.37l-.28.24a1.14,1.14,0,0,1-.33.15.33.33,0,0,0-.23.19c-.05.11-.12.17-.2.17l-.13.06a.61.61,0,0,1-.35.06,1.48,1.48,0,0,0-.32.27c-.11.11-.17.16-.19.16a1.75,1.75,0,0,1-.62.48.54.54,0,0,0-.33.27.91.91,0,0,0-.5.35,1.41,1.41,0,0,1-.36.37,1.18,1.18,0,0,0-.29.26l-.15.12a1.22,1.22,0,0,0-.26.41,1.32,1.32,0,0,0-.16.49c0,.06,0,.09.11.09a1.57,1.57,0,0,0,.58-.22,2.78,2.78,0,0,0,.55-.35c.08-.09.14-.13.17-.13l.59,0a.47.47,0,0,1,.32-.26.61.61,0,0,0,.35-.26,1.49,1.49,0,0,1,.69-.44l.17-.27Z"/><path class="b61e12ab-be86-4d20-b299-f624e9f1e51a" d="M308.92,378.4l.09,0h.42c.12,0,.3-.14.54-.43,0,0,.3-.12.83-.3l.06-.06.31-.24h.3a1.24,1.24,0,0,0,.25-.15,3.51,3.51,0,0,1,.92-.34,3.85,3.85,0,0,0,.92-.31,6.18,6.18,0,0,1,.69-.09l.43-.08.34,0c.55,0,.94.36,1.18,1.08a.35.35,0,0,0,.08.19.47.47,0,0,1,.07.2,2.1,2.1,0,0,1-.63,1.36l-.22.57s-.05.1-.16.24a2.35,2.35,0,0,0-.29.47,3.36,3.36,0,0,1-.66.81c-.07.13-.15.32-.27.59a2.45,2.45,0,0,1-.28.52,8.86,8.86,0,0,0-.61.92,4.18,4.18,0,0,0-.49.95.88.88,0,0,0-.31.57,2.41,2.41,0,0,1-.32.76l0,.11c.33-.11.49-.29.49-.54,0,0,.09-.11.27-.23l.12-.22a.65.65,0,0,1,.32-.25q0-.12.33-.36a4.81,4.81,0,0,0,.39-.34,1.41,1.41,0,0,1,.34-.19,1.52,1.52,0,0,0,.52-.77c0-.08.1-.15.24-.2a.81.81,0,0,0,.35-.25,1.06,1.06,0,0,1,.24-.24l.12-.19.23-.19.76-.93a1.67,1.67,0,0,0,.67-.6l.12,0h.09l.33-.28a.58.58,0,0,1,.35-.61,1.24,1.24,0,0,0,.5-.36.42.42,0,0,1,.34-.21.39.39,0,0,1,.17.09h0s.06-.05.09-.15v-.16a.59.59,0,0,1,.16-.43.78.78,0,0,1,.42-.23.88.88,0,0,0,.51-.39.73.73,0,0,1,.56-.36.45.45,0,0,0,.43-.25,1.41,1.41,0,0,1,.66-.5,3.45,3.45,0,0,1,.7-.29,1.14,1.14,0,0,0,.26-.09.48.48,0,0,1,.24-.06,1.61,1.61,0,0,1,.44.09l.28.06a1.78,1.78,0,0,1,.67.58l.16.15v.06l0,.27v.12c.13.07.2.13.2.19l-.11.2a.53.53,0,0,0-.06.26c0,.09,0,.19,0,.29a2.36,2.36,0,0,1,0,.28,1,1,0,0,1-.06.25c0,.08-.05.15-.08.21s-.07.14-.11.2l-.13.5a2.14,2.14,0,0,1-.33.7,2.56,2.56,0,0,0-.32.57,1.61,1.61,0,0,1-.22.44l0,.1v.22c.32-.05.48-.17.48-.38a.52.52,0,0,1,.39-.48l.34-.28a2,2,0,0,1,1-.93.72.72,0,0,1,.29-.51l.59-.56.42-.23a1.31,1.31,0,0,1,.64-.7l.34-.21c.21-.11.33-.21.35-.3a.7.7,0,0,1,.24-.31,6.93,6.93,0,0,0,.6-.51l.12-.06.15-.16a2.26,2.26,0,0,1,.39-.15l.13-.06a2.42,2.42,0,0,1,.69-.4,3.9,3.9,0,0,0,.7-.33l.54-.08.25-.06c1,0,1.48.55,1.48,1.66l0,.24,0,.9c-.26.43-.39.65-.39.67l0,.28a1.37,1.37,0,0,1-.2.36,4.22,4.22,0,0,0-.24.37l-.29.32-.16.47a.87.87,0,0,1-.26.29v.19c0,.15-.2.39-.6.7a1.12,1.12,0,0,1-.28.59,1.54,1.54,0,0,0-.29.41,1.15,1.15,0,0,1-.32.39,1.63,1.63,0,0,1-.26.68,2.9,2.9,0,0,1-.41.62,1.34,1.34,0,0,0-.3.45l-.14.06c-.07.4-.14.62-.22.67l-.25,0v.06a.24.24,0,0,0,.06.11.23.23,0,0,1,.07.17.23.23,0,0,1-.1.19.29.29,0,0,0-.11.15.33.33,0,0,1-.07.16.72.72,0,0,0-.07.3,1.46,1.46,0,0,1-.23.61,1.71,1.71,0,0,0-.23.53,1.14,1.14,0,0,1-.05.23.63.63,0,0,0,0,.19,4.32,4.32,0,0,1-.08.48c.2.46.34.78.42.94a1.26,1.26,0,0,1,.13.33,1.55,1.55,0,0,1-.16.83c-.1.14-.36.21-.76.21a1,1,0,0,1-.68-.27.8.8,0,0,0-.5-.27v-.28l0,0h-.25a.88.88,0,0,0-.13-.11,1.46,1.46,0,0,1-.2-.22l-.09-.09A1.52,1.52,0,0,1,326,389l-.09-.3,0-.25,0-.39a.85.85,0,0,1,0-.25l0-.42a1.35,1.35,0,0,1,.06-.27,2.18,2.18,0,0,0,.08-.49.8.8,0,0,1,.14-.45.61.61,0,0,0,.14-.26.31.31,0,0,1,.09-.18.77.77,0,0,0,.11-.35.66.66,0,0,1,.33-.45c.1-.18.19-.36.26-.52.22-.3.33-.45.34-.45h.22a1.28,1.28,0,0,1-.16-.22q0-.42.33-.42l.15,0,.07-.12-.07-.26c0-.18.14-.36.41-.53a1.05,1.05,0,0,1,.42-.81l0-.25a1.64,1.64,0,0,0,.27-.41,4.48,4.48,0,0,1,.43-.64l.48-.73.22-.25s0,0,0,0l0-.06.05-.16.1-.24.1-.12c.27-.07.41-.16.41-.28a.61.61,0,0,0-.13-.2v-.06a.47.47,0,0,1,.19-.31,2.23,2.23,0,0,0,.35-.52,1.42,1.42,0,0,0,.16-.41.05.05,0,0,0-.06-.06.69.69,0,0,0-.67.35c0,.07-.2.19-.6.37l-.16.24a.53.53,0,0,1-.32.17.65.65,0,0,0-.37.18c-.15.12-.48.38-1,.8a10.45,10.45,0,0,0-1.12,1l-.35.25c-.15.07-.22.13-.22.17s-.09.24-.27.4l-.18.24A1.1,1.1,0,0,0,326,381a.36.36,0,0,0-.3.17c.08.08.13.13.13.15s-.16.34-.47.52l-.67.7-.23.16a.94.94,0,0,0-.31.35,4,4,0,0,1-.55.73,4,4,0,0,1-.52.56.57.57,0,0,0-.19.21,2.87,2.87,0,0,1-.45.48,1.09,1.09,0,0,0-.39.68c-.2.07-.3.14-.3.19l-.09.15-.12.06a.54.54,0,0,0,0,.21c0,.1-.22.28-.62.53a2.52,2.52,0,0,1-.76.38.3.3,0,0,0-.14.06.41.41,0,0,1-.12.07,2.64,2.64,0,0,1-.42-.19,1.27,1.27,0,0,1-.53-.87l.12-.4-.06-.33c0-.06.05-.14.15-.25a.52.52,0,0,0,.15-.38,8.16,8.16,0,0,1,.37-.79l0-.25a1.53,1.53,0,0,1,.21-.35.86.86,0,0,0,.18-.43c0-.17.08-.27.2-.31a9.57,9.57,0,0,0,1.25-1.87v-.22l.45-.77c.14-.23.3-.49.5-.78l.14-.36-.51-.18a.44.44,0,0,0-.24.12c0,.18-.3.36-.91.54a2.25,2.25,0,0,0-.48.45L320,380a2.93,2.93,0,0,0-.3.25l-.21.2a1.22,1.22,0,0,0-.67.44l-.42.29a2.13,2.13,0,0,0-.25.23,2.54,2.54,0,0,1-.57.34l-.25.25-.23.13a3.75,3.75,0,0,0-.37.44.44.44,0,0,1-.33.22l-.34.13a1.45,1.45,0,0,1-.57.77l-.45.56-.22.17a.41.41,0,0,1-.21.22,3.67,3.67,0,0,0-.27.34l-.18.14q-.42.15-.42.24l0,.28c0,.12-.12.23-.37.33a.3.3,0,0,0-.18.25,1.32,1.32,0,0,1-.12.35h-.28a1.08,1.08,0,0,0-.29.16.09.09,0,0,0-.06,0l.06.36a.64.64,0,0,1-.25.42,4.19,4.19,0,0,0-.38.43c-.08.12-.15.18-.19.18h-.09l-.1.07a.86.86,0,0,1-.38.63l-.19.23a7.44,7.44,0,0,0-.53.78,8.55,8.55,0,0,1-.82,1.13,2.41,2.41,0,0,1-.71.58l-.7.3-.64-.12a.72.72,0,0,0-.27-.28c-.12-.07-.18-.15-.18-.23l-.18-.54a1.11,1.11,0,0,1,.17-.54,2.43,2.43,0,0,0,.21-.49,2,2,0,0,1,.18-.49,1.94,1.94,0,0,0,.13-.33c0-.28.05-.45.14-.52l.59-.45s0,0,0-.07v0l0-.26c.24-.4.39-.61.45-.61l.13,0-.1-.34c0-.05.06-.11.17-.21a.88.88,0,0,0,.27-.31l-.06-.18v-.06a.85.85,0,0,1,.38-.61,6,6,0,0,0,.25-.64l.41-.71a.88.88,0,0,1,.32-.39.33.33,0,0,0,.19-.24.83.83,0,0,1,.11-.31s0,0,0,0a1.39,1.39,0,0,0,.08-.3.57.57,0,0,1,.35-.37c.24-.61.43-.91.56-.91a.35.35,0,0,1,.17.06h.07c.16,0,.25-.06.25-.19s0-.06-.07-.06a.36.36,0,0,1-.25.15c-.07,0-.1,0-.1-.06a.07.07,0,0,1,0-.06l.34-.7,0-.29a2,2,0,0,1,.24-.28l.27-.36v-.15a1.43,1.43,0,0,1,.14-.32,2.7,2.7,0,0,0,.2-.56l.26-.39a1.16,1.16,0,0,0,.06-.34q0-.24-.06-.24l-.9.17c-.48.25-.83.45-1,.59l-.36.08a2.9,2.9,0,0,0-.41.21,1.67,1.67,0,0,1-.67.23.85.85,0,0,0-.51.23l-.06,0h-.29a2.78,2.78,0,0,0-.24.3c0,.07-.07.1-.1.1-1.05.69-1.71,1.11-2,1.26a3.18,3.18,0,0,0-.63.39,2,2,0,0,1-.38.26v.18a.86.86,0,0,1-.38.6,1.1,1.1,0,0,1-.65.34.71.71,0,0,1-.29-.11,1.42,1.42,0,0,0-.44-.13c-.15,0-.24-.22-.24-.59s.44-1,1.31-1.44a1.72,1.72,0,0,0,.37-.22,11.08,11.08,0,0,1,1.38-.6l.45-.22a1.3,1.3,0,0,1,.52-.28l.57-.23.33-.12Zm14.54,3.76.16-.28v0s0,0-.06,0-.19.11-.25.31,0,.1.06.1A.1.1,0,0,0,323.46,382.16Z"/><path class="b61e12ab-be86-4d20-b299-f624e9f1e51a" d="M344,387.4l.25-.22a.25.25,0,0,0,.28-.21.49.49,0,0,1,.33-.33,1.27,1.27,0,0,0,.53-.51c.17-.25.34-.38.51-.38s.14.05.22.16a.47.47,0,0,1,.13.24,2.18,2.18,0,0,1-.31,1.06l-.07.43-.11.2a.73.73,0,0,0-.3.27,1.18,1.18,0,0,1-.36.34l-.16.22a.69.69,0,0,0-.45.35.43.43,0,0,1-.33.28.83.83,0,0,0-.45.31,2.35,2.35,0,0,1-.38.14l0,.16a1.06,1.06,0,0,1-.49.24,3.11,3.11,0,0,0-.49.18.63.63,0,0,1-.23.09,1.25,1.25,0,0,1-.54-.12,1.57,1.57,0,0,0-.51-.15.37.37,0,0,1-.11-.2.64.64,0,0,0-.15-.28.75.75,0,0,1-.14-.49l.06-.3a.28.28,0,0,0-.08-.15.3.3,0,0,1-.08-.16.12.12,0,0,1,0-.09.1.1,0,0,0,0-.09.35.35,0,0,0,0-.17.61.61,0,0,1,0-.16l.1-.76c0-.06,0-.09-.07-.09s-.11.05-.22.15a.51.51,0,0,1-.38.16.7.7,0,0,0-.2.39,1.37,1.37,0,0,1-.31.27l-.06.1q0,.11-.24.18a.58.58,0,0,0-.28.17l-.15.16-.29,0a1.58,1.58,0,0,0-.18.27,1.35,1.35,0,0,1-.35.4l-1.18,1c-.12.08-.3.18-.54.31l-.1.09a4,4,0,0,1-1.75.82,2.65,2.65,0,0,1-1-.23c-.38-.16-.58-.34-.61-.56l-.15-.64a1,1,0,0,1-.14-.6.65.65,0,0,1,0-.25v-.09l0-.51c0-.13.09-.19.29-.19l0-.42a2.17,2.17,0,0,1,.27-.48,1.8,1.8,0,0,1,.37-.49l.15-.21a.5.5,0,0,1,.22-.39,2.07,2.07,0,0,0,.37-.43,2,2,0,0,1,.53-.48l.46-.46a5.06,5.06,0,0,1,1.18-.87,1.47,1.47,0,0,0,.38-.31,1.75,1.75,0,0,1,.66-.41,5.05,5.05,0,0,0,.71-.33,1.19,1.19,0,0,1,.55-.21h.12a5.51,5.51,0,0,0,.83-.38h.09a.93.93,0,0,1,.29.12h0l.24-.12a.41.41,0,0,1,.16,0c.64,0,1,.44,1.06,1.33,0,.18.07.28.15.28s.25-.19.44-.57a1.24,1.24,0,0,1,1.22-.56c.44,0,.67.28.67.85a2.73,2.73,0,0,1-.9,1.91,1.08,1.08,0,0,0-.1.27l-.21.64v0a.56.56,0,0,1-.13.26.46.46,0,0,0-.14.28l0,.39-.06.43a.52.52,0,0,0,.11.39,1.26,1.26,0,0,0,.72-.41c.15-.19.25-.3.32-.32l.15-.06A1.5,1.5,0,0,1,344,387.4Zm-5.14,0a.7.7,0,0,1,.38-.52.75.75,0,0,0,.38-.37,7.66,7.66,0,0,0,.84-.77c.37-.38.55-.6.55-.69s0,0-.06,0h0l-.13.08-.27,0-.3,0L340,385l-.21,0-.31-.06a.82.82,0,0,0-.42.1,3.49,3.49,0,0,1-.69.22,2.5,2.5,0,0,0-.9.43,1.26,1.26,0,0,1-.59.3,2.32,2.32,0,0,1-.73.66.73.73,0,0,0-.48.55c-.27.21-.4.34-.4.37l-.11.26a.79.79,0,0,1-.31.18.36.36,0,0,0-.22.33.84.84,0,0,1-.21.46.59.59,0,0,0-.18.34c0,.5.1.76.3.76a2,2,0,0,0,.52-.17,2.83,2.83,0,0,0,.46-.22.7.7,0,0,1,.24-.13l.3-.15a.29.29,0,0,1,.14-.08.26.26,0,0,0,.15-.1,1,1,0,0,1,.28-.19.63.63,0,0,0,.31-.27l.85-.48.33-.24a1.35,1.35,0,0,0,.42-.27A.74.74,0,0,1,338.86,387.4Z"/><path class="b61e12ab-be86-4d20-b299-f624e9f1e51a" d="M346.26,385.75l.13-.17a.68.68,0,0,0,.51-.31,6.12,6.12,0,0,1,.78-.8q.74-.71.81-.75a6.07,6.07,0,0,0,.6-1.35c.13-.06.19-.13.19-.21l.12-.25.14,0,.06-.07v-.13a4.05,4.05,0,0,1,.61-1.31c.4-.84.62-1.3.65-1.38a2.85,2.85,0,0,1,.18-.39,10.28,10.28,0,0,0,.43-1,6.63,6.63,0,0,1,.89-1.52s.1-.13.19-.34a2.21,2.21,0,0,1,.38-.63l.19-.33.32-.54a4.73,4.73,0,0,1,.43-.61,1.5,1.5,0,0,0,.29-.48.81.81,0,0,1,.25-.35,1.18,1.18,0,0,0,.28-.4.48.48,0,0,1,.46-.28.94.94,0,0,1,.88.49,1.87,1.87,0,0,1,.27.87s-.07.25-.19.67l-.23,1.39c-.21.11-.31.22-.31.36a2.89,2.89,0,0,1-.64,1.7,1,1,0,0,0-.1.41.83.83,0,0,1-.27.56,1.94,1.94,0,0,0-.42.72l-1.44,2.06-.12.13a.75.75,0,0,0-.22.26l-.25-.07c-.28,0-.42.08-.42.26a.79.79,0,0,0,.06.25v0l-1.14,1.63a3,3,0,0,0-.22.6l-.22.46a3.2,3.2,0,0,0-.45.88,2.23,2.23,0,0,1-.35.69,7.76,7.76,0,0,0-.31.73.08.08,0,0,0,.09.09c.06,0,.21-.15.44-.46a2.75,2.75,0,0,1,.58-.62,1.38,1.38,0,0,0,.38-.44l.15-.11.27-.18.15,0a.48.48,0,0,0,.16-.22.38.38,0,0,1,.09-.18c.27,0,.44-.13.5-.3s.15-.25.25-.25.19-.09.32-.28a1.49,1.49,0,0,1,.57-.47,2.94,2.94,0,0,0,.54-.32,3.14,3.14,0,0,1,.72-.33A2.81,2.81,0,0,1,355,383h.1l.12,0,.23,0a2.24,2.24,0,0,1,1.09.3.85.85,0,0,1,.46.94l-.12,1-.17.76a6.12,6.12,0,0,1-.25.82,5.07,5.07,0,0,0-.22.73l-.06.29.06.4,0,.33a.14.14,0,0,0,.16.16s.15-.1.34-.28c.11,0,.22-.05.32-.19a2.44,2.44,0,0,1,.42-.45s.07-.08.2-.11a1.79,1.79,0,0,0,.56-.37,3,3,0,0,1,.6-.6,5.22,5.22,0,0,1,1-.7l.1-.13a.73.73,0,0,1,.47-.26c.15,0,.22.08.22.23a.7.7,0,0,1-.08.33,1.51,1.51,0,0,0-.1.44,2.84,2.84,0,0,1-.31.78l-.07.16a.49.49,0,0,1-.26.31.75.75,0,0,0-.33.25,1.74,1.74,0,0,1-.74.4c-.16.31-.29.46-.38.46l-.28-.12a.73.73,0,0,0-.33.54,4.89,4.89,0,0,0-.48.45l-.31,0c-.08,0-.12.11-.12.34a1.24,1.24,0,0,1-.32.21,3.58,3.58,0,0,0-.48.32,1.32,1.32,0,0,1-.73.14.38.38,0,0,1-.19-.11,1.19,1.19,0,0,0-.36-.19.53.53,0,0,1-.34-.36,1.93,1.93,0,0,0-.2-.45.51.51,0,0,1-.1-.25l0-.32-.08-.32.14-.22a.94.94,0,0,1-.09-.29l.15-.95a10,10,0,0,1,.28-1.33s0-.08,0-.19l0-.38,0-.22c0-.16-.05-.24-.16-.25s-.16,0-.18-.08l-.23-.09c-.09,0-.16.07-.22.2a1.36,1.36,0,0,1-.25.34l-.39-.06v0q0,.12-.42.48a1.3,1.3,0,0,0-.66.4,1,1,0,0,0-.43.24,1.51,1.51,0,0,1-.4.28l-.12.24-.25.08a.62.62,0,0,1-.51.4l-.15.3a.52.52,0,0,0-.46.33q-.12.3-.18.3l-.1,0a.25.25,0,0,0-.14,0c-.22,0-.35.17-.37.51a4.92,4.92,0,0,1-.63.73c-.43.44-.66.67-.68.68s-.1.12-.18.32a1,1,0,0,1-.37.45,4,4,0,0,0-.35.24.33.33,0,0,1-.18.09c-.21,0-.39-.16-.52-.46a4.49,4.49,0,0,1-.2-.49l.09-.32,0-.28s.06-.22.19-.63a3.61,3.61,0,0,1,.44-1,2.76,2.76,0,0,0,.39-1.14,2.85,2.85,0,0,1-.84.47c-.2,0-.31-.14-.31-.41A2.05,2.05,0,0,1,346.26,385.75Z"/><path class="b61e12ab-be86-4d20-b299-f624e9f1e51a" d="M371.56,387.4l.25-.22a.25.25,0,0,0,.28-.21.49.49,0,0,1,.33-.33,1.27,1.27,0,0,0,.53-.51c.17-.25.34-.38.51-.38s.14.05.22.16a.44.44,0,0,1,.12.24,2.16,2.16,0,0,1-.3,1.06l-.07.43-.11.2a.73.73,0,0,0-.3.27,1.18,1.18,0,0,1-.36.34l-.16.22a.67.67,0,0,0-.45.35.43.43,0,0,1-.33.28.89.89,0,0,0-.46.31,1.92,1.92,0,0,1-.37.14l0,.16a1.12,1.12,0,0,1-.49.24,2.77,2.77,0,0,0-.49.18.63.63,0,0,1-.23.09,1.22,1.22,0,0,1-.54-.12,1.65,1.65,0,0,0-.51-.15.37.37,0,0,1-.11-.2.59.59,0,0,0-.16-.28.81.81,0,0,1-.14-.49l.07-.3a.28.28,0,0,0-.08-.15.3.3,0,0,1-.08-.16.12.12,0,0,1,0-.09s0-.05,0-.09a.34.34,0,0,0,0-.17.61.61,0,0,1,0-.16l.09-.76q0-.09-.06-.09s-.11.05-.22.15a.52.52,0,0,1-.38.16.7.7,0,0,0-.2.39,1.37,1.37,0,0,1-.31.27l-.06.1a.37.37,0,0,1-.24.18.58.58,0,0,0-.28.17l-.15.16-.29,0a1.58,1.58,0,0,0-.18.27,1.35,1.35,0,0,1-.35.4l-1.18,1c-.12.08-.31.18-.54.31l-.1.09a4,4,0,0,1-1.75.82,2.74,2.74,0,0,1-1-.23c-.37-.16-.57-.34-.6-.56l-.16-.64a1.11,1.11,0,0,1-.14-.6.6.6,0,0,1,0-.25v-.09l0-.51c0-.13.1-.19.3-.19l0-.42a2.17,2.17,0,0,1,.27-.48,2.14,2.14,0,0,1,.36-.49l.16-.21a.5.5,0,0,1,.22-.39,2.07,2.07,0,0,0,.37-.43,2,2,0,0,1,.53-.48l.46-.46a5.06,5.06,0,0,1,1.18-.87,1.47,1.47,0,0,0,.38-.31,1.79,1.79,0,0,1,.65-.41,4.69,4.69,0,0,0,.72-.33,1.16,1.16,0,0,1,.55-.21h.12a5.51,5.51,0,0,0,.83-.38h.09a.93.93,0,0,1,.29.12h0l.24-.12a.38.38,0,0,1,.16,0c.64,0,1,.44,1,1.33,0,.18.08.28.16.28s.25-.19.44-.57a1.24,1.24,0,0,1,1.22-.56c.44,0,.67.28.67.85a2.73,2.73,0,0,1-.9,1.91.79.79,0,0,0-.1.27l-.21.64v0a.51.51,0,0,1-.14.26.5.5,0,0,0-.13.28l0,.39-.06.43a.52.52,0,0,0,.11.39,1.26,1.26,0,0,0,.72-.41c.15-.19.25-.3.32-.32l.15-.06A1.5,1.5,0,0,1,371.56,387.4Zm-5.14,0a.7.7,0,0,1,.38-.52.75.75,0,0,0,.38-.37,8.72,8.72,0,0,0,.84-.77c.37-.38.55-.6.55-.69s0,0-.06,0h0l-.13.08-.27,0-.3,0-.22-.11-.2,0-.31-.06a.82.82,0,0,0-.42.1,3.49,3.49,0,0,1-.69.22,2.5,2.5,0,0,0-.9.43,1.26,1.26,0,0,1-.59.3,2.32,2.32,0,0,1-.73.66.73.73,0,0,0-.48.55c-.27.21-.4.34-.4.37l-.11.26a.79.79,0,0,1-.31.18.36.36,0,0,0-.22.33.84.84,0,0,1-.21.46.59.59,0,0,0-.18.34c0,.5.1.76.3.76a2,2,0,0,0,.52-.17,2.2,2.2,0,0,0,.45-.22.91.91,0,0,1,.25-.13l.3-.15a.25.25,0,0,1,.14-.08.26.26,0,0,0,.15-.1,1,1,0,0,1,.28-.19.63.63,0,0,0,.31-.27l.85-.48.33-.24a1.35,1.35,0,0,0,.42-.27A.74.74,0,0,1,366.42,387.4Z"/><path class="b61e12ab-be86-4d20-b299-f624e9f1e51a" d="M375.85,384l.22-.39a1.49,1.49,0,0,1,.24-.28,2,2,0,0,0,.32-.76,2.19,2.19,0,0,1,.38-.85.79.79,0,0,1,.61-.23,1.26,1.26,0,0,1,.61.22,2.52,2.52,0,0,1,.75,1.36,6.38,6.38,0,0,1,.37,1.6,1.41,1.41,0,0,0,.1.47,2.32,2.32,0,0,1,.14.44,2,2,0,0,0-.12.3l0,.63-.19.51v.38a1.19,1.19,0,0,0-.18.38.35.35,0,0,0,.06.19,2.55,2.55,0,0,0,.88-.51.79.79,0,0,1,.31-.24,1.55,1.55,0,0,0,.48-.4l.29-.16a3.3,3.3,0,0,0,.27-.33.7.7,0,0,1,.25-.21,1.53,1.53,0,0,0,.35-.21,3.1,3.1,0,0,1,.59-.36l.16-.19a1.62,1.62,0,0,1,.55-.41,2.05,2.05,0,0,1,.34-.16c.07,0,.15.1.23.29a1.64,1.64,0,0,1,.11.56.7.7,0,0,1-.3.52,4.46,4.46,0,0,0-.41.38.93.93,0,0,1-.49.22s-.19.22-.51.64l-.32.18-.15.2s-.16.08-.42.13c0,0,0,0-.07.15s-.15.18-.33.22a4.15,4.15,0,0,0-.57.57l-.33.06a1.08,1.08,0,0,1-.15.36c-.25.06-.39.17-.42.31l-.16.06-.06.05a1.68,1.68,0,0,1-.7.34l-.35.09-.13.19c0,.05-.12.12-.38.2a1.4,1.4,0,0,0-.56.31l-.26.2a1.65,1.65,0,0,0-.61.34h-.21a1.51,1.51,0,0,0-.69.32,1.44,1.44,0,0,1-.74.32,2.34,2.34,0,0,1-1.23-.23,2.06,2.06,0,0,1-.55-.55,4,4,0,0,0-.4-.54.58.58,0,0,1-.17-.33q0-.11.15-.21a1.34,1.34,0,0,0,.31-.44c.12-.23.41-.37.87-.43l.23-.09a.65.65,0,0,1,.31-.1c.1,0,.23.1.39.28t.06,0l.25,0a.49.49,0,0,0,.23.13,1.23,1.23,0,0,0,.79-.38l.06,0h.13s.08-.08.15-.26l.26-.54.55-.7v-.16a1.47,1.47,0,0,1,.09-.27v-.24c0-.09.06-.15.18-.17s.19-.09.19-.2l0-.12a.54.54,0,0,1-.12-.27l.15-.31,0-.32.06-.13a1.8,1.8,0,0,1-.06-.24l.06-.39-.08-.29c-.06-.19-.1-.28-.14-.28s-.26.16-.59.48a2.82,2.82,0,0,0-.58.68,1,1,0,0,1-.4.36.94.94,0,0,0-.41.37.4.4,0,0,1-.27.23l-1,.84-1.13.83c-.08.1-.13.14-.15.14-.39,0-.58-.21-.58-.63a2.32,2.32,0,0,1,.23-.73l.17-.1s.05,0,.05,0,0,0,0,0l.09.06h0a5.31,5.31,0,0,1,.74-.44.7.7,0,0,0,.31-.34l.65-.47a7.73,7.73,0,0,0,.76-.68A4.51,4.51,0,0,0,375.85,384Z"/><path class="b61e12ab-be86-4d20-b299-f624e9f1e51a" d="M381.82,386l.25-.22h.09c.07,0,.18-.07.33-.23l.15-.06a1.34,1.34,0,0,1,.54-.54l.25-.19a.5.5,0,0,1,.18-.11,1.37,1.37,0,0,0,.37-.3.71.71,0,0,1,.42-.26.9.9,0,0,1,.25,0,.94.94,0,0,1,.36-.36,1.43,1.43,0,0,0,.45-.43l.21-.09a1.71,1.71,0,0,0,.44-.32.72.72,0,0,1,.5-.19,1.39,1.39,0,0,1,.94.46,1.23,1.23,0,0,1,.49.87l-.26,1.21c-.18.89-.37,1.35-.59,1.4l-.06.32c-.15.11-.22.19-.22.25l.09.37c0,.05-.06.13-.17.24s0,0,0,.09v.63c0,.12-.07.21-.22.28l.1.06a.63.63,0,0,1,.41-.09l.25,0,.34-.34a1.17,1.17,0,0,0,.3-.15q.19-.11.66-.3l2-1.55q.42-.42.63-.42c.16,0,.23.1.23.3a1.16,1.16,0,0,1-.12.56,2.59,2.59,0,0,0-.24.55,1,1,0,0,1-.26.44,1,1,0,0,0-.24.27,2,2,0,0,1-.5.43,4.18,4.18,0,0,0-.7.56,2.92,2.92,0,0,1-.48.41l-.66.48-.1.16a1.21,1.21,0,0,1-.28.13,2.25,2.25,0,0,0-.46.25l-.28.16a.64.64,0,0,1-.3.08.52.52,0,0,0-.36.18c-.11.1-.19.16-.25.16l-.23,0-.31.09a1.09,1.09,0,0,1-.64-.32.87.87,0,0,1-.39-.67v-.09l0-.22a1.47,1.47,0,0,0-.09-.32,1.68,1.68,0,0,1-.09-.29l0-.21,0-.1a1.36,1.36,0,0,1,.06-.52,1,1,0,0,0,.09-.31,1.8,1.8,0,0,1,.07-.31l.08-.39a.36.36,0,0,1,.15-.25q0-.12.12-.42l.06-.28.16-.21a.63.63,0,0,0,.15-.34,1.08,1.08,0,0,1,.16-.44,1.07,1.07,0,0,0,.14-.28c0-.12-.06-.18-.19-.18a1.43,1.43,0,0,0-.39.24l-.28-.09s-.07.05-.16.16-.05.07-.15.09a.46.46,0,0,0-.26.23l-.12,0-.2-.09H384c-.1,0-.16.11-.18.34a.78.78,0,0,1-.45.33l-.34.09a.4.4,0,0,0-.25.28,1,1,0,0,1-.31.4.8.8,0,0,1-.31.17c-.29,0-.43-.16-.43-.48l.12-.73Zm6.69-7.75-.09-.6v-.1c0-.48.17-.75.5-.8.07,0,.29-.08.65-.2a1.1,1.1,0,0,1,.58.48,1.4,1.4,0,0,1,.3.76.51.51,0,0,1,0,.14,1,1,0,0,0-.07.41.7.7,0,0,1-.3.52,1,1,0,0,1-.61.23.92.92,0,0,1-.55-.3A1,1,0,0,1,388.51,378.28Z"/><path class="b61e12ab-be86-4d20-b299-f624e9f1e51a" d="M393.91,384l.22-.39a1.49,1.49,0,0,1,.24-.28,2,2,0,0,0,.32-.76,2.19,2.19,0,0,1,.38-.85.79.79,0,0,1,.61-.23,1.26,1.26,0,0,1,.61.22,2.52,2.52,0,0,1,.75,1.36,6.23,6.23,0,0,1,.36,1.6,1.47,1.47,0,0,0,.11.47,2.32,2.32,0,0,1,.14.44,2,2,0,0,0-.12.3l0,.63-.19.51v.38a1.34,1.34,0,0,0-.19.38.37.37,0,0,0,.07.19,2.66,2.66,0,0,0,.88-.51.77.77,0,0,1,.3-.24,1.55,1.55,0,0,0,.49-.4l.29-.16a3.3,3.3,0,0,0,.27-.33.7.7,0,0,1,.25-.21,1.78,1.78,0,0,0,.35-.21,3.1,3.1,0,0,1,.59-.36l.15-.19a1.84,1.84,0,0,1,.55-.41,1.93,1.93,0,0,1,.35-.16c.07,0,.15.1.23.29a1.64,1.64,0,0,1,.11.56.7.7,0,0,1-.3.52,4.46,4.46,0,0,0-.41.38.93.93,0,0,1-.5.22s-.19.22-.51.64l-.31.18-.15.2s-.16.08-.42.13c0,0,0,0-.07.15s-.15.18-.33.22a3.94,3.94,0,0,0-.58.57l-.32.06a.86.86,0,0,1-.16.36c-.24.06-.38.17-.41.31l-.16.06-.06.05a1.68,1.68,0,0,1-.7.34l-.35.09-.13.19c0,.05-.12.12-.38.2a1.4,1.4,0,0,0-.56.31l-.26.2a1.49,1.49,0,0,0-.61.34h-.22a1.53,1.53,0,0,0-.68.32,1.47,1.47,0,0,1-.74.32,2.34,2.34,0,0,1-1.23-.23,1.8,1.8,0,0,1-.55-.55,5.06,5.06,0,0,0-.4-.54.58.58,0,0,1-.17-.33.29.29,0,0,1,.14-.21,1.21,1.21,0,0,0,.32-.44c.12-.23.41-.37.87-.43l.22-.09a.72.72,0,0,1,.32-.1c.1,0,.23.1.39.28t.06,0l.25,0a.49.49,0,0,0,.23.13,1.23,1.23,0,0,0,.79-.38l.06,0h.12s.09-.08.16-.26l.26-.54.54-.7v-.16a1.16,1.16,0,0,1,.1-.27v-.24c0-.09.06-.15.18-.17s.19-.09.19-.2l0-.12a.58.58,0,0,1-.13-.27l.16-.31,0-.32.06-.13a1.8,1.8,0,0,1-.06-.24l.06-.39-.08-.29c-.06-.19-.11-.28-.14-.28s-.26.16-.59.48a3.24,3.24,0,0,0-.59.68.84.84,0,0,1-.4.36.91.91,0,0,0-.4.37.42.42,0,0,1-.27.23l-1,.84L391,388c-.08.1-.14.14-.16.14q-.57,0-.57-.63a2.32,2.32,0,0,1,.23-.73l.17-.1s.05,0,.05,0,0,0,0,0l.09.06h0a5.19,5.19,0,0,1,.75-.44.7.7,0,0,0,.31-.34l.65-.47a7.73,7.73,0,0,0,.76-.68A4.51,4.51,0,0,0,393.91,384Z"/><path class="b61e12ab-be86-4d20-b299-f624e9f1e51a" d="M402.05,384.51l.27-.06.26-.31a1.11,1.11,0,0,1,.41-.29,1,1,0,0,0,.43-.49,2.62,2.62,0,0,1,1.11-.76c.44.19.69.39.77.62a3.57,3.57,0,0,1,.11,1.09,1.19,1.19,0,0,1-.15.5,4.3,4.3,0,0,0-.22.48,3,3,0,0,1-.29.52s0,.06-.08.11a1.18,1.18,0,0,0-.18.32,1.57,1.57,0,0,1-.29.42,1.3,1.3,0,0,0-.27.43,7.52,7.52,0,0,1-.42.79,5.88,5.88,0,0,0-.34,1.06c0,.12,0,.17.09.17a.61.61,0,0,0,.22-.09l.14,0h.18l.22-.15a1.29,1.29,0,0,0,.06-.22,2.75,2.75,0,0,1,.42-.18l0,0a.51.51,0,0,1,0-.17c0-.11.1-.17.3-.21a.78.78,0,0,0,.46-.2c0-.13,0-.21.07-.23s.11-.09.18-.22a.42.42,0,0,1,.33-.21c.16,0,.23-.09.23-.19a.92.92,0,0,1,.58-.81.14.14,0,0,0,.12-.15c0-.2,0-.31.05-.33a1.91,1.91,0,0,1,.27-.18l.32-.4.14-.33a.5.5,0,0,1,.15-.2,1.21,1.21,0,0,0,.23-.35,1.88,1.88,0,0,1,.23-.36l.18-.27a.61.61,0,0,1,.53-.4c.12,0,.37.16.75.49a1.78,1.78,0,0,1,.59,1.45c0,.24-.07.39-.2.45s-.22.22-.28.52a2.85,2.85,0,0,1-.31.83,3.52,3.52,0,0,0-.2.41l.06.19v.06a.7.7,0,0,0-.1.84l-.15.25c0,.4.11.6.22.6a.69.69,0,0,0,.24-.06,1,1,0,0,1,.29-.08,1.26,1.26,0,0,0,.46-.22l1-.63.19-.22.14-.09a.64.64,0,0,0,.34-.35.38.38,0,0,1,.3-.26,1.26,1.26,0,0,1,.37-.66l.45-.86a3.24,3.24,0,0,1,.22-.38,4.19,4.19,0,0,0-.4-1.49v-.09a1,1,0,0,1,.2-.61c.13-.19.26-.29.38-.29l.33,0,.42-.09a2.14,2.14,0,0,1,.68.45,1.46,1.46,0,0,1,.55,1.14,1.73,1.73,0,0,1-.16.75,2.41,2.41,0,0,0-.2.61.59.59,0,0,1-.31.44l-.06.08a1.37,1.37,0,0,1-.61,1.1,5.3,5.3,0,0,0-.32.56c-.12.23-.22.36-.32.4a2.26,2.26,0,0,0-.24.35,1.24,1.24,0,0,1-.31.41,3.46,3.46,0,0,1-.43.21c-.21.08-.32.2-.32.33l0,.22a4.06,4.06,0,0,0-.7.57l-.31.06a2.37,2.37,0,0,1-1.77.64,1.87,1.87,0,0,1-1.17-.54,1.47,1.47,0,0,1-.61-1.09l-.15-.5a9.35,9.35,0,0,1,.1-1.71.27.27,0,0,0,.05-.13c0-.12,0-.19-.12-.19a1.33,1.33,0,0,0-.16.26.45.45,0,0,1-.2.24l-.24.2c-.05.25-.1.39-.16.42a1.19,1.19,0,0,0-.27.24,2.06,2.06,0,0,1-.42.35,4.06,4.06,0,0,1-.63.93v.09l-.16.1-.24.24a7.78,7.78,0,0,1-1.19.82,4.48,4.48,0,0,1-1.1.58,1,1,0,0,1-.72-.3,1,1,0,0,1-.35-.63,3.34,3.34,0,0,0-.14-.62,1.58,1.58,0,0,1-.09-.42,2,2,0,0,1,.06-.31c0-.17.06-.32.08-.46a.59.59,0,0,1,0-.24v-.29a1.21,1.21,0,0,1,.18-.25.68.68,0,0,0,.18-.45.65.65,0,0,1,.14-.29,1.8,1.8,0,0,0,.19-.35,1.07,1.07,0,0,1,.25-.34,2.13,2.13,0,0,1,.13-.44,1.18,1.18,0,0,0,.11-.35.09.09,0,0,0,0-.06c-.15,0-.36.14-.64.4l-.27.16a4.76,4.76,0,0,0-.7.51c-.15.2-.29.3-.41.3-.49,0-.73-.23-.73-.67a.5.5,0,0,1,.18-.45.57.57,0,0,0,.21-.24c0-.08.14-.14.37-.19s.49-.28.76-.72c.23,0,.37,0,.41-.11A1.47,1.47,0,0,1,402.05,384.51Z"/><path class="b61e12ab-be86-4d20-b299-f624e9f1e51a" d="M428.68,387.4l.25-.22a.26.26,0,0,0,.28-.21c0-.14.14-.25.33-.33a1.27,1.27,0,0,0,.53-.51c.17-.25.34-.38.51-.38s.14.05.22.16a.44.44,0,0,1,.12.24,2.08,2.08,0,0,1-.31,1.06l-.06.43-.11.2a.67.67,0,0,0-.3.27,1.25,1.25,0,0,1-.37.34l-.15.22a.71.71,0,0,0-.46.35.44.44,0,0,1-.32.28.85.85,0,0,0-.46.31,2.21,2.21,0,0,1-.37.14l0,.16a1.07,1.07,0,0,1-.48.24,3.31,3.31,0,0,0-.5.18.55.55,0,0,1-.22.09,1.26,1.26,0,0,1-.55-.12,1.5,1.5,0,0,0-.51-.15.35.35,0,0,1-.1-.2.69.69,0,0,0-.16-.28.81.81,0,0,1-.14-.49l.07-.3a.28.28,0,0,0-.08-.15.24.24,0,0,1-.08-.16.12.12,0,0,1,0-.09.12.12,0,0,0,0-.09.51.51,0,0,0,0-.17.61.61,0,0,1,0-.16l.09-.76q0-.09-.06-.09s-.11.05-.23.15a.51.51,0,0,1-.38.16.7.7,0,0,0-.2.39,1.18,1.18,0,0,1-.31.27l-.06.1c0,.07-.1.13-.23.18a.5.5,0,0,0-.28.17l-.16.16-.29,0a1.92,1.92,0,0,0-.17.27,1.35,1.35,0,0,1-.35.4l-1.19,1c-.12.08-.3.18-.54.31l-.09.09a4.06,4.06,0,0,1-1.75.82,2.69,2.69,0,0,1-1-.23c-.37-.16-.57-.34-.6-.56l-.16-.64a1.11,1.11,0,0,1-.14-.6.65.65,0,0,1,0-.25v-.09l0-.51c0-.13.1-.19.3-.19l0-.42a2.17,2.17,0,0,1,.27-.48,2.14,2.14,0,0,1,.36-.49l.16-.21a.51.51,0,0,1,.21-.39,1.81,1.81,0,0,0,.37-.43,2.16,2.16,0,0,1,.53-.48l.47-.46a4.86,4.86,0,0,1,1.18-.87,1.47,1.47,0,0,0,.38-.31,1.79,1.79,0,0,1,.65-.41,5.05,5.05,0,0,0,.71-.33,1.22,1.22,0,0,1,.56-.21h.12a5.72,5.72,0,0,0,.82-.38h.1a1,1,0,0,1,.29.12h0l.25-.12a.33.33,0,0,1,.15,0c.64,0,1,.44,1.06,1.33,0,.18.07.28.15.28s.25-.19.45-.57a1.23,1.23,0,0,1,1.22-.56c.44,0,.66.28.66.85a2.69,2.69,0,0,1-.9,1.91,1.07,1.07,0,0,0-.09.27l-.22.64v0a.47.47,0,0,1-.13.26.44.44,0,0,0-.13.28l0,.39-.06.43c0,.2,0,.33.11.39a1.33,1.33,0,0,0,.72-.41,1,1,0,0,1,.31-.32l.16-.06A1.5,1.5,0,0,1,428.68,387.4Zm-5.15,0a.73.73,0,0,1,.38-.52.71.71,0,0,0,.38-.37,7.53,7.53,0,0,0,.85-.77c.36-.38.55-.6.55-.69s0,0-.06,0h0l-.13.08-.28,0-.3,0-.21-.11-.2,0-.31-.06a.83.83,0,0,0-.43.1,3.57,3.57,0,0,1-.68.22,2.47,2.47,0,0,0-.91.43,1.24,1.24,0,0,1-.58.3,2.39,2.39,0,0,1-.74.66.77.77,0,0,0-.48.55c-.27.21-.4.34-.4.37l-.11.26a.75.75,0,0,1-.3.18.38.38,0,0,0-.23.33.83.83,0,0,1-.2.46.59.59,0,0,0-.18.34c0,.5.1.76.29.76a1.9,1.9,0,0,0,.52-.17,2.12,2.12,0,0,0,.46-.22.78.78,0,0,1,.25-.13l.29-.15a.34.34,0,0,1,.14-.08.28.28,0,0,0,.16-.1.88.88,0,0,1,.28-.19.61.61,0,0,0,.3-.27l.86-.48.33-.24a1.27,1.27,0,0,0,.41-.27A.92.92,0,0,1,423.53,387.4Z"/><path class="b61e12ab-be86-4d20-b299-f624e9f1e51a" d="M445.27,373.68l.26-.22.31,0a.73.73,0,0,0,.45-.14.81.81,0,0,1,.3-.15.51.51,0,0,0,.28-.16,1.08,1.08,0,0,1,.47-.19.86.86,0,0,0,.46-.2.6.6,0,0,1,.31-.17,2.57,2.57,0,0,0,.42-.14l1.4-.43.18.06h.06a.56.56,0,0,0,.36-.15.69.69,0,0,1,.43-.14,1.94,1.94,0,0,0,.6-.19l.09.09q.25-.27.42-.27h.09l.28.06a2,2,0,0,1,.64-.13l.35,0,.1,0a.53.53,0,0,1,.34-.17H454l.64-.15.18.06a.92.92,0,0,1,.58-.15h.15l.15,0a1.53,1.53,0,0,0,.29-.1,5.07,5.07,0,0,1,1.25-.09l.4.06.42-.15.43.09.18-.06h.06l.15.06h0l1.12-.16.12,0c.09-.07.15-.11.19-.11l.29.07a1.12,1.12,0,0,0,.44-.16l.09.09,1.06-.13.38,0,.34-.07a1,1,0,0,1,.77.27.83.83,0,0,1,.26.56l.06.47-.1.27,0,.31a.41.41,0,0,1-.23.25s0,0-.14.07a.71.71,0,0,0-.28.13,2.47,2.47,0,0,1-.91.09.5.5,0,0,1-.5-.24c-.07-.16-.15-.25-.23-.27l-.66-.28a.36.36,0,0,0-.19,0h-.12l-.64.06-.17,0-.22.09-1.14-.06-.47,0-.32-.06-.22,0a3.85,3.85,0,0,1-.65.07c-.33,0-.5.13-.5.31a.78.78,0,0,0,.13.38.64.64,0,0,1,.14.32,1.08,1.08,0,0,0-.23.42,1.55,1.55,0,0,0-.22.2c-.11.11-.3.27-.57.49a2.45,2.45,0,0,0-.58.61.44.44,0,0,1-.37.28,2.1,2.1,0,0,0-.39.48l-.12.13s0,.06,0,.14a.24.24,0,0,1-.1.18l-.13.37a3.52,3.52,0,0,0-.64.81l-.18.09-.19.22h-.22c-.09,0-.14.06-.14.18l.07.46a1.38,1.38,0,0,0-.38.54L452,379a2.08,2.08,0,0,0-.33.35,3,3,0,0,1-.31.67l0,.16a4.9,4.9,0,0,1-1.08,1.51,2.16,2.16,0,0,0-.19.9c-.31.61-.52.91-.63.89a3,3,0,0,1-.2,1c-.11.24-.25.61-.41,1.09a3.31,3.31,0,0,1-.54,1l-.06.13a1.67,1.67,0,0,1-.16.24,7.87,7.87,0,0,1-.29,1.34l-.1.66-.31.87a.41.41,0,0,0,0,.19.62.62,0,0,0,.1.24.65.65,0,0,1,.1.33.72.72,0,0,1-.08.35.7.7,0,0,0-.08.35.62.62,0,0,1-.51.63h-.12l-.33,0a1.5,1.5,0,0,1-1.17-.62,2.49,2.49,0,0,1-.53-1.7,4.62,4.62,0,0,1,.09-.48c.06-.27.1-.45.11-.53a.81.81,0,0,1,.08-.25,1,1,0,0,0,.06-.38,2.3,2.3,0,0,1,.38-1.32,7.32,7.32,0,0,0,.5-.81.2.2,0,0,1,.11-.14.9.9,0,0,1,0-.31.83.83,0,0,1,.38-.72,1.53,1.53,0,0,1,.11-.29c.05-.11.16-.37.32-.79s.39-.67.66-.74c0,0,0-.1.18-.25l-.06-.54c0-.08.09-.22.28-.42l.26-.43a.8.8,0,0,1,.41-.48.36.36,0,0,1,.2-.19s.05-.17.13-.39a3.52,3.52,0,0,1,.49-.81c.26-.33.5-.66.74-1s.44-.53.63-.54a.32.32,0,0,0,.32-.32l.09-.58a2.84,2.84,0,0,0,.54-.54l.22-.25a.51.51,0,0,1,.16-.28,1.62,1.62,0,0,0,.26-.29,2,2,0,0,1,.38-.39,2.17,2.17,0,0,1,.92-1.1l.25-.26a2.52,2.52,0,0,1,.43-.51.74.74,0,0,0,.26-.34.56.56,0,0,1,.33-.33c.17-.07.25-.15.25-.25s0-.06-.13-.06a1.7,1.7,0,0,0-.41.09h-.13l-.28.07h-.09l-.26-.07a1.33,1.33,0,0,1-.43.1l-.21.13h-.34l-.19.19-.13,0-.4-.06a.82.82,0,0,0-.46.19,1.94,1.94,0,0,1-.5.11,3.47,3.47,0,0,0-.95.28,2.11,2.11,0,0,1-.55.21l-.28-.06h0a.5.5,0,0,0-.37.2.73.73,0,0,1-.49.25h-.19a1.65,1.65,0,0,0-.63.18,2.92,2.92,0,0,1-.42.19l-.28,0a1.7,1.7,0,0,1-.32.17.87.87,0,0,0-.26.15.89.89,0,0,1-.25.14,1.3,1.3,0,0,0-.28.17.47.47,0,0,1-.26.13h-.06l-.19,0c-.07,0-.16.06-.28.19a.72.72,0,0,1-.32.24.81.81,0,0,0-.27.15.54.54,0,0,1-.27.12,1.34,1.34,0,0,0-.23.34,1.56,1.56,0,0,1-.35.45,1.5,1.5,0,0,0-.29.31c-.05.07-.09.1-.13.1-.51,0-.76-.31-.76-.94l.31-.67a1.47,1.47,0,0,1,1-1,3.14,3.14,0,0,0,.89-.34Z"/><path class="b61e12ab-be86-4d20-b299-f624e9f1e51a" d="M454,386l.25-.22h.1c.07,0,.18-.07.32-.23l.16-.06a1.28,1.28,0,0,1,.54-.54l.25-.19a.5.5,0,0,1,.18-.11,1.55,1.55,0,0,0,.37-.3.72.72,0,0,1,.41-.26.9.9,0,0,1,.25,0,1,1,0,0,1,.37-.36,1.43,1.43,0,0,0,.45-.43l.2-.09a1.43,1.43,0,0,0,.44-.32.73.73,0,0,1,.51-.19,1.41,1.41,0,0,1,.94.46,1.27,1.27,0,0,1,.49.87l-.27,1.21c-.17.89-.37,1.35-.59,1.4l-.06.32c-.14.11-.22.19-.22.25l.1.37c0,.05-.06.13-.17.24s0,0,0,.09v.63c0,.12-.08.21-.22.28l.09.06a.64.64,0,0,1,.42-.09l.25,0,.34-.34a1.36,1.36,0,0,0,.3-.15q.19-.11.66-.3l2-1.55c.27-.28.49-.42.63-.42s.23.1.23.3a1.06,1.06,0,0,1-.13.56,2.59,2.59,0,0,0-.24.55,1,1,0,0,1-.25.44,1,1,0,0,0-.24.27,2.34,2.34,0,0,1-.51.43,5.2,5.2,0,0,0-.7.56,2.93,2.93,0,0,1-.47.41l-.66.48-.1.16a1.44,1.44,0,0,1-.29.13,2.17,2.17,0,0,0-.45.25l-.28.16a.64.64,0,0,1-.3.08.55.55,0,0,0-.37.18.48.48,0,0,1-.24.16l-.24,0-.31.09a1.12,1.12,0,0,1-.64-.32.86.86,0,0,1-.38-.67v-.09l0-.22a1.47,1.47,0,0,0-.09-.32,1.31,1.31,0,0,1-.1-.29l0-.21,0-.1a1.13,1.13,0,0,1,.07-.52,1,1,0,0,0,.09-.31c0-.12,0-.23.06-.31l.08-.39a.4.4,0,0,1,.16-.25,4,4,0,0,1,.12-.42l.06-.28.15-.21a.51.51,0,0,0,.15-.34,1.24,1.24,0,0,1,.16-.44.94.94,0,0,0,.15-.28.17.17,0,0,0-.19-.18,1.29,1.29,0,0,0-.39.24l-.28-.09s-.08.05-.17.16,0,.07-.14.09a.46.46,0,0,0-.26.23l-.12,0-.21-.09h-.06c-.1,0-.17.11-.19.34a.75.75,0,0,1-.45.33l-.33.09a.4.4,0,0,0-.25.28,1,1,0,0,1-.31.4.87.87,0,0,1-.31.17c-.29,0-.44-.16-.44-.48l.12-.73Zm6.7-7.75-.09-.6v-.1c0-.48.16-.75.49-.8.07,0,.29-.08.66-.2a1.14,1.14,0,0,1,.58.48,1.4,1.4,0,0,1,.3.76.81.81,0,0,1-.05.14,1.35,1.35,0,0,0-.06.41.7.7,0,0,1-.3.52,1,1,0,0,1-.62.23.92.92,0,0,1-.54-.3A1,1,0,0,1,460.68,378.28Z"/><path class="b61e12ab-be86-4d20-b299-f624e9f1e51a" d="M470,384.36l.43-.21a1.56,1.56,0,0,0,.42-.4l.54-.39a1.72,1.72,0,0,1,.61-.31l.25.1s.08-.07.19-.2a.5.5,0,0,1,.38-.19,1.35,1.35,0,0,1,.76.42,1.13,1.13,0,0,1,.48.74l-.06.53a5.64,5.64,0,0,0,.12.7v.12l-.06.37.06.39-.17.76c0,.2.07.29.2.29a1.22,1.22,0,0,1,.45-.29l.22-.22c.08-.08.14-.12.19-.12s.09-.05.16-.15a.56.56,0,0,1,.25-.21.35.35,0,0,0,.22-.21,3.82,3.82,0,0,1,1.33-1.09c.05,0,.12-.05.21-.16a.73.73,0,0,1,.24-.18l.35-.26.14.06h0a.76.76,0,0,0,.25-.16.73.73,0,0,1,.31-.15,1.28,1.28,0,0,1,1,.39c.25.27.38.47.38.62l-.08.35.12.48v.31l-.08.33a.47.47,0,0,0,.13.26.62.62,0,0,1,.13.23q-.18.21-.18.27l0,.28-.08.85a.82.82,0,0,0,.2.36.7.7,0,0,1,.26-.11,1.18,1.18,0,0,0,.26-.1l.1-.07h0l.19.06h.06c.08,0,.13-.08.14-.24a.5.5,0,0,1,.31-.4l.37,0a1.47,1.47,0,0,0,.13-.25,2.47,2.47,0,0,1,.65-.67,1.64,1.64,0,0,1,.84-.44c.17,0,.25.07.25.22a2.08,2.08,0,0,1-.06.32.83.83,0,0,1,.12.38c0,.19-.17.4-.5.63a2.31,2.31,0,0,0-.77.85l-.06.06-.31,0s-.07.08-.15.24-.16.25-.27.28a.41.41,0,0,0-.21.09l-.33.2a6.24,6.24,0,0,0-.61.63c-.35.38-.64.56-.88.56a1.7,1.7,0,0,1-.55-.16,1.54,1.54,0,0,1-.55-.33A2.38,2.38,0,0,0,478,390a1.06,1.06,0,0,1-.25-.82s0-.06.08-.11.08-.09.08-.13a1.43,1.43,0,0,1-.35-.66.75.75,0,0,1,0-.2.75.75,0,0,0,0-.2l0-.55.06-.28,0-.17.09-.79q0-.18-.21-.18c-.05,0-.1,0-.17.12a1.05,1.05,0,0,1-.27.2c-.11,0-.23.19-.35.44a1,1,0,0,0-.38.3c-.07.1-.13.15-.17.15l-.12,0a.33.33,0,0,0-.19.28v.06l0,.12c0,.09-.07.18-.23.26a2.37,2.37,0,0,0-.58.64.51.51,0,0,0-.21,0l-.19.37a.88.88,0,0,0-.29.33l-.19.09a3,3,0,0,1-.21.34l-.1.17c-.44.53-.75.79-.93.79s-.39-.23-.64-.69a2.56,2.56,0,0,1-.37-1.09l.06-.57a1.09,1.09,0,0,0-.12-.25v-.06a3.11,3.11,0,0,1,.12-.36v-.46a.14.14,0,0,0,0-.1v-.08a1,1,0,0,1,.13-.24l-.1-.45.06-.25,0-.54.07-.48a.39.39,0,0,0-.09-.17c0-.07-.09-.11-.11-.11a2.28,2.28,0,0,0-.65.35,5.53,5.53,0,0,0-.72.56,5.68,5.68,0,0,1-.49.48,1,1,0,0,0-.45.79s0,0-.06,0,0,0-.09-.06h-.07c-.05,0-.21.22-.48.67l-.06.06-.29-.06c-.25,0-.37.26-.37.79,0,.09-.07.15-.2.18a.47.47,0,0,0-.3.27,3.06,3.06,0,0,1-.29.45,1.12,1.12,0,0,0-.41.23l-.34.47c-.23.3-.35.47-.38.52a.51.51,0,0,1-.2.18c-.13.07-.18.13-.18.18l0,.26c0,.17-.16.25-.48.25-.62,0-.93-.65-.93-1.94a.9.9,0,0,1,.19-.49,4.29,4.29,0,0,0,.38-.65,6.81,6.81,0,0,0,.7-.86,7.14,7.14,0,0,1,.61-.76l.2-.32a.43.43,0,0,1,.07-.28.36.36,0,0,0,.08-.23c0-.17,0-.25-.12-.25a.7.7,0,0,0-.47.15,1.28,1.28,0,0,1-.38.21.38.38,0,0,0-.27.21,1.33,1.33,0,0,0-.46.4c-.16.2-.26.33-.31.38a.71.71,0,0,0-.15.21.27.27,0,0,1-.18.14.37.37,0,0,0-.2.11.37.37,0,0,1-.3.09c-.09,0-.17-.09-.25-.28a1.83,1.83,0,0,1-.11-.35q0-1.14,1.5-2a2.49,2.49,0,0,0,.32-.22.81.81,0,0,1,.24-.17l.06-.11a2.63,2.63,0,0,1,.93-.53h.22l1-.26q.66-.15.66,1.5l0,.28.06.13a5.36,5.36,0,0,1,.54-.45,1.74,1.74,0,0,0,.39-.34A1.25,1.25,0,0,1,470,384.36Z"/><path class="b61e12ab-be86-4d20-b299-f624e9f1e51a" d="M495.38,387.4l.24-.22a.25.25,0,0,0,.28-.21.49.49,0,0,1,.33-.33,1.22,1.22,0,0,0,.53-.51c.17-.25.34-.38.51-.38s.14.05.22.16a.47.47,0,0,1,.13.24,2.18,2.18,0,0,1-.31,1.06l-.07.43-.1.2a.71.71,0,0,0-.31.27,1.07,1.07,0,0,1-.36.34l-.16.22a.72.72,0,0,0-.45.35.43.43,0,0,1-.33.28.83.83,0,0,0-.45.31,2.35,2.35,0,0,1-.38.14l0,.16a1.06,1.06,0,0,1-.49.24,3.11,3.11,0,0,0-.49.18.63.63,0,0,1-.23.09,1.25,1.25,0,0,1-.54-.12,1.5,1.5,0,0,0-.51-.15.37.37,0,0,1-.11-.2.59.59,0,0,0-.16-.28.81.81,0,0,1-.13-.49l.06-.3a.28.28,0,0,0-.08-.15.3.3,0,0,1-.08-.16.12.12,0,0,1,0-.09.1.1,0,0,0,0-.09.35.35,0,0,0,0-.17.61.61,0,0,1,0-.16l.1-.76c0-.06,0-.09-.07-.09s-.11.05-.22.15a.51.51,0,0,1-.38.16.7.7,0,0,0-.2.39,1.37,1.37,0,0,1-.31.27l-.06.1c0,.07-.1.13-.23.18a.5.5,0,0,0-.28.17l-.16.16-.29,0-.18.27a1.35,1.35,0,0,1-.35.4l-1.18,1c-.12.08-.3.18-.54.31l-.09.09a4.08,4.08,0,0,1-1.76.82,2.69,2.69,0,0,1-1-.23c-.38-.16-.58-.34-.61-.56l-.15-.64a1,1,0,0,1-.14-.6.65.65,0,0,1,0-.25v-.09l0-.51c0-.13.1-.19.29-.19l0-.42a2.17,2.17,0,0,1,.27-.48,2.05,2.05,0,0,1,.37-.49l.15-.21a.53.53,0,0,1,.22-.39,2.07,2.07,0,0,0,.37-.43,2,2,0,0,1,.53-.48l.47-.46a4.81,4.81,0,0,1,1.17-.87A1.44,1.44,0,0,0,488,384a1.71,1.71,0,0,1,.65-.41,5.05,5.05,0,0,0,.71-.33,1.19,1.19,0,0,1,.55-.21h.13a6.37,6.37,0,0,0,.82-.38H491a1.05,1.05,0,0,1,.3.12h0l.25-.12a.33.33,0,0,1,.15,0c.64,0,1,.44,1.06,1.33,0,.18.07.28.15.28s.25-.19.44-.57a1.24,1.24,0,0,1,1.22-.56c.44,0,.67.28.67.85a2.73,2.73,0,0,1-.9,1.91,1.08,1.08,0,0,0-.1.27l-.21.64v0a.56.56,0,0,1-.13.26.46.46,0,0,0-.14.28l0,.39-.07.43a.52.52,0,0,0,.11.39,1.26,1.26,0,0,0,.72-.41,1.11,1.11,0,0,1,.32-.32l.15-.06A1.53,1.53,0,0,1,495.38,387.4Zm-5.15,0a.7.7,0,0,1,.38-.52.75.75,0,0,0,.38-.37,7.66,7.66,0,0,0,.84-.77c.37-.38.56-.6.56-.69s0,0-.07,0h0l-.13.08-.27,0-.3,0-.22-.11-.2,0-.31-.06a.82.82,0,0,0-.42.1,3.57,3.57,0,0,1-.68.22,2.47,2.47,0,0,0-.91.43,1.26,1.26,0,0,1-.59.3,2.32,2.32,0,0,1-.73.66.75.75,0,0,0-.48.55c-.27.21-.4.34-.4.37l-.11.26a.79.79,0,0,1-.31.18.36.36,0,0,0-.22.33.84.84,0,0,1-.21.46.66.66,0,0,0-.18.34c0,.5.1.76.3.76a1.9,1.9,0,0,0,.52-.17,2.83,2.83,0,0,0,.46-.22.82.82,0,0,1,.24-.13l.3-.15a.29.29,0,0,1,.14-.08.26.26,0,0,0,.15-.1,1.21,1.21,0,0,1,.28-.19.63.63,0,0,0,.31-.27l.85-.48.33-.24a1.35,1.35,0,0,0,.42-.27A.82.82,0,0,1,490.23,387.4Z"/><path class="b61e12ab-be86-4d20-b299-f624e9f1e51a" d="M497.63,385.75l.13-.17a.68.68,0,0,0,.51-.31,6.12,6.12,0,0,1,.78-.8q.74-.71.81-.75a6.07,6.07,0,0,0,.6-1.35c.12-.06.19-.13.19-.21l.12-.25.14,0,.06-.07v-.13a3.93,3.93,0,0,1,.6-1.31c.41-.84.62-1.3.66-1.38a2.85,2.85,0,0,1,.18-.39q.13-.25.42-1a7.09,7.09,0,0,1,.9-1.52s.1-.13.18-.34a2.25,2.25,0,0,1,.39-.63l.19-.33.32-.54a4.73,4.73,0,0,1,.43-.61,1.5,1.5,0,0,0,.29-.48.89.89,0,0,1,.24-.35,1.05,1.05,0,0,0,.29-.4.48.48,0,0,1,.46-.28.94.94,0,0,1,.88.49,1.87,1.87,0,0,1,.27.87s-.07.25-.19.67l-.23,1.39c-.21.11-.32.22-.32.36a2.94,2.94,0,0,1-.63,1.7,1,1,0,0,0-.1.41.88.88,0,0,1-.27.56,1.71,1.71,0,0,0-.42.72l-1.44,2.06-.13.13a.89.89,0,0,0-.21.26l-.25-.07c-.28,0-.42.08-.42.26a.79.79,0,0,0,.06.25v0L502,383.85a3,3,0,0,0-.22.6l-.22.46a3,3,0,0,0-.46.88,2,2,0,0,1-.34.69,7.76,7.76,0,0,0-.31.73.08.08,0,0,0,.09.09c.06,0,.21-.15.44-.46a2.54,2.54,0,0,1,.58-.62,1.35,1.35,0,0,0,.37-.44l.16-.11.26-.18.16,0a.4.4,0,0,0,.15-.22.39.39,0,0,1,.1-.18.54.54,0,0,0,.5-.3c.07-.16.15-.25.24-.25s.19-.09.33-.28a1.45,1.45,0,0,1,.56-.47,2.76,2.76,0,0,0,.55-.32,3.14,3.14,0,0,1,.72-.33,2.71,2.71,0,0,1,.73-.19h.09l.13,0,.23,0a2.24,2.24,0,0,1,1.09.3.85.85,0,0,1,.46.94l-.12,1-.17.76a8.27,8.27,0,0,1-.25.82,3.93,3.93,0,0,0-.22.73l-.06.29.06.4,0,.33a.14.14,0,0,0,.15.16s.16-.1.35-.28c.11,0,.22-.05.32-.19a2.44,2.44,0,0,1,.42-.45s.07-.08.2-.11a1.67,1.67,0,0,0,.55-.37,3.61,3.61,0,0,1,.61-.6,5.22,5.22,0,0,1,1-.7l.09-.13a.77.77,0,0,1,.48-.26c.15,0,.22.08.22.23a.7.7,0,0,1-.08.33,1.48,1.48,0,0,0-.11.44,2.31,2.31,0,0,1-.31.78l-.06.16a.49.49,0,0,1-.26.31.75.75,0,0,0-.33.25,1.81,1.81,0,0,1-.74.4c-.16.31-.29.46-.39.46l-.27-.12a.73.73,0,0,0-.33.54,3.88,3.88,0,0,0-.48.45l-.31,0c-.08,0-.12.11-.12.34a1.24,1.24,0,0,1-.32.21,3.58,3.58,0,0,0-.48.32,1.33,1.33,0,0,1-.74.14.41.41,0,0,1-.18-.11,1.32,1.32,0,0,0-.36-.19.53.53,0,0,1-.34-.36,1.93,1.93,0,0,0-.2-.45.55.55,0,0,1-.11-.25l0-.32-.07-.32.14-.22a.8.8,0,0,1-.1-.29l.16-.95a10,10,0,0,1,.28-1.33s0-.08,0-.19l0-.38,0-.22c0-.16-.06-.24-.16-.25s-.16,0-.18-.08l-.23-.09c-.09,0-.16.07-.22.2a1.36,1.36,0,0,1-.25.34l-.39-.06v0q0,.12-.42.48a1.37,1.37,0,0,0-.67.4,1,1,0,0,0-.42.24,1.7,1.7,0,0,1-.4.28l-.12.24-.25.08a.62.62,0,0,1-.51.4l-.16.3a.51.51,0,0,0-.45.33q-.12.3-.18.3l-.11,0a.2.2,0,0,0-.13,0c-.22,0-.35.17-.37.51a4.92,4.92,0,0,1-.63.73c-.43.44-.66.67-.69.68s-.09.12-.18.32a.91.91,0,0,1-.36.45,2.87,2.87,0,0,0-.35.24.33.33,0,0,1-.18.09c-.21,0-.39-.16-.52-.46a4.49,4.49,0,0,1-.2-.49l.09-.32,0-.28.2-.63a3.32,3.32,0,0,1,.44-1,2.76,2.76,0,0,0,.39-1.14,3.14,3.14,0,0,1-.84.47c-.21,0-.31-.14-.31-.41A2.05,2.05,0,0,1,497.63,385.75Z"/></g></svg>