<svg id="f042807d-6d77-474e-a0e1-ab8871e69dce" data-name="Layer 1" xmlns="http://www.w3.org/2000/svg" viewBox="0 0 512 89.47"><defs><style>.b66c585d-4b9d-4b2b-abda-f356504b76e4{fill:#263b66;}.bae78dff-209f-48c9-b0fb-d9807cf1aec5{fill:#575b66;}</style></defs><g id="e8bbc0d2-07e5-4263-8416-a88aa492db83" data-name="Text"><path class="b66c585d-4b9d-4b2b-abda-f356504b76e4" d="M14.69,38.74A31.15,31.15,0,0,1,10,38.39a24.73,24.73,0,0,1-4.45-1.07,17.59,17.59,0,0,1-3.75-1.79A3.48,3.48,0,0,1,.43,34a3.3,3.3,0,0,1-.24-1.79,3.09,3.09,0,0,1,.7-1.56,2.41,2.41,0,0,1,1.42-.83,2.64,2.64,0,0,1,1.87.49,18.64,18.64,0,0,0,5,2,23.06,23.06,0,0,0,5.52.64q4.23,0,6.16-1.42a4.37,4.37,0,0,0,1.93-3.67,3.53,3.53,0,0,0-1.37-2.94,11.67,11.67,0,0,0-4.69-1.77l-5.89-1.23C7.43,21.2,4.91,20,3.25,18.3a9.18,9.18,0,0,1-2.5-6.73A10.38,10.38,0,0,1,1.83,6.81a10.84,10.84,0,0,1,3-3.7A14.11,14.11,0,0,1,9.52.72a20.37,20.37,0,0,1,6-.83A22.59,22.59,0,0,1,21.6.7a17.72,17.72,0,0,1,5.2,2.35A3,3,0,0,1,28,4.5a3.27,3.27,0,0,1,.13,1.69,2.66,2.66,0,0,1-.75,1.42,2.48,2.48,0,0,1-1.47.7,3.32,3.32,0,0,1-2-.54,15.17,15.17,0,0,0-4-1.61,19.12,19.12,0,0,0-4.39-.48,11.44,11.44,0,0,0-4.24.7,5.92,5.92,0,0,0-2.7,2,4.82,4.82,0,0,0-.94,3,3.94,3.94,0,0,0,1.29,3.08,9.57,9.57,0,0,0,4.39,1.79l5.84,1.24Q24.39,18.53,27,21a8.33,8.33,0,0,1,2.6,6.43,10,10,0,0,1-4,8.25,14.38,14.38,0,0,1-4.69,2.31A22.05,22.05,0,0,1,14.69,38.74Z" transform="translate(0 0.11)"/><path class="b66c585d-4b9d-4b2b-abda-f356504b76e4" d="M82.79,38.63a3.33,3.33,0,0,1-2.54-.93,3.64,3.64,0,0,1-.89-2.6V3.54A3.62,3.62,0,0,1,80.25.91a4,4,0,0,1,5.09,0,3.62,3.62,0,0,1,.88,2.63V35.1a3.68,3.68,0,0,1-.86,2.6A3.33,3.33,0,0,1,82.79,38.63Z" transform="translate(0 0.11)"/><path class="b66c585d-4b9d-4b2b-abda-f356504b76e4" d="M141.57,38.63a3,3,0,0,1-2.3-.85,3.29,3.29,0,0,1-.8-2.36V3.21a3.16,3.16,0,0,1,.85-2.38A3.26,3.26,0,0,1,141.68,0a3.84,3.84,0,0,1,2.12.51,4.53,4.53,0,0,1,1.42,1.74l13.23,24.49h-1.71L170,2.25a4.69,4.69,0,0,1,1.4-1.74A3.67,3.67,0,0,1,173.46,0a3.05,3.05,0,0,1,2.3.83,3.27,3.27,0,0,1,.81,2.38V35.42a3.38,3.38,0,0,1-.78,2.36,3.59,3.59,0,0,1-4.64,0,3.34,3.34,0,0,1-.8-2.36V10.61h1.18L160.28,31.13a4.35,4.35,0,0,1-1.13,1.34,2.65,2.65,0,0,1-1.61.43,2.83,2.83,0,0,1-1.66-.45,4,4,0,0,1-1.12-1.32L143.4,10.56h1.28V35.42a3.42,3.42,0,0,1-.77,2.36A3,3,0,0,1,141.57,38.63Z" transform="translate(0 0.11)"/><path class="b66c585d-4b9d-4b2b-abda-f356504b76e4" d="M229.13,38.63a3.27,3.27,0,0,1-2.06-.59,2.37,2.37,0,0,1-.94-1.58,3.93,3.93,0,0,1,.38-2.22L240.65,2.89A5.21,5.21,0,0,1,242.34.67,4,4,0,0,1,244.62,0a3.85,3.85,0,0,1,2.22.67,5.21,5.21,0,0,1,1.69,2.22l14.2,31.35a3.91,3.91,0,0,1,.43,2.25,2.34,2.34,0,0,1-.91,1.58,3.2,3.2,0,0,1-2,.56,3.46,3.46,0,0,1-2.33-.72,6.11,6.11,0,0,1-1.47-2.22L253,27.6l2.89,1.87H233.26l2.89-1.87-3.43,8.09a7,7,0,0,1-1.44,2.25A3.09,3.09,0,0,1,229.13,38.63ZM244.51,7.88,237,25.72,235.62,24h17.89l-1.34,1.71L244.62,7.88Z" transform="translate(0 0.11)"/><path class="b66c585d-4b9d-4b2b-abda-f356504b76e4" d="M315.72,38.63a3,3,0,0,1-2.3-.85,3.29,3.29,0,0,1-.8-2.36V3.21a3.16,3.16,0,0,1,.85-2.38A3.26,3.26,0,0,1,315.83,0,3.84,3.84,0,0,1,318,.51a4.53,4.53,0,0,1,1.42,1.74L332.6,26.74h-1.71L344.12,2.25a4.69,4.69,0,0,1,1.4-1.74A3.67,3.67,0,0,1,347.61,0a3.05,3.05,0,0,1,2.3.83,3.27,3.27,0,0,1,.81,2.38V35.42a3.38,3.38,0,0,1-.78,2.36,3.59,3.59,0,0,1-4.64,0,3.34,3.34,0,0,1-.8-2.36V10.61h1.18L334.43,31.13a4.35,4.35,0,0,1-1.13,1.34,2.65,2.65,0,0,1-1.61.43,2.83,2.83,0,0,1-1.66-.45,4,4,0,0,1-1.12-1.32L317.55,10.56h1.28V35.42a3.38,3.38,0,0,1-.78,2.36A3,3,0,0,1,315.72,38.63Z" transform="translate(0 0.11)"/><path class="b66c585d-4b9d-4b2b-abda-f356504b76e4" d="M403.28,38.63a3.25,3.25,0,0,1-2.06-.59,2.37,2.37,0,0,1-.94-1.58,4,4,0,0,1,.37-2.22L414.8,2.89A5.21,5.21,0,0,1,416.49.67,4,4,0,0,1,418.77,0,3.85,3.85,0,0,1,421,.67a5.21,5.21,0,0,1,1.69,2.22l14.2,31.35a3.91,3.91,0,0,1,.43,2.25,2.34,2.34,0,0,1-.91,1.58,3.24,3.24,0,0,1-2,.56,3.46,3.46,0,0,1-2.33-.72,6.11,6.11,0,0,1-1.47-2.22l-3.48-8.09L430,29.47H407.41l2.89-1.87-3.43,8.09a7,7,0,0,1-1.45,2.25A3,3,0,0,1,403.28,38.63ZM418.66,7.88l-7.5,17.84L409.76,24h17.9l-1.34,1.71L418.77,7.88Z" transform="translate(0 0.11)"/><path class="b66c585d-4b9d-4b2b-abda-f356504b76e4" d="M495,38.63a3.35,3.35,0,0,1-2.55-.93,3.64,3.64,0,0,1-.88-2.6V6.16H481.14A3,3,0,0,1,479,5.39a2.87,2.87,0,0,1-.78-2.12A2.75,2.75,0,0,1,479,1.15a3.07,3.07,0,0,1,2.17-.72H508.9a3.09,3.09,0,0,1,2.17.72,2.78,2.78,0,0,1,.77,2.12,2.9,2.9,0,0,1-.77,2.12,3,3,0,0,1-2.17.77H498.45V35.1a3.72,3.72,0,0,1-.86,2.6A3.33,3.33,0,0,1,495,38.63Z" transform="translate(0 0.11)"/><path class="bae78dff-209f-48c9-b0fb-d9807cf1aec5" d="M10.55,73.4l.12-.31.41-.45a1.59,1.59,0,0,1,.51-.61.92.92,0,0,1,.09-.23,1,1,0,0,0,.09-.34l.14-.25s.07-.07.07-.09a1,1,0,0,0-.13-.19l-.08-.32c0-.08-.27-.36-.82-.82h-.12l-1.12-.55-.06-.15-.13,0-.15.06h0L8.81,69A6.94,6.94,0,0,1,8,68.7a.12.12,0,0,1-.09,0l-.62-.14a.61.61,0,0,1-.32-.13s-.12-.09-.26-.14a.66.66,0,0,1-.27-.13.38.38,0,0,0-.25-.06l-.39.09s-.14-.08-.43-.15c0-.11-.08-.16-.1-.16L4.79,68l-.46-.21-.55-.09a2,2,0,0,1-.6-.18,1.73,1.73,0,0,0-.42-.18l-.09-.1a.44.44,0,0,0-.17-.06H2.22A.47.47,0,0,1,2,67a1.83,1.83,0,0,0-.42-.31,1.32,1.32,0,0,1-.44-.49,1.46,1.46,0,0,1-.21-.68.09.09,0,0,1,0-.06L1,65a3.31,3.31,0,0,1,.88-1.76.93.93,0,0,1,.51-.6l.07-.22a6.55,6.55,0,0,0,.64-.62,1.77,1.77,0,0,1,.44-.38,1.87,1.87,0,0,0,.39-.27L4.16,61c0-.1.22-.31.69-.66A5.78,5.78,0,0,1,6,59.66l.53-.24a4.45,4.45,0,0,1,.77-.24c.1-.27.26-.41.49-.41H8l.31-.31.42,0,.17-.2a.63.63,0,0,1,.47-.16l1.87-.57h.13l.12,0c.08,0,.19-.07.32-.22a.67.67,0,0,1,.5-.22.71.71,0,0,1,.24.13,0,0,0,0,0,0,0l.4-.12.48,0,.6-.16a1.78,1.78,0,0,1,1,.28l0-.06v-.09q0-.27.3-.27.12,0,.15.06l.19.11h.11a2.8,2.8,0,0,1,.4.19,1,1,0,0,1,.29-.16.55.55,0,0,1,.47.25l.26,0c.09-.08.14-.12.16-.12s.14.08.25.24l.09,0h.39s.06,0,.12.1l.17.14a1.2,1.2,0,0,1,.17.2.76.76,0,0,0,.11.14,2.9,2.9,0,0,1,.43-.17c.11,0,.18.09.24.26a.57.57,0,0,0,.27.43.58.58,0,0,1,.27.44.51.51,0,0,1,.34.5l.29.76-.06.26a1.18,1.18,0,0,1,.13.28l-.07.57.07.61a1,1,0,0,1-.45.82.69.69,0,0,0-.31.13.8.8,0,0,1-.24.13.61.61,0,0,1-.53-.19,1.08,1.08,0,0,0-.26-.29.29.29,0,0,1-.12-.25.92.92,0,0,1,.48-.7.32.32,0,0,0,.31-.14.58.58,0,0,0-.14-.44,3,3,0,0,1-.3-.35,1.59,1.59,0,0,0-.35-.34,1.1,1.1,0,0,1-.3-.34c-.08-.13-.15-.2-.21-.2l-.22,0-.45-.09a5.16,5.16,0,0,1-1.3-.33h-.31l-.84-.12a1.66,1.66,0,0,1-.62.09l-1,.16-.42,0s-.31.08-.85.26l-.16,0h-.41a2.14,2.14,0,0,0-.4.16,4.47,4.47,0,0,1-.61.21l-.14.07a.12.12,0,0,1-.09,0l-.25,0L8.73,61l-.21-.12-.3-.13a.19.19,0,0,0-.21.22l0,.3a1.73,1.73,0,0,0-.26.18.38.38,0,0,1-.15.09H7.37a.51.51,0,0,0-.35.17.52.52,0,0,1-.29.18,1.1,1.1,0,0,0-.35.13c0,.05-.11.09-.25.13a.51.51,0,0,0-.33.28c-.08.16-.17.23-.27.23l-.31-.06L5,62.86,4.67,63a1.68,1.68,0,0,1-.4.4l-.4.31A1.12,1.12,0,0,0,3.6,64a.75.75,0,0,1-.26.27.8.8,0,0,0-.29.41l-.16.16a.91.91,0,0,0-.39.69c0,.18.13.31.37.39a2.14,2.14,0,0,1,.47.2.43.43,0,0,0,.28.08.94.94,0,0,1,.36.08l.57.25q.08.24.15.24s.07,0,.13-.12a.32.32,0,0,1,.28-.12.5.5,0,0,1,.38.24l.13-.09h.06l.2.06h0l.19-.09a.12.12,0,0,1,.09,0l.48.15h0L7,66.7c.16,0,.24.07.26.1l.22.12s0,0,.06,0a.56.56,0,0,0,.19-.07.43.43,0,0,1,.23-.07.39.39,0,0,1,.28.17,1.1,1.1,0,0,1,.28-.11,1.19,1.19,0,0,1,.48.23l.29.06h.34l.52.09a1.59,1.59,0,0,0,.44.36.21.21,0,0,1,.22-.17,2.42,2.42,0,0,1,.76.2l.12,0,.13.1.32-.06c.21,0,.31.07.31.21a1.65,1.65,0,0,1-.09.48s0,0,.09.06a.44.44,0,0,1,.17-.12l.25-.14s.07-.06.1-.06a1.89,1.89,0,0,1,1,.5,1.75,1.75,0,0,1,.75,1.13,1,1,0,0,0,.12.43l-.06.2,0,.25a1.53,1.53,0,0,1-.06.22l0,.23a.35.35,0,0,1-.1.11.31.31,0,0,0-.09.11l.09.26v.06a.31.31,0,0,1-.11.17.5.5,0,0,0-.15.2.66.66,0,0,1-.11.2.59.59,0,0,0-.11.24c0,.09-.12.2-.3.32s-.27.2-.27.27,0,.09.06.09A.62.62,0,0,0,14,73a1,1,0,0,1,.31-.21,1.66,1.66,0,0,0,.37-.18l1.46-.68a11,11,0,0,1,1.81-.78.22.22,0,0,1,.25.25.77.77,0,0,1-.22.35.8.8,0,0,1-.63.86,1.28,1.28,0,0,0-.36.32h-.12a1.18,1.18,0,0,1-.89.44h-.09a2.14,2.14,0,0,1-1.39.63,1.53,1.53,0,0,1-.9.54l-.25.07a1.85,1.85,0,0,1-.54.15s-.07,0-.13.13l-.23.17a1.49,1.49,0,0,0-.64.34,1.37,1.37,0,0,1-.52.31,1.72,1.72,0,0,0-.37.14c-.14.06-.68.41-1.63,1.05l-.2.06a2.47,2.47,0,0,0-.76.46,1.52,1.52,0,0,1-.37.3H7.87a1.35,1.35,0,0,0-.83.47,2,2,0,0,1-.68.25A4.51,4.51,0,0,0,5.13,79l-.91.25a6.86,6.86,0,0,1-.8.19l-1.08.23a7.15,7.15,0,0,0-.82.19,1.42,1.42,0,0,0-.48-.1l-.28,0a.32.32,0,0,1-.19-.11,2.15,2.15,0,0,0-.35-.21C.07,79.37,0,79.19,0,78.9s.28-.51.85-.77S1.79,77.7,2,77.6a.54.54,0,0,1,.43-.2,1.12,1.12,0,0,0,.52-.19,2.09,2.09,0,0,1,.66-.28l.62-.32.08,0H4.5a.62.62,0,0,0,.32-.18,1.64,1.64,0,0,1,.45-.24h.19s0,0,.09-.08a1.12,1.12,0,0,1,.28-.2l0,0H6a1.64,1.64,0,0,1,.41-.24,2.46,2.46,0,0,0,.45-.24L8.1,74.9l.28,0a.44.44,0,0,0,.24-.14,1.87,1.87,0,0,1,.69-.31,1.18,1.18,0,0,1,.32-.29,4.5,4.5,0,0,0,.59-.5ZM5.14,77.27l-.22,0a.87.87,0,0,1-.42.14,1.82,1.82,0,0,0-.66.29,8.58,8.58,0,0,1-1,.52c-.39.16-.58.27-.58.32a6.26,6.26,0,0,0,1.59-.42L5,77.78a1.1,1.1,0,0,0,.31-.12,1.84,1.84,0,0,1,.33-.17l.25-.19.34-.12c.18-.06.27-.12.27-.19s0-.06-.07-.06a2,2,0,0,0-.88.17A1.86,1.86,0,0,1,5.14,77.27Z" transform="translate(0 0.11)"/><path class="bae78dff-209f-48c9-b0fb-d9807cf1aec5" d="M16.27,71.91l.25-.22h.09c.08,0,.18-.07.33-.23l.15-.06a1.29,1.29,0,0,1,.55-.54l.25-.19a.56.56,0,0,1,.17-.11,1.37,1.37,0,0,0,.38-.3c.17-.17.3-.26.41-.26a.9.9,0,0,1,.25,0,1,1,0,0,1,.37-.36,1.54,1.54,0,0,0,.45-.43l.2-.09a1.55,1.55,0,0,0,.44-.32.69.69,0,0,1,.51-.19,1.41,1.41,0,0,1,.94.46,1.25,1.25,0,0,1,.48.87l-.26,1.21c-.18.89-.37,1.36-.59,1.4l-.06.32c-.15.11-.22.19-.22.25l.1.37s-.06.13-.18.23,0,0,0,.1v.63a.31.31,0,0,1-.21.28l.09.06a.64.64,0,0,1,.42-.09l.25,0,.34-.34a1.36,1.36,0,0,0,.3-.15q.19-.1.66-.3l2-1.55c.28-.28.49-.42.64-.42s.23.1.23.3a1.08,1.08,0,0,1-.13.56,2.59,2.59,0,0,0-.24.55,1,1,0,0,1-.26.44,1.55,1.55,0,0,0-.24.27,1.83,1.83,0,0,1-.5.42,5.37,5.37,0,0,0-.7.57,3.44,3.44,0,0,1-.47.41l-.67.48-.09.16a1.85,1.85,0,0,1-.29.13,1.94,1.94,0,0,0-.45.25l-.28.16a.68.68,0,0,1-.3.08A.58.58,0,0,0,21,77a.43.43,0,0,1-.25.17l-.23,0-.31.09a1.09,1.09,0,0,1-.64-.32.86.86,0,0,1-.38-.67v-.1l0-.21a1.47,1.47,0,0,0-.09-.32,1.53,1.53,0,0,1-.1-.29l0-.21,0-.1a1.32,1.32,0,0,1,.06-.52.81.81,0,0,0,.1-.31c0-.13,0-.23.06-.31l.08-.39a.49.49,0,0,1,.15-.25c0-.08.06-.22.13-.42l.06-.28.15-.21a.56.56,0,0,0,.15-.34,1.24,1.24,0,0,1,.16-.44.8.8,0,0,0,.14-.28.16.16,0,0,0-.18-.18,1.43,1.43,0,0,0-.39.24l-.28-.09s-.08,0-.17.16-.05.07-.14.09a.46.46,0,0,0-.26.23l-.13,0-.2-.09h-.06c-.11,0-.17.11-.19.34a.75.75,0,0,1-.45.33l-.34.09a.44.44,0,0,0-.25.28.85.85,0,0,1-.31.39.68.68,0,0,1-.31.18c-.29,0-.43-.16-.43-.48L16.3,72ZM23,64.16l-.09-.6v-.1c0-.48.16-.75.49-.8a5.49,5.49,0,0,0,.65-.21,1.14,1.14,0,0,1,.58.49,1.42,1.42,0,0,1,.31.76.81.81,0,0,1-.05.14,1.35,1.35,0,0,0-.06.41.68.68,0,0,1-.31.52,1,1,0,0,1-.61.23.92.92,0,0,1-.55-.31A1,1,0,0,1,23,64.16Z" transform="translate(0 0.11)"/><path class="bae78dff-209f-48c9-b0fb-d9807cf1aec5" d="M28.37,69.88l.21-.39a3,3,0,0,1,.24-.28,2,2,0,0,0,.32-.76,2.35,2.35,0,0,1,.38-.85.81.81,0,0,1,.61-.23,1.32,1.32,0,0,1,.62.22A2.59,2.59,0,0,1,31.49,69a6,6,0,0,1,.37,1.6A1.24,1.24,0,0,0,32,71c.07.19.11.34.14.44a1.31,1.31,0,0,0-.13.3l0,.63-.18.51v.37a1.19,1.19,0,0,0-.19.39.38.38,0,0,0,.06.19,2.55,2.55,0,0,0,.88-.51.7.7,0,0,1,.31-.24,1.55,1.55,0,0,0,.48-.4l.3-.15.26-.34a.58.58,0,0,1,.26-.21,1.75,1.75,0,0,0,.34-.21,3.46,3.46,0,0,1,.59-.36l.16-.19a1.72,1.72,0,0,1,.55-.41,2.05,2.05,0,0,1,.34-.16c.08,0,.15.1.23.29a1.45,1.45,0,0,1,.12.56.72.72,0,0,1-.31.52,4.46,4.46,0,0,0-.41.38,1,1,0,0,1-.49.22s-.19.22-.51.63l-.31.19-.16.2s-.16.08-.42.12a.65.65,0,0,0-.07.16c0,.1-.14.18-.33.22a4.15,4.15,0,0,0-.57.57l-.33.06a1.08,1.08,0,0,1-.15.36c-.25.06-.39.17-.42.31l-.15.06-.07,0a1.64,1.64,0,0,1-.69.34l-.36.09-.12.19s-.13.12-.38.2a1.44,1.44,0,0,0-.57.31l-.26.2a1.5,1.5,0,0,0-.6.34h-.22a1.49,1.49,0,0,0-.68.32,1.5,1.5,0,0,1-.75.32A2.37,2.37,0,0,1,26,77.65a2,2,0,0,1-.55-.56,3.85,3.85,0,0,0-.39-.53.55.55,0,0,1-.18-.33q0-.11.15-.21a1.31,1.31,0,0,0,.31-.44c.12-.23.41-.37.87-.43l.23-.09a.68.68,0,0,1,.31-.1c.11,0,.24.1.39.28t.06,0l.25,0a.49.49,0,0,0,.23.13,1.23,1.23,0,0,0,.79-.38l.06,0h.13s.08-.08.15-.26l.27-.54.54-.7v-.15a1.11,1.11,0,0,1,.09-.28v-.24c0-.09.06-.15.19-.17a.2.2,0,0,0,.18-.2l0-.12a.54.54,0,0,1-.12-.27l.15-.31,0-.32.06-.13A1.8,1.8,0,0,1,30,71l.06-.39a2.19,2.19,0,0,0-.08-.3c-.06-.18-.1-.27-.13-.27s-.26.16-.59.48a3,3,0,0,0-.59.68.9.9,0,0,1-.4.36.94.94,0,0,0-.41.37.41.41,0,0,1-.26.23l-1,.84-1.14.83c-.08.1-.13.14-.15.14-.38,0-.58-.21-.58-.63a2.16,2.16,0,0,1,.24-.73l.16-.09s0,0,0,0,0,0,0,0l.1.07h0A4.79,4.79,0,0,1,26,72.1a.65.65,0,0,0,.31-.34l.65-.47a8.83,8.83,0,0,0,.77-.68A5.09,5.09,0,0,0,28.37,69.88Z" transform="translate(0 0.11)"/><path class="bae78dff-209f-48c9-b0fb-d9807cf1aec5" d="M38.91,63.28l.22-.07.15-.15h0l.14.06h0a1.53,1.53,0,0,0,.66-.14,3.39,3.39,0,0,1,.49-.21l.24-.1.08,0,.25,0c.08,0,.19-.15.33-.44a1.68,1.68,0,0,1,.48-.64,2.15,2.15,0,0,0,.52-.76,1.17,1.17,0,0,0,.14-.24c0-.11.1-.16.13-.16a.42.42,0,0,0,.37-.3c.31-.36.56-.54.76-.54s.44.25.54.74l.15.59a1.57,1.57,0,0,1-.07.23.85.85,0,0,0-.07.41.91.91,0,0,1,0,.28.79.79,0,0,0,0,.17c0,.08.09.12.26.12A1,1,0,0,0,45,62l.1,0a.48.48,0,0,0,.26.1,3.3,3.3,0,0,0,.44-.16,3.89,3.89,0,0,1,.52-.17,1.84,1.84,0,0,0,.37-.12h.19l.12,0a.64.64,0,0,0,.26-.13,1.54,1.54,0,0,1,.73-.16l.22-.09h.06q.51,0,.51.45a.69.69,0,0,1-.14.32,2.14,2.14,0,0,0-.24.53l-.72.9a.93.93,0,0,1-.71.46s-.17-.14-.39-.42t-.06,0a1,1,0,0,0-.32.07.94.94,0,0,1-.28.06l-.82.23-.38.06-.29.06-.79.16a1.41,1.41,0,0,0-.64.76s0,.07-.15.14l-.7,1.27a.61.61,0,0,0-.45.4l-.06.1a.49.49,0,0,0-.31.19,1.94,1.94,0,0,1-.27.25l-.28.42c-.11.15-.23.31-.34.48a1.89,1.89,0,0,0-.25.54,1,1,0,0,1-.12.33.25.25,0,0,0,0,.17l0,.13a.54.54,0,0,0-.19.41l.06.25c-.14.5-.22.76-.22.79a1.19,1.19,0,0,0,0,.17V71a2.13,2.13,0,0,1-.24.85l0,.25-.1.69a2.91,2.91,0,0,0,.1.52s-.06.07-.06.09a1.5,1.5,0,0,0,.45.95A2.39,2.39,0,0,1,40.34,76a.86.86,0,0,1-.05.27,2.28,2.28,0,0,0-.06.39.62.62,0,0,1-.24.41.61.61,0,0,1-.38.2c-.55,0-1-.4-1.23-1.19a7.15,7.15,0,0,1-.4-1.54l0-.6-.09-.31L38,72.27,38,71.94l.36-1.33v-.48a1,1,0,0,1,.21-.25s0,0-.06,0-.14.06-.25.18a1.87,1.87,0,0,1-.38.36l-.13.22a.33.33,0,0,0-.12-.06,3.45,3.45,0,0,0-.52.72.71.71,0,0,0-.51.38A.57.57,0,0,1,36,72L36,72c0,.3-.19.45-.44.45l-.06,0c-.15.36-.32.53-.48.51a1,1,0,0,1-.76.64.61.61,0,0,1-.27.28,1.05,1.05,0,0,0-.26.17.23.23,0,0,1-.14.08c-.13,0-.2-.15-.2-.44a.48.48,0,0,1,.1-.27.45.45,0,0,0,.1-.21s0-.08-.15-.18c0-.32.08-.52.24-.61A.86.86,0,0,0,34,72.1a.45.45,0,0,1,.31-.27c.15,0,.23-.12.23-.2s.13-.22.4-.43a3.62,3.62,0,0,0,.59-.57c.13-.16.23-.24.31-.24l.06-.06c0-.26.12-.39.3-.39l.16-.09,0-.13.09-.06h.12l.08-.06a.73.73,0,0,1,.37-.6,8.82,8.82,0,0,0,1.21-1.22,7.45,7.45,0,0,0,1-1.28,4.58,4.58,0,0,1,.39-.75,2.05,2.05,0,0,0,.32-.89.77.77,0,0,0-.09-.13l-.67.33s-.1-.08-.31-.14a1.27,1.27,0,0,0-.34.28c-.07.09-.13.14-.17.14l-.22,0-.68.08a3,3,0,0,0-1.38.37l-.63.18h-.14a.9.9,0,0,0-.38.16l-.35,0a1.93,1.93,0,0,1-.73.26l-.19,0-1.58.43a4.12,4.12,0,0,0-.83.64l-.13,0c-.1,0-.22-.12-.36-.35a1.24,1.24,0,0,1-.21-.63c0-1,.88-1.61,2.63-1.78l.64-.25h0l.17.06h.06a.68.68,0,0,0,.3-.11,4.2,4.2,0,0,1,.9-.29l.63-.17.2,0a.67.67,0,0,0,.35-.12,1.65,1.65,0,0,1,.59-.18,3,3,0,0,0,.55-.12l.25-.06a.56.56,0,0,0,.25-.11,1.07,1.07,0,0,1,.51-.11Z" transform="translate(0 0.11)"/><path class="bae78dff-209f-48c9-b0fb-d9807cf1aec5" d="M45.29,71l.33-.26a.39.39,0,0,0,.4-.39.85.85,0,0,1,.51-.62l.19-.26a4.09,4.09,0,0,1,1.27-.6,1.54,1.54,0,0,0,.36-.28.09.09,0,0,1,.06,0l.25.06a1.74,1.74,0,0,0,.51-.11,2,2,0,0,1,.62-.11l.65,0a.83.83,0,0,1,.25.09,1.14,1.14,0,0,0,.48.1.83.83,0,0,1,.62.31.87.87,0,0,1,.29.57,1.45,1.45,0,0,1-.5,1,1.88,1.88,0,0,1-.78.55,1.86,1.86,0,0,1-.41.34,1,1,0,0,0-.28.21.41.41,0,0,1-.24.15.12.12,0,0,1-.1,0,.13.13,0,0,0-.09,0c-.16,0-.34.21-.54.61l-.28,0a.84.84,0,0,0-.34.37.31.31,0,0,1-.32.2c-.39.38-.64.57-.78.57l-.21-.06a.48.48,0,0,0-.13.33c0,.12-.08.19-.25.21l-.2.19-.15,0-.31.33a.9.9,0,0,0-.48.15c0,.12,0,.28-.09.47s-.07.3-.07.32c0,.3.28.45.83.45l.74-.11a1.06,1.06,0,0,0,.55-.15,1,1,0,0,1,.55-.16,1,1,0,0,0,.28-.06l.15.06a1.16,1.16,0,0,1,.41-.42,1,1,0,0,1,.46-.18l.16-.1a.39.39,0,0,1,.18-.24l.13-.11A.32.32,0,0,1,50.2,74h.22l.06,0a.75.75,0,0,1,.52-.47.63.63,0,0,0,.42-.22.35.35,0,0,1,.3-.19.54.54,0,0,0,.36-.21,1.71,1.71,0,0,1,.37-.33c.14-.11.24-.18.3-.24a.25.25,0,0,1,.15-.07c.06,0,.09,0,.09.14s0,.14.06.14a.07.07,0,0,0,.07-.07.56.56,0,0,0,0-.15v-.11a.31.31,0,0,1,.25-.31l.7-.45c0-.22.08-.34.18-.38a.86.86,0,0,0,.22-.12.23.23,0,0,1,.17-.07c.14,0,.2.07.2.23l-.07.4.07.42a.44.44,0,0,1-.14.26,1.07,1.07,0,0,0-.23.49c0,.22-.12.35-.2.37h-.09a1.65,1.65,0,0,1-.44.35.46.46,0,0,0-.26.19l-.53.6-.26.28c-.07.09-.13.13-.17.13l-.13-.13s0,0-.06,0-.17.06-.19.19a.74.74,0,0,1-.16.32,1.57,1.57,0,0,0-.61.41l-.09,0H51c-.14,0-.23.1-.28.3a.47.47,0,0,1-.44.35,1,1,0,0,0-.52.18.26.26,0,0,1-.14.07,2,2,0,0,0-.44.24l-1.3.47a.7.7,0,0,1-.2.08l-.44.06c-.06,0-.12,0-.18-.13s-.11-.12-.13-.12l-.28.09a1.77,1.77,0,0,1-.58.1.74.74,0,0,1-.35-.11l-.29-.16c-.3,0-.51-.23-.64-.69l-.18,0a4.86,4.86,0,0,1-.42-1.1.5.5,0,0,0-.3-.18.28.28,0,0,1-.2-.3,1.16,1.16,0,0,1,.3-.94c.21-.16.32-.28.34-.37l.21-.8a.69.69,0,0,0,.16-.31l.36-.65ZM48.57,70l-.18.1a3.28,3.28,0,0,0-.37.27,3.74,3.74,0,0,1-.59.39,1.73,1.73,0,0,0-.59.76,3.47,3.47,0,0,0-.3.72c0,.06,0,.09.1.09l.52-.23a2.9,2.9,0,0,0,.55-.36,8.92,8.92,0,0,1,.74-.53l.12-.12a.93.93,0,0,1,.29-.22,1.62,1.62,0,0,0,.38-.32l.15-.07a1.27,1.27,0,0,1,.54-.51q.27-.09.27-.18c0-.13-.1-.19-.29-.19a.78.78,0,0,0-.38.16h-.35a1.08,1.08,0,0,0-.34.18Z" transform="translate(0 0.11)"/><path class="bae78dff-209f-48c9-b0fb-d9807cf1aec5" d="M59.8,70.24l.44-.21a1.54,1.54,0,0,0,.41-.4l.55-.39a1.8,1.8,0,0,1,.6-.31l.25.1s.09-.07.19-.2a.49.49,0,0,1,.38-.19,1.35,1.35,0,0,1,.76.42c.32.28.49.52.49.74l-.07.53a4.7,4.7,0,0,0,.13.7v.12l-.06.37.06.39-.17.76c0,.2.06.29.2.29a1.08,1.08,0,0,1,.45-.29l.21-.22c.09-.08.15-.12.19-.12s.1,0,.16-.15a.58.58,0,0,1,.26-.21.41.41,0,0,0,.22-.21,3.7,3.7,0,0,1,1.33-1.09s.11,0,.21-.16a.73.73,0,0,1,.24-.18l.34-.26.14.06h0A1.07,1.07,0,0,0,68,70a.68.68,0,0,1,.31-.15,1.31,1.31,0,0,1,1,.39c.25.27.38.47.38.62l-.08.35.11.48V72l-.08.33a.56.56,0,0,0,.13.26.49.49,0,0,1,.13.23q-.18.21-.18.27l0,.28-.08.85a.75.75,0,0,0,.2.35.9.9,0,0,1,.27-.1,1.42,1.42,0,0,0,.26-.1c.06,0,.09-.06.09-.07h0l.18.06h.06c.09,0,.13-.08.14-.24a.52.52,0,0,1,.31-.4l.37,0a1,1,0,0,0,.13-.25,2.65,2.65,0,0,1,.65-.67,1.65,1.65,0,0,1,.85-.44c.16,0,.24.07.24.22a2.08,2.08,0,0,1-.06.32.86.86,0,0,1,.13.37c0,.2-.17.41-.51.64a2.29,2.29,0,0,0-.76.85l-.07.06-.31,0s-.07.08-.14.24-.17.25-.27.27a.5.5,0,0,0-.22.1l-.33.2a7.78,7.78,0,0,0-.61.63c-.34.37-.63.56-.87.56a1.81,1.81,0,0,1-.56-.16,1.39,1.39,0,0,1-.54-.33,2.49,2.49,0,0,0-.4-.39,1.06,1.06,0,0,1-.25-.82s0-.06.08-.11.09-.09.09-.12a1.49,1.49,0,0,1-.36-.67.75.75,0,0,1,0-.2.52.52,0,0,0,0-.21l0-.54.07-.28,0-.17.09-.79c0-.12-.07-.18-.22-.18s-.1,0-.17.12a.66.66,0,0,1-.27.19.92.92,0,0,0-.35.45,1,1,0,0,0-.38.3c-.07.1-.12.15-.16.15a.34.34,0,0,1-.13,0,.36.36,0,0,0-.18.28v.07l0,.12c0,.09-.08.18-.24.26a2.22,2.22,0,0,0-.57.64.57.57,0,0,0-.22,0l-.18.37a.82.82,0,0,0-.3.33l-.18.09a2.89,2.89,0,0,1-.22.34l-.09.17c-.45.53-.76.79-.94.79s-.38-.23-.63-.69a2.56,2.56,0,0,1-.37-1.09l.06-.57a.92.92,0,0,0-.13-.25v-.06a2.39,2.39,0,0,1,.13-.36V73a.29.29,0,0,0,0-.09v-.08a1.13,1.13,0,0,1,.12-.24l-.09-.45.06-.25,0-.54.06-.48a.46.46,0,0,0-.08-.17c-.06-.07-.1-.11-.12-.11a2.29,2.29,0,0,0-.64.35,4.39,4.39,0,0,0-.72.56,6,6,0,0,1-.5.48,1.09,1.09,0,0,0-.45.79s0,0-.06,0,0,0-.09-.06h-.06c-.06,0-.21.22-.48.67l-.06.06-.3-.06c-.25,0-.37.26-.37.79,0,.09-.07.15-.19.18a.51.51,0,0,0-.31.27,3.06,3.06,0,0,1-.29.45,1.23,1.23,0,0,0-.41.23,5.29,5.29,0,0,1-.34.47,3.66,3.66,0,0,0-.37.52.49.49,0,0,1-.21.18q-.18.11-.18.18l.05.26c0,.17-.16.25-.49.25-.62,0-.93-.65-.93-1.94a.89.89,0,0,1,.2-.49,5.34,5.34,0,0,0,.38-.65,7.72,7.72,0,0,0,.69-.86,7.14,7.14,0,0,1,.61-.76l.2-.32a.43.43,0,0,1,.08-.28.36.36,0,0,0,.08-.23c0-.17-.05-.25-.13-.25a.67.67,0,0,0-.46.15,1.41,1.41,0,0,1-.38.21.38.38,0,0,0-.27.21,1.25,1.25,0,0,0-.46.4l-.32.38a1,1,0,0,0-.15.21.23.23,0,0,1-.17.14.39.39,0,0,0-.21.11.4.4,0,0,1-.29.1c-.09,0-.18-.1-.26-.29a1.83,1.83,0,0,1-.11-.35q0-1.14,1.5-2a1.93,1.93,0,0,0,.32-.22,1.18,1.18,0,0,1,.24-.17l.06-.11a2.83,2.83,0,0,1,.94-.53h.21l1-.26c.45-.1.67.4.67,1.5l0,.28.06.13a3.53,3.53,0,0,1,.53-.44,1.86,1.86,0,0,0,.4-.35A1.13,1.13,0,0,1,59.8,70.24Z" transform="translate(0 0.11)"/><path class="bae78dff-209f-48c9-b0fb-d9807cf1aec5" d="M90.46,57.25l.09-.16a.38.38,0,0,1,.34-.2l.24.06a.12.12,0,0,1,0-.09.17.17,0,0,1,.18-.19h.06l.36-.09,1.07-.12a3.3,3.3,0,0,1,1,.18H94l.42.13a1.22,1.22,0,0,0,.4.29c.08,0,.13,0,.13.09a1.48,1.48,0,0,0,.38.38l.45.48.07.12a3.81,3.81,0,0,0,.3.49,1.43,1.43,0,0,1,.18.81l-.08.19c.11.05.17.1.17.14l-.09.56v.48a1.36,1.36,0,0,1-.09.51,1.21,1.21,0,0,0-.08.48,1.31,1.31,0,0,1-.22.34v0l.06.42s0,.11-.14.2a.4.4,0,0,0-.14.22.68.68,0,0,1-.17.49,1.63,1.63,0,0,1-.37.82,2.32,2.32,0,0,0-.44.83,3.23,3.23,0,0,1-.43.86c-.08.26-.14.45-.17.56a1,1,0,0,1-.33.43.86.86,0,0,0-.29.67.74.74,0,0,1-.43.47l-.36.32v.19a1,1,0,0,1-.37.7l-.53,1.08c-.1.21-.23.31-.4.31l-.06.06a1.31,1.31,0,0,1-.15.59l-.24.33L90.7,72a2.28,2.28,0,0,0-.23.47,1.54,1.54,0,0,1-.36.55L90,73.4v.12c0,.28-.1.42-.28.42l-.17,0h0a2.08,2.08,0,0,1,.09.48,6,6,0,0,1-.43,1l-.07.23v.25a1.71,1.71,0,0,0-.31.44.46.46,0,0,1-.24.27c-.12,0-.17.09-.17.11l.06.09v.06l-.11.48.08.58a1.2,1.2,0,0,1-.14.32,1,1,0,0,1,.51.79c0,.45-.18.71-.54.79h-.1l-.3,0a1.36,1.36,0,0,1-.76-.16,3.44,3.44,0,0,1-.54-.48l-.21-.12a.5.5,0,0,1-.15-.24L86,78.67a2.12,2.12,0,0,1-.32-1.3.29.29,0,0,1,.14-.22l0-.09,0-.3a8.53,8.53,0,0,1,.34-1l.45-.93a4.28,4.28,0,0,1,.51-.88,3.36,3.36,0,0,1,.16-.57l.09-.06a1,1,0,0,1,.24-.48,1.52,1.52,0,0,0,.3-.61c.15,0,.22,0,.22-.09a.53.53,0,0,0,0-.13v-.06a.66.66,0,0,1,.22-.49,1.39,1.39,0,0,0,.34-.49,1.08,1.08,0,0,1,.25-.43,1.2,1.2,0,0,0,.27-.5.82.82,0,0,1,.31-.16q.21,0,.21-.15a2.46,2.46,0,0,0-.14-.29,5.23,5.23,0,0,1,.89-1.49.86.86,0,0,0,.13-.3.44.44,0,0,1,.25-.3,3.53,3.53,0,0,1,.4-.87,5.43,5.43,0,0,0,.43-.75c.13-.28.28-.41.47-.41l.06-.1,0-.32a2.55,2.55,0,0,1,.13-.3.65.65,0,0,1,.24-.31c.08,0,.16-.1.27-.24l-.13-.25a.34.34,0,0,0,.11-.16c0-.07.07-.11.11-.11.26-.14.39-.29.39-.46a1.06,1.06,0,0,0,0-.2V62.8c0-.07.09-.2.28-.42a1,1,0,0,0,.29-.76.71.71,0,0,1,.19-.4.56.56,0,0,0,.15-.32.42.42,0,0,1,.09-.23l-.06-.38a1.54,1.54,0,0,0,.3-.83.54.54,0,0,0-.08-.15.62.62,0,0,1-.08-.33c0-.06-.06-.14-.17-.24l-.06-.16a1.8,1.8,0,0,1-.62-.31,1.31,1.31,0,0,0-.78-.14l-.28.06-.23-.06a.29.29,0,0,1-.16.06h0l-.15,0a2,2,0,0,0-.74.21,2.15,2.15,0,0,1-.63.21.69.69,0,0,0-.64.27c-.11.18-.2.27-.26.27l-.15-.06h0c-.08,0-.15.15-.21.43l0,.07a4.42,4.42,0,0,0-1,.69l-1,1.06a2.63,2.63,0,0,0-.56.7.62.62,0,0,1-.31.35A1.56,1.56,0,0,0,86,63a.72.72,0,0,1-.17.55c-.11.1-.17.18-.17.24a.27.27,0,0,0,0,.12s.06.16.12.34v.08a.57.57,0,0,1-.11.33.5.5,0,0,0-.12.17,1.2,1.2,0,0,0,.27.32c.18.19.27.32.27.4a1.05,1.05,0,0,1-.36.77,1.11,1.11,0,0,1-.77.35.87.87,0,0,1-.56-.17c-.14-.11-.21-.46-.21-1l0-.4.14-.45,0-.48a2.38,2.38,0,0,1,.29-.54,3.78,3.78,0,0,0,.37-.68,3,3,0,0,1,.86-1.42.26.26,0,0,0,.12-.21.58.58,0,0,1,.19-.42s.07-.13.21-.25a.7.7,0,0,0,.27-.39.4.4,0,0,1,.28-.28.51.51,0,0,0,.32-.41,2.73,2.73,0,0,1,.85-.7,1.05,1.05,0,0,1,.55-.54l.42-.28.09-.16a.83.83,0,0,1,.25-.16.87.87,0,0,0,.29-.23,1.77,1.77,0,0,1,.58-.21Z" transform="translate(0 0.11)"/><path class="bae78dff-209f-48c9-b0fb-d9807cf1aec5" d="M106.92,74.24H107l.15.06a.09.09,0,0,0,.06,0,.55.55,0,0,1,.25-.45.69.69,0,0,1,.35-.45l.86-.51.39-.35.19-.09.12-.15a.48.48,0,0,1,.33-.21c.15,0,.23.06.23.18l-.14.31.06.51a.7.7,0,0,1-.19.49c-.13.15-.33.36-.6.64l-.79.84-.42.21a1.93,1.93,0,0,0-.28.22L107,76a.41.41,0,0,1-.14.33h-.25l-.12.06a1.31,1.31,0,0,1-.64.57l-.22.16a.32.32,0,0,1-.2.09l-.43-.06-.3.06a.74.74,0,0,1-.33-.12,1.86,1.86,0,0,0-.43-.2c-.14,0-.33-.24-.55-.57a3.6,3.6,0,0,1-.37-.66.55.55,0,0,0-.07-.21,1.32,1.32,0,0,1-.07-.18,2.63,2.63,0,0,1,.14-.31v0a.64.64,0,0,0-.08-.22.86.86,0,0,1-.09-.41.94.94,0,0,0-.09-.36c.08-.08.12-.14.12-.19a.45.45,0,0,0,0-.17.62.62,0,0,1,0-.18l.09-.76-.06-.39,0-.37q0-.33-.27-.33a.51.51,0,0,0-.31.17l-.11,0a4.1,4.1,0,0,0-.59.34.54.54,0,0,1-.35.13.92.92,0,0,1-.36.17l-.12.09a1.9,1.9,0,0,1-.25.19,3.58,3.58,0,0,1-.58.52c-.38.31-.73.61-1,.89a1.89,1.89,0,0,1-.67.46q-.21,0-.21.39s-.09.13-.28.25a1.71,1.71,0,0,0-.32.34,2.08,2.08,0,0,0-.28-.19c-.14,0-.23.17-.3.52-.06.13-.23.21-.49.24a.64.64,0,0,0-.11.24l-.07.06H96a1,1,0,0,0-.22.18.87.87,0,0,1-.32.22c-.14.28-.25.42-.35.42a.38.38,0,0,1-.17-.06A1.6,1.6,0,0,0,94.6,77c-.12,0-.24-.16-.38-.38a1.11,1.11,0,0,1-.21-.57c0-1.14.22-1.77.67-1.87l0-.06V74a.29.29,0,0,1,.17-.28,1.13,1.13,0,0,0,.37-.34,1,1,0,0,1,.25-.29h.2s.06-.11.06-.33a.25.25,0,0,1,.08-.17.34.34,0,0,0,.09-.22,1.38,1.38,0,0,1,.23-.48,1.41,1.41,0,0,0,.2-.4l0-.06a1.45,1.45,0,0,1-.55.39c-.12,0-.27.17-.47.45l-.25,0a5.82,5.82,0,0,1-.8.54.85.85,0,0,0-.35.36c0,.06,0,.1-.11.12a2.09,2.09,0,0,0-.4.25h-.09c-.26,0-.39-.18-.39-.56l.32-.88a1.4,1.4,0,0,1,.66-.71,7.18,7.18,0,0,0,.88-.55,1.38,1.38,0,0,1,.71-.28l.11-.15a1.16,1.16,0,0,0,.71-.64c.12-.29.29-.43.51-.43a1.5,1.5,0,0,1,1.3.63,1.94,1.94,0,0,1,.45,1l0,.42a2.89,2.89,0,0,1-.09.6.88.88,0,0,0-.19.42c0,.08.05.12.16.12a.45.45,0,0,0,.25-.13,2.08,2.08,0,0,1,.34-.24c.13-.07.21-.13.23-.18a.9.9,0,0,1,.54-.52,1.49,1.49,0,0,0,.48-.23l.16-.12.12-.23a1.81,1.81,0,0,0,.56-.35.64.64,0,0,1,.37-.2,1.3,1.3,0,0,0,.53-.28l.23-.06.21-.12a.74.74,0,0,1,.19-.08l.46-.16a1.34,1.34,0,0,1,.41-.12,1.43,1.43,0,0,1,1.24.64,1.9,1.9,0,0,1,.46,1l0,.28.06.42v.06l-.12.85,0,.3a1.29,1.29,0,0,1-.31,1,.16.16,0,0,0-.08.16v.14l.31.65c.09.23.17.34.22.34l.5-.14a.6.6,0,0,0,.35-.32,2.48,2.48,0,0,0,.44-.38A.31.31,0,0,1,106.92,74.24Z" transform="translate(0 0.11)"/><path class="bae78dff-209f-48c9-b0fb-d9807cf1aec5" d="M107.63,81.43l.16-.34.09-.39s.05-.11.15-.19a.29.29,0,0,0,.14-.22,6.45,6.45,0,0,1,.76-2l.38-.93a.81.81,0,0,1,.28-.5c.15-.12.23-.23.23-.32s-.11-.16-.32-.28-.32-.23-.32-.33.34-.3,1-.6a1.39,1.39,0,0,1,.47-.92.28.28,0,0,0,.11-.21,1.1,1.1,0,0,1,.15-.61l.13-.36a1.25,1.25,0,0,1,.25-.41.68.68,0,0,0,.2-.44V72.3c-.14,0-.33.16-.58.52-.26,0-.47.2-.63.58a.76.76,0,0,1-.58.42,1.05,1.05,0,0,1-.66.51c-.22-.14-.33-.25-.33-.34l.14-1c0-.22.53-.76,1.58-1.63.06,0,.26-.2.61-.59l.85-1c.46-.47.82-.81,1-1a3.71,3.71,0,0,0,.67-1.4,2.4,2.4,0,0,0,.54-1.15,7.45,7.45,0,0,1,.41-1.28,2.31,2.31,0,0,0,.23-.58,14.94,14.94,0,0,1,.91-2.35l.16-.51.23-.19a2.54,2.54,0,0,0,.06-.48c.12,0,.24-.27.36-.68a2.76,2.76,0,0,1,.37-.86,1.11,1.11,0,0,0,.25-.48,1.06,1.06,0,0,1,.38-.52,1.08,1.08,0,0,1,.64-.25c.07,0,.2.11.37.32a1.45,1.45,0,0,1,.31.73c0,.27.06.46.08.55a2.1,2.1,0,0,1,0,.4l0,.45a7.5,7.5,0,0,1-.12.79c-.08.44-.14.76-.18.95a.45.45,0,0,1-.32.38c-.17.06-.26.13-.26.19s0,.11.12.15.13.06.13.08a1.73,1.73,0,0,1-.18.41,1.14,1.14,0,0,1-.33.44,1.15,1.15,0,0,1,.09.22,1.79,1.79,0,0,1-.22.49,2.78,2.78,0,0,1-.37.55,1.71,1.71,0,0,0-.28.63,1.46,1.46,0,0,1-.71.84,1.79,1.79,0,0,0-.38.71.91.91,0,0,1-.47.62l-.21.3v.06a1.06,1.06,0,0,1-.15.51,6.93,6.93,0,0,0-.31.66,1.41,1.41,0,0,1-.29.5,2.49,2.49,0,0,1-.22.65,1.43,1.43,0,0,0-.19.5l-.11.12c-.2,0-.31.13-.31.3l.07.34s-.1.18-.28.51l-.06.31a.76.76,0,0,1-.3.52.78.78,0,0,0-.28.58l-.06.38a.23.23,0,0,0,0,.09s.08-.06.19-.17l.24.08c.07,0,.13,0,.18-.14a.55.55,0,0,1,.27-.19l.07,0c0-.15.12-.22.23-.23a.37.37,0,0,0,.26-.15c.07-.09.13-.13.17-.13a1,1,0,0,1,.22.12h0l.14-.06,0-.25A.19.19,0,0,1,115,73a.32.32,0,0,0,.2-.16l.57-.37a1.63,1.63,0,0,0,.55-.33,1.07,1.07,0,0,1,.39-.26.76.76,0,0,0,.32-.19.86.86,0,0,1,.52-.15,4.18,4.18,0,0,1,.7-.52l.12-.17a.26.26,0,0,1,.13-.07.73.73,0,0,0,.24-.18.39.39,0,0,1,.27-.16.28.28,0,0,1,.31.31.94.94,0,0,1-.47.82l0,0c0,.41-.18.62-.38.62,0,0-.12.09-.22.26l-.2,0a1.43,1.43,0,0,1-.31.34h-.09a8.29,8.29,0,0,0-2,1.45.66.66,0,0,1-.16.12l-.29,0a1.62,1.62,0,0,1-.19.31,2,2,0,0,0-.51.29,2,2,0,0,1-.41.28.59.59,0,0,0-.24.21.56.56,0,0,1-.29.21l-.2.19h-.1a.52.52,0,0,0-.3.15.41.41,0,0,0-.18.3.63.63,0,0,0,.14.24c.08-.06.37.25.87.94a3.39,3.39,0,0,1,.74,2,1.33,1.33,0,0,1-.21.9c-.14.14-.21.24-.21.31s0,.16,0,.35v.06c0,.11-.06.17-.18.19s-.19.06-.21.13v.38l-.06.19c-.13.07-.27.31-.42.73a2.2,2.2,0,0,1-.66.54l0,.06,0,.42a.3.3,0,0,1-.14.25,1.75,1.75,0,0,0-.38.39,1.57,1.57,0,0,1-.49.43.62.62,0,0,1-.24.42,2,2,0,0,0-.37.35l-.09.07c-.09,0-.18.13-.26.34l-.13,0a1.63,1.63,0,0,1-.42.53,1.79,1.79,0,0,0-.31.3l-.24.16a2.29,2.29,0,0,1-.58.64s-.06,0-.12-.1h0s-.08,0-.11.13a.51.51,0,0,1-.17.23,1.19,1.19,0,0,0-.24.31l-.07.06q-.19,0-.63.54A1.49,1.49,0,0,0,107,89c-.22.25-.37.37-.45.37a2.52,2.52,0,0,1-.34-.25,1,1,0,0,1-.33-.82.48.48,0,0,0-.19-.32c0-.12,0-.28-.06-.5v-.14a.91.91,0,0,1,.13-.43l.09-.33a.53.53,0,0,1,.09-.2,2,2,0,0,0,.18-.44q.12-.36.27-.72l0-.16c.12-.49.21-.73.28-.73a4.52,4.52,0,0,0,.19-.61c.06-.26.1-.47.13-.64a.64.64,0,0,1,.22-.4Zm3.21-3,.07.67a3.78,3.78,0,0,1-.26.59,4.76,4.76,0,0,0-.33.86c-.06.22-.17.33-.34.33h-.16a.27.27,0,0,0,0,.12l0,.35a4.41,4.41,0,0,1-.11.71,1,1,0,0,1-.31.65l-.09.11a3.28,3.28,0,0,1-.24.73c-.14.34-.26.6-.35.79a2.92,2.92,0,0,0-.22.72,1.19,1.19,0,0,1-.2.55q-.09.44-.18.72c-.07.19-.14.45-.24.77a.11.11,0,0,0,.1.06c.06,0,.14-.12.23-.34a.41.41,0,0,1,.21-.09c.1,0,.18-.13.25-.33l0-.06a.34.34,0,0,0,.25-.18.33.33,0,0,1,.17-.18.55.55,0,0,0,.22-.16l.11,0a.26.26,0,0,0,.11-.17.52.52,0,0,1,.11-.21h.21l.06,0a1.3,1.3,0,0,1,.31-.64.92.92,0,0,0,.27-.35,1.07,1.07,0,0,1,.22-.31.65.65,0,0,0,.2-.4,2.44,2.44,0,0,0,.35-.51.79.79,0,0,1,.22-.31l0-.11-.06-.19v-.06a1.85,1.85,0,0,1,.36-.62,2.52,2.52,0,0,0,.46-.83c.06-.22.12-.4.17-.53a2.78,2.78,0,0,0,.13-.46.89.89,0,0,1,.17-.42.72.72,0,0,0,.12-.44,2.53,2.53,0,0,0-.43-1.21.4.4,0,0,1-.07-.19.74.74,0,0,0-.3-.36.82.82,0,0,0-.39-.21l-.13.06a.43.43,0,0,1-.19.1c-.11,0-.16.14-.16.29v.06l0,.34C111.25,78.19,111.11,78.31,110.84,78.45Z" transform="translate(0 0.11)"/><path class="bae78dff-209f-48c9-b0fb-d9807cf1aec5" d="M124.77,75.66l-.73.64a.19.19,0,0,0-.12-.07c-.11,0-.23.1-.38.28s-.26.28-.32.28l-.15,0a2,2,0,0,1-.56.34,2.11,2.11,0,0,0-.41.17,1.06,1.06,0,0,1-.44.14.58.58,0,0,0-.32.13,1,1,0,0,1-.6.12l-.25,0a.86.86,0,0,1-.26.09.4.4,0,0,1-.27-.13.48.48,0,0,0-.3-.15.52.52,0,0,1-.33-.21A1.1,1.1,0,0,0,119,77a.64.64,0,0,1-.24-.22l-.22-.19a1.89,1.89,0,0,1-.51-.68,1.85,1.85,0,0,1-.25-.77V75l0-.3,0-.34a1.37,1.37,0,0,0,.16-.26v-.5l.37-1.24s0-.12-.13-.2a.62.62,0,0,1-.31.28.31.31,0,0,0-.21.22c0,.11-.09.17-.18.17l-.18-.07a1.57,1.57,0,0,0-.14.32.4.4,0,0,1-.38.29c-.19,0-.28-.07-.28-.22l0-.28-.09-.39a1.17,1.17,0,0,1,.25-.48q.24-.37.45-.42a.64.64,0,0,0,.36-.3,2.28,2.28,0,0,1,.65-.58.78.78,0,0,0,.48-.4,1.72,1.72,0,0,1,.56-.28,1.06,1.06,0,0,0,.53-.32,4.34,4.34,0,0,1,1.06-.65,3.39,3.39,0,0,1,1.28-.44,1.13,1.13,0,0,0,.34-.07l.4-.12a2.2,2.2,0,0,0,.39-.17.74.74,0,0,1,.33-.12l.45.15a3.16,3.16,0,0,1,.6.21,1.93,1.93,0,0,0,.32.13,3.4,3.4,0,0,1,.59.27.65.65,0,0,1,.3.63,3.58,3.58,0,0,0-.26.42s.12.11.36.19c.08.15.21.35.37.6l.17.54,0,1.28,0,.12c-.11.1-.17.17-.17.2l0,.31-.13.44a.38.38,0,0,1-.15.26.29.29,0,0,0-.14.15l-.1.13s-.06.12-.13.27a1.05,1.05,0,0,1-.22.35.56.56,0,0,0-.16.29.34.34,0,0,1-.15.25.73.73,0,0,0-.18.16A.45.45,0,0,1,124.77,75.66Zm-4.81.4.06.36,0,0h.25l.07,0a2.7,2.7,0,0,0,.47.06,1.09,1.09,0,0,0,.76-.24.81.81,0,0,1,.46-.24c.11,0,.21-.07.28-.23s.13-.23.15-.23h.22l.06,0a.53.53,0,0,1,.32-.51,1,1,0,0,0,.45-.41.94.94,0,0,1,.3-.39.7.7,0,0,0,.23-.35l.12-.19a.33.33,0,0,0,.06-.23l.3-.56a2.89,2.89,0,0,0,.09-.6.56.56,0,0,0-.33-.51.77.77,0,0,1-.33-.73.86.86,0,0,1,.36-.66q.36-.3.36-.36c0-.07,0-.1-.09-.1a1.76,1.76,0,0,0-.36.13c-.07.14-.43.33-1.09.57l-.36-.16c-.06,0-.12.07-.18.19a.87.87,0,0,1-.19.26h-.2s-.09.07-.2.21a.57.57,0,0,1-.44.2l-.18.18a.63.63,0,0,1-.31.51l-.17.21c-.1.12-.24.27-.4.43l-.28.7a1.85,1.85,0,0,0-.17.6.58.58,0,0,1-.21.2.28.28,0,0,0-.16.25s0,.07.11.16a.33.33,0,0,1,.1.18l-.06.2-.06.58Z" transform="translate(0 0.11)"/><path class="bae78dff-209f-48c9-b0fb-d9807cf1aec5" d="M131.1,69.76l.23-.07.09-.2a4.07,4.07,0,0,0,1.09-.85.29.29,0,0,1,.14-.12,1.15,1.15,0,0,0,.23-.22,1.85,1.85,0,0,1,1.36-.57c.62,0,.95.37,1,1.13l.1.23a6.15,6.15,0,0,1,.35.88,4,4,0,0,1,.22.82,1.61,1.61,0,0,1-.26.84,5.79,5.79,0,0,0-1,1.16l-.16.11a3.2,3.2,0,0,1-.32.56c-.21.07-.31.15-.31.23V74a.57.57,0,0,1-.07.13,2.61,2.61,0,0,0-.2.35l-.12.19a.63.63,0,0,0-.12.25,1.28,1.28,0,0,1-.18.35.49.49,0,0,0-.12.25c0,.16.2.23.61.23l.23-.09.22.06s.07,0,.15-.1a.9.9,0,0,1,.38-.16,1.3,1.3,0,0,0,.45-.19,2.19,2.19,0,0,1,.46-.21,1.63,1.63,0,0,0,.52-.31,1.75,1.75,0,0,1,.49-.3,1.38,1.38,0,0,0,.45-.29,3.43,3.43,0,0,1,.47-.36,5.66,5.66,0,0,0,.84-.74,1.77,1.77,0,0,1,.51-.33,2,2,0,0,0,.27-.41.69.69,0,0,1,.55-.41c.22,0,.33.1.33.31a.43.43,0,0,1-.16.32v.1l0,.25a.23.23,0,0,1,0,.13c0,.05,0,.11-.12.19a.65.65,0,0,0-.16.32.35.35,0,0,1-.3.25q-.09.34-.24.39a1.34,1.34,0,0,0-.41.31,6.09,6.09,0,0,1-.74.62,5.44,5.44,0,0,0-.66.55c-.12.13-.2.2-.24.2a.26.26,0,0,1-.12-.07l-.13-.06c-.06,0-.1.07-.12.22l-.06.15a1,1,0,0,1-.24.13l-.09,0h-.06c-.13,0-.19,0-.19.14l.1.15v0c0,.15-.09.22-.25.22a3.18,3.18,0,0,0-1,.57l-.45.1-.38.2a.58.58,0,0,0-.23-.11l-.25.08-.45,0-.56-.31a1.37,1.37,0,0,1-.66-.62,4.34,4.34,0,0,0-.28-.63,1.26,1.26,0,0,1-.17-.44,3.28,3.28,0,0,1,.12-1.06,2.61,2.61,0,0,0,.16-.48.78.78,0,0,1,.18-.33,1.38,1.38,0,0,0,.24-.58,6.57,6.57,0,0,1,.62-1.1,1.48,1.48,0,0,0,.26-.5l.2-.28a1.07,1.07,0,0,0,.1-.24q.06-.21.15-.24a.76.76,0,0,0,.12-.28c0-.3-.13-.45-.4-.45,0,0-.11.06-.17.17a.87.87,0,0,1-.42.31,1.77,1.77,0,0,0-.41.24,1.76,1.76,0,0,1-.34.19,1.17,1.17,0,0,0-.44.36l-.26.13c-.09.2-.16.3-.22.33l-.57.15s-.08.07-.16.19a.42.42,0,0,1-.36.17c-.12.12-.24.27-.37.43a1.19,1.19,0,0,0-.32.12l-.31.08a1.18,1.18,0,0,0-.28.3.64.64,0,0,1-.55.2c-.15,0-.23-.13-.23-.37a1.49,1.49,0,0,1,.54-1.21,1.85,1.85,0,0,1,.78-.48.36.36,0,0,0,.31-.19.49.49,0,0,1,.3-.25,1.74,1.74,0,0,0,.56-.46,1.7,1.7,0,0,1,.69-.47Z" transform="translate(0 0.11)"/><path class="bae78dff-209f-48c9-b0fb-d9807cf1aec5" d="M145.9,70.24l.44-.21a1.72,1.72,0,0,0,.42-.4l.54-.39a1.8,1.8,0,0,1,.6-.31l.25.1s.09-.07.2-.2a.46.46,0,0,1,.38-.19,1.38,1.38,0,0,1,.76.42c.32.28.48.52.48.74l-.07.53a6.8,6.8,0,0,0,.13.7v.12l-.06.37.06.39-.17.76c0,.2.06.29.2.29a1.22,1.22,0,0,1,.45-.29l.22-.22q.12-.12.18-.12s.1,0,.17-.15a.51.51,0,0,1,.25-.21.38.38,0,0,0,.22-.21,3.7,3.7,0,0,1,1.33-1.09s.11,0,.21-.16a.73.73,0,0,1,.24-.18l.34-.26.14.06h0a.89.89,0,0,0,.25-.16.68.68,0,0,1,.31-.15,1.3,1.3,0,0,1,1,.39c.25.27.38.47.38.62l-.08.35.11.48V72l-.08.33a.56.56,0,0,0,.13.26.55.55,0,0,1,.14.23c-.13.14-.19.23-.19.27l0,.28-.08.85a.75.75,0,0,0,.2.35,1,1,0,0,1,.27-.1,1.42,1.42,0,0,0,.26-.1c.06,0,.09-.06.09-.07h0l.18.06h.07c.08,0,.12-.08.13-.24a.52.52,0,0,1,.31-.4l.37,0a.85.85,0,0,0,.14-.25,2.32,2.32,0,0,1,.65-.67,1.6,1.6,0,0,1,.84-.44c.16,0,.25.07.25.22a2.86,2.86,0,0,1-.07.32.75.75,0,0,1,.13.37c0,.2-.17.41-.51.64a2.29,2.29,0,0,0-.76.85l-.06.06-.31,0s-.07.08-.15.24-.17.25-.27.27a.5.5,0,0,0-.22.1l-.32.2a5.77,5.77,0,0,0-.62.63c-.34.37-.63.56-.87.56a1.81,1.81,0,0,1-.56-.16,1.39,1.39,0,0,1-.54-.33,2.38,2.38,0,0,0-.39-.39,1.06,1.06,0,0,1-.26-.82s0-.06.09-.11.08-.09.08-.12a1.49,1.49,0,0,1-.36-.67.51.51,0,0,1,0-.2.76.76,0,0,0,0-.21l0-.54.06-.28,0-.17.09-.79c0-.12-.07-.18-.22-.18s-.1,0-.17.12a.66.66,0,0,1-.27.19,1,1,0,0,0-.35.45,1,1,0,0,0-.38.3c-.07.1-.12.15-.16.15L152,73a.36.36,0,0,0-.18.28v.07l0,.12c0,.09-.08.18-.23.26a2.08,2.08,0,0,0-.58.64.61.61,0,0,0-.22,0l-.18.37a.89.89,0,0,0-.3.33l-.18.09a2.89,2.89,0,0,1-.22.34l-.09.17c-.45.53-.76.79-.93.79s-.39-.23-.64-.69a2.56,2.56,0,0,1-.37-1.09l.06-.57a1.09,1.09,0,0,0-.12-.25v-.06a3.11,3.11,0,0,1,.12-.36V73a.29.29,0,0,0,0-.09v-.08a1.13,1.13,0,0,1,.12-.24l-.09-.45.06-.25,0-.54.06-.48a.46.46,0,0,0-.08-.17c-.06-.07-.1-.11-.12-.11a2.29,2.29,0,0,0-.64.35,4.39,4.39,0,0,0-.72.56,6,6,0,0,1-.5.48,1.09,1.09,0,0,0-.45.79s0,0-.06,0,0,0-.09-.06h-.06c-.05,0-.21.22-.48.67l-.06.06-.3-.06c-.25,0-.37.26-.37.79,0,.09-.06.15-.19.18a.51.51,0,0,0-.31.27,3.06,3.06,0,0,1-.29.45,1,1,0,0,0-.4.23s-.12.17-.35.47a4.94,4.94,0,0,0-.37.52.49.49,0,0,1-.21.18q-.18.11-.18.18l.05.26c0,.17-.16.25-.48.25-.63,0-.94-.65-.94-1.94a.89.89,0,0,1,.2-.49,5.34,5.34,0,0,0,.38-.65,8.92,8.92,0,0,0,.7-.86,7.41,7.41,0,0,1,.6-.76l.2-.32a.43.43,0,0,1,.08-.28.36.36,0,0,0,.08-.23c0-.17-.05-.25-.13-.25a.67.67,0,0,0-.46.15,1.41,1.41,0,0,1-.38.21.38.38,0,0,0-.27.21,1.25,1.25,0,0,0-.46.4c-.16.2-.27.33-.32.38a1,1,0,0,0-.15.21.23.23,0,0,1-.17.14.33.33,0,0,0-.2.11.43.43,0,0,1-.3.1c-.09,0-.18-.1-.25-.29a1.5,1.5,0,0,1-.12-.35c0-.76.5-1.41,1.51-2a1.8,1.8,0,0,0,.31-.22,1.18,1.18,0,0,1,.24-.17l.07-.11a2.63,2.63,0,0,1,.93-.53h.21l1-.26c.45-.1.67.4.67,1.5l0,.28.06.13a3.59,3.59,0,0,1,.54-.44,2,2,0,0,0,.39-.35A1.13,1.13,0,0,1,145.9,70.24Z" transform="translate(0 0.11)"/><path class="bae78dff-209f-48c9-b0fb-d9807cf1aec5" d="M171.32,73.27l.25-.21a.25.25,0,0,0,.28-.21.52.52,0,0,1,.33-.34,1.24,1.24,0,0,0,.53-.5c.17-.25.34-.38.51-.38s.14.05.22.16a.44.44,0,0,1,.12.24,2.11,2.11,0,0,1-.31,1.06l-.06.43-.11.2a.73.73,0,0,0-.3.27,1.18,1.18,0,0,1-.36.34l-.16.21a.71.71,0,0,0-.45.36.43.43,0,0,1-.33.28.83.83,0,0,0-.46.31,1.92,1.92,0,0,1-.37.14l0,.16a1.12,1.12,0,0,1-.49.24,2.15,2.15,0,0,0-.49.18.63.63,0,0,1-.23.09,1.19,1.19,0,0,1-.54-.12,1.65,1.65,0,0,0-.51-.15.37.37,0,0,1-.11-.2.65.65,0,0,0-.16-.29.76.76,0,0,1-.14-.48l.07-.3a.28.28,0,0,0-.08-.15.33.33,0,0,1-.08-.16.12.12,0,0,1,0-.09.12.12,0,0,0,0-.09.51.51,0,0,0,0-.17.61.61,0,0,1,0-.16l.09-.76q0-.09-.06-.09s-.11,0-.22.15a.52.52,0,0,1-.38.16.7.7,0,0,0-.2.38,1.38,1.38,0,0,1-.31.28l-.07.1c0,.07-.09.13-.23.18a.58.58,0,0,0-.28.17l-.15.16-.3,0s-.07.11-.17.27a1.2,1.2,0,0,1-.35.39l-1.18,1-.54.31-.1.09a4,4,0,0,1-1.75.82,2.74,2.74,0,0,1-1-.23c-.37-.16-.57-.34-.6-.56l-.16-.64a1.11,1.11,0,0,1-.13-.6.65.65,0,0,1,0-.25v-.09l0-.51c0-.13.09-.19.29-.19l0-.42a2.36,2.36,0,0,1,.27-.49,2.24,2.24,0,0,1,.36-.48l.16-.21a.5.5,0,0,1,.22-.39,2.07,2.07,0,0,0,.37-.43,2,2,0,0,1,.53-.48l.46-.46a4.86,4.86,0,0,1,1.18-.87,1.47,1.47,0,0,0,.38-.31,1.79,1.79,0,0,1,.65-.41,5.17,5.17,0,0,0,.72-.33,1.16,1.16,0,0,1,.55-.21H166a5.51,5.51,0,0,0,.83-.38h.09a.93.93,0,0,1,.29.12h0l.25-.12a.38.38,0,0,1,.16,0c.64,0,1,.44,1.05,1.33,0,.18.08.28.16.28s.25-.19.44-.57a1.23,1.23,0,0,1,1.22-.56c.44,0,.66.28.66.85a2.72,2.72,0,0,1-.89,1.91.79.79,0,0,0-.1.27l-.21.64v0a.51.51,0,0,1-.14.26.5.5,0,0,0-.13.28l0,.39-.06.43a.52.52,0,0,0,.11.39,1.26,1.26,0,0,0,.72-.41c.15-.19.25-.3.31-.32l.16-.06A1.76,1.76,0,0,1,171.32,73.27Zm-5.14,0a.71.71,0,0,1,.38-.52.74.74,0,0,0,.38-.36,8.72,8.72,0,0,0,.84-.77c.37-.38.55-.6.55-.69s0,0-.06,0h0l-.13.07-.27,0-.3,0-.22-.1-.2,0-.31-.06a.79.79,0,0,0-.42.1,3.49,3.49,0,0,1-.69.22,2.34,2.34,0,0,0-.9.43,1.26,1.26,0,0,1-.59.3,2.43,2.43,0,0,1-.73.67.7.7,0,0,0-.48.54c-.27.22-.4.34-.4.37l-.11.26a1.05,1.05,0,0,1-.31.18.36.36,0,0,0-.22.33.84.84,0,0,1-.21.46.59.59,0,0,0-.18.34c0,.5.1.76.3.76a2,2,0,0,0,.52-.17,2.2,2.2,0,0,0,.45-.22.91.91,0,0,1,.25-.13l.3-.15a.25.25,0,0,1,.14-.08.26.26,0,0,0,.15-.1,1,1,0,0,1,.28-.19.68.68,0,0,0,.31-.27l.85-.48.33-.25a1.21,1.21,0,0,0,.42-.26A.85.85,0,0,1,166.18,73.27Z" transform="translate(0 0.11)"/><path class="bae78dff-209f-48c9-b0fb-d9807cf1aec5" d="M175.61,69.88l.22-.39a1.49,1.49,0,0,1,.24-.28,2,2,0,0,0,.32-.76,2.19,2.19,0,0,1,.38-.85.79.79,0,0,1,.61-.23,1.32,1.32,0,0,1,.62.22,2.59,2.59,0,0,1,.74,1.36,6.38,6.38,0,0,1,.37,1.6,1.41,1.41,0,0,0,.1.47,2.32,2.32,0,0,1,.14.44,1.59,1.59,0,0,0-.12.3l0,.63-.19.51v.37a1.31,1.31,0,0,0-.18.39.38.38,0,0,0,.06.19,2.55,2.55,0,0,0,.88-.51.75.75,0,0,1,.3-.24,1.55,1.55,0,0,0,.49-.4l.3-.15.26-.34a.61.61,0,0,1,.25-.21,1.53,1.53,0,0,0,.35-.21,3.46,3.46,0,0,1,.59-.36l.16-.19a1.68,1.68,0,0,1,.54-.41l.35-.16c.07,0,.15.1.23.29a1.64,1.64,0,0,1,.11.56.7.7,0,0,1-.3.52,4.46,4.46,0,0,0-.41.38,1,1,0,0,1-.49.22,5.72,5.72,0,0,0-.52.63l-.31.19-.15.2s-.16.08-.42.12a.65.65,0,0,0-.07.16c0,.1-.15.18-.33.22a4.15,4.15,0,0,0-.57.57l-.33.06a1.08,1.08,0,0,1-.15.36c-.25.06-.39.17-.42.31a.53.53,0,0,1-.16.06l-.06,0a1.68,1.68,0,0,1-.7.34L178,76l-.13.19s-.12.12-.38.2a1.4,1.4,0,0,0-.56.31l-.26.2a1.65,1.65,0,0,0-.61.34h-.21a1.51,1.51,0,0,0-.69.32,1.44,1.44,0,0,1-.74.32,2.34,2.34,0,0,1-1.23-.23,2,2,0,0,1-.55-.56,4.9,4.9,0,0,0-.39-.53.55.55,0,0,1-.18-.33.29.29,0,0,1,.14-.21,1.31,1.31,0,0,0,.32-.44c.12-.23.41-.37.87-.43l.22-.09A.72.72,0,0,1,174,75c.1,0,.23.1.39.28t.06,0l.25,0a.49.49,0,0,0,.23.13,1.23,1.23,0,0,0,.79-.38l.06,0h.13s.08-.08.15-.26l.26-.54.55-.7v-.15a1.11,1.11,0,0,1,.09-.28v-.24c0-.09.06-.15.18-.17s.19-.1.19-.2l0-.12a.54.54,0,0,1-.12-.27l.15-.31,0-.32.06-.13a1.8,1.8,0,0,1-.06-.24l.06-.39s0-.11-.08-.3-.1-.27-.14-.27-.25.16-.59.48a3.24,3.24,0,0,0-.59.68.86.86,0,0,1-.39.36.94.94,0,0,0-.41.37.4.4,0,0,1-.27.23l-1,.84-1.13.83c-.08.1-.13.14-.15.14-.39,0-.58-.21-.58-.63a2.32,2.32,0,0,1,.23-.73l.17-.09s.05,0,.05,0,0,0,0,0l.09.07h0a4.79,4.79,0,0,1,.74-.45.7.7,0,0,0,.31-.34l.65-.47a7.73,7.73,0,0,0,.76-.68A4.51,4.51,0,0,0,175.61,69.88Z" transform="translate(0 0.11)"/><path class="bae78dff-209f-48c9-b0fb-d9807cf1aec5" d="M181.58,71.91l.25-.22h.09c.07,0,.18-.07.32-.23l.16-.06a1.34,1.34,0,0,1,.54-.54l.25-.19a.5.5,0,0,1,.18-.11,1.37,1.37,0,0,0,.37-.3.72.72,0,0,1,.41-.26.81.81,0,0,1,.25,0,1.06,1.06,0,0,1,.37-.36,1.43,1.43,0,0,0,.45-.43l.21-.09a1.71,1.71,0,0,0,.44-.32.66.66,0,0,1,.5-.19,1.41,1.41,0,0,1,.94.46,1.23,1.23,0,0,1,.49.87l-.27,1.21c-.17.89-.37,1.36-.58,1.4l-.07.32c-.14.11-.21.19-.21.25l.09.37s-.06.13-.17.23,0,0,0,.1v.63c0,.12-.07.21-.22.28l.09.06a.68.68,0,0,1,.42-.09l.25,0,.34-.34a1.36,1.36,0,0,0,.3-.15q.19-.1.66-.3l2-1.55q.42-.42.63-.42t.24.3a1.08,1.08,0,0,1-.14.56,4.27,4.27,0,0,0-.24.55.94.94,0,0,1-.25.44,1,1,0,0,0-.24.27,1.76,1.76,0,0,1-.51.42,5.24,5.24,0,0,0-.69.57,2.92,2.92,0,0,1-.48.41l-.66.48-.1.16a1.53,1.53,0,0,1-.28.13,2,2,0,0,0-.46.25l-.28.16a.64.64,0,0,1-.3.08.56.56,0,0,0-.36.17c-.11.11-.19.17-.25.17l-.24,0-.3.09a1.11,1.11,0,0,1-.65-.32.89.89,0,0,1-.38-.67v-.1l0-.21a1.47,1.47,0,0,0-.09-.32,2,2,0,0,1-.09-.29l0-.21,0-.1a1.32,1.32,0,0,1,.06-.52,1,1,0,0,0,.09-.31c0-.13,0-.23.06-.31l.08-.39a.44.44,0,0,1,.16-.25q0-.12.12-.42l.06-.28.16-.21a.63.63,0,0,0,.15-.34,1,1,0,0,1,.16-.44,1.07,1.07,0,0,0,.14-.28c0-.12-.06-.18-.19-.18a1.43,1.43,0,0,0-.39.24l-.28-.09s-.07,0-.17.16,0,.07-.14.09a.46.46,0,0,0-.26.23l-.12,0-.2-.09h-.07c-.1,0-.16.11-.18.34a.81.81,0,0,1-.45.33l-.34.09a.4.4,0,0,0-.25.28.92.92,0,0,1-.31.39.8.8,0,0,1-.31.18c-.29,0-.44-.16-.44-.48l.13-.73Zm6.69-7.75-.09-.6v-.1c0-.48.16-.75.5-.8a5.49,5.49,0,0,0,.65-.21,1.18,1.18,0,0,1,.58.49,1.4,1.4,0,0,1,.3.76.81.81,0,0,1-.05.14,1.35,1.35,0,0,0-.06.41.7.7,0,0,1-.3.52,1,1,0,0,1-.61.23.89.89,0,0,1-.55-.31A.93.93,0,0,1,188.27,64.16Z" transform="translate(0 0.11)"/><path class="bae78dff-209f-48c9-b0fb-d9807cf1aec5" d="M205,64.28l.09,0h.42c.13,0,.31-.14.55-.43a8,8,0,0,1,.82-.3l.06-.06.32-.25h.29a.81.81,0,0,0,.25-.14,3.8,3.8,0,0,1,.93-.34,4,4,0,0,0,.92-.31,5.82,5.82,0,0,1,.68-.09l.44-.08.34,0c.54,0,.94.37,1.17,1.09a.45.45,0,0,0,.08.19.53.53,0,0,1,.08.2,2.07,2.07,0,0,1-.64,1.36l-.21.57s-.06.1-.17.24a2,2,0,0,0-.28.47,3.77,3.77,0,0,1-.67.81c-.06.13-.15.32-.26.59a2,2,0,0,1-.29.51,9.81,9.81,0,0,0-.6.93,3.74,3.74,0,0,0-.49,1,.88.88,0,0,0-.32.57,2.13,2.13,0,0,1-.32.76l0,.11c.33-.11.5-.29.5-.54,0,0,.08-.11.26-.23l.12-.22a.71.71,0,0,1,.33-.25,1,1,0,0,1,.32-.36c.2-.16.33-.27.4-.34a1.52,1.52,0,0,1,.33-.19c.16-.07.33-.32.53-.77,0-.08.1-.15.24-.2a.87.87,0,0,0,.35-.25,1.49,1.49,0,0,1,.23-.25l.12-.18a2.55,2.55,0,0,1,.23-.19l.76-.93c.41-.26.63-.46.67-.6l.12,0h.1l.32-.28a.59.59,0,0,1,.35-.61,1.18,1.18,0,0,0,.5-.36.45.45,0,0,1,.34-.21.39.39,0,0,1,.17.09h0s.07,0,.1-.15v-.16a.63.63,0,0,1,.15-.43.74.74,0,0,1,.42-.22.88.88,0,0,0,.51-.4.75.75,0,0,1,.57-.36.44.44,0,0,0,.42-.24,1.39,1.39,0,0,1,.67-.51A3.47,3.47,0,0,1,219,62a1,1,0,0,0,.26-.09.53.53,0,0,1,.24-.06,1.74,1.74,0,0,1,.45.09l.28.06a1.69,1.69,0,0,1,.66.58l.16.15v.07l0,.26v.12c.14.06.2.13.2.19l-.11.2a.53.53,0,0,0-.06.26c0,.09,0,.19,0,.29s0,.19,0,.28l-.06.25-.09.21a1.28,1.28,0,0,1-.11.2l-.12.49a2.14,2.14,0,0,1-.34.71,2.4,2.4,0,0,0-.31.57,2,2,0,0,1-.22.44l0,.1v.21c.32,0,.48-.16.48-.37a.52.52,0,0,1,.39-.48l.34-.28a2,2,0,0,1,1-.93.73.73,0,0,1,.3-.51l.59-.56.42-.23a1.3,1.3,0,0,1,.63-.7l.35-.21c.2-.11.32-.21.35-.3a.58.58,0,0,1,.24-.31c.13-.1.33-.27.59-.51l.12-.06.16-.16a1.76,1.76,0,0,1,.39-.15l.12-.06a2.45,2.45,0,0,1,.7-.4,4.25,4.25,0,0,0,.7-.33l.54-.08a.93.93,0,0,1,.25-.06c1,0,1.47.55,1.47,1.66l0,.25,0,.89c-.26.43-.39.65-.39.67l0,.28a1.1,1.1,0,0,1-.2.36l-.24.37a3.37,3.37,0,0,1-.29.32l-.15.47a.87.87,0,0,1-.26.29v.19c0,.15-.21.39-.61.7a1.08,1.08,0,0,1-.27.59,1.59,1.59,0,0,0-.3.41,1.11,1.11,0,0,1-.31.39,1.69,1.69,0,0,1-.27.68,2.56,2.56,0,0,1-.41.62,1.34,1.34,0,0,0-.3.45l-.14.06c-.06.4-.13.62-.22.67l-.24,0v.06a.24.24,0,0,0,.06.11.27.27,0,0,1,.06.17.25.25,0,0,1-.09.19.24.24,0,0,0-.11.15.56.56,0,0,1-.07.16.59.59,0,0,0-.07.3,1.56,1.56,0,0,1-.24.61,2,2,0,0,0-.23.53.71.71,0,0,1-.05.23.58.58,0,0,0,0,.19,3.43,3.43,0,0,1-.07.48c.19.46.33.78.42.94a1.1,1.1,0,0,1,.12.33,1.46,1.46,0,0,1-.16.83c-.1.14-.35.21-.76.21a.94.94,0,0,1-.67-.27.85.85,0,0,0-.51-.28v-.27l0,0h-.25a.54.54,0,0,0-.13-.11,1,1,0,0,1-.19-.22l-.1-.09a1.56,1.56,0,0,1-.21-.51l-.1-.32,0-.24,0-.39a.6.6,0,0,1,0-.25l0-.42a1.35,1.35,0,0,1,.06-.27,3,3,0,0,0,.08-.49.8.8,0,0,1,.13-.45.51.51,0,0,0,.14-.26.31.31,0,0,1,.09-.18s.08-.16.12-.35a.68.68,0,0,1,.32-.45c.1-.18.19-.36.26-.52a3.2,3.2,0,0,1,.35-.45h.21a1,1,0,0,1-.15-.22c0-.28.11-.42.32-.42l.16,0,.06-.12-.06-.26c0-.18.13-.36.4-.53a1.05,1.05,0,0,1,.42-.81l0-.25a1.7,1.7,0,0,0,.26-.41,4.59,4.59,0,0,1,.44-.64l.48-.73.21-.25s0,0,0,0,0,0,0-.06a.91.91,0,0,0,.06-.16l.09-.24.11-.12c.27-.07.4-.16.4-.28a.7.7,0,0,0-.12-.2V64.1a.51.51,0,0,1,.18-.31,2,2,0,0,0,.35-.52,1.42,1.42,0,0,0,.16-.41.05.05,0,0,0-.06-.06.65.65,0,0,0-.66.35c0,.06-.21.19-.61.37l-.15.24a.58.58,0,0,1-.33.17.66.66,0,0,0-.36.18c-.15.11-.48.38-1,.8a10.16,10.16,0,0,0-1.11,1l-.36.25c-.14.07-.22.13-.22.17s-.09.24-.26.4l-.19.24a1,1,0,0,0-.25-.08.36.36,0,0,0-.29.17q.12.12.12.15c0,.17-.15.34-.46.52l-.67.69-.24.17a1,1,0,0,0-.3.35,4.56,4.56,0,0,1-.55.73,4.37,4.37,0,0,1-.53.56.67.67,0,0,0-.19.21,2.87,2.87,0,0,1-.45.48,1.09,1.09,0,0,0-.39.68c-.19.07-.29.14-.29.19l-.1.15-.12.06a.81.81,0,0,0-.05.21c0,.1-.21.28-.62.53a2.31,2.31,0,0,1-.76.38.35.35,0,0,0-.14.06.31.31,0,0,1-.12.06,2.21,2.21,0,0,1-.41-.18,1.31,1.31,0,0,1-.54-.87l.13-.4-.06-.33a.42.42,0,0,1,.14-.25.52.52,0,0,0,.15-.38c.17-.38.29-.64.37-.79l0-.25a1.35,1.35,0,0,1,.21-.35.86.86,0,0,0,.18-.44.34.34,0,0,1,.2-.3,9.32,9.32,0,0,0,1.26-1.87v-.22l.45-.78c.13-.22.3-.48.49-.77l.14-.36-.51-.18a.39.39,0,0,0-.23.12c0,.18-.31.36-.91.54a1.86,1.86,0,0,0-.48.45l-.44.25a3.15,3.15,0,0,0-.29.25l-.22.2a1.22,1.22,0,0,0-.67.44l-.41.29a1.52,1.52,0,0,0-.25.23,2.74,2.74,0,0,1-.58.34l-.24.25-.24.12c-.16.18-.28.33-.37.45a.44.44,0,0,1-.32.22l-.34.13a1.53,1.53,0,0,1-.58.77l-.45.56-.21.17a.43.43,0,0,1-.22.22l-.26.34-.19.14q-.42.15-.42.24l0,.28c0,.12-.12.23-.37.33a.32.32,0,0,0-.18.25,1,1,0,0,1-.11.35h-.28a1.28,1.28,0,0,0-.29.16.09.09,0,0,0-.07,0l.07.36a.68.68,0,0,1-.25.42,2.72,2.72,0,0,0-.38.43c-.09.12-.16.18-.2.18h-.09l-.09.07q0,.28-.39.63l-.19.23a7,7,0,0,0-.52.78,8.53,8.53,0,0,1-.83,1.13,2.29,2.29,0,0,1-.71.58l-.7.3-.63-.12a.8.8,0,0,0-.27-.28c-.12-.07-.18-.15-.18-.23l-.19-.54a1.23,1.23,0,0,1,.17-.54,1.75,1.75,0,0,0,.21-.49,3.06,3.06,0,0,1,.18-.48,3.39,3.39,0,0,0,.14-.34c0-.28,0-.45.13-.52l.6-.46s0,0,0-.06v0l0-.26c.23-.4.38-.61.45-.61l.12,0-.09-.35s0-.1.17-.2a1,1,0,0,0,.26-.31l-.06-.18v-.06a.84.84,0,0,1,.39-.61c0-.08.12-.29.25-.64l.4-.71a.88.88,0,0,1,.33-.39.39.39,0,0,0,.19-.24.8.8,0,0,1,.1-.31s0,0,0,0l.08-.3a.55.55,0,0,1,.35-.37c.24-.61.42-.92.56-.92a.43.43,0,0,1,.17.07h.06c.17,0,.25-.07.25-.19a.05.05,0,0,0-.06-.06.4.4,0,0,1-.25.15c-.07,0-.11,0-.11-.06s0,0,.05-.06l.34-.7,0-.29a1.66,1.66,0,0,1,.25-.28l.26-.36v-.15a2.36,2.36,0,0,1,.14-.32,2.59,2.59,0,0,0,.2-.57l.27-.38a1.16,1.16,0,0,0,.06-.34q0-.24-.06-.24l-.9.17a11.32,11.32,0,0,0-1.05.59l-.35.08a3.31,3.31,0,0,0-.42.21,1.57,1.57,0,0,1-.67.23.8.8,0,0,0-.5.23l-.06,0h-.3a2.42,2.42,0,0,0-.23.3c0,.07-.08.1-.11.1-1,.69-1.71,1.11-2,1.26a3.66,3.66,0,0,0-.64.39,2,2,0,0,1-.37.26v.18a.9.9,0,0,1-.38.6,1.08,1.08,0,0,1-.66.33.7.7,0,0,1-.29-.1,1.44,1.44,0,0,0-.43-.13c-.16,0-.24-.22-.24-.59s.43-1,1.3-1.44a1.51,1.51,0,0,0,.37-.22,12.9,12.9,0,0,1,1.38-.6l.45-.22a1.62,1.62,0,0,1,.52-.29c.24-.08.44-.16.58-.22a2,2,0,0,1,.33-.12ZM219.57,68l.15-.27v0s0,0-.06,0-.19.11-.25.31,0,.1.06.1A.1.1,0,0,0,219.57,68Z" transform="translate(0 0.11)"/><path class="bae78dff-209f-48c9-b0fb-d9807cf1aec5" d="M240.11,73.27l.25-.21a.26.26,0,0,0,.28-.21.52.52,0,0,1,.33-.34,1.24,1.24,0,0,0,.53-.5c.17-.25.34-.38.51-.38s.14.05.22.16a.44.44,0,0,1,.12.24,2.11,2.11,0,0,1-.31,1.06l-.06.43-.11.2a.73.73,0,0,0-.3.27,1.25,1.25,0,0,1-.37.34l-.15.21a.76.76,0,0,0-.46.36.42.42,0,0,1-.32.28.83.83,0,0,0-.46.31,2.21,2.21,0,0,1-.37.14l0,.16a1.12,1.12,0,0,1-.49.24,2.48,2.48,0,0,0-.5.18.61.61,0,0,1-.22.09,1.19,1.19,0,0,1-.54-.12,1.65,1.65,0,0,0-.51-.15.31.31,0,0,1-.11-.2.78.78,0,0,0-.16-.29.76.76,0,0,1-.14-.48l.07-.3a.28.28,0,0,0-.08-.15.33.33,0,0,1-.08-.16.12.12,0,0,1,0-.09.12.12,0,0,0,0-.09.51.51,0,0,0,0-.17.61.61,0,0,1,0-.16l.09-.76q0-.09-.06-.09a.45.45,0,0,0-.22.15.52.52,0,0,1-.38.16.64.64,0,0,0-.2.38,1.24,1.24,0,0,1-.32.28l-.06.1c0,.07-.1.13-.23.18a.54.54,0,0,0-.28.17l-.15.16-.3,0a1.92,1.92,0,0,0-.17.27,1.12,1.12,0,0,1-.36.39l-1.17,1-.55.31-.09.09a4.06,4.06,0,0,1-1.75.82,2.69,2.69,0,0,1-1-.23c-.37-.16-.57-.34-.6-.56l-.16-.64a1.11,1.11,0,0,1-.14-.6.65.65,0,0,1,0-.25v-.09l0-.51c0-.13.1-.19.3-.19l0-.42a2.36,2.36,0,0,1,.27-.49,2.24,2.24,0,0,1,.36-.48l.16-.21a.51.51,0,0,1,.21-.39,2.13,2.13,0,0,0,.38-.43,2.08,2.08,0,0,1,.52-.48l.47-.46a4.86,4.86,0,0,1,1.18-.87,1.47,1.47,0,0,0,.38-.31,1.79,1.79,0,0,1,.65-.41,5.17,5.17,0,0,0,.72-.33,1.16,1.16,0,0,1,.55-.21h.12a5.2,5.2,0,0,0,.82-.38h.1a.93.93,0,0,1,.29.12h0l.25-.12a.35.35,0,0,1,.16,0c.64,0,1,.44,1,1.33,0,.18.07.28.16.28s.25-.19.44-.57.59-.56,1.22-.56c.44,0,.66.28.66.85a2.69,2.69,0,0,1-.9,1.91A1.07,1.07,0,0,0,239,72l-.22.64v0a.47.47,0,0,1-.13.26.44.44,0,0,0-.13.28l0,.39-.06.43c0,.2,0,.33.11.39a1.2,1.2,0,0,0,.71-.41,1.11,1.11,0,0,1,.32-.32l.16-.06A1.76,1.76,0,0,1,240.11,73.27Zm-5.15,0a.77.77,0,0,1,.38-.52.7.7,0,0,0,.38-.36,7.53,7.53,0,0,0,.85-.77c.37-.38.55-.6.55-.69s0,0-.06,0h0l-.13.07-.28,0-.29,0-.22-.1-.2,0-.31-.06a.83.83,0,0,0-.43.1,3.33,3.33,0,0,1-.68.22,2.39,2.39,0,0,0-.91.43,1.2,1.2,0,0,1-.58.3,2.57,2.57,0,0,1-.73.67.7.7,0,0,0-.48.54,2.06,2.06,0,0,0-.41.37l-.11.26a.89.89,0,0,1-.3.18.36.36,0,0,0-.22.33.84.84,0,0,1-.21.46.59.59,0,0,0-.18.34c0,.5.1.76.29.76a1.8,1.8,0,0,0,.52-.17,2.12,2.12,0,0,0,.46-.22.91.91,0,0,1,.25-.13l.29-.15a.29.29,0,0,1,.14-.08.26.26,0,0,0,.16-.1.88.88,0,0,1,.28-.19.68.68,0,0,0,.31-.27l.85-.48.33-.25a1.14,1.14,0,0,0,.41-.26A1.08,1.08,0,0,1,235,73.27Z" transform="translate(0 0.11)"/><path class="bae78dff-209f-48c9-b0fb-d9807cf1aec5" d="M241.2,86.67l-.25.17a.63.63,0,0,1-.33.09,1,1,0,0,1-.75-.51,1.81,1.81,0,0,1-.36-1.06A3.48,3.48,0,0,1,239.7,84a2.59,2.59,0,0,0,.23-.62s.11-.26.33-.76a5.66,5.66,0,0,1,.63-1.14,7.77,7.77,0,0,0,.49-.73l.07-.12a1.72,1.72,0,0,1,.44-.52c0-.06.2-.27.6-.64a13.64,13.64,0,0,1,1.12-.94l.16-.21a1.83,1.83,0,0,1,.43-.24l.9-.25c.09-.08.29-.24.61-.47h.12l.42-.13a5.2,5.2,0,0,1,1.06-.29c.48-.08.75-.19.82-.31a3.29,3.29,0,0,0,.16-.33c.05-.1.16-.32.34-.65,0-.18.08-.31.11-.42s.06-.16.1-.18a1.2,1.2,0,0,0,.18-.31,2.33,2.33,0,0,1,.25-.45,0,0,0,0,0,0,0l-.1-.27a1,1,0,0,1,.26-.46c.09-.05.13-.09.13-.11l-.11-.28.27-.57a.06.06,0,0,0-.07-.07,3.38,3.38,0,0,1-1,.58,3.71,3.71,0,0,1-.34.37.56.56,0,0,0-.35.32l-.13,0-.09.16s0,0-.11.08a3.86,3.86,0,0,0-.43.25l-.19,0s-.09.1-.15.3a1.09,1.09,0,0,1-.51.38.57.57,0,0,0-.3.17l-.12.15-.16,0c-.21,0-.32.08-.32.25a.52.52,0,0,1-.19.33.79.79,0,0,0-.31.09h-.23a.71.71,0,0,1-.56.42l-.44.31-.27.09a3.6,3.6,0,0,0-.37.22,1.22,1.22,0,0,1-.63.17,2.4,2.4,0,0,0-.67-.24c-.3-.08-.51-.58-.63-1.52h0a.56.56,0,0,0-.27.1.52.52,0,0,1-.21.09c-.24,0-.37-.1-.37-.31a.88.88,0,0,1,.53-.91l.39-.48,1-1c.69-.69,1.16-1.14,1.4-1.33a8.14,8.14,0,0,1,.77-.58l.8-.52a3.1,3.1,0,0,1,.49-.29.75.75,0,0,0,.2-.1,2.28,2.28,0,0,1,.56-.23l.28-.13a5.2,5.2,0,0,1,1.12-.29l.22,0a.56.56,0,0,0,.33-.12,1.39,1.39,0,0,0,.66-.35l.56-.15a1.41,1.41,0,0,1,.39-.08h.3q.31,0,.42.51t.18.51s.08-.07.19-.23l.21-.15a.84.84,0,0,1,.3-.16.43.43,0,0,1,.46.31v0l.06.08a6.4,6.4,0,0,1,.14.91,1.91,1.91,0,0,1-.31,1.17,2.4,2.4,0,0,0-.38.59,11.23,11.23,0,0,1-.62,1.89c-.05.11-.18.41-.38.9l-.15.15a.1.1,0,0,0-.06.09l0,.22a1.33,1.33,0,0,0-.26.67,1.79,1.79,0,0,1-.25.57,1.45,1.45,0,0,0,.27.16,2.16,2.16,0,0,1,.54.5,1.07,1.07,0,0,1,.3.55,4.63,4.63,0,0,1-.17.6,1.68,1.68,0,0,1-.94.42.83.83,0,0,1-.45-.2l-.1,0v-.06a.91.91,0,0,1-.31-.12.55.55,0,0,0-.23-.07c-.08,0-.12.05-.12.13a.27.27,0,0,0,0,.12,1.75,1.75,0,0,0-.25.24,3.41,3.41,0,0,1-.22.45,1.73,1.73,0,0,1-.39.55c-.23,0-.38.18-.46.51a1.26,1.26,0,0,1-.3.64l-.15-.06a5.09,5.09,0,0,1-1.06,1.52c-.21,0-.33.09-.33.11s0,.1,0,.2a1.34,1.34,0,0,1-.37.52c-.24.23-.37.35-.41.35l-.16,0-.09.09c0,.21-.27.54-.82,1-.3.17-.46.28-.48.34a2,2,0,0,1-.92.7l-.29.26a1.38,1.38,0,0,1-.41.27Zm5.59-8-.46.06a.58.58,0,0,0-.27-.12s-.07,0-.09.09a1.66,1.66,0,0,1-.82.42,2.42,2.42,0,0,0-.86.35.78.78,0,0,1-.38.19c-.11,0-.16,0-.16.06a2.58,2.58,0,0,0-.23.22,1.3,1.3,0,0,0-.31.19.66.66,0,0,1-.33.17c-.18.4-.32.6-.4.6l-.15,0h0a1.55,1.55,0,0,1-.31.47.52.52,0,0,0-.19.17.9.9,0,0,1-.3.26.74.74,0,0,0-.31.47,1,1,0,0,1-.19.45.86.86,0,0,0-.15.52l-.09.22a3.49,3.49,0,0,0-.13.53c-.06.3-.09.45-.09.46a.56.56,0,0,0,.19.39.42.42,0,0,1,.26-.11l.92-.37.34-.29a1.68,1.68,0,0,1,.52-.33,1.11,1.11,0,0,0,.41-.28,1,1,0,0,1,.3-.31.49.49,0,0,0,.21-.31l.65-.58a1.66,1.66,0,0,0,.38-.45.88.88,0,0,1,.27-.31l.06-.2.14,0c.06,0,.17-.18.33-.5l.42-.7a2.62,2.62,0,0,0,.6-.94l.22-.19s.06-.07.06-.14Zm-.28-5,.19-.26a.58.58,0,0,1,.32-.18.65.65,0,0,0,.36-.27,2.24,2.24,0,0,1,.89-.77l.15-.11c.15-.3.29-.46.42-.49a.53.53,0,0,0,.32-.28.77.77,0,0,0,.14-.39s0-.07-.09-.07a.58.58,0,0,0-.38.13.53.53,0,0,1-.22.12l-.31,0c-.19.1-.45.23-.78.37l-.28.24a1,1,0,0,1-.33.15.36.36,0,0,0-.23.19c-.05.11-.12.17-.2.17l-.12.06a.62.62,0,0,1-.36.06,1.74,1.74,0,0,0-.32.26c-.1.12-.17.17-.19.17a1.92,1.92,0,0,1-.61.49.55.55,0,0,0-.34.26.88.88,0,0,0-.49.35,1.42,1.42,0,0,1-.37.37,1.32,1.32,0,0,0-.28.25l-.16.13a1.26,1.26,0,0,0-.25.41,1.4,1.4,0,0,0-.17.49c0,.06,0,.09.11.09a1.52,1.52,0,0,0,.58-.22,3,3,0,0,0,.56-.35c.08-.09.13-.13.17-.13l.58,0a.49.49,0,0,1,.32-.26.58.58,0,0,0,.35-.26,1.53,1.53,0,0,1,.7-.44l.17-.28Z" transform="translate(0 0.11)"/><path class="bae78dff-209f-48c9-b0fb-d9807cf1aec5" d="M265.25,73.27l.25-.21a.26.26,0,0,0,.28-.21.52.52,0,0,1,.33-.34,1.24,1.24,0,0,0,.53-.5c.17-.25.34-.38.51-.38s.14.05.22.16a.44.44,0,0,1,.12.24,2.11,2.11,0,0,1-.31,1.06l-.06.43-.11.2a.73.73,0,0,0-.3.27,1.32,1.32,0,0,1-.36.34l-.16.21a.76.76,0,0,0-.46.36.41.41,0,0,1-.32.28.83.83,0,0,0-.46.31,2.21,2.21,0,0,1-.37.14l0,.16a1.12,1.12,0,0,1-.49.24,2.48,2.48,0,0,0-.5.18.55.55,0,0,1-.22.09,1.19,1.19,0,0,1-.54-.12,1.65,1.65,0,0,0-.51-.15.31.31,0,0,1-.11-.2.65.65,0,0,0-.16-.29.76.76,0,0,1-.14-.48l.07-.3a.28.28,0,0,0-.08-.15.33.33,0,0,1-.08-.16.12.12,0,0,1,0-.09.12.12,0,0,0,0-.09.51.51,0,0,0,0-.17.61.61,0,0,1,0-.16l.09-.76q0-.09-.06-.09s-.11,0-.22.15a.52.52,0,0,1-.38.16.64.64,0,0,0-.2.38,1.38,1.38,0,0,1-.31.28l-.07.1c0,.07-.1.13-.23.18a.54.54,0,0,0-.28.17l-.15.16-.3,0a1.92,1.92,0,0,0-.17.27,1.2,1.2,0,0,1-.35.39l-1.18,1-.55.31-.09.09a4.06,4.06,0,0,1-1.75.82,2.69,2.69,0,0,1-1-.23c-.37-.16-.57-.34-.6-.56l-.16-.64a1.11,1.11,0,0,1-.14-.6.65.65,0,0,1,0-.25v-.09l0-.51c0-.13.1-.19.3-.19l0-.42a2.36,2.36,0,0,1,.27-.49,2.24,2.24,0,0,1,.36-.48l.16-.21a.5.5,0,0,1,.22-.39,2.42,2.42,0,0,0,.37-.43,2.08,2.08,0,0,1,.52-.48l.47-.46a4.86,4.86,0,0,1,1.18-.87,1.47,1.47,0,0,0,.38-.31,1.79,1.79,0,0,1,.65-.41,5.17,5.17,0,0,0,.72-.33,1.16,1.16,0,0,1,.55-.21H260a5.2,5.2,0,0,0,.82-.38h.1a.93.93,0,0,1,.29.12h0l.25-.12a.35.35,0,0,1,.16,0c.64,0,1,.44,1,1.33,0,.18.07.28.16.28s.25-.19.44-.57a1.23,1.23,0,0,1,1.22-.56c.44,0,.66.28.66.85a2.69,2.69,0,0,1-.9,1.91,1.07,1.07,0,0,0-.09.27l-.22.64v0a.47.47,0,0,1-.13.26.44.44,0,0,0-.13.28l0,.39-.06.43a.52.52,0,0,0,.11.39,1.26,1.26,0,0,0,.72-.41c.15-.19.25-.3.31-.32l.16-.06A1.76,1.76,0,0,1,265.25,73.27Zm-5.14,0a.73.73,0,0,1,.37-.52.7.7,0,0,0,.38-.36,7.53,7.53,0,0,0,.85-.77c.37-.38.55-.6.55-.69s0,0-.06,0h0L262,71l-.28,0-.29,0-.22-.1-.2,0-.31-.06a.85.85,0,0,0-.43.1,3.33,3.33,0,0,1-.68.22,2.39,2.39,0,0,0-.91.43,1.2,1.2,0,0,1-.58.3,2.57,2.57,0,0,1-.73.67.7.7,0,0,0-.48.54,2.06,2.06,0,0,0-.41.37l-.1.26a1.05,1.05,0,0,1-.31.18.36.36,0,0,0-.22.33.84.84,0,0,1-.21.46.59.59,0,0,0-.18.34c0,.5.1.76.3.76a1.87,1.87,0,0,0,.51-.17,2.12,2.12,0,0,0,.46-.22.91.91,0,0,1,.25-.13l.29-.15a.34.34,0,0,1,.14-.08.26.26,0,0,0,.16-.1.88.88,0,0,1,.28-.19.68.68,0,0,0,.31-.27l.85-.48.33-.25a1.14,1.14,0,0,0,.41-.26A1,1,0,0,1,260.11,73.27Z" transform="translate(0 0.11)"/><path class="bae78dff-209f-48c9-b0fb-d9807cf1aec5" d="M280.71,74.24h.06l.15.06a.09.09,0,0,0,.07,0,.53.53,0,0,1,.25-.45.68.68,0,0,1,.34-.45l.87-.51.39-.35.18-.09.13-.15a.45.45,0,0,1,.32-.21q.24,0,.24.18l-.14.31.06.51a.71.71,0,0,1-.2.49c-.13.15-.32.36-.59.64l-.79.84-.42.21a1.24,1.24,0,0,0-.28.22l-.61.51a.41.41,0,0,1-.14.33h-.25l-.12.06a1.26,1.26,0,0,1-.64.57l-.22.16a.3.3,0,0,1-.2.09l-.43-.06-.3.06a.74.74,0,0,1-.33-.12,1.86,1.86,0,0,0-.43-.2c-.14,0-.32-.24-.55-.57a2.83,2.83,0,0,1-.36-.66.82.82,0,0,0-.07-.21.62.62,0,0,1-.07-.18,2.63,2.63,0,0,1,.14-.31v0a.78.78,0,0,0-.09-.22.86.86,0,0,1-.08-.41.82.82,0,0,0-.1-.36c.09-.08.13-.14.13-.19a.51.51,0,0,0-.05-.17.54.54,0,0,1,0-.18l.09-.76-.06-.39,0-.37c0-.22-.1-.33-.28-.33a.54.54,0,0,0-.31.17l-.11,0a3.4,3.4,0,0,0-.58.34.59.59,0,0,1-.36.13.87.87,0,0,1-.35.17l-.13.09a1.38,1.38,0,0,1-.25.19,3.74,3.74,0,0,1-.57.52c-.39.31-.74.61-1.05.89a1.89,1.89,0,0,1-.67.46q-.21,0-.21.39s-.09.13-.28.25a1.71,1.71,0,0,0-.32.34,1.55,1.55,0,0,0-.28-.19c-.13,0-.23.17-.29.52-.07.13-.23.21-.5.24a.64.64,0,0,0-.11.24l-.06.06h-.16a1,1,0,0,0-.22.18.87.87,0,0,1-.32.22c-.14.28-.25.42-.34.42a.46.46,0,0,1-.18-.06,1.36,1.36,0,0,0-.29-.11c-.11,0-.24-.16-.38-.38a1.11,1.11,0,0,1-.21-.57c0-1.14.22-1.77.67-1.87l0-.06V74a.28.28,0,0,1,.18-.28,1,1,0,0,0,.36-.34,1.19,1.19,0,0,1,.25-.29h.2s.06-.11.06-.33a.25.25,0,0,1,.08-.17.34.34,0,0,0,.09-.22,1.38,1.38,0,0,1,.23-.48,1.63,1.63,0,0,0,.21-.4l0-.06a1.54,1.54,0,0,1-.56.39c-.12,0-.27.17-.47.45l-.24,0a6.32,6.32,0,0,1-.81.54.84.84,0,0,0-.34.36c0,.06,0,.1-.11.12a2.06,2.06,0,0,0-.41.25h-.09c-.26,0-.39-.18-.39-.56l.33-.88a1.31,1.31,0,0,1,.66-.71,7.83,7.83,0,0,0,.87-.55,1.45,1.45,0,0,1,.71-.28l.11-.15a1.16,1.16,0,0,0,.71-.64c.13-.29.3-.43.51-.43a1.51,1.51,0,0,1,1.31.63,2,2,0,0,1,.44,1l0,.42a3.06,3.06,0,0,1-.1.6,1,1,0,0,0-.18.42q0,.12.15.12a.43.43,0,0,0,.25-.13,1.8,1.8,0,0,1,.35-.24c.13-.07.2-.13.22-.18a1,1,0,0,1,.54-.52,1.49,1.49,0,0,0,.48-.23l.16-.12.12-.23a1.69,1.69,0,0,0,.56-.35.67.67,0,0,1,.37-.2,1.24,1.24,0,0,0,.53-.28l.23-.06.22-.12a.51.51,0,0,1,.18-.08l.46-.16a1.42,1.42,0,0,1,.41-.12,1.45,1.45,0,0,1,1.25.64,2,2,0,0,1,.45,1l0,.28.07.42v.06l-.13.85,0,.3a1.29,1.29,0,0,1-.31,1,.16.16,0,0,0-.08.16v.14l.31.65c.1.23.17.34.22.34l.5-.14a.64.64,0,0,0,.36-.32,3,3,0,0,0,.43-.38A.31.31,0,0,1,280.71,74.24Z" transform="translate(0 0.11)"/><path class="bae78dff-209f-48c9-b0fb-d9807cf1aec5" d="M282.81,86.67l-.24.17a.68.68,0,0,1-.33.09,1,1,0,0,1-.75-.51,1.82,1.82,0,0,1-.37-1.06,3.44,3.44,0,0,1,.2-1.38,2.46,2.46,0,0,0,.22-.62s.11-.26.34-.76a6.27,6.27,0,0,1,.62-1.14,8,8,0,0,0,.5-.73l.06-.12a1.88,1.88,0,0,1,.45-.52c0-.06.2-.27.6-.64a13.64,13.64,0,0,1,1.12-.94l.16-.21a1.64,1.64,0,0,1,.43-.24l.9-.25a6,6,0,0,1,.6-.47h.13l.42-.13a5,5,0,0,1,1.06-.29c.47-.08.75-.19.81-.31a3.48,3.48,0,0,0,.17-.33c0-.1.16-.32.34-.65a3.5,3.5,0,0,1,.11-.42c0-.1.06-.16.1-.18a1.32,1.32,0,0,0,.17-.31,4.3,4.3,0,0,1,.25-.45,0,0,0,0,0,0,0l-.09-.27a.88.88,0,0,1,.26-.46c.08-.05.13-.09.13-.11l-.11-.28.26-.57s0-.07-.06-.07a3.7,3.7,0,0,1-1,.58c0,.07-.17.19-.34.37a.55.55,0,0,0-.36.32l-.12,0-.09.16s0,0-.11.08a3.1,3.1,0,0,0-.43.25l-.19,0s-.09.1-.16.3a1,1,0,0,1-.5.38.57.57,0,0,0-.3.17l-.12.15-.16,0c-.22,0-.32.08-.32.25a.57.57,0,0,1-.19.33.74.74,0,0,0-.31.09h-.23a.71.71,0,0,1-.56.42l-.45.31-.26.09a3.6,3.6,0,0,0-.37.22,1.3,1.3,0,0,1-.64.17,2.2,2.2,0,0,0-.66-.24c-.3-.08-.51-.58-.64-1.52h0a.56.56,0,0,0-.27.1.52.52,0,0,1-.21.09c-.25,0-.37-.1-.37-.31a.87.87,0,0,1,.53-.91l.38-.48,1-1c.69-.69,1.15-1.14,1.39-1.33s.5-.39.78-.58l.79-.52a3,3,0,0,1,.5-.29.58.58,0,0,0,.19-.1,2.66,2.66,0,0,1,.57-.23l.28-.13a5.06,5.06,0,0,1,1.12-.29l.22,0a.51.51,0,0,0,.32-.12,1.37,1.37,0,0,0,.67-.35l.56-.15a1.29,1.29,0,0,1,.39-.08h.29c.22,0,.36.17.43.51s.13.51.18.51.08-.07.18-.23l.22-.15a.77.77,0,0,1,.3-.16.43.43,0,0,1,.46.31v0l.06.08a6.4,6.4,0,0,1,.14.91,1.85,1.85,0,0,1-.32,1.17,3.25,3.25,0,0,0-.38.59,9.66,9.66,0,0,1-.62,1.89c-.05.11-.17.41-.37.9l-.15.15a.11.11,0,0,0-.07.09l0,.22a1.36,1.36,0,0,0-.27.67,1.57,1.57,0,0,1-.25.57,1.75,1.75,0,0,0,.28.16,2.16,2.16,0,0,1,.54.5,1.07,1.07,0,0,1,.3.55s-.06.23-.17.6a1.7,1.7,0,0,1-.95.42.9.9,0,0,1-.45-.2l-.09,0v-.06a1.07,1.07,0,0,1-.32-.12.51.51,0,0,0-.22-.07.12.12,0,0,0-.13.13.27.27,0,0,0,0,.12l-.25.24a2.68,2.68,0,0,1-.21.45,1.9,1.9,0,0,1-.39.55c-.23,0-.38.18-.47.51a1.27,1.27,0,0,1-.29.64l-.16-.06a5.09,5.09,0,0,1-1.05,1.52c-.22,0-.33.09-.33.11a1.23,1.23,0,0,0,0,.2,1.29,1.29,0,0,1-.38.52,1.58,1.58,0,0,1-.41.35l-.15,0-.09.09c0,.21-.27.54-.83,1-.3.17-.46.28-.48.34s-.38.43-.91.7l-.3.26a1.23,1.23,0,0,1-.4.27Zm5.6-8-.47.06a.52.52,0,0,0-.26-.12s-.07,0-.09.09a1.65,1.65,0,0,1-.83.42,2.51,2.51,0,0,0-.86.35.75.75,0,0,1-.38.19q-.15,0-.15.06a2.58,2.58,0,0,0-.23.22,1.13,1.13,0,0,0-.31.19.75.75,0,0,1-.33.17c-.18.4-.32.6-.4.6l-.16,0h0a1.38,1.38,0,0,1-.31.47.58.58,0,0,0-.18.17,1.08,1.08,0,0,1-.31.26.7.7,0,0,0-.3.47,1,1,0,0,1-.19.45.86.86,0,0,0-.15.52l-.09.22a2.54,2.54,0,0,0-.13.53c-.06.3-.09.45-.09.46a.52.52,0,0,0,.19.39.42.42,0,0,1,.26-.11l.92-.37.34-.29a1.58,1.58,0,0,1,.52-.33,1.2,1.2,0,0,0,.41-.28,1,1,0,0,1,.3-.31.49.49,0,0,0,.21-.31l.65-.58a1.87,1.87,0,0,0,.38-.45.79.79,0,0,1,.27-.31l.06-.2.13,0c.07,0,.18-.18.34-.5l.42-.7a2.92,2.92,0,0,0,.6-.94l.22-.19s.06-.07.06-.14Zm-.28-5,.19-.26a.54.54,0,0,1,.31-.18A.7.7,0,0,0,289,73a2.29,2.29,0,0,1,.88-.77l.16-.11c.15-.3.29-.46.42-.49a.53.53,0,0,0,.32-.28.88.88,0,0,0,.14-.39s0-.07-.09-.07a.57.57,0,0,0-.38.13.54.54,0,0,1-.23.12l-.31,0a8.27,8.27,0,0,1-.77.37l-.28.24a1,1,0,0,1-.33.15.33.33,0,0,0-.23.19c-.05.11-.12.17-.2.17l-.12.06a.65.65,0,0,1-.36.06,1.74,1.74,0,0,0-.32.26c-.11.12-.17.17-.19.17a1.84,1.84,0,0,1-.62.49.53.53,0,0,0-.33.26.88.88,0,0,0-.49.35,1.59,1.59,0,0,1-.37.37,1.37,1.37,0,0,0-.29.25l-.15.13a1.22,1.22,0,0,0-.26.41,1.55,1.55,0,0,0-.16.49c0,.06,0,.09.11.09a1.57,1.57,0,0,0,.58-.22,2.78,2.78,0,0,0,.55-.35c.08-.09.14-.13.17-.13l.59,0a.47.47,0,0,1,.32-.26.61.61,0,0,0,.35-.26,1.48,1.48,0,0,1,.7-.44l.17-.28Z" transform="translate(0 0.11)"/><path class="bae78dff-209f-48c9-b0fb-d9807cf1aec5" d="M308.91,64.28l.1,0h.42c.12,0,.3-.14.54-.43,0,0,.3-.12.83-.3l.06-.06.31-.25h.3a1,1,0,0,0,.25-.14,3.51,3.51,0,0,1,.92-.34,3.85,3.85,0,0,0,.92-.31,6.18,6.18,0,0,1,.69-.09l.43-.08.34,0c.55,0,.94.37,1.18,1.09a.35.35,0,0,0,.08.19.47.47,0,0,1,.07.2,2.1,2.1,0,0,1-.63,1.36l-.22.57s-.05.1-.16.24a2,2,0,0,0-.29.47,3.36,3.36,0,0,1-.66.81,6.24,6.24,0,0,0-.27.59,1.75,1.75,0,0,1-.29.51q-.1.14-.6.93a3.74,3.74,0,0,0-.49,1,.93.93,0,0,0-.32.57,2.11,2.11,0,0,1-.31.76l0,.11c.33-.11.49-.29.49-.54,0,0,.09-.11.26-.23l.13-.22a.65.65,0,0,1,.32-.25q0-.12.33-.36a4.81,4.81,0,0,0,.39-.34,1.41,1.41,0,0,1,.34-.19,1.52,1.52,0,0,0,.52-.77c0-.08.1-.15.24-.2a.81.81,0,0,0,.35-.25,1.49,1.49,0,0,1,.23-.25l.13-.18a1.62,1.62,0,0,1,.23-.19l.76-.93q.6-.39.66-.6l.13,0h.09l.33-.28a.58.58,0,0,1,.34-.61,1.22,1.22,0,0,0,.51-.36.42.42,0,0,1,.34-.21.39.39,0,0,1,.17.09h0s.06,0,.09-.15v-.16a.59.59,0,0,1,.16-.43.72.72,0,0,1,.41-.22.88.88,0,0,0,.51-.4.76.76,0,0,1,.57-.36.47.47,0,0,0,.43-.24,1.35,1.35,0,0,1,.66-.51,3.45,3.45,0,0,1,.7-.29.92.92,0,0,0,.25-.09.53.53,0,0,1,.24-.06,1.6,1.6,0,0,1,.45.09l.28.06a1.78,1.78,0,0,1,.67.58l.15.15v.07l0,.26v.12c.14.06.21.13.21.19l-.11.2a.53.53,0,0,0-.06.26c0,.09,0,.19,0,.29a2.36,2.36,0,0,1,0,.28,1.83,1.83,0,0,1-.06.25,1.33,1.33,0,0,1-.09.21,1.24,1.24,0,0,1-.1.2l-.13.49a2.09,2.09,0,0,1-.33.71,2.56,2.56,0,0,0-.32.57,1.61,1.61,0,0,1-.22.44l0,.1v.21c.33,0,.49-.16.49-.37a.52.52,0,0,1,.39-.48l.34-.28a2,2,0,0,1,1-.93.73.73,0,0,1,.3-.51l.59-.56.42-.23a1.31,1.31,0,0,1,.64-.7l.34-.21c.21-.11.33-.21.35-.3a.7.7,0,0,1,.24-.31,7.17,7.17,0,0,0,.59-.51l.13-.06.15-.16a2.26,2.26,0,0,1,.39-.15l.13-.06a2.29,2.29,0,0,1,.69-.4,3.9,3.9,0,0,0,.7-.33l.54-.08.25-.06c1,0,1.47.55,1.47,1.66l0,.25,0,.89a6.44,6.44,0,0,0-.38.67l0,.28a1.24,1.24,0,0,1-.21.36l-.24.37a2.71,2.71,0,0,1-.28.32l-.16.47a.87.87,0,0,1-.26.29v.19c0,.15-.2.39-.61.7a1.08,1.08,0,0,1-.27.59,1.54,1.54,0,0,0-.29.41,1.15,1.15,0,0,1-.32.39,1.79,1.79,0,0,1-.26.68,3.36,3.36,0,0,1-.41.62,1.5,1.5,0,0,0-.31.45l-.14.06c-.06.4-.13.62-.21.67l-.25,0v.06a.24.24,0,0,0,.06.11.27.27,0,0,1,.06.17.25.25,0,0,1-.09.19.29.29,0,0,0-.11.15.37.37,0,0,1-.07.16.72.72,0,0,0-.07.3,1.68,1.68,0,0,1-.23.61,2.18,2.18,0,0,0-.24.53.73.73,0,0,1,0,.23.58.58,0,0,0,0,.19,4.32,4.32,0,0,1-.08.48c.2.46.34.78.42.94a1.1,1.1,0,0,1,.12.33,1.57,1.57,0,0,1-.15.83c-.11.14-.36.21-.76.21a1,1,0,0,1-.68-.27.83.83,0,0,0-.5-.28v-.27l0,0h-.24l-.14-.11a1.44,1.44,0,0,1-.19-.22l-.09-.09a1.36,1.36,0,0,1-.22-.51l-.09-.32,0-.24,0-.39a.85.85,0,0,1,0-.25l0-.42A1.35,1.35,0,0,1,326,73a2.18,2.18,0,0,0,.08-.49.8.8,0,0,1,.14-.45.61.61,0,0,0,.14-.26.37.37,0,0,1,.08-.18.64.64,0,0,0,.12-.35.66.66,0,0,1,.33-.45c.1-.18.19-.36.26-.52.22-.3.33-.45.34-.45h.22a.84.84,0,0,1-.16-.22q0-.42.33-.42l.15,0,.06-.12-.06-.26c0-.18.14-.36.41-.53a1.07,1.07,0,0,1,.41-.81l0-.25a2,2,0,0,0,.27-.41,3.77,3.77,0,0,1,.43-.64l.48-.73.22-.25s0,0,0,0l0-.06.05-.16.09-.24.11-.12c.27-.07.41-.16.41-.28a.91.91,0,0,0-.13-.2V64.1a.49.49,0,0,1,.19-.31,2.23,2.23,0,0,0,.35-.52,1.84,1.84,0,0,0,.16-.41.05.05,0,0,0-.06-.06.66.66,0,0,0-.67.35c0,.06-.2.19-.6.37l-.16.24a.53.53,0,0,1-.33.17.66.66,0,0,0-.36.18c-.15.11-.48.38-1,.8a10.45,10.45,0,0,0-1.12,1l-.36.25c-.14.07-.21.13-.21.17s-.09.24-.27.4l-.19.24a1,1,0,0,0-.24-.08.36.36,0,0,0-.3.17c.08.08.13.13.13.15,0,.17-.16.34-.47.52l-.67.69-.23.17a.94.94,0,0,0-.31.35,4,4,0,0,1-.55.73,3.7,3.7,0,0,1-.53.56.67.67,0,0,0-.18.21,4.13,4.13,0,0,1-.45.48,1.09,1.09,0,0,0-.39.68c-.2.07-.3.14-.3.19l-.09.15-.13.06a.87.87,0,0,0,0,.21c0,.1-.22.28-.62.53a2.52,2.52,0,0,1-.76.38.3.3,0,0,0-.14.06.33.33,0,0,1-.13.06,2.58,2.58,0,0,1-.41-.18,1.27,1.27,0,0,1-.53-.87l.12-.4-.06-.33c0-.06.05-.14.15-.25a.51.51,0,0,0,.14-.38c.17-.38.29-.64.38-.79l0-.25a1.35,1.35,0,0,1,.21-.35A1,1,0,0,0,320,69a.33.33,0,0,1,.2-.3,9.57,9.57,0,0,0,1.25-1.87v-.22l.45-.78c.14-.22.3-.48.5-.77l.14-.36a4.46,4.46,0,0,0-.52-.18.42.42,0,0,0-.23.12c0,.18-.3.36-.91.54a2,2,0,0,0-.48.45l-.44.25c-.06,0-.15.13-.29.25l-.22.2a1.2,1.2,0,0,0-.66.44l-.42.29a2.13,2.13,0,0,0-.25.23,2.54,2.54,0,0,1-.57.34l-.25.25-.23.12a3.54,3.54,0,0,0-.37.45.46.46,0,0,1-.33.22l-.34.13a1.45,1.45,0,0,1-.57.77l-.45.56-.22.17a.4.4,0,0,1-.22.22l-.26.34-.19.14c-.27.1-.41.18-.41.24l0,.28c0,.12-.13.23-.37.33a.28.28,0,0,0-.18.25,1.32,1.32,0,0,1-.12.35h-.28a1.28,1.28,0,0,0-.29.16.09.09,0,0,0-.06,0l.06.36a.64.64,0,0,1-.25.42,3.35,3.35,0,0,0-.38.43c-.09.12-.15.18-.19.18h-.1l-.09.07q0,.28-.39.63L311,75a6.36,6.36,0,0,0-.53.78,8.55,8.55,0,0,1-.82,1.13,2.31,2.31,0,0,1-.72.58l-.69.3-.64-.12a.72.72,0,0,0-.27-.28c-.12-.07-.18-.15-.18-.23l-.18-.54a1.11,1.11,0,0,1,.17-.54,2,2,0,0,0,.2-.49,3.06,3.06,0,0,1,.18-.48,1.82,1.82,0,0,0,.14-.34c0-.28.05-.45.14-.52l.59-.46s0,0,0-.06v0l0-.26c.24-.4.39-.61.45-.61l.12,0-.09-.35s.06-.1.17-.2a1,1,0,0,0,.27-.31l-.07-.18v-.06a.84.84,0,0,1,.39-.61,6,6,0,0,0,.25-.64l.41-.71a.94.94,0,0,1,.32-.39.33.33,0,0,0,.19-.24.83.83,0,0,1,.11-.31s0,0,0,0a2.54,2.54,0,0,0,.08-.3.57.57,0,0,1,.35-.37c.24-.61.43-.92.56-.92a.43.43,0,0,1,.17.07h.07c.16,0,.24-.07.24-.19a.05.05,0,0,0-.06-.06.36.36,0,0,1-.25.15c-.07,0-.11,0-.11-.06s0,0,.05-.06l.34-.7,0-.29a2.29,2.29,0,0,1,.25-.28l.27-.36v-.15A1.7,1.7,0,0,1,313,65a2.19,2.19,0,0,0,.21-.57l.26-.38a1.16,1.16,0,0,0,.06-.34q0-.24-.06-.24l-.9.17a10.83,10.83,0,0,0-1,.59l-.36.08a2.9,2.9,0,0,0-.41.21,1.67,1.67,0,0,1-.67.23.85.85,0,0,0-.51.23l-.06,0h-.29a1.9,1.9,0,0,0-.24.3c0,.07-.08.1-.11.1q-1.56,1-2,1.26a3.18,3.18,0,0,0-.63.39,2,2,0,0,1-.38.26v.18a.86.86,0,0,1-.38.6,1.08,1.08,0,0,1-.66.33.67.67,0,0,1-.28-.1,1.5,1.5,0,0,0-.44-.13c-.16,0-.24-.22-.24-.59s.44-1,1.31-1.44a2,2,0,0,0,.37-.22,11.08,11.08,0,0,1,1.38-.6l.45-.22a1.42,1.42,0,0,1,.52-.29c.24-.08.43-.16.57-.22l.33-.12ZM323.46,68l.16-.27v0s0,0-.07,0-.18.11-.24.31,0,.1.06.1A.09.09,0,0,0,323.46,68Z" transform="translate(0 0.11)"/><path class="bae78dff-209f-48c9-b0fb-d9807cf1aec5" d="M344,73.27l.25-.21a.25.25,0,0,0,.28-.21.52.52,0,0,1,.33-.34,1.32,1.32,0,0,0,.54-.5c.16-.25.33-.38.51-.38s.13.05.21.16a.47.47,0,0,1,.13.24,2.21,2.21,0,0,1-.31,1.06l-.07.43-.1.2a.71.71,0,0,0-.31.27,1.07,1.07,0,0,1-.36.34l-.16.21a.73.73,0,0,0-.45.36.43.43,0,0,1-.33.28.78.78,0,0,0-.45.31,2.35,2.35,0,0,1-.38.14l0,.16a1.06,1.06,0,0,1-.49.24,2.35,2.35,0,0,0-.49.18.63.63,0,0,1-.23.09,1.25,1.25,0,0,1-.54-.12A1.5,1.5,0,0,0,341,76a.37.37,0,0,1-.11-.2.72.72,0,0,0-.15-.29.71.71,0,0,1-.14-.48l.06-.3a.28.28,0,0,0-.08-.15.33.33,0,0,1-.08-.16.12.12,0,0,1,0-.09.1.1,0,0,0,0-.09.35.35,0,0,0,0-.17.61.61,0,0,1,0-.16l.1-.76c0-.06,0-.09-.07-.09s-.11,0-.22.15a.52.52,0,0,1-.38.16.7.7,0,0,0-.2.38,1.19,1.19,0,0,1-.31.28l-.06.1q0,.11-.24.18a.5.5,0,0,0-.27.17l-.16.16-.29,0a1.92,1.92,0,0,0-.17.27,1.35,1.35,0,0,1-.36.39l-1.18,1c-.12.08-.31.18-.54.31l-.1.09a4,4,0,0,1-1.75.82,2.65,2.65,0,0,1-1-.23c-.38-.16-.58-.34-.61-.56l-.15-.64a1,1,0,0,1-.14-.6.65.65,0,0,1,0-.25v-.09l0-.51c0-.13.1-.19.29-.19l0-.42a2.36,2.36,0,0,1,.27-.49,1.87,1.87,0,0,1,.37-.48l.15-.21a.5.5,0,0,1,.22-.39,2.07,2.07,0,0,0,.37-.43,2,2,0,0,1,.53-.48l.46-.46a5.06,5.06,0,0,1,1.18-.87,1.47,1.47,0,0,0,.38-.31,1.83,1.83,0,0,1,.66-.41,5.05,5.05,0,0,0,.71-.33,1.19,1.19,0,0,1,.55-.21h.12a5,5,0,0,0,.83-.38h.09a.93.93,0,0,1,.29.12h0l.24-.12a.41.41,0,0,1,.16,0c.64,0,1,.44,1,1.33,0,.18.08.28.16.28s.25-.19.44-.57a1.23,1.23,0,0,1,1.22-.56c.44,0,.67.28.67.85a2.69,2.69,0,0,1-.9,1.91,1.69,1.69,0,0,0-.1.27l-.21.64v0a.56.56,0,0,1-.13.26.46.46,0,0,0-.14.28l0,.39-.07.43a.52.52,0,0,0,.11.39,1.26,1.26,0,0,0,.72-.41c.15-.19.25-.3.32-.32l.15-.06A1.76,1.76,0,0,1,344,73.27Zm-5.14,0a.74.74,0,0,1,.38-.52.74.74,0,0,0,.38-.36,7.66,7.66,0,0,0,.84-.77c.37-.38.55-.6.55-.69s0,0-.06,0h0l-.12.07-.28,0-.3,0-.21-.1-.21,0-.31-.06a.82.82,0,0,0-.42.1,3.57,3.57,0,0,1-.68.22,2.32,2.32,0,0,0-.91.43,1.26,1.26,0,0,1-.59.3,2.43,2.43,0,0,1-.73.67.7.7,0,0,0-.48.54c-.27.22-.4.34-.4.37l-.11.26a.94.94,0,0,1-.31.18.36.36,0,0,0-.22.33.84.84,0,0,1-.21.46.59.59,0,0,0-.18.34c0,.5.1.76.3.76a2,2,0,0,0,.52-.17,2.83,2.83,0,0,0,.46-.22.82.82,0,0,1,.24-.13l.3-.15a.29.29,0,0,1,.14-.08.26.26,0,0,0,.15-.1,1,1,0,0,1,.28-.19.63.63,0,0,0,.31-.27l.85-.48.33-.25a1.11,1.11,0,0,0,.42-.26A.85.85,0,0,1,338.86,73.27Z" transform="translate(0 0.11)"/><path class="bae78dff-209f-48c9-b0fb-d9807cf1aec5" d="M346.26,71.63l.13-.17a.68.68,0,0,0,.51-.31,6.55,6.55,0,0,1,.78-.81c.49-.46.76-.71.81-.74a6.07,6.07,0,0,0,.6-1.35c.13-.06.19-.13.19-.22l.12-.24.14,0,.06-.07v-.14a4.11,4.11,0,0,1,.6-1.3c.41-.83.62-1.3.65-1.39s.1-.21.19-.38a10.28,10.28,0,0,0,.43-1,6.63,6.63,0,0,1,.89-1.52s.1-.13.18-.34a2.51,2.51,0,0,1,.39-.63l.19-.33.32-.54a4.73,4.73,0,0,1,.43-.61,1.58,1.58,0,0,0,.29-.47.87.87,0,0,1,.24-.36,1.14,1.14,0,0,0,.29-.4.48.48,0,0,1,.46-.28.91.91,0,0,1,.87.49,1.87,1.87,0,0,1,.27.87s-.06.25-.18.67l-.23,1.39c-.21.11-.31.22-.31.36a2.93,2.93,0,0,1-.64,1.7,1,1,0,0,0-.1.41.9.9,0,0,1-.27.55,1.82,1.82,0,0,0-.42.73l-1.44,2.06-.12.13a.75.75,0,0,0-.22.26l-.25-.08q-.42,0-.42.27a.79.79,0,0,0,.06.25v0s-.38.55-1.14,1.62a3.59,3.59,0,0,0-.22.61l-.22.46a3.39,3.39,0,0,0-.46.88,2,2,0,0,1-.34.69,7.76,7.76,0,0,0-.31.73.08.08,0,0,0,.09.09c.06,0,.21-.15.44-.46a2.75,2.75,0,0,1,.58-.62,1.35,1.35,0,0,0,.37-.44l.16-.11.26-.18.16,0a.4.4,0,0,0,.15-.22.5.5,0,0,1,.1-.18c.27,0,.43-.13.5-.3s.15-.25.24-.25.19-.09.33-.28a1.34,1.34,0,0,1,.57-.47,2.94,2.94,0,0,0,.54-.32,3.14,3.14,0,0,1,.72-.33,2.71,2.71,0,0,1,.73-.19h.09l.13,0,.23,0a2.24,2.24,0,0,1,1.09.3.87.87,0,0,1,.46.94l-.12,1-.17.76a8.27,8.27,0,0,1-.25.82,4.18,4.18,0,0,0-.22.73l-.06.29.06.4,0,.33c0,.1.05.15.16.15s.15-.09.34-.27c.11,0,.22,0,.32-.19a2.44,2.44,0,0,1,.42-.45s.06-.08.2-.12a1.46,1.46,0,0,0,.55-.36,3.61,3.61,0,0,1,.61-.6,5.22,5.22,0,0,1,1-.7l.09-.13a.77.77,0,0,1,.48-.26c.15,0,.22.08.22.23a.84.84,0,0,1-.08.33,1.48,1.48,0,0,0-.11.44,2.31,2.31,0,0,1-.31.78l-.06.16a.49.49,0,0,1-.26.31.75.75,0,0,0-.33.25,1.69,1.69,0,0,1-.74.4c-.16.31-.29.46-.38.46l-.28-.12a.73.73,0,0,0-.33.54,3.88,3.88,0,0,0-.48.45l-.31,0c-.08,0-.12.12-.12.34a1.24,1.24,0,0,1-.32.21,4.68,4.68,0,0,0-.49.32,1.25,1.25,0,0,1-.72.14.35.35,0,0,1-.19-.11,1.19,1.19,0,0,0-.36-.19.51.51,0,0,1-.34-.36,1.93,1.93,0,0,0-.2-.45.54.54,0,0,1-.11-.26l0-.31-.07-.32.14-.22a.8.8,0,0,1-.1-.29l.16-1a8.54,8.54,0,0,1,.28-1.33s0-.08,0-.19l0-.39,0-.21c0-.16-.05-.24-.16-.25s-.16,0-.18-.08a1.09,1.09,0,0,0-.24-.09c-.08,0-.15.06-.21.19a1.24,1.24,0,0,1-.25.35l-.39-.06v0q0,.12-.42.48a1.33,1.33,0,0,0-.67.4,1,1,0,0,0-.42.25,1.65,1.65,0,0,1-.4.27l-.12.24-.25.08a.65.65,0,0,1-.51.41l-.16.29a.52.52,0,0,0-.45.33c-.08.2-.14.31-.18.31l-.1,0a.25.25,0,0,0-.14,0c-.22,0-.35.17-.37.51a4.92,4.92,0,0,1-.63.73c-.43.44-.66.67-.69.68s-.09.12-.18.32a.91.91,0,0,1-.36.45,2.57,2.57,0,0,0-.35.24.36.36,0,0,1-.18.09c-.22,0-.39-.16-.53-.46s-.2-.47-.2-.49l.1-.32,0-.28s.06-.22.19-.63a3.61,3.61,0,0,1,.44-1,2.76,2.76,0,0,0,.39-1.14,3.14,3.14,0,0,1-.84.47c-.21,0-.31-.14-.31-.41A2.05,2.05,0,0,1,346.26,71.63Z" transform="translate(0 0.11)"/><path class="bae78dff-209f-48c9-b0fb-d9807cf1aec5" d="M371.56,73.27l.25-.21a.25.25,0,0,0,.28-.21.52.52,0,0,1,.33-.34A1.32,1.32,0,0,0,373,72c.16-.25.33-.38.5-.38s.14.05.22.16a.44.44,0,0,1,.12.24,2.11,2.11,0,0,1-.31,1.06l-.06.43-.11.2a.73.73,0,0,0-.3.27,1.18,1.18,0,0,1-.36.34l-.16.21a.73.73,0,0,0-.45.36.43.43,0,0,1-.33.28.83.83,0,0,0-.46.31,1.92,1.92,0,0,1-.37.14l0,.16a1.12,1.12,0,0,1-.49.24,2.35,2.35,0,0,0-.49.18.63.63,0,0,1-.23.09,1.25,1.25,0,0,1-.54-.12,1.57,1.57,0,0,0-.51-.15.37.37,0,0,1-.11-.2.72.72,0,0,0-.15-.29.71.71,0,0,1-.14-.48l.06-.3a.28.28,0,0,0-.08-.15.33.33,0,0,1-.08-.16.12.12,0,0,1,0-.09.12.12,0,0,0,0-.09.51.51,0,0,0,0-.17.61.61,0,0,1,0-.16l.1-.76c0-.06,0-.09-.07-.09s-.11,0-.22.15a.52.52,0,0,1-.38.16.7.7,0,0,0-.2.38,1.38,1.38,0,0,1-.31.28l-.06.1q0,.11-.24.18a.58.58,0,0,0-.28.17l-.15.16-.29,0a1.58,1.58,0,0,0-.18.27,1.2,1.2,0,0,1-.35.39l-1.18,1c-.12.08-.31.18-.54.31l-.1.09a4,4,0,0,1-1.75.82,2.74,2.74,0,0,1-1-.23c-.37-.16-.57-.34-.6-.56l-.15-.64a1,1,0,0,1-.14-.6.65.65,0,0,1,0-.25v-.09l0-.51c0-.13.09-.19.29-.19l0-.42a2.36,2.36,0,0,1,.27-.49,2.24,2.24,0,0,1,.36-.48l.16-.21a.5.5,0,0,1,.22-.39,2.07,2.07,0,0,0,.37-.43,2,2,0,0,1,.53-.48l.46-.46a5.06,5.06,0,0,1,1.18-.87,1.47,1.47,0,0,0,.38-.31,1.79,1.79,0,0,1,.65-.41,4.69,4.69,0,0,0,.72-.33,1.19,1.19,0,0,1,.55-.21h.12a5.51,5.51,0,0,0,.83-.38h.09a.93.93,0,0,1,.29.12h0l.25-.12a.38.38,0,0,1,.16,0c.64,0,1,.44,1,1.33,0,.18.08.28.16.28s.25-.19.44-.57a1.23,1.23,0,0,1,1.22-.56c.44,0,.66.28.66.85a2.68,2.68,0,0,1-.89,1.91.79.79,0,0,0-.1.27l-.21.64v0a.51.51,0,0,1-.14.26.5.5,0,0,0-.13.28l0,.39-.06.43a.52.52,0,0,0,.11.39,1.26,1.26,0,0,0,.72-.41c.15-.19.25-.3.32-.32l.15-.06A1.76,1.76,0,0,1,371.56,73.27Zm-5.14,0a.74.74,0,0,1,.38-.52.74.74,0,0,0,.38-.36,8.72,8.72,0,0,0,.84-.77c.37-.38.55-.6.55-.69s0,0-.06,0h0l-.12.07-.28,0-.3,0-.22-.1-.2,0-.31-.06a.79.79,0,0,0-.42.1,3.49,3.49,0,0,1-.69.22,2.34,2.34,0,0,0-.9.43,1.26,1.26,0,0,1-.59.3,2.43,2.43,0,0,1-.73.67.7.7,0,0,0-.48.54c-.27.22-.4.34-.4.37l-.11.26a.94.94,0,0,1-.31.18.36.36,0,0,0-.22.33.84.84,0,0,1-.21.46.59.59,0,0,0-.18.34c0,.5.1.76.3.76a2,2,0,0,0,.52-.17,2.2,2.2,0,0,0,.45-.22.91.91,0,0,1,.25-.13l.3-.15a.29.29,0,0,1,.14-.08.26.26,0,0,0,.15-.1,1,1,0,0,1,.28-.19.68.68,0,0,0,.31-.27l.85-.48.33-.25a1.11,1.11,0,0,0,.42-.26A.85.85,0,0,1,366.42,73.27Z" transform="translate(0 0.11)"/><path class="bae78dff-209f-48c9-b0fb-d9807cf1aec5" d="M375.86,69.88l.21-.39a1.49,1.49,0,0,1,.24-.28,2,2,0,0,0,.32-.76,2.19,2.19,0,0,1,.38-.85.79.79,0,0,1,.61-.23,1.32,1.32,0,0,1,.62.22A2.59,2.59,0,0,1,379,69a6.38,6.38,0,0,1,.37,1.6,1.41,1.41,0,0,0,.1.47,2.32,2.32,0,0,1,.14.44,1.59,1.59,0,0,0-.12.3l0,.63-.19.51v.37a1.31,1.31,0,0,0-.18.39.38.38,0,0,0,.06.19,2.55,2.55,0,0,0,.88-.51.75.75,0,0,1,.3-.24,1.45,1.45,0,0,0,.49-.4l.3-.15.26-.34a.58.58,0,0,1,.26-.21,1.75,1.75,0,0,0,.34-.21,3.46,3.46,0,0,1,.59-.36l.16-.19a1.62,1.62,0,0,1,.55-.41,2.05,2.05,0,0,1,.34-.16c.08,0,.15.1.23.29a1.43,1.43,0,0,1,.11.56.7.7,0,0,1-.3.52,4.46,4.46,0,0,0-.41.38,1,1,0,0,1-.49.22,6.6,6.6,0,0,0-.51.63l-.31.19-.16.2s-.16.08-.42.12a.65.65,0,0,0-.07.16c0,.1-.14.18-.33.22a4.15,4.15,0,0,0-.57.57l-.33.06a1.08,1.08,0,0,1-.15.36c-.25.06-.39.17-.42.31a.53.53,0,0,1-.16.06l-.06,0a1.64,1.64,0,0,1-.69.34l-.36.09-.12.19s-.13.12-.38.2a1.38,1.38,0,0,0-.57.31l-.26.2a1.65,1.65,0,0,0-.61.34h-.21a1.49,1.49,0,0,0-.68.32,1.5,1.5,0,0,1-.75.32,2.34,2.34,0,0,1-1.23-.23,2,2,0,0,1-.55-.56,3.85,3.85,0,0,0-.39-.53.55.55,0,0,1-.18-.33q0-.11.15-.21a1.47,1.47,0,0,0,.31-.44c.12-.23.41-.37.87-.43a.93.93,0,0,0,.22-.09.72.72,0,0,1,.32-.1c.11,0,.23.1.39.28t.06,0l.25,0a.49.49,0,0,0,.23.13,1.23,1.23,0,0,0,.79-.38l.06,0h.13s.08-.08.15-.26l.27-.54.54-.7v-.15a1.11,1.11,0,0,1,.09-.28v-.24c0-.09.06-.15.19-.17a.2.2,0,0,0,.18-.2l0-.12a.54.54,0,0,1-.12-.27l.15-.31,0-.32.06-.13a1.8,1.8,0,0,1-.06-.24l.06-.39s0-.11-.08-.3-.1-.27-.13-.27-.26.16-.59.48a2.7,2.7,0,0,0-.59.68,1,1,0,0,1-.4.36.94.94,0,0,0-.41.37.41.41,0,0,1-.26.23l-1,.84-1.14.83c-.08.1-.13.14-.15.14-.39,0-.58-.21-.58-.63a2.16,2.16,0,0,1,.24-.73l.16-.09s.05,0,.05,0,0,0,0,0l.1.07h0a4.79,4.79,0,0,1,.74-.45.7.7,0,0,0,.31-.34l.65-.47a7.73,7.73,0,0,0,.76-.68A5.36,5.36,0,0,0,375.86,69.88Z" transform="translate(0 0.11)"/><path class="bae78dff-209f-48c9-b0fb-d9807cf1aec5" d="M381.82,71.91l.25-.22h.09c.07,0,.18-.07.33-.23l.15-.06a1.34,1.34,0,0,1,.54-.54l.25-.19a.5.5,0,0,1,.18-.11,1.37,1.37,0,0,0,.37-.3.72.72,0,0,1,.41-.26.81.81,0,0,1,.25,0,1.06,1.06,0,0,1,.37-.36,1.58,1.58,0,0,0,.46-.43l.2-.09a1.71,1.71,0,0,0,.44-.32.68.68,0,0,1,.5-.19,1.41,1.41,0,0,1,.94.46A1.23,1.23,0,0,1,388,70l-.26,1.21c-.18.89-.38,1.36-.59,1.4l-.07.32c-.14.11-.21.19-.21.25l.09.37s-.06.13-.17.23,0,0,0,.1v.63c0,.12-.07.21-.22.28a.29.29,0,0,0,.1.06.63.63,0,0,1,.41-.09l.25,0,.34-.34a1.36,1.36,0,0,0,.3-.15q.19-.1.66-.3l2-1.55q.42-.42.63-.42t.24.3a1.08,1.08,0,0,1-.14.56,4.27,4.27,0,0,0-.24.55.94.94,0,0,1-.25.44,1,1,0,0,0-.24.27,1.83,1.83,0,0,1-.5.42,4.77,4.77,0,0,0-.7.57,2.92,2.92,0,0,1-.48.41l-.66.48-.09.16a1.85,1.85,0,0,1-.29.13,2.25,2.25,0,0,0-.46.25l-.28.16a.64.64,0,0,1-.3.08.56.56,0,0,0-.36.17c-.11.11-.19.17-.25.17l-.23,0-.31.09a1.14,1.14,0,0,1-.65-.32.89.89,0,0,1-.38-.67v-.1l0-.21a1.47,1.47,0,0,0-.09-.32,2,2,0,0,1-.09-.29l0-.21,0-.1a1.32,1.32,0,0,1,.06-.52,1,1,0,0,0,.09-.31,1.61,1.61,0,0,1,.07-.31l.07-.39a.49.49,0,0,1,.16-.25q0-.12.12-.42l.06-.28.16-.21a.63.63,0,0,0,.15-.34,1.08,1.08,0,0,1,.16-.44,1.07,1.07,0,0,0,.14-.28c0-.12-.06-.18-.19-.18a1.43,1.43,0,0,0-.39.24l-.27-.09s-.08,0-.17.16-.05.07-.14.09a.45.45,0,0,0-.27.23l-.12,0-.2-.09H384c-.1,0-.16.11-.18.34a.81.81,0,0,1-.45.33l-.34.09a.4.4,0,0,0-.25.28.92.92,0,0,1-.31.39.8.8,0,0,1-.31.18c-.29,0-.44-.16-.44-.48l.13-.73Zm6.69-7.75-.09-.6v-.1c0-.48.17-.75.5-.8a5.49,5.49,0,0,0,.65-.21,1.18,1.18,0,0,1,.58.49,1.4,1.4,0,0,1,.3.76.37.37,0,0,1-.05.14,1.35,1.35,0,0,0-.06.41.7.7,0,0,1-.3.52,1,1,0,0,1-.61.23.89.89,0,0,1-.55-.31A1,1,0,0,1,388.51,64.16Z" transform="translate(0 0.11)"/><path class="bae78dff-209f-48c9-b0fb-d9807cf1aec5" d="M393.91,69.88l.22-.39a1.49,1.49,0,0,1,.24-.28,2.18,2.18,0,0,0,.32-.76,2.19,2.19,0,0,1,.38-.85.79.79,0,0,1,.61-.23,1.26,1.26,0,0,1,.61.22A2.52,2.52,0,0,1,397,69a6.23,6.23,0,0,1,.36,1.6,1.47,1.47,0,0,0,.11.47,3.4,3.4,0,0,1,.14.44,1.59,1.59,0,0,0-.12.3l0,.63-.19.51v.37a1.31,1.31,0,0,0-.18.39.38.38,0,0,0,.06.19,2.66,2.66,0,0,0,.88-.51.64.64,0,0,1,.3-.24,1.55,1.55,0,0,0,.49-.4l.29-.15.27-.34a.56.56,0,0,1,.25-.21,1.53,1.53,0,0,0,.35-.21,3.1,3.1,0,0,1,.59-.36l.15-.19a1.84,1.84,0,0,1,.55-.41,1.93,1.93,0,0,1,.35-.16c.07,0,.15.1.22.29a1.45,1.45,0,0,1,.12.56.7.7,0,0,1-.3.52,4.46,4.46,0,0,0-.41.38,1,1,0,0,1-.5.22s-.19.22-.51.63l-.31.19-.15.2s-.16.08-.42.12a.65.65,0,0,0-.07.16.43.43,0,0,1-.33.22,4.69,4.69,0,0,0-.58.57l-.32.06a.86.86,0,0,1-.16.36c-.24.06-.38.17-.41.31l-.16.06-.06,0a1.68,1.68,0,0,1-.7.34l-.35.09-.13.19s-.12.12-.38.2a1.4,1.4,0,0,0-.56.31l-.26.2a1.49,1.49,0,0,0-.61.34h-.22a1.53,1.53,0,0,0-.68.32,1.51,1.51,0,0,1-.74.32,2.34,2.34,0,0,1-1.23-.23,1.84,1.84,0,0,1-.55-.56,4.81,4.81,0,0,0-.4-.53.52.52,0,0,1-.17-.33.26.26,0,0,1,.14-.21,1.31,1.31,0,0,0,.32-.44c.11-.23.4-.37.87-.43l.22-.09a.72.72,0,0,1,.32-.1c.1,0,.23.1.39.28t.06,0l.25,0a.49.49,0,0,0,.23.13A1.23,1.23,0,0,0,394,75l.06,0h.12s.09-.08.16-.26l.26-.54.54-.7v-.15a.92.92,0,0,1,.1-.28v-.24c0-.09.06-.15.18-.17s.19-.1.19-.2l0-.12a.49.49,0,0,1-.13-.27l.16-.31,0-.32.06-.13a1.8,1.8,0,0,1-.06-.24l.06-.39s0-.11-.09-.3-.1-.27-.13-.27-.26.16-.59.48a3,3,0,0,0-.59.68.86.86,0,0,1-.39.36.94.94,0,0,0-.41.37.45.45,0,0,1-.27.23l-1,.84-1.13.83c-.08.1-.14.14-.16.14q-.57,0-.57-.63a2.32,2.32,0,0,1,.23-.73l.17-.09s.05,0,.05,0,0,0,0,0l.09.07h0a4.69,4.69,0,0,1,.75-.45.7.7,0,0,0,.31-.34l.65-.47a7.73,7.73,0,0,0,.76-.68A4.51,4.51,0,0,0,393.91,69.88Z" transform="translate(0 0.11)"/><path class="bae78dff-209f-48c9-b0fb-d9807cf1aec5" d="M402.05,70.39l.27-.06.26-.31a1.24,1.24,0,0,1,.41-.3.85.85,0,0,0,.42-.48,2.7,2.7,0,0,1,1.12-.76,1.34,1.34,0,0,1,.77.62,3.92,3.92,0,0,1,.11,1.09,1.19,1.19,0,0,1-.15.5,3.47,3.47,0,0,0-.22.48,3,3,0,0,1-.29.52s0,.06-.08.11a1.45,1.45,0,0,0-.19.32,1.52,1.52,0,0,1-.28.43,1.34,1.34,0,0,0-.28.42,6.24,6.24,0,0,1-.41.78,6.12,6.12,0,0,0-.34,1.07c0,.12,0,.17.09.17a.61.61,0,0,0,.22-.09l.13,0h.19l.22-.16a1.29,1.29,0,0,0,.06-.22,2.75,2.75,0,0,1,.42-.18l0,0a.51.51,0,0,1,0-.17q0-.16.3-.21a.73.73,0,0,0,.45-.2c0-.13,0-.21.08-.23s.11-.09.18-.22a.42.42,0,0,1,.33-.21c.16,0,.23-.09.23-.19a.92.92,0,0,1,.58-.81.14.14,0,0,0,.12-.15c0-.2,0-.31.05-.33a1.91,1.91,0,0,1,.27-.18l.31-.41.14-.32a.64.64,0,0,1,.16-.2,1.21,1.21,0,0,0,.23-.35,1.88,1.88,0,0,1,.23-.37l.17-.26a.64.64,0,0,1,.54-.4c.12,0,.37.16.76.49a1.8,1.8,0,0,1,.58,1.45c0,.24-.07.39-.2.44s-.22.23-.28.53a3.16,3.16,0,0,1-.31.83,2.9,2.9,0,0,0-.21.41l.07.19v.06a.85.85,0,0,1-.19.57.71.71,0,0,1,.09.27l-.15.24c0,.41.11.61.22.61a.69.69,0,0,0,.24-.06,1,1,0,0,1,.28-.08,1.28,1.28,0,0,0,.47-.22l1-.63.19-.22.14-.09a.68.68,0,0,0,.34-.35.38.38,0,0,1,.3-.26,1.2,1.2,0,0,1,.37-.66l.45-.86a3.24,3.24,0,0,1,.22-.38,4.25,4.25,0,0,0-.41-1.49v-.09a1,1,0,0,1,.21-.61c.13-.2.26-.29.39-.29l.32,0,.42-.1a2.16,2.16,0,0,1,.67.46,1.43,1.43,0,0,1,.55,1.14,1.73,1.73,0,0,1-.15.75,2.41,2.41,0,0,0-.2.61.61.61,0,0,1-.31.44l-.06.08a1.37,1.37,0,0,1-.61,1.1,5.3,5.3,0,0,0-.32.56c-.12.23-.22.36-.32.4a1.28,1.28,0,0,0-.24.35,1.68,1.68,0,0,1-.31.42l-.43.2c-.21.09-.32.2-.32.33l0,.22a4.61,4.61,0,0,0-.7.57l-.31.06a2.39,2.39,0,0,1-1.77.64,1.87,1.87,0,0,1-1.17-.54,1.48,1.48,0,0,1-.62-1.09l-.14-.5a11,11,0,0,1,.09-1.72.16.16,0,0,0,.05-.12c0-.12,0-.19-.11-.19a1.33,1.33,0,0,0-.16.26.51.51,0,0,1-.21.24l-.23.2c-.05.25-.1.39-.16.42a1.19,1.19,0,0,0-.27.24,2.37,2.37,0,0,1-.42.35,4.06,4.06,0,0,1-.63.93v.09a.9.9,0,0,1-.16.1l-.25.24a7.5,7.5,0,0,1-1.18.82,4.94,4.94,0,0,1-1.1.58,1,1,0,0,1-.72-.3,1.06,1.06,0,0,1-.35-.63,3.34,3.34,0,0,0-.14-.62,1.58,1.58,0,0,1-.09-.42,2,2,0,0,1,.06-.31,3,3,0,0,0,.08-.46.59.59,0,0,1,0-.24v-.29a1,1,0,0,1,.18-.25.7.7,0,0,0,.18-.45.56.56,0,0,1,.14-.29,2.59,2.59,0,0,0,.19-.35,1.19,1.19,0,0,1,.24-.34,3.4,3.4,0,0,1,.14-.44,1.83,1.83,0,0,0,.11-.35.09.09,0,0,0,0-.06c-.15,0-.36.14-.64.4l-.27.16a4.76,4.76,0,0,0-.7.51c-.15.2-.29.29-.42.29q-.72,0-.72-.66a.53.53,0,0,1,.17-.45.45.45,0,0,0,.21-.24c0-.08.15-.14.38-.19s.48-.28.75-.72c.24,0,.38,0,.42-.11A1.12,1.12,0,0,1,402.05,70.39Z" transform="translate(0 0.11)"/><path class="bae78dff-209f-48c9-b0fb-d9807cf1aec5" d="M428.68,73.27l.25-.21a.26.26,0,0,0,.28-.21.52.52,0,0,1,.33-.34,1.24,1.24,0,0,0,.53-.5c.17-.25.34-.38.51-.38s.14.05.22.16a.44.44,0,0,1,.12.24,2.11,2.11,0,0,1-.31,1.06l-.06.43-.11.2a.73.73,0,0,0-.3.27,1.25,1.25,0,0,1-.37.34l-.15.21a.76.76,0,0,0-.46.36.41.41,0,0,1-.32.28.83.83,0,0,0-.46.31,2.21,2.21,0,0,1-.37.14l0,.16a1.12,1.12,0,0,1-.49.24,2.48,2.48,0,0,0-.5.18.61.61,0,0,1-.22.09,1.19,1.19,0,0,1-.54-.12,1.65,1.65,0,0,0-.51-.15.31.31,0,0,1-.11-.2.78.78,0,0,0-.16-.29.76.76,0,0,1-.14-.48l.07-.3a.28.28,0,0,0-.08-.15.33.33,0,0,1-.08-.16.12.12,0,0,1,0-.09.12.12,0,0,0,0-.09.51.51,0,0,0,0-.17.61.61,0,0,1,0-.16l.09-.76q0-.09-.06-.09a.45.45,0,0,0-.22.15.52.52,0,0,1-.38.16.64.64,0,0,0-.2.38,1.24,1.24,0,0,1-.32.28l-.06.1c0,.07-.1.13-.23.18a.54.54,0,0,0-.28.17l-.15.16-.3,0a1.92,1.92,0,0,0-.17.27,1.12,1.12,0,0,1-.36.39l-1.17,1-.55.31-.09.09a4.06,4.06,0,0,1-1.75.82,2.69,2.69,0,0,1-1-.23c-.37-.16-.57-.34-.6-.56l-.16-.64a1.11,1.11,0,0,1-.14-.6.65.65,0,0,1,0-.25v-.09l0-.51c0-.13.1-.19.3-.19l0-.42a2.36,2.36,0,0,1,.27-.49A2.24,2.24,0,0,1,418,73l.16-.21a.5.5,0,0,1,.22-.39,2.42,2.42,0,0,0,.37-.43,2.08,2.08,0,0,1,.52-.48l.47-.46a4.86,4.86,0,0,1,1.18-.87,1.47,1.47,0,0,0,.38-.31,1.79,1.79,0,0,1,.65-.41,5.17,5.17,0,0,0,.72-.33,1.16,1.16,0,0,1,.55-.21h.12a5.2,5.2,0,0,0,.82-.38h.1a.93.93,0,0,1,.29.12h0l.25-.12a.35.35,0,0,1,.16,0c.64,0,1,.44,1.05,1.33,0,.18.07.28.16.28s.25-.19.44-.57A1.23,1.23,0,0,1,427.9,69c.44,0,.66.28.66.85a2.69,2.69,0,0,1-.9,1.91,1.07,1.07,0,0,0-.09.27l-.22.64v0a.47.47,0,0,1-.13.26.44.44,0,0,0-.13.28l0,.39-.06.43c0,.2,0,.33.11.39a1.2,1.2,0,0,0,.71-.41,1.11,1.11,0,0,1,.32-.32l.16-.06A1.76,1.76,0,0,1,428.68,73.27Zm-5.15,0a.77.77,0,0,1,.38-.52.7.7,0,0,0,.38-.36,7.53,7.53,0,0,0,.85-.77c.37-.38.55-.6.55-.69s0,0-.06,0h0l-.13.07-.28,0-.29,0-.22-.1-.2,0-.31-.06a.83.83,0,0,0-.43.1,3.33,3.33,0,0,1-.68.22,2.39,2.39,0,0,0-.91.43,1.2,1.2,0,0,1-.58.3,2.57,2.57,0,0,1-.73.67.7.7,0,0,0-.48.54,2.06,2.06,0,0,0-.41.37l-.11.26a.89.89,0,0,1-.3.18.36.36,0,0,0-.22.33.84.84,0,0,1-.21.46.59.59,0,0,0-.18.34c0,.5.1.76.29.76a1.8,1.8,0,0,0,.52-.17,2.12,2.12,0,0,0,.46-.22.91.91,0,0,1,.25-.13l.29-.15a.29.29,0,0,1,.14-.08.26.26,0,0,0,.16-.1.88.88,0,0,1,.28-.19.68.68,0,0,0,.31-.27l.85-.48.33-.25a1.14,1.14,0,0,0,.41-.26A1.08,1.08,0,0,1,423.53,73.27Z" transform="translate(0 0.11)"/><path class="bae78dff-209f-48c9-b0fb-d9807cf1aec5" d="M445.27,59.56l.26-.22.31,0a.73.73,0,0,0,.45-.14.77.77,0,0,1,.31-.15.67.67,0,0,0,.27-.16,1,1,0,0,1,.48-.19.86.86,0,0,0,.45-.2.65.65,0,0,1,.31-.18,1.6,1.6,0,0,0,.41-.13l1.41-.43a.56.56,0,0,1,.17.06h.07a.56.56,0,0,0,.36-.15.69.69,0,0,1,.43-.14,2.28,2.28,0,0,0,.6-.19l.09.09q.25-.27.42-.27h.1l.27.06a2,2,0,0,1,.64-.13l.36,0,.09,0a.55.55,0,0,1,.34-.17H454l.64-.15.18.06a.93.93,0,0,1,.58-.16h.15l.16,0,.28-.1a5.07,5.07,0,0,1,1.25-.09l.4.06.42-.15.44.09.17-.06h.06l.15.06h0l1.12-.15a.25.25,0,0,1,.12,0c.09-.08.15-.11.19-.11l.29.08a1.09,1.09,0,0,0,.44-.18l.09.1,1.05-.13.39,0,.34-.06a1,1,0,0,1,.77.27A.83.83,0,0,1,464,57l.06.48-.09.27,0,.31a.44.44,0,0,1-.23.25s0,0-.14.06a1,1,0,0,0-.28.14,2.43,2.43,0,0,1-.91.09.5.5,0,0,1-.5-.24c-.07-.16-.15-.25-.23-.27l-.66-.28a.38.38,0,0,0-.19,0h-.12l-.64.06-.17,0-.22.09-1.14-.06-.47,0-.32-.06-.22.05a3.85,3.85,0,0,1-.65.07c-.33,0-.5.13-.5.31a.71.71,0,0,0,.14.38.71.71,0,0,1,.13.32,1.08,1.08,0,0,0-.23.42,1.55,1.55,0,0,0-.22.2c-.1.1-.3.27-.57.49a2.45,2.45,0,0,0-.58.61.44.44,0,0,1-.37.28,1.86,1.86,0,0,0-.39.48l-.12.12a.24.24,0,0,0,0,.14.26.26,0,0,1-.09.19l-.14.37a3.52,3.52,0,0,0-.64.81l-.19.09-.18.22h-.22c-.09,0-.14.06-.14.18l.07.45a1.5,1.5,0,0,0-.38.55l-.18.31a2.08,2.08,0,0,0-.33.35,3,3,0,0,1-.31.67l0,.15a4.76,4.76,0,0,1-1.08,1.52,2.16,2.16,0,0,0-.19.9c-.31.61-.52.91-.63.89a3,3,0,0,1-.2,1c-.11.24-.25.61-.42,1.09a3.32,3.32,0,0,1-.53,1l-.06.12a1.32,1.32,0,0,1-.16.25,7.87,7.87,0,0,1-.29,1.34l-.1.66-.31.87a.41.41,0,0,0,0,.19.62.62,0,0,0,.1.24.65.65,0,0,1,.1.33.72.72,0,0,1-.08.35.7.7,0,0,0-.08.35.62.62,0,0,1-.51.63h-.12l-.33,0a1.5,1.5,0,0,1-1.17-.62,2.49,2.49,0,0,1-.53-1.7,4.2,4.2,0,0,1,.09-.47c.06-.28.1-.46.11-.54a.81.81,0,0,1,.08-.25,1,1,0,0,0,.06-.39,2.29,2.29,0,0,1,.38-1.31,7.32,7.32,0,0,0,.5-.81.2.2,0,0,1,.11-.14.9.9,0,0,1,.34-1,1.77,1.77,0,0,1,.11-.28l.33-.79a1.07,1.07,0,0,1,.65-.74s0-.1.18-.25l-.06-.54c0-.08.09-.22.28-.42l.26-.43a.84.84,0,0,1,.41-.48.36.36,0,0,1,.2-.19s.05-.17.13-.39a3.29,3.29,0,0,1,.5-.81c.25-.33.49-.66.72-1s.45-.53.64-.54a.32.32,0,0,0,.32-.32l.09-.58a3.18,3.18,0,0,0,.54-.54l.22-.25a.51.51,0,0,1,.16-.28,1.31,1.31,0,0,0,.26-.29,1.6,1.6,0,0,1,.39-.39,2.1,2.1,0,0,1,.91-1.1l.25-.26a2.52,2.52,0,0,1,.43-.51.74.74,0,0,0,.26-.34.59.59,0,0,1,.33-.33c.17-.07.25-.16.25-.25s0-.06-.12-.06a1.58,1.58,0,0,0-.42.09h-.13l-.28.06h-.09l-.26-.06a1.63,1.63,0,0,1-.44.1l-.2.13h-.34l-.18.19-.14,0-.41-.06a.82.82,0,0,0-.45.19,1.94,1.94,0,0,1-.5.11,3.37,3.37,0,0,0-.95.28,2.11,2.11,0,0,1-.55.21l-.27-.06h0a.51.51,0,0,0-.37.2.77.77,0,0,1-.49.25h-.19a1.65,1.65,0,0,0-.63.18,2.92,2.92,0,0,1-.42.19l-.28,0a1.7,1.7,0,0,1-.32.17.76.76,0,0,0-.26.15.89.89,0,0,1-.25.14,1.9,1.9,0,0,0-.28.17.47.47,0,0,1-.26.13h-.06l-.19,0c-.07,0-.16.06-.28.19a.76.76,0,0,1-.31.24.76.76,0,0,0-.28.15.52.52,0,0,1-.28.11,1.93,1.93,0,0,0-.21.35,2,2,0,0,1-.36.45,1.85,1.85,0,0,0-.29.31.17.17,0,0,1-.13.1c-.51,0-.76-.31-.76-.94l.31-.67a1.52,1.52,0,0,1,1-1,3,3,0,0,0,.88-.34Z" transform="translate(0 0.11)"/><path class="bae78dff-209f-48c9-b0fb-d9807cf1aec5" d="M454,71.91l.24-.22h.1c.07,0,.18-.07.32-.23l.16-.06a1.23,1.23,0,0,1,.54-.54l.25-.19a.5.5,0,0,1,.18-.11,1.55,1.55,0,0,0,.37-.3.72.72,0,0,1,.41-.26.85.85,0,0,1,.25,0,1.06,1.06,0,0,1,.37-.36,1.43,1.43,0,0,0,.45-.43l.2-.09a1.6,1.6,0,0,0,.45-.32.65.65,0,0,1,.5-.19,1.41,1.41,0,0,1,.94.46,1.27,1.27,0,0,1,.49.87l-.27,1.21c-.17.89-.37,1.36-.59,1.4l-.06.32c-.14.11-.22.19-.22.25l.1.37s-.06.13-.17.23,0,0,0,.1v.63c0,.12-.08.21-.22.28l.09.06a.64.64,0,0,1,.42-.09l.25,0,.34-.34a1.36,1.36,0,0,0,.3-.15q.19-.1.66-.3l2-1.55c.27-.28.49-.42.63-.42s.23.1.23.3a1.08,1.08,0,0,1-.13.56,2.59,2.59,0,0,0-.24.55,1,1,0,0,1-.25.44,1,1,0,0,0-.24.27,2.12,2.12,0,0,1-.51.42,6.14,6.14,0,0,0-.7.57,2.93,2.93,0,0,1-.47.41l-.67.48-.09.16a1.53,1.53,0,0,1-.28.13,2,2,0,0,0-.46.25l-.28.16a.64.64,0,0,1-.3.08.6.6,0,0,0-.37.17c-.1.11-.18.17-.24.17l-.24,0-.31.09a1.12,1.12,0,0,1-.64-.32.89.89,0,0,1-.38-.67v-.1l0-.21a1.47,1.47,0,0,0-.09-.32c-.06-.17-.1-.27-.1-.29l0-.21,0-.1a1.26,1.26,0,0,1,.07-.52,1,1,0,0,0,.09-.31c0-.13,0-.23.06-.31l.08-.39a.49.49,0,0,1,.15-.25c0-.08.07-.22.13-.42l.06-.28.16-.21a.55.55,0,0,0,.14-.34,1.11,1.11,0,0,1,.17-.44.9.9,0,0,0,.13-.28.16.16,0,0,0-.18-.18,1.43,1.43,0,0,0-.39.24l-.28-.09s-.08,0-.17.16,0,.07-.14.09a.46.46,0,0,0-.26.23l-.13,0-.2-.09h-.06c-.1,0-.17.11-.18.34a.8.8,0,0,1-.46.33l-.34.09a.41.41,0,0,0-.24.28,1,1,0,0,1-.31.39.8.8,0,0,1-.31.18c-.29,0-.44-.16-.44-.48L454,72Zm6.69-7.75-.09-.6v-.1c0-.48.16-.75.49-.8a4.93,4.93,0,0,0,.65-.21,1.2,1.2,0,0,1,.59.49,1.4,1.4,0,0,1,.3.76.81.81,0,0,1-.05.14,1.35,1.35,0,0,0-.06.41.7.7,0,0,1-.3.52,1,1,0,0,1-.62.23.94.94,0,0,1-.55-.31A1,1,0,0,1,460.68,64.16Z" transform="translate(0 0.11)"/><path class="bae78dff-209f-48c9-b0fb-d9807cf1aec5" d="M470,70.24l.43-.21a1.72,1.72,0,0,0,.42-.4l.54-.39a1.72,1.72,0,0,1,.61-.31l.24.1s.09-.07.2-.2a.47.47,0,0,1,.38-.19,1.38,1.38,0,0,1,.76.42c.32.28.48.52.48.74l-.06.53a5.64,5.64,0,0,0,.12.7v.12l-.06.37.06.39-.17.76c0,.2.07.29.2.29a1.22,1.22,0,0,1,.45-.29l.22-.22q.12-.12.18-.12c.05,0,.1,0,.17-.15a.51.51,0,0,1,.25-.21.35.35,0,0,0,.22-.21,3.7,3.7,0,0,1,1.33-1.09s.11,0,.21-.16a.73.73,0,0,1,.24-.18l.34-.26.14.06h0a.76.76,0,0,0,.25-.16.73.73,0,0,1,.31-.15,1.28,1.28,0,0,1,1,.39c.26.27.38.47.38.62l-.08.35.11.48V72l-.08.33a.51.51,0,0,0,.14.26.62.62,0,0,1,.13.23c-.13.14-.19.23-.19.27l0,.28-.07.85a.67.67,0,0,0,.2.35.94.94,0,0,1,.26-.1,1.42,1.42,0,0,0,.26-.1c.06,0,.1-.06.1-.07h0l.19.06h.06c.08,0,.13-.08.14-.24a.5.5,0,0,1,.31-.4l.37,0a1.47,1.47,0,0,0,.13-.25,2.32,2.32,0,0,1,.65-.67,1.6,1.6,0,0,1,.84-.44c.17,0,.25.07.25.22a2.08,2.08,0,0,1-.06.32.83.83,0,0,1,.12.37c0,.2-.17.41-.5.64a2.31,2.31,0,0,0-.77.85l-.06.06-.31,0s-.07.08-.15.24-.17.25-.27.27a.65.65,0,0,0-.22.1l-.32.2a6.24,6.24,0,0,0-.61.63c-.35.37-.64.56-.88.56a1.7,1.7,0,0,1-.55-.16,1.54,1.54,0,0,1-.55-.33,2.38,2.38,0,0,0-.39-.39,1.06,1.06,0,0,1-.26-.82s0-.06.09-.11.08-.09.08-.12a1.55,1.55,0,0,1-.35-.67.75.75,0,0,1,0-.2.76.76,0,0,0,0-.21l0-.54.06-.28,0-.17.09-.79c0-.12-.07-.18-.22-.18s-.09,0-.17.12a.66.66,0,0,1-.27.19,1,1,0,0,0-.35.45,1.14,1.14,0,0,0-.38.3c-.06.1-.12.15-.16.15a.31.31,0,0,1-.12,0,.35.35,0,0,0-.19.28v.07l0,.12c0,.09-.08.18-.23.26a2.08,2.08,0,0,0-.58.64.51.51,0,0,0-.21,0l-.19.37a.88.88,0,0,0-.29.33l-.19.09a2,2,0,0,1-.22.34l-.09.17c-.44.53-.76.79-.93.79s-.39-.23-.64-.69A2.56,2.56,0,0,1,472,74.7l.06-.57a1.09,1.09,0,0,0-.12-.25v-.06a3.11,3.11,0,0,1,.12-.36V73a.29.29,0,0,0,0-.09v-.08a1.13,1.13,0,0,1,.12-.24l-.09-.45.06-.25,0-.54.06-.48a.34.34,0,0,0-.08-.17c-.06-.07-.1-.11-.12-.11a2.45,2.45,0,0,0-.64.35,4.9,4.9,0,0,0-.72.56,5.68,5.68,0,0,1-.49.48,1,1,0,0,0-.45.79s0,0-.06,0,0,0-.1-.06h-.06c-.05,0-.21.22-.48.67l-.06.06-.3-.06c-.24,0-.37.26-.37.79,0,.09-.06.15-.19.18a.47.47,0,0,0-.3.27,2.51,2.51,0,0,1-.3.45,1,1,0,0,0-.4.23,5.29,5.29,0,0,1-.34.47,4.28,4.28,0,0,0-.38.52.49.49,0,0,1-.21.18q-.18.11-.18.18l.05.26c0,.17-.16.25-.48.25-.62,0-.93-.65-.93-1.94a.87.87,0,0,1,.19-.49,4.29,4.29,0,0,0,.38-.65,7.63,7.63,0,0,0,.7-.86,9.17,9.17,0,0,1,.6-.76l.2-.32a.43.43,0,0,1,.08-.28.36.36,0,0,0,.08-.23c0-.17,0-.25-.13-.25a.67.67,0,0,0-.46.15,1.28,1.28,0,0,1-.38.21.38.38,0,0,0-.27.21,1.25,1.25,0,0,0-.46.4,3.79,3.79,0,0,1-.32.38.7.7,0,0,0-.14.21.27.27,0,0,1-.18.14.37.37,0,0,0-.2.11.41.41,0,0,1-.3.1c-.09,0-.17-.1-.25-.29a1.5,1.5,0,0,1-.12-.35c0-.76.5-1.41,1.51-2a2.49,2.49,0,0,0,.32-.22.81.81,0,0,1,.24-.17l.06-.11a2.63,2.63,0,0,1,.93-.53h.22l1-.26q.66-.15.66,1.5l0,.28.06.13a4.17,4.17,0,0,1,.54-.44,2,2,0,0,0,.39-.35A1.25,1.25,0,0,1,470,70.24Z" transform="translate(0 0.11)"/><path class="bae78dff-209f-48c9-b0fb-d9807cf1aec5" d="M495.38,73.27l.24-.21a.25.25,0,0,0,.28-.21.52.52,0,0,1,.33-.34,1.32,1.32,0,0,0,.54-.5c.16-.25.33-.38.51-.38s.13.05.21.16a.47.47,0,0,1,.13.24,2.21,2.21,0,0,1-.31,1.06l-.07.43-.1.2a.71.71,0,0,0-.31.27,1.07,1.07,0,0,1-.36.34l-.15.21a.73.73,0,0,0-.46.36.43.43,0,0,1-.33.28.78.78,0,0,0-.45.31,2.35,2.35,0,0,1-.38.14l0,.16a1.06,1.06,0,0,1-.49.24,2.35,2.35,0,0,0-.49.18.57.57,0,0,1-.23.09,1.25,1.25,0,0,1-.54-.12,1.5,1.5,0,0,0-.51-.15.37.37,0,0,1-.11-.2.72.72,0,0,0-.15-.29.71.71,0,0,1-.14-.48l.06-.3a.28.28,0,0,0-.08-.15.33.33,0,0,1-.08-.16.1.1,0,0,1,0-.09.12.12,0,0,0,0-.09.51.51,0,0,0,0-.17.41.41,0,0,1,0-.16l.1-.76q0-.09-.06-.09c-.05,0-.12,0-.23.15a.51.51,0,0,1-.38.16.7.7,0,0,0-.2.38,1.19,1.19,0,0,1-.31.28l-.06.1q0,.11-.24.18a.5.5,0,0,0-.27.17l-.16.16-.29,0a1.92,1.92,0,0,0-.17.27,1.35,1.35,0,0,1-.36.39l-1.18,1c-.12.08-.3.18-.54.31l-.09.09a4,4,0,0,1-1.76.82,2.65,2.65,0,0,1-1-.23c-.37-.16-.58-.34-.61-.56l-.15-.64a1,1,0,0,1-.14-.6.65.65,0,0,1,0-.25v-.09l0-.51c0-.13.1-.19.29-.19l0-.42a2.36,2.36,0,0,1,.27-.49,1.87,1.87,0,0,1,.37-.48l.15-.21a.5.5,0,0,1,.22-.39,2.07,2.07,0,0,0,.37-.43,2,2,0,0,1,.53-.48l.46-.46a5.06,5.06,0,0,1,1.18-.87,1.31,1.31,0,0,0,.38-.31,1.83,1.83,0,0,1,.66-.41,5.05,5.05,0,0,0,.71-.33,1.19,1.19,0,0,1,.55-.21h.13a5.72,5.72,0,0,0,.82-.38H491a1.05,1.05,0,0,1,.3.12h0l.25-.12a.33.33,0,0,1,.15,0c.64,0,1,.44,1,1.33,0,.18.08.28.16.28s.25-.19.44-.57a1.23,1.23,0,0,1,1.22-.56c.44,0,.67.28.67.85a2.69,2.69,0,0,1-.9,1.91,1.69,1.69,0,0,0-.1.27l-.21.64v0a.56.56,0,0,1-.13.26.46.46,0,0,0-.14.28l0,.39-.07.43a.52.52,0,0,0,.11.39,1.26,1.26,0,0,0,.72-.41,1.11,1.11,0,0,1,.32-.32l.15-.06A1.55,1.55,0,0,1,495.38,73.27Zm-5.15,0a.74.74,0,0,1,.38-.52.74.74,0,0,0,.38-.36,7.66,7.66,0,0,0,.84-.77c.37-.38.55-.6.55-.69s0,0-.06,0h0l-.12.07-.28,0-.3,0-.21-.1-.21,0-.31-.06a.82.82,0,0,0-.42.1,3.57,3.57,0,0,1-.68.22,2.32,2.32,0,0,0-.91.43,1.26,1.26,0,0,1-.59.3,2.43,2.43,0,0,1-.73.67.7.7,0,0,0-.48.54c-.27.22-.4.34-.4.37l-.11.26a.94.94,0,0,1-.31.18.38.38,0,0,0-.22.33.84.84,0,0,1-.21.46.59.59,0,0,0-.18.34c0,.5.1.76.3.76a1.9,1.9,0,0,0,.52-.17,2.83,2.83,0,0,0,.46-.22.82.82,0,0,1,.24-.13l.3-.15a.29.29,0,0,1,.14-.08.26.26,0,0,0,.15-.1,1,1,0,0,1,.28-.19.63.63,0,0,0,.31-.27l.85-.48.33-.25a1.11,1.11,0,0,0,.42-.26A.85.85,0,0,1,490.23,73.27Z" transform="translate(0 0.11)"/><path class="bae78dff-209f-48c9-b0fb-d9807cf1aec5" d="M497.63,71.63l.13-.17a.68.68,0,0,0,.51-.31,6.55,6.55,0,0,1,.78-.81c.49-.46.76-.71.81-.74a6.07,6.07,0,0,0,.6-1.35c.13-.06.19-.13.19-.22l.12-.24.14,0,.06-.07v-.14a4.11,4.11,0,0,1,.6-1.3c.41-.83.62-1.3.66-1.39a3.62,3.62,0,0,1,.18-.38,10.28,10.28,0,0,0,.43-1,6.63,6.63,0,0,1,.89-1.52s.1-.13.18-.34a2.51,2.51,0,0,1,.39-.63l.19-.33.32-.54a4.73,4.73,0,0,1,.43-.61,1.58,1.58,0,0,0,.29-.47.87.87,0,0,1,.24-.36,1.14,1.14,0,0,0,.29-.4.48.48,0,0,1,.46-.28.91.91,0,0,1,.87.49,1.9,1.9,0,0,1,.28.87s-.07.25-.19.67l-.23,1.39c-.21.11-.31.22-.31.36a2.87,2.87,0,0,1-.64,1.7,1,1,0,0,0-.1.41.85.85,0,0,1-.27.55,2,2,0,0,0-.42.73l-1.44,2.06-.12.13a.75.75,0,0,0-.22.26l-.25-.08q-.42,0-.42.27a.79.79,0,0,0,.06.25v0s-.38.55-1.14,1.62a3.59,3.59,0,0,0-.22.61l-.22.46a3.06,3.06,0,0,0-.45.88,2.23,2.23,0,0,1-.35.69,7.76,7.76,0,0,0-.31.73.08.08,0,0,0,.09.09c.06,0,.21-.15.44-.46a2.75,2.75,0,0,1,.58-.62,1.24,1.24,0,0,0,.37-.44l.16-.11.26-.18.16,0a.4.4,0,0,0,.15-.22.5.5,0,0,1,.1-.18c.27,0,.44-.13.5-.3s.15-.25.24-.25.19-.09.33-.28a1.34,1.34,0,0,1,.57-.47,2.94,2.94,0,0,0,.54-.32,3.14,3.14,0,0,1,.72-.33,2.71,2.71,0,0,1,.73-.19h.09l.13,0,.23,0a2.24,2.24,0,0,1,1.09.3.87.87,0,0,1,.46.94l-.12,1-.17.76a8.27,8.27,0,0,1-.25.82,4.18,4.18,0,0,0-.22.73l-.06.29.06.4,0,.33c0,.1.05.15.16.15s.15-.09.34-.27c.11,0,.22,0,.32-.19a2.44,2.44,0,0,1,.42-.45s.06-.08.2-.12a1.46,1.46,0,0,0,.55-.36,3.61,3.61,0,0,1,.61-.6,5.22,5.22,0,0,1,1-.7l.09-.13a.77.77,0,0,1,.48-.26c.15,0,.22.08.22.23a.84.84,0,0,1-.08.33,1.48,1.48,0,0,0-.11.44,2.31,2.31,0,0,1-.31.78l-.06.16a.49.49,0,0,1-.26.31.75.75,0,0,0-.33.25,1.69,1.69,0,0,1-.74.4c-.16.31-.29.46-.38.46l-.28-.12a.73.73,0,0,0-.33.54,3.88,3.88,0,0,0-.48.45l-.31,0c-.08,0-.12.12-.12.34a1.24,1.24,0,0,1-.32.21,4.68,4.68,0,0,0-.49.32,1.25,1.25,0,0,1-.72.14.35.35,0,0,1-.19-.11,1.19,1.19,0,0,0-.36-.19.53.53,0,0,1-.34-.36,1.93,1.93,0,0,0-.2-.45.54.54,0,0,1-.11-.26l0-.31-.08-.32.14-.22a1.08,1.08,0,0,1-.1-.29l.16-1a10,10,0,0,1,.28-1.33s0-.08,0-.19l0-.39,0-.21c0-.16-.05-.24-.16-.25s-.16,0-.18-.08l-.23-.09c-.09,0-.16.06-.22.19a1.24,1.24,0,0,1-.25.35l-.39-.06v0q0,.12-.42.48a1.26,1.26,0,0,0-.66.4.94.94,0,0,0-.43.25,1.65,1.65,0,0,1-.4.27l-.12.24-.25.08a.65.65,0,0,1-.51.41l-.16.29a.52.52,0,0,0-.45.33c-.08.2-.14.31-.18.31l-.1,0a.25.25,0,0,0-.14,0c-.22,0-.35.17-.37.51a4.92,4.92,0,0,1-.63.73c-.43.44-.66.67-.69.68s-.09.12-.18.32a.91.91,0,0,1-.36.45,2.57,2.57,0,0,0-.35.24.36.36,0,0,1-.18.09c-.21,0-.39-.16-.53-.46s-.2-.47-.2-.49l.1-.32,0-.28s.06-.22.19-.63a3.61,3.61,0,0,1,.44-1,2.76,2.76,0,0,0,.39-1.14,3.14,3.14,0,0,1-.84.47c-.2,0-.31-.14-.31-.41A2.05,2.05,0,0,1,497.63,71.63Z" transform="translate(0 0.11)"/></g></svg>