<svg id="fcf21dd1-f89f-489e-be3c-5515fd8035c2" data-name="Layer 1" xmlns="http://www.w3.org/2000/svg" viewBox="0 0 512 90.37"><defs><style>.eeb22ec2-fbd3-44d8-9c40-4d526c5188e0{fill:#263b66;}.a3273476-da09-4f99-b9ea-6780a228b892{fill:#575b66;}</style></defs><g id="a4681b4a-410a-4dbd-8eb1-7af693dde0fb" data-name="Text"><path class="eeb22ec2-fbd3-44d8-9c40-4d526c5188e0" d="M14.54,249.67a32.48,32.48,0,0,1-4.72-.34,24.33,24.33,0,0,1-4.45-1.08,17.36,17.36,0,0,1-3.75-1.79A3.42,3.42,0,0,1,.28,244.9,3.3,3.3,0,0,1,0,243.11a3.07,3.07,0,0,1,.69-1.56,2.44,2.44,0,0,1,1.42-.83,2.66,2.66,0,0,1,1.88.49,18.58,18.58,0,0,0,5,2,23.08,23.08,0,0,0,5.53.65q4.23,0,6.16-1.43a4.35,4.35,0,0,0,1.93-3.67,3.53,3.53,0,0,0-1.37-2.94,11.67,11.67,0,0,0-4.69-1.77l-5.89-1.24c-3.4-.71-5.93-1.92-7.59-3.61A9.22,9.22,0,0,1,.6,222.5a10.58,10.58,0,0,1,1.07-4.77,10.85,10.85,0,0,1,3-3.7,14.06,14.06,0,0,1,4.66-2.39,20.48,20.48,0,0,1,6-.83,22.59,22.59,0,0,1,6.11.81,17.49,17.49,0,0,1,5.2,2.36,2.89,2.89,0,0,1,1.15,1.44,3.28,3.28,0,0,1,.14,1.69,2.64,2.64,0,0,1-.76,1.42,2.37,2.37,0,0,1-1.47.7,3.32,3.32,0,0,1-2-.54,15.51,15.51,0,0,0-4-1.61,19.14,19.14,0,0,0-4.4-.48,11.63,11.63,0,0,0-4.23.7,6,6,0,0,0-2.71,2,4.86,4.86,0,0,0-.93,3,3.91,3.91,0,0,0,1.28,3.08,9.61,9.61,0,0,0,4.4,1.8l5.84,1.23c3.54.75,6.17,1.93,7.91,3.54a8.36,8.36,0,0,1,2.6,6.43A10.2,10.2,0,0,1,28.39,243a10.34,10.34,0,0,1-3,3.6,14.37,14.37,0,0,1-4.69,2.3A21.69,21.69,0,0,1,14.54,249.67Z" transform="translate(0 -210.81)"/><path class="eeb22ec2-fbd3-44d8-9c40-4d526c5188e0" d="M82.66,249.57a3.35,3.35,0,0,1-2.54-.94,3.64,3.64,0,0,1-.89-2.6V214.46a3.62,3.62,0,0,1,.89-2.63,4,4,0,0,1,5.09,0,3.62,3.62,0,0,1,.88,2.63V246a3.72,3.72,0,0,1-.85,2.6A3.35,3.35,0,0,1,82.66,249.57Z" transform="translate(0 -210.81)"/><path class="eeb22ec2-fbd3-44d8-9c40-4d526c5188e0" d="M141.46,249.57a3,3,0,0,1-2.3-.86,3.29,3.29,0,0,1-.8-2.36V214.14a3.19,3.19,0,0,1,.85-2.39,3.26,3.26,0,0,1,2.36-.83,3.84,3.84,0,0,1,2.12.51,4.53,4.53,0,0,1,1.42,1.74l13.24,24.5h-1.72l13.24-24.5a4.69,4.69,0,0,1,1.4-1.74,3.67,3.67,0,0,1,2.09-.51,3.05,3.05,0,0,1,2.3.83,3.29,3.29,0,0,1,.81,2.39v32.21a3.38,3.38,0,0,1-.78,2.36,3.56,3.56,0,0,1-4.64,0,3.34,3.34,0,0,1-.8-2.36V221.53h1.18l-11.26,20.53a4.33,4.33,0,0,1-1.12,1.34,2.67,2.67,0,0,1-1.61.43,2.81,2.81,0,0,1-1.66-.45,4,4,0,0,1-1.13-1.32l-11.36-20.58h1.28v24.87a3.42,3.42,0,0,1-.77,2.36A3,3,0,0,1,141.46,249.57Z" transform="translate(0 -210.81)"/><path class="eeb22ec2-fbd3-44d8-9c40-4d526c5188e0" d="M229.05,249.57A3.32,3.32,0,0,1,227,249a2.39,2.39,0,0,1-.94-1.58,4,4,0,0,1,.37-2.23l14.16-31.36a5.13,5.13,0,0,1,1.68-2.22,4,4,0,0,1,2.28-.67,3.9,3.9,0,0,1,2.23.67,5.13,5.13,0,0,1,1.68,2.22l14.21,31.36a3.91,3.91,0,0,1,.43,2.25,2.34,2.34,0,0,1-.91,1.58,3.22,3.22,0,0,1-2,.57,3.39,3.39,0,0,1-2.33-.73,6.11,6.11,0,0,1-1.47-2.22l-3.49-8.09,2.9,1.87H233.18l2.89-1.87-3.43,8.09a6.82,6.82,0,0,1-1.45,2.25A3,3,0,0,1,229.05,249.57Zm15.38-30.77-7.5,17.85-1.39-1.72h17.9l-1.34,1.72-7.56-17.85Z" transform="translate(0 -210.81)"/><path class="eeb22ec2-fbd3-44d8-9c40-4d526c5188e0" d="M315.67,249.57a3,3,0,0,1-2.3-.86,3.3,3.3,0,0,1-.81-2.36V214.14a3.19,3.19,0,0,1,.86-2.39,3.26,3.26,0,0,1,2.36-.83,3.78,3.78,0,0,1,2.11.51,4.54,4.54,0,0,1,1.43,1.74l13.24,24.5h-1.72l13.24-24.5a4.68,4.68,0,0,1,1.39-1.74,3.69,3.69,0,0,1,2.09-.51,3.09,3.09,0,0,1,2.31.83,3.29,3.29,0,0,1,.8,2.39v32.21a3.42,3.42,0,0,1-.77,2.36,3.56,3.56,0,0,1-4.64,0,3.3,3.3,0,0,1-.81-2.36V221.53h1.18l-11.25,20.53a4.35,4.35,0,0,1-1.13,1.34,2.65,2.65,0,0,1-1.61.43,2.83,2.83,0,0,1-1.66-.45,4,4,0,0,1-1.12-1.32l-11.37-20.58h1.29v24.87a3.38,3.38,0,0,1-.78,2.36A3,3,0,0,1,315.67,249.57Z" transform="translate(0 -210.81)"/><path class="eeb22ec2-fbd3-44d8-9c40-4d526c5188e0" d="M403.25,249.57a3.36,3.36,0,0,1-2.06-.59,2.39,2.39,0,0,1-.94-1.58,4.06,4.06,0,0,1,.38-2.23l14.15-31.36a5.14,5.14,0,0,1,1.69-2.22,4,4,0,0,1,2.28-.67,3.85,3.85,0,0,1,2.22.67,5.21,5.21,0,0,1,1.69,2.22l14.2,31.36a3.75,3.75,0,0,1,.43,2.25,2.3,2.3,0,0,1-.91,1.58,3.19,3.19,0,0,1-2,.57,3.39,3.39,0,0,1-2.33-.73,6,6,0,0,1-1.48-2.22l-3.48-8.09L430,240.4H407.38l2.9-1.87-3.43,8.09a7,7,0,0,1-1.45,2.25A3.07,3.07,0,0,1,403.25,249.57Zm15.39-30.77-7.51,17.85-1.39-1.72h17.9l-1.34,1.72-7.55-17.85Z" transform="translate(0 -210.81)"/><path class="eeb22ec2-fbd3-44d8-9c40-4d526c5188e0" d="M495,249.57a3.34,3.34,0,0,1-2.54-.94,3.64,3.64,0,0,1-.89-2.6V217.08H481.14a2.92,2.92,0,0,1-2.17-.77,2.87,2.87,0,0,1-.78-2.12,2.76,2.76,0,0,1,.78-2.12,3.07,3.07,0,0,1,2.17-.72h27.77a3.09,3.09,0,0,1,2.17.72,2.8,2.8,0,0,1,.77,2.12,2.9,2.9,0,0,1-.77,2.12,2.94,2.94,0,0,1-2.17.77H498.45V246a3.72,3.72,0,0,1-.85,2.6A3.35,3.35,0,0,1,495,249.57Z" transform="translate(0 -210.81)"/><path class="a3273476-da09-4f99-b9ea-6780a228b892" d="M14.2,285.34l.12-.31.4-.45a1.72,1.72,0,0,1,.51-.6.92.92,0,0,1,.09-.23,1,1,0,0,0,.09-.34l.14-.24s.06-.07.06-.1a.78.78,0,0,0-.12-.18l-.08-.32c0-.08-.27-.36-.81-.82h-.13l-1.1-.54-.07-.15-.12,0-.15.06h0l-.53-.15a8,8,0,0,1-.83-.26.12.12,0,0,1-.09,0l-.62-.14a.65.65,0,0,1-.31-.13.55.55,0,0,0-.27-.14,1.13,1.13,0,0,1-.27-.13.35.35,0,0,0-.24-.06l-.39.09s-.14-.08-.43-.16q-.06-.15-.09-.15l-.45.06L8,279.74l-.54-.09a1.76,1.76,0,0,1-.6-.17,1.44,1.44,0,0,0-.41-.19l-.1-.09a.37.37,0,0,0-.17-.06H5.93a.45.45,0,0,1-.26-.16,2.56,2.56,0,0,0-.41-.31,1.31,1.31,0,0,1-.45-.48,1.42,1.42,0,0,1-.21-.67.09.09,0,0,1,0-.06l.1-.49a3.21,3.21,0,0,1,.87-1.74.9.9,0,0,1,.51-.6l.06-.22a5.66,5.66,0,0,0,.64-.61,1.74,1.74,0,0,1,.44-.38,3,3,0,0,0,.38-.27l.28-.12q0-.13.69-.66a5.61,5.61,0,0,1,1.09-.67l.53-.24a3.74,3.74,0,0,1,.76-.23c.1-.28.26-.42.49-.42h.23l.31-.31.41,0,.17-.2a.63.63,0,0,1,.47-.16l1.86-.57H15l.12,0c.08,0,.19-.07.32-.21a.62.62,0,0,1,.5-.22.54.54,0,0,1,.23.12s0,0,0,0l.4-.13.48,0,.6-.15a1.77,1.77,0,0,1,1,.28l0-.07v-.09c0-.17.1-.26.29-.26s.13,0,.15.06l.19.11h.11l.4.18a.84.84,0,0,1,.29-.15.52.52,0,0,1,.46.25l.26,0a.52.52,0,0,1,.16-.13c.06,0,.14.09.24.25l.09,0h.39s.06,0,.12.09l.17.14a1.2,1.2,0,0,1,.17.2.76.76,0,0,0,.11.14l.43-.17c.1,0,.18.09.23.26a.57.57,0,0,0,.27.43.55.55,0,0,1,.27.43.54.54,0,0,1,.34.5l.29.75-.06.26a1.77,1.77,0,0,1,.12.28l-.06.57.06.6a1,1,0,0,1-.44.81.78.78,0,0,0-.31.13,1,1,0,0,1-.23.14.59.59,0,0,1-.53-.2,1.2,1.2,0,0,0-.26-.28.3.3,0,0,1-.12-.25q0-.35.48-.69a.34.34,0,0,0,.3-.14.58.58,0,0,0-.14-.45,2.57,2.57,0,0,1-.3-.33,1.42,1.42,0,0,0-.34-.35,1.18,1.18,0,0,1-.3-.33c-.08-.13-.15-.2-.21-.2l-.21,0-.45-.09a5.08,5.08,0,0,1-1.29-.33h-.31l-.83-.12a1.69,1.69,0,0,1-.62.09l-1,.16-.42,0a8.51,8.51,0,0,0-.84.26l-.16,0h-.41l-.4.15a3.52,3.52,0,0,1-.6.22l-.14.06a.13.13,0,0,1-.1,0l-.24,0L12.4,273l-.22-.12-.29-.12c-.15,0-.22.07-.22.21l0,.29a2.56,2.56,0,0,0-.26.19.38.38,0,0,1-.15.09H11a.49.49,0,0,0-.35.16.51.51,0,0,1-.28.18,1.18,1.18,0,0,0-.35.14s-.11.08-.25.12a.56.56,0,0,0-.33.28c-.08.15-.17.23-.27.23l-.31-.06-.17.3-.37.1a1.68,1.68,0,0,1-.4.4q-.19.13-.39.3a1,1,0,0,0-.28.33.65.65,0,0,1-.25.27.77.77,0,0,0-.29.4l-.16.16a.91.91,0,0,0-.38.69c0,.18.12.3.37.39a1.77,1.77,0,0,1,.46.2.43.43,0,0,0,.28.07.85.85,0,0,1,.35.08l.57.24c0,.17.1.25.15.25s.07,0,.13-.12a.32.32,0,0,1,.27-.13.51.51,0,0,1,.39.25l.12-.09h.06l.2.06h0l.19-.09a.12.12,0,0,1,.09,0l.48.15h0l.24-.06a.93.93,0,0,1,.27.09l.21.13s0,0,.06,0a.44.44,0,0,0,.19-.07.55.55,0,0,1,.23-.07.46.46,0,0,1,.28.17l.27-.11a1.12,1.12,0,0,1,.48.24l.29.06h.34l.51.09a1.73,1.73,0,0,0,.44.35.2.2,0,0,1,.22-.17,2.45,2.45,0,0,1,.75.2l.12,0,.13.09.32-.06c.21,0,.31.07.31.21a1.77,1.77,0,0,1-.09.48s.05,0,.09.06a.38.38,0,0,1,.17-.12l.24-.14a.18.18,0,0,1,.1-.06,1.93,1.93,0,0,1,1,.49,1.72,1.72,0,0,1,.73,1.12,1,1,0,0,0,.13.43l-.06.2,0,.25a1.25,1.25,0,0,1-.06.21l0,.23a.24.24,0,0,1-.09.11.31.31,0,0,0-.09.11l.09.26v.06c0,.05,0,.1-.11.17a.57.57,0,0,0-.15.2.66.66,0,0,1-.11.2.7.7,0,0,0-.11.23c0,.1-.12.2-.29.32s-.27.21-.27.27,0,.09.06.09a.62.62,0,0,0,.39-.18,1.15,1.15,0,0,1,.31-.2,1.84,1.84,0,0,0,.37-.19l1.45-.67a10.36,10.36,0,0,1,1.8-.78.22.22,0,0,1,.24.25.88.88,0,0,1-.21.36.78.78,0,0,1-.63.84,1.16,1.16,0,0,0-.36.33h-.12a1.18,1.18,0,0,1-.88.43h-.09a2.16,2.16,0,0,1-1.39.63,1.43,1.43,0,0,1-.89.54l-.24.06a1.85,1.85,0,0,1-.54.15s-.06,0-.13.12l-.23.17a1.64,1.64,0,0,0-.63.34,1.51,1.51,0,0,1-.51.32,1.56,1.56,0,0,0-.38.13c-.13.06-.67.41-1.62,1l-.2.07a2.48,2.48,0,0,0-.75.45,1.22,1.22,0,0,1-.37.3h-.06a1.3,1.3,0,0,0-.83.46,1.72,1.72,0,0,1-.67.26,4.42,4.42,0,0,0-1.22.54l-.91.25a5.91,5.91,0,0,1-.79.18l-1.07.23c-.24,0-.51.11-.82.19a1.59,1.59,0,0,0-.47-.1l-.28,0a.38.38,0,0,1-.19-.11,2.15,2.15,0,0,0-.35-.21c-.14-.07-.22-.24-.22-.53s.29-.51.85-.76.94-.43,1.11-.53a.53.53,0,0,1,.42-.2,1,1,0,0,0,.52-.19,2.11,2.11,0,0,1,.66-.27l.62-.33a.13.13,0,0,1,.08,0h.21a.58.58,0,0,0,.32-.17,1.64,1.64,0,0,1,.45-.24h.19s0,0,.09-.08a1,1,0,0,1,.28-.2l0,0h.16a1.4,1.4,0,0,1,.4-.23,2.16,2.16,0,0,0,.44-.25l1.2-.46.28,0a.41.41,0,0,0,.24-.15,2.12,2.12,0,0,1,.68-.3,1.47,1.47,0,0,1,.33-.29,4.19,4.19,0,0,0,.58-.49Zm-5.37,3.84-.22,0a.87.87,0,0,1-.42.14,1.73,1.73,0,0,0-.65.29,7.3,7.3,0,0,1-1,.51c-.38.17-.57.27-.57.33A6.56,6.56,0,0,0,7.53,290l1.11-.31a.9.9,0,0,0,.3-.12,2.3,2.3,0,0,1,.33-.17l.25-.18a2.79,2.79,0,0,1,.34-.13c.18-.06.26-.12.26-.18a.05.05,0,0,0-.06-.06,1.84,1.84,0,0,0-.88.17A1.93,1.93,0,0,1,8.83,289.18Z" transform="translate(0 -210.81)"/><path class="a3273476-da09-4f99-b9ea-6780a228b892" d="M19.88,283.86l.25-.22h.09c.07,0,.18-.07.32-.23l.15-.06a1.41,1.41,0,0,1,.54-.54l.25-.18a.5.5,0,0,1,.18-.11,1.37,1.37,0,0,0,.37-.3c.17-.17.3-.25.41-.25a.78.78,0,0,1,.24,0,1,1,0,0,1,.37-.36,1.43,1.43,0,0,0,.45-.43l.2-.09a1.67,1.67,0,0,0,.44-.31.67.67,0,0,1,.5-.2,1.41,1.41,0,0,1,.93.46,1.25,1.25,0,0,1,.48.87l-.26,1.2c-.17.88-.37,1.34-.58,1.38l-.06.33c-.15.1-.22.18-.22.24l.09.37c0,.05-.05.13-.17.23s0,0,0,.09v.63a.31.31,0,0,1-.21.28l.09.06a.64.64,0,0,1,.42-.09l.24,0,.34-.34a1.78,1.78,0,0,0,.3-.14,4.74,4.74,0,0,1,.65-.3l2-1.54q.41-.42.63-.42c.15,0,.23.1.23.3a1.19,1.19,0,0,1-.13.56,2.73,2.73,0,0,0-.24.54,1,1,0,0,1-.26.43,2,2,0,0,0-.24.27,1.89,1.89,0,0,1-.49.43,4.18,4.18,0,0,0-.7.56,2.78,2.78,0,0,1-.47.4l-.66.48-.09.16a1.85,1.85,0,0,1-.29.13,1.79,1.79,0,0,0-.45.25l-.28.16a.66.66,0,0,1-.3.07.57.57,0,0,0-.36.18c-.1.11-.18.16-.24.16l-.23,0-.31.09a1.07,1.07,0,0,1-.64-.31.9.9,0,0,1-.38-.67V288l0-.21a1.47,1.47,0,0,0-.09-.32,2.14,2.14,0,0,1-.09-.28l0-.22,0-.09a1.32,1.32,0,0,1,.06-.52.89.89,0,0,0,.09-.3c0-.13,0-.23.06-.32l.08-.38a.44.44,0,0,1,.16-.25c0-.08.06-.22.12-.41l.06-.28.15-.22a.51.51,0,0,0,.15-.33,1.24,1.24,0,0,1,.16-.44,1.09,1.09,0,0,0,.14-.27c0-.13-.06-.19-.18-.19a1.45,1.45,0,0,0-.39.25l-.28-.09s-.07.05-.17.15,0,.07-.13.09a.47.47,0,0,0-.27.23l-.12,0-.2-.09h-.06c-.1,0-.16.12-.19.34a.74.74,0,0,1-.44.32l-.34.1a.42.42,0,0,0-.25.27.83.83,0,0,1-.31.4.78.78,0,0,1-.3.17c-.29,0-.43-.16-.43-.47l.12-.73Zm6.65-7.69-.1-.6v-.09c0-.49.17-.75.5-.81a4.7,4.7,0,0,0,.64-.2,1.14,1.14,0,0,1,.58.49,1.34,1.34,0,0,1,.3.75.58.58,0,0,1-.05.13,1.48,1.48,0,0,0-.06.41.68.68,0,0,1-.3.52,1,1,0,0,1-.61.23.92.92,0,0,1-.54-.3A1,1,0,0,1,26.53,276.17Z" transform="translate(0 -210.81)"/><path class="a3273476-da09-4f99-b9ea-6780a228b892" d="M31.88,281.84l.22-.38a1.49,1.49,0,0,1,.24-.28,2.09,2.09,0,0,0,.32-.76,2.22,2.22,0,0,1,.37-.84.79.79,0,0,1,.61-.23,1.33,1.33,0,0,1,.61.23,2.46,2.46,0,0,1,.74,1.34,6.18,6.18,0,0,1,.36,1.59,1.37,1.37,0,0,0,.11.46,4,4,0,0,1,.14.44,1.55,1.55,0,0,0-.13.3l0,.63-.18.51v.36a1.31,1.31,0,0,0-.18.39.32.32,0,0,0,.06.18,2.44,2.44,0,0,0,.87-.5.73.73,0,0,1,.3-.23,1.93,1.93,0,0,0,.49-.4l.29-.16c.1-.12.19-.23.26-.33a.61.61,0,0,1,.25-.21,1.78,1.78,0,0,0,.35-.21,4,4,0,0,1,.58-.36l.16-.18a1.71,1.71,0,0,1,.54-.42l.35-.15c.07,0,.14.1.22.28a1.44,1.44,0,0,1,.11.57.7.7,0,0,1-.3.51,4,4,0,0,0-.4.38,1,1,0,0,1-.49.21,6.6,6.6,0,0,0-.51.63l-.31.19-.15.2s-.16.08-.42.12c0,0,0,0-.07.16s-.14.17-.33.21a4.15,4.15,0,0,0-.57.57l-.32.06a1.08,1.08,0,0,1-.15.36q-.37.09-.42.3a.36.36,0,0,1-.15.06l-.06.05a1.56,1.56,0,0,1-.7.34l-.35.09-.12.19c0,.05-.13.12-.38.2a1.29,1.29,0,0,0-.56.31l-.26.2a1.52,1.52,0,0,0-.6.33h-.21a1.49,1.49,0,0,0-.68.32,1.47,1.47,0,0,1-.74.31,2.35,2.35,0,0,1-1.22-.22A2.06,2.06,0,0,1,29,289a3.85,3.85,0,0,0-.39-.53.57.57,0,0,1-.18-.33q0-.11.15-.21a1.34,1.34,0,0,0,.32-.44c.11-.22.4-.36.86-.42l.22-.1a.79.79,0,0,1,.31-.09c.11,0,.23.09.39.28t.06,0l.25,0a.54.54,0,0,0,.23.12,1.21,1.21,0,0,0,.78-.37l.06,0h.13s.08-.09.15-.26l.26-.54.54-.69v-.15a1.11,1.11,0,0,1,.09-.28v-.23q0-.14.18-.18c.13,0,.19-.09.19-.19l0-.12a.54.54,0,0,1-.12-.27l.15-.3,0-.33.06-.12a1.75,1.75,0,0,1-.06-.25l.06-.38s0-.11-.08-.29-.1-.28-.14-.28-.25.16-.58.48a3.27,3.27,0,0,0-.59.67.77.77,0,0,1-.39.36.94.94,0,0,0-.41.37.41.41,0,0,1-.26.23l-1,.83L29,285.8c-.08.09-.13.14-.15.14q-.57,0-.57-.63a2.32,2.32,0,0,1,.23-.73l.16-.09.06,0s0,0,0,0l.09.06h0a4,4,0,0,1,.74-.44.75.75,0,0,0,.31-.34l.64-.47a7.3,7.3,0,0,0,.76-.67A3.94,3.94,0,0,0,31.88,281.84Z" transform="translate(0 -210.81)"/><path class="a3273476-da09-4f99-b9ea-6780a228b892" d="M42.35,275.29l.22-.06.15-.16h0l.14.07h0a1.4,1.4,0,0,0,.66-.15,2.93,2.93,0,0,1,.48-.21l.24-.09.08,0,.25,0c.08,0,.19-.15.33-.44a1.74,1.74,0,0,1,.47-.64,2.13,2.13,0,0,0,.52-.75,1.17,1.17,0,0,0,.14-.24c0-.11.09-.16.12-.16a.43.43,0,0,0,.37-.29q.47-.54.75-.54c.26,0,.44.24.54.74L48,273a1.3,1.3,0,0,1-.07.22,1,1,0,0,0-.07.42,1,1,0,0,1,0,.28.7.7,0,0,0,0,.16c0,.08.09.12.26.12a1,1,0,0,0,.34-.12l.09,0a.54.54,0,0,0,.26.09l.44-.15a2.76,2.76,0,0,1,.52-.17,1.64,1.64,0,0,0,.37-.13h.18l.12.05a.59.59,0,0,0,.26-.13,1.54,1.54,0,0,1,.73-.16l.22-.1h.06c.33,0,.5.15.5.45a.69.69,0,0,1-.14.32,2.14,2.14,0,0,0-.24.53l-.71.89a.93.93,0,0,1-.71.46s-.17-.14-.38-.41t-.06,0a1,1,0,0,0-.33.06.83.83,0,0,1-.27.06l-.82.23-.37.06-.29.06-.79.16a1.42,1.42,0,0,0-.63.75s-.05.07-.15.14l-.69,1.26a.61.61,0,0,0-.45.4l-.06.09a.54.54,0,0,0-.31.19,1.59,1.59,0,0,1-.26.26l-.28.41c-.11.15-.23.3-.34.47a2.2,2.2,0,0,0-.25.54,1,1,0,0,1-.12.33.25.25,0,0,0,0,.17l0,.13a.58.58,0,0,0-.19.41l.07.25c-.15.49-.22.75-.22.78a1.19,1.19,0,0,0,0,.17V283a2,2,0,0,1-.25.85l0,.25-.09.69a2.7,2.7,0,0,0,.09.51s-.06.07-.06.09a1.47,1.47,0,0,0,.46.94,2.42,2.42,0,0,1,.45,1.61,1.16,1.16,0,0,1,0,.27,2.26,2.26,0,0,0-.07.39.62.62,0,0,1-.23.4.61.61,0,0,1-.38.2c-.55,0-.95-.39-1.22-1.18a6.5,6.5,0,0,1-.4-1.52l0-.6-.09-.31.09-1.36-.06-.32.35-1.32v-.48a1.12,1.12,0,0,1,.22-.25s0,0-.06,0-.15.07-.25.19a1.93,1.93,0,0,1-.39.35l-.12.22a.33.33,0,0,0-.12-.06,3.66,3.66,0,0,0-.51.72.66.66,0,0,0-.51.37.57.57,0,0,1-.51.32l-.06,0c0,.3-.18.45-.43.45l-.06,0q-.24.52-.48.51a1,1,0,0,1-.76.63.66.66,0,0,1-.27.28,1.21,1.21,0,0,0-.25.16.19.19,0,0,1-.14.08c-.13,0-.2-.14-.2-.43a.48.48,0,0,1,.1-.27.45.45,0,0,0,.1-.21s0-.08-.15-.18q0-.48.24-.6a.79.79,0,0,0,.37-.35.47.47,0,0,1,.31-.27c.16,0,.23-.11.23-.2s.14-.21.4-.43a3.25,3.25,0,0,0,.59-.56c.12-.16.22-.24.31-.24l.06-.06c0-.26.12-.38.29-.38l.16-.1,0-.12.09-.06h.12l.08-.06a.74.74,0,0,1,.36-.6,9.15,9.15,0,0,0,1.21-1.21,7.25,7.25,0,0,0,1-1.27,5.55,5.55,0,0,1,.39-.75,2,2,0,0,0,.31-.88.47.47,0,0,0-.09-.12l-.66.32s-.1-.08-.31-.14a1.45,1.45,0,0,0-.34.28c-.07.09-.12.14-.17.14l-.21,0-.68.07a3.17,3.17,0,0,0-1.37.37l-.63.19h-.14a.87.87,0,0,0-.37.15l-.35,0a1.9,1.9,0,0,1-.72.26l-.19,0-1.57.43a3.9,3.9,0,0,0-.83.63l-.12,0c-.1,0-.22-.11-.36-.34a1.24,1.24,0,0,1-.21-.63c0-1,.87-1.6,2.62-1.77l.63-.24h0l.17.06h.06a.67.67,0,0,0,.29-.12,4.45,4.45,0,0,1,.89-.28l.63-.17.2,0a.67.67,0,0,0,.35-.12,1.59,1.59,0,0,1,.58-.18,3,3,0,0,0,.55-.11l.25-.07a.7.7,0,0,0,.25-.1,1,1,0,0,1,.5-.11Z" transform="translate(0 -210.81)"/><path class="a3273476-da09-4f99-b9ea-6780a228b892" d="M48.69,282.92l.32-.26a.38.38,0,0,0,.4-.38.82.82,0,0,1,.51-.62l.18-.26a4,4,0,0,1,1.27-.6,1.24,1.24,0,0,0,.35-.28l.06,0,.25.06a1.46,1.46,0,0,0,.51-.11,1.9,1.9,0,0,1,.61-.1l.64,0a.78.78,0,0,1,.26.09,1.09,1.09,0,0,0,.47.09.83.83,0,0,1,.62.31.87.87,0,0,1,.29.57,1.41,1.41,0,0,1-.5,1,1.82,1.82,0,0,1-.78.55,1.75,1.75,0,0,1-.4.33,1.08,1.08,0,0,0-.28.22.44.44,0,0,1-.24.14.1.1,0,0,1-.09,0,.13.13,0,0,0-.1,0c-.16,0-.34.2-.53.6l-.28,0a.79.79,0,0,0-.34.37.31.31,0,0,1-.32.2c-.38.37-.64.56-.77.56l-.21-.06a.55.55,0,0,0-.13.33q0,.18-.24.21l-.2.19-.16,0-.3.32a.93.93,0,0,0-.48.15c0,.13,0,.28-.09.47s-.06.3-.06.32c0,.29.27.44.81.44l.74-.11a1.06,1.06,0,0,0,.55-.15,1.06,1.06,0,0,1,.55-.15,1,1,0,0,0,.27-.06l.16.06a1,1,0,0,1,.4-.42.93.93,0,0,1,.46-.18l.15-.09a.36.36,0,0,1,.19-.25l.12-.11a.35.35,0,0,1,.23-.12h.22l.06,0a.72.72,0,0,1,.51-.47.63.63,0,0,0,.42-.22.35.35,0,0,1,.3-.19.56.56,0,0,0,.36-.21,1.91,1.91,0,0,1,.36-.33,2.15,2.15,0,0,0,.3-.23.28.28,0,0,1,.15-.08c.06,0,.09.05.09.14s0,.14.06.14a.05.05,0,0,0,.06-.06.49.49,0,0,0,0-.15v-.11a.3.3,0,0,1,.25-.31l.69-.45c0-.21.08-.34.18-.37a.64.64,0,0,0,.22-.13.28.28,0,0,1,.17-.07c.13,0,.2.08.2.23l-.08.41.08.41a.47.47,0,0,1-.15.26,1.12,1.12,0,0,0-.22.49c0,.22-.12.34-.2.36h-.09a1.51,1.51,0,0,1-.44.35.44.44,0,0,0-.25.19l-.53.6-.26.27c-.07.09-.13.13-.17.13l-.12-.13s0,0-.06,0-.17.07-.2.19a.65.65,0,0,1-.16.32,1.73,1.73,0,0,0-.6.4l-.09,0h-.28c-.13,0-.22.1-.28.3a.45.45,0,0,1-.43.35,1,1,0,0,0-.52.18.38.38,0,0,1-.14.06,3.86,3.86,0,0,0-.43.25l-1.29.46a.83.83,0,0,1-.2.08l-.44.06a.24.24,0,0,1-.18-.12q-.09-.12-.12-.12l-.28.09a2.1,2.1,0,0,1-.58.09.68.68,0,0,1-.34-.11,2.74,2.74,0,0,0-.3-.15q-.44,0-.63-.69l-.18,0a4.86,4.86,0,0,1-.42-1.1.49.49,0,0,0-.29-.17.28.28,0,0,1-.2-.3,1.15,1.15,0,0,1,.3-.93c.2-.16.31-.28.33-.37l.21-.8a.63.63,0,0,0,.16-.3l.35-.65C48.45,283.39,48.55,283.21,48.69,282.92Zm3.25-.92-.18.09-.36.27a3.07,3.07,0,0,1-.59.38,1.7,1.7,0,0,0-.58.77,3.56,3.56,0,0,0-.3.7c0,.07,0,.1.09.1l.52-.23a2.48,2.48,0,0,0,.55-.36,6.9,6.9,0,0,1,.73-.52l.12-.13a1.13,1.13,0,0,1,.29-.22,1.86,1.86,0,0,0,.38-.31l.15-.06a1.1,1.1,0,0,1,.53-.51c.18-.06.27-.13.27-.19s-.1-.18-.29-.18a.78.78,0,0,0-.37.15h-.36a1,1,0,0,0-.33.19Z" transform="translate(0 -210.81)"/><path class="a3273476-da09-4f99-b9ea-6780a228b892" d="M63.09,282.2l.43-.2a1.74,1.74,0,0,0,.42-.4l.54-.39a1.55,1.55,0,0,1,.6-.3l.24.09s.09-.06.2-.19a.47.47,0,0,1,.37-.2,1.35,1.35,0,0,1,.76.42c.32.28.48.52.48.74l-.07.52a4.45,4.45,0,0,0,.13.69v.13l-.06.37.06.38-.17.75c0,.2.06.3.2.3a1.18,1.18,0,0,1,.44-.3l.22-.21q.12-.12.18-.12s.1,0,.17-.15a.51.51,0,0,1,.25-.21.41.41,0,0,0,.22-.21A3.66,3.66,0,0,1,70,282.63s.11-.05.21-.15a.58.58,0,0,1,.23-.19l.34-.26.14.06h0a1,1,0,0,0,.25-.15.6.6,0,0,1,.31-.16,1.25,1.25,0,0,1,1,.4c.25.26.38.46.38.6l-.08.36.11.47v.31l-.08.33a.51.51,0,0,0,.13.26.49.49,0,0,1,.13.23c-.12.13-.18.22-.18.26l0,.28-.08.84a.82.82,0,0,0,.2.36.92.92,0,0,1,.26-.11,1.42,1.42,0,0,0,.26-.1l.09-.06h0l.18.06h.06c.09,0,.13-.08.14-.24a.48.48,0,0,1,.31-.39l.37,0a1.47,1.47,0,0,0,.13-.25,2.26,2.26,0,0,1,.64-.66,1.56,1.56,0,0,1,.84-.44q.24,0,.24.21a2.35,2.35,0,0,1-.06.33.79.79,0,0,1,.13.36c0,.2-.17.41-.5.64a2.11,2.11,0,0,0-.76.84l-.07.06-.3,0s-.07.08-.15.24-.17.25-.27.27a.41.41,0,0,0-.21.09l-.33.2a6.82,6.82,0,0,0-.6.63c-.35.37-.64.56-.87.56a2,2,0,0,1-.55-.16,1.28,1.28,0,0,1-.54-.34,3.58,3.58,0,0,0-.39-.38,1,1,0,0,1-.26-.82s0-.05.09-.1a.24.24,0,0,0,.08-.13,1.39,1.39,0,0,1-.35-.66.75.75,0,0,1,0-.2.75.75,0,0,0,0-.2l0-.54.06-.27,0-.17.09-.79q0-.18-.21-.18s-.1,0-.17.12a.83.83,0,0,1-.27.19.94.94,0,0,0-.35.44,1.14,1.14,0,0,0-.38.3c-.06.1-.12.15-.16.15l-.12,0a.33.33,0,0,0-.19.27v.07l0,.12c0,.09-.07.18-.23.26a2,2,0,0,0-.57.63.51.51,0,0,0-.21,0l-.19.37a.92.92,0,0,0-.29.32l-.19.1a2.37,2.37,0,0,1-.21.33l-.09.17c-.45.53-.75.79-.93.79s-.38-.23-.63-.69a2.53,2.53,0,0,1-.37-1.08l.06-.57a1.35,1.35,0,0,0-.12-.25v-.06a2.69,2.69,0,0,1,.12-.35v-.46a.23.23,0,0,0,0-.09v-.08a1.1,1.1,0,0,1,.13-.25l-.1-.44.06-.25,0-.54.07-.48a.37.37,0,0,0-.09-.16c-.06-.07-.09-.11-.11-.11a2.16,2.16,0,0,0-.64.35,5,5,0,0,0-.72.55,4.52,4.52,0,0,1-.49.48,1,1,0,0,0-.44.79s0,0-.07,0,0,0-.09-.06h-.06q-.08,0-.48.66l-.06.06-.29-.06c-.25,0-.37.26-.37.78,0,.09-.06.16-.19.19a.43.43,0,0,0-.3.26,2.55,2.55,0,0,1-.29.44,1.2,1.2,0,0,0-.4.23s-.12.17-.34.47a3.66,3.66,0,0,0-.37.52.57.57,0,0,1-.21.18c-.12.06-.18.12-.18.17l.05.27q0,.24-.48.24-.93,0-.93-1.92a1,1,0,0,1,.19-.49,3.85,3.85,0,0,0,.38-.65,5.9,5.9,0,0,0,.69-.85,7.23,7.23,0,0,1,.6-.75l.2-.32a.43.43,0,0,1,.08-.28.36.36,0,0,0,.08-.23c0-.17,0-.25-.13-.25a.69.69,0,0,0-.46.15,1,1,0,0,1-.37.21.38.38,0,0,0-.27.21,1.21,1.21,0,0,0-.46.39c-.16.2-.26.33-.31.38a1,1,0,0,0-.15.21.23.23,0,0,1-.17.15.32.32,0,0,0-.2.1.43.43,0,0,1-.3.1c-.09,0-.17-.1-.25-.29a1.18,1.18,0,0,1-.11-.35c0-.74.49-1.39,1.49-1.93a1.8,1.8,0,0,0,.31-.22,1.18,1.18,0,0,1,.24-.17l.07-.11a2.69,2.69,0,0,1,.92-.52H60l1-.26c.44-.1.66.39.66,1.49l0,.28.06.12a5.37,5.37,0,0,1,.53-.44,1.74,1.74,0,0,0,.39-.34A1.2,1.2,0,0,1,63.09,282.2Z" transform="translate(0 -210.81)"/><path class="a3273476-da09-4f99-b9ea-6780a228b892" d="M93.53,269.3l.09-.15A.36.36,0,0,1,94,269l.23.06a.12.12,0,0,1,0-.09.17.17,0,0,1,.18-.19h.06l.36-.09,1.06-.12a3.3,3.3,0,0,1,1,.18H97l.42.13a1.22,1.22,0,0,0,.4.29q.12,0,.12.09a1.27,1.27,0,0,0,.39.37l.44.48.06.12c.09.16.19.32.3.49a1.41,1.41,0,0,1,.18.8l-.08.19c.12,0,.17.1.17.14l-.09.55v.48a1.6,1.6,0,0,1-.08.51,1.19,1.19,0,0,0-.09.47,1,1,0,0,1-.21.34v0l.06.42s0,.11-.14.2-.14.16-.14.21a.7.7,0,0,1-.17.5,1.58,1.58,0,0,1-.37.8,2.81,2.81,0,0,0-.44.83,2.87,2.87,0,0,1-.42.86c-.08.26-.14.44-.17.55a1,1,0,0,1-.33.42.86.86,0,0,0-.28.67.76.76,0,0,1-.43.47l-.36.32v.18a1,1,0,0,1-.37.7l-.52,1.07c-.1.21-.23.31-.4.31l-.06.06a1.35,1.35,0,0,1-.15.59,3,3,0,0,0-.23.32l-.23.33a2.1,2.1,0,0,0-.24.46,1.57,1.57,0,0,1-.35.55l-.15.34v.12c0,.28-.09.42-.28.42l-.17,0h0a1.93,1.93,0,0,1,.09.47,5.7,5.7,0,0,1-.43,1l-.06.23v.25a1.49,1.49,0,0,0-.31.44.46.46,0,0,1-.24.27c-.11,0-.17.08-.17.1l.06.1v.06l-.11.48.08.56a1.2,1.2,0,0,1-.14.33,1,1,0,0,1,.51.78.71.71,0,0,1-.54.79H91.2l-.31,0a1.26,1.26,0,0,1-.75-.16,5.51,5.51,0,0,1-.54-.47l-.2-.13a.42.42,0,0,1-.15-.23l-.16-.15a2.11,2.11,0,0,1-.32-1.29.35.35,0,0,1,.14-.22l0-.09,0-.29a8.1,8.1,0,0,1,.34-1l.44-.93a4.08,4.08,0,0,1,.51-.87,3.12,3.12,0,0,1,.16-.57l.09-.06a1,1,0,0,1,.24-.47,1.74,1.74,0,0,0,.3-.61q.21,0,.21-.09a.53.53,0,0,0,0-.13v-.06a.66.66,0,0,1,.22-.48,1.43,1.43,0,0,0,.34-.5,1.11,1.11,0,0,1,.25-.42,1.21,1.21,0,0,0,.27-.49.61.61,0,0,1,.31-.16c.13,0,.2-.09.2-.15a1.83,1.83,0,0,0-.14-.29,5.39,5.39,0,0,1,.89-1.48,1.14,1.14,0,0,0,.12-.3.5.5,0,0,1,.25-.3,3.45,3.45,0,0,1,.4-.86,4.16,4.16,0,0,0,.42-.75c.13-.27.29-.4.47-.4l.07-.1,0-.32a2.13,2.13,0,0,1,.13-.29c.08-.19.16-.29.23-.31s.16-.1.27-.25l-.13-.24a.34.34,0,0,0,.11-.16c0-.07.07-.1.11-.1.26-.15.38-.3.38-.47a1.19,1.19,0,0,0,0-.2v-.06c0-.06.1-.19.29-.41a1.08,1.08,0,0,0,.28-.76.78.78,0,0,1,.19-.4.52.52,0,0,0,.15-.3.42.42,0,0,1,.09-.24l-.06-.38a1.49,1.49,0,0,0,.29-.82.41.41,0,0,0-.07-.15.61.61,0,0,1-.08-.32.43.43,0,0,0-.17-.25l-.06-.15a2.14,2.14,0,0,1-.62-.31,1.3,1.3,0,0,0-.77-.14l-.27.06-.24-.06a.29.29,0,0,1-.15.06h0l-.16,0a2,2,0,0,0-.73.21,2,2,0,0,1-.62.21.69.69,0,0,0-.64.27c-.11.18-.19.27-.26.27l-.15-.06h0c-.08,0-.16.14-.22.43l0,.06a4,4,0,0,0-.95.69l-1,1a2.7,2.7,0,0,0-.56.7.64.64,0,0,1-.31.34,1.68,1.68,0,0,0-.24.63.72.72,0,0,1-.17.55c-.11.1-.17.18-.17.24a.27.27,0,0,0,0,.12,3.19,3.19,0,0,1,.12.34v.08a.46.46,0,0,1-.11.32.5.5,0,0,0-.12.17,1.2,1.2,0,0,0,.27.32c.18.19.27.32.27.4a1,1,0,0,1-.36.76,1.11,1.11,0,0,1-.76.35.85.85,0,0,1-.56-.17c-.14-.11-.21-.46-.21-1l0-.4.14-.45,0-.47a2.21,2.21,0,0,1,.29-.53,5.09,5.09,0,0,0,.37-.69,3,3,0,0,1,.84-1.4.25.25,0,0,0,.13-.22.61.61,0,0,1,.18-.41s.07-.12.22-.25a.82.82,0,0,0,.27-.39.36.36,0,0,1,.27-.27.51.51,0,0,0,.32-.41,2.87,2.87,0,0,1,.85-.7,1,1,0,0,1,.54-.53l.41-.28.09-.16a1.2,1.2,0,0,1,.25-.16.83.83,0,0,0,.29-.22,2,2,0,0,1,.57-.22Z" transform="translate(0 -210.81)"/><path class="a3273476-da09-4f99-b9ea-6780a228b892" d="M109.87,286.17h.06l.16.06a.09.09,0,0,0,.06,0,.56.56,0,0,1,.24-.45.73.73,0,0,1,.35-.44l.86-.51.38-.34.19-.09.12-.16a.46.46,0,0,1,.33-.2c.15,0,.23.06.23.17l-.14.31.06.51a.7.7,0,0,1-.19.49q-.19.22-.6.63l-.78.83-.42.22a1.39,1.39,0,0,0-.27.21l-.61.51a.37.37,0,0,1-.13.32h-.25l-.12.07a1.36,1.36,0,0,1-.64.57l-.21.15a.32.32,0,0,1-.2.09l-.43-.06-.3.06a.74.74,0,0,1-.33-.12,2,2,0,0,0-.42-.19,1.47,1.47,0,0,1-.55-.57,2.64,2.64,0,0,1-.36-.66.55.55,0,0,0-.07-.21.51.51,0,0,1-.07-.17,2,2,0,0,1,.14-.31v0a.78.78,0,0,0-.09-.22,1,1,0,0,1-.08-.41,1,1,0,0,0-.09-.35c.08-.09.12-.15.12-.19a.41.41,0,0,0,0-.18.45.45,0,0,1,0-.17l.09-.76-.06-.38,0-.37c0-.22-.09-.32-.28-.32a.49.49,0,0,0-.3.16l-.11,0a2.91,2.91,0,0,0-.58.33.61.61,0,0,1-.35.13.92.92,0,0,1-.36.17l-.12.09a1.49,1.49,0,0,1-.25.18,3.2,3.2,0,0,1-.57.52c-.38.31-.73.61-1,.88a1.8,1.8,0,0,1-.66.46q-.21,0-.21.39s-.09.12-.28.25a2.32,2.32,0,0,0-.32.33,1.3,1.3,0,0,0-.27-.18c-.14,0-.23.17-.3.51-.06.13-.22.21-.49.24a.64.64,0,0,0-.11.23l-.06.07H99a.85.85,0,0,0-.22.17.92.92,0,0,1-.32.23c-.14.27-.25.41-.34.41a.46.46,0,0,1-.18-.06,1.36,1.36,0,0,0-.29-.11c-.11,0-.23-.15-.37-.37a1.11,1.11,0,0,1-.21-.57c0-1.13.22-1.76.66-1.86l0-.06v-.12a.3.3,0,0,1,.18-.29.94.94,0,0,0,.36-.34,1.27,1.27,0,0,1,.25-.28h.2s.06-.11.06-.32a.21.21,0,0,1,.08-.17.37.37,0,0,0,.09-.23,1.36,1.36,0,0,1,.22-.47,1.33,1.33,0,0,0,.21-.4l0-.06a1.46,1.46,0,0,1-.56.39c-.11,0-.26.17-.46.44l-.24,0a5.65,5.65,0,0,1-.81.54.86.86,0,0,0-.33.35c0,.06,0,.1-.11.12a1.61,1.61,0,0,0-.4.25h-.1c-.25,0-.38-.18-.38-.55l.32-.88a1.28,1.28,0,0,1,.65-.7,6.32,6.32,0,0,0,.87-.55,1.31,1.31,0,0,1,.71-.27l.11-.16a1.13,1.13,0,0,0,.7-.63c.13-.29.3-.43.51-.43a1.48,1.48,0,0,1,1.29.62,2,2,0,0,1,.45,1l0,.42a2.89,2.89,0,0,1-.09.6.85.85,0,0,0-.19.42c0,.08,0,.12.16.12a.41.41,0,0,0,.24-.13,1.8,1.8,0,0,1,.35-.24c.13-.07.2-.13.22-.18a.86.86,0,0,1,.54-.51,1.61,1.61,0,0,0,.48-.23l.15-.13.12-.23a1.65,1.65,0,0,0,.56-.34.71.71,0,0,1,.36-.2A1.33,1.33,0,0,0,105,282l.23-.06.21-.13a.69.69,0,0,1,.19-.07l.45-.17a1.66,1.66,0,0,1,.41-.11,1.46,1.46,0,0,1,1.24.63,2,2,0,0,1,.45,1l0,.28.06.42v.06l-.12.85,0,.29a1.3,1.3,0,0,1-.31,1,.14.14,0,0,0-.08.15v.14l.31.65c.09.22.17.33.22.33l.49-.13a.63.63,0,0,0,.36-.33,2.26,2.26,0,0,0,.43-.37A.31.31,0,0,1,109.87,286.17Z" transform="translate(0 -210.81)"/><path class="a3273476-da09-4f99-b9ea-6780a228b892" d="M110.57,293.31l.16-.34.09-.39s.05-.1.15-.18a.33.33,0,0,0,.14-.22,6.22,6.22,0,0,1,.76-1.95l.37-.92a.78.78,0,0,1,.28-.49c.15-.13.22-.24.22-.33s-.1-.15-.31-.27-.32-.23-.32-.33.34-.3,1-.6a1.35,1.35,0,0,1,.46-.91.28.28,0,0,0,.11-.21,1.07,1.07,0,0,1,.15-.6l.12-.36a1.28,1.28,0,0,1,.26-.4.68.68,0,0,0,.19-.44v-.12c-.13,0-.32.16-.57.52q-.39,0-.63.57a.7.7,0,0,1-.57.41,1,1,0,0,1-.66.51c-.22-.13-.33-.25-.33-.34l.14-.95c0-.22.53-.76,1.57-1.62.06,0,.26-.19.6-.58l.85-1c.46-.46.81-.8,1.05-1a3.71,3.71,0,0,0,.66-1.39,2.4,2.4,0,0,0,.53-1.14,7,7,0,0,1,.42-1.26,3,3,0,0,0,.22-.58,14.1,14.1,0,0,1,.91-2.34l.15-.51.23-.18a2.54,2.54,0,0,0,.06-.48c.12,0,.23-.27.36-.68a2.4,2.4,0,0,1,.37-.84,1.31,1.31,0,0,0,.24-.49,1,1,0,0,1,.38-.51,1.06,1.06,0,0,1,.64-.25c.07,0,.19.11.36.32a1.46,1.46,0,0,1,.31.72c0,.27.06.46.08.55a2.1,2.1,0,0,1,0,.4l0,.44a7.5,7.5,0,0,1-.12.79c-.08.44-.14.75-.18.94a.46.46,0,0,1-.31.38c-.18.06-.26.12-.26.18s0,.11.12.15.12.06.12.09a1.75,1.75,0,0,1-.18.4,1,1,0,0,1-.33.44.76.76,0,0,1,.1.22,2,2,0,0,1-.23.48,2.86,2.86,0,0,1-.36.55,1.58,1.58,0,0,0-.27.63,1.48,1.48,0,0,1-.71.83,1.72,1.72,0,0,0-.38.71.88.88,0,0,1-.47.61l-.2.3v.06a1.05,1.05,0,0,1-.15.5,5.12,5.12,0,0,0-.31.66,1.41,1.41,0,0,1-.29.5,2.2,2.2,0,0,1-.22.64,1.52,1.52,0,0,0-.18.5l-.11.12c-.21,0-.31.13-.31.29l.06.34-.27.51-.07.31a.69.69,0,0,1-.29.51.77.77,0,0,0-.27.58l-.07.37a.23.23,0,0,0,0,.09s.09-.06.19-.17l.24.08a.23.23,0,0,0,.18-.13.49.49,0,0,1,.27-.19l.06,0c0-.14.13-.22.23-.23a.38.38,0,0,0,.26-.14c.08-.09.13-.13.17-.13a.81.81,0,0,1,.22.12h0l.14-.06,0-.25a.19.19,0,0,1,.14-.2.38.38,0,0,0,.2-.15l.56-.37a1.63,1.63,0,0,0,.55-.33,1.29,1.29,0,0,1,.38-.26.87.87,0,0,0,.33-.19.84.84,0,0,1,.51-.14,4.93,4.93,0,0,1,.69-.53l.13-.17.12-.06a.73.73,0,0,0,.24-.18.39.39,0,0,1,.27-.16.28.28,0,0,1,.31.31,1,1,0,0,1-.47.82l0,0c0,.41-.18.62-.38.62,0,0-.11.09-.22.26l-.2,0a1.88,1.88,0,0,1-.3.34h-.1a8.53,8.53,0,0,0-2,1.43.64.64,0,0,1-.15.12l-.29,0a2.67,2.67,0,0,1-.19.31,2,2,0,0,0-.51.29,3.09,3.09,0,0,1-.4.28.64.64,0,0,0-.24.2.56.56,0,0,1-.29.21l-.2.19h-.1a.52.52,0,0,0-.3.15.43.43,0,0,0-.17.29.48.48,0,0,0,.14.25c.08-.06.36.25.86.93a3.41,3.41,0,0,1,.74,2,1.33,1.33,0,0,1-.21.9q-.21.21-.21.3a2.22,2.22,0,0,0,0,.36v.06q0,.15-.18.18c-.12,0-.19.07-.21.13v.38l-.06.19a1.42,1.42,0,0,0-.42.72,2,2,0,0,1-.66.54l0,.06,0,.41a.27.27,0,0,1-.14.25,2,2,0,0,0-.37.39,1.59,1.59,0,0,1-.49.43.62.62,0,0,1-.24.41,1.53,1.53,0,0,0-.36.36l-.09.06c-.09,0-.18.13-.26.34l-.13,0a1.88,1.88,0,0,1-.42.53,1.4,1.4,0,0,0-.3.3l-.25.15a2,2,0,0,1-.57.63s-.06,0-.12-.09h0s-.08,0-.11.12a.53.53,0,0,1-.17.23,1.4,1.4,0,0,0-.25.31l-.06.06q-.19,0-.63.54a1.3,1.3,0,0,0-.51.22c-.21.24-.36.37-.44.37l-.34-.26a1,1,0,0,1-.33-.81.5.5,0,0,0-.18-.32c0-.11,0-.28-.06-.49v-.14a1,1,0,0,1,.12-.43l.09-.32a.47.47,0,0,1,.1-.2,1.68,1.68,0,0,0,.17-.44q.12-.36.27-.72l0-.15c.12-.49.21-.73.28-.73a4.27,4.27,0,0,0,.18-.61c.07-.26.11-.47.14-.63a.59.59,0,0,1,.22-.4Zm3.19-3,.06.67a3.56,3.56,0,0,1-.25.59,4.45,4.45,0,0,0-.33.85c0,.22-.17.32-.34.32h-.15a.35.35,0,0,0,0,.13l0,.34a4.19,4.19,0,0,1-.11.7,1.06,1.06,0,0,1-.31.65l-.09.11a3.28,3.28,0,0,1-.24.73c-.14.33-.25.59-.35.78a2.86,2.86,0,0,0-.21.71,1.14,1.14,0,0,1-.2.55,5,5,0,0,1-.19.71c-.06.19-.14.45-.23.77a.1.1,0,0,0,.09.06c.07,0,.14-.12.24-.34a.41.41,0,0,1,.2-.09c.1,0,.19-.12.26-.33l0-.06a.32.32,0,0,0,.24-.18c.06-.09.11-.15.17-.17a.58.58,0,0,0,.22-.16l.11,0s.07-.07.1-.17a1,1,0,0,1,.11-.21h.22l.06,0a1.22,1.22,0,0,1,.3-.64.92.92,0,0,0,.27-.35.91.91,0,0,1,.22-.31.65.65,0,0,0,.19-.4,2,2,0,0,0,.36-.5.77.77,0,0,1,.21-.31l0-.11-.06-.18v-.06a1.76,1.76,0,0,1,.36-.62,2.6,2.6,0,0,0,.46-.82c.06-.22.12-.4.17-.53a2.8,2.8,0,0,0,.12-.46.91.91,0,0,1,.17-.41.74.74,0,0,0,.12-.44,2.46,2.46,0,0,0-.43-1.2.44.44,0,0,1-.06-.19.74.74,0,0,0-.3-.36.82.82,0,0,0-.39-.21l-.12.07-.2.09a.28.28,0,0,0-.16.29v.06l0,.34C114.16,290.09,114,290.21,113.76,290.35Z" transform="translate(0 -210.81)"/><path class="a3273476-da09-4f99-b9ea-6780a228b892" d="M127.59,287.58l-.73.63a.17.17,0,0,0-.12-.06c-.1,0-.23.1-.38.28s-.25.28-.31.28l-.16,0a2.46,2.46,0,0,1-.55.34,2.25,2.25,0,0,0-.41.16,1,1,0,0,1-.43.14.52.52,0,0,0-.31.13,1,1,0,0,1-.61.12l-.24,0a1,1,0,0,1-.26.09.4.4,0,0,1-.27-.13.48.48,0,0,0-.3-.15.57.57,0,0,1-.33-.21,1,1,0,0,0-.31-.28.61.61,0,0,1-.24-.21l-.22-.19a2.59,2.59,0,0,1-.75-1.45V287l0-.29,0-.34a1,1,0,0,0,.15-.26v-.49l.37-1.23s0-.12-.12-.2a.63.63,0,0,1-.31.27.35.35,0,0,0-.21.22c0,.11-.09.17-.18.17l-.18-.06a1.35,1.35,0,0,0-.14.31.39.39,0,0,1-.37.29c-.19,0-.28-.07-.28-.22l0-.27-.09-.39a1.24,1.24,0,0,1,.24-.48,1,1,0,0,1,.46-.42.6.6,0,0,0,.35-.29,2.36,2.36,0,0,1,.64-.58.76.76,0,0,0,.48-.4,2,2,0,0,1,.56-.28,1,1,0,0,0,.52-.31,4.1,4.1,0,0,1,1-.65,3.42,3.42,0,0,1,1.27-.44,1,1,0,0,0,.34-.07l.4-.12a1.32,1.32,0,0,0,.39-.17.76.76,0,0,1,.32-.11l.45.15a3.47,3.47,0,0,1,.6.2,1.93,1.93,0,0,0,.32.13,4.26,4.26,0,0,1,.58.27.65.65,0,0,1,.3.63,3.58,3.58,0,0,0-.26.42s.12.1.36.18a4.72,4.72,0,0,0,.37.6l.17.54,0,1.26,0,.13c-.12.1-.17.16-.17.2l0,.3-.12.43a.41.41,0,0,1-.15.27.25.25,0,0,0-.14.15l-.1.12s-.06.12-.13.27a1.05,1.05,0,0,1-.22.35.54.54,0,0,0-.15.29.37.37,0,0,1-.16.25.44.44,0,0,0-.17.16A.54.54,0,0,1,127.59,287.58Zm-4.78.4.06.36,0,0h.25l.07,0a2.73,2.73,0,0,0,.46.06,1.14,1.14,0,0,0,.76-.24.81.81,0,0,1,.46-.24c.11,0,.2-.07.28-.23s.12-.23.15-.23h.21l.06,0a.55.55,0,0,1,.32-.51.91.91,0,0,0,.44-.4,1.25,1.25,0,0,1,.3-.39.67.67,0,0,0,.23-.34l.12-.19a.33.33,0,0,0,.07-.23l.29-.55a2.89,2.89,0,0,0,.09-.6.56.56,0,0,0-.33-.51.77.77,0,0,1-.33-.73.86.86,0,0,1,.36-.65q.36-.3.36-.36a.08.08,0,0,0-.09-.09,1.91,1.91,0,0,0-.35.12,2.59,2.59,0,0,1-1.09.57l-.36-.15q-.09,0-.18.18a.7.7,0,0,1-.19.26h-.2s-.08.07-.2.2a.51.51,0,0,1-.43.2l-.18.19a.63.63,0,0,1-.31.5l-.17.2a4.7,4.7,0,0,1-.4.44l-.27.69a1.79,1.79,0,0,0-.17.6.57.57,0,0,1-.21.19.29.29,0,0,0-.16.25.47.47,0,0,0,.11.16c.07.08.11.14.11.18l-.07.2-.06.57Z" transform="translate(0 -210.81)"/><path class="a3273476-da09-4f99-b9ea-6780a228b892" d="M133.87,281.72l.23-.06.09-.2a4.17,4.17,0,0,0,1.08-.85.29.29,0,0,1,.14-.12,1,1,0,0,0,.23-.21,1.83,1.83,0,0,1,1.35-.57c.62,0,.94.37,1,1.12l.1.23a6.53,6.53,0,0,1,.34.88,4.11,4.11,0,0,1,.23.81,1.49,1.49,0,0,1-.27.83,6.69,6.69,0,0,0-1,1.16l-.15.11a3.54,3.54,0,0,1-.32.55c-.21.07-.31.15-.31.23v.28a.26.26,0,0,1-.07.12,1.94,1.94,0,0,0-.19.35l-.13.19a.63.63,0,0,0-.12.25,1.06,1.06,0,0,1-.18.35.49.49,0,0,0-.11.24c0,.16.2.23.6.23l.23-.09.21.06s.08,0,.16-.1a1.05,1.05,0,0,1,.38-.16,1.45,1.45,0,0,0,.44-.18,2.19,2.19,0,0,1,.46-.22,1.63,1.63,0,0,0,.52-.3,1.58,1.58,0,0,1,.48-.3,1.35,1.35,0,0,0,.45-.28,2.91,2.91,0,0,1,.47-.36A7.22,7.22,0,0,0,141,285a1.66,1.66,0,0,1,.51-.32,2,2,0,0,0,.27-.41c.16-.27.34-.41.54-.41s.33.1.33.31a.43.43,0,0,1-.16.32v.09l0,.25a.26.26,0,0,1,0,.14.3.3,0,0,1-.11.18.65.65,0,0,0-.16.32.35.35,0,0,1-.3.25c-.06.23-.14.36-.23.39a1.16,1.16,0,0,0-.41.3,7,7,0,0,1-.74.62,5.44,5.44,0,0,0-.65.54c-.12.13-.2.2-.24.2l-.13-.06a.41.41,0,0,0-.12-.07c-.06,0-.1.08-.12.22l-.06.15a1,1,0,0,1-.23.13l-.1,0h-.06c-.12,0-.18,0-.18.13l.09.16v0c0,.14-.08.22-.25.22a3.16,3.16,0,0,0-1,.56l-.45.1-.37.2a.58.58,0,0,0-.23-.11l-.24.08-.45,0-.56-.31a1.34,1.34,0,0,1-.65-.62,6.64,6.64,0,0,0-.28-.62,1.26,1.26,0,0,1-.17-.44,3.25,3.25,0,0,1,.12-1.05,3.72,3.72,0,0,0,.16-.47.8.8,0,0,1,.17-.33,1.38,1.38,0,0,0,.24-.58,6.77,6.77,0,0,1,.62-1.09,1.53,1.53,0,0,0,.26-.49l.2-.28A.83.83,0,0,0,136,283c0-.14.09-.22.16-.24a.76.76,0,0,0,.12-.28c0-.29-.14-.44-.4-.44-.05,0-.11.05-.17.16a1,1,0,0,1-.42.32,1.73,1.73,0,0,0-.41.23,1.36,1.36,0,0,1-.33.19,1.08,1.08,0,0,0-.44.36l-.26.12c-.09.2-.16.31-.22.33l-.57.15a.8.8,0,0,0-.15.19.41.41,0,0,1-.36.16c-.12.13-.24.27-.37.44a1.33,1.33,0,0,0-.32.12l-.31.08a1.3,1.3,0,0,0-.27.29.63.63,0,0,1-.54.2c-.16,0-.23-.13-.23-.37a1.48,1.48,0,0,1,.53-1.2,1.9,1.9,0,0,1,.77-.48c.17,0,.27-.08.31-.18a.5.5,0,0,1,.3-.26,1.63,1.63,0,0,0,.56-.44,1.64,1.64,0,0,1,.68-.47Z" transform="translate(0 -210.81)"/><path class="a3273476-da09-4f99-b9ea-6780a228b892" d="M148.57,282.2l.43-.2a1.71,1.71,0,0,0,.41-.4l.54-.39a1.69,1.69,0,0,1,.6-.3l.25.09s.08-.06.19-.19a.48.48,0,0,1,.38-.2,1.37,1.37,0,0,1,.75.42c.32.28.48.52.48.74l-.06.52a5.32,5.32,0,0,0,.12.69v.13l-.06.37.06.38-.17.75c0,.2.07.3.2.3a1.28,1.28,0,0,1,.45-.3l.21-.21c.09-.08.15-.12.19-.12s.09,0,.16-.15a.56.56,0,0,1,.25-.21.35.35,0,0,0,.22-.21,3.75,3.75,0,0,1,1.32-1.08s.11-.05.21-.15a.66.66,0,0,1,.24-.19l.34-.26.14.06h0a1.05,1.05,0,0,0,.24-.15.67.67,0,0,1,.31-.16,1.25,1.25,0,0,1,1,.4c.25.26.38.46.38.6l-.08.36.11.47v.31l-.08.33a.55.55,0,0,0,.14.26.62.62,0,0,1,.13.23c-.13.13-.19.22-.19.26l0,.28-.07.84a.72.72,0,0,0,.2.36.81.81,0,0,1,.26-.11,1.42,1.42,0,0,0,.26-.1l.09-.06h0l.19.06h.06c.08,0,.13-.08.14-.24a.48.48,0,0,1,.3-.39l.37,0a1,1,0,0,0,.13-.25,2.34,2.34,0,0,1,.65-.66,1.54,1.54,0,0,1,.83-.44c.17,0,.25.07.25.21a2.35,2.35,0,0,1-.06.33.76.76,0,0,1,.12.36c0,.2-.17.41-.5.64a2.18,2.18,0,0,0-.76.84l-.06.06-.31,0s-.07.08-.14.24-.17.25-.27.27a.41.41,0,0,0-.22.09l-.32.2a7.78,7.78,0,0,0-.61.63c-.34.37-.63.56-.87.56a2.12,2.12,0,0,1-.55-.16,1.28,1.28,0,0,1-.54-.34,2.85,2.85,0,0,0-.39-.38,1,1,0,0,1-.25-.82s0-.05.08-.1a.21.21,0,0,0,.09-.13,1.34,1.34,0,0,1-.36-.66.75.75,0,0,1,0-.2.75.75,0,0,0,0-.2l0-.54.07-.27,0-.17.1-.79c0-.12-.08-.18-.22-.18s-.1,0-.17.12a.66.66,0,0,1-.27.19.93.93,0,0,0-.34.44,1,1,0,0,0-.38.3c-.07.1-.12.15-.16.15l-.13,0a.33.33,0,0,0-.18.27v.07l0,.12c0,.09-.08.18-.23.26a1.8,1.8,0,0,0-.57.63.57.57,0,0,0-.22,0l-.18.37a.94.94,0,0,0-.3.32l-.18.1a1.72,1.72,0,0,1-.22.33l-.09.17c-.44.53-.75.79-.92.79s-.39-.23-.63-.69a2.53,2.53,0,0,1-.37-1.08l.06-.57a1.1,1.1,0,0,0-.13-.25v-.06s.05-.14.13-.35v-.46a.23.23,0,0,0,0-.09v-.08a1.35,1.35,0,0,1,.12-.25l-.09-.44.06-.25,0-.54.06-.48a.44.44,0,0,0-.08-.16c-.06-.07-.1-.11-.12-.11a2.45,2.45,0,0,0-.64.35,4.78,4.78,0,0,0-.71.55c-.13.14-.29.3-.49.48s-.37.37-.45.79t-.06,0s0,0-.09-.06H148c-.06,0-.21.22-.48.66l-.06.06-.29-.06c-.25,0-.37.26-.37.78,0,.09-.07.16-.2.19a.47.47,0,0,0-.3.26,2.08,2.08,0,0,1-.29.44,1.34,1.34,0,0,0-.4.23,4,4,0,0,1-.34.47,4.94,4.94,0,0,0-.37.52.49.49,0,0,1-.21.18c-.12.06-.18.12-.18.17l.05.27q0,.24-.48.24c-.61,0-.92-.64-.92-1.92a.87.87,0,0,1,.19-.49,4.67,4.67,0,0,0,.38-.65,7.66,7.66,0,0,0,.69-.85,7.23,7.23,0,0,1,.6-.75l.2-.32a.43.43,0,0,1,.08-.28.35.35,0,0,0,.07-.23c0-.17,0-.25-.12-.25a.67.67,0,0,0-.46.15,1,1,0,0,1-.38.21.38.38,0,0,0-.27.21,1.27,1.27,0,0,0-.45.39l-.32.38a.7.7,0,0,0-.14.21.26.26,0,0,1-.18.15.35.35,0,0,0-.2.1.4.4,0,0,1-.29.1c-.09,0-.18-.1-.25-.29a1.36,1.36,0,0,1-.12-.35c0-.74.5-1.39,1.49-1.93a1.93,1.93,0,0,0,.32-.22,1.18,1.18,0,0,1,.24-.17l.06-.11a2.69,2.69,0,0,1,.92-.52h.22l1-.26c.44-.1.66.39.66,1.49l0,.28.06.12a7,7,0,0,1,.54-.44,1.74,1.74,0,0,0,.39-.34A1.13,1.13,0,0,1,148.57,282.2Z" transform="translate(0 -210.81)"/><path class="a3273476-da09-4f99-b9ea-6780a228b892" d="M173.8,285.21l.25-.21a.25.25,0,0,0,.27-.21.49.49,0,0,1,.33-.33,1.24,1.24,0,0,0,.53-.5c.17-.25.33-.38.51-.38s.13.05.21.16a.47.47,0,0,1,.13.24,2.18,2.18,0,0,1-.31,1l-.06.43-.11.2a.72.72,0,0,0-.3.26,1.19,1.19,0,0,1-.36.34l-.16.22a.72.72,0,0,0-.45.35.44.44,0,0,1-.32.28.86.86,0,0,0-.46.3,1.43,1.43,0,0,1-.37.14l0,.16a1.07,1.07,0,0,1-.48.24,2.15,2.15,0,0,0-.49.18.55.55,0,0,1-.23.08,1.24,1.24,0,0,1-.54-.11,1.52,1.52,0,0,0-.5-.15.33.33,0,0,1-.11-.2.7.7,0,0,0-.15-.28.73.73,0,0,1-.14-.49l.06-.29a.28.28,0,0,0-.08-.15.27.27,0,0,1-.07-.16.12.12,0,0,1,0-.09.12.12,0,0,0,0-.09.55.55,0,0,0,0-.17.49.49,0,0,1,0-.15l.09-.76q0-.09-.06-.09a.51.51,0,0,0-.23.15.49.49,0,0,1-.37.16.64.64,0,0,0-.2.38,1.67,1.67,0,0,1-.31.28l-.06.09c0,.07-.1.13-.23.18a.46.46,0,0,0-.28.18l-.16.15-.29,0s-.07.11-.17.27a1.2,1.2,0,0,1-.35.39l-1.17.95a3.76,3.76,0,0,1-.54.31l-.09.09a4,4,0,0,1-1.74.82,2.65,2.65,0,0,1-1-.23c-.37-.15-.57-.34-.6-.55l-.15-.64a1,1,0,0,1-.14-.6.62.62,0,0,1,0-.24V287l0-.5c0-.13.1-.19.29-.19l0-.41a2.36,2.36,0,0,1,.27-.49,2.24,2.24,0,0,1,.36-.48l.15-.2a.51.51,0,0,1,.22-.39A2.07,2.07,0,0,0,164,284a1.9,1.9,0,0,1,.52-.47L165,283a5,5,0,0,1,1.17-.86,1.5,1.5,0,0,0,.37-.31,1.76,1.76,0,0,1,.65-.4,5.05,5.05,0,0,0,.71-.33,1.12,1.12,0,0,1,.55-.2h.12a6.72,6.72,0,0,0,.82-.39h.09a.93.93,0,0,1,.29.12h0l.25-.12a.33.33,0,0,1,.15,0q1,0,1.05,1.32c0,.19.07.28.15.28s.25-.19.44-.56A1.22,1.22,0,0,1,173,281q.66,0,.66.84a2.66,2.66,0,0,1-.89,1.9,1.07,1.07,0,0,0-.09.27l-.22.63v0a.45.45,0,0,1-.13.25.46.46,0,0,0-.13.28l0,.39-.06.43a.51.51,0,0,0,.11.38,1.23,1.23,0,0,0,.71-.4c.15-.19.25-.3.32-.32l.15-.06A1.76,1.76,0,0,1,173.8,285.21Zm-5.11,0a.72.72,0,0,1,.38-.51.78.78,0,0,0,.38-.36,10.32,10.32,0,0,0,.84-.77c.36-.37.54-.6.54-.68s0-.05-.06-.05h0l-.12.08-.28,0-.29,0-.22-.11-.2,0-.31-.06a.93.93,0,0,0-.42.1,3.18,3.18,0,0,1-.68.23,2.48,2.48,0,0,0-.9.42,1.2,1.2,0,0,1-.58.3,2.45,2.45,0,0,1-.73.66.71.71,0,0,0-.47.54c-.27.22-.4.34-.4.37l-.11.26a1.15,1.15,0,0,1-.31.18.34.34,0,0,0-.21.32.84.84,0,0,1-.21.46.6.6,0,0,0-.18.33c0,.51.1.76.29.76a1.8,1.8,0,0,0,.52-.17,1.75,1.75,0,0,0,.45-.22.72.72,0,0,1,.25-.12l.29-.16a.27.27,0,0,1,.14-.07.26.26,0,0,0,.15-.1,1.21,1.21,0,0,1,.28-.19.68.68,0,0,0,.31-.27l.85-.47.32-.25a1.14,1.14,0,0,0,.41-.26A1.08,1.08,0,0,1,168.69,285.21Z" transform="translate(0 -210.81)"/><path class="a3273476-da09-4f99-b9ea-6780a228b892" d="M178.06,281.84l.22-.38a1.49,1.49,0,0,1,.24-.28,2.13,2.13,0,0,0,.31-.76,2.21,2.21,0,0,1,.38-.84.79.79,0,0,1,.61-.23,1.3,1.3,0,0,1,.6.23c.26.14.5.59.74,1.34a5.9,5.9,0,0,1,.37,1.59,1.32,1.32,0,0,0,.1.46,2.56,2.56,0,0,1,.14.44,2,2,0,0,0-.12.3l0,.63-.18.51v.36a1.19,1.19,0,0,0-.19.39.32.32,0,0,0,.06.18,2.52,2.52,0,0,0,.88-.5.67.67,0,0,1,.3-.23,1.77,1.77,0,0,0,.48-.4l.29-.16c.11-.12.19-.23.27-.33a.56.56,0,0,1,.25-.21,1.5,1.5,0,0,0,.34-.21,4.25,4.25,0,0,1,.59-.36l.15-.18a1.87,1.87,0,0,1,.55-.42l.34-.15c.07,0,.15.1.23.28a1.65,1.65,0,0,1,.11.57.7.7,0,0,1-.3.51,4.46,4.46,0,0,0-.41.38,1,1,0,0,1-.49.21s-.19.22-.51.63l-.3.19-.16.2s-.16.08-.41.12c0,0,0,0-.07.16s-.15.17-.33.21a4.15,4.15,0,0,0-.57.57l-.32.06a1,1,0,0,1-.16.36c-.24.06-.38.16-.41.3a.35.35,0,0,1-.16.06l-.06.05a1.49,1.49,0,0,1-.69.34l-.35.09-.13.19c0,.05-.12.12-.37.2a1.29,1.29,0,0,0-.56.31l-.26.2a1.52,1.52,0,0,0-.6.33h-.22a1.53,1.53,0,0,0-.68.32,1.41,1.41,0,0,1-.73.31,2.32,2.32,0,0,1-1.22-.22,1.92,1.92,0,0,1-.55-.55,3.85,3.85,0,0,0-.39-.53.57.57,0,0,1-.18-.33q0-.11.15-.21a1.34,1.34,0,0,0,.31-.44c.11-.22.4-.36.86-.42l.23-.1a.74.74,0,0,1,.31-.09c.1,0,.23.09.38.28,0,0,0,0,.07,0l.24,0a.54.54,0,0,0,.23.12,1.21,1.21,0,0,0,.79-.37l.06,0h.12s.08-.09.15-.26l.27-.54.53-.69v-.15a1.37,1.37,0,0,1,.1-.28v-.23q0-.14.18-.18c.12,0,.19-.09.19-.19l0-.12a.54.54,0,0,1-.12-.27l.16-.3,0-.33.07-.12c0-.14-.07-.23-.07-.25l.07-.38s0-.11-.09-.29-.1-.28-.13-.28-.26.16-.58.48a3,3,0,0,0-.59.67.77.77,0,0,1-.39.36.94.94,0,0,0-.41.37.41.41,0,0,1-.26.23l-1,.83-1.12.83c-.08.09-.13.14-.15.14q-.57,0-.57-.63a2.07,2.07,0,0,1,.23-.73l.16-.09.05,0s0,0,0,0l.09.06h0a4.87,4.87,0,0,1,.74-.44.65.65,0,0,0,.31-.34l.65-.47a8.81,8.81,0,0,0,.75-.67A4.12,4.12,0,0,0,178.06,281.84Z" transform="translate(0 -210.81)"/><path class="a3273476-da09-4f99-b9ea-6780a228b892" d="M184,283.86l.25-.22h.09c.07,0,.18-.07.32-.23l.16-.06a1.29,1.29,0,0,1,.54-.54l.24-.18a.5.5,0,0,1,.18-.11,1.37,1.37,0,0,0,.37-.3c.17-.17.3-.25.41-.25a.78.78,0,0,1,.24,0,1.06,1.06,0,0,1,.37-.36,1.43,1.43,0,0,0,.45-.43l.2-.09a1.52,1.52,0,0,0,.44-.31.69.69,0,0,1,.5-.2,1.41,1.41,0,0,1,.93.46,1.23,1.23,0,0,1,.49.87l-.26,1.2c-.18.88-.37,1.34-.59,1.38l-.06.33c-.14.1-.22.18-.22.24l.1.37c0,.05-.06.13-.17.23s0,0,0,.09v.63c0,.12-.08.21-.22.28l.09.06a.64.64,0,0,1,.42-.09l.24,0,.34-.34a1.78,1.78,0,0,0,.3-.14,4.74,4.74,0,0,1,.65-.3l2-1.54q.4-.42.63-.42c.15,0,.23.1.23.3a1.19,1.19,0,0,1-.13.56,2.73,2.73,0,0,0-.24.54,1,1,0,0,1-.25.43,1.2,1.2,0,0,0-.24.27,2,2,0,0,1-.5.43,4.18,4.18,0,0,0-.7.56,3.27,3.27,0,0,1-.46.4l-.67.48-.09.16a1.53,1.53,0,0,1-.28.13,1.86,1.86,0,0,0-.46.25l-.27.16a.73.73,0,0,1-.3.07.57.57,0,0,0-.37.18c-.1.11-.18.16-.24.16l-.23,0-.31.09a1.09,1.09,0,0,1-.64-.31.9.9,0,0,1-.38-.67V288l0-.21a1.83,1.83,0,0,0-.1-.32,2.14,2.14,0,0,1-.09-.28l0-.22,0-.09a1.32,1.32,0,0,1,.06-.52.89.89,0,0,0,.09-.3l.07-.32.07-.38a.49.49,0,0,1,.16-.25c0-.08.06-.22.12-.41l.06-.28.16-.22a.5.5,0,0,0,.14-.33,1.24,1.24,0,0,1,.16-.44.8.8,0,0,0,.14-.27c0-.13-.06-.19-.18-.19a1.63,1.63,0,0,0-.39.25l-.27-.09s-.08.05-.17.15-.05.07-.14.09a.43.43,0,0,0-.26.23l-.13,0-.2-.09h-.06c-.1,0-.16.12-.18.34a.79.79,0,0,1-.45.32l-.34.1a.41.41,0,0,0-.24.27,1,1,0,0,1-.31.4.87.87,0,0,1-.31.17c-.29,0-.43-.16-.43-.47L184,284Zm6.65-7.69-.09-.6v-.09c0-.49.16-.75.49-.81a4.28,4.28,0,0,0,.64-.2,1.14,1.14,0,0,1,.58.49,1.34,1.34,0,0,1,.3.75.4.4,0,0,1,0,.13,1.12,1.12,0,0,0-.07.41.68.68,0,0,1-.3.52,1,1,0,0,1-.6.23.92.92,0,0,1-.55-.3A1,1,0,0,1,190.63,276.17Z" transform="translate(0 -210.81)"/><path class="a3273476-da09-4f99-b9ea-6780a228b892" d="M207.25,276.29l.1,0h.41c.13,0,.3-.14.54-.43a8,8,0,0,1,.82-.29l.06-.06.31-.25h.3a1.24,1.24,0,0,0,.25-.15,3.28,3.28,0,0,1,.91-.33,3.85,3.85,0,0,0,.92-.31,5.82,5.82,0,0,1,.68-.09l.43-.08.34,0c.54,0,.93.36,1.16,1.08a.53.53,0,0,0,.08.2.45.45,0,0,1,.08.19,2.08,2.08,0,0,1-.63,1.35l-.22.57a.8.8,0,0,1-.16.23,2.16,2.16,0,0,0-.28.47,3.77,3.77,0,0,1-.67.81c-.06.12-.15.31-.26.58a1.79,1.79,0,0,1-.28.51,7.91,7.91,0,0,0-.6.92,3.77,3.77,0,0,0-.49.94.93.93,0,0,0-.31.57,2.2,2.2,0,0,1-.32.76l0,.1c.33-.11.49-.29.49-.54,0,0,.09-.1.26-.23l.13-.21a.71.71,0,0,1,.32-.25,1,1,0,0,1,.32-.36l.39-.33a1.13,1.13,0,0,1,.34-.19c.15-.07.32-.32.52-.76,0-.09.1-.15.24-.2a.86.86,0,0,0,.34-.26A1.07,1.07,0,0,1,214,280l.13-.18a1.19,1.19,0,0,1,.23-.19l.75-.92q.6-.39.66-.6l.12,0H216a3.53,3.53,0,0,0,.33-.28.58.58,0,0,1,.34-.6,1.18,1.18,0,0,0,.5-.36.45.45,0,0,1,.34-.21.35.35,0,0,1,.17.1h0s.06-.06.09-.16v-.15a.57.57,0,0,1,.16-.43.73.73,0,0,1,.41-.23.82.82,0,0,0,.51-.39.75.75,0,0,1,.56-.35.43.43,0,0,0,.42-.25,1.47,1.47,0,0,1,.66-.5,3.47,3.47,0,0,1,.69-.29.73.73,0,0,0,.26-.09.5.5,0,0,1,.24-.06,1.37,1.37,0,0,1,.44.1l.28.06a1.58,1.58,0,0,1,.66.57l.16.15v.06l0,.26v.13c.13.06.2.12.2.18l-.11.2a.53.53,0,0,0-.06.26c0,.09,0,.19,0,.29a1.93,1.93,0,0,1,0,.27,1,1,0,0,1-.06.25,1.43,1.43,0,0,1-.08.22L223,277l-.12.49a2.26,2.26,0,0,1-.33.7,2.56,2.56,0,0,0-.32.57,1.76,1.76,0,0,1-.22.44l0,.09v.22c.31,0,.47-.17.47-.37a.51.51,0,0,1,.39-.48l.34-.28a1.93,1.93,0,0,1,1-.92.75.75,0,0,1,.29-.51l.59-.55.42-.23a1.2,1.2,0,0,1,.63-.69l.34-.22c.21-.1.32-.2.35-.3a.53.53,0,0,1,.24-.3,7.44,7.44,0,0,0,.58-.51l.13-.06.15-.15a1.38,1.38,0,0,1,.39-.16l.12-.06a2.61,2.61,0,0,1,.69-.39,3.54,3.54,0,0,0,.69-.33l.54-.08a1,1,0,0,1,.25-.06c1,0,1.46.55,1.46,1.65l0,.24,0,.89a6.44,6.44,0,0,0-.38.67l0,.27a1.37,1.37,0,0,1-.2.36,4.22,4.22,0,0,0-.24.37,3.37,3.37,0,0,1-.29.32l-.15.46a.87.87,0,0,1-.26.29v.19q0,.22-.6.69a1.08,1.08,0,0,1-.27.59,1.31,1.31,0,0,0-.29.4,1.44,1.44,0,0,1-.32.4,1.76,1.76,0,0,1-.26.67,2.75,2.75,0,0,1-.41.61,1.45,1.45,0,0,0-.3.45l-.14.07q-.09.58-.21.66l-.25,0v.06s0,.05.06.11a.25.25,0,0,1,.06.16.23.23,0,0,1-.09.19.29.29,0,0,0-.11.15.37.37,0,0,1-.07.16.72.72,0,0,0-.07.3,1.51,1.51,0,0,1-.23.61,1.86,1.86,0,0,0-.23.52.71.71,0,0,1-.05.23.57.57,0,0,0,0,.18,3.24,3.24,0,0,1-.07.48c.19.46.33.78.41.94a.87.87,0,0,1,.13.32,1.46,1.46,0,0,1-.16.83c-.1.13-.35.2-.75.2a1,1,0,0,1-.68-.27.78.78,0,0,0-.5-.27v-.27l0,0h-.24l-.13-.11a.72.72,0,0,1-.2-.22l-.09-.09a1.39,1.39,0,0,1-.21-.51l-.1-.3,0-.25,0-.38a.81.81,0,0,1,0-.25l0-.42a1.75,1.75,0,0,1,.07-.27,2.13,2.13,0,0,0,.07-.49.79.79,0,0,1,.14-.44.61.61,0,0,0,.14-.26.37.37,0,0,1,.08-.18.63.63,0,0,0,.12-.34.65.65,0,0,1,.32-.45,4.19,4.19,0,0,0,.26-.52c.22-.3.33-.45.34-.45H226a1,1,0,0,1-.16-.21q0-.42.33-.42l.15,0,.06-.12-.06-.26c0-.18.14-.35.4-.52a1,1,0,0,1,.42-.8l0-.25a2,2,0,0,0,.26-.41,3.77,3.77,0,0,1,.43-.64l.48-.72.21-.25s0,0,0,0l0-.06a1,1,0,0,0,.05-.16l.1-.23.1-.13c.27-.07.4-.16.4-.27a.7.7,0,0,0-.12-.2v-.06a.47.47,0,0,1,.19-.31,2.23,2.23,0,0,0,.34-.52,1.32,1.32,0,0,0,.16-.41.05.05,0,0,0-.06-.06.65.65,0,0,0-.66.36c0,.06-.2.18-.6.37l-.15.23a.55.55,0,0,1-.33.17.7.7,0,0,0-.36.17l-1,.8a9.88,9.88,0,0,0-1.1,1l-.36.24c-.14.08-.21.13-.21.17s-.09.24-.27.4l-.18.23-.25-.07a.35.35,0,0,0-.29.16c.08.09.12.14.12.16s-.15.33-.46.51l-.66.69-.24.17a1,1,0,0,0-.3.34,4,4,0,0,1-.55.73,4.21,4.21,0,0,1-.52.55.82.82,0,0,0-.19.21,3.16,3.16,0,0,1-.44.48,1.07,1.07,0,0,0-.39.67c-.2.08-.29.14-.29.19l-.1.15-.12.06a.64.64,0,0,0,0,.21c0,.1-.21.27-.61.52a2.11,2.11,0,0,1-.76.38.28.28,0,0,0-.13.06l-.13.06a2.3,2.3,0,0,1-.4-.18,1.26,1.26,0,0,1-.54-.86l.13-.4-.06-.33a.38.38,0,0,1,.14-.24.53.53,0,0,0,.15-.39c.16-.37.29-.63.37-.78l0-.25a1.5,1.5,0,0,1,.21-.34,1,1,0,0,0,.17-.43.33.33,0,0,1,.2-.3,9.44,9.44,0,0,0,1.25-1.87v-.21l.45-.77c.13-.23.29-.48.49-.77l.14-.35a4.61,4.61,0,0,0-.51-.19.39.39,0,0,0-.23.12c0,.18-.3.36-.91.54a1.82,1.82,0,0,0-.48.45l-.43.25a2.66,2.66,0,0,0-.29.24l-.21.2a1.2,1.2,0,0,0-.66.43l-.42.29a2,2,0,0,0-.25.24,2.71,2.71,0,0,1-.57.33l-.24.25-.23.12a3.54,3.54,0,0,0-.37.45.51.51,0,0,1-.32.22l-.34.12a1.41,1.41,0,0,1-.57.77l-.45.55-.21.17a.4.4,0,0,1-.22.22l-.26.33-.18.14c-.28.11-.42.19-.42.25l0,.28c0,.11-.12.22-.37.32a.29.29,0,0,0-.17.25,1.32,1.32,0,0,1-.12.35h-.28a1.23,1.23,0,0,0-.29.15.09.09,0,0,0-.06,0l.06.36a.64.64,0,0,1-.25.42,4,4,0,0,0-.37.42c-.09.13-.15.19-.19.19h-.1l-.09.06a.84.84,0,0,1-.38.63l-.19.23a6.36,6.36,0,0,0-.52.77,8.55,8.55,0,0,1-.82,1.13,2.38,2.38,0,0,1-.71.57l-.69.3-.63-.12a.72.72,0,0,0-.27-.28c-.12-.07-.18-.15-.18-.23l-.18-.54a1.23,1.23,0,0,1,.17-.53,2.43,2.43,0,0,0,.21-.49,2.16,2.16,0,0,1,.17-.48,1.61,1.61,0,0,0,.14-.33c0-.28,0-.45.13-.51l.59-.46s0,0,0-.06v0l0-.26q.36-.6.45-.6l.12,0-.09-.34s.06-.11.17-.2a1,1,0,0,0,.26-.31l-.06-.18v-.06a.81.81,0,0,1,.39-.6q.06-.14.24-.63l.4-.71a1,1,0,0,1,.33-.39.39.39,0,0,0,.19-.24.8.8,0,0,1,.1-.31c0,.05,0,.05,0,0s0-.15.07-.3a.58.58,0,0,1,.35-.37c.24-.61.43-.91.56-.91a.38.38,0,0,1,.17.06h.06c.17,0,.25-.06.25-.18s0-.07-.06-.07-.18.16-.25.16-.11,0-.11-.06,0,0,.05-.06l.34-.7,0-.29a2.85,2.85,0,0,1,.24-.28l.27-.35v-.15a1.7,1.7,0,0,1,.13-.32,2.22,2.22,0,0,0,.2-.56l.27-.39a1.05,1.05,0,0,0,.06-.33c0-.16,0-.23-.06-.23l-.9.16a11.72,11.72,0,0,0-1,.59l-.36.08-.41.2a1.58,1.58,0,0,1-.66.23.86.86,0,0,0-.5.23l-.06,0h-.3a2.42,2.42,0,0,0-.23.3c0,.07-.08.1-.11.1-1,.69-1.69,1.1-2,1.24a4.7,4.7,0,0,0-.63.4,1.6,1.6,0,0,1-.37.25v.19a.88.88,0,0,1-.37.59,1.08,1.08,0,0,1-.66.33.67.67,0,0,1-.28-.1,1.2,1.2,0,0,0-.43-.13c-.16,0-.24-.22-.24-.59,0-.52.43-1,1.29-1.43a2.22,2.22,0,0,0,.37-.21,11.36,11.36,0,0,1,1.37-.6l.45-.22a1.32,1.32,0,0,1,.51-.28c.24-.09.43-.16.57-.23l.33-.12ZM221.7,280l.15-.27v0s0,0-.06,0-.19.1-.25.3,0,.1.06.1S221.67,280.05,221.7,280Z" transform="translate(0 -210.81)"/><path class="a3273476-da09-4f99-b9ea-6780a228b892" d="M242.09,285.21l.24-.21a.25.25,0,0,0,.28-.21.49.49,0,0,1,.33-.33,1.24,1.24,0,0,0,.53-.5c.16-.25.33-.38.51-.38s.13.05.21.16a.44.44,0,0,1,.12.24,2.07,2.07,0,0,1-.31,1l-.06.43-.1.2a.61.61,0,0,0-.3.26,1.13,1.13,0,0,1-.37.34l-.15.22a.69.69,0,0,0-.45.35.45.45,0,0,1-.33.28.88.88,0,0,0-.45.3,1.43,1.43,0,0,1-.37.14l0,.16a1.07,1.07,0,0,1-.48.24,2.48,2.48,0,0,0-.5.18.49.49,0,0,1-.22.08,1.24,1.24,0,0,1-.54-.11,1.5,1.5,0,0,0-.51-.15.32.32,0,0,1-.1-.2.63.63,0,0,0-.16-.28.79.79,0,0,1-.14-.49l.07-.29a.28.28,0,0,0-.08-.15.3.3,0,0,1-.08-.16.12.12,0,0,1,0-.09.12.12,0,0,0,0-.09.55.55,0,0,0,0-.17.49.49,0,0,1,0-.15l.09-.76q0-.09-.06-.09s-.11.05-.22.15a.51.51,0,0,1-.38.16.77.77,0,0,0-.2.38,1.35,1.35,0,0,1-.3.28l-.07.09c0,.07-.09.13-.23.18a.46.46,0,0,0-.27.18l-.16.15-.29,0a1.92,1.92,0,0,0-.17.27,1.2,1.2,0,0,1-.35.39l-1.17.95a5.36,5.36,0,0,1-.54.31l-.09.09a4,4,0,0,1-1.74.82,2.65,2.65,0,0,1-1-.23c-.37-.15-.57-.34-.6-.55l-.16-.64a1.11,1.11,0,0,1-.13-.6.62.62,0,0,1,0-.24V287l0-.5c0-.13.09-.19.29-.19l0-.41a2.36,2.36,0,0,1,.27-.49,1.93,1.93,0,0,1,.36-.48l.15-.2a.48.48,0,0,1,.22-.39,2.42,2.42,0,0,0,.37-.43,1.76,1.76,0,0,1,.52-.47l.46-.47a5,5,0,0,1,1.17-.86,1.47,1.47,0,0,0,.38-.31,1.76,1.76,0,0,1,.65-.4,5.05,5.05,0,0,0,.71-.33,1.12,1.12,0,0,1,.54-.2h.13a6.27,6.27,0,0,0,.81-.39h.1a1,1,0,0,1,.29.12h0l.25-.12a.33.33,0,0,1,.15,0q1,0,1,1.32c0,.19.07.28.15.28s.25-.19.44-.56a1.21,1.21,0,0,1,1.21-.56q.66,0,.66.84a2.7,2.7,0,0,1-.89,1.9,1.07,1.07,0,0,0-.09.27l-.22.63v0a.45.45,0,0,1-.13.25.46.46,0,0,0-.13.28l0,.39-.06.43c0,.19,0,.32.11.38a1.26,1.26,0,0,0,.71-.4c.15-.19.25-.3.31-.32l.16-.06A1.76,1.76,0,0,1,242.09,285.21Zm-5.11,0a.72.72,0,0,1,.38-.51.75.75,0,0,0,.37-.36,7.77,7.77,0,0,0,.84-.77c.37-.37.55-.6.55-.68s0-.05-.06-.05h0l-.13.08-.27,0-.3,0-.21-.11-.2,0-.31-.06a.9.9,0,0,0-.42.1,3.4,3.4,0,0,1-.68.23,2.48,2.48,0,0,0-.9.42,1.22,1.22,0,0,1-.59.3,2.36,2.36,0,0,1-.72.66.74.74,0,0,0-.48.54c-.26.22-.39.34-.39.37l-.11.26a1.33,1.33,0,0,1-.31.18.35.35,0,0,0-.22.32.91.91,0,0,1-.2.46.6.6,0,0,0-.18.33c0,.51.1.76.29.76a1.9,1.9,0,0,0,.52-.17,1.75,1.75,0,0,0,.45-.22.63.63,0,0,1,.25-.12l.29-.16a.27.27,0,0,1,.14-.07.26.26,0,0,0,.15-.1,1,1,0,0,1,.28-.19.68.68,0,0,0,.31-.27l.84-.47.33-.25a1.14,1.14,0,0,0,.41-.26A1,1,0,0,1,237,285.21Z" transform="translate(0 -210.81)"/><path class="a3273476-da09-4f99-b9ea-6780a228b892" d="M243.17,298.51l-.25.17a.62.62,0,0,1-.32.09,1,1,0,0,1-.75-.51,1.79,1.79,0,0,1-.36-1,3.48,3.48,0,0,1,.19-1.38,3.1,3.1,0,0,0,.23-.61l.33-.76a5.58,5.58,0,0,1,.62-1.13c.19-.26.36-.5.49-.72l.06-.13a2,2,0,0,1,.45-.51c0-.06.2-.27.59-.63a11.67,11.67,0,0,1,1.12-.93l.15-.22a2,2,0,0,1,.43-.23l.89-.25c.09-.08.29-.24.6-.47h.13l.41-.13a5.38,5.38,0,0,1,1-.28c.48-.09.75-.19.82-.31l.16-.33c0-.1.16-.32.34-.65,0-.17.07-.31.1-.41a.4.4,0,0,1,.1-.19.76.76,0,0,0,.18-.3,2.33,2.33,0,0,1,.25-.45,0,0,0,0,0,0,0l-.1-.26a1,1,0,0,1,.26-.46c.09-.05.13-.09.13-.11l-.11-.28.26-.57a.05.05,0,0,0-.06-.06,3.69,3.69,0,0,1-1,.57c0,.07-.17.19-.34.37a.56.56,0,0,0-.35.32l-.13,0-.09.16s0,0-.11.07-.21.12-.43.25l-.18,0s-.09.1-.15.31a1.11,1.11,0,0,1-.5.37.57.57,0,0,0-.3.16l-.13.16-.15,0c-.21,0-.32.08-.32.24a.5.5,0,0,1-.19.33.71.71,0,0,0-.3.09h-.24a.68.68,0,0,1-.55.41l-.44.31-.26.1a2,2,0,0,0-.37.22,1.3,1.3,0,0,1-.63.16,3.38,3.38,0,0,0-.66-.24q-.45-.12-.63-1.5h0a.54.54,0,0,0-.27.09.45.45,0,0,1-.2.09c-.25,0-.37-.1-.37-.3a.87.87,0,0,1,.52-.91l.39-.48,1-1c.69-.68,1.15-1.12,1.39-1.32s.49-.39.77-.57l.79-.52a2.69,2.69,0,0,1,.49-.29.44.44,0,0,0,.19-.1,2.66,2.66,0,0,1,.57-.23l.27-.12a4.59,4.59,0,0,1,1.11-.29l.22,0a.47.47,0,0,0,.32-.13,1.37,1.37,0,0,0,.67-.33l.55-.16a1.29,1.29,0,0,1,.39-.07h.29c.22,0,.36.16.42.5s.13.51.18.51.08-.08.18-.23l.22-.15a.76.76,0,0,1,.29-.16.42.42,0,0,1,.46.31v0l.06.08a6,6,0,0,1,.14.91,1.87,1.87,0,0,1-.31,1.15,3.07,3.07,0,0,0-.38.58,9.84,9.84,0,0,1-.61,1.88c-.06.11-.18.41-.37.89l-.16.16a.1.1,0,0,0-.06.09l0,.21a1.43,1.43,0,0,0-.26.67,1.57,1.57,0,0,1-.25.57l.27.16a2.08,2.08,0,0,1,.54.49,1,1,0,0,1,.3.55,4.63,4.63,0,0,1-.17.6,1.72,1.72,0,0,1-.94.41.93.93,0,0,1-.44-.2l-.1,0v-.06a1.21,1.21,0,0,1-.31-.11.41.41,0,0,0-.23-.07.11.11,0,0,0-.12.12.27.27,0,0,0,0,.12l-.25.23a2.57,2.57,0,0,1-.21.46,1.78,1.78,0,0,1-.39.54c-.22,0-.38.18-.46.51a1.22,1.22,0,0,1-.29.63l-.16-.06a4.85,4.85,0,0,1-1,1.51c-.22,0-.33.09-.33.11a1.23,1.23,0,0,0,0,.2,1.26,1.26,0,0,1-.37.51,1.58,1.58,0,0,1-.41.35l-.15,0-.1.09c0,.21-.26.53-.81,1q-.45.24-.48.33c-.08.2-.38.43-.91.7l-.29.26a1.19,1.19,0,0,1-.4.26Zm5.55-7.91-.46.06a.52.52,0,0,0-.26-.12s-.07,0-.1.09a1.57,1.57,0,0,1-.81.42,2.38,2.38,0,0,0-.85.34.78.78,0,0,1-.38.19c-.11,0-.16,0-.16.07a1.69,1.69,0,0,0-.23.21,1.25,1.25,0,0,0-.3.19.63.63,0,0,1-.33.16c-.18.41-.32.61-.4.61l-.15,0h0a1.55,1.55,0,0,1-.31.47.75.75,0,0,0-.19.17.9.9,0,0,1-.3.26.77.77,0,0,0-.3.47.86.86,0,0,1-.19.44,1,1,0,0,0-.14.52l-.1.21a3.88,3.88,0,0,0-.13.53c0,.3-.08.45-.08.46a.51.51,0,0,0,.18.38.49.49,0,0,1,.26-.11l.91-.36.34-.29a1.68,1.68,0,0,1,.52-.33,1,1,0,0,0,.41-.28,1.07,1.07,0,0,1,.3-.3.51.51,0,0,0,.2-.31l.65-.58a2.08,2.08,0,0,0,.38-.44.68.68,0,0,1,.26-.3l.07-.2a.24.24,0,0,1,.13,0c.06,0,.17-.19.33-.5l.41-.7a2.67,2.67,0,0,0,.6-.93l.22-.19s.06-.07.06-.14Zm-.28-4.91.19-.26a.58.58,0,0,1,.32-.18.72.72,0,0,0,.36-.27,2.35,2.35,0,0,1,.87-.77l.16-.1c.15-.3.29-.46.41-.49a.51.51,0,0,0,.33-.28.78.78,0,0,0,.13-.39s0-.06-.09-.06a.59.59,0,0,0-.37.12.49.49,0,0,1-.23.13l-.31,0c-.18.1-.44.22-.76.37l-.28.23a1,1,0,0,1-.33.15.36.36,0,0,0-.23.19c-.05.11-.11.16-.2.16l-.12.07a.61.61,0,0,1-.35.06,1.46,1.46,0,0,0-.32.26c-.11.11-.17.17-.19.17a2,2,0,0,1-.61.48.5.5,0,0,0-.33.26.87.87,0,0,0-.49.34,1.41,1.41,0,0,1-.36.37,1,1,0,0,0-.29.26l-.15.12a1.1,1.1,0,0,0-.25.41,1.44,1.44,0,0,0-.17.48c0,.06,0,.09.11.09a1.57,1.57,0,0,0,.58-.22A2.25,2.25,0,0,0,246,287c.09-.08.14-.12.17-.12l.59,0a.45.45,0,0,1,.31-.26.58.58,0,0,0,.35-.26,1.49,1.49,0,0,1,.69-.43l.17-.28Z" transform="translate(0 -210.81)"/><path class="a3273476-da09-4f99-b9ea-6780a228b892" d="M267.05,285.21l.24-.21a.26.26,0,0,0,.28-.21.49.49,0,0,1,.33-.33,1.3,1.3,0,0,0,.53-.5c.16-.25.33-.38.5-.38s.14.05.22.16a.44.44,0,0,1,.12.24,2.07,2.07,0,0,1-.31,1l-.06.43-.11.2a.72.72,0,0,0-.3.26,1,1,0,0,1-.36.34l-.15.22a.67.67,0,0,0-.45.35.45.45,0,0,1-.33.28.81.81,0,0,0-.45.3,1.59,1.59,0,0,1-.37.14l0,.16a1.12,1.12,0,0,1-.49.24,2.35,2.35,0,0,0-.49.18.53.53,0,0,1-.22.08,1.19,1.19,0,0,1-.54-.11,1.5,1.5,0,0,0-.51-.15.32.32,0,0,1-.1-.2.94.94,0,0,0-.16-.28.79.79,0,0,1-.14-.49l.06-.29a.25.25,0,0,0-.07-.15.3.3,0,0,1-.08-.16.12.12,0,0,1,0-.09.12.12,0,0,0,0-.09.55.55,0,0,0,0-.17.49.49,0,0,1,0-.15l.09-.76q0-.09-.06-.09s-.11.05-.22.15a.52.52,0,0,1-.38.16.7.7,0,0,0-.2.38,1.21,1.21,0,0,1-.31.28l-.06.09c0,.07-.1.13-.23.18a.53.53,0,0,0-.28.18l-.15.15-.29,0a1.92,1.92,0,0,0-.17.27,1.12,1.12,0,0,1-.36.39l-1.17.95a4.17,4.17,0,0,1-.53.31l-.1.09a4,4,0,0,1-1.73.82,2.69,2.69,0,0,1-1-.23c-.36-.15-.56-.34-.6-.55l-.15-.64a1.11,1.11,0,0,1-.14-.6.62.62,0,0,1,0-.24V287l0-.5c0-.13.1-.19.29-.19l0-.41a2.36,2.36,0,0,1,.27-.49,2.24,2.24,0,0,1,.36-.48l.16-.2a.48.48,0,0,1,.22-.39,2,2,0,0,0,.36-.43,2,2,0,0,1,.53-.47l.46-.47a5,5,0,0,1,1.17-.86,1.47,1.47,0,0,0,.38-.31,1.69,1.69,0,0,1,.65-.4,4.94,4.94,0,0,0,.7-.33,1.15,1.15,0,0,1,.55-.2h.12a5.42,5.42,0,0,0,.82-.39h.09a1.05,1.05,0,0,1,.3.12h0l.24-.12a.38.38,0,0,1,.16,0c.63,0,1,.44,1,1.32,0,.19.08.28.16.28s.25-.19.44-.56a1.21,1.21,0,0,1,1.21-.56q.66,0,.66.84a2.7,2.7,0,0,1-.89,1.9,1.08,1.08,0,0,0-.1.27l-.21.63v0a.54.54,0,0,1-.13.25.46.46,0,0,0-.13.28l0,.39-.06.43a.51.51,0,0,0,.1.38,1.26,1.26,0,0,0,.72-.4,1,1,0,0,1,.31-.32l.15-.06A1.79,1.79,0,0,1,267.05,285.21Zm-5.11,0a.71.71,0,0,1,.37-.51.78.78,0,0,0,.38-.36,7.77,7.77,0,0,0,.84-.77c.36-.37.55-.6.55-.68s0-.05-.07-.05h0l-.12.08-.28,0-.29,0-.21-.11-.2,0-.31-.06a.94.94,0,0,0-.43.1,3,3,0,0,1-.67.23,2.4,2.4,0,0,0-.9.42,1.22,1.22,0,0,1-.59.3,2.36,2.36,0,0,1-.72.66.7.7,0,0,0-.48.54,2.16,2.16,0,0,0-.4.37l-.11.26a1.09,1.09,0,0,1-.3.18.33.33,0,0,0-.22.32.84.84,0,0,1-.21.46.64.64,0,0,0-.17.33c0,.51.09.76.29.76a1.87,1.87,0,0,0,.51-.17,1.71,1.71,0,0,0,.46-.22.65.65,0,0,1,.24-.12l.3-.16a.23.23,0,0,1,.14-.07.26.26,0,0,0,.15-.1.88.88,0,0,1,.28-.19.66.66,0,0,0,.3-.27l.85-.47.32-.25a1.11,1.11,0,0,0,.42-.26A.85.85,0,0,1,261.94,285.21Z" transform="translate(0 -210.81)"/><path class="a3273476-da09-4f99-b9ea-6780a228b892" d="M282.39,286.17h.06l.16.06.06,0a.56.56,0,0,1,.24-.45.73.73,0,0,1,.35-.44l.86-.51.38-.34.19-.09.12-.16a.46.46,0,0,1,.32-.2c.16,0,.24.06.24.17l-.14.31.06.51a.75.75,0,0,1-.19.49q-.19.22-.6.63l-.78.83-.42.22a1.86,1.86,0,0,0-.28.21l-.6.51a.37.37,0,0,1-.13.32H282l-.12.07a1.36,1.36,0,0,1-.64.57l-.21.15a.35.35,0,0,1-.2.09l-.43-.06-.3.06a.74.74,0,0,1-.33-.12,2,2,0,0,0-.42-.19c-.15,0-.33-.24-.55-.57a2.64,2.64,0,0,1-.36-.66.55.55,0,0,0-.07-.21.51.51,0,0,1-.07-.17,2,2,0,0,1,.14-.31v0a.78.78,0,0,0-.09-.22,1,1,0,0,1-.08-.41,1,1,0,0,0-.09-.35c.08-.09.12-.15.12-.19a.62.62,0,0,0,0-.18.45.45,0,0,1,0-.17l.09-.76-.06-.38,0-.37c0-.22-.09-.32-.28-.32a.49.49,0,0,0-.3.16l-.11,0a2.91,2.91,0,0,0-.58.33.63.63,0,0,1-.36.13.8.8,0,0,1-.35.17l-.12.09a1.49,1.49,0,0,1-.25.18,3.2,3.2,0,0,1-.57.52c-.38.31-.73.61-1,.88a1.88,1.88,0,0,1-.66.46q-.21,0-.21.39s-.09.12-.28.25a2.32,2.32,0,0,0-.32.33,1.3,1.3,0,0,0-.27-.18q-.21,0-.3.51c-.06.13-.22.21-.49.24a.64.64,0,0,0-.11.23l-.06.07h-.15s-.1.06-.22.17a.92.92,0,0,1-.32.23c-.14.27-.25.41-.34.41a.42.42,0,0,1-.18-.06,1.36,1.36,0,0,0-.29-.11c-.11,0-.23-.15-.37-.37a1.11,1.11,0,0,1-.21-.57c0-1.13.22-1.76.66-1.86l0-.06v-.12a.3.3,0,0,1,.18-.29.94.94,0,0,0,.36-.34,1.27,1.27,0,0,1,.25-.28h.2s.06-.11.06-.32a.23.23,0,0,1,.07-.17.33.33,0,0,0,.1-.23,1.36,1.36,0,0,1,.22-.47,1.33,1.33,0,0,0,.21-.4l0-.06a1.46,1.46,0,0,1-.56.39c-.11,0-.26.17-.46.44l-.24,0a5.65,5.65,0,0,1-.81.54.94.94,0,0,0-.34.35.12.12,0,0,1-.1.12,1.61,1.61,0,0,0-.4.25h-.1c-.25,0-.38-.18-.38-.55l.32-.88a1.28,1.28,0,0,1,.65-.7,6.32,6.32,0,0,0,.87-.55,1.31,1.31,0,0,1,.71-.27l.11-.16a1.16,1.16,0,0,0,.7-.63c.13-.29.3-.43.51-.43a1.51,1.51,0,0,1,1.29.62,2,2,0,0,1,.45,1l0,.42a2.89,2.89,0,0,1-.09.6.85.85,0,0,0-.19.42c0,.08,0,.12.16.12a.41.41,0,0,0,.24-.13,1.8,1.8,0,0,1,.35-.24c.13-.07.2-.13.22-.18a.86.86,0,0,1,.54-.51,1.51,1.51,0,0,0,.47-.23L276,283l.12-.23a1.65,1.65,0,0,0,.56-.34.71.71,0,0,1,.36-.2,1.33,1.33,0,0,0,.53-.27l.23-.06.21-.13a.57.57,0,0,1,.19-.07l.45-.17a1.66,1.66,0,0,1,.41-.11,1.46,1.46,0,0,1,1.24.63,2,2,0,0,1,.45,1l0,.28.06.42v.06l-.12.85,0,.29a1.34,1.34,0,0,1-.31,1,.14.14,0,0,0-.08.15v.14l.31.65c.09.22.16.33.22.33l.49-.13a.59.59,0,0,0,.35-.33,2,2,0,0,0,.44-.37A.31.31,0,0,1,282.39,286.17Z" transform="translate(0 -210.81)"/><path class="a3273476-da09-4f99-b9ea-6780a228b892" d="M284.48,298.51l-.25.17a.62.62,0,0,1-.32.09,1,1,0,0,1-.74-.51,1.81,1.81,0,0,1-.37-1,3.44,3.44,0,0,1,.2-1.38,2.42,2.42,0,0,0,.22-.61l.33-.76a6.12,6.12,0,0,1,.62-1.13c.2-.26.36-.5.5-.72l.06-.13a1.79,1.79,0,0,1,.44-.51q0-.09.6-.63a10.52,10.52,0,0,1,1.11-.93l.16-.22a1.62,1.62,0,0,1,.43-.23l.89-.25a6,6,0,0,1,.6-.47h.12l.42-.13a5,5,0,0,1,1.05-.28c.47-.09.74-.19.81-.31s.12-.23.16-.33.16-.32.34-.65c0-.17.08-.31.11-.41s.06-.17.1-.19a1,1,0,0,0,.17-.3,4.3,4.3,0,0,1,.25-.45,0,0,0,0,0,0,0l-.09-.26a1,1,0,0,1,.25-.46c.09-.05.13-.09.13-.11l-.1-.28.26-.57a.05.05,0,0,0-.06-.06,3.84,3.84,0,0,1-1,.57,3.71,3.71,0,0,1-.34.37.56.56,0,0,0-.35.32l-.12,0-.09.16s0,0-.11.07a4.79,4.79,0,0,0-.43.25l-.19,0s-.09.1-.15.31a1.06,1.06,0,0,1-.5.37.57.57,0,0,0-.3.16l-.12.16-.16,0c-.21,0-.32.08-.32.24a.52.52,0,0,1-.18.33.74.74,0,0,0-.31.09h-.23a.7.7,0,0,1-.55.41l-.45.31-.26.1a2.4,2.4,0,0,0-.37.22,1.24,1.24,0,0,1-.63.16,2.94,2.94,0,0,0-.66-.24q-.45-.12-.63-1.5h0a.54.54,0,0,0-.27.09.52.52,0,0,1-.21.09c-.24,0-.37-.1-.37-.3a.88.88,0,0,1,.53-.91l.38-.48,1-1c.69-.68,1.16-1.12,1.39-1.32s.5-.39.77-.57l.79-.52a3.1,3.1,0,0,1,.49-.29.47.47,0,0,0,.2-.1,2.28,2.28,0,0,1,.56-.23l.28-.12a4.38,4.38,0,0,1,1.11-.29l.21,0a.5.5,0,0,0,.33-.13,1.39,1.39,0,0,0,.66-.33l.56-.16a1.23,1.23,0,0,1,.38-.07h.29c.22,0,.36.16.43.5s.12.51.17.51.09-.08.19-.23l.21-.15a.84.84,0,0,1,.3-.16.42.42,0,0,1,.46.31v0l.06.08a7.83,7.83,0,0,1,.14.91,1.87,1.87,0,0,1-.32,1.15,2.85,2.85,0,0,0-.37.58,9.73,9.73,0,0,1-.62,1.88c-.05.11-.17.41-.37.89l-.15.16a.1.1,0,0,0-.06.09l0,.21a1.36,1.36,0,0,0-.27.67,1.68,1.68,0,0,1-.24.57l.27.16a2.08,2.08,0,0,1,.54.49,1,1,0,0,1,.3.55s-.06.23-.17.6a1.75,1.75,0,0,1-.94.41,1,1,0,0,1-.45-.2l-.09,0v-.06a1.3,1.3,0,0,1-.32-.11.4.4,0,0,0-.22-.07.11.11,0,0,0-.12.12.18.18,0,0,0,0,.12,2.3,2.3,0,0,0-.25.23,2.27,2.27,0,0,1-.22.46,1.79,1.79,0,0,1-.38.54c-.23,0-.38.18-.46.51a1.21,1.21,0,0,1-.3.63l-.15-.06a5,5,0,0,1-1.05,1.51,1,1,0,0,0-.33.11,1.35,1.35,0,0,1,0,.2c0,.11-.14.28-.37.51a1.58,1.58,0,0,1-.41.35l-.15,0-.09.09c0,.21-.26.53-.82,1-.29.16-.45.27-.47.33a2,2,0,0,1-.91.7l-.29.26a1.43,1.43,0,0,1-.4.26ZM290,290.6l-.46.06a.52.52,0,0,0-.26-.12s-.07,0-.09.09a1.66,1.66,0,0,1-.82.42,2.47,2.47,0,0,0-.85.34.78.78,0,0,1-.38.19c-.1,0-.15,0-.15.07a1.69,1.69,0,0,0-.23.21,1.13,1.13,0,0,0-.31.19.57.57,0,0,1-.32.16c-.19.41-.32.61-.4.61l-.16,0h0a1.24,1.24,0,0,1-.31.47.58.58,0,0,0-.18.17.9.9,0,0,1-.3.26.7.7,0,0,0-.3.47,1,1,0,0,1-.19.44.86.86,0,0,0-.15.52l-.09.21a2.75,2.75,0,0,0-.13.53l-.09.46a.49.49,0,0,0,.19.38.49.49,0,0,1,.26-.11l.91-.36.34-.29a1.55,1.55,0,0,1,.51-.33.92.92,0,0,0,.41-.28,1.07,1.07,0,0,1,.3-.3.49.49,0,0,0,.21-.31l.64-.58a1.82,1.82,0,0,0,.38-.44.77.77,0,0,1,.27-.3l.06-.2a.24.24,0,0,1,.13,0c.07,0,.18-.19.33-.5l.42-.7a3,3,0,0,0,.6-.93l.21-.19a.15.15,0,0,0,.07-.14Zm-.27-4.91.18-.26a.61.61,0,0,1,.32-.18.65.65,0,0,0,.36-.27,2.37,2.37,0,0,1,.88-.77l.15-.1c.16-.3.29-.46.42-.49a.5.5,0,0,0,.32-.28.81.81,0,0,0,.14-.39s0-.06-.09-.06a.62.62,0,0,0-.38.12c-.11.09-.18.13-.22.13l-.31,0-.77.37-.28.23a1,1,0,0,1-.33.15.32.32,0,0,0-.22.19c-.05.11-.12.16-.2.16l-.12.07a.65.65,0,0,1-.36.06,1.43,1.43,0,0,0-.31.26.76.76,0,0,1-.2.17,2,2,0,0,1-.6.48.55.55,0,0,0-.34.26.9.9,0,0,0-.49.34,1.27,1.27,0,0,1-.36.37,1,1,0,0,0-.28.26l-.16.12a1.26,1.26,0,0,0-.25.41,1.35,1.35,0,0,0-.16.48c0,.06,0,.09.11.09a1.55,1.55,0,0,0,.57-.22,2.37,2.37,0,0,0,.55-.35c.08-.08.14-.12.17-.12l.58,0a.47.47,0,0,1,.32-.26.56.56,0,0,0,.34-.26,1.61,1.61,0,0,1,.7-.43l.17-.28Z" transform="translate(0 -210.81)"/><path class="a3273476-da09-4f99-b9ea-6780a228b892" d="M310.39,276.29l.1,0h.41c.12,0,.3-.14.54-.43a7,7,0,0,1,.82-.29l.06-.06.31-.25h.3a1.05,1.05,0,0,0,.24-.15,3.39,3.39,0,0,1,.92-.33,4,4,0,0,0,.92-.31,5.48,5.48,0,0,1,.67-.09l.43-.08.34,0q.82,0,1.17,1.08a.53.53,0,0,0,.08.2.45.45,0,0,1,.08.19,2.05,2.05,0,0,1-.64,1.35l-.21.57a.8.8,0,0,1-.16.23,2.68,2.68,0,0,0-.29.47,3.36,3.36,0,0,1-.66.81c-.06.12-.15.31-.26.58a2.09,2.09,0,0,1-.28.51,7.91,7.91,0,0,0-.6.92,3.77,3.77,0,0,0-.49.94.93.93,0,0,0-.31.57,2.41,2.41,0,0,1-.32.76l0,.1c.33-.11.49-.29.49-.54,0,0,.09-.1.26-.23l.13-.21a.71.71,0,0,1,.32-.25,1,1,0,0,1,.32-.36l.39-.33a1.2,1.2,0,0,1,.33-.19c.16-.07.33-.32.53-.76,0-.09.1-.15.23-.2a.83.83,0,0,0,.35-.26,1.07,1.07,0,0,1,.23-.24l.12-.18a2.55,2.55,0,0,1,.23-.19l.76-.92q.6-.39.66-.6l.12,0h.09a3.53,3.53,0,0,0,.33-.28.58.58,0,0,1,.34-.6,1.18,1.18,0,0,0,.5-.36.43.43,0,0,1,.34-.21.35.35,0,0,1,.17.1h0s.06-.06.09-.16v-.15a.57.57,0,0,1,.16-.43.73.73,0,0,1,.41-.23.88.88,0,0,0,.51-.39.75.75,0,0,1,.56-.35.43.43,0,0,0,.42-.25,1.41,1.41,0,0,1,.66-.5,3.47,3.47,0,0,1,.69-.29.73.73,0,0,0,.26-.09.48.48,0,0,1,.24-.06,1.37,1.37,0,0,1,.44.1l.28.06a1.65,1.65,0,0,1,.66.57l.15.15v.06l0,.26v.13c.13.06.2.12.2.18l-.11.2a.53.53,0,0,0-.06.26c0,.09,0,.19,0,.29a1.93,1.93,0,0,1,0,.27,1,1,0,0,1-.06.25c0,.08,0,.15-.08.22l-.11.19-.13.49a2.05,2.05,0,0,1-.33.7,2.4,2.4,0,0,0-.31.57,1.76,1.76,0,0,1-.22.44l0,.09v.22c.32,0,.48-.17.48-.37a.51.51,0,0,1,.39-.48l.34-.28a1.93,1.93,0,0,1,1-.92.72.72,0,0,1,.29-.51l.59-.55.41-.23a1.25,1.25,0,0,1,.64-.69l.34-.22c.2-.1.32-.2.35-.3a.53.53,0,0,1,.24-.3c.13-.1.32-.27.58-.51l.12-.06.16-.15a1.45,1.45,0,0,1,.38-.16l.13-.06a2.47,2.47,0,0,1,.69-.39,4.19,4.19,0,0,0,.69-.33l.54-.08a.93.93,0,0,1,.25-.06c1,0,1.46.55,1.46,1.65l0,.24,0,.89c-.26.43-.39.65-.39.67l0,.27a1.1,1.1,0,0,1-.2.36l-.23.37-.29.32-.15.46a.87.87,0,0,1-.26.29v.19q0,.22-.6.69a1.25,1.25,0,0,1-.27.59,1.55,1.55,0,0,0-.3.4,1.24,1.24,0,0,1-.31.4,1.76,1.76,0,0,1-.26.67,2.75,2.75,0,0,1-.41.61,1.45,1.45,0,0,0-.3.45l-.14.07c-.06.39-.13.61-.22.66l-.24,0v.06s0,.05.06.11a.25.25,0,0,1,.06.16.23.23,0,0,1-.09.19.29.29,0,0,0-.11.15.37.37,0,0,1-.07.16.72.72,0,0,0-.07.3,1.51,1.51,0,0,1-.23.61,1.86,1.86,0,0,0-.23.52,1.14,1.14,0,0,1-.05.23.57.57,0,0,0,0,.18,2.57,2.57,0,0,1-.08.48c.2.46.34.78.42.94a1,1,0,0,1,.12.32,1.57,1.57,0,0,1-.15.83c-.1.13-.35.2-.76.2a1,1,0,0,1-.67-.27.8.8,0,0,0-.5-.27v-.27l0,0H328l-.13-.11a.86.86,0,0,1-.19-.22l-.09-.09a1.37,1.37,0,0,1-.22-.51l-.09-.3,0-.25,0-.38a.81.81,0,0,1,0-.25l0-.42a1.35,1.35,0,0,1,.06-.27,1.67,1.67,0,0,0,.08-.49.79.79,0,0,1,.14-.44.61.61,0,0,0,.14-.26.37.37,0,0,1,.08-.18.63.63,0,0,0,.12-.34.65.65,0,0,1,.32-.45c.1-.18.19-.36.26-.52.22-.3.33-.45.34-.45h.22a.72.72,0,0,1-.16-.21q0-.42.33-.42l.15,0,.06-.12-.06-.26c0-.18.13-.35.4-.52a1,1,0,0,1,.42-.8l0-.25a2.5,2.5,0,0,0,.26-.41,3.77,3.77,0,0,1,.43-.64l.47-.72.22-.25s0,0,0,0l0-.06.05-.16.09-.23.11-.13c.27-.07.4-.16.4-.27a.7.7,0,0,0-.12-.2v-.06a.48.48,0,0,1,.18-.31,2,2,0,0,0,.35-.52,1.32,1.32,0,0,0,.16-.41.05.05,0,0,0-.06-.06.65.65,0,0,0-.66.36c0,.06-.2.18-.6.37l-.16.23a.53.53,0,0,1-.32.17.7.7,0,0,0-.36.17l-1,.8a11.2,11.2,0,0,0-1.11,1l-.35.24c-.14.08-.22.13-.22.17s-.08.24-.26.4l-.18.23-.25-.07a.35.35,0,0,0-.29.16c.08.09.12.14.12.16s-.15.33-.46.51l-.67.69-.23.17a1,1,0,0,0-.3.34,4.56,4.56,0,0,1-.55.73,4.21,4.21,0,0,1-.52.55.67.67,0,0,0-.19.21,2.87,2.87,0,0,1-.45.48,1.1,1.1,0,0,0-.38.67c-.2.08-.3.14-.3.19l-.09.15-.12.06a.64.64,0,0,0,0,.21c0,.1-.21.27-.61.52a2.11,2.11,0,0,1-.76.38.35.35,0,0,0-.14.06l-.12.06a2.58,2.58,0,0,1-.41-.18,1.26,1.26,0,0,1-.53-.86l.13-.4-.07-.33a.41.41,0,0,1,.15-.24.53.53,0,0,0,.15-.39A7.69,7.69,0,0,1,321,282l0-.25a1.85,1.85,0,0,1,.2-.34.86.86,0,0,0,.18-.43.33.33,0,0,1,.2-.3,10,10,0,0,0,1.25-1.87v-.21l.44-.77c.14-.23.3-.48.5-.77l.13-.35a4.14,4.14,0,0,0-.5-.19.39.39,0,0,0-.23.12c0,.18-.31.36-.91.54a1.82,1.82,0,0,0-.48.45l-.43.25a2.66,2.66,0,0,0-.29.24l-.22.2a1.27,1.27,0,0,0-.66.43l-.41.29a1.46,1.46,0,0,0-.25.24,2.71,2.71,0,0,1-.57.33l-.24.25-.23.12a3.54,3.54,0,0,0-.37.45.51.51,0,0,1-.33.22l-.33.12a1.46,1.46,0,0,1-.57.77l-.45.55-.21.17a.43.43,0,0,1-.22.22l-.26.33-.19.14c-.27.11-.41.19-.41.25l0,.28c0,.11-.12.22-.37.32a.32.32,0,0,0-.18.25,1,1,0,0,1-.11.35h-.28a1.06,1.06,0,0,0-.29.15.09.09,0,0,0-.06,0l.06.36a.64.64,0,0,1-.25.42,3.08,3.08,0,0,0-.37.42c-.09.13-.15.19-.19.19h-.1l-.09.06a.84.84,0,0,1-.38.63l-.19.23a6.36,6.36,0,0,0-.52.77,8.55,8.55,0,0,1-.82,1.13,2.38,2.38,0,0,1-.71.57l-.69.3-.63-.12a.72.72,0,0,0-.27-.28c-.12-.07-.18-.15-.18-.23l-.18-.54a1.11,1.11,0,0,1,.17-.53,1.85,1.85,0,0,0,.2-.49A3.06,3.06,0,0,1,309,287a2.81,2.81,0,0,0,.14-.33c0-.28,0-.45.13-.51l.59-.46s0,0,0-.06v0l0-.26q.36-.6.45-.6l.12,0-.09-.34s.06-.11.17-.2a1,1,0,0,0,.26-.31l-.06-.18v-.06a.82.82,0,0,1,.38-.6c0-.09.13-.3.25-.63l.4-.71a.89.89,0,0,1,.33-.39.34.34,0,0,0,.18-.24.83.83,0,0,1,.11-.31c0,.05,0,.05,0,0a1.88,1.88,0,0,0,.08-.3.55.55,0,0,1,.35-.37c.24-.61.42-.91.56-.91a.38.38,0,0,1,.17.06h.06c.16,0,.25-.06.25-.18s0-.07-.06-.07-.18.16-.25.16-.11,0-.11-.06,0,0,.05-.06l.34-.7,0-.29a2.85,2.85,0,0,1,.24-.28l.26-.35v-.15a2.36,2.36,0,0,1,.14-.32,2.22,2.22,0,0,0,.2-.56l.26-.39a.85.85,0,0,0,.07-.33c0-.16,0-.23-.07-.23l-.89.16a10.37,10.37,0,0,0-1,.59l-.36.08-.41.2a1.58,1.58,0,0,1-.66.23.92.92,0,0,0-.51.23l-.06,0h-.29a2.42,2.42,0,0,0-.23.3c0,.07-.08.1-.11.1-1,.69-1.69,1.1-2,1.24a4.13,4.13,0,0,0-.63.4,1.85,1.85,0,0,1-.37.25v.19a.86.86,0,0,1-.38.59,1.06,1.06,0,0,1-.65.33.67.67,0,0,1-.28-.1,1.26,1.26,0,0,0-.43-.13c-.16,0-.24-.22-.24-.59,0-.52.43-1,1.29-1.43a2.22,2.22,0,0,0,.37-.21,11.36,11.36,0,0,1,1.37-.6l.44-.22a1.46,1.46,0,0,1,.52-.28c.24-.09.43-.16.57-.23l.33-.12ZM324.83,280l.16-.27v0s0,0-.06,0-.19.1-.25.3,0,.1.06.1A.11.11,0,0,0,324.83,280Z" transform="translate(0 -210.81)"/><path class="a3273476-da09-4f99-b9ea-6780a228b892" d="M345.23,285.21l.24-.21a.25.25,0,0,0,.28-.21.49.49,0,0,1,.33-.33,1.3,1.3,0,0,0,.53-.5c.16-.25.33-.38.5-.38s.14.05.22.16a.44.44,0,0,1,.12.24,2.07,2.07,0,0,1-.31,1l-.06.43-.1.2a.61.61,0,0,0-.3.26,1.13,1.13,0,0,1-.37.34l-.15.22a.67.67,0,0,0-.45.35.45.45,0,0,1-.33.28.81.81,0,0,0-.45.3,1.59,1.59,0,0,1-.37.14l0,.16a1.12,1.12,0,0,1-.49.24,2.35,2.35,0,0,0-.49.18.53.53,0,0,1-.22.08,1.22,1.22,0,0,1-.54-.11,1.5,1.5,0,0,0-.51-.15.32.32,0,0,1-.1-.2.76.76,0,0,0-.16-.28.79.79,0,0,1-.14-.49l.07-.29a.28.28,0,0,0-.08-.15.3.3,0,0,1-.08-.16.12.12,0,0,1,0-.09.12.12,0,0,0,0-.09.55.55,0,0,0,0-.17.49.49,0,0,1,0-.15l.09-.76q0-.09-.06-.09s-.11.05-.22.15a.51.51,0,0,1-.38.16.7.7,0,0,0-.2.38,1.21,1.21,0,0,1-.31.28l-.06.09c0,.07-.1.13-.23.18a.53.53,0,0,0-.28.18l-.15.15-.29,0a1.92,1.92,0,0,0-.17.27,1.2,1.2,0,0,1-.35.39l-1.18.95a4.17,4.17,0,0,1-.53.31l-.1.09a4,4,0,0,1-1.73.82,2.6,2.6,0,0,1-1-.23c-.37-.15-.57-.34-.6-.55l-.16-.64a1.11,1.11,0,0,1-.14-.6.62.62,0,0,1,0-.24V287l0-.5c0-.13.1-.19.3-.19l0-.41a2.36,2.36,0,0,1,.27-.49,1.87,1.87,0,0,1,.37-.48l.15-.2a.48.48,0,0,1,.22-.39,2.42,2.42,0,0,0,.37-.43,1.76,1.76,0,0,1,.52-.47l.46-.47a5,5,0,0,1,1.17-.86,1.47,1.47,0,0,0,.38-.31,1.69,1.69,0,0,1,.65-.4,4.94,4.94,0,0,0,.7-.33,1.19,1.19,0,0,1,.55-.2H340a6.27,6.27,0,0,0,.81-.39h.09a1,1,0,0,1,.3.12h0l.24-.12a.38.38,0,0,1,.16,0q.94,0,1,1.32c0,.19.07.28.15.28s.25-.19.44-.56a1.21,1.21,0,0,1,1.21-.56q.66,0,.66.84a2.7,2.7,0,0,1-.89,1.9,1.69,1.69,0,0,0-.1.27l-.21.63v0a.54.54,0,0,1-.13.25.46.46,0,0,0-.13.28l0,.39-.06.43a.51.51,0,0,0,.1.38,1.26,1.26,0,0,0,.72-.4c.15-.19.25-.3.31-.32l.15-.06A1.79,1.79,0,0,1,345.23,285.21Zm-5.11,0a.71.71,0,0,1,.37-.51.74.74,0,0,0,.38-.36,7.77,7.77,0,0,0,.84-.77c.36-.37.55-.6.55-.68s0-.05-.06-.05h0l-.13.08-.27,0-.3,0-.21-.11-.2,0-.31-.06a.87.87,0,0,0-.42.1,3.4,3.4,0,0,1-.68.23,2.48,2.48,0,0,0-.9.42,1.22,1.22,0,0,1-.59.3,2.36,2.36,0,0,1-.72.66.7.7,0,0,0-.48.54,2.16,2.16,0,0,0-.4.37l-.1.26a1.33,1.33,0,0,1-.31.18.33.33,0,0,0-.22.32.84.84,0,0,1-.21.46.64.64,0,0,0-.17.33c0,.51.1.76.29.76a2,2,0,0,0,.52-.17,1.75,1.75,0,0,0,.45-.22.65.65,0,0,1,.24-.12l.3-.16a.27.27,0,0,1,.14-.07.26.26,0,0,0,.15-.1.88.88,0,0,1,.28-.19.74.74,0,0,0,.31-.27l.84-.47.32-.25a1.11,1.11,0,0,0,.42-.26A.85.85,0,0,1,340.12,285.21Z" transform="translate(0 -210.81)"/><path class="a3273476-da09-4f99-b9ea-6780a228b892" d="M347.47,283.58l.12-.17a.7.7,0,0,0,.51-.3,5.48,5.48,0,0,1,.78-.8,10.49,10.49,0,0,1,.8-.74,6.05,6.05,0,0,0,.6-1.34c.12-.06.18-.13.18-.22l.12-.24.14,0,.06-.06v-.14a3.92,3.92,0,0,1,.6-1.3c.4-.83.62-1.29.65-1.37a2.85,2.85,0,0,1,.18-.39c.09-.17.23-.49.43-1a5.83,5.83,0,0,1,.88-1.51.89.89,0,0,0,.18-.35,2.21,2.21,0,0,1,.39-.62l.18-.33.33-.53a4,4,0,0,1,.42-.61,1.58,1.58,0,0,0,.29-.47.82.82,0,0,1,.24-.35,1.25,1.25,0,0,0,.28-.4.48.48,0,0,1,.46-.28.91.91,0,0,1,.87.49,1.87,1.87,0,0,1,.27.86,6.42,6.42,0,0,1-.19.66l-.23,1.39c-.2.1-.31.22-.31.35a2.94,2.94,0,0,1-.63,1.7.92.92,0,0,0-.1.4.81.81,0,0,1-.27.55,1.82,1.82,0,0,0-.41.72l-1.43,2.05-.13.12a.89.89,0,0,0-.21.26l-.25-.07c-.27,0-.41.08-.41.26a.69.69,0,0,0,.06.24v0l-1.14,1.61a3.94,3.94,0,0,0-.22.6l-.21.46a2.79,2.79,0,0,0-.45.87,2.23,2.23,0,0,1-.35.69c-.21.46-.31.7-.31.72a.08.08,0,0,0,.09.09c.07,0,.21-.15.44-.46a2.66,2.66,0,0,1,.57-.61,1.27,1.27,0,0,0,.38-.44l.15-.1.27-.19.15,0a.38.38,0,0,0,.15-.21.35.35,0,0,1,.1-.19.57.57,0,0,0,.5-.29c.06-.16.14-.25.24-.25s.19-.09.32-.28a1.43,1.43,0,0,1,.56-.46,3.65,3.65,0,0,0,.54-.32,3.14,3.14,0,0,1,.72-.33,2.68,2.68,0,0,1,.72-.19h.09l.13,0,.23,0a2.21,2.21,0,0,1,1.08.3.86.86,0,0,1,.46.93L358,283l-.17.76a8.41,8.41,0,0,1-.25.81,4.71,4.71,0,0,0-.21.73l-.07.29.07.4,0,.32a.14.14,0,0,0,.15.16s.15-.1.34-.28c.11,0,.21,0,.32-.19a2.71,2.71,0,0,1,.41-.44s.07-.08.2-.12a1.46,1.46,0,0,0,.55-.36,2.83,2.83,0,0,1,.6-.59,5.22,5.22,0,0,1,1-.7l.09-.12a.7.7,0,0,1,.48-.27c.14,0,.21.08.21.23a.67.67,0,0,1-.08.33,1.51,1.51,0,0,0-.1.44,2.42,2.42,0,0,1-.31.77l-.06.16a.52.52,0,0,1-.26.31.66.66,0,0,0-.33.25,1.65,1.65,0,0,1-.73.39c-.17.31-.3.46-.39.46l-.27-.12a.7.7,0,0,0-.33.54,3.71,3.71,0,0,0-.47.44l-.31,0c-.08,0-.12.12-.12.34a1.24,1.24,0,0,1-.32.21,2.82,2.82,0,0,0-.48.32,1.29,1.29,0,0,1-.72.13.32.32,0,0,1-.19-.1.87.87,0,0,0-.36-.19.5.5,0,0,1-.33-.36,1.93,1.93,0,0,0-.2-.45.51.51,0,0,1-.11-.25l0-.31-.07-.32.13-.22a.94.94,0,0,1-.09-.29l.16-.94a10.27,10.27,0,0,1,.27-1.32s0-.08,0-.19l0-.38,0-.22q0-.23-.15-.24a.26.26,0,0,1-.19-.08l-.23-.09c-.08,0-.15.06-.21.19a1.24,1.24,0,0,1-.25.35l-.38-.06v0c0,.08-.14.24-.42.47a1.33,1.33,0,0,0-.66.4.94.94,0,0,0-.43.24,1.92,1.92,0,0,1-.39.27l-.12.25-.25.08a.66.66,0,0,1-.51.4l-.15.29a.51.51,0,0,0-.45.33q-.12.3-.18.3a.22.22,0,0,1-.1,0,.24.24,0,0,0-.13,0c-.23,0-.35.17-.37.51a4.62,4.62,0,0,1-.63.72,8.68,8.68,0,0,1-.68.68s-.09.11-.18.31a1,1,0,0,1-.36.45L348,289a.31.31,0,0,1-.17.09c-.22,0-.4-.15-.53-.46s-.2-.47-.2-.48l.09-.32,0-.28.2-.62a3.26,3.26,0,0,1,.43-.95,2.76,2.76,0,0,0,.39-1.13,3.14,3.14,0,0,1-.83.46c-.21,0-.31-.14-.31-.4A2,2,0,0,1,347.47,283.58Z" transform="translate(0 -210.81)"/><path class="a3273476-da09-4f99-b9ea-6780a228b892" d="M372.59,285.21l.24-.21a.26.26,0,0,0,.28-.21.49.49,0,0,1,.33-.33,1.3,1.3,0,0,0,.53-.5c.16-.25.33-.38.5-.38s.14.05.22.16a.44.44,0,0,1,.12.24,2.07,2.07,0,0,1-.31,1l-.06.43-.11.2a.72.72,0,0,0-.3.26,1,1,0,0,1-.36.34l-.15.22a.71.71,0,0,0-.46.35.42.42,0,0,1-.32.28.81.81,0,0,0-.45.3,1.59,1.59,0,0,1-.37.14l0,.16a1.12,1.12,0,0,1-.49.24,2.35,2.35,0,0,0-.49.18.53.53,0,0,1-.22.08,1.19,1.19,0,0,1-.54-.11,1.5,1.5,0,0,0-.51-.15.33.33,0,0,1-.11-.2.7.7,0,0,0-.15-.28.79.79,0,0,1-.14-.49l.06-.29a.25.25,0,0,0-.07-.15.3.3,0,0,1-.08-.16.12.12,0,0,1,0-.09.12.12,0,0,0,0-.09.55.55,0,0,0,0-.17.49.49,0,0,1,0-.15l.09-.76q0-.09-.06-.09s-.11.05-.22.15a.52.52,0,0,1-.38.16.7.7,0,0,0-.2.38,1.21,1.21,0,0,1-.31.28l-.06.09c0,.07-.1.13-.23.18a.49.49,0,0,0-.28.18l-.15.15-.29,0a1.92,1.92,0,0,0-.17.27,1.23,1.23,0,0,1-.36.39l-1.17.95a4.17,4.17,0,0,1-.53.31l-.1.09a4,4,0,0,1-1.74.82,2.69,2.69,0,0,1-1-.23c-.36-.15-.56-.34-.6-.55l-.15-.64a1.11,1.11,0,0,1-.14-.6.62.62,0,0,1,0-.24V287l0-.5c0-.13.1-.19.29-.19l0-.41a2.36,2.36,0,0,1,.27-.49A2.24,2.24,0,0,1,362,285l.16-.2a.5.5,0,0,1,.21-.39,1.81,1.81,0,0,0,.37-.43,2,2,0,0,1,.53-.47l.46-.47a5,5,0,0,1,1.17-.86,1.47,1.47,0,0,0,.38-.31,1.69,1.69,0,0,1,.65-.4,4.94,4.94,0,0,0,.7-.33,1.15,1.15,0,0,1,.55-.2h.12a6,6,0,0,0,.82-.39h.09a1.05,1.05,0,0,1,.3.12h0l.24-.12a.35.35,0,0,1,.16,0c.63,0,1,.44,1,1.32,0,.19.08.28.16.28s.25-.19.44-.56a1.21,1.21,0,0,1,1.21-.56q.66,0,.66.84a2.67,2.67,0,0,1-.9,1.9,1.07,1.07,0,0,0-.09.27l-.21.63v0a.54.54,0,0,1-.13.25.46.46,0,0,0-.13.28l0,.39L371,286a.51.51,0,0,0,.11.38,1.26,1.26,0,0,0,.72-.4,1,1,0,0,1,.31-.32l.15-.06A1.79,1.79,0,0,1,372.59,285.21Zm-5.11,0a.71.71,0,0,1,.37-.51.78.78,0,0,0,.38-.36,8.86,8.86,0,0,0,.84-.77c.36-.37.55-.6.55-.68s0-.05-.07-.05h0l-.12.08-.28,0-.29,0-.21-.11-.2,0-.31-.06a.94.94,0,0,0-.43.1,3,3,0,0,1-.67.23,2.33,2.33,0,0,0-.9.42,1.22,1.22,0,0,1-.59.3,2.36,2.36,0,0,1-.72.66.7.7,0,0,0-.48.54,2.16,2.16,0,0,0-.4.37l-.11.26a1.09,1.09,0,0,1-.3.18.33.33,0,0,0-.22.32.84.84,0,0,1-.21.46.64.64,0,0,0-.17.33c0,.51.09.76.29.76a1.87,1.87,0,0,0,.51-.17,1.71,1.71,0,0,0,.46-.22.65.65,0,0,1,.24-.12l.3-.16a.23.23,0,0,1,.14-.07.26.26,0,0,0,.15-.1.88.88,0,0,1,.28-.19.66.66,0,0,0,.3-.27l.85-.47.32-.25a1.11,1.11,0,0,0,.42-.26A.85.85,0,0,1,367.48,285.21Z" transform="translate(0 -210.81)"/><path class="a3273476-da09-4f99-b9ea-6780a228b892" d="M376.85,281.84l.21-.38a1.49,1.49,0,0,1,.24-.28,2.09,2.09,0,0,0,.32-.76,2.22,2.22,0,0,1,.37-.84.79.79,0,0,1,.61-.23,1.29,1.29,0,0,1,.61.23,2.46,2.46,0,0,1,.74,1.34,6.18,6.18,0,0,1,.36,1.59,1.37,1.37,0,0,0,.11.46,4,4,0,0,1,.14.44,3,3,0,0,0-.13.3l0,.63-.18.51v.36a1.31,1.31,0,0,0-.18.39.32.32,0,0,0,.06.18,2.44,2.44,0,0,0,.87-.5.8.8,0,0,1,.3-.23,1.93,1.93,0,0,0,.49-.4l.29-.16c.1-.12.19-.23.26-.33a.61.61,0,0,1,.25-.21,1.78,1.78,0,0,0,.35-.21,4,4,0,0,1,.58-.36l.16-.18a1.71,1.71,0,0,1,.54-.42l.35-.15c.07,0,.14.1.22.28a1.44,1.44,0,0,1,.11.57.72.72,0,0,1-.29.51,3.41,3.41,0,0,0-.41.38,1,1,0,0,1-.49.21s-.19.22-.51.63l-.31.19-.15.2s-.16.08-.42.12c0,0,0,0-.07.16s-.14.17-.33.21a4.15,4.15,0,0,0-.57.57l-.32.06a1.08,1.08,0,0,1-.15.36q-.37.09-.42.3a.36.36,0,0,1-.15.06l-.06.05a1.58,1.58,0,0,1-.69.34l-.36.09-.12.19c0,.05-.13.12-.38.2a1.29,1.29,0,0,0-.56.31l-.26.2a1.52,1.52,0,0,0-.6.33h-.21a1.49,1.49,0,0,0-.68.32,1.44,1.44,0,0,1-.74.31,2.35,2.35,0,0,1-1.22-.22,2.06,2.06,0,0,1-.55-.55,3.85,3.85,0,0,0-.39-.53.54.54,0,0,1-.17-.33.26.26,0,0,1,.14-.21,1.34,1.34,0,0,0,.32-.44c.11-.22.4-.36.86-.42l.22-.1a.79.79,0,0,1,.31-.09c.11,0,.23.09.39.28t.06,0l.25,0a.54.54,0,0,0,.23.12,1.21,1.21,0,0,0,.78-.37l.06,0h.13s.08-.09.15-.26l.26-.54.54-.69v-.15a1.11,1.11,0,0,1,.09-.28v-.23c0-.09.06-.15.19-.18s.18-.09.18-.19l0-.12a.54.54,0,0,1-.12-.27l.15-.3,0-.33.06-.12a1.75,1.75,0,0,1-.06-.25l.06-.38s0-.11-.08-.29-.1-.28-.14-.28-.25.16-.58.48a3.27,3.27,0,0,0-.59.67.77.77,0,0,1-.39.36,1,1,0,0,0-.41.37.41.41,0,0,1-.26.23l-1,.83-1.13.83c-.08.09-.13.14-.15.14q-.57,0-.57-.63a2.32,2.32,0,0,1,.23-.73l.16-.09.06,0s0,0,0,0l.09.06h0a4.41,4.41,0,0,1,.74-.44.75.75,0,0,0,.31-.34l.64-.47a7.3,7.3,0,0,0,.76-.67A4.59,4.59,0,0,0,376.85,281.84Z" transform="translate(0 -210.81)"/><path class="a3273476-da09-4f99-b9ea-6780a228b892" d="M382.77,283.86l.24-.22h.09c.08,0,.18-.07.33-.23l.15-.06a1.41,1.41,0,0,1,.54-.54l.25-.18a.56.56,0,0,1,.17-.11,1.37,1.37,0,0,0,.37-.3.69.69,0,0,1,.41-.25.85.85,0,0,1,.25,0,.91.91,0,0,1,.37-.36,1.68,1.68,0,0,0,.45-.43l.2-.09a1.48,1.48,0,0,0,.43-.31.69.69,0,0,1,.5-.2,1.46,1.46,0,0,1,.94.46,1.25,1.25,0,0,1,.48.87l-.26,1.2c-.18.88-.37,1.34-.59,1.38l-.06.33q-.21.15-.21.24l.09.37c0,.05-.06.13-.17.23s0,0,0,.09v.63a.31.31,0,0,1-.21.28.23.23,0,0,0,.09.06.63.63,0,0,1,.41-.09l.25,0,.34-.34a1.78,1.78,0,0,0,.3-.14,3.8,3.8,0,0,1,.65-.3l2-1.54q.42-.42.63-.42c.16,0,.23.1.23.3a1.08,1.08,0,0,1-.13.56,3.47,3.47,0,0,0-.24.54.9.9,0,0,1-.25.43,1.2,1.2,0,0,0-.24.27,2,2,0,0,1-.5.43,4.53,4.53,0,0,0-.69.56,3.24,3.24,0,0,1-.47.4l-.66.48-.09.16a1.85,1.85,0,0,1-.29.13,1.63,1.63,0,0,0-.45.25l-.28.16a.66.66,0,0,1-.3.07.52.52,0,0,0-.36.18.41.41,0,0,1-.25.16l-.23,0-.31.09a1.07,1.07,0,0,1-.63-.31.87.87,0,0,1-.38-.67V288l0-.21a1.47,1.47,0,0,0-.09-.32,2.14,2.14,0,0,1-.09-.28l0-.22,0-.09a1.32,1.32,0,0,1,.06-.52.89.89,0,0,0,.09-.3c0-.13,0-.23.06-.32l.08-.38a.49.49,0,0,1,.15-.25c0-.08.06-.22.12-.41l.07-.28.15-.22a.56.56,0,0,0,.15-.33,1,1,0,0,1,.16-.44,1.09,1.09,0,0,0,.14-.27.17.17,0,0,0-.19-.19,1.48,1.48,0,0,0-.38.25l-.28-.09s-.08.05-.17.15-.05.07-.14.09a.46.46,0,0,0-.26.23l-.12,0-.2-.09h-.06c-.11,0-.17.12-.19.34a.73.73,0,0,1-.45.32l-.33.1a.4.4,0,0,0-.25.27.83.83,0,0,1-.31.4.73.73,0,0,1-.31.17c-.28,0-.43-.16-.43-.47l.13-.73Zm6.64-7.69-.09-.6v-.09c0-.49.16-.75.49-.81a4.63,4.63,0,0,0,.65-.2,1.18,1.18,0,0,1,.58.49,1.34,1.34,0,0,1,.3.75.58.58,0,0,1,0,.13,1.48,1.48,0,0,0-.06.41.68.68,0,0,1-.3.52,1,1,0,0,1-.61.23.94.94,0,0,1-.55-.3A1,1,0,0,1,389.41,276.17Z" transform="translate(0 -210.81)"/><path class="a3273476-da09-4f99-b9ea-6780a228b892" d="M394.77,281.84l.22-.38a1.49,1.49,0,0,1,.24-.28,2.13,2.13,0,0,0,.31-.76,2.21,2.21,0,0,1,.38-.84.79.79,0,0,1,.61-.23,1.3,1.3,0,0,1,.6.23c.26.14.5.59.74,1.34a5.9,5.9,0,0,1,.37,1.59,1.32,1.32,0,0,0,.1.46,2.56,2.56,0,0,1,.14.44,2,2,0,0,0-.12.3l0,.63-.18.51v.36a1.19,1.19,0,0,0-.19.39.32.32,0,0,0,.06.18,2.52,2.52,0,0,0,.88-.5.67.67,0,0,1,.3-.23,1.77,1.77,0,0,0,.48-.4l.29-.16c.11-.12.19-.23.27-.33a.56.56,0,0,1,.25-.21,1.5,1.5,0,0,0,.34-.21,4.25,4.25,0,0,1,.59-.36l.15-.18a1.87,1.87,0,0,1,.55-.42l.34-.15c.07,0,.15.1.22.28a1.46,1.46,0,0,1,.12.57.7.7,0,0,1-.3.51c-.2.17-.33.3-.41.38a1,1,0,0,1-.49.21s-.19.22-.51.63l-.3.19-.16.2s-.16.08-.41.12c0,0,0,0-.07.16s-.15.17-.33.21a4.15,4.15,0,0,0-.57.57l-.32.06a1,1,0,0,1-.16.36c-.24.06-.38.16-.41.3a.36.36,0,0,1-.15.06l-.07.05a1.49,1.49,0,0,1-.69.34l-.35.09-.13.19c0,.05-.12.12-.37.2a1.29,1.29,0,0,0-.56.31l-.26.2a1.52,1.52,0,0,0-.6.33H395a1.46,1.46,0,0,0-.67.32,1.47,1.47,0,0,1-.74.31,2.39,2.39,0,0,1-1.23-.22,1.89,1.89,0,0,1-.54-.55,3.85,3.85,0,0,0-.39-.53.57.57,0,0,1-.18-.33q0-.11.15-.21a1.34,1.34,0,0,0,.31-.44c.11-.22.4-.36.86-.42l.22-.1a.82.82,0,0,1,.32-.09c.1,0,.23.09.38.28,0,0,0,0,.07,0l.24,0a.6.6,0,0,0,.23.12,1.21,1.21,0,0,0,.79-.37l.06,0H395s.08-.09.16-.26l.26-.54.53-.69v-.15a.92.92,0,0,1,.1-.28v-.23q0-.14.18-.18c.12,0,.18-.09.18-.19l0-.12a.54.54,0,0,1-.12-.27l.15-.3,0-.33.07-.12c0-.14-.07-.23-.07-.25l.07-.38s0-.11-.09-.29-.1-.28-.13-.28-.26.16-.58.48a3,3,0,0,0-.59.67.77.77,0,0,1-.39.36.94.94,0,0,0-.41.37.41.41,0,0,1-.26.23l-1,.83-1.12.83c-.08.09-.13.14-.15.14q-.57,0-.57-.63a2.07,2.07,0,0,1,.23-.73l.16-.09s.05,0,.05,0,0,0,0,0l.09.06h0a4.87,4.87,0,0,1,.74-.44.65.65,0,0,0,.31-.34l.65-.47a7.48,7.48,0,0,0,.75-.67A4.12,4.12,0,0,0,394.77,281.84Z" transform="translate(0 -210.81)"/><path class="a3273476-da09-4f99-b9ea-6780a228b892" d="M402.85,282.35l.26-.06c.09-.09.17-.19.27-.31a1.06,1.06,0,0,1,.4-.29.85.85,0,0,0,.42-.48,2.49,2.49,0,0,1,1.11-.75c.43.18.69.39.76.61a3.46,3.46,0,0,1,.12,1.08,1.06,1.06,0,0,1-.16.5,4.78,4.78,0,0,0-.21.47,3,3,0,0,1-.29.52s0,.06-.08.11a1.18,1.18,0,0,0-.18.32,1.57,1.57,0,0,1-.29.42,1.26,1.26,0,0,0-.27.42,6.24,6.24,0,0,1-.41.78,6.16,6.16,0,0,0-.34,1.06c0,.12,0,.17.09.17a.61.61,0,0,0,.22-.09l.13-.05h.19l.21-.15a1.29,1.29,0,0,0,.06-.22,2.75,2.75,0,0,1,.42-.18l0,0a.47.47,0,0,1,0-.17c0-.1.1-.17.3-.2a.79.79,0,0,0,.45-.2c0-.13,0-.21.08-.23a.42.42,0,0,0,.17-.22.42.42,0,0,1,.33-.21c.16,0,.23-.08.23-.19a.9.9,0,0,1,.57-.8.15.15,0,0,0,.13-.15c0-.2,0-.31,0-.33a2.33,2.33,0,0,1,.28-.18l.3-.4.14-.32a.64.64,0,0,1,.16-.2,1.21,1.21,0,0,0,.23-.35,1.49,1.49,0,0,1,.23-.36l.17-.26a.61.61,0,0,1,.53-.4q.18,0,.75.48A1.81,1.81,0,0,1,411,283c0,.25-.07.4-.2.45s-.22.22-.28.52a2.94,2.94,0,0,1-.3.83,3.2,3.2,0,0,0-.21.4l.06.19v.06a.86.86,0,0,1-.18.57.71.71,0,0,1,.09.26l-.15.25q.06.6.21.6a.53.53,0,0,0,.24-.07,1.11,1.11,0,0,1,.29-.07,1.26,1.26,0,0,0,.46-.22l1-.63.19-.21.14-.1a.66.66,0,0,0,.34-.34.38.38,0,0,1,.29-.26,1.3,1.3,0,0,1,.37-.66l.45-.84a2,2,0,0,1,.22-.39,4.37,4.37,0,0,0-.4-1.48v-.09a1,1,0,0,1,.2-.6c.13-.19.26-.29.38-.29l.33,0,.41-.09a2,2,0,0,1,.67.45,1.42,1.42,0,0,1,.55,1.13,1.6,1.6,0,0,1-.16.75,2.23,2.23,0,0,0-.2.6.6.6,0,0,1-.31.44l-.06.07a1.34,1.34,0,0,1-.6,1.1,5.3,5.3,0,0,0-.32.56.83.83,0,0,1-.31.39,1.54,1.54,0,0,0-.24.35,1.39,1.39,0,0,1-.31.41,2.6,2.6,0,0,1-.43.2c-.21.09-.31.2-.31.33l0,.22a3.68,3.68,0,0,0-.7.57l-.31.06a2.36,2.36,0,0,1-1.75.63,1.86,1.86,0,0,1-1.16-.53,1.48,1.48,0,0,1-.62-1.09l-.14-.49a10.82,10.82,0,0,1,.09-1.71.16.16,0,0,0,.05-.12c0-.12,0-.18-.11-.18a1,1,0,0,0-.16.25.45.45,0,0,1-.2.24l-.23.2c-.06.25-.11.38-.17.41a2.11,2.11,0,0,0-.26.24,2.37,2.37,0,0,1-.42.35,3.91,3.91,0,0,1-.63.92v.09s-.05.05-.15.1l-.25.24a6.78,6.78,0,0,1-1.17.81,4.48,4.48,0,0,1-1.1.58,1,1,0,0,1-.71-.29,1.11,1.11,0,0,1-.35-.64,3.42,3.42,0,0,0-.14-.61,1.51,1.51,0,0,1-.09-.42,1.8,1.8,0,0,1,.06-.3,3,3,0,0,0,.08-.46.59.59,0,0,1,0-.24v-.29a1,1,0,0,1,.18-.24.72.72,0,0,0,.18-.45.56.56,0,0,1,.14-.29,2.11,2.11,0,0,0,.19-.35.91.91,0,0,1,.24-.33,3.4,3.4,0,0,1,.14-.44,1.38,1.38,0,0,0,.1-.35.09.09,0,0,0,0-.06c-.14,0-.35.14-.63.4l-.27.16a4.33,4.33,0,0,0-.69.51c-.16.19-.29.29-.42.29q-.72,0-.72-.66a.5.5,0,0,1,.18-.45.5.5,0,0,0,.21-.24c0-.08.14-.14.37-.18s.48-.29.75-.72c.23,0,.37,0,.41-.11A1.12,1.12,0,0,1,402.85,282.35Z" transform="translate(0 -210.81)"/><path class="a3273476-da09-4f99-b9ea-6780a228b892" d="M429.29,285.21l.24-.21a.25.25,0,0,0,.28-.21.49.49,0,0,1,.33-.33,1.3,1.3,0,0,0,.53-.5c.16-.25.33-.38.5-.38s.14.05.22.16a.44.44,0,0,1,.12.24,2.07,2.07,0,0,1-.31,1l-.06.43-.1.2a.61.61,0,0,0-.3.26,1.13,1.13,0,0,1-.37.34l-.15.22a.67.67,0,0,0-.45.35.45.45,0,0,1-.33.28.81.81,0,0,0-.45.3,1.59,1.59,0,0,1-.37.14l0,.16a1.12,1.12,0,0,1-.49.24,2.35,2.35,0,0,0-.49.18.53.53,0,0,1-.22.08,1.22,1.22,0,0,1-.54-.11,1.5,1.5,0,0,0-.51-.15.32.32,0,0,1-.1-.2.76.76,0,0,0-.16-.28.79.79,0,0,1-.14-.49l.07-.29a.28.28,0,0,0-.08-.15.3.3,0,0,1-.08-.16.12.12,0,0,1,0-.09.12.12,0,0,0,0-.09.55.55,0,0,0,0-.17.49.49,0,0,1,0-.15l.09-.76q0-.09-.06-.09s-.11.05-.22.15a.51.51,0,0,1-.38.16.7.7,0,0,0-.2.38,1.21,1.21,0,0,1-.31.28l-.06.09c0,.07-.1.13-.23.18a.53.53,0,0,0-.28.18l-.15.15-.29,0a1.92,1.92,0,0,0-.17.27,1.2,1.2,0,0,1-.35.39l-1.18.95a4.17,4.17,0,0,1-.53.31l-.1.09a4,4,0,0,1-1.73.82,2.6,2.6,0,0,1-1-.23c-.37-.15-.57-.34-.6-.55L418,288a1.11,1.11,0,0,1-.14-.6.62.62,0,0,1,0-.24V287l0-.5c0-.13.1-.19.3-.19l0-.41a2.36,2.36,0,0,1,.27-.49,1.87,1.87,0,0,1,.37-.48l.15-.2a.48.48,0,0,1,.22-.39,2.42,2.42,0,0,0,.37-.43,1.76,1.76,0,0,1,.52-.47l.46-.47a5,5,0,0,1,1.17-.86,1.47,1.47,0,0,0,.38-.31,1.69,1.69,0,0,1,.65-.4,4.94,4.94,0,0,0,.7-.33,1.19,1.19,0,0,1,.55-.2H424a6.27,6.27,0,0,0,.81-.39h.09a1,1,0,0,1,.3.12h0l.24-.12a.38.38,0,0,1,.16,0q.94,0,1,1.32c0,.19.07.28.15.28s.25-.19.44-.56a1.21,1.21,0,0,1,1.21-.56q.66,0,.66.84a2.7,2.7,0,0,1-.89,1.9,1.69,1.69,0,0,0-.1.27l-.21.63v0a.54.54,0,0,1-.13.25.46.46,0,0,0-.13.28l0,.39-.06.43a.51.51,0,0,0,.1.38,1.26,1.26,0,0,0,.72-.4c.15-.19.25-.3.31-.32l.15-.06A1.79,1.79,0,0,1,429.29,285.21Zm-5.11,0a.71.71,0,0,1,.37-.51.74.74,0,0,0,.38-.36,7.77,7.77,0,0,0,.84-.77c.36-.37.55-.6.55-.68s0-.05-.06-.05h0l-.13.08-.27,0-.3,0-.21-.11-.2,0-.31-.06a.87.87,0,0,0-.42.1,3.4,3.4,0,0,1-.68.23,2.48,2.48,0,0,0-.9.42,1.22,1.22,0,0,1-.59.3,2.36,2.36,0,0,1-.72.66.7.7,0,0,0-.48.54,2.16,2.16,0,0,0-.4.37l-.1.26a1.33,1.33,0,0,1-.31.18.33.33,0,0,0-.22.32.84.84,0,0,1-.21.46.64.64,0,0,0-.17.33c0,.51.1.76.29.76a2,2,0,0,0,.52-.17,1.75,1.75,0,0,0,.45-.22.65.65,0,0,1,.24-.12l.3-.16a.27.27,0,0,1,.14-.07.26.26,0,0,0,.15-.1.88.88,0,0,1,.28-.19.74.74,0,0,0,.31-.27l.84-.47.32-.25a1.11,1.11,0,0,0,.42-.26A.85.85,0,0,1,424.18,285.21Z" transform="translate(0 -210.81)"/><path class="a3273476-da09-4f99-b9ea-6780a228b892" d="M445.75,271.6l.27-.22.3,0a.67.67,0,0,0,.45-.14.69.69,0,0,1,.3-.15.59.59,0,0,0,.28-.15.89.89,0,0,1,.47-.2.78.78,0,0,0,.44-.19.73.73,0,0,1,.32-.18,1.73,1.73,0,0,0,.41-.13l1.4-.43.17.06h.06a.55.55,0,0,0,.36-.14.64.64,0,0,1,.42-.15,2.12,2.12,0,0,0,.6-.18l.09.09c.17-.19.31-.28.42-.28h.09l.28.06a2.2,2.2,0,0,1,.63-.12l.35,0,.1,0a.53.53,0,0,1,.33-.17h.17l.63-.15.19.06a.88.88,0,0,1,.57-.15H456l.16,0,.28-.1a5,5,0,0,1,1.24-.09l.4.06.41-.15.43.09.17-.06h.06a.46.46,0,0,1,.16.06h0l1.11-.15.12,0a.35.35,0,0,1,.19-.11l.29.08a1.23,1.23,0,0,0,.43-.17l.09.09,1.05-.12.38,0,.34-.06a1,1,0,0,1,.76.27.8.8,0,0,1,.26.54l.06.48-.1.26,0,.31a.44.44,0,0,1-.23.25s0,0-.14.06a.87.87,0,0,0-.27.14,2.47,2.47,0,0,1-.91.09c-.26,0-.42-.08-.49-.24s-.15-.25-.23-.27l-.66-.28s-.08,0-.19,0h-.12l-.63.06-.17,0-.21.09-1.14-.06-.46,0-.33-.06-.21.05a3.65,3.65,0,0,1-.65.08c-.33,0-.49.12-.49.3a.64.64,0,0,0,.13.37.64.64,0,0,1,.13.33,1.16,1.16,0,0,0-.23.41l-.22.2c-.1.1-.29.27-.56.49a2.2,2.2,0,0,0-.57.6c-.11.19-.23.28-.37.28a1.71,1.71,0,0,0-.39.48l-.12.12a.22.22,0,0,0,0,.14.26.26,0,0,1-.09.18l-.14.37a4.12,4.12,0,0,0-.63.8l-.19.1-.18.21h-.22c-.09,0-.13.06-.13.19l.06.44a1.41,1.41,0,0,0-.37.54l-.19.31a2.25,2.25,0,0,0-.32.35,3.26,3.26,0,0,1-.31.66l0,.16a5.1,5.1,0,0,1-1.07,1.51,2.07,2.07,0,0,0-.19.89c-.31.6-.52.9-.63.88a2.7,2.7,0,0,1-.19,1q-.16.38-.42,1.08a3.12,3.12,0,0,1-.53,1l-.06.12a2.36,2.36,0,0,1-.15.25,7.27,7.27,0,0,1-.3,1.32l-.09.66-.31.86a.43.43,0,0,0,0,.19.62.62,0,0,0,.1.24.7.7,0,0,1,.1.33.66.66,0,0,1-.08.34.72.72,0,0,0-.08.35.62.62,0,0,1-.5.63h-.13l-.32,0a1.52,1.52,0,0,1-1.17-.61,2.56,2.56,0,0,1-.52-1.7,4.71,4.71,0,0,1,.09-.47c.06-.27.1-.44.11-.53a.66.66,0,0,1,.08-.25.94.94,0,0,0,.06-.38,2.29,2.29,0,0,1,.37-1.31,5.48,5.48,0,0,0,.5-.8.18.18,0,0,1,.11-.13,1,1,0,0,1,0-.31.86.86,0,0,1,.39-.73,1.77,1.77,0,0,1,.11-.28c0-.11.16-.37.32-.78a1.09,1.09,0,0,1,.65-.74s.05-.1.18-.24l-.06-.54c0-.08.09-.22.28-.42l.26-.43a.79.79,0,0,1,.4-.47.36.36,0,0,1,.2-.19s.05-.17.13-.38a3.15,3.15,0,0,1,.49-.81c.25-.32.49-.66.73-1s.44-.53.63-.54a.31.31,0,0,0,.31-.32l.09-.57a3.18,3.18,0,0,0,.54-.54l.22-.24a.49.49,0,0,1,.16-.29,1.22,1.22,0,0,0,.25-.28,1.61,1.61,0,0,1,.39-.39,2,2,0,0,1,.91-1.09l.24-.26a2.42,2.42,0,0,1,.43-.5.83.83,0,0,0,.26-.35.55.55,0,0,1,.33-.32c.16-.07.24-.16.24-.25s0-.06-.12-.06a1.75,1.75,0,0,0-.42.09h-.12l-.27.06h-.1l-.26-.06a1.58,1.58,0,0,1-.43.1l-.2.13h-.34l-.18.19-.14,0-.4-.06a.84.84,0,0,0-.45.18,1.52,1.52,0,0,1-.5.11,3.32,3.32,0,0,0-.94.29,2.52,2.52,0,0,1-.54.2l-.28-.06h0a.5.5,0,0,0-.37.2.77.77,0,0,1-.49.25h-.19a1.62,1.62,0,0,0-.62.18l-.42.19-.28,0a1.35,1.35,0,0,1-.32.16,1.1,1.1,0,0,0-.25.15.83.83,0,0,1-.25.15,1,1,0,0,0-.28.17.48.48,0,0,1-.26.12h-.06l-.18,0c-.08,0-.17.06-.28.19a.72.72,0,0,1-.32.24.81.81,0,0,0-.27.15.62.62,0,0,1-.27.11,1.65,1.65,0,0,0-.22.34,1.56,1.56,0,0,1-.35.45,1.85,1.85,0,0,0-.29.3c0,.08-.09.11-.13.11-.5,0-.75-.31-.75-.94l.3-.66a1.48,1.48,0,0,1,1-.95,3.52,3.52,0,0,0,.87-.34Z" transform="translate(0 -210.81)"/><path class="a3273476-da09-4f99-b9ea-6780a228b892" d="M454.41,283.86l.24-.22h.1c.07,0,.18-.07.32-.23l.15-.06a1.41,1.41,0,0,1,.54-.54l.25-.18a.5.5,0,0,1,.18-.11,1.55,1.55,0,0,0,.37-.3.65.65,0,0,1,.4-.25.81.81,0,0,1,.25,0,1,1,0,0,1,.37-.36,1.68,1.68,0,0,0,.45-.43l.2-.09a1.67,1.67,0,0,0,.44-.31.65.65,0,0,1,.5-.2,1.46,1.46,0,0,1,.93.46,1.25,1.25,0,0,1,.48.87l-.26,1.2c-.17.88-.37,1.34-.58,1.38l-.07.33q-.21.15-.21.24l.09.37c0,.05-.06.13-.17.23s0,0,0,.09v.63a.31.31,0,0,1-.21.28l.09.06a.63.63,0,0,1,.41-.09l.25,0,.34-.34a1.78,1.78,0,0,0,.3-.14,4.22,4.22,0,0,1,.65-.3l2-1.54q.42-.42.63-.42c.16,0,.23.1.23.3a1.08,1.08,0,0,1-.13.56,4.76,4.76,0,0,0-.24.54.9.9,0,0,1-.25.43,1.2,1.2,0,0,0-.24.27,2,2,0,0,1-.5.43,4.53,4.53,0,0,0-.69.56,3.24,3.24,0,0,1-.47.4l-.66.48-.09.16a1.85,1.85,0,0,1-.29.13,1.63,1.63,0,0,0-.45.25l-.28.16a.66.66,0,0,1-.3.07.52.52,0,0,0-.36.18c-.1.11-.18.16-.25.16l-.23,0-.3.09a1.07,1.07,0,0,1-.64-.31.9.9,0,0,1-.38-.67V288l0-.21a1.47,1.47,0,0,0-.09-.32,2.14,2.14,0,0,1-.09-.28l0-.22,0-.09a1.32,1.32,0,0,1,.06-.52.89.89,0,0,0,.09-.3c0-.13,0-.23.06-.32l.08-.38a.49.49,0,0,1,.15-.25c0-.08.07-.22.13-.41l.06-.28.15-.22a.56.56,0,0,0,.15-.33,1.08,1.08,0,0,1,.16-.44,1.09,1.09,0,0,0,.14-.27.17.17,0,0,0-.19-.19,1.48,1.48,0,0,0-.38.25l-.28-.09s-.08.05-.17.15,0,.07-.14.09a.46.46,0,0,0-.26.23l-.12,0-.2-.09h-.06c-.11,0-.17.12-.19.34a.74.74,0,0,1-.44.32l-.34.1a.4.4,0,0,0-.25.27.83.83,0,0,1-.31.4.78.78,0,0,1-.3.17c-.29,0-.44-.16-.44-.47l.13-.73Zm6.64-7.69-.09-.6v-.09c0-.49.17-.75.49-.81a4.24,4.24,0,0,0,.65-.2,1.18,1.18,0,0,1,.58.49,1.34,1.34,0,0,1,.3.75.58.58,0,0,1-.05.13,1.48,1.48,0,0,0-.06.41.68.68,0,0,1-.3.52,1,1,0,0,1-.61.23.92.92,0,0,1-.54-.3A1,1,0,0,1,461.05,276.17Z" transform="translate(0 -210.81)"/><path class="a3273476-da09-4f99-b9ea-6780a228b892" d="M470.26,282.2l.43-.2a1.74,1.74,0,0,0,.42-.4l.54-.39a1.61,1.61,0,0,1,.6-.3l.24.09s.09-.06.2-.19a.47.47,0,0,1,.37-.2,1.35,1.35,0,0,1,.76.42,1.09,1.09,0,0,1,.47.74l-.06.52a4.45,4.45,0,0,0,.13.69v.13l-.07.37.07.38-.17.75c0,.2.06.3.2.3a1.18,1.18,0,0,1,.44-.3l.22-.21q.12-.12.18-.12s.1,0,.17-.15a.51.51,0,0,1,.25-.21.41.41,0,0,0,.22-.21,3.66,3.66,0,0,1,1.32-1.08s.11-.05.21-.15a.58.58,0,0,1,.23-.19L478,282l.14.06h0a1,1,0,0,0,.25-.15.63.63,0,0,1,.31-.16,1.25,1.25,0,0,1,1,.4c.25.26.38.46.38.6l-.08.36.11.47v.31l-.08.33a.51.51,0,0,0,.13.26.49.49,0,0,1,.13.23c-.12.13-.18.22-.18.26l0,.28-.08.84a.82.82,0,0,0,.2.36.92.92,0,0,1,.26-.11,1.42,1.42,0,0,0,.26-.1l.09-.06h0l.18.06h.06c.09,0,.13-.08.14-.24a.48.48,0,0,1,.31-.39l.37,0a1.47,1.47,0,0,0,.13-.25,2.26,2.26,0,0,1,.64-.66,1.56,1.56,0,0,1,.84-.44q.24,0,.24.21a2.35,2.35,0,0,1-.06.33.69.69,0,0,1,.13.36c0,.2-.17.41-.5.64a2.11,2.11,0,0,0-.76.84l-.07.06-.3,0s-.07.08-.15.24-.17.25-.27.27a.41.41,0,0,0-.21.09l-.33.2a6.82,6.82,0,0,0-.6.63c-.35.37-.64.56-.87.56a2,2,0,0,1-.55-.16,1.28,1.28,0,0,1-.54-.34,3.58,3.58,0,0,0-.39-.38A1,1,0,0,1,478,287s0-.05.09-.1a.24.24,0,0,0,.08-.13,1.39,1.39,0,0,1-.35-.66.75.75,0,0,1,0-.2.75.75,0,0,0,0-.2l0-.54.06-.27,0-.17L478,284q0-.18-.21-.18s-.1,0-.17.12a.74.74,0,0,1-.27.19.94.94,0,0,0-.35.44,1.14,1.14,0,0,0-.38.3c-.06.1-.12.15-.16.15l-.12,0a.33.33,0,0,0-.19.27v.07l0,.12c0,.09-.07.18-.23.26a2,2,0,0,0-.57.63.51.51,0,0,0-.21,0l-.19.37a.92.92,0,0,0-.29.32l-.18.1a3.76,3.76,0,0,1-.22.33l-.09.17c-.44.53-.75.79-.93.79s-.38-.23-.63-.69a2.53,2.53,0,0,1-.37-1.08l.06-.57a1.35,1.35,0,0,0-.12-.25v-.06a2.69,2.69,0,0,1,.12-.35v-.46a.23.23,0,0,0,0-.09v-.08a1.1,1.1,0,0,1,.13-.25l-.1-.44.06-.25,0-.54.07-.48a.37.37,0,0,0-.09-.16c-.06-.07-.09-.11-.11-.11a2.16,2.16,0,0,0-.64.35,5,5,0,0,0-.72.55,4.52,4.52,0,0,1-.49.48,1,1,0,0,0-.44.79s0,0-.07,0,0,0-.09-.06h-.06q-.07,0-.48.66l-.06.06-.29-.06c-.25,0-.37.26-.37.78,0,.09-.06.16-.19.19a.43.43,0,0,0-.3.26,2.55,2.55,0,0,1-.29.44,1.2,1.2,0,0,0-.4.23s-.12.17-.34.47a6,6,0,0,0-.38.52s-.08.11-.2.18-.18.12-.18.17l.05.27q0,.24-.48.24-.93,0-.93-1.92a.89.89,0,0,1,.2-.49,4.7,4.7,0,0,0,.37-.65,5.9,5.9,0,0,0,.69-.85,7.23,7.23,0,0,1,.6-.75l.2-.32a.43.43,0,0,1,.08-.28.36.36,0,0,0,.08-.23c0-.17,0-.25-.13-.25a.69.69,0,0,0-.46.15.91.91,0,0,1-.37.21.38.38,0,0,0-.27.21,1.21,1.21,0,0,0-.46.39c-.16.2-.26.33-.31.38a1,1,0,0,0-.15.21.23.23,0,0,1-.17.15.32.32,0,0,0-.2.1.43.43,0,0,1-.3.1c-.09,0-.17-.1-.25-.29a1.18,1.18,0,0,1-.11-.35c0-.74.49-1.39,1.49-1.93a2.49,2.49,0,0,0,.32-.22.91.91,0,0,1,.23-.17l.07-.11a2.69,2.69,0,0,1,.92-.52h.22l1-.26c.44-.1.66.39.66,1.49l0,.28.06.12a5.37,5.37,0,0,1,.53-.44,1.74,1.74,0,0,0,.39-.34A1.2,1.2,0,0,1,470.26,282.2Z" transform="translate(0 -210.81)"/><path class="a3273476-da09-4f99-b9ea-6780a228b892" d="M495.5,285.21l.24-.21a.26.26,0,0,0,.28-.21.49.49,0,0,1,.33-.33,1.3,1.3,0,0,0,.53-.5c.16-.25.33-.38.5-.38s.14.05.22.16a.44.44,0,0,1,.12.24,2.07,2.07,0,0,1-.31,1l-.06.43-.11.2a.72.72,0,0,0-.3.26,1,1,0,0,1-.36.34l-.15.22a.67.67,0,0,0-.45.35.45.45,0,0,1-.33.28.81.81,0,0,0-.45.3,1.59,1.59,0,0,1-.37.14l0,.16a1.12,1.12,0,0,1-.49.24,2.35,2.35,0,0,0-.49.18.53.53,0,0,1-.22.08,1.19,1.19,0,0,1-.54-.11,1.5,1.5,0,0,0-.51-.15.32.32,0,0,1-.1-.2.94.94,0,0,0-.16-.28.79.79,0,0,1-.14-.49l.06-.29a.25.25,0,0,0-.07-.15.3.3,0,0,1-.08-.16.12.12,0,0,1,0-.09.12.12,0,0,0,0-.09.55.55,0,0,0,0-.17.49.49,0,0,1,0-.15l.09-.76q0-.09-.06-.09s-.11.05-.22.15a.52.52,0,0,1-.38.16.7.7,0,0,0-.2.38,1.21,1.21,0,0,1-.31.28l-.06.09c0,.07-.1.13-.23.18a.53.53,0,0,0-.28.18l-.15.15-.29,0a1.92,1.92,0,0,0-.17.27,1.12,1.12,0,0,1-.36.39l-1.17.95a4.17,4.17,0,0,1-.53.31l-.1.09a4,4,0,0,1-1.73.82,2.69,2.69,0,0,1-1-.23c-.36-.15-.56-.34-.6-.55l-.15-.64a1.11,1.11,0,0,1-.14-.6.62.62,0,0,1,0-.24V287l0-.5c0-.13.1-.19.29-.19l0-.41a2.36,2.36,0,0,1,.27-.49,2.24,2.24,0,0,1,.36-.48l.16-.2a.48.48,0,0,1,.22-.39,2,2,0,0,0,.36-.43,2,2,0,0,1,.53-.47l.46-.47a5,5,0,0,1,1.17-.86,1.47,1.47,0,0,0,.38-.31,1.69,1.69,0,0,1,.65-.4,4.94,4.94,0,0,0,.7-.33,1.15,1.15,0,0,1,.55-.2h.12a5.42,5.42,0,0,0,.82-.39h.09a1.05,1.05,0,0,1,.3.12h0l.24-.12a.38.38,0,0,1,.16,0c.63,0,1,.44,1,1.32,0,.19.08.28.16.28s.25-.19.44-.56a1.21,1.21,0,0,1,1.21-.56q.66,0,.66.84a2.7,2.7,0,0,1-.89,1.9,1.08,1.08,0,0,0-.1.27l-.21.63v0a.54.54,0,0,1-.13.25.46.46,0,0,0-.13.28l0,.39-.06.43a.51.51,0,0,0,.1.38,1.26,1.26,0,0,0,.72-.4,1,1,0,0,1,.31-.32l.15-.06A1.79,1.79,0,0,1,495.5,285.21Zm-5.11,0a.71.71,0,0,1,.37-.51.78.78,0,0,0,.38-.36,7.77,7.77,0,0,0,.84-.77c.36-.37.55-.6.55-.68s0-.05-.07-.05h0l-.12.08-.28,0-.29,0-.21-.11-.2,0-.31-.06a.94.94,0,0,0-.43.1,3,3,0,0,1-.67.23,2.33,2.33,0,0,0-.9.42,1.22,1.22,0,0,1-.59.3,2.36,2.36,0,0,1-.72.66.7.7,0,0,0-.48.54,2.16,2.16,0,0,0-.4.37l-.11.26a1.09,1.09,0,0,1-.3.18.33.33,0,0,0-.22.32.84.84,0,0,1-.21.46.64.64,0,0,0-.17.33c0,.51.09.76.29.76a1.87,1.87,0,0,0,.51-.17,1.71,1.71,0,0,0,.46-.22.65.65,0,0,1,.24-.12l.3-.16a.23.23,0,0,1,.14-.07.26.26,0,0,0,.15-.1.88.88,0,0,1,.28-.19.66.66,0,0,0,.3-.27l.85-.47.32-.25a1.11,1.11,0,0,0,.42-.26A.85.85,0,0,1,490.39,285.21Z" transform="translate(0 -210.81)"/><path class="a3273476-da09-4f99-b9ea-6780a228b892" d="M497.74,283.58l.12-.17a.7.7,0,0,0,.51-.3,5.48,5.48,0,0,1,.78-.8,10.49,10.49,0,0,1,.8-.74,6.58,6.58,0,0,0,.6-1.34c.12-.06.18-.13.18-.22l.12-.24.14,0,.06-.06v-.14a3.92,3.92,0,0,1,.6-1.3c.4-.83.62-1.29.65-1.37a2.85,2.85,0,0,1,.18-.39c.09-.17.23-.49.42-1a6.19,6.19,0,0,1,.89-1.51.89.89,0,0,0,.18-.35,2.21,2.21,0,0,1,.39-.62l.18-.33.33-.53a4,4,0,0,1,.42-.61,1.58,1.58,0,0,0,.29-.47.82.82,0,0,1,.24-.35,1.25,1.25,0,0,0,.28-.4.48.48,0,0,1,.46-.28.91.91,0,0,1,.87.49,1.87,1.87,0,0,1,.27.86,6.42,6.42,0,0,1-.19.66l-.23,1.39c-.2.1-.31.22-.31.35a2.94,2.94,0,0,1-.63,1.7.92.92,0,0,0-.1.4.81.81,0,0,1-.27.55,1.82,1.82,0,0,0-.41.72l-1.43,2.05-.13.12a.89.89,0,0,0-.21.26l-.25-.07c-.27,0-.41.08-.41.26a.69.69,0,0,0,.06.24v0l-1.14,1.61a3.94,3.94,0,0,0-.22.6l-.21.46a3.07,3.07,0,0,0-.46.87,2,2,0,0,1-.34.69c-.21.46-.31.7-.31.72a.08.08,0,0,0,.09.09c.06,0,.21-.15.44-.46a2.66,2.66,0,0,1,.57-.61,1.27,1.27,0,0,0,.38-.44l.15-.1.26-.19.16,0a.38.38,0,0,0,.15-.21.35.35,0,0,1,.1-.19.57.57,0,0,0,.5-.29c.06-.16.14-.25.24-.25s.18-.09.32-.28a1.43,1.43,0,0,1,.56-.46,3.65,3.65,0,0,0,.54-.32,3.14,3.14,0,0,1,.72-.33,2.68,2.68,0,0,1,.72-.19h.09l.13,0,.23,0a2.21,2.21,0,0,1,1.08.3.86.86,0,0,1,.46.93l-.12.95-.17.76a8.41,8.41,0,0,1-.25.81,4.71,4.71,0,0,0-.21.73l-.07.29.07.4,0,.32a.14.14,0,0,0,.16.16s.15-.1.33-.28c.12,0,.22,0,.33-.19a2.71,2.71,0,0,1,.41-.44s.07-.08.2-.12a1.46,1.46,0,0,0,.55-.36,2.83,2.83,0,0,1,.6-.59,5.22,5.22,0,0,1,1-.7l.09-.12a.7.7,0,0,1,.48-.27c.14,0,.21.08.21.23a.67.67,0,0,1-.08.33,1.51,1.51,0,0,0-.1.44,2.42,2.42,0,0,1-.31.77l-.06.16a.52.52,0,0,1-.26.31.66.66,0,0,0-.33.25,1.71,1.71,0,0,1-.73.39c-.17.31-.3.46-.39.46l-.28-.12a.72.72,0,0,0-.32.54,3.71,3.71,0,0,0-.47.44l-.31,0c-.08,0-.12.12-.12.34a1.24,1.24,0,0,1-.32.21,2.82,2.82,0,0,0-.48.32,1.34,1.34,0,0,1-.73.13.33.33,0,0,1-.18-.1.87.87,0,0,0-.36-.19.5.5,0,0,1-.33-.36,1.93,1.93,0,0,0-.2-.45.51.51,0,0,1-.11-.25l0-.31-.08-.32.14-.22a.94.94,0,0,1-.09-.29l.15-.94a11.64,11.64,0,0,1,.28-1.32s0-.08,0-.19l0-.38,0-.22q0-.23-.15-.24c-.1,0-.17,0-.19-.08l-.23-.09c-.08,0-.15.06-.21.19a1.24,1.24,0,0,1-.25.35l-.38-.06v0c0,.08-.14.24-.42.47a1.33,1.33,0,0,0-.66.4.94.94,0,0,0-.43.24,1.92,1.92,0,0,1-.39.27l-.12.25-.25.08a.66.66,0,0,1-.51.4l-.15.29a.51.51,0,0,0-.45.33q-.12.3-.18.3a.19.19,0,0,1-.1,0,.24.24,0,0,0-.13,0c-.23,0-.35.17-.37.51a4.62,4.62,0,0,1-.63.72c-.43.44-.65.67-.68.68s-.09.11-.18.31a1,1,0,0,1-.36.45l-.35.24a.3.3,0,0,1-.18.09c-.21,0-.39-.15-.52-.46s-.2-.47-.2-.48l.09-.32,0-.28.2-.62A3.26,3.26,0,0,1,498,286a2.76,2.76,0,0,0,.39-1.13,3.14,3.14,0,0,1-.83.46c-.21,0-.31-.14-.31-.4A2,2,0,0,1,497.74,283.58Z" transform="translate(0 -210.81)"/></g></svg>