<svg id="ea002871-966a-4ca6-aded-f53759b44f7e" data-name="Layer 1" xmlns="http://www.w3.org/2000/svg" viewBox="0 0 512 376.54"><defs><style>.bfc8cf72-7d03-4a41-821f-ed917d81657c{fill:#5c91fa;}.a9ce8849-636c-4c17-b5fe-feb8e4fceea2,.bfc8cf72-7d03-4a41-821f-ed917d81657c,.fe160441-cf40-42eb-a85c-39c243f675fa{fill-rule:evenodd;}.fe160441-cf40-42eb-a85c-39c243f675fa{fill:#588bf0;}.a9ce8849-636c-4c17-b5fe-feb8e4fceea2{fill:#5687e9;}</style></defs><path class="bfc8cf72-7d03-4a41-821f-ed917d81657c" d="M256,0,0,125.51,256,251,512,125.51ZM462.79,130.49l-9.92,4.87-30.81,15.1c-5.37,2.64-14.08,2.64-19.46,0s-5.37-6.9,0-9.54l30.82-15.11-41.16-20.17-40.54,19.87-83.36,40.88,40.54,19.87,25.77-12.63c5.38-2.64,14.09-2.64,19.46,0l.19.09c5.37,2.64,5.37,6.91,0,9.54L328.55,195.9,316.19,202,275,222.13l-9.73,4.77c-5.38,2.64-14.09,2.64-19.46,0L235.93,222l-30.81-15.11c-5.38-2.63-5.38-6.9,0-9.54s14.08-2.63,19.45,0l30.82,15.11,41.15-20.18L256,172.44l-83.36-40.87L132.1,151.45l25.77,12.64c5.37,2.63,5.37,6.9,0,9.54l-.19.09c-5.37,2.64-14.09,2.64-19.46,0l-25.77-12.64L100.09,155,58.94,134.85l-9.73-4.77c-5.38-2.64-5.38-6.91,0-9.54l9.92-4.87,30.81-15.1c5.37-2.64,14.08-2.64,19.46,0s5.37,6.9,0,9.54l-30.82,15.1,41.16,20.18,40.54-19.88,83.36-40.87L203.1,64.77,177.33,77.4C172,80,163.24,80,157.87,77.4l-.19-.09c-5.37-2.64-5.37-6.91,0-9.54l25.77-12.64,12.36-6.06L237,28.9l9.73-4.77c5.38-2.64,14.09-2.64,19.46,0L276.07,29,306.88,44.1c5.38,2.63,5.38,6.9,0,9.54s-14.08,2.63-19.45,0L256.61,38.53,215.46,58.71,256,78.58l83.36,40.88L379.9,99.58,354.13,86.94c-5.37-2.63-5.37-6.9,0-9.54l.19-.09c5.37-2.64,14.09-2.64,19.46,0L399.55,90l12.36,6,41.15,20.18,9.73,4.77C468.17,123.59,468.17,127.86,462.79,130.49Z"/><path class="fe160441-cf40-42eb-a85c-39c243f675fa" d="M256,251V376.54L512,251V125.51Zm207.71-27.9L313.13,297a10,10,0,1,1-8.84-18L454.87,205.1a10,10,0,1,1,8.84,18Z"/><path class="a9ce8849-636c-4c17-b5fe-feb8e4fceea2" d="M0,125.51V251L256,376.54V251ZM212.31,292.37A10,10,0,0,1,198.87,297L48.29,223.13a10,10,0,1,1,8.84-18l150.58,73.83A10,10,0,0,1,212.31,292.37Z"/></svg>