<svg id="e72551d1-064d-4431-be58-755fe80c85bf" data-name="Layer 1" xmlns="http://www.w3.org/2000/svg" viewBox="0 0 512 75.74"><defs><style>.fe1c7b2c-4f01-4445-8530-03033df45c03{fill:#5c91fa;}.a8423f2c-f036-4997-9d8a-03f3b6a31562,.fc75e485-ddfe-4fe2-a80c-abdeb3a21ba7,.fe1c7b2c-4f01-4445-8530-03033df45c03{fill-rule:evenodd;}.a8423f2c-f036-4997-9d8a-03f3b6a31562{fill:#588bf0;}.fc75e485-ddfe-4fe2-a80c-abdeb3a21ba7{fill:#5687e9;}.ac86aca5-3ee4-459e-ace7-f113eda4164d{fill:#263b66;}.fa7f3ca1-8528-429b-8644-e06f4e5654fd{fill:#575b66;}</style></defs><g id="e07130ea-2295-43b3-9b4a-9eab9acd46ce" data-name="Horizontal"><path class="fe1c7b2c-4f01-4445-8530-03033df45c03" d="M51.49,0,0,25.25,51.49,50.49,103,25.25Zm41.6,26.25-2,1-6.2,3a5,5,0,0,1-3.91,0c-1.08-.53-1.08-1.38,0-1.91l6.2-3L78.9,21.25l-8.15,4L54,33.47l8.15,4,5.19-2.55a5,5,0,0,1,3.91,0l0,0c1.08.53,1.08,1.39,0,1.92L66.09,39.4,63.6,40.62l-8.28,4.06-2,1a5,5,0,0,1-3.91,0l-2-1-6.2-3c-1.08-.53-1.08-1.39,0-1.92a5,5,0,0,1,3.91,0l6.2,3,8.28-4.06-8.16-4L34.72,26.46l-8.15,4L31.75,33c1.09.53,1.09,1.39,0,1.92l0,0a5,5,0,0,1-3.92,0L22.62,32.4l-2.49-1.22-8.28-4.06-1.95-1c-1.08-.53-1.08-1.38,0-1.91l2-1,6.2-3a5,5,0,0,1,3.91,0c1.09.53,1.09,1.39,0,1.92l-6.19,3,8.27,4,8.16-4L49,17l-8.16-4-5.18,2.54a5,5,0,0,1-3.92,0l0,0c-1.08-.53-1.08-1.39,0-1.92l5.18-2.54,2.49-1.22,8.27-4.06,2-1a5,5,0,0,1,3.91,0l2,1,6.2,3c1.08.53,1.08,1.39,0,1.92a5,5,0,0,1-3.92,0l-6.19-3-8.28,4.06,8.15,4L68.26,24l8.15-4-5.18-2.54c-1.08-.53-1.08-1.39,0-1.92l0,0a5,5,0,0,1,3.91,0l5.19,2.54,2.48,1.22,8.28,4.06,2,1C94.17,24.86,94.17,25.72,93.09,26.25Z"/><path class="a8423f2c-f036-4997-9d8a-03f3b6a31562" d="M51.49,50.49V75.74L103,50.49V25.25Zm41.78-5.61L63,59.73a2,2,0,0,1-.88.21,2,2,0,0,1-.9-3.83L91.49,41.25a2,2,0,1,1,1.78,3.63Z"/><path class="fc75e485-ddfe-4fe2-a80c-abdeb3a21ba7" d="M0,25.25V50.49L51.49,75.74V50.49ZM42.7,58.81a2,2,0,0,1-1.81,1.13,2,2,0,0,1-.89-.21L9.71,44.88a2,2,0,0,1,1.78-3.63L41.78,56.11A2,2,0,0,1,42.7,58.81Z"/><path class="ac86aca5-3ee4-459e-ace7-f113eda4164d" d="M138.35,34a23.56,23.56,0,0,1-3.55-.26,18.32,18.32,0,0,1-3.34-.8,14.16,14.16,0,0,1-2.82-1.35,2.53,2.53,0,0,1-1-1.17,2.47,2.47,0,0,1-.18-1.35,2.31,2.31,0,0,1,.52-1.17,1.8,1.8,0,0,1,1.07-.62,2,2,0,0,1,1.41.36,13.52,13.52,0,0,0,3.74,1.53,17.47,17.47,0,0,0,4.15.49A7.92,7.92,0,0,0,143,28.56a3.3,3.3,0,0,0,1.45-2.76,2.66,2.66,0,0,0-1-2.21,8.92,8.92,0,0,0-3.52-1.33l-4.43-.93a11,11,0,0,1-5.7-2.72,6.89,6.89,0,0,1-1.87-5,8,8,0,0,1,.8-3.58A8.22,8.22,0,0,1,131,7.2a10.43,10.43,0,0,1,3.5-1.79A15.13,15.13,0,0,1,139,4.78a17.19,17.19,0,0,1,4.59.61,13.27,13.27,0,0,1,3.91,1.77,2.25,2.25,0,0,1,.86,1.09,2.38,2.38,0,0,1,.1,1.26,2,2,0,0,1-.56,1.07,1.81,1.81,0,0,1-1.11.52,2.46,2.46,0,0,1-1.51-.4,11.85,11.85,0,0,0-3-1.21,14.39,14.39,0,0,0-3.3-.36,8.68,8.68,0,0,0-3.18.53,4.43,4.43,0,0,0-2,1.47,3.62,3.62,0,0,0-.71,2.23,2.91,2.91,0,0,0,1,2.31,7.13,7.13,0,0,0,3.3,1.35l4.39.93a12.44,12.44,0,0,1,5.94,2.66,6.27,6.27,0,0,1,1.95,4.83,7.58,7.58,0,0,1-3,6.2A10.62,10.62,0,0,1,143,33.37,16.55,16.55,0,0,1,138.35,34Z"/><path class="ac86aca5-3ee4-459e-ace7-f113eda4164d" d="M189.52,33.89a2.49,2.49,0,0,1-1.91-.7,2.7,2.7,0,0,1-.67-1.95V7.52a2.69,2.69,0,0,1,.67-2,3,3,0,0,1,3.82,0,2.73,2.73,0,0,1,.66,2V31.24a2.78,2.78,0,0,1-.64,1.95A2.48,2.48,0,0,1,189.52,33.89Z"/><path class="ac86aca5-3ee4-459e-ace7-f113eda4164d" d="M233.68,33.89a2.26,2.26,0,0,1-1.73-.64,2.5,2.5,0,0,1-.6-1.77V7.28A2.36,2.36,0,0,1,232,5.49a2.43,2.43,0,0,1,1.78-.63,2.83,2.83,0,0,1,1.59.39,3.4,3.4,0,0,1,1.06,1.31l10,18.39h-1.29L255,6.56a3.48,3.48,0,0,1,1-1.31,2.74,2.74,0,0,1,1.57-.39,2.28,2.28,0,0,1,1.73.63A2.47,2.47,0,0,1,260,7.28v24.2a2.54,2.54,0,0,1-.59,1.77,2.69,2.69,0,0,1-3.48,0,2.5,2.5,0,0,1-.6-1.77V12.84h.88l-8.45,15.42a3.23,3.23,0,0,1-.85,1,2,2,0,0,1-1.21.32,2.12,2.12,0,0,1-1.25-.34,2.84,2.84,0,0,1-.84-1L235.05,12.8h1V31.48a2.58,2.58,0,0,1-.58,1.77A2.26,2.26,0,0,1,233.68,33.89Z"/><path class="ac86aca5-3ee4-459e-ace7-f113eda4164d" d="M299.47,33.89a2.48,2.48,0,0,1-1.55-.44,1.79,1.79,0,0,1-.7-1.19,3,3,0,0,1,.28-1.67L308.13,7a3.85,3.85,0,0,1,1.26-1.67,3,3,0,0,1,1.72-.51,2.91,2.91,0,0,1,1.67.51A3.86,3.86,0,0,1,314.05,7l10.67,23.55a2.92,2.92,0,0,1,.32,1.69,1.75,1.75,0,0,1-.69,1.19,2.42,2.42,0,0,1-1.49.42,2.6,2.6,0,0,1-1.75-.54A4.75,4.75,0,0,1,320,31.68l-2.61-6.08L319.56,27h-17l2.18-1.41-2.58,6.08a5.18,5.18,0,0,1-1.09,1.69A2.26,2.26,0,0,1,299.47,33.89ZM311,10.78l-5.64,13.41-1.05-1.29h13.45l-1,1.29-5.67-13.41Z"/><path class="ac86aca5-3ee4-459e-ace7-f113eda4164d" d="M364.53,33.89a2.25,2.25,0,0,1-1.73-.64,2.5,2.5,0,0,1-.6-1.77V7.28a2.36,2.36,0,0,1,.64-1.79,2.42,2.42,0,0,1,1.77-.63,2.83,2.83,0,0,1,1.59.39,3.33,3.33,0,0,1,1.07,1.31l10,18.39h-1.29l9.94-18.39a3.39,3.39,0,0,1,1.05-1.31,2.72,2.72,0,0,1,1.57-.39,2.28,2.28,0,0,1,1.73.63,2.47,2.47,0,0,1,.6,1.79v24.2a2.53,2.53,0,0,1-.58,1.77,2.69,2.69,0,0,1-3.48,0,2.46,2.46,0,0,1-.61-1.77V12.84H387l-8.46,15.42a3.21,3.21,0,0,1-.84,1,2,2,0,0,1-1.21.32,2.12,2.12,0,0,1-1.25-.34,2.84,2.84,0,0,1-.84-1L365.9,12.8h1V31.48a2.54,2.54,0,0,1-.59,1.77A2.22,2.22,0,0,1,364.53,33.89Z"/><path class="ac86aca5-3ee4-459e-ace7-f113eda4164d" d="M430.32,33.89a2.48,2.48,0,0,1-1.55-.44,1.84,1.84,0,0,1-.71-1.19,3,3,0,0,1,.29-1.67L439,7a3.77,3.77,0,0,1,1.26-1.67A3,3,0,0,1,442,4.86a2.92,2.92,0,0,1,1.68.51A3.77,3.77,0,0,1,444.89,7l10.67,23.55a2.86,2.86,0,0,1,.33,1.69,1.75,1.75,0,0,1-.69,1.19,2.44,2.44,0,0,1-1.49.42,2.6,2.6,0,0,1-1.75-.54,4.62,4.62,0,0,1-1.11-1.67l-2.61-6.08L450.41,27h-17l2.17-1.41L433,31.68a5.18,5.18,0,0,1-1.09,1.69A2.28,2.28,0,0,1,430.32,33.89Zm11.55-23.11-5.63,13.41-1.05-1.29h13.45l-1,1.29L442,10.78Z"/><path class="ac86aca5-3ee4-459e-ace7-f113eda4164d" d="M499.25,33.89a2.52,2.52,0,0,1-1.92-.7,2.74,2.74,0,0,1-.66-1.95V9.49h-7.85a2.2,2.2,0,0,1-1.63-.58,2.15,2.15,0,0,1-.59-1.59,2.06,2.06,0,0,1,.59-1.59,2.31,2.31,0,0,1,1.63-.54h20.85a2.33,2.33,0,0,1,1.64.54,2.09,2.09,0,0,1,.58,1.59,2.19,2.19,0,0,1-.58,1.59,2.22,2.22,0,0,1-1.64.58h-7.85V31.24a2.78,2.78,0,0,1-.64,1.95A2.48,2.48,0,0,1,499.25,33.89Z"/><path class="fa7f3ca1-8528-429b-8644-e06f4e5654fd" d="M135.38,60.76l.09-.23.3-.34a1.32,1.32,0,0,1,.39-.45.67.67,0,0,1,.07-.18.77.77,0,0,0,.07-.25l.1-.19s0,0,0-.07a.61.61,0,0,0-.09-.14l-.06-.24c0-.06-.21-.27-.62-.62h-.09l-.84-.41-.05-.11-.09,0-.12,0h0l-.4-.12a6.09,6.09,0,0,1-.63-.19.1.1,0,0,1-.07,0l-.46-.1a.72.72,0,0,1-.24-.1.43.43,0,0,0-.2-.11.52.52,0,0,1-.2-.1.3.3,0,0,0-.19,0l-.29.07s-.11-.07-.33-.12c0-.08-.05-.12-.07-.12l-.33,0-.35-.16a2.92,2.92,0,0,1-.41-.07,1.36,1.36,0,0,1-.46-.13,1.32,1.32,0,0,0-.31-.14l-.07-.07a.34.34,0,0,0-.13,0h-.21a.38.38,0,0,1-.19-.11,2.09,2.09,0,0,0-.31-.24,1,1,0,0,1-.34-.36,1.12,1.12,0,0,1-.16-.51.08.08,0,0,1,0-.05l.07-.37a2.45,2.45,0,0,1,.66-1.31.69.69,0,0,1,.39-.46l0-.16a3.8,3.8,0,0,0,.49-.47,1.12,1.12,0,0,1,.33-.28,2,2,0,0,0,.29-.21l.21-.09c0-.07.16-.23.52-.49a4.84,4.84,0,0,1,.83-.52,3.2,3.2,0,0,0,.39-.18,3.45,3.45,0,0,1,.58-.17c.08-.21.2-.32.37-.32h.17l.24-.23.31,0,.13-.15a.45.45,0,0,1,.35-.12l1.41-.43H136l.09,0c.07,0,.15,0,.24-.16a.5.5,0,0,1,.38-.17.56.56,0,0,1,.18.1s0,0,0,0l.3-.09.36,0,.46-.12a1.34,1.34,0,0,1,.75.21l0,0v-.07c0-.13.07-.2.22-.2s.1,0,.11,0l.14.08h.09a2,2,0,0,1,.3.14.59.59,0,0,1,.22-.12.4.4,0,0,1,.35.19l.2,0a.38.38,0,0,1,.11-.09s.11.06.19.19l.07,0h.29s.05,0,.09.07l.13.11a.75.75,0,0,1,.13.15.39.39,0,0,0,.08.1l.33-.13c.07,0,.13.07.17.2a.42.42,0,0,0,.21.32.46.46,0,0,1,.2.33.38.38,0,0,1,.25.37l.23.58,0,.19.09.21,0,.43,0,.46a.73.73,0,0,1-.34.61.62.62,0,0,0-.22.1l-.18.1a.47.47,0,0,1-.4-.14.87.87,0,0,0-.2-.22.21.21,0,0,1-.09-.18.7.7,0,0,1,.36-.53.24.24,0,0,0,.23-.1.43.43,0,0,0-.1-.34,1.56,1.56,0,0,1-.23-.26,1.28,1.28,0,0,0-.26-.26.79.79,0,0,1-.23-.25c-.05-.1-.11-.15-.15-.15l-.17,0-.33-.07a4,4,0,0,1-1-.24h-.23l-.63-.09a1.45,1.45,0,0,1-.47.06l-.77.12-.31,0a5.88,5.88,0,0,0-.64.2l-.12,0h-.31l-.3.12a4.33,4.33,0,0,1-.46.16l-.1.05-.07,0-.19,0-1,.5-.17-.1-.22-.09a.14.14,0,0,0-.16.16l0,.22-.19.14a.19.19,0,0,1-.12.07H133a.35.35,0,0,0-.26.13.4.4,0,0,1-.22.13.88.88,0,0,0-.26.1s-.08.07-.19.1a.4.4,0,0,0-.25.21c-.06.12-.13.17-.2.17l-.24,0-.13.23-.27.07a1.71,1.71,0,0,1-.31.3l-.29.23a.68.68,0,0,0-.21.25.55.55,0,0,1-.2.2.6.6,0,0,0-.22.31l-.11.12a.66.66,0,0,0-.29.52c0,.13.09.23.27.29a1.1,1.1,0,0,1,.35.15.33.33,0,0,0,.21.06.6.6,0,0,1,.27.06l.43.19q.06.18.12.18s0,0,.09-.09a.26.26,0,0,1,.21-.09.38.38,0,0,1,.29.18l.1-.07h0l.15,0h0l.14-.07s0,0,.07,0a2.14,2.14,0,0,1,.36.11h0l.19,0c.11,0,.18,0,.19.07l.17.09s0,0,0,0a.26.26,0,0,0,.14,0,.41.41,0,0,1,.18-.05.31.31,0,0,1,.21.13l.21-.09a.81.81,0,0,1,.36.18l.22.05h.25l.39.07a1.34,1.34,0,0,0,.34.26c0-.08.07-.12.16-.12a1.83,1.83,0,0,1,.57.15l.09,0,.09.07.25,0c.15,0,.23.06.23.17a1.18,1.18,0,0,1-.07.36s0,0,.07,0a.38.38,0,0,1,.13-.09l.19-.1s0-.05.07-.05a1.44,1.44,0,0,1,.75.37,1.31,1.31,0,0,1,.56.85.78.78,0,0,0,.09.33l0,.15,0,.19a.56.56,0,0,1,0,.16l0,.17a.18.18,0,0,1-.07.08.31.31,0,0,0-.07.09l.07.19v.05s0,.07-.09.13a.48.48,0,0,0-.11.15.34.34,0,0,1-.08.14.64.64,0,0,0-.08.19c0,.07-.09.14-.23.23s-.2.16-.2.21,0,.07,0,.07a.46.46,0,0,0,.29-.14.7.7,0,0,1,.24-.15,2.34,2.34,0,0,0,.28-.14l1.09-.52a9.55,9.55,0,0,1,1.36-.58.17.17,0,0,1,.19.19s-.05.13-.16.27a.61.61,0,0,1-.48.64.92.92,0,0,0-.27.24h-.09a.89.89,0,0,1-.67.33h-.06a1.71,1.71,0,0,1-1,.48,1.1,1.1,0,0,1-.68.4l-.18,0a1.34,1.34,0,0,1-.41.12s-.05,0-.09.09l-.18.13a1.11,1.11,0,0,0-.48.25,1.12,1.12,0,0,1-.39.24,1.19,1.19,0,0,0-.28.1c-.1.05-.51.31-1.22.79l-.15.05a2,2,0,0,0-.58.34,1,1,0,0,1-.27.23h0a1,1,0,0,0-.63.35s-.18.1-.51.19a3.6,3.6,0,0,0-.92.41l-.69.19a5,5,0,0,1-.59.14l-.82.17-.61.14a1.41,1.41,0,0,0-.36-.07l-.21,0s-.08,0-.15-.08a1.05,1.05,0,0,0-.26-.16c-.11,0-.16-.19-.16-.4s.21-.39.64-.58.7-.32.84-.4a.38.38,0,0,1,.32-.15.83.83,0,0,0,.39-.14,1.4,1.4,0,0,1,.5-.21l.46-.25.06,0h.16a.45.45,0,0,0,.25-.13,1,1,0,0,1,.34-.18h.14a.15.15,0,0,0,.07-.06.7.7,0,0,1,.21-.15l0,0H132a1.07,1.07,0,0,1,.3-.17,1.63,1.63,0,0,0,.34-.19l.91-.35.21,0s.1,0,.18-.11a1.21,1.21,0,0,1,.52-.23.88.88,0,0,1,.24-.22,3.93,3.93,0,0,0,.44-.37Zm-4.06,2.91-.17,0a.82.82,0,0,1-.32.11,1.26,1.26,0,0,0-.49.21,4.89,4.89,0,0,1-.76.39c-.29.13-.43.21-.43.25a5.29,5.29,0,0,0,1.19-.32l.84-.23a.69.69,0,0,0,.22-.09,1,1,0,0,1,.26-.13l.18-.14.26-.1c.13,0,.2-.09.2-.14s0,0-.05,0a1.43,1.43,0,0,0-.67.13Z"/><path class="fa7f3ca1-8528-429b-8644-e06f4e5654fd" d="M139.68,59.65l.18-.17h.07c.06,0,.14,0,.25-.17l.12-.05c.15-.23.29-.37.4-.4l.19-.14a.43.43,0,0,1,.13-.09.82.82,0,0,0,.28-.22c.13-.13.23-.19.31-.19a.53.53,0,0,1,.19,0,.82.82,0,0,1,.28-.28,1,1,0,0,0,.34-.32l.15-.07a1.5,1.5,0,0,0,.33-.23.5.5,0,0,1,.38-.15,1,1,0,0,1,.7.34.94.94,0,0,1,.37.66l-.2.91c-.13.67-.28,1-.44,1l-.05.24c-.11.08-.16.14-.16.19l.07.28s0,.09-.13.17,0,0,0,.07v.48c0,.08-.06.15-.16.21l.07.05c0-.05.15-.07.31-.07l.19,0,.25-.26a.76.76,0,0,0,.23-.11,3.6,3.6,0,0,1,.49-.22L146.33,60c.2-.21.36-.31.47-.31s.18.07.18.22a.87.87,0,0,1-.1.42,1.74,1.74,0,0,0-.18.41.82.82,0,0,1-.19.33.76.76,0,0,0-.19.21,1.45,1.45,0,0,1-.37.32,4.09,4.09,0,0,0-.53.42,2.67,2.67,0,0,1-.35.31l-.5.36-.07.12-.22.1a1.25,1.25,0,0,0-.34.19l-.21.11a.54.54,0,0,1-.23.06.4.4,0,0,0-.27.14c-.08.08-.14.12-.19.12l-.17,0-.23.07a.86.86,0,0,1-.49-.23.67.67,0,0,1-.28-.51v-.07l0-.16a.93.93,0,0,0-.07-.24,1.06,1.06,0,0,1-.07-.22l0-.16,0-.07a1,1,0,0,1,.05-.4.81.81,0,0,0,.07-.22c0-.1,0-.18,0-.24l.06-.29a.31.31,0,0,1,.12-.19,2.07,2.07,0,0,1,.09-.31l0-.21.11-.17a.34.34,0,0,0,.11-.25,1.07,1.07,0,0,1,.13-.33.56.56,0,0,0,.1-.21.12.12,0,0,0-.14-.14,1.19,1.19,0,0,0-.29.19L142,59.1a.48.48,0,0,0-.13.12s0,.05-.1.07a.31.31,0,0,0-.2.17l-.09,0-.15-.07h-.05c-.08,0-.12.09-.14.26a.58.58,0,0,1-.34.24l-.25.07a.31.31,0,0,0-.19.21.71.71,0,0,1-.23.3.56.56,0,0,1-.24.13c-.21,0-.32-.12-.32-.36l.09-.54Zm5-5.82-.07-.46V53.3c0-.36.12-.56.37-.6l.49-.15a.8.8,0,0,1,.43.36,1,1,0,0,1,.23.57.43.43,0,0,1,0,.1.93.93,0,0,0,0,.31.54.54,0,0,1-.23.4.72.72,0,0,1-.46.16.69.69,0,0,1-.41-.22A.7.7,0,0,1,144.71,53.83Z"/><path class="fa7f3ca1-8528-429b-8644-e06f4e5654fd" d="M148.76,58.12l.16-.29a1.68,1.68,0,0,1,.18-.21,1.42,1.42,0,0,0,.24-.58,1.69,1.69,0,0,1,.29-.63.57.57,0,0,1,.46-.17,1,1,0,0,1,.46.16,2,2,0,0,1,.56,1,4.76,4.76,0,0,1,.27,1.2,1.18,1.18,0,0,0,.08.36,2.08,2.08,0,0,1,.11.33,1.15,1.15,0,0,0-.09.22l0,.48-.14.38v.28a1.06,1.06,0,0,0-.14.29.19.19,0,0,0,.05.14,1.89,1.89,0,0,0,.66-.38.61.61,0,0,1,.23-.18,1.15,1.15,0,0,0,.36-.3l.22-.12a2,2,0,0,0,.2-.25.45.45,0,0,1,.19-.15,1,1,0,0,0,.26-.17,4.29,4.29,0,0,1,.44-.26l.12-.14a1.27,1.27,0,0,1,.41-.32,1.11,1.11,0,0,1,.27-.11c.05,0,.11.07.16.21a1.11,1.11,0,0,1,.09.43.51.51,0,0,1-.23.39,2.21,2.21,0,0,0-.3.28.76.76,0,0,1-.38.16l-.38.48-.23.14-.12.15s-.12.06-.31.1c0,0,0,0-.06.11s-.11.13-.25.16a3.26,3.26,0,0,0-.43.44l-.24,0a.88.88,0,0,1-.12.27c-.18.05-.29.12-.31.23a.35.35,0,0,1-.12,0l0,0a1.24,1.24,0,0,1-.53.26l-.26.07-.1.14s-.09.09-.28.15a1.15,1.15,0,0,0-.43.23l-.19.15a1.25,1.25,0,0,0-.46.26H149a1.09,1.09,0,0,0-.51.24,1.1,1.1,0,0,1-.56.24A1.83,1.83,0,0,1,147,64a1.49,1.49,0,0,1-.41-.42,3.24,3.24,0,0,0-.29-.4.43.43,0,0,1-.14-.25s0-.1.11-.16a.78.78,0,0,0,.24-.33c.09-.17.3-.27.65-.32l.17-.07a.56.56,0,0,1,.24-.07c.08,0,.17.07.29.21s0,0,.05,0l.18,0a.46.46,0,0,0,.18.09.91.91,0,0,0,.59-.28l.05,0H149s.06-.07.12-.2l.19-.41.41-.52v-.12a.89.89,0,0,1,.07-.21v-.17c0-.07,0-.11.14-.13s.14-.07.14-.15l0-.09a.36.36,0,0,1-.1-.2l.12-.23,0-.25,0-.09a1,1,0,0,1,0-.19l0-.29-.06-.22c0-.14-.08-.21-.1-.21s-.19.12-.44.36a2.52,2.52,0,0,0-.45.51.57.57,0,0,1-.29.28.7.7,0,0,0-.31.27.34.34,0,0,1-.2.18l-.78.62-.85.63c-.06.07-.1.11-.12.11-.29,0-.43-.16-.43-.48a1.72,1.72,0,0,1,.18-.55l.12-.07,0,0s0,0,0,0l.07,0h0a3.56,3.56,0,0,1,.56-.33.5.5,0,0,0,.23-.26l.49-.35a7.22,7.22,0,0,0,.57-.51A3.11,3.11,0,0,0,148.76,58.12Z"/><path class="fa7f3ca1-8528-429b-8644-e06f4e5654fd" d="M156.68,53.16l.16,0L157,53h0l.11,0h0a1.15,1.15,0,0,0,.5-.11,1.74,1.74,0,0,1,.36-.16l.18-.07a.1.1,0,0,1,.06,0l.19,0c.06,0,.15-.11.25-.33a1.29,1.29,0,0,1,.35-.49,1.44,1.44,0,0,0,.4-.57,1.18,1.18,0,0,0,.11-.18c0-.08.07-.12.09-.12a.32.32,0,0,0,.28-.22c.23-.27.42-.41.57-.41s.33.19.4.56l.12.44a1.16,1.16,0,0,1-.06.17.89.89,0,0,0,0,.32,1.1,1.1,0,0,1,0,.21.37.37,0,0,0,0,.12c0,.06.07.09.2.09a.78.78,0,0,0,.26-.09l.07,0a.34.34,0,0,0,.19.07,1.75,1.75,0,0,0,.33-.11l.39-.13.28-.09h.14l.1,0a.47.47,0,0,0,.19-.1,1.36,1.36,0,0,1,.55-.12l.17-.07h0c.26,0,.39.11.39.34a.58.58,0,0,1-.11.24,1.64,1.64,0,0,0-.19.4l-.53.67a.71.71,0,0,1-.54.35s-.12-.1-.29-.31c0,0,0,0,0,0a.77.77,0,0,0-.25,0,.63.63,0,0,1-.21.05l-.61.17-.28,0-.23,0-.59.11a1.07,1.07,0,0,0-.48.57s0,.05-.11.11l-.53,1a.48.48,0,0,0-.34.31l0,.07a.38.38,0,0,0-.24.14,1.13,1.13,0,0,1-.19.19l-.21.32a3.18,3.18,0,0,0-.26.35,1.38,1.38,0,0,0-.19.41,1,1,0,0,1-.09.25.2.2,0,0,0,0,.13l0,.09a.45.45,0,0,0-.14.32l0,.18c-.11.37-.17.57-.17.6a.9.9,0,0,0,0,.12V59a1.6,1.6,0,0,1-.19.64l0,.19-.07.52a2.72,2.72,0,0,0,.07.39s0,.05,0,.07a1.13,1.13,0,0,0,.34.71,1.81,1.81,0,0,1,.34,1.22,1,1,0,0,1,0,.2,2.5,2.5,0,0,0-.05.29.62.62,0,0,1-.46.46c-.42,0-.72-.29-.93-.89a5.08,5.08,0,0,1-.3-1.15l0-.46-.07-.23.07-1,0-.24.27-1v-.36s.05-.08.16-.19,0,0,0,0-.11,0-.18.14a2,2,0,0,1-.3.27l-.09.16s-.05,0-.09-.05a2.86,2.86,0,0,0-.39.55.51.51,0,0,0-.38.28.43.43,0,0,1-.39.24l0,0q0,.33-.33.33l-.05,0c-.11.26-.23.39-.36.38a.79.79,0,0,1-.57.48.51.51,0,0,1-.2.21,1,1,0,0,0-.2.13.12.12,0,0,1-.1,0c-.1,0-.15-.1-.15-.32a.4.4,0,0,1,.07-.21.36.36,0,0,0,.08-.15s0-.06-.12-.14a.49.49,0,0,1,.19-.46.64.64,0,0,0,.28-.26.36.36,0,0,1,.23-.2q.18-.06.18-.15t.3-.33a2.59,2.59,0,0,0,.44-.42c.1-.12.17-.18.24-.18l0,0c0-.19.09-.29.22-.29l.12-.07,0-.09.07,0h.1l.06-.05a.55.55,0,0,1,.27-.45,6.3,6.3,0,0,0,.91-.92,4.75,4.75,0,0,0,.75-1,3.21,3.21,0,0,1,.3-.56,1.65,1.65,0,0,0,.24-.67l-.07-.09-.5.24s-.08-.06-.24-.1a.92.92,0,0,0-.25.21c-.06.07-.1.1-.13.1l-.16,0-.52.06a2.19,2.19,0,0,0-1,.28l-.48.14H154a.53.53,0,0,0-.28.11l-.27,0a1.42,1.42,0,0,1-.55.2l-.14,0-1.19.33a2.84,2.84,0,0,0-.62.48l-.1,0c-.08,0-.17-.09-.27-.26a.91.91,0,0,1-.16-.47c0-.77.66-1.22,2-1.34l.48-.19h0l.13,0h.05a.55.55,0,0,0,.22-.09,3.13,3.13,0,0,1,.67-.22l.48-.12.15,0a.48.48,0,0,0,.26-.09,1.08,1.08,0,0,1,.44-.14,1.82,1.82,0,0,0,.42-.08l.18,0a.6.6,0,0,0,.2-.08.68.68,0,0,1,.37-.08Z"/><path class="fa7f3ca1-8528-429b-8644-e06f4e5654fd" d="M161.47,58.94l.25-.2c.19,0,.29-.11.3-.29a.65.65,0,0,1,.39-.47l.14-.2a3.29,3.29,0,0,1,.95-.45,1.14,1.14,0,0,0,.27-.21,0,0,0,0,1,0,0l.19,0a1.12,1.12,0,0,0,.39-.08,1.54,1.54,0,0,1,.46-.08l.49,0a.55.55,0,0,1,.19.07.91.91,0,0,0,.35.07.64.64,0,0,1,.48.23.69.69,0,0,1,.21.43,1,1,0,0,1-.37.73,1.46,1.46,0,0,1-.59.42,1.21,1.21,0,0,1-.31.25.78.78,0,0,0-.21.17.3.3,0,0,1-.18.11.08.08,0,0,1-.07,0,.09.09,0,0,0-.07,0c-.12,0-.26.15-.41.45l-.21,0a.59.59,0,0,0-.25.28.24.24,0,0,1-.25.15c-.28.29-.48.43-.58.43a.56.56,0,0,1-.16-.05.4.4,0,0,0-.09.25c0,.09-.06.15-.19.16l-.15.14-.12,0-.23.24a.7.7,0,0,0-.36.12c0,.09,0,.21-.07.35a2.42,2.42,0,0,0,0,.24c0,.23.2.34.61.34l.56-.08a.73.73,0,0,0,.41-.12.88.88,0,0,1,.42-.11l.21-.05.11.05a.85.85,0,0,1,.31-.32.72.72,0,0,1,.35-.14l.11-.07a.3.3,0,0,1,.14-.18l.1-.09a.26.26,0,0,1,.17-.09h.16l.05,0a.58.58,0,0,1,.39-.36.4.4,0,0,0,.31-.17.34.34,0,0,1,.23-.14.37.37,0,0,0,.27-.15,1.35,1.35,0,0,1,.28-.25,1.93,1.93,0,0,0,.22-.18.19.19,0,0,1,.12-.06s.07,0,.07.11,0,.1,0,.1,0,0,0,0a.74.74,0,0,0,0-.12v-.08a.22.22,0,0,1,.18-.23l.53-.34c0-.16.06-.26.13-.29a.39.39,0,0,0,.17-.09.21.21,0,0,1,.13,0c.1,0,.15.06.15.17l-.06.31.06.31a.35.35,0,0,1-.11.19.8.8,0,0,0-.17.37c0,.17-.09.26-.15.28h-.07a.92.92,0,0,1-.34.26.4.4,0,0,0-.19.15l-.39.45-.2.21c-.06.06-.1.09-.13.09l-.09-.09s0,0-.05,0-.13,0-.15.14a.46.46,0,0,1-.12.24,1.31,1.31,0,0,0-.45.3l-.07,0h-.21c-.1,0-.17.07-.21.22a.35.35,0,0,1-.33.26.72.72,0,0,0-.39.14.19.19,0,0,1-.11,0,2,2,0,0,0-.32.19l-1,.35a.4.4,0,0,1-.15.05l-.33,0s-.09,0-.14-.09-.08-.1-.09-.1l-.21.07a1.5,1.5,0,0,1-.45.07.45.45,0,0,1-.25-.08l-.22-.11c-.23,0-.39-.18-.48-.53l-.14,0a3.53,3.53,0,0,1-.32-.83.34.34,0,0,0-.22-.13.21.21,0,0,1-.15-.23.9.9,0,0,1,.23-.71.78.78,0,0,0,.25-.27l.16-.6a.83.83,0,0,0,.12-.24l.27-.49C161.3,59.29,161.37,59.15,161.47,58.94Zm2.47-.7-.14.07a1.75,1.75,0,0,0-.28.2,2.55,2.55,0,0,1-.44.29,1.32,1.32,0,0,0-.44.58,3.11,3.11,0,0,0-.23.53c0,.05,0,.07.07.07l.4-.17a2.07,2.07,0,0,0,.41-.27,4.82,4.82,0,0,1,.55-.39l.1-.1s.08-.08.21-.17a1.27,1.27,0,0,0,.29-.23l.11,0a.84.84,0,0,1,.41-.38c.13,0,.2-.1.2-.14s-.07-.14-.22-.14a.56.56,0,0,0-.28.11h-.27a.94.94,0,0,0-.26.14Z"/><path class="fa7f3ca1-8528-429b-8644-e06f4e5654fd" d="M172.37,58.39l.33-.15a1.44,1.44,0,0,0,.31-.3l.41-.3a1.28,1.28,0,0,1,.45-.23l.19.07a.76.76,0,0,0,.14-.14.38.38,0,0,1,.29-.15,1,1,0,0,1,.57.31.85.85,0,0,1,.36.56l0,.4a3.86,3.86,0,0,0,.09.52v.1l-.05.28.05.29-.13.57c0,.14,0,.22.15.22a.76.76,0,0,1,.34-.22l.16-.17c.07-.06.11-.09.14-.09s.07,0,.13-.11a.42.42,0,0,1,.19-.16.28.28,0,0,0,.16-.16,2.86,2.86,0,0,1,1-.81s.08,0,.16-.12a.49.49,0,0,1,.18-.14l.26-.2.1.05h0a.73.73,0,0,0,.19-.12.48.48,0,0,1,.23-.11,1,1,0,0,1,.73.29c.19.2.29.35.29.46l-.06.27.08.36v.23l-.06.25a.4.4,0,0,0,.1.2.35.35,0,0,1,.1.17c-.09.1-.14.17-.14.2l0,.21-.06.64a.61.61,0,0,0,.15.27l.2-.09a.66.66,0,0,0,.2-.07l.07,0h0l.14,0h0c.07,0,.1-.06.11-.18a.35.35,0,0,1,.23-.29l.28,0a2.08,2.08,0,0,0,.1-.19,1.65,1.65,0,0,1,.49-.5,1.15,1.15,0,0,1,.63-.34c.12,0,.18.06.18.17a1.35,1.35,0,0,1,0,.24.6.6,0,0,1,.09.28c0,.15-.13.31-.38.48a1.67,1.67,0,0,0-.57.64l0,.05-.23,0s0,.06-.11.18a.36.36,0,0,1-.21.21.3.3,0,0,0-.16.07l-.24.15a5,5,0,0,0-.46.47,1,1,0,0,1-.66.42,1.38,1.38,0,0,1-.42-.12,1,1,0,0,1-.4-.25,2.85,2.85,0,0,0-.3-.29.78.78,0,0,1-.19-.62.21.21,0,0,1,.06-.08s.07-.07.07-.09a1.06,1.06,0,0,1-.27-.5.77.77,0,0,1,0-.15.44.44,0,0,0,0-.15l0-.41,0-.21,0-.13.07-.59c0-.1,0-.14-.16-.14s-.07,0-.13.09a.62.62,0,0,1-.2.15c-.08,0-.17.14-.26.33a.8.8,0,0,0-.29.22c0,.08-.09.11-.12.11a.18.18,0,0,1-.09,0,.24.24,0,0,0-.14.21v0l0,.09c0,.07-.06.14-.18.2a1.5,1.5,0,0,0-.43.48.32.32,0,0,0-.16,0l-.14.28a.74.74,0,0,0-.22.24l-.14.07c-.06.1-.11.19-.16.26l-.07.13c-.34.39-.57.59-.7.59s-.3-.17-.48-.52a1.87,1.87,0,0,1-.28-.82l0-.43a.85.85,0,0,0-.09-.18v-.05a1.8,1.8,0,0,1,.09-.27v-.35a.12.12,0,0,0,0-.07v-.06l.09-.18-.07-.34.05-.19,0-.4,0-.36a.28.28,0,0,0-.06-.13c0-.06-.07-.08-.09-.08a1.92,1.92,0,0,0-.48.26,3.16,3.16,0,0,0-.54.42c-.09.1-.22.22-.37.36a.79.79,0,0,0-.34.6s0,0,0,0,0,0-.07-.05h0s-.16.17-.36.5l-.05.05-.22-.05c-.19,0-.28.2-.28.6,0,.07-.05.11-.14.14a.33.33,0,0,0-.23.2,1.89,1.89,0,0,1-.22.33,1,1,0,0,0-.31.18l-.25.35a2.65,2.65,0,0,0-.28.39.38.38,0,0,1-.16.14c-.09,0-.14.09-.14.13l0,.2q0,.18-.36.18c-.47,0-.7-.48-.7-1.45a.71.71,0,0,1,.14-.37,2.76,2.76,0,0,0,.29-.49,5.18,5.18,0,0,0,.52-.64,4.87,4.87,0,0,1,.46-.57l.15-.25a.33.33,0,0,1,.06-.21.23.23,0,0,0,0-.17c0-.13,0-.19-.09-.19a.54.54,0,0,0-.35.11.66.66,0,0,1-.28.16.3.3,0,0,0-.21.16,1,1,0,0,0-.34.3,2.39,2.39,0,0,1-.24.28,1.11,1.11,0,0,0-.11.16.16.16,0,0,1-.13.11.28.28,0,0,0-.15.08.29.29,0,0,1-.22.07c-.07,0-.14-.07-.2-.21a1.43,1.43,0,0,1-.08-.26c0-.57.37-1.06,1.13-1.47a1.24,1.24,0,0,0,.24-.16.46.46,0,0,1,.18-.13l0-.08a1.84,1.84,0,0,1,.7-.4H170l.79-.2c.33-.07.5.3.5,1.13l0,.21.05.1a4,4,0,0,1,.4-.34,1.16,1.16,0,0,0,.3-.26A1.06,1.06,0,0,1,172.37,58.39Z"/><path class="fa7f3ca1-8528-429b-8644-e06f4e5654fd" d="M195.4,48.63l.07-.11a.26.26,0,0,1,.25-.15l.18,0a.08.08,0,0,1,0-.07.13.13,0,0,1,.14-.14h.05l.27-.07.8-.09a2.44,2.44,0,0,1,.72.14H198l.31.09a.7.7,0,0,0,.31.22c.06,0,.09,0,.09.07a1,1,0,0,0,.29.28l.34.36,0,.1c.07.11.14.24.23.36a1.11,1.11,0,0,1,.13.61l0,.14c.08,0,.12.08.12.11l-.07.42v.36a1,1,0,0,1-.06.38,1.06,1.06,0,0,0-.06.37.9.9,0,0,1-.17.25v0l.05.32s0,.08-.1.15-.11.12-.11.16a.5.5,0,0,1-.13.38,1.18,1.18,0,0,1-.28.61,2,2,0,0,0-.33.62,2.24,2.24,0,0,1-.32.65c-.06.2-.1.34-.13.42a.69.69,0,0,1-.25.32.66.66,0,0,0-.21.51.59.59,0,0,1-.33.35l-.26.24v.14a.8.8,0,0,1-.28.52l-.4.82a.36.36,0,0,1-.3.23l-.05.05a1,1,0,0,1-.11.44,1.8,1.8,0,0,0-.18.25l-.17.25a1.3,1.3,0,0,0-.18.34,1.29,1.29,0,0,1-.26.42l-.12.25v.1c0,.21-.07.31-.21.31l-.13,0h0a1.29,1.29,0,0,1,.07.36,4.45,4.45,0,0,1-.33.73l0,.18v.18a1.19,1.19,0,0,0-.24.34.35.35,0,0,1-.18.2c-.09,0-.13.06-.13.08l.05.07v.05l-.08.36.05.43a.77.77,0,0,1-.1.24.79.79,0,0,1,.38.6c0,.33-.13.53-.4.59h-.07l-.24,0a1,1,0,0,1-.57-.11,3.66,3.66,0,0,1-.4-.36l-.15-.1a.32.32,0,0,1-.12-.17l-.12-.12a1.58,1.58,0,0,1-.24-1,.24.24,0,0,1,.1-.16l0-.07,0-.22s.09-.29.26-.76l.34-.69a2.86,2.86,0,0,1,.38-.67,2.38,2.38,0,0,1,.12-.43l.07-.05a.69.69,0,0,1,.18-.35,1.33,1.33,0,0,0,.23-.46c.1,0,.16,0,.16-.07a.51.51,0,0,0,0-.09v0a.5.5,0,0,1,.16-.37.84.84,0,0,0,.25-.37.88.88,0,0,1,.2-.32,1,1,0,0,0,.2-.37.39.39,0,0,1,.23-.12c.1,0,.15-.07.15-.11a1.07,1.07,0,0,0-.1-.23,3.78,3.78,0,0,1,.68-1.11,1.1,1.1,0,0,0,.09-.23.35.35,0,0,1,.18-.23,2.63,2.63,0,0,1,.31-.65,5.88,5.88,0,0,0,.32-.56c.1-.21.21-.31.35-.31l.05-.07,0-.25s0-.08.1-.22.12-.22.18-.23a.47.47,0,0,0,.19-.19l-.09-.18a.36.36,0,0,0,.08-.12s.05-.08.08-.08c.2-.11.3-.23.3-.35a.64.64,0,0,0,0-.15V52.8s.07-.15.22-.31a.84.84,0,0,0,.21-.57.79.79,0,0,1,.14-.31.39.39,0,0,0,.12-.23.27.27,0,0,1,.07-.17l-.05-.29a1.17,1.17,0,0,0,.22-.62.42.42,0,0,0,0-.12.43.43,0,0,1-.06-.24s-.05-.11-.13-.19l0-.12a1.26,1.26,0,0,1-.46-.23,1,1,0,0,0-.59-.1l-.21,0-.17,0a.24.24,0,0,1-.12,0h0l-.12,0a1.38,1.38,0,0,0-.55.16,1.71,1.71,0,0,1-.47.15.51.51,0,0,0-.49.21c-.08.13-.14.2-.19.2l-.12,0h0c-.06,0-.12.1-.16.32l0,0a3.35,3.35,0,0,0-.72.52l-.76.79a1.81,1.81,0,0,0-.42.53.53.53,0,0,1-.24.27,1.22,1.22,0,0,0-.18.47.58.58,0,0,1-.13.42c-.09.07-.13.13-.13.18a.29.29,0,0,0,0,.09,2,2,0,0,1,.1.26V54a.37.37,0,0,1-.09.25c-.06.07-.09.11-.09.13a1.06,1.06,0,0,0,.21.24c.13.14.2.24.2.3a.79.79,0,0,1-.27.58.87.87,0,0,1-.58.26.6.6,0,0,1-.42-.13c-.11-.08-.16-.34-.16-.78l0-.3.11-.34,0-.36a2.69,2.69,0,0,1,.22-.4,3.16,3.16,0,0,0,.28-.52,2.32,2.32,0,0,1,.64-1.06.18.18,0,0,0,.1-.16.42.42,0,0,1,.14-.31s.05-.1.16-.19a.52.52,0,0,0,.2-.3.28.28,0,0,1,.21-.2c.12,0,.19-.14.24-.32a2.15,2.15,0,0,1,.64-.52.85.85,0,0,1,.41-.41l.31-.21.07-.11a.52.52,0,0,1,.19-.12.87.87,0,0,0,.22-.17,1.39,1.39,0,0,1,.43-.17Z"/><path class="fa7f3ca1-8528-429b-8644-e06f4e5654fd" d="M207.76,61.39h.05l.12,0,0,0a.39.39,0,0,1,.19-.34.56.56,0,0,1,.26-.34l.65-.38.29-.26.14-.07.09-.12a.36.36,0,0,1,.25-.15c.12,0,.17.05.17.13l-.1.23.05.39a.53.53,0,0,1-.15.37l-.45.48-.59.63-.32.16a1.16,1.16,0,0,0-.21.16l-.45.39a.28.28,0,0,1-.11.24h-.18l-.1.05a.94.94,0,0,1-.48.43l-.16.11a.21.21,0,0,1-.15.07l-.33,0-.22,0a.58.58,0,0,1-.25-.09,1.3,1.3,0,0,0-.32-.14,1,1,0,0,1-.41-.43,2.33,2.33,0,0,1-.28-.5.38.38,0,0,0-.05-.16.58.58,0,0,1-.05-.13,1.07,1.07,0,0,1,.1-.23v0a.67.67,0,0,0-.06-.16.71.71,0,0,1-.06-.31.89.89,0,0,0-.07-.27.26.26,0,0,0,.09-.14.33.33,0,0,0,0-.14.39.39,0,0,1,0-.13l.07-.57,0-.29,0-.28q0-.24-.21-.24a.41.41,0,0,0-.24.12l-.08,0a2.5,2.5,0,0,0-.44.25.44.44,0,0,1-.26.1.69.69,0,0,1-.27.12l-.09.07-.19.14a1.93,1.93,0,0,1-.43.39c-.29.24-.56.46-.79.67a1.44,1.44,0,0,1-.5.35c-.11,0-.16.12-.16.29s-.07.1-.21.19a2.63,2.63,0,0,0-.24.26.64.64,0,0,0-.21-.14c-.1,0-.18.12-.22.38,0,.1-.17.16-.38.19a.48.48,0,0,0-.08.17l0,.05h-.12s-.07,0-.16.13a.73.73,0,0,1-.25.17c-.1.21-.19.31-.26.31a.3.3,0,0,1-.13,0,.93.93,0,0,0-.22-.08.64.64,0,0,1-.28-.29.82.82,0,0,1-.16-.42c0-.86.17-1.33.5-1.41l0,0v-.09a.23.23,0,0,1,.13-.22.77.77,0,0,0,.27-.25,1.33,1.33,0,0,1,.19-.22h.15s0-.08,0-.24a.18.18,0,0,1,.06-.13.38.38,0,0,0,.07-.17,1,1,0,0,1,.16-.36,1.06,1.06,0,0,0,.16-.3l0,0a1.47,1.47,0,0,1-.42.29c-.09,0-.2.12-.35.33l-.19,0a4.15,4.15,0,0,1-.6.41.63.63,0,0,0-.26.26.11.11,0,0,1-.08.1,1.07,1.07,0,0,0-.3.18h-.07q-.3,0-.3-.42l.25-.66a1,1,0,0,1,.49-.53,5.94,5.94,0,0,0,.66-.41,1,1,0,0,1,.53-.21l.09-.12a.89.89,0,0,0,.53-.47c.09-.22.22-.33.38-.33a1.13,1.13,0,0,1,1,.47,1.46,1.46,0,0,1,.34.75l0,.32a1.9,1.9,0,0,1-.07.45.7.7,0,0,0-.14.31c0,.07,0,.1.12.1a.39.39,0,0,0,.19-.1,1,1,0,0,1,.26-.18.53.53,0,0,0,.17-.14.64.64,0,0,1,.4-.39,1,1,0,0,0,.36-.17l.12-.09.09-.18a1.42,1.42,0,0,0,.42-.25.52.52,0,0,1,.28-.16,1,1,0,0,0,.4-.2l.17,0,.16-.09a.31.31,0,0,1,.14-.06l.35-.13a1.33,1.33,0,0,1,.3-.08,1.11,1.11,0,0,1,.94.47,1.47,1.47,0,0,1,.34.77l0,.21,0,.32v0l-.1.64,0,.22a1,1,0,0,1-.24.76s0,.06,0,.12v.1l.23.49c.07.17.12.26.16.26l.38-.11a.46.46,0,0,0,.26-.24,1.76,1.76,0,0,0,.33-.28C207.59,61.46,207.66,61.39,207.76,61.39Z"/><path class="fa7f3ca1-8528-429b-8644-e06f4e5654fd" d="M208.29,66.79l.12-.25.07-.29s0-.08.11-.14a.26.26,0,0,0,.11-.17,4.81,4.81,0,0,1,.57-1.47l.28-.7a.62.62,0,0,1,.22-.38c.11-.09.17-.17.17-.24s-.08-.11-.24-.2-.24-.18-.24-.25.25-.23.77-.46a1,1,0,0,1,.35-.68.23.23,0,0,0,.08-.17.88.88,0,0,1,.11-.45l.1-.27a.89.89,0,0,1,.19-.31.48.48,0,0,0,.14-.33v-.09c-.1,0-.24.12-.43.39-.19,0-.35.15-.47.43a.55.55,0,0,1-.43.32.84.84,0,0,1-.51.38c-.16-.1-.24-.18-.24-.25l.1-.73c0-.16.4-.57,1.19-1.22.05,0,.2-.14.46-.44l.64-.72c.35-.35.61-.61.79-.77a2.9,2.9,0,0,0,.5-1,1.85,1.85,0,0,0,.4-.86,5,5,0,0,1,.32-1,1.72,1.72,0,0,0,.16-.44,11,11,0,0,1,.69-1.77l.12-.38.17-.14a1.79,1.79,0,0,0,.05-.36q.12,0,.27-.51a1.77,1.77,0,0,1,.28-.64,1,1,0,0,0,.18-.37.71.71,0,0,1,.29-.38.77.77,0,0,1,.48-.2s.15.08.27.24a1.1,1.1,0,0,1,.24.55c0,.21.05.35.06.42a1.24,1.24,0,0,1,0,.3l0,.33a4.42,4.42,0,0,1-.1.6c-.06.33-.1.57-.13.71a.36.36,0,0,1-.24.29c-.13,0-.2.09-.2.14s0,.08.1.11.09,0,.09.06a1.14,1.14,0,0,1-.13.31.81.81,0,0,1-.25.33,1.5,1.5,0,0,1,.07.17,1.69,1.69,0,0,1-.17.36,2.25,2.25,0,0,1-.28.42,1.22,1.22,0,0,0-.21.47,1.06,1.06,0,0,1-.53.63,1.35,1.35,0,0,0-.29.54.67.67,0,0,1-.35.46l-.15.22v0a.76.76,0,0,1-.12.38,4.82,4.82,0,0,0-.23.5,1.1,1.1,0,0,1-.22.38,1.44,1.44,0,0,1-.17.48,1.49,1.49,0,0,0-.14.38l-.08.09c-.15,0-.23.1-.23.22l0,.26s-.07.14-.21.38l-.05.24a.57.57,0,0,1-.22.39.55.55,0,0,0-.21.43l0,.28a.13.13,0,0,0,0,.07.54.54,0,0,0,.14-.13l.18.06c.05,0,.09,0,.14-.1a.38.38,0,0,1,.2-.14l0,0c0-.11.09-.17.17-.18a.29.29,0,0,0,.2-.11c.05-.07.09-.1.13-.1l.16.09h0l.11,0,0-.19a.14.14,0,0,1,.11-.15.23.23,0,0,0,.15-.12l.43-.28a1.11,1.11,0,0,0,.41-.25.85.85,0,0,1,.29-.19.82.82,0,0,0,.25-.14.62.62,0,0,1,.39-.11,3.31,3.31,0,0,1,.52-.4l.09-.13.1,0a1.12,1.12,0,0,0,.18-.14.29.29,0,0,1,.2-.12.2.2,0,0,1,.23.23.7.7,0,0,1-.35.62l0,0c0,.31-.13.47-.29.47s-.08.07-.16.2l-.15,0a1.18,1.18,0,0,1-.24.26h-.07a6.72,6.72,0,0,0-1.5,1.08.47.47,0,0,1-.11.1l-.22,0a1.25,1.25,0,0,1-.14.24,1.12,1.12,0,0,0-.39.22,2.16,2.16,0,0,1-.3.21.53.53,0,0,0-.19.15.37.37,0,0,1-.22.16l-.15.14h-.07a.35.35,0,0,0-.22.12.31.31,0,0,0-.14.22.48.48,0,0,0,.11.18c.06,0,.28.19.65.71a2.56,2.56,0,0,1,.56,1.48,1,1,0,0,1-.16.68c-.1.11-.16.18-.16.23a1.82,1.82,0,0,0,0,.27v0a.14.14,0,0,1-.14.14c-.09,0-.14,0-.15.1V67l0,.14c-.1,0-.21.23-.31.55a1.55,1.55,0,0,1-.51.4l0,.05,0,.31a.22.22,0,0,1-.1.19,2.11,2.11,0,0,0-.29.3,1.15,1.15,0,0,1-.36.32.48.48,0,0,1-.18.31,1.39,1.39,0,0,0-.28.27l-.07.05c-.07,0-.13.1-.19.25l-.1,0a1.32,1.32,0,0,1-.32.41.91.91,0,0,0-.22.22l-.19.12a1.61,1.61,0,0,1-.43.48s-.05,0-.09-.07h0s-.06,0-.08.09a.51.51,0,0,1-.13.18,1.22,1.22,0,0,0-.19.23l0,0c-.1,0-.26.13-.48.4a.94.94,0,0,0-.38.17c-.17.18-.28.27-.34.27l-.26-.19A.74.74,0,0,1,207,72a.38.38,0,0,0-.14-.24c0-.09,0-.21-.05-.38v-.1a.71.71,0,0,1,.1-.33l.06-.24a.52.52,0,0,1,.07-.15,1.09,1.09,0,0,0,.14-.33,5.14,5.14,0,0,1,.2-.55l0-.11c.08-.37.15-.56.21-.55s.09-.27.14-.46.07-.36.09-.48a.45.45,0,0,1,.17-.3Zm2.42-2.23,0,.5a2.49,2.49,0,0,1-.19.45,3.52,3.52,0,0,0-.25.64c0,.17-.12.25-.26.25h-.11a.16.16,0,0,0,0,.09l0,.26a3.38,3.38,0,0,1-.08.53.82.82,0,0,1-.24.49l-.07.08a2.12,2.12,0,0,1-.18.56c-.1.25-.19.45-.26.59a2,2,0,0,0-.16.54.87.87,0,0,1-.15.41c-.05.22-.1.4-.14.54s-.11.34-.18.58a.08.08,0,0,0,.07,0s.11-.08.18-.25a.26.26,0,0,1,.15-.07c.08,0,.14-.09.2-.25l0,0a.27.27,0,0,0,.19-.14.22.22,0,0,1,.12-.13.67.67,0,0,0,.17-.12l.08,0a.22.22,0,0,0,.08-.13.48.48,0,0,1,.08-.16H210l.05,0a1,1,0,0,1,.23-.48.63.63,0,0,0,.2-.26.6.6,0,0,1,.17-.23.6.6,0,0,0,.15-.31,1.6,1.6,0,0,0,.26-.38.66.66,0,0,1,.17-.23l0-.08,0-.14v0a1.34,1.34,0,0,1,.28-.47,2.18,2.18,0,0,0,.34-.62c0-.17.09-.3.13-.4a1.69,1.69,0,0,0,.09-.34.86.86,0,0,1,.13-.32.54.54,0,0,0,.09-.33,1.88,1.88,0,0,0-.32-.91s0-.06,0-.14-.09-.17-.23-.27a.56.56,0,0,0-.29-.16l-.1.05-.14.07c-.08,0-.12.1-.12.22V64l0,.25Q211,64.4,210.71,64.56Z"/><path class="fa7f3ca1-8528-429b-8644-e06f4e5654fd" d="M221.17,62.46l-.55.48a.14.14,0,0,0-.09,0c-.08,0-.18.07-.29.21s-.19.21-.24.21l-.11,0a2,2,0,0,1-.42.26,1.38,1.38,0,0,0-.31.12.8.8,0,0,1-.33.11.38.38,0,0,0-.24.1.71.71,0,0,1-.45.09l-.19,0a.57.57,0,0,1-.2.07.27.27,0,0,1-.19-.1.45.45,0,0,0-.23-.11.4.4,0,0,1-.25-.16,1,1,0,0,0-.24-.21.46.46,0,0,1-.18-.16l-.16-.14a1.47,1.47,0,0,1-.39-.51,1.56,1.56,0,0,1-.19-.59v0l0-.22,0-.26a.64.64,0,0,0,.12-.2v-.37l.28-.93s0-.09-.09-.15a.57.57,0,0,1-.24.21.21.21,0,0,0-.15.16c0,.08-.08.13-.14.13l-.14,0a1.49,1.49,0,0,0-.11.24.28.28,0,0,1-.28.21c-.14,0-.21,0-.21-.16l0-.21-.08-.29a1.11,1.11,0,0,1,.19-.37.73.73,0,0,1,.35-.31.45.45,0,0,0,.26-.22,1.85,1.85,0,0,1,.49-.44.57.57,0,0,0,.36-.3,1.18,1.18,0,0,1,.42-.21.76.76,0,0,0,.4-.24,3.45,3.45,0,0,1,.79-.49,2.52,2.52,0,0,1,1-.33,1.08,1.08,0,0,0,.25,0l.31-.1a1.38,1.38,0,0,0,.29-.12.51.51,0,0,1,.24-.09l.34.12a3.41,3.41,0,0,1,.46.15,1.16,1.16,0,0,0,.23.1,2.22,2.22,0,0,1,.45.2.51.51,0,0,1,.23.48,1.79,1.79,0,0,0-.2.31s.09.08.27.14a4.06,4.06,0,0,0,.28.46l.12.4,0,1,0,.09q-.12.12-.12.15l0,.23-.09.33a.34.34,0,0,1-.12.2.21.21,0,0,0-.1.11l-.07.1a1.12,1.12,0,0,0-.1.2.9.9,0,0,1-.17.26.51.51,0,0,0-.12.23.23.23,0,0,1-.12.18.51.51,0,0,0-.13.12A.28.28,0,0,1,221.17,62.46Zm-3.62.31,0,.26,0,0h.19l.05,0a2.2,2.2,0,0,0,.35.05.89.89,0,0,0,.58-.18.59.59,0,0,1,.34-.18c.08,0,.16-.06.21-.18a.62.62,0,0,1,.11-.17h.17l0,0a.4.4,0,0,1,.24-.38.74.74,0,0,0,.34-.31.85.85,0,0,1,.22-.29.48.48,0,0,0,.18-.26l.09-.14a.26.26,0,0,0,.05-.18l.22-.42a1.83,1.83,0,0,0,.07-.45.41.41,0,0,0-.25-.38.58.58,0,0,1-.25-.55.63.63,0,0,1,.27-.49c.18-.16.28-.25.28-.28a.07.07,0,0,0-.07-.07l-.27.09a1.84,1.84,0,0,1-.83.44l-.26-.12c-.05,0-.1,0-.14.14a1,1,0,0,1-.14.2h-.15s-.07.05-.15.15a.43.43,0,0,1-.33.15l-.14.14a.48.48,0,0,1-.23.38l-.13.15a4.09,4.09,0,0,1-.3.33l-.21.52a1.3,1.3,0,0,0-.13.46.41.41,0,0,1-.15.14.22.22,0,0,0-.13.2l.08.11a.26.26,0,0,1,.09.14l-.05.15,0,.43Z"/><path class="fa7f3ca1-8528-429b-8644-e06f4e5654fd" d="M225.92,58l.17-.05.07-.15a3.15,3.15,0,0,0,.82-.64.22.22,0,0,1,.1-.09.89.89,0,0,0,.18-.17,1.4,1.4,0,0,1,1-.43c.47,0,.71.29.74.85l.07.18a4.34,4.34,0,0,1,.27.66,3.31,3.31,0,0,1,.17.62,1.2,1.2,0,0,1-.2.63,4.11,4.11,0,0,0-.78.87l-.12.08a2.25,2.25,0,0,1-.24.42c-.16.06-.24.11-.24.18v.21a.2.2,0,0,1,0,.09,1.49,1.49,0,0,0-.14.27l-.1.14a.47.47,0,0,0-.09.19,1.26,1.26,0,0,1-.13.26.35.35,0,0,0-.09.19c0,.11.15.17.45.17a.62.62,0,0,0,.18-.07l.16.05s.05,0,.12-.08a.67.67,0,0,1,.28-.12,1.16,1.16,0,0,0,.34-.14,1.42,1.42,0,0,1,.35-.16,1.59,1.59,0,0,0,.39-.23,1.33,1.33,0,0,1,.37-.23,1,1,0,0,0,.33-.21,3.44,3.44,0,0,1,.36-.28,4.44,4.44,0,0,0,.63-.56,1.48,1.48,0,0,1,.38-.24s.08-.1.2-.31a.52.52,0,0,1,.42-.31.21.21,0,0,1,.24.24.37.37,0,0,1-.11.24v.07l0,.19a.22.22,0,0,1,0,.1.26.26,0,0,1-.09.14.67.67,0,0,0-.12.24c0,.1-.09.16-.22.19s-.11.27-.18.29a1,1,0,0,0-.31.24A5.54,5.54,0,0,1,231,62a4.8,4.8,0,0,0-.49.41q-.13.15-.18.15a.21.21,0,0,1-.09,0,.22.22,0,0,0-.1,0s-.08,0-.09.16l-.05.12-.17.09-.07,0h0c-.09,0-.14,0-.14.1l.07.12v0c0,.11-.06.16-.18.16a2.61,2.61,0,0,0-.75.43l-.34.07-.28.16a.54.54,0,0,0-.17-.09l-.19.06-.33,0-.43-.24a1,1,0,0,1-.49-.46,4,4,0,0,0-.21-.47.81.81,0,0,1-.13-.34,2.45,2.45,0,0,1,.09-.79,3.68,3.68,0,0,0,.12-.36.55.55,0,0,1,.13-.25.91.91,0,0,0,.18-.44,5.18,5.18,0,0,1,.47-.82,1.31,1.31,0,0,0,.2-.37l.15-.21a1.08,1.08,0,0,0,.07-.18c0-.11.07-.17.11-.18a.56.56,0,0,0,.1-.21c0-.23-.1-.34-.31-.34,0,0-.08,0-.12.12a.8.8,0,0,1-.32.24,2,2,0,0,0-.31.17,1.14,1.14,0,0,1-.25.15,1,1,0,0,0-.34.27l-.19.1c-.06.14-.12.22-.17.24l-.43.12a.53.53,0,0,0-.11.14.33.33,0,0,1-.27.12c-.09.1-.19.21-.28.33a1.08,1.08,0,0,0-.25.09l-.23.06a1.11,1.11,0,0,0-.2.22.5.5,0,0,1-.42.15c-.11,0-.17-.09-.17-.28a1.1,1.1,0,0,1,.4-.9,1.37,1.37,0,0,1,.59-.36.28.28,0,0,0,.23-.14.39.39,0,0,1,.23-.2,1.35,1.35,0,0,0,.42-.33,1.17,1.17,0,0,1,.52-.36Z"/><path class="fa7f3ca1-8528-429b-8644-e06f4e5654fd" d="M237,58.39l.32-.15a1.27,1.27,0,0,0,.32-.3l.41-.3a1.28,1.28,0,0,1,.45-.23l.19.07a.76.76,0,0,0,.14-.14.36.36,0,0,1,.29-.15,1,1,0,0,1,.57.31.85.85,0,0,1,.36.56l-.05.4a3.08,3.08,0,0,0,.1.52v.1l0,.28,0,.29-.13.57c0,.14.05.22.15.22a.72.72,0,0,1,.34-.22l.16-.17a.26.26,0,0,1,.14-.09s.07,0,.12-.11a.48.48,0,0,1,.19-.16.27.27,0,0,0,.17-.16,2.86,2.86,0,0,1,1-.81s.08,0,.16-.12a.49.49,0,0,1,.18-.14l.25-.2.11.05h0a.73.73,0,0,0,.19-.12.45.45,0,0,1,.23-.11,1,1,0,0,1,.73.29c.19.2.28.35.28.46l-.06.27.09.36v.23l-.06.25a.4.4,0,0,0,.1.2.46.46,0,0,1,.1.17c-.1.1-.14.17-.14.2l0,.21-.06.64a.61.61,0,0,0,.15.27,1,1,0,0,1,.2-.09.77.77,0,0,0,.2-.07l.07,0h0l.14,0h.05c.06,0,.1-.06.11-.18a.33.33,0,0,1,.23-.29l.28,0,.09-.19a1.78,1.78,0,0,1,.49-.5,1.2,1.2,0,0,1,.64-.34c.12,0,.18.06.18.17a1,1,0,0,1,0,.24.53.53,0,0,1,.1.28c0,.15-.13.31-.38.48a1.78,1.78,0,0,0-.58.64l0,.05-.23,0s-.06.06-.12.18a.32.32,0,0,1-.2.21.27.27,0,0,0-.16.07l-.25.15s-.2.19-.46.47a1,1,0,0,1-.65.42,1.38,1.38,0,0,1-.42-.12,1,1,0,0,1-.41-.25,3.92,3.92,0,0,0-.29-.29.78.78,0,0,1-.2-.62L243,62s.06-.07.06-.09a1.06,1.06,0,0,1-.27-.5.4.4,0,0,1,0-.15,1,1,0,0,0,0-.15l0-.41,0-.21,0-.13.07-.59c0-.1-.05-.14-.16-.14a.21.21,0,0,0-.13.09.62.62,0,0,1-.2.15c-.09,0-.17.14-.27.33a.75.75,0,0,0-.28.22c-.05.08-.09.11-.12.11l-.1,0a.26.26,0,0,0-.14.21v0l0,.09c0,.07-.06.14-.18.2a1.39,1.39,0,0,0-.43.48.32.32,0,0,0-.16,0l-.14.28a.74.74,0,0,0-.22.24l-.14.07a2,2,0,0,1-.17.26l-.07.13c-.33.39-.57.59-.7.59s-.29-.17-.48-.52a2,2,0,0,1-.27-.82l0-.43a.85.85,0,0,0-.09-.18v-.05a1.8,1.8,0,0,1,.09-.27v-.35l0-.07v-.06l.09-.18-.07-.34,0-.19,0-.4,0-.36a.28.28,0,0,0-.06-.13c0-.06-.07-.08-.09-.08a1.92,1.92,0,0,0-.48.26,3.16,3.16,0,0,0-.54.42l-.37.36c-.17.08-.28.28-.34.6,0,0,0,0-.05,0s0,0-.07-.05h0s-.16.17-.36.5l-.05.05-.22-.05c-.19,0-.28.2-.28.6,0,.07,0,.11-.15.14a.33.33,0,0,0-.22.2,2.7,2.7,0,0,1-.22.33,1,1,0,0,0-.31.18l-.25.35a3.24,3.24,0,0,0-.29.39s-.06.09-.15.14-.14.09-.14.13l0,.2q0,.18-.36.18c-.47,0-.7-.48-.7-1.45a.64.64,0,0,1,.14-.37,3.53,3.53,0,0,0,.29-.49,6.31,6.31,0,0,0,.52-.64,5.09,5.09,0,0,1,.45-.57l.16-.25a.33.33,0,0,1,.05-.21.24.24,0,0,0,.06-.17c0-.13,0-.19-.09-.19a.52.52,0,0,0-.35.11.69.69,0,0,1-.29.16.3.3,0,0,0-.2.16,1,1,0,0,0-.34.3,2.39,2.39,0,0,1-.24.28.64.64,0,0,0-.11.16c0,.07-.08.11-.14.11a.37.37,0,0,0-.15.08.28.28,0,0,1-.22.07c-.07,0-.13-.07-.19-.21a1.08,1.08,0,0,1-.09-.26c0-.57.38-1.06,1.13-1.47a1.24,1.24,0,0,0,.24-.16.68.68,0,0,1,.18-.13l.05-.08a1.75,1.75,0,0,1,.7-.4h.16l.78-.2c.34-.07.5.3.5,1.13l0,.21,0,.1a3.14,3.14,0,0,1,.4-.34,1.65,1.65,0,0,0,.3-.26A1.06,1.06,0,0,1,237,58.39Z"/><path class="fa7f3ca1-8528-429b-8644-e06f4e5654fd" d="M256.13,60.67l.19-.16a.18.18,0,0,0,.2-.16.41.41,0,0,1,.25-.25,1,1,0,0,0,.41-.38c.12-.19.25-.28.38-.28a.27.27,0,0,1,.16.11.35.35,0,0,1,.09.19,1.52,1.52,0,0,1-.23.79l-.05.33-.08.15a.48.48,0,0,0-.22.2.9.9,0,0,1-.28.25l-.11.17a.52.52,0,0,0-.35.26.31.31,0,0,1-.24.21.69.69,0,0,0-.35.24l-.28.1,0,.12a.86.86,0,0,1-.36.18,1.72,1.72,0,0,0-.38.14.43.43,0,0,1-.17.06.9.9,0,0,1-.4-.09,1.9,1.9,0,0,0-.39-.11.28.28,0,0,1-.08-.15.59.59,0,0,0-.12-.21.65.65,0,0,1-.1-.37l.05-.22a.22.22,0,0,0-.06-.12.17.17,0,0,1-.06-.11.12.12,0,0,1,0-.07.09.09,0,0,0,0-.07.31.31,0,0,0,0-.13.74.74,0,0,1,0-.12l.07-.57c0-.05,0-.07,0-.07s-.08,0-.17.12a.37.37,0,0,1-.28.11.59.59,0,0,0-.15.3,1.14,1.14,0,0,1-.23.2l-.05.07c0,.06-.08.1-.18.14a.42.42,0,0,0-.21.13l-.11.12-.22,0a.91.91,0,0,0-.13.2,1,1,0,0,1-.27.3l-.88.72c-.1.06-.23.14-.41.23l-.07.07a3.08,3.08,0,0,1-1.32.62,1.89,1.89,0,0,1-.73-.18q-.42-.16-.45-.42l-.12-.47a.84.84,0,0,1-.11-.46.36.36,0,0,1,0-.18v-.07l0-.39c0-.09.08-.14.23-.14l0-.31a3.87,3.87,0,0,1,.48-.74l.12-.15a.35.35,0,0,1,.16-.29,1.94,1.94,0,0,0,.28-.32,1.39,1.39,0,0,1,.39-.36l.35-.35a4,4,0,0,1,.89-.66,1,1,0,0,0,.29-.23,1.32,1.32,0,0,1,.49-.31,2.84,2.84,0,0,0,.53-.25.93.93,0,0,1,.42-.15h.09a5.32,5.32,0,0,0,.62-.29h.07a.78.78,0,0,1,.22.09h0l.19-.09a.2.2,0,0,1,.11,0c.49,0,.75.33.8,1,0,.14,0,.21.11.21s.19-.14.34-.43a.91.91,0,0,1,.91-.42c.33,0,.5.21.5.64a2,2,0,0,1-.67,1.43.48.48,0,0,0-.07.21l-.17.48v0a.32.32,0,0,1-.1.19.42.42,0,0,0-.1.22l0,.29-.05.32a.43.43,0,0,0,.08.3,1,1,0,0,0,.54-.31q.16-.22.24-.24l.12,0A1.37,1.37,0,0,1,256.13,60.67Zm-3.87,0a.57.57,0,0,1,.29-.39.56.56,0,0,0,.28-.27,7.71,7.71,0,0,0,.64-.58c.27-.28.41-.45.41-.52s0,0,0,0h0l-.09.06-.21,0-.22,0-.16-.08-.16,0-.23-.05a.66.66,0,0,0-.32.08,2.9,2.9,0,0,1-.51.17,1.85,1.85,0,0,0-.68.32.91.91,0,0,1-.44.22,1.72,1.72,0,0,1-.55.5.54.54,0,0,0-.36.41,1.57,1.57,0,0,0-.31.28l-.08.2a.73.73,0,0,1-.23.13.27.27,0,0,0-.16.25.7.7,0,0,1-.16.35.4.4,0,0,0-.13.25c0,.38.07.57.22.57a1.26,1.26,0,0,0,.39-.13,1.53,1.53,0,0,0,.34-.16.46.46,0,0,1,.19-.1l.22-.11a.21.21,0,0,1,.1-.06.21.21,0,0,0,.12-.08.83.83,0,0,1,.21-.14.57.57,0,0,0,.23-.2l.64-.36.25-.19a.81.81,0,0,0,.31-.2A.81.81,0,0,1,252.26,60.67Z"/><path class="fa7f3ca1-8528-429b-8644-e06f4e5654fd" d="M259.35,58.12l.17-.29a.84.84,0,0,1,.18-.21,1.77,1.77,0,0,0,.24-.58,1.7,1.7,0,0,1,.28-.63.58.58,0,0,1,.46-.17,1,1,0,0,1,.46.16,2,2,0,0,1,.56,1,4.76,4.76,0,0,1,.27,1.2,1,1,0,0,0,.09.36,3.43,3.43,0,0,1,.1.33,1.15,1.15,0,0,0-.09.22l0,.48-.14.38v.28a1.06,1.06,0,0,0-.14.29.24.24,0,0,0,.05.14,1.89,1.89,0,0,0,.66-.38.61.61,0,0,1,.23-.18,1.15,1.15,0,0,0,.36-.3l.22-.12a2,2,0,0,0,.2-.25.53.53,0,0,1,.19-.15,1.27,1.27,0,0,0,.27-.17,3.4,3.4,0,0,1,.44-.26l.11-.14a1.3,1.3,0,0,1,.42-.32,1,1,0,0,1,.26-.11s.11.07.17.21a1.31,1.31,0,0,1,.08.43.53.53,0,0,1-.22.39,1.9,1.9,0,0,0-.31.28.76.76,0,0,1-.37.16,5.52,5.52,0,0,0-.39.48l-.23.14-.12.15s-.12.06-.31.1c0,0,0,0,0,.11s-.11.13-.25.16c-.28.26-.43.4-.43.44l-.25,0a.73.73,0,0,1-.11.27c-.19.05-.29.12-.32.23a.38.38,0,0,1-.11,0l-.05,0a1.21,1.21,0,0,1-.52.26l-.27.07-.1.14s-.09.09-.28.15a1,1,0,0,0-.42.23l-.2.15a1.35,1.35,0,0,0-.46.26h-.16a1.09,1.09,0,0,0-.51.24,1.1,1.1,0,0,1-.56.24,1.76,1.76,0,0,1-.92-.17,1.4,1.4,0,0,1-.42-.42,2.45,2.45,0,0,0-.29-.4.43.43,0,0,1-.14-.25s0-.1.11-.16a.78.78,0,0,0,.24-.33c.09-.17.31-.27.65-.32a.51.51,0,0,0,.17-.07.56.56,0,0,1,.24-.07c.08,0,.18.07.29.21s0,0,.05,0l.19,0a.39.39,0,0,0,.17.09.89.89,0,0,0,.59-.28l.05,0h.09s.06-.07.12-.2l.2-.41.4-.52v-.12s0-.09.07-.21v-.17c0-.07.05-.11.14-.13s.14-.07.14-.15l0-.09a.41.41,0,0,1-.09-.2l.11-.23,0-.25.05-.09a.71.71,0,0,1-.05-.19l.05-.29s0-.08-.07-.22-.08-.21-.1-.21-.19.12-.44.36a2.09,2.09,0,0,0-.44.51.63.63,0,0,1-.3.28.7.7,0,0,0-.31.27.32.32,0,0,1-.2.18l-.78.62-.85.63c-.06.07-.1.11-.12.11-.28,0-.43-.16-.43-.48a1.72,1.72,0,0,1,.18-.55l.12-.07s0,0,0,0,0,0,0,0l.07,0h0a3.56,3.56,0,0,1,.56-.33c.09,0,.16-.12.23-.26l.49-.35a4.8,4.8,0,0,0,.57-.51A3.11,3.11,0,0,0,259.35,58.12Z"/><path class="fa7f3ca1-8528-429b-8644-e06f4e5654fd" d="M263.83,59.65l.19-.17h.07c.05,0,.13,0,.24-.17l.12-.05c.15-.23.29-.37.41-.4l.18-.14a.38.38,0,0,1,.14-.09.92.92,0,0,0,.28-.22.49.49,0,0,1,.31-.19.47.47,0,0,1,.18,0,.82.82,0,0,1,.28-.28,1,1,0,0,0,.34-.32l.15-.07a1.14,1.14,0,0,0,.33-.23.52.52,0,0,1,.38-.15,1.06,1.06,0,0,1,.71.34,1,1,0,0,1,.36.66l-.19.91c-.14.67-.28,1-.45,1l0,.24c-.11.08-.17.14-.17.19l.07.28s0,.09-.12.17,0,0,0,.07v.48c0,.08-.05.15-.16.21l.07.05a.45.45,0,0,1,.31-.07l.19,0,.26-.26a.73.73,0,0,0,.22-.11,3.32,3.32,0,0,1,.5-.22L270.48,60c.21-.21.37-.31.48-.31s.17.07.17.22a.77.77,0,0,1-.1.42,3.31,3.31,0,0,0-.18.41.72.72,0,0,1-.19.33.91.91,0,0,0-.18.21,1.57,1.57,0,0,1-.38.32,3.38,3.38,0,0,0-.52.42,3.43,3.43,0,0,1-.36.31l-.5.36-.07.12-.21.1a1.31,1.31,0,0,0-.35.19l-.21.11a.49.49,0,0,1-.22.06.4.4,0,0,0-.28.14q-.12.12-.18.12l-.18,0-.23.07a.86.86,0,0,1-.48-.23.68.68,0,0,1-.29-.51v-.07l0-.16a.93.93,0,0,0-.07-.24c0-.13-.07-.2-.07-.22l0-.16,0-.07a1,1,0,0,1,.05-.4.57.57,0,0,0,.07-.22,2.42,2.42,0,0,1,.05-.24l.06-.29a.36.36,0,0,1,.11-.19c0-.06.05-.17.1-.31l0-.21.12-.17a.39.39,0,0,0,.11-.25.83.83,0,0,1,.12-.33.68.68,0,0,0,.11-.21.13.13,0,0,0-.14-.14s-.13.07-.29.19l-.21-.07s-.06,0-.13.12,0,.05-.11.07-.13.07-.2.17l-.09,0-.15-.07h0c-.07,0-.12.09-.14.26a.53.53,0,0,1-.33.24l-.26.07a.31.31,0,0,0-.19.21.64.64,0,0,1-.23.3.54.54,0,0,1-.23.13q-.33,0-.33-.36l.1-.54Zm5-5.82-.07-.46V53.3c0-.36.12-.56.37-.6l.49-.15a.82.82,0,0,1,.44.36,1.05,1.05,0,0,1,.23.57.94.94,0,0,1,0,.1,1.3,1.3,0,0,0,0,.31.53.53,0,0,1-.22.4.76.76,0,0,1-.46.16.71.71,0,0,1-.42-.22A.82.82,0,0,1,268.86,53.83Z"/><path class="fa7f3ca1-8528-429b-8644-e06f4e5654fd" d="M281.44,53.92l.07,0h.31c.1,0,.23-.11.41-.33a4.92,4.92,0,0,1,.62-.22l0-.05.23-.18h.23l.18-.11a2.58,2.58,0,0,1,.7-.26,3.51,3.51,0,0,0,.69-.23l.51-.07.33-.06.25,0c.42,0,.71.27.89.81a.37.37,0,0,0,.06.15.3.3,0,0,1,.06.14,1.59,1.59,0,0,1-.48,1l-.16.43a1.42,1.42,0,0,1-.13.17,1.55,1.55,0,0,0-.21.36,2.68,2.68,0,0,1-.5.61,4.15,4.15,0,0,0-.2.44,2,2,0,0,1-.22.39,7.45,7.45,0,0,0-.45.69,3.28,3.28,0,0,0-.37.71.77.77,0,0,0-.24.44,1.75,1.75,0,0,1-.23.57l0,.08c.25-.09.37-.22.37-.41,0,0,.07-.08.2-.17l.1-.17a.44.44,0,0,1,.24-.18.74.74,0,0,1,.24-.28l.3-.25a1,1,0,0,1,.25-.14c.12-.05.25-.25.4-.58q0-.09.18-.15a.61.61,0,0,0,.26-.19.75.75,0,0,1,.17-.18l.09-.14a.86.86,0,0,1,.18-.14l.57-.7c.3-.2.47-.35.5-.46l.09,0H288l.25-.21a.45.45,0,0,1,.26-.46.87.87,0,0,0,.38-.27.31.31,0,0,1,.25-.15.23.23,0,0,1,.13.07h0s.05,0,.07-.12V54a.44.44,0,0,1,.12-.32.56.56,0,0,1,.31-.17.74.74,0,0,0,.39-.3.56.56,0,0,1,.42-.27.33.33,0,0,0,.32-.18c.05-.12.22-.24.5-.38a2.52,2.52,0,0,1,.52-.22.66.66,0,0,0,.2-.06.27.27,0,0,1,.18,0,1.08,1.08,0,0,1,.33.07l.21,0a1.28,1.28,0,0,1,.5.44l.12.11v.05l0,.2v.09c.1,0,.15.09.15.14l-.08.15a.38.38,0,0,0,0,.19,1.5,1.5,0,0,1,0,.22,1.25,1.25,0,0,1,0,.21c0,.07,0,.13-.05.19l-.06.16-.09.15-.09.37a1.54,1.54,0,0,1-.25.53,2.32,2.32,0,0,0-.24.43,1.57,1.57,0,0,1-.16.33l0,.07v.17c.24,0,.36-.13.36-.28a.38.38,0,0,1,.3-.36l.25-.21a1.51,1.51,0,0,1,.75-.7.58.58,0,0,1,.22-.39l.45-.42.31-.17a.92.92,0,0,1,.48-.52l.26-.17c.16-.08.24-.15.26-.22a.46.46,0,0,1,.18-.23c.11-.08.25-.21.45-.39l.09,0,.12-.12a1.6,1.6,0,0,1,.29-.11l.09,0a1.83,1.83,0,0,1,.53-.3,2.66,2.66,0,0,0,.52-.25l.41-.06a.65.65,0,0,1,.18,0c.74,0,1.11.41,1.11,1.24l0,.19,0,.67a4.92,4.92,0,0,0-.29.5l0,.21a.94.94,0,0,1-.15.28l-.18.27-.22.25-.11.34a.7.7,0,0,1-.2.23v.14c0,.11-.15.29-.45.52a.86.86,0,0,1-.21.45.89.89,0,0,0-.22.3,1.05,1.05,0,0,1-.24.3,1.2,1.2,0,0,1-.2.51,2.23,2.23,0,0,1-.3.46,1.1,1.1,0,0,0-.23.34l-.11.05c0,.29-.1.46-.16.5l-.19,0v0a.15.15,0,0,0,.05.08.24.24,0,0,1,.05.13.19.19,0,0,1-.07.14.17.17,0,0,0-.08.12.24.24,0,0,1-.06.11.72.72,0,0,0,0,.23,1.39,1.39,0,0,1-.17.46,1.58,1.58,0,0,0-.18.4.61.61,0,0,1,0,.17.78.78,0,0,0,0,.14,2.47,2.47,0,0,1-.06.36c.15.35.26.59.32.71a.83.83,0,0,1,.09.25,1.21,1.21,0,0,1-.11.62c-.08.1-.27.16-.58.16a.69.69,0,0,1-.5-.21.67.67,0,0,0-.38-.2v-.21l0,0h-.18l-.1-.08a.86.86,0,0,1-.15-.17l-.07-.07a1.07,1.07,0,0,1-.16-.38l-.07-.23,0-.19,0-.29a.92.92,0,0,1,0-.19l0-.31a1,1,0,0,1,0-.21,1.79,1.79,0,0,0,.06-.37.54.54,0,0,1,.11-.33.46.46,0,0,0,.1-.2.26.26,0,0,1,.06-.13.47.47,0,0,0,.09-.26.47.47,0,0,1,.25-.34c.07-.14.14-.27.19-.4s.25-.33.26-.33h.16c-.08-.1-.11-.15-.11-.17,0-.21.08-.31.24-.31l.12,0,0-.09,0-.2c0-.13.1-.26.3-.4a.78.78,0,0,1,.31-.6l0-.19a1.36,1.36,0,0,0,.2-.31,3.08,3.08,0,0,1,.32-.48l.37-.55.16-.18h0s0,0,0,0l0-.13.07-.17.08-.09q.3-.09.3-.21a.44.44,0,0,0-.09-.15v0a.39.39,0,0,1,.14-.23,1.76,1.76,0,0,0,.26-.39,1.18,1.18,0,0,0,.12-.31s0-.05,0-.05a.49.49,0,0,0-.5.27s-.15.14-.46.28l-.11.17a.4.4,0,0,1-.25.13.54.54,0,0,0-.27.13l-.74.61a7.74,7.74,0,0,0-.84.78l-.27.18c-.11.06-.16.1-.16.13s-.07.18-.2.3l-.14.18-.19-.06A.26.26,0,0,0,294,56a.38.38,0,0,1,.09.11c0,.13-.11.25-.35.39l-.5.52a.89.89,0,0,1-.17.13.71.71,0,0,0-.23.26,2.89,2.89,0,0,1-.42.55,3,3,0,0,1-.39.42.41.41,0,0,0-.14.15,2.42,2.42,0,0,1-.34.37.79.79,0,0,0-.29.51c-.15.05-.23.1-.23.14l-.07.11-.09.05a.45.45,0,0,0,0,.16c0,.07-.17.2-.47.39a1.76,1.76,0,0,1-.57.29.24.24,0,0,0-.11,0,.14.14,0,0,1-.09.05l-.31-.14a1,1,0,0,1-.4-.65l.09-.3,0-.25a.33.33,0,0,1,.11-.18.44.44,0,0,0,.11-.29c.12-.28.22-.48.28-.6l0-.18a1.35,1.35,0,0,1,.16-.27.61.61,0,0,0,.13-.32.27.27,0,0,1,.15-.23,7.12,7.12,0,0,0,.95-1.41v-.16l.34-.58c.1-.17.22-.37.37-.59l.1-.26a3,3,0,0,0-.38-.14.3.3,0,0,0-.18.09c0,.13-.22.27-.68.41a1.08,1.08,0,0,0-.36.34l-.33.18a2.13,2.13,0,0,0-.22.19l-.16.15a.87.87,0,0,0-.5.33l-.32.22a1,1,0,0,0-.18.17,2.6,2.6,0,0,1-.43.26l-.19.18-.17.1a2.24,2.24,0,0,0-.28.33.38.38,0,0,1-.25.17l-.25.09a1.08,1.08,0,0,1-.43.58l-.34.42a1.31,1.31,0,0,1-.16.13.3.3,0,0,1-.17.16l-.2.26-.13.1c-.21.08-.32.14-.32.19l0,.21c0,.08-.09.17-.27.24a.23.23,0,0,0-.14.19.85.85,0,0,1-.09.27h-.21l-.22.11a.05.05,0,0,0,0,0l0,.26a.48.48,0,0,1-.18.32,2.52,2.52,0,0,0-.29.33c-.06.09-.11.13-.14.13h-.07l-.07.05a.63.63,0,0,1-.29.48L283,62a4.4,4.4,0,0,0-.4.59,5.92,5.92,0,0,1-.62.84,1.63,1.63,0,0,1-.53.44l-.53.23-.48-.09a.45.45,0,0,0-.2-.21c-.09-.06-.13-.12-.13-.18l-.14-.41a.87.87,0,0,1,.13-.4,1.77,1.77,0,0,0,.15-.37,2,2,0,0,1,.14-.36,1.51,1.51,0,0,0,.1-.25c0-.21,0-.34.1-.39l.45-.34s0,0,0-.05v0l0-.2c.18-.31.29-.46.34-.46l.09,0-.07-.26s0-.08.13-.15a.8.8,0,0,0,.19-.23l0-.14v0a.62.62,0,0,1,.29-.45l.19-.48.3-.54a.74.74,0,0,1,.25-.29.27.27,0,0,0,.14-.18.67.67,0,0,1,.08-.24s0,0,0,0,0-.11.05-.23a.46.46,0,0,1,.27-.28c.18-.46.32-.68.42-.68a.3.3,0,0,1,.13,0h0c.12,0,.18,0,.18-.14s0,0,0,0a.32.32,0,0,1-.19.11c-.06,0-.08,0-.08,0a.05.05,0,0,1,0-.05l.26-.52,0-.23a1.48,1.48,0,0,1,.19-.2l.2-.27v-.12a1.67,1.67,0,0,1,.1-.24,1.77,1.77,0,0,0,.15-.42l.2-.29a.91.91,0,0,0,.05-.26c0-.12,0-.17-.05-.17l-.68.12a8.55,8.55,0,0,0-.78.45l-.27.05-.31.16a1.39,1.39,0,0,1-.5.18.59.59,0,0,0-.38.16l-.05,0h-.22a1.62,1.62,0,0,0-.17.23s-.06.07-.08.07c-.79.52-1.28.84-1.49.94a2.92,2.92,0,0,0-.48.3,1.54,1.54,0,0,1-.28.19v.14a.69.69,0,0,1-.29.45.79.79,0,0,1-.49.25.45.45,0,0,1-.22-.08.8.8,0,0,0-.32-.09q-.18,0-.18-.45c0-.39.32-.75,1-1.08a1.47,1.47,0,0,0,.28-.16c.09-.06.44-.21,1-.46l.34-.16a1,1,0,0,1,.39-.21l.43-.17.25-.1Zm10.92,2.82.12-.21v0s0,0-.05,0-.14.08-.18.23,0,.07,0,.07A.07.07,0,0,0,292.36,56.74Z"/><path class="fa7f3ca1-8528-429b-8644-e06f4e5654fd" d="M307.79,60.67l.19-.16a.18.18,0,0,0,.21-.16.38.38,0,0,1,.25-.25,1,1,0,0,0,.4-.38c.12-.19.25-.28.38-.28s.1,0,.16.11a.32.32,0,0,1,.1.19,1.54,1.54,0,0,1-.24.79l0,.33-.08.15a.47.47,0,0,0-.23.2,1,1,0,0,1-.27.25l-.12.17a.5.5,0,0,0-.34.26.31.31,0,0,1-.25.21.67.67,0,0,0-.34.24l-.28.1,0,.12a.85.85,0,0,1-.37.18,1.6,1.6,0,0,0-.37.14.49.49,0,0,1-.17.06.91.91,0,0,1-.41-.09,1.66,1.66,0,0,0-.38-.11.19.19,0,0,1-.08-.15.59.59,0,0,0-.12-.21.58.58,0,0,1-.11-.37l.05-.22a.22.22,0,0,0-.06-.12.17.17,0,0,1-.06-.11.08.08,0,0,1,0-.07.14.14,0,0,0,0-.07.59.59,0,0,0,0-.13.35.35,0,0,1,0-.12l.07-.57c0-.05,0-.07,0-.07s-.09,0-.17.12a.39.39,0,0,1-.29.11.59.59,0,0,0-.15.3,1.14,1.14,0,0,1-.23.2l-.05.07c0,.06-.07.1-.17.14a.42.42,0,0,0-.21.13l-.12.12-.22,0a1.67,1.67,0,0,0-.13.2,1.08,1.08,0,0,1-.26.3l-.89.72a4,4,0,0,1-.41.23l-.07.07a3.11,3.11,0,0,1-1.31.62,1.93,1.93,0,0,1-.74-.18q-.42-.16-.45-.42l-.12-.47a.85.85,0,0,1-.1-.46.62.62,0,0,1,0-.18v-.07l0-.39c0-.09.07-.14.22-.14l0-.31a1.49,1.49,0,0,1,.2-.37,3.23,3.23,0,0,1,.27-.37l.12-.15a.38.38,0,0,1,.16-.29,1.94,1.94,0,0,0,.28-.32,1.46,1.46,0,0,1,.4-.36l.35-.35a3.9,3.9,0,0,1,.88-.66.91.91,0,0,0,.29-.23,1.41,1.41,0,0,1,.49-.31,3.26,3.26,0,0,0,.54-.25.9.9,0,0,1,.41-.15h.09a5.32,5.32,0,0,0,.62-.29h.07a.68.68,0,0,1,.22.09h0l.18-.09a.22.22,0,0,1,.12,0c.48,0,.74.33.79,1q0,.21.12.21c.08,0,.19-.14.33-.43a.92.92,0,0,1,.91-.42c.34,0,.51.21.51.64a2,2,0,0,1-.68,1.43,1,1,0,0,0-.07.21l-.16.48v0a.39.39,0,0,1-.1.19.35.35,0,0,0-.1.22l0,.29,0,.32c0,.15,0,.25.08.3a1.09,1.09,0,0,0,.54-.31c.11-.15.19-.23.23-.24l.12,0A1.37,1.37,0,0,1,307.79,60.67Zm-3.86,0a.53.53,0,0,1,.28-.39.59.59,0,0,0,.29-.27,6.52,6.52,0,0,0,.63-.58c.28-.28.42-.45.42-.52s0,0-.05,0h0l-.1.06-.2,0-.23,0-.16-.08-.15,0-.23-.05a.63.63,0,0,0-.32.08,2.8,2.8,0,0,1-.52.17,1.85,1.85,0,0,0-.68.32.91.91,0,0,1-.44.22,1.61,1.61,0,0,1-.55.5.58.58,0,0,0-.36.41,1.33,1.33,0,0,0-.3.28l-.08.2a.68.68,0,0,1-.24.13.29.29,0,0,0-.16.25.62.62,0,0,1-.16.35.46.46,0,0,0-.13.25c0,.38.07.57.22.57a1.26,1.26,0,0,0,.39-.13,2.1,2.1,0,0,0,.35-.16.47.47,0,0,1,.18-.1l.22-.11a.24.24,0,0,1,.11-.06.17.17,0,0,0,.11-.08.83.83,0,0,1,.21-.14.68.68,0,0,0,.24-.2l.64-.36.24-.19a.87.87,0,0,0,.32-.2A.59.59,0,0,1,303.93,60.67Z"/><path class="fa7f3ca1-8528-429b-8644-e06f4e5654fd" d="M308.61,70.73l-.19.13a.51.51,0,0,1-.24.07c-.2,0-.38-.13-.57-.39a1.35,1.35,0,0,1-.27-.79,2.58,2.58,0,0,1,.15-1,2.81,2.81,0,0,0,.17-.46s.08-.2.25-.58a4,4,0,0,1,.47-.85c.14-.2.27-.38.37-.55l.05-.09a1.23,1.23,0,0,1,.33-.39,2.16,2.16,0,0,1,.45-.48,8,8,0,0,1,.85-.7l.11-.17a1.6,1.6,0,0,1,.33-.17l.67-.19.46-.36h.09l.31-.09a3.92,3.92,0,0,1,.8-.22c.36-.06.56-.14.61-.23l.13-.25c0-.08.12-.24.25-.49s.06-.24.08-.31.05-.13.08-.14a.63.63,0,0,0,.13-.23,3.2,3.2,0,0,1,.19-.34s0,0,0,0l-.07-.19c.07-.19.13-.31.2-.35s.09-.07.09-.09l-.08-.21.2-.43s0,0,0,0a3,3,0,0,1-.72.43,3.2,3.2,0,0,1-.25.28.41.41,0,0,0-.27.24l-.09,0-.07.11s0,0-.08.06a2.34,2.34,0,0,0-.33.19l-.14,0s-.07.08-.12.24a.8.8,0,0,1-.37.28.52.52,0,0,0-.23.12l-.09.12-.12,0q-.24,0-.24.18a.43.43,0,0,1-.14.25.53.53,0,0,0-.24.07h-.17a.55.55,0,0,1-.42.31l-.34.23-.19.07a2.61,2.61,0,0,0-.28.17.9.9,0,0,1-.48.12,2.27,2.27,0,0,0-.5-.18c-.22-.05-.38-.43-.48-1.13h0a.35.35,0,0,0-.2.07.37.37,0,0,1-.16.07c-.19,0-.28-.08-.28-.23a.66.66,0,0,1,.4-.69l.29-.36.74-.74c.52-.52.87-.85,1.05-1s.38-.29.59-.43l.59-.39a2.55,2.55,0,0,1,.37-.22.34.34,0,0,0,.15-.07,1.81,1.81,0,0,1,.43-.18l.21-.09a3.36,3.36,0,0,1,.84-.22l.16,0a.38.38,0,0,0,.24-.09,1.08,1.08,0,0,0,.51-.26l.42-.12a1.18,1.18,0,0,1,.29,0h.22c.16,0,.27.12.32.38s.09.39.13.39.07-.06.14-.18l.17-.12a.68.68,0,0,1,.22-.11.33.33,0,0,1,.35.23v0l0,.06a5.88,5.88,0,0,1,.11.69,1.41,1.41,0,0,1-.24.87,2.35,2.35,0,0,0-.29.44,7.37,7.37,0,0,1-.46,1.42l-.28.68-.12.12a.07.07,0,0,0,0,.07l0,.16a1.09,1.09,0,0,0-.2.5,1.16,1.16,0,0,1-.19.43l.21.12a1.83,1.83,0,0,1,.41.37.83.83,0,0,1,.22.42s0,.17-.12.45a1.3,1.3,0,0,1-.72.32.69.69,0,0,1-.33-.15l-.07,0v0a.74.74,0,0,1-.24-.08.32.32,0,0,0-.17-.06.09.09,0,0,0-.1.1.16.16,0,0,0,0,.09l-.19.17a1.64,1.64,0,0,1-.16.35,1.62,1.62,0,0,1-.29.41c-.17,0-.29.14-.35.38a1.07,1.07,0,0,1-.22.48l-.12,0a4.12,4.12,0,0,1-.79,1.15c-.17,0-.25.06-.25.08a.61.61,0,0,0,0,.15c0,.09-.1.21-.28.39s-.27.26-.3.26l-.12,0-.07.07c0,.16-.2.41-.62.75a1.16,1.16,0,0,0-.36.25c-.06.15-.29.33-.69.53l-.22.2a.84.84,0,0,1-.3.19Zm4.2-6-.35,0a.37.37,0,0,0-.2-.09s-.05,0-.07.07a1.1,1.1,0,0,1-.61.31,2,2,0,0,0-.65.27.72.72,0,0,1-.28.14c-.08,0-.12,0-.12.05a1,1,0,0,0-.18.16.9.9,0,0,0-.23.15.68.68,0,0,1-.24.12c-.14.3-.24.45-.31.45l-.11,0h0c-.11.2-.18.32-.24.35a.43.43,0,0,0-.14.13.73.73,0,0,1-.22.19.52.52,0,0,0-.23.36.72.72,0,0,1-.15.34.72.72,0,0,0-.11.39l-.07.16c0,.05,0,.18-.1.4l-.06.34a.42.42,0,0,0,.14.3.34.34,0,0,1,.2-.09l.68-.28a1.78,1.78,0,0,0,.26-.21,1.31,1.31,0,0,1,.39-.25.78.78,0,0,0,.31-.21.84.84,0,0,1,.23-.23.37.37,0,0,0,.15-.24l.49-.43a1.49,1.49,0,0,0,.29-.34.55.55,0,0,1,.2-.23l.05-.15.1,0c.05,0,.13-.14.25-.38l.31-.52a2,2,0,0,0,.45-.71l.17-.14a.11.11,0,0,0,0-.1ZM312.6,61l.14-.2a.54.54,0,0,1,.24-.14.49.49,0,0,0,.28-.19,1.68,1.68,0,0,1,.66-.59l.11-.08c.12-.22.23-.34.32-.36a.39.39,0,0,0,.24-.21.65.65,0,0,0,.11-.3s0-.05-.07-.05a.43.43,0,0,0-.29.1.34.34,0,0,1-.17.09l-.23,0c-.14.07-.33.17-.58.28l-.21.17a.93.93,0,0,1-.25.12.23.23,0,0,0-.17.14q-.06.12-.15.12l-.09.05a.45.45,0,0,1-.27,0,1,1,0,0,0-.24.19c-.08.09-.13.13-.15.13a1.11,1.11,0,0,1-.46.36.47.47,0,0,0-.25.2.72.72,0,0,0-.37.26,1,1,0,0,1-.27.28,1,1,0,0,0-.22.2l-.11.09a.88.88,0,0,0-.2.31,1,1,0,0,0-.12.36s0,.07.08.07a1.17,1.17,0,0,0,.44-.16,1.87,1.87,0,0,0,.41-.27c.07-.06.11-.09.13-.09l.44,0a.36.36,0,0,1,.24-.19.44.44,0,0,0,.26-.2,1.26,1.26,0,0,1,.53-.33l.13-.21Z"/><path class="fa7f3ca1-8528-429b-8644-e06f4e5654fd" d="M326.68,60.67l.18-.16a.18.18,0,0,0,.21-.16.38.38,0,0,1,.25-.25,1,1,0,0,0,.4-.38c.12-.19.25-.28.38-.28s.1,0,.17.11a.35.35,0,0,1,.09.19,1.62,1.62,0,0,1-.23.79l-.05.33L328,61a.52.52,0,0,0-.23.2.73.73,0,0,1-.27.25l-.12.17a.52.52,0,0,0-.34.26.31.31,0,0,1-.25.21.67.67,0,0,0-.34.24l-.28.1,0,.12a.85.85,0,0,1-.37.18,1.6,1.6,0,0,0-.37.14.49.49,0,0,1-.17.06,1,1,0,0,1-.41-.09,1.66,1.66,0,0,0-.38-.11.19.19,0,0,1-.08-.15.59.59,0,0,0-.12-.21.58.58,0,0,1-.1-.37l0-.22a.22.22,0,0,0-.06-.12.21.21,0,0,1-.05-.11s0-.06,0-.07a.14.14,0,0,0,0-.07.59.59,0,0,0,0-.13.3.3,0,0,1,0-.12l.07-.57c0-.05,0-.07,0-.07s-.09,0-.17.12a.38.38,0,0,1-.28.11.52.52,0,0,0-.16.3,1.14,1.14,0,0,1-.23.2l-.05.07c0,.06-.07.1-.17.14a.42.42,0,0,0-.21.13l-.12.12-.22,0a1.67,1.67,0,0,0-.13.2.83.83,0,0,1-.26.3l-.89.72a4,4,0,0,1-.41.23l-.07.07a3.06,3.06,0,0,1-1.31.62,1.85,1.85,0,0,1-.73-.18c-.28-.11-.44-.25-.46-.42l-.12-.47a.85.85,0,0,1-.1-.46.62.62,0,0,1,0-.18v-.07l0-.39c0-.09.07-.14.22-.14l0-.31a2.05,2.05,0,0,1,.2-.37,2.12,2.12,0,0,1,.28-.37l.11-.15A.36.36,0,0,1,319,60a1.84,1.84,0,0,0,.27-.32,1.46,1.46,0,0,1,.4-.36L320,59a3.74,3.74,0,0,1,.89-.66,1.06,1.06,0,0,0,.28-.23,1.5,1.5,0,0,1,.49-.31,3.26,3.26,0,0,0,.54-.25.9.9,0,0,1,.41-.15h.09a4.57,4.57,0,0,0,.62-.29h.07a.68.68,0,0,1,.22.09h0l.18-.09a.22.22,0,0,1,.12,0c.48,0,.75.33.79,1q0,.21.12.21c.08,0,.19-.14.33-.43a.93.93,0,0,1,.92-.42c.33,0,.5.21.5.64a2,2,0,0,1-.68,1.43,1,1,0,0,0-.07.21l-.16.48v0a.32.32,0,0,1-.1.19.35.35,0,0,0-.1.22l0,.29,0,.32c0,.15,0,.25.08.3a1,1,0,0,0,.54-.31q.17-.22.24-.24l.11,0A1.16,1.16,0,0,1,326.68,60.67Zm-3.87,0a.55.55,0,0,1,.29-.39.61.61,0,0,0,.28-.27,7.71,7.71,0,0,0,.64-.58c.27-.28.41-.45.41-.52s0,0-.05,0h0l-.09.06-.21,0-.23,0-.16-.08-.15,0-.23-.05a.63.63,0,0,0-.32.08,2.9,2.9,0,0,1-.51.17,1.9,1.9,0,0,0-.69.32.91.91,0,0,1-.44.22,1.61,1.61,0,0,1-.55.5.58.58,0,0,0-.36.41,1.33,1.33,0,0,0-.3.28L320,61a.73.73,0,0,1-.23.13.28.28,0,0,0-.17.25.61.61,0,0,1-.15.35.43.43,0,0,0-.14.25c0,.38.08.57.22.57a1.12,1.12,0,0,0,.39-.13,1.74,1.74,0,0,0,.35-.16.47.47,0,0,1,.18-.1l.22-.11a.3.3,0,0,1,.11-.06.21.21,0,0,0,.12-.08.57.57,0,0,1,.21-.14.64.64,0,0,0,.23-.2l.64-.36.24-.19a.87.87,0,0,0,.32-.2A.68.68,0,0,1,322.81,60.67Z"/><path class="fa7f3ca1-8528-429b-8644-e06f4e5654fd" d="M338.28,61.39h.05l.12,0,0,0a.42.42,0,0,1,.19-.34.56.56,0,0,1,.26-.34c.14-.08.36-.2.65-.38l.29-.26L340,60l.1-.12a.33.33,0,0,1,.24-.15c.12,0,.18.05.18.13l-.11.23.05.39a.53.53,0,0,1-.15.37l-.45.48-.59.63-.32.16-.21.16-.45.39a.28.28,0,0,1-.11.24H338l-.1.05a1,1,0,0,1-.47.43l-.17.11a.21.21,0,0,1-.15.07l-.32,0-.23,0a.58.58,0,0,1-.25-.09,1.3,1.3,0,0,0-.32-.14c-.11,0-.24-.18-.41-.43a1.77,1.77,0,0,1-.27-.5.46.46,0,0,0-.06-.16.58.58,0,0,1,0-.13,1.59,1.59,0,0,1,.11-.23v0a1,1,0,0,0-.07-.16.71.71,0,0,1-.06-.31.89.89,0,0,0-.07-.27.26.26,0,0,0,.09-.14.5.5,0,0,0,0-.14.27.27,0,0,1,0-.13l.07-.57-.05-.29,0-.28q0-.24-.21-.24a.39.39,0,0,0-.23.12l-.08,0a2.68,2.68,0,0,0-.45.25.44.44,0,0,1-.26.1.69.69,0,0,1-.27.12l-.09.07-.19.14a1.93,1.93,0,0,1-.43.39l-.79.67a1.44,1.44,0,0,1-.5.35c-.11,0-.16.12-.16.29s-.07.1-.21.19a2.63,2.63,0,0,0-.24.26.64.64,0,0,0-.21-.14c-.1,0-.17.12-.22.38-.05.1-.17.16-.37.19,0,0-.05.06-.09.17l0,.05H330a.6.6,0,0,0-.16.13.73.73,0,0,1-.25.17c-.1.21-.18.31-.25.31a.33.33,0,0,1-.14,0,1,1,0,0,0-.21-.08c-.09,0-.18-.12-.29-.29a.93.93,0,0,1-.16-.42c0-.86.17-1.33.5-1.41l0,0v-.09a.23.23,0,0,1,.13-.22.88.88,0,0,0,.28-.25,1,1,0,0,1,.18-.22h.15s0-.08,0-.24a.18.18,0,0,1,.06-.13A.29.29,0,0,0,330,60a1,1,0,0,1,.17-.36,1.2,1.2,0,0,0,.15-.3l0,0a1.24,1.24,0,0,1-.42.29c-.08,0-.2.12-.35.33l-.18,0a4.61,4.61,0,0,1-.61.41.7.7,0,0,0-.26.26.11.11,0,0,1-.08.1,1.46,1.46,0,0,0-.3.18h-.07c-.2,0-.29-.14-.29-.42l.24-.66a1,1,0,0,1,.49-.53,5.94,5.94,0,0,0,.66-.41,1,1,0,0,1,.54-.21l.08-.12a.89.89,0,0,0,.53-.47c.1-.22.22-.33.39-.33a1.13,1.13,0,0,1,1,.47,1.46,1.46,0,0,1,.34.75l0,.32a1.9,1.9,0,0,1-.07.45.7.7,0,0,0-.14.31c0,.07,0,.1.12.1a.39.39,0,0,0,.19-.1,1,1,0,0,1,.26-.18.43.43,0,0,0,.17-.14.64.64,0,0,1,.4-.39,1,1,0,0,0,.36-.17l.12-.09.09-.18a1.42,1.42,0,0,0,.42-.25.56.56,0,0,1,.28-.16,1,1,0,0,0,.4-.2l.17,0,.17-.09s.06,0,.13-.06l.35-.13a1.25,1.25,0,0,1,.31-.08,1.1,1.1,0,0,1,.93.47,1.51,1.51,0,0,1,.35.77l0,.21.05.32v0l-.09.64,0,.22a1,1,0,0,1-.23.76.12.12,0,0,0-.06.12v.1l.23.49c.07.17.12.26.16.26l.38-.11a.45.45,0,0,0,.27-.24,1.82,1.82,0,0,0,.32-.28C338.11,61.46,338.18,61.39,338.28,61.39Z"/><path class="fa7f3ca1-8528-429b-8644-e06f4e5654fd" d="M339.87,70.73l-.19.13a.55.55,0,0,1-.25.07.73.73,0,0,1-.56-.39,1.35,1.35,0,0,1-.27-.79,2.82,2.82,0,0,1,.14-1,1.67,1.67,0,0,0,.17-.46s.08-.2.25-.58a5.09,5.09,0,0,1,.47-.85c.15-.2.27-.38.38-.55l0-.09a1.24,1.24,0,0,1,.34-.39,2.16,2.16,0,0,1,.45-.48,9.13,9.13,0,0,1,.84-.7l.12-.17a1.4,1.4,0,0,1,.32-.17l.68-.19a5.45,5.45,0,0,1,.45-.36h.1l.31-.09a3.73,3.73,0,0,1,.8-.22c.36-.06.56-.14.61-.23a1.87,1.87,0,0,0,.12-.25c0-.08.12-.24.26-.49s.06-.24.08-.31.05-.13.08-.14a.85.85,0,0,0,.13-.23,1.52,1.52,0,0,1,.19-.34s0,0,0,0l-.07-.19a.71.71,0,0,1,.19-.35c.07,0,.1-.07.1-.09l-.08-.21.2-.43s0,0-.05,0a3,3,0,0,1-.72.43l-.26.28A.39.39,0,0,0,345,61l-.1,0-.07.11s0,0-.08.06l-.32.19-.14,0s-.07.08-.12.24a.82.82,0,0,1-.38.28.47.47,0,0,0-.22.12l-.1.12-.11,0c-.17,0-.25.06-.25.18a.38.38,0,0,1-.14.25.49.49,0,0,0-.23.07h-.17a.55.55,0,0,1-.42.31l-.34.23-.2.07-.28.17a.86.86,0,0,1-.47.12,2.48,2.48,0,0,0-.5-.18c-.23-.05-.39-.43-.48-1.13h0a.37.37,0,0,0-.21.07.31.31,0,0,1-.15.07c-.19,0-.28-.08-.28-.23a.67.67,0,0,1,.39-.69l.29-.36.75-.74c.52-.52.87-.85,1.05-1s.37-.29.58-.43l.6-.39a2.08,2.08,0,0,1,.37-.22.34.34,0,0,0,.15-.07,1.87,1.87,0,0,1,.42-.18L344,58a3.59,3.59,0,0,1,.84-.22l.16,0a.4.4,0,0,0,.25-.09,1,1,0,0,0,.5-.26l.42-.12a1.35,1.35,0,0,1,.29,0h.23c.16,0,.26.12.32.38s.09.39.13.39a.75.75,0,0,0,.14-.18l.16-.12a.8.8,0,0,1,.22-.11.32.32,0,0,1,.35.23v0l0,.06a5,5,0,0,1,.1.69,1.41,1.41,0,0,1-.24.87,2.71,2.71,0,0,0-.28.44,7.26,7.26,0,0,1-.47,1.42c0,.09-.13.32-.28.68l-.11.12a.08.08,0,0,0-.05.07l0,.16a1,1,0,0,0-.2.5,1.38,1.38,0,0,1-.19.43.94.94,0,0,0,.2.12,1.64,1.64,0,0,1,.41.37.88.88,0,0,1,.23.42,4.13,4.13,0,0,1-.13.45,1.3,1.3,0,0,1-.71.32.71.71,0,0,1-.34-.15l-.07,0v0a1,1,0,0,1-.24-.08.29.29,0,0,0-.17-.06c-.06,0-.09,0-.09.1a.29.29,0,0,0,0,.09l-.18.17a2.08,2.08,0,0,1-.17.35,1.4,1.4,0,0,1-.29.41c-.17,0-.29.14-.35.38a.89.89,0,0,1-.22.48l-.11,0a3.92,3.92,0,0,1-.8,1.15c-.16,0-.24.06-.25.08s0,.07,0,.15-.11.21-.28.39a1.15,1.15,0,0,1-.31.26l-.11,0-.07.07c0,.16-.2.41-.62.75-.23.12-.35.21-.36.25s-.29.33-.69.53l-.22.2a.84.84,0,0,1-.3.19Zm4.2-6-.35,0a.41.41,0,0,0-.2-.09s0,0-.07.07a1.14,1.14,0,0,1-.62.31,1.9,1.9,0,0,0-.64.27.75.75,0,0,1-.29.14c-.08,0-.12,0-.12.05a1.36,1.36,0,0,0-.17.16.75.75,0,0,0-.23.15.64.64,0,0,1-.25.12q-.21.45-.3.45l-.12,0h0a1,1,0,0,1-.23.35.35.35,0,0,0-.14.13.79.79,0,0,1-.23.19.51.51,0,0,0-.22.36.72.72,0,0,1-.15.34.58.58,0,0,0-.11.39l-.07.16a2.35,2.35,0,0,0-.1.4l-.06.34a.39.39,0,0,0,.14.3.3.3,0,0,1,.19-.09l.69-.28.26-.21a1.1,1.1,0,0,1,.39-.25.75.75,0,0,0,.3-.21,1,1,0,0,1,.23-.23.38.38,0,0,0,.16-.24l.49-.43a1.39,1.39,0,0,0,.28-.34.58.58,0,0,1,.21-.23l0-.15.1,0c.05,0,.14-.14.25-.38l.32-.52a2.27,2.27,0,0,0,.45-.71l.16-.14a.11.11,0,0,0,0-.1ZM343.86,61l.14-.2a.54.54,0,0,1,.24-.14.47.47,0,0,0,.27-.19,1.83,1.83,0,0,1,.66-.59l.12-.08c.12-.22.22-.34.31-.36a.39.39,0,0,0,.25-.21.62.62,0,0,0,.1-.3s0-.05-.07-.05a.42.42,0,0,0-.28.1.39.39,0,0,1-.17.09l-.23,0-.58.28-.21.17a1.1,1.1,0,0,1-.25.12.22.22,0,0,0-.17.14q-.06.12-.15.12l-.1.05a.44.44,0,0,1-.26,0,1,1,0,0,0-.24.19c-.09.09-.13.13-.15.13a1.18,1.18,0,0,1-.46.36.44.44,0,0,0-.25.2.68.68,0,0,0-.37.26.92.92,0,0,1-.28.28.8.8,0,0,0-.21.2l-.12.09a.91.91,0,0,0-.19.31,1,1,0,0,0-.12.36s0,.07.08.07a1.23,1.23,0,0,0,.44-.16A1.87,1.87,0,0,0,342,62c.06-.06.1-.09.13-.09l.44,0a.36.36,0,0,1,.24-.19.47.47,0,0,0,.26-.2,1.19,1.19,0,0,1,.53-.33l.12-.21Z"/><path class="fa7f3ca1-8528-429b-8644-e06f4e5654fd" d="M359.47,53.92l.07,0h.31c.1,0,.23-.11.41-.33a5.81,5.81,0,0,1,.62-.22l.05-.05.23-.18h.23l.18-.11a2.58,2.58,0,0,1,.7-.26,3.51,3.51,0,0,0,.69-.23l.51-.07.33-.06.26,0c.41,0,.7.27.88.81a.37.37,0,0,0,.06.15.3.3,0,0,1,.06.14,1.59,1.59,0,0,1-.48,1l-.16.43a.73.73,0,0,1-.13.17,1.55,1.55,0,0,0-.21.36,2.68,2.68,0,0,1-.5.61c-.05.09-.11.24-.2.44a2.06,2.06,0,0,1-.21.39,6.59,6.59,0,0,0-.46.69,3.28,3.28,0,0,0-.37.71.71.71,0,0,0-.23.44,2,2,0,0,1-.24.57l0,.08c.25-.09.38-.22.38-.41,0,0,.06-.08.19-.17l.1-.17a.44.44,0,0,1,.24-.18.74.74,0,0,1,.24-.28l.3-.25a1,1,0,0,1,.25-.14c.12-.05.25-.25.4-.58q0-.09.18-.15a.61.61,0,0,0,.26-.19,1,1,0,0,1,.17-.18l.1-.14a.67.67,0,0,1,.17-.14l.57-.7c.3-.2.47-.35.5-.46l.09,0h.07l.25-.21a.45.45,0,0,1,.26-.46.87.87,0,0,0,.38-.27.31.31,0,0,1,.25-.15.23.23,0,0,1,.13.07h0s.05,0,.07-.12V54a.44.44,0,0,1,.12-.32.56.56,0,0,1,.31-.17.7.7,0,0,0,.39-.3.56.56,0,0,1,.42-.27.33.33,0,0,0,.32-.18,1.09,1.09,0,0,1,.5-.38,2.52,2.52,0,0,1,.52-.22.66.66,0,0,0,.2-.06.27.27,0,0,1,.18,0,1.08,1.08,0,0,1,.33.07l.21,0a1.28,1.28,0,0,1,.5.44l.12.11v.05l0,.2v.09c.1,0,.16.09.16.14l-.09.15a.38.38,0,0,0,0,.19c0,.08,0,.15,0,.22s0,.15,0,.21a1.05,1.05,0,0,1-.05.19l-.06.16a1.19,1.19,0,0,1-.09.15l-.09.37a1.54,1.54,0,0,1-.25.53,3.17,3.17,0,0,0-.24.43,1.57,1.57,0,0,1-.16.33l0,.07v.17c.25,0,.37-.13.37-.28a.37.37,0,0,1,.29-.36l.25-.21a1.51,1.51,0,0,1,.75-.7.58.58,0,0,1,.22-.39L373,54l.31-.17a.92.92,0,0,1,.48-.52l.26-.17c.16-.08.24-.15.26-.22a.46.46,0,0,1,.18-.23c.11-.08.25-.21.45-.39l.09,0,.12-.12a1.6,1.6,0,0,1,.29-.11l.09,0a1.83,1.83,0,0,1,.53-.3,2.42,2.42,0,0,0,.52-.25l.41-.06a.65.65,0,0,1,.18,0c.74,0,1.11.41,1.11,1.24l0,.19,0,.67c-.19.32-.29.49-.29.5l0,.21a.94.94,0,0,1-.15.28l-.18.27-.21.25-.12.34a.7.7,0,0,1-.2.23v.14c0,.11-.15.29-.45.52a.86.86,0,0,1-.21.45,1.05,1.05,0,0,0-.22.3,1.05,1.05,0,0,1-.24.3,1.2,1.2,0,0,1-.2.51,2.23,2.23,0,0,1-.3.46,1.1,1.1,0,0,0-.23.34l-.11.05c0,.29-.1.46-.16.5l-.18,0v0a.12.12,0,0,0,0,.08.24.24,0,0,1,.05.13.16.16,0,0,1-.07.14.21.21,0,0,0-.08.12.24.24,0,0,1-.06.11.72.72,0,0,0-.05.23,1.19,1.19,0,0,1-.17.46,1.58,1.58,0,0,0-.18.4c0,.07,0,.13,0,.17a.39.39,0,0,0,0,.14,2.47,2.47,0,0,1-.06.36c.15.35.26.59.32.71a.83.83,0,0,1,.09.25,1.21,1.21,0,0,1-.11.62c-.08.1-.27.16-.58.16a.69.69,0,0,1-.5-.21.64.64,0,0,0-.38-.2v-.21l0,0h-.18l-.1-.08a.86.86,0,0,1-.15-.17l-.07-.07a1.07,1.07,0,0,1-.16-.38l-.07-.23,0-.19,0-.29a.92.92,0,0,1,0-.19l0-.31a1,1,0,0,1,0-.21,1.79,1.79,0,0,0,.06-.37.54.54,0,0,1,.11-.33.46.46,0,0,0,.1-.2.26.26,0,0,1,.06-.13.47.47,0,0,0,.09-.26.5.5,0,0,1,.25-.34c.07-.14.14-.27.19-.4s.25-.33.26-.33h.16a.76.76,0,0,1-.11-.17c0-.21.08-.31.24-.31l.12,0,.05-.09-.05-.2c0-.13.1-.26.3-.4a.79.79,0,0,1,.32-.6l0-.19a1.36,1.36,0,0,0,.2-.31,3.18,3.18,0,0,1,.33-.48l.36-.55.16-.18s0,0,0,0l0,0,0-.13.07-.17.08-.09q.3-.09.3-.21a.44.44,0,0,0-.09-.15v0a.39.39,0,0,1,.14-.23,1.76,1.76,0,0,0,.26-.39,1.18,1.18,0,0,0,.12-.31s0-.05,0-.05a.49.49,0,0,0-.5.27s-.15.14-.46.28l-.11.17a.4.4,0,0,1-.25.13.54.54,0,0,0-.27.13l-.74.61a7.74,7.74,0,0,0-.84.78l-.27.18c-.11.06-.16.1-.16.13s-.07.18-.2.3l-.14.18-.19-.06a.26.26,0,0,0-.22.13l.1.11c0,.13-.12.25-.35.39l-.51.52a.89.89,0,0,1-.17.13.71.71,0,0,0-.23.26,3.17,3.17,0,0,1-.41.55,3.4,3.4,0,0,1-.4.42.41.41,0,0,0-.14.15,2.42,2.42,0,0,1-.34.37.79.79,0,0,0-.29.51c-.15.05-.22.1-.22.14l-.07.11-.1.05a.45.45,0,0,0,0,.16c0,.07-.17.2-.47.39a1.76,1.76,0,0,1-.57.29.19.19,0,0,0-.1,0,.17.17,0,0,1-.1.05l-.3-.14a.92.92,0,0,1-.41-.65l.1-.3-.05-.25a.33.33,0,0,1,.11-.18.44.44,0,0,0,.11-.29l.28-.6,0-.18a1.35,1.35,0,0,1,.16-.27.71.71,0,0,0,.14-.32.24.24,0,0,1,.15-.23,7.38,7.38,0,0,0,.94-1.41v-.16l.34-.58c.1-.17.22-.37.37-.59l.1-.26a3,3,0,0,0-.38-.14.3.3,0,0,0-.18.09c0,.13-.22.27-.68.41a1.18,1.18,0,0,0-.36.34l-.33.18-.22.19-.16.15a.87.87,0,0,0-.5.33l-.32.22a1,1,0,0,0-.18.17,2.6,2.6,0,0,1-.43.26l-.19.18-.17.1a2.24,2.24,0,0,0-.28.33.38.38,0,0,1-.25.17l-.25.09a1.08,1.08,0,0,1-.43.58l-.34.42a1.31,1.31,0,0,1-.16.13.3.3,0,0,1-.17.16l-.19.26-.14.1c-.21.08-.32.14-.32.19l0,.21c0,.08-.09.17-.27.24a.23.23,0,0,0-.14.19.85.85,0,0,1-.09.27h-.21l-.22.11a.05.05,0,0,0,0,0l0,.26a.48.48,0,0,1-.18.32,2.52,2.52,0,0,0-.29.33c-.06.09-.11.13-.14.13h-.07l-.07.05a.63.63,0,0,1-.29.48L361,62a4.4,4.4,0,0,0-.4.59,5.92,5.92,0,0,1-.62.84,1.63,1.63,0,0,1-.53.44l-.53.23-.47-.09a.53.53,0,0,0-.21-.21c-.09-.06-.13-.12-.13-.18l-.14-.41a.87.87,0,0,1,.13-.4,1.77,1.77,0,0,0,.15-.37,2,2,0,0,1,.14-.36,1.51,1.51,0,0,0,.1-.25c0-.21,0-.34.1-.39l.45-.34s0,0,0-.05v0l0-.2c.18-.31.29-.46.34-.46l.09,0-.07-.26s0-.08.13-.15a1.07,1.07,0,0,0,.2-.23l-.05-.14v0a.62.62,0,0,1,.29-.45l.19-.48.3-.54a.74.74,0,0,1,.25-.29.27.27,0,0,0,.14-.18.67.67,0,0,1,.08-.24s0,0,0,0l.06-.23a.42.42,0,0,1,.26-.28c.18-.46.32-.68.42-.68a.27.27,0,0,1,.13,0h.05c.12,0,.18,0,.18-.14s0,0,0,0a.32.32,0,0,1-.19.11c-.05,0-.08,0-.08,0a.05.05,0,0,1,0-.05l.26-.52,0-.23.19-.2.2-.27v-.12a1.67,1.67,0,0,1,.1-.24,1.77,1.77,0,0,0,.15-.42l.2-.29a.91.91,0,0,0,.05-.26c0-.12,0-.17-.05-.17l-.67.12a7.74,7.74,0,0,0-.79.45l-.27.05-.31.16a1.39,1.39,0,0,1-.5.18.62.62,0,0,0-.38.16l-.05,0h-.22a1.62,1.62,0,0,0-.17.23s-.06.07-.08.07c-.79.52-1.28.84-1.49.94a2.92,2.92,0,0,0-.48.3,1.54,1.54,0,0,1-.28.19v.14a.67.67,0,0,1-.28.45.81.81,0,0,1-.5.25.4.4,0,0,1-.21-.08.9.9,0,0,0-.33-.09q-.18,0-.18-.45c0-.39.32-.75,1-1.08l.28-.16a9.53,9.53,0,0,1,1-.46l.34-.16a1,1,0,0,1,.39-.21l.43-.17.25-.1Zm10.93,2.82.11-.21v0s0,0,0,0-.14.08-.19.23,0,.07.05.07A.08.08,0,0,0,370.4,56.74Z"/><path class="fa7f3ca1-8528-429b-8644-e06f4e5654fd" d="M385.83,60.67l.18-.16a.18.18,0,0,0,.21-.16.38.38,0,0,1,.25-.25,1,1,0,0,0,.4-.38c.12-.19.25-.28.38-.28s.1,0,.17.11a.35.35,0,0,1,.09.19,1.62,1.62,0,0,1-.23.79l0,.33-.08.15a.52.52,0,0,0-.23.2.83.83,0,0,1-.27.25l-.12.17a.52.52,0,0,0-.34.26.31.31,0,0,1-.25.21.67.67,0,0,0-.34.24l-.28.1,0,.12a.85.85,0,0,1-.37.18,1.6,1.6,0,0,0-.37.14.49.49,0,0,1-.17.06,1,1,0,0,1-.41-.09,1.66,1.66,0,0,0-.38-.11.19.19,0,0,1-.08-.15.59.59,0,0,0-.12-.21.58.58,0,0,1-.1-.37l0-.22a.22.22,0,0,0-.06-.12.21.21,0,0,1,0-.11s0-.06,0-.07a.14.14,0,0,0,0-.07.59.59,0,0,0,0-.13.3.3,0,0,1,0-.12l.07-.57c0-.05,0-.07-.05-.07s-.09,0-.17.12a.38.38,0,0,1-.28.11.52.52,0,0,0-.16.3,1.14,1.14,0,0,1-.23.2l-.05.07c0,.06-.07.1-.17.14a.42.42,0,0,0-.21.13l-.12.12-.22,0a1.67,1.67,0,0,0-.13.2.94.94,0,0,1-.26.3l-.89.72a4,4,0,0,1-.41.23l-.07.07a3.06,3.06,0,0,1-1.31.62,1.85,1.85,0,0,1-.73-.18c-.28-.11-.44-.25-.46-.42l-.12-.47a.85.85,0,0,1-.1-.46.62.62,0,0,1,0-.18v-.07l0-.39c0-.09.07-.14.22-.14l0-.31a2.05,2.05,0,0,1,.2-.37,2.12,2.12,0,0,1,.28-.37l.11-.15a.36.36,0,0,1,.17-.29,2.42,2.42,0,0,0,.27-.32,1.46,1.46,0,0,1,.4-.36l.35-.35a3.74,3.74,0,0,1,.89-.66,1.06,1.06,0,0,0,.28-.23,1.5,1.5,0,0,1,.49-.31,3.26,3.26,0,0,0,.54-.25.9.9,0,0,1,.41-.15h.09a4.57,4.57,0,0,0,.62-.29h.07a.68.68,0,0,1,.22.09h0l.18-.09a.22.22,0,0,1,.12,0c.48,0,.75.33.79,1q0,.21.12.21c.08,0,.19-.14.33-.43a.93.93,0,0,1,.92-.42c.33,0,.5.21.5.64a2,2,0,0,1-.68,1.43,1,1,0,0,0-.07.21l-.16.48v0a.32.32,0,0,1-.1.19.35.35,0,0,0-.1.22l0,.29,0,.32c0,.15,0,.25.08.3a1,1,0,0,0,.54-.31q.16-.22.24-.24l.11,0A1.16,1.16,0,0,1,385.83,60.67Zm-3.87,0a.55.55,0,0,1,.29-.39.61.61,0,0,0,.28-.27,6.52,6.52,0,0,0,.63-.58c.28-.28.42-.45.42-.52s0,0-.05,0h0l-.09.06-.21,0-.23,0-.16-.08-.15,0-.23-.05a.63.63,0,0,0-.32.08,2.9,2.9,0,0,1-.51.17,1.9,1.9,0,0,0-.69.32.91.91,0,0,1-.44.22,1.61,1.61,0,0,1-.55.5.58.58,0,0,0-.36.41,1.33,1.33,0,0,0-.3.28l-.08.2a.73.73,0,0,1-.23.13.28.28,0,0,0-.17.25.61.61,0,0,1-.15.35.43.43,0,0,0-.14.25c0,.38.08.57.22.57a1.12,1.12,0,0,0,.39-.13,1.74,1.74,0,0,0,.35-.16.47.47,0,0,1,.18-.1l.22-.11A.3.3,0,0,1,380,62a.21.21,0,0,0,.12-.08.6.6,0,0,1,.2-.14.6.6,0,0,0,.24-.2l.64-.36.24-.19a.87.87,0,0,0,.32-.2A.68.68,0,0,1,382,60.67Z"/><path class="fa7f3ca1-8528-429b-8644-e06f4e5654fd" d="M387.52,59.44l.1-.13a.55.55,0,0,0,.38-.23,4.05,4.05,0,0,1,.59-.61c.36-.35.56-.53.6-.56a5.11,5.11,0,0,0,.46-1c.09,0,.14-.1.14-.16l.09-.19.1,0,0-.05v-.1a3,3,0,0,1,.45-1c.3-.63.47-1,.49-1a1.78,1.78,0,0,1,.14-.3,6.22,6.22,0,0,0,.32-.73,4.8,4.8,0,0,1,.67-1.15s.08-.1.14-.26a1.71,1.71,0,0,1,.29-.47l.14-.24.24-.41a4.91,4.91,0,0,1,.32-.46,1.16,1.16,0,0,0,.23-.36.6.6,0,0,1,.18-.26,1,1,0,0,0,.21-.3.37.37,0,0,1,.34-.22.69.69,0,0,1,.66.38,1.33,1.33,0,0,1,.21.65s-.05.19-.14.5l-.18,1.05c-.15.08-.23.16-.23.27a2.22,2.22,0,0,1-.48,1.28.69.69,0,0,0-.07.3.65.65,0,0,1-.21.42,1.47,1.47,0,0,0-.31.54l-1.08,1.55-.1.1a.67.67,0,0,0-.16.19l-.19,0c-.21,0-.31.06-.31.19a.41.41,0,0,0,0,.19v0s-.29.42-.87,1.23a2.51,2.51,0,0,0-.16.45l-.16.35a2.12,2.12,0,0,0-.35.66,1.36,1.36,0,0,1-.26.51l-.23.55s0,.07.07.07.16-.12.33-.35a2.2,2.2,0,0,1,.43-.46,1,1,0,0,0,.29-.33l.11-.08.2-.14.12,0a.31.31,0,0,0,.12-.16.21.21,0,0,1,.07-.14.4.4,0,0,0,.37-.22c0-.13.12-.19.19-.19s.14-.07.24-.21a1,1,0,0,1,.43-.35,2.44,2.44,0,0,0,.4-.24,2.26,2.26,0,0,1,.55-.25,2,2,0,0,1,.54-.15h.07l.1,0,.17,0a1.7,1.7,0,0,1,.82.23.65.65,0,0,1,.35.7l-.1.73-.12.57a6.13,6.13,0,0,1-.19.61,3.11,3.11,0,0,0-.16.55l0,.22,0,.3,0,.25a.11.11,0,0,0,.12.12s.12-.07.26-.21.16,0,.24-.14a2.33,2.33,0,0,1,.31-.34s.05-.06.15-.09a1.4,1.4,0,0,0,.42-.27,2.13,2.13,0,0,1,.45-.45,3.72,3.72,0,0,1,.78-.53l.07-.09a.51.51,0,0,1,.36-.2c.11,0,.16.06.16.17a.61.61,0,0,1-.06.25,1.14,1.14,0,0,0-.08.33,1.68,1.68,0,0,1-.23.59l-.05.11a.38.38,0,0,1-.19.24.5.5,0,0,0-.25.19,1.46,1.46,0,0,1-.56.3c-.12.23-.22.35-.29.35l-.21-.1a.55.55,0,0,0-.24.41,2.51,2.51,0,0,0-.36.34l-.23,0c-.07,0-.1.09-.1.26s-.08.07-.23.16a2.39,2.39,0,0,0-.37.24,1,1,0,0,1-.55.1.29.29,0,0,1-.14-.08.68.68,0,0,0-.27-.14.4.4,0,0,1-.25-.27,1.61,1.61,0,0,0-.15-.34.35.35,0,0,1-.08-.19l0-.24-.06-.24.11-.16a.66.66,0,0,1-.07-.23l.11-.71a9.92,9.92,0,0,1,.21-1s0-.06,0-.14l0-.29,0-.16c0-.12,0-.18-.12-.19s-.12,0-.14-.05l-.17-.07c-.07,0-.12,0-.17.14a.81.81,0,0,1-.18.26l-.29,0v0c0,.06-.11.18-.32.36a1,1,0,0,0-.5.3.7.7,0,0,0-.32.18,1.68,1.68,0,0,1-.3.21l-.09.18-.19.06a.45.45,0,0,1-.38.3l-.12.23a.37.37,0,0,0-.34.25c-.06.15-.11.22-.14.22l-.07,0-.1,0c-.17,0-.27.13-.28.39a3.79,3.79,0,0,1-.48.55l-.51.51s-.07.09-.14.24a.64.64,0,0,1-.27.33l-.26.18a.23.23,0,0,1-.14.07c-.16,0-.29-.11-.39-.34l-.15-.37.07-.24,0-.21.15-.47a2.71,2.71,0,0,1,.33-.72,2.3,2.3,0,0,0,.29-.86,2.31,2.31,0,0,1-.63.35c-.15,0-.23-.1-.23-.3A1.54,1.54,0,0,1,387.52,59.44Z"/><path class="fa7f3ca1-8528-429b-8644-e06f4e5654fd" d="M406.52,60.67l.19-.16a.18.18,0,0,0,.21-.16.36.36,0,0,1,.25-.25,1,1,0,0,0,.4-.38c.12-.19.25-.28.38-.28s.1,0,.16.11a.39.39,0,0,1,.1.19,1.54,1.54,0,0,1-.24.79l0,.33-.08.15a.47.47,0,0,0-.23.2,1,1,0,0,1-.27.25l-.12.17a.5.5,0,0,0-.34.26.31.31,0,0,1-.25.21.67.67,0,0,0-.34.24l-.28.1,0,.12a.85.85,0,0,1-.37.18,1.6,1.6,0,0,0-.37.14.49.49,0,0,1-.17.06.91.91,0,0,1-.41-.09,1.66,1.66,0,0,0-.38-.11.24.24,0,0,1-.09-.15.42.42,0,0,0-.11-.21A.58.58,0,0,1,404,62l.05-.22a.22.22,0,0,0-.06-.12.17.17,0,0,1-.06-.11.08.08,0,0,1,0-.07.14.14,0,0,0,0-.07.59.59,0,0,0,0-.13.35.35,0,0,1,0-.12l.07-.57c0-.05,0-.07,0-.07s-.09,0-.17.12a.39.39,0,0,1-.29.11.59.59,0,0,0-.15.3,1.14,1.14,0,0,1-.23.2l-.05.07c0,.06-.07.1-.17.14a.42.42,0,0,0-.21.13l-.12.12-.22,0a.91.91,0,0,0-.13.2,1,1,0,0,1-.27.3l-.88.72a4,4,0,0,1-.41.23l-.07.07a3.11,3.11,0,0,1-1.31.62,1.93,1.93,0,0,1-.74-.18q-.42-.16-.45-.42l-.12-.47a.85.85,0,0,1-.1-.46.39.39,0,0,1,0-.18v-.07l0-.39c0-.09.07-.14.22-.14l0-.31a1.49,1.49,0,0,1,.2-.37,2.3,2.3,0,0,1,.27-.37l.12-.15a.38.38,0,0,1,.16-.29,1.94,1.94,0,0,0,.28-.32,1.32,1.32,0,0,1,.4-.36l.35-.35a3.9,3.9,0,0,1,.88-.66.91.91,0,0,0,.29-.23,1.41,1.41,0,0,1,.49-.31,3.26,3.26,0,0,0,.54-.25.9.9,0,0,1,.41-.15h.09a5.32,5.32,0,0,0,.62-.29h.07a.68.68,0,0,1,.22.09h0l.19-.09a.22.22,0,0,1,.12,0c.48,0,.74.33.79,1,0,.14.05.21.12.21s.18-.14.33-.43a.92.92,0,0,1,.91-.42c.34,0,.5.21.5.64a2,2,0,0,1-.67,1.43.65.65,0,0,0-.07.21l-.16.48v0a.39.39,0,0,1-.1.19.35.35,0,0,0-.1.22l0,.29,0,.32c0,.15,0,.25.08.3a1.09,1.09,0,0,0,.54-.31c.11-.15.19-.23.23-.24l.12,0A1.37,1.37,0,0,1,406.52,60.67Zm-3.86,0a.53.53,0,0,1,.28-.39.59.59,0,0,0,.29-.27,6.52,6.52,0,0,0,.63-.58c.28-.28.42-.45.42-.52s0,0,0,0h0l-.1.06-.21,0-.22,0-.16-.08-.15,0-.23-.05a.61.61,0,0,0-.32.08,2.8,2.8,0,0,1-.52.17,1.85,1.85,0,0,0-.68.32.91.91,0,0,1-.44.22,1.72,1.72,0,0,1-.55.5.58.58,0,0,0-.36.41,1.33,1.33,0,0,0-.3.28l-.08.2a.78.78,0,0,1-.24.13.29.29,0,0,0-.16.25.62.62,0,0,1-.16.35.4.4,0,0,0-.13.25c0,.38.07.57.22.57a1.26,1.26,0,0,0,.39-.13,1.53,1.53,0,0,0,.34-.16.65.65,0,0,1,.19-.1l.22-.11a.24.24,0,0,1,.11-.06.19.19,0,0,0,.11-.08.83.83,0,0,1,.21-.14.68.68,0,0,0,.24-.2l.64-.36.24-.19a.87.87,0,0,0,.32-.2A.59.59,0,0,1,402.66,60.67Z"/><path class="fa7f3ca1-8528-429b-8644-e06f4e5654fd" d="M409.75,58.12l.16-.29a1.68,1.68,0,0,1,.18-.21,1.77,1.77,0,0,0,.24-.58,1.7,1.7,0,0,1,.28-.63.58.58,0,0,1,.46-.17,1,1,0,0,1,.46.16,1.9,1.9,0,0,1,.56,1,4.48,4.48,0,0,1,.28,1.2.94.94,0,0,0,.08.36,1.86,1.86,0,0,1,.1.33,1.15,1.15,0,0,0-.09.22l0,.48-.14.38v.28a1.06,1.06,0,0,0-.14.29.24.24,0,0,0,.05.14,1.7,1.7,0,0,0,.66-.38.69.69,0,0,1,.23-.18,1.15,1.15,0,0,0,.37-.3l.22-.12.2-.25a.4.4,0,0,1,.19-.15,1.25,1.25,0,0,0,.26-.17,4.29,4.29,0,0,1,.44-.26l.12-.14a1.17,1.17,0,0,1,.41-.32,1.4,1.4,0,0,1,.26-.11c.06,0,.11.07.17.21a1.11,1.11,0,0,1,.09.43.55.55,0,0,1-.23.39,3.55,3.55,0,0,0-.31.28.71.71,0,0,1-.37.16s-.14.17-.38.48l-.24.14-.11.15s-.12.06-.32.1c0,0,0,0-.05.11s-.11.13-.25.16a2.65,2.65,0,0,0-.43.44l-.24,0a.88.88,0,0,1-.12.27c-.19.05-.29.12-.31.23l-.12,0-.05,0a1.21,1.21,0,0,1-.52.26l-.27.07-.09.14s-.1.09-.29.15a1,1,0,0,0-.42.23l-.2.15a1.18,1.18,0,0,0-.45.26h-.16a1.15,1.15,0,0,0-.52.24,1.1,1.1,0,0,1-.55.24,1.83,1.83,0,0,1-.93-.17,1.37,1.37,0,0,1-.41-.42,3.18,3.18,0,0,0-.3-.4.4.4,0,0,1-.13-.25s0-.1.11-.16a1,1,0,0,0,.24-.33c.08-.17.3-.27.65-.32l.17-.07a.49.49,0,0,1,.23-.07q.12,0,.3.21s0,0,0,0l.19,0a.39.39,0,0,0,.17.09.91.91,0,0,0,.6-.28l0,0h.1s.06-.07.11-.2l.2-.41.41-.52v-.12a.89.89,0,0,1,.07-.21v-.17c0-.07,0-.11.14-.13s.14-.07.14-.15l0-.09a.41.41,0,0,1-.09-.2l.12-.23,0-.25,0-.09a1.83,1.83,0,0,1,0-.19l0-.29a1.72,1.72,0,0,0-.07-.22q-.06-.21-.09-.21t-.45.36a2.36,2.36,0,0,0-.44.51.63.63,0,0,1-.3.28.77.77,0,0,0-.31.27.33.33,0,0,1-.19.18l-.79.62-.85.63c-.06.07-.1.11-.11.11-.29,0-.43-.16-.43-.48a1.61,1.61,0,0,1,.17-.55l.12-.07s0,0,0,0,0,0,0,0l.07,0h0a4.1,4.1,0,0,1,.56-.33.48.48,0,0,0,.24-.26l.49-.35a7.22,7.22,0,0,0,.57-.51A3.6,3.6,0,0,0,409.75,58.12Z"/><path class="fa7f3ca1-8528-429b-8644-e06f4e5654fd" d="M414.22,59.65l.19-.17h.07c.06,0,.14,0,.25-.17l.11-.05c.16-.23.29-.37.41-.4l.19-.14a.33.33,0,0,1,.13-.09.92.92,0,0,0,.28-.22c.13-.13.23-.19.31-.19a.53.53,0,0,1,.19,0,.74.74,0,0,1,.28-.28.92.92,0,0,0,.33-.32l.15-.07a1.36,1.36,0,0,0,.34-.23.49.49,0,0,1,.38-.15,1,1,0,0,1,.7.34,1,1,0,0,1,.37.66l-.2.91c-.13.67-.28,1-.44,1l-.05.24c-.11.08-.16.14-.16.19l.07.28s-.05.09-.13.17,0,0,0,.07v.48c0,.08-.06.15-.17.21l.07.05c.05-.05.15-.07.32-.07l.18,0,.26-.26a.89.89,0,0,0,.23-.11,3.09,3.09,0,0,1,.49-.22L420.87,60c.21-.21.37-.31.48-.31s.17.07.17.22a.77.77,0,0,1-.1.42,3.31,3.31,0,0,0-.18.41.64.64,0,0,1-.19.33.91.91,0,0,0-.18.21,1.38,1.38,0,0,1-.38.32,4,4,0,0,0-.52.42,2.67,2.67,0,0,1-.35.31l-.51.36-.07.12-.21.1a1.25,1.25,0,0,0-.34.19l-.21.11a.58.58,0,0,1-.23.06.36.36,0,0,0-.27.14c-.08.08-.14.12-.19.12l-.18,0-.23.07a.86.86,0,0,1-.48-.23.68.68,0,0,1-.29-.51v-.07l0-.16a1.8,1.8,0,0,0-.07-.24,1.06,1.06,0,0,1-.07-.22l0-.16,0-.07a1.12,1.12,0,0,1,0-.4.44.44,0,0,0,.07-.22c0-.1,0-.18,0-.24l.06-.29a.31.31,0,0,1,.12-.19,2.07,2.07,0,0,1,.09-.31l0-.21.12-.17a.39.39,0,0,0,.11-.25.83.83,0,0,1,.12-.33.68.68,0,0,0,.11-.21.13.13,0,0,0-.14-.14,1.19,1.19,0,0,0-.29.19l-.21-.07s-.06,0-.13.12,0,.05-.1.07a.31.31,0,0,0-.2.17l-.1,0-.15-.07h0c-.08,0-.13.09-.14.26a.58.58,0,0,1-.34.24l-.26.07a.32.32,0,0,0-.18.21.67.67,0,0,1-.24.3.49.49,0,0,1-.23.13c-.22,0-.32-.12-.32-.36l.09-.54Zm5-5.82-.07-.46V53.3c0-.36.13-.56.38-.6l.49-.15a.8.8,0,0,1,.43.36,1.05,1.05,0,0,1,.23.57.27.27,0,0,1,0,.1,1.46,1.46,0,0,0,0,.31.58.58,0,0,1-.23.4.74.74,0,0,1-.46.16.66.66,0,0,1-.41-.22A.79.79,0,0,1,419.25,53.83Z"/><path class="fa7f3ca1-8528-429b-8644-e06f4e5654fd" d="M423.31,58.12l.16-.29a1.68,1.68,0,0,1,.18-.21,1.42,1.42,0,0,0,.24-.58,1.69,1.69,0,0,1,.29-.63.56.56,0,0,1,.46-.17,1,1,0,0,1,.46.16,2,2,0,0,1,.56,1,4.76,4.76,0,0,1,.27,1.2A1.18,1.18,0,0,0,426,59a2.08,2.08,0,0,1,.11.33.9.9,0,0,0-.1.22l0,.48-.14.38v.28a.81.81,0,0,0-.14.29.23.23,0,0,0,0,.14,1.86,1.86,0,0,0,.67-.38.58.58,0,0,1,.22-.18,1.05,1.05,0,0,0,.37-.3l.22-.12.2-.25a.45.45,0,0,1,.19-.15,1.25,1.25,0,0,0,.26-.17,4.29,4.29,0,0,1,.44-.26l.12-.14a1.17,1.17,0,0,1,.41-.32,1.4,1.4,0,0,1,.26-.11c.06,0,.11.07.17.21a1.11,1.11,0,0,1,.09.43.55.55,0,0,1-.23.39,3.55,3.55,0,0,0-.31.28.67.67,0,0,1-.37.16l-.38.48-.23.14-.12.15s-.12.06-.32.1a.61.61,0,0,0-.05.11c0,.08-.11.13-.25.16a2.65,2.65,0,0,0-.43.44l-.24,0a.88.88,0,0,1-.12.27c-.19.05-.29.12-.31.23l-.12,0-.05,0a1.16,1.16,0,0,1-.52.26l-.27.07-.09.14s-.09.09-.28.15a1.08,1.08,0,0,0-.43.23l-.2.15a1.18,1.18,0,0,0-.45.26h-.16a1.09,1.09,0,0,0-.51.24,1.13,1.13,0,0,1-.56.24,1.83,1.83,0,0,1-.93-.17,1.49,1.49,0,0,1-.41-.42,3.18,3.18,0,0,0-.3-.4.4.4,0,0,1-.13-.25s0-.1.11-.16a1,1,0,0,0,.24-.33c.08-.17.3-.27.65-.32l.17-.07a.49.49,0,0,1,.24-.07c.07,0,.17.07.29.21s0,0,0,0l.19,0a.45.45,0,0,0,.17.09.91.91,0,0,0,.6-.28l0,0h.1s.06-.07.11-.2l.2-.41.41-.52v-.12a.89.89,0,0,1,.07-.21v-.17c0-.07,0-.11.14-.13s.14-.07.14-.15l0-.09a.41.41,0,0,1-.09-.2l.12-.23,0-.25,0-.09a1.83,1.83,0,0,1,0-.19l0-.29-.06-.22c0-.14-.08-.21-.1-.21s-.2.12-.45.36a2.71,2.71,0,0,0-.44.51.55.55,0,0,1-.3.28.67.67,0,0,0-.3.27.34.34,0,0,1-.2.18l-.78.62-.85.63-.12.11c-.29,0-.43-.16-.43-.48a1.89,1.89,0,0,1,.17-.55l.12-.07,0,0s0,0,0,0l.07,0h0a3.14,3.14,0,0,1,.56-.33.5.5,0,0,0,.23-.26l.49-.35a7.22,7.22,0,0,0,.57-.51A3.6,3.6,0,0,0,423.31,58.12Z"/><path class="fa7f3ca1-8528-429b-8644-e06f4e5654fd" d="M429.42,58.51l.2,0,.2-.23a.75.75,0,0,1,.31-.22.68.68,0,0,0,.31-.37,2,2,0,0,1,.84-.57,1,1,0,0,1,.58.46,2.67,2.67,0,0,1,.09.82.83.83,0,0,1-.12.38,2.38,2.38,0,0,0-.16.36,2.53,2.53,0,0,1-.22.39s0,.05-.06.08a.79.79,0,0,0-.14.24,1.21,1.21,0,0,1-.22.32,1.07,1.07,0,0,0-.2.32,4.23,4.23,0,0,1-.32.59,4.61,4.61,0,0,0-.25.81c0,.08,0,.12.07.12a.37.37,0,0,0,.16-.07l.11,0h.13l.17-.12a1.23,1.23,0,0,0,0-.16,2,2,0,0,1,.32-.14l0,0a.59.59,0,0,1,0-.13c0-.08.07-.13.22-.15a.71.71,0,0,0,.35-.15c0-.11,0-.16.05-.18s.09-.07.14-.16a.31.31,0,0,1,.25-.17c.11,0,.17-.06.17-.14a.69.69,0,0,1,.43-.6c.06,0,.1-.05.1-.12a.55.55,0,0,1,0-.25l.21-.13.23-.3.11-.25a.58.58,0,0,1,.11-.15.79.79,0,0,0,.18-.26A.89.89,0,0,1,434,58l.13-.2c.11-.2.24-.31.4-.31s.28.13.57.37a1.36,1.36,0,0,1,.44,1.09c0,.19-.05.3-.15.34s-.17.17-.22.39a2.14,2.14,0,0,1-.22.63,2.45,2.45,0,0,0-.16.3l.05.14v.05a.65.65,0,0,1-.14.43.73.73,0,0,1,.07.2l-.12.19c0,.3.09.45.16.45a.59.59,0,0,0,.19,0,.54.54,0,0,1,.21-.05,1.16,1.16,0,0,0,.35-.17l.76-.48.14-.16.11-.07a.49.49,0,0,0,.25-.26.28.28,0,0,1,.23-.19.88.88,0,0,1,.28-.5l.34-.64a1.6,1.6,0,0,1,.16-.29,3.17,3.17,0,0,0-.3-1.12V58a.81.81,0,0,1,.15-.46c.1-.14.2-.22.29-.22l.24,0,.32-.07a1.47,1.47,0,0,1,.5.34,1.06,1.06,0,0,1,.42.86,1.25,1.25,0,0,1-.12.56,1.49,1.49,0,0,0-.15.45.46.46,0,0,1-.23.34l0,0a1,1,0,0,1-.45.83c-.08.12-.16.26-.25.43a.61.61,0,0,1-.23.29s-.08.09-.18.27a1.49,1.49,0,0,1-.24.31l-.32.15c-.16.07-.24.15-.24.25l0,.16a4,4,0,0,0-.52.43l-.23,0a1.81,1.81,0,0,1-1.33.48,1.42,1.42,0,0,1-.88-.4,1.13,1.13,0,0,1-.47-.82l-.1-.38a7.53,7.53,0,0,1,.07-1.29.16.16,0,0,0,0-.09c0-.1,0-.14-.08-.14a.62.62,0,0,0-.12.19.35.35,0,0,1-.15.18L433,61a.63.63,0,0,1-.12.32,1.1,1.1,0,0,0-.21.18,2,2,0,0,1-.31.26,2.85,2.85,0,0,1-.47.7v.07l-.12.07-.19.18a5.42,5.42,0,0,1-.88.61,3.4,3.4,0,0,1-.83.44.77.77,0,0,1-.55-.22.88.88,0,0,1-.26-.48,2.07,2.07,0,0,0-.1-.46,1,1,0,0,1-.07-.32.84.84,0,0,1,.05-.23,1.47,1.47,0,0,0,.05-.34c0-.11,0-.17,0-.18v-.23a.91.91,0,0,1,.13-.18.53.53,0,0,0,.14-.34.44.44,0,0,1,.1-.22,1.51,1.51,0,0,0,.15-.26.54.54,0,0,1,.18-.25,1.86,1.86,0,0,1,.1-.33,1,1,0,0,0,.08-.27,0,0,0,0,0,0,0q-.16,0-.48.3l-.21.12a4,4,0,0,0-.52.38c-.11.15-.22.22-.31.22-.36,0-.55-.17-.55-.5a.4.4,0,0,1,.14-.34.3.3,0,0,0,.15-.18c0-.06.11-.1.29-.14s.36-.21.56-.54c.18,0,.28,0,.31-.08A1,1,0,0,1,429.42,58.51Z"/><path class="fa7f3ca1-8528-429b-8644-e06f4e5654fd" d="M449.42,60.67l.19-.16a.2.2,0,0,0,.21-.16.36.36,0,0,1,.25-.25,1,1,0,0,0,.4-.38c.12-.19.25-.28.38-.28s.1,0,.16.11a.35.35,0,0,1,.09.19,1.52,1.52,0,0,1-.23.79l-.05.33-.08.15a.48.48,0,0,0-.22.2.9.9,0,0,1-.28.25l-.11.17a.54.54,0,0,0-.35.26.3.3,0,0,1-.24.21.63.63,0,0,0-.34.24l-.28.1,0,.12a.81.81,0,0,1-.36.18,1.94,1.94,0,0,0-.38.14.46.46,0,0,1-.16.06.91.91,0,0,1-.41-.09,1.74,1.74,0,0,0-.39-.11.28.28,0,0,1-.08-.15.42.42,0,0,0-.11-.21.58.58,0,0,1-.11-.37l.05-.22a.22.22,0,0,0-.06-.12.17.17,0,0,1-.06-.11.08.08,0,0,1,0-.07.14.14,0,0,0,0-.07.59.59,0,0,0,0-.13.35.35,0,0,1,0-.12l.07-.57c0-.05,0-.07,0-.07s-.09,0-.17.12a.41.41,0,0,1-.29.11.59.59,0,0,0-.15.3,1.14,1.14,0,0,1-.23.2l-.05.07c0,.06-.07.1-.17.14a.35.35,0,0,0-.21.13l-.12.12-.22,0a.91.91,0,0,0-.13.2,1,1,0,0,1-.27.3l-.88.72c-.1.06-.23.14-.41.23l-.07.07a3.11,3.11,0,0,1-1.31.62,1.93,1.93,0,0,1-.74-.18q-.42-.16-.45-.42l-.12-.47a.85.85,0,0,1-.1-.46.39.39,0,0,1,0-.18v-.07l0-.39c0-.09.07-.14.22-.14l0-.31a3.87,3.87,0,0,1,.48-.74l.12-.15a.35.35,0,0,1,.16-.29,1.94,1.94,0,0,0,.28-.32,1.32,1.32,0,0,1,.4-.36l.35-.35a3.69,3.69,0,0,1,.88-.66,1,1,0,0,0,.29-.23,1.32,1.32,0,0,1,.49-.31,2.84,2.84,0,0,0,.53-.25,1,1,0,0,1,.42-.15h.09a5.32,5.32,0,0,0,.62-.29h.07a.78.78,0,0,1,.22.09h0l.19-.09a.22.22,0,0,1,.12,0c.48,0,.74.33.79,1,0,.14,0,.21.11.21s.19-.14.34-.43a.92.92,0,0,1,.91-.42c.34,0,.5.21.5.64a2,2,0,0,1-.67,1.43.65.65,0,0,0-.07.21l-.17.48v0a.35.35,0,0,1-.09.19.35.35,0,0,0-.1.22l0,.29-.05.32a.43.43,0,0,0,.08.3,1,1,0,0,0,.54-.31q.18-.22.24-.24l.12,0A1.37,1.37,0,0,1,449.42,60.67Zm-3.86,0a.53.53,0,0,1,.28-.39.59.59,0,0,0,.29-.27,8,8,0,0,0,.63-.58c.28-.28.41-.45.41-.52s0,0,0,0h0l-.09.06-.21,0-.22,0-.16-.08-.15,0-.24-.05a.66.66,0,0,0-.32.08,2.9,2.9,0,0,1-.51.17,1.85,1.85,0,0,0-.68.32.91.91,0,0,1-.44.22,1.72,1.72,0,0,1-.55.5.54.54,0,0,0-.36.41,1.33,1.33,0,0,0-.3.28l-.08.2a.78.78,0,0,1-.24.13.27.27,0,0,0-.16.25.7.7,0,0,1-.16.35.4.4,0,0,0-.13.25c0,.38.07.57.22.57a1.26,1.26,0,0,0,.39-.13,1.53,1.53,0,0,0,.34-.16.54.54,0,0,1,.19-.1l.22-.11a.24.24,0,0,1,.11-.06.23.23,0,0,0,.11-.08.83.83,0,0,1,.21-.14.57.57,0,0,0,.23-.2l.64-.36L445,61a.81.81,0,0,0,.31-.2A.75.75,0,0,1,445.56,60.67Z"/><path class="fa7f3ca1-8528-429b-8644-e06f4e5654fd" d="M461.88,50.37l.2-.16.23,0a.55.55,0,0,0,.34-.11.52.52,0,0,1,.23-.11.59.59,0,0,0,.21-.12.66.66,0,0,1,.35-.14.63.63,0,0,0,.34-.15.47.47,0,0,1,.24-.13,2.63,2.63,0,0,0,.3-.1l1.06-.33.13.05h.05a.45.45,0,0,0,.27-.11.46.46,0,0,1,.32-.11,1.7,1.7,0,0,0,.46-.14l.07.07a.49.49,0,0,1,.31-.21h.07l.21,0a1.65,1.65,0,0,1,.48-.09l.26,0,.07,0a.46.46,0,0,1,.26-.13h.13l.48-.11.14,0a.69.69,0,0,1,.43-.11h.11l.12,0,.21-.07a3.57,3.57,0,0,1,.94-.07l.3,0,.32-.12.32.07.13,0h0l.12,0h0L473,48l.09,0a.23.23,0,0,1,.14-.08l.22.05a.94.94,0,0,0,.33-.12l.07.07.79-.1.29,0,.26,0a.77.77,0,0,1,.57.2.62.62,0,0,1,.19.42l.05.36-.07.2,0,.23a.32.32,0,0,1-.18.18s0,0-.1.06a.67.67,0,0,0-.21.1,2.11,2.11,0,0,1-.69.06c-.19,0-.32-.06-.37-.18a.32.32,0,0,0-.17-.2l-.51-.21a.27.27,0,0,0-.13,0h-.1l-.47,0-.13,0-.17.07-.86,0-.35,0-.24-.05a.45.45,0,0,0-.16,0,2.78,2.78,0,0,1-.49.05c-.25,0-.37.1-.37.24a.57.57,0,0,0,.09.28.45.45,0,0,1,.1.24.88.88,0,0,0-.17.32.92.92,0,0,0-.16.15c-.08.07-.22.2-.43.36a1.6,1.6,0,0,0-.43.46.35.35,0,0,1-.28.21,1.56,1.56,0,0,0-.29.36l-.1.1a.19.19,0,0,0,0,.1.17.17,0,0,1-.07.14l-.11.28a3.12,3.12,0,0,0-.47.61l-.14.07-.14.16h-.16c-.07,0-.11,0-.11.14l.05.34a1,1,0,0,0-.28.4l-.14.24a3,3,0,0,0-.25.26,2.25,2.25,0,0,1-.23.51l0,.11a3.65,3.65,0,0,1-.82,1.14,1.94,1.94,0,0,0-.14.68c-.23.46-.39.68-.47.66a2.16,2.16,0,0,1-.15.72c-.08.19-.18.46-.31.82a2.52,2.52,0,0,1-.4.78l-.05.09a1.45,1.45,0,0,1-.12.19,5.3,5.3,0,0,1-.22,1l-.07.5-.23.65a.37.37,0,0,0,0,.14.56.56,0,0,0,.08.18.52.52,0,0,1,.08.25.48.48,0,0,1-.06.26.53.53,0,0,0-.06.26.47.47,0,0,1-.38.48H463l-.24,0a1.17,1.17,0,0,1-.89-.47,1.94,1.94,0,0,1-.39-1.28,2.61,2.61,0,0,1,.07-.36c0-.2.07-.33.08-.4a.82.82,0,0,1,.06-.19.72.72,0,0,0,0-.28,1.7,1.7,0,0,1,.29-1c.19-.28.31-.49.38-.61a.12.12,0,0,1,.08-.1.57.57,0,0,1,0-.24.65.65,0,0,1,.29-.54,1.28,1.28,0,0,1,.09-.22c0-.08.12-.28.24-.59a.83.83,0,0,1,.49-.56s0-.07.14-.18l-.05-.41c0-.06.07-.17.21-.31L464,56a.62.62,0,0,1,.3-.36c.05-.08.1-.13.15-.14s0-.13.1-.29a2.4,2.4,0,0,1,.37-.61c.19-.25.38-.5.55-.77s.34-.4.48-.4a.25.25,0,0,0,.24-.25l.07-.43a2.48,2.48,0,0,0,.41-.41l.16-.18a.41.41,0,0,1,.12-.22.67.67,0,0,0,.19-.21,1.33,1.33,0,0,1,.29-.29,1.55,1.55,0,0,1,.69-.83l.19-.2a2.45,2.45,0,0,1,.32-.38.51.51,0,0,0,.19-.26.44.44,0,0,1,.26-.24c.12-.06.18-.12.18-.19s0,0-.09,0a1.72,1.72,0,0,0-.32.07h-.09l-.21,0h-.07l-.2,0a1,1,0,0,1-.32.07l-.15.11h-.26l-.14.14-.1,0-.31,0a.64.64,0,0,0-.33.14s-.13,0-.38.09a2.59,2.59,0,0,0-.72.21,1.42,1.42,0,0,1-.41.16l-.21,0h0a.38.38,0,0,0-.28.15.55.55,0,0,1-.37.19h-.14a1.25,1.25,0,0,0-.47.14l-.32.14-.21,0a1.31,1.31,0,0,1-.24.12.72.72,0,0,0-.19.11.84.84,0,0,1-.19.12,1,1,0,0,0-.22.12.32.32,0,0,1-.19.1h0l-.14,0q-.09,0-.21.15a.57.57,0,0,1-.24.18.53.53,0,0,0-.21.11.48.48,0,0,1-.21.09,1.2,1.2,0,0,0-.16.25,1.17,1.17,0,0,1-.27.35,1,1,0,0,0-.21.22c0,.06-.07.08-.1.08-.38,0-.57-.23-.57-.7l.23-.51a1.12,1.12,0,0,1,.74-.72,2.36,2.36,0,0,0,.67-.25Z"/><path class="fa7f3ca1-8528-429b-8644-e06f4e5654fd" d="M468.43,59.65l.18-.17h.07c.06,0,.14,0,.25-.17l.11-.05c.16-.23.3-.37.41-.4l.19-.14a.43.43,0,0,1,.13-.09.92.92,0,0,0,.28-.22c.13-.13.23-.19.31-.19a.53.53,0,0,1,.19,0,.74.74,0,0,1,.28-.28,1,1,0,0,0,.34-.32l.15-.07a1.5,1.5,0,0,0,.33-.23.5.5,0,0,1,.38-.15,1,1,0,0,1,.7.34.94.94,0,0,1,.37.66l-.2.91c-.13.67-.28,1-.44,1l0,.24c-.11.08-.16.14-.16.19l.07.28s0,.09-.13.17,0,0,0,.07v.48c0,.08-.06.15-.16.21l.07.05c0-.05.15-.07.31-.07l.19,0,.25-.26a.76.76,0,0,0,.23-.11,3.6,3.6,0,0,1,.49-.22L475.08,60c.2-.21.36-.31.47-.31s.18.07.18.22a.87.87,0,0,1-.1.42,1.74,1.74,0,0,0-.18.41.82.82,0,0,1-.19.33.76.76,0,0,0-.19.21,1.45,1.45,0,0,1-.37.32,4.09,4.09,0,0,0-.53.42,2.67,2.67,0,0,1-.35.31l-.5.36-.07.12-.22.1a1.25,1.25,0,0,0-.34.19l-.21.11a.54.54,0,0,1-.23.06.4.4,0,0,0-.27.14c-.08.08-.14.12-.19.12l-.17,0-.23.07a.86.86,0,0,1-.49-.23.67.67,0,0,1-.28-.51v-.07l0-.16a.93.93,0,0,0-.07-.24,1.06,1.06,0,0,1-.07-.22l0-.16,0-.07a1,1,0,0,1,.05-.4.81.81,0,0,0,.07-.22c0-.1,0-.18,0-.24l.06-.29a.31.31,0,0,1,.12-.19,2.07,2.07,0,0,1,.09-.31l.05-.21.11-.17a.34.34,0,0,0,.11-.25,1.07,1.07,0,0,1,.13-.33.56.56,0,0,0,.1-.21.12.12,0,0,0-.14-.14,1.19,1.19,0,0,0-.29.19l-.21-.07a.48.48,0,0,0-.13.12s0,.05-.1.07a.31.31,0,0,0-.2.17l-.09,0-.15-.07h-.05c-.08,0-.13.09-.14.26a.58.58,0,0,1-.34.24l-.25.07a.31.31,0,0,0-.19.21.71.71,0,0,1-.23.3.56.56,0,0,1-.24.13c-.21,0-.32-.12-.32-.36l.09-.54Zm5-5.82-.07-.46V53.3c0-.36.12-.56.37-.6l.49-.15a.8.8,0,0,1,.43.36,1,1,0,0,1,.23.57.43.43,0,0,1,0,.1.93.93,0,0,0-.05.31.54.54,0,0,1-.23.4.72.72,0,0,1-.46.16.69.69,0,0,1-.41-.22A.7.7,0,0,1,473.46,53.83Z"/><path class="fa7f3ca1-8528-429b-8644-e06f4e5654fd" d="M480.42,58.39l.33-.15a1.24,1.24,0,0,0,.31-.3l.41-.3a1.28,1.28,0,0,1,.45-.23l.19.07s.06,0,.15-.14a.35.35,0,0,1,.28-.15,1,1,0,0,1,.57.31.85.85,0,0,1,.36.56l0,.4a3.86,3.86,0,0,0,.09.52v.1l0,.28,0,.29-.13.57c0,.14.05.22.15.22a.76.76,0,0,1,.34-.22l.16-.17c.07-.06.11-.09.14-.09s.08,0,.13-.11a.42.42,0,0,1,.19-.16.25.25,0,0,0,.16-.16,3,3,0,0,1,1-.81s.09,0,.16-.12a.49.49,0,0,1,.18-.14l.26-.2.1.05h0a.73.73,0,0,0,.19-.12.48.48,0,0,1,.23-.11,1,1,0,0,1,.73.29c.19.2.29.35.29.46l-.06.27.08.36v.23l-.06.25a.4.4,0,0,0,.1.2.35.35,0,0,1,.1.17c-.09.1-.14.17-.14.2l0,.21-.05.64a.61.61,0,0,0,.15.27.85.85,0,0,1,.19-.09.66.66,0,0,0,.2-.07l.07,0h0l.14,0h0c.07,0,.1-.06.11-.18a.35.35,0,0,1,.23-.29l.28,0a.9.9,0,0,0,.1-.19,1.65,1.65,0,0,1,.49-.5,1.15,1.15,0,0,1,.63-.34c.12,0,.18.06.18.17a1.35,1.35,0,0,1,0,.24.6.6,0,0,1,.09.28c0,.15-.12.31-.38.48a1.67,1.67,0,0,0-.57.64l0,.05-.23,0s-.05.06-.11.18a.36.36,0,0,1-.21.21.3.3,0,0,0-.16.07l-.24.15a5,5,0,0,0-.46.47,1,1,0,0,1-.66.42,1.38,1.38,0,0,1-.42-.12,1,1,0,0,1-.4-.25,2.85,2.85,0,0,0-.3-.29.78.78,0,0,1-.19-.62.21.21,0,0,1,.06-.08s.07-.07.07-.09a1.06,1.06,0,0,1-.27-.5.77.77,0,0,1,0-.15.44.44,0,0,0,0-.15l0-.41,0-.21,0-.13.07-.59c0-.1-.05-.14-.16-.14s-.07,0-.13.09a.62.62,0,0,1-.2.15c-.08,0-.17.14-.26.33a.8.8,0,0,0-.29.22c0,.08-.09.11-.12.11a.18.18,0,0,1-.09,0,.24.24,0,0,0-.14.21v0l0,.09c0,.07-.06.14-.18.2a1.5,1.5,0,0,0-.43.48.34.34,0,0,0-.16,0l-.14.28a.74.74,0,0,0-.22.24l-.14.07c-.06.1-.11.19-.16.26l-.07.13c-.34.39-.57.59-.7.59s-.29-.17-.48-.52a1.87,1.87,0,0,1-.28-.82l.05-.43a1.37,1.37,0,0,0-.1-.18v-.05a1.36,1.36,0,0,1,.1-.27v-.35a.17.17,0,0,0,0-.07v-.06a.9.9,0,0,1,.1-.18l-.07-.34,0-.19,0-.4.05-.36s0-.07-.07-.13-.07-.08-.09-.08a1.92,1.92,0,0,0-.48.26,3.16,3.16,0,0,0-.54.42c-.09.1-.22.22-.37.36a.79.79,0,0,0-.34.6s0,0,0,0,0,0-.07-.05H480s-.16.17-.36.5l-.05.05-.22-.05c-.18,0-.28.2-.28.6,0,.07-.05.11-.14.14a.33.33,0,0,0-.23.2,1.89,1.89,0,0,1-.22.33.76.76,0,0,0-.3.18l-.26.35a2.65,2.65,0,0,0-.28.39.38.38,0,0,1-.16.14c-.09,0-.13.09-.13.13l0,.2q0,.18-.36.18c-.47,0-.7-.48-.7-1.45a.66.66,0,0,1,.15-.37,3.55,3.55,0,0,0,.28-.49,5.18,5.18,0,0,0,.52-.64,6.22,6.22,0,0,1,.46-.57l.15-.25a.33.33,0,0,1,.06-.21.24.24,0,0,0,.06-.17c0-.13,0-.19-.1-.19a.54.54,0,0,0-.35.11.66.66,0,0,1-.28.16.32.32,0,0,0-.21.16,1.1,1.1,0,0,0-.34.3,2.39,2.39,0,0,1-.24.28,1.11,1.11,0,0,0-.11.16.16.16,0,0,1-.13.11.28.28,0,0,0-.15.08.29.29,0,0,1-.22.07c-.07,0-.14-.07-.2-.21a1.43,1.43,0,0,1-.08-.26c0-.57.37-1.06,1.13-1.47a1.24,1.24,0,0,0,.24-.16.46.46,0,0,1,.18-.13l0-.08a1.94,1.94,0,0,1,.7-.4h.17l.78-.2c.33-.07.5.3.5,1.13l0,.21.05.1a4,4,0,0,1,.4-.34,1.16,1.16,0,0,0,.3-.26A1.06,1.06,0,0,1,480.42,58.39Z"/><path class="fa7f3ca1-8528-429b-8644-e06f4e5654fd" d="M499.51,60.67l.19-.16a.18.18,0,0,0,.21-.16.36.36,0,0,1,.25-.25,1,1,0,0,0,.4-.38c.12-.19.25-.28.38-.28s.1,0,.16.11a.32.32,0,0,1,.1.19,1.54,1.54,0,0,1-.24.79l0,.33-.08.15a.47.47,0,0,0-.23.2,1,1,0,0,1-.27.25l-.12.17a.5.5,0,0,0-.34.26.31.31,0,0,1-.25.21.67.67,0,0,0-.34.24l-.28.1,0,.12a.85.85,0,0,1-.37.18,1.6,1.6,0,0,0-.37.14.49.49,0,0,1-.17.06.91.91,0,0,1-.41-.09,1.66,1.66,0,0,0-.38-.11.24.24,0,0,1-.09-.15.42.42,0,0,0-.11-.21A.58.58,0,0,1,497,62l0-.22a.22.22,0,0,0-.06-.12.17.17,0,0,1-.06-.11.08.08,0,0,1,0-.07.14.14,0,0,0,0-.07.59.59,0,0,0,0-.13.35.35,0,0,1,0-.12l.07-.57c0-.05,0-.07,0-.07s-.09,0-.17.12a.39.39,0,0,1-.29.11.59.59,0,0,0-.15.3,1.14,1.14,0,0,1-.23.2l-.05.07c0,.06-.07.1-.17.14a.42.42,0,0,0-.21.13l-.12.12-.22,0a1.67,1.67,0,0,0-.13.2,1.08,1.08,0,0,1-.26.3l-.89.72a4,4,0,0,1-.41.23l-.07.07a3.11,3.11,0,0,1-1.31.62,1.93,1.93,0,0,1-.74-.18q-.42-.16-.45-.42l-.12-.47a.85.85,0,0,1-.1-.46.62.62,0,0,1,0-.18v-.07l0-.39c0-.09.07-.14.22-.14l0-.31a1.49,1.49,0,0,1,.2-.37,2.3,2.3,0,0,1,.27-.37l.12-.15a.38.38,0,0,1,.16-.29,1.94,1.94,0,0,0,.28-.32,1.32,1.32,0,0,1,.4-.36l.35-.35a3.9,3.9,0,0,1,.88-.66.91.91,0,0,0,.29-.23,1.41,1.41,0,0,1,.49-.31,3.26,3.26,0,0,0,.54-.25.9.9,0,0,1,.41-.15h.09a5.32,5.32,0,0,0,.62-.29h.07a.68.68,0,0,1,.22.09h0l.18-.09a.22.22,0,0,1,.12,0c.48,0,.74.33.79,1,0,.14.05.21.12.21s.19-.14.33-.43a.92.92,0,0,1,.91-.42c.34,0,.5.21.5.64a2,2,0,0,1-.67,1.43,1,1,0,0,0-.07.21l-.16.48v0a.39.39,0,0,1-.1.19.35.35,0,0,0-.1.22l0,.29,0,.32c0,.15,0,.25.08.3a1.09,1.09,0,0,0,.54-.31c.11-.15.19-.23.23-.24l.12,0A1.37,1.37,0,0,1,499.51,60.67Zm-3.86,0a.53.53,0,0,1,.28-.39.59.59,0,0,0,.29-.27,6.52,6.52,0,0,0,.63-.58c.28-.28.42-.45.42-.52s0,0,0,0h0l-.1.06-.21,0-.22,0-.16-.08-.15,0-.23-.05a.61.61,0,0,0-.32.08,2.8,2.8,0,0,1-.52.17,1.85,1.85,0,0,0-.68.32.91.91,0,0,1-.44.22,1.72,1.72,0,0,1-.55.5.58.58,0,0,0-.36.41,1.33,1.33,0,0,0-.3.28l-.08.2a.78.78,0,0,1-.24.13.29.29,0,0,0-.16.25.62.62,0,0,1-.16.35.4.4,0,0,0-.13.25c0,.38.07.57.22.57a1.26,1.26,0,0,0,.39-.13,2.1,2.1,0,0,0,.35-.16.47.47,0,0,1,.18-.1l.22-.11a.24.24,0,0,1,.11-.06.19.19,0,0,0,.11-.08.83.83,0,0,1,.21-.14.68.68,0,0,0,.24-.2l.64-.36.24-.19a.87.87,0,0,0,.32-.2A.59.59,0,0,1,495.65,60.67Z"/><path class="fa7f3ca1-8528-429b-8644-e06f4e5654fd" d="M501.21,59.44l.09-.13a.58.58,0,0,0,.39-.23,4.29,4.29,0,0,1,.58-.61c.37-.35.57-.53.61-.56a4.41,4.41,0,0,0,.45-1c.1,0,.14-.1.14-.16l.1-.19.1,0,.05-.05v-.1a3,3,0,0,1,.45-1l.49-1a1.78,1.78,0,0,1,.14-.3c.07-.12.17-.37.32-.73a4.49,4.49,0,0,1,.67-1.15s.07-.1.14-.26a1.71,1.71,0,0,1,.29-.47l.14-.24c0-.08.13-.22.24-.41a4.91,4.91,0,0,1,.32-.46,1.13,1.13,0,0,0,.22-.36.6.6,0,0,1,.18-.26,1,1,0,0,0,.22-.3.37.37,0,0,1,.34-.22.71.71,0,0,1,.66.38,1.3,1.3,0,0,1,.2.65,4,4,0,0,1-.14.5l-.17,1.05c-.16.08-.23.16-.23.27a2.22,2.22,0,0,1-.48,1.28.64.64,0,0,0-.08.3.64.64,0,0,1-.2.42,1.35,1.35,0,0,0-.31.54L506,56.14l-.09.1a.54.54,0,0,0-.16.19l-.19,0c-.21,0-.31.06-.31.19a.54.54,0,0,0,0,.19v0s-.28.42-.86,1.23a2.51,2.51,0,0,0-.16.45l-.16.35a2.12,2.12,0,0,0-.35.66,1.36,1.36,0,0,1-.26.51l-.23.55s0,.07.07.07.15-.12.33-.35a2,2,0,0,1,.43-.46.91.91,0,0,0,.28-.33l.12-.08.2-.14.12,0a.25.25,0,0,0,.11-.16A.37.37,0,0,1,505,59a.41.41,0,0,0,.38-.22c.05-.13.11-.19.18-.19s.15-.07.25-.21a1,1,0,0,1,.42-.35,2.22,2.22,0,0,0,.41-.24,2.33,2.33,0,0,1,.54-.25,2.16,2.16,0,0,1,.55-.15h.07l.09,0,.18,0a1.73,1.73,0,0,1,.82.23.64.64,0,0,1,.34.7l-.09.73-.13.57a3.7,3.7,0,0,1-.18.61,3.74,3.74,0,0,0-.17.55l0,.22,0,.3,0,.25a.11.11,0,0,0,.12.12s.11-.07.25-.21a.27.27,0,0,0,.25-.14,1.87,1.87,0,0,1,.31-.34s.05-.06.15-.09a1.4,1.4,0,0,0,.42-.27,2.13,2.13,0,0,1,.45-.45,3.72,3.72,0,0,1,.78-.53l.07-.09a.51.51,0,0,1,.36-.2c.11,0,.16.06.16.17a.61.61,0,0,1-.06.25,1.14,1.14,0,0,0-.08.33,1.91,1.91,0,0,1-.23.59l-.05.11a.36.36,0,0,1-.2.24.55.55,0,0,0-.25.19,1.33,1.33,0,0,1-.55.3c-.12.23-.22.35-.29.35l-.21-.1a.55.55,0,0,0-.24.41,2.51,2.51,0,0,0-.36.34l-.24,0c-.06,0-.09.09-.09.26s-.08.07-.24.16a2.21,2.21,0,0,0-.36.24,1,1,0,0,1-.55.1.29.29,0,0,1-.14-.08.68.68,0,0,0-.27-.14.38.38,0,0,1-.25-.27,1.61,1.61,0,0,0-.15-.34.35.35,0,0,1-.08-.19l0-.24-.06-.24.11-.16a.66.66,0,0,1-.07-.23l.11-.71a9.92,9.92,0,0,1,.21-1s0-.06,0-.14l0-.29,0-.16c0-.12,0-.18-.11-.19s-.13,0-.14-.05a.62.62,0,0,0-.18-.07c-.06,0-.11,0-.16.14a.83.83,0,0,1-.19.26l-.29,0v0c0,.06-.1.18-.31.36a1,1,0,0,0-.5.3.7.7,0,0,0-.32.18,1.68,1.68,0,0,1-.3.21l-.09.18-.19.06a.45.45,0,0,1-.38.3l-.12.23a.36.36,0,0,0-.34.25c-.06.15-.11.22-.14.22l-.07,0-.1,0c-.18,0-.27.13-.28.39a3.79,3.79,0,0,1-.48.55l-.51.51s-.07.09-.14.24a.69.69,0,0,1-.27.33l-.26.18a.25.25,0,0,1-.14.07c-.16,0-.29-.11-.39-.34s-.16-.36-.16-.37l.07-.24,0-.21.15-.47a2.2,2.2,0,0,1,.33-.72,2.3,2.3,0,0,0,.29-.86,2.31,2.31,0,0,1-.63.35c-.16,0-.23-.1-.23-.3A1.54,1.54,0,0,1,501.21,59.44Z"/></g></svg>