<svg id="b41cc1fc-07ba-4a9e-b129-573484b963b0" data-name="Layer 1" xmlns="http://www.w3.org/2000/svg" viewBox="0 0 512 403.48"><defs><style>.f765fbde-64f0-41c7-aae9-847e190cfefa{fill:#5c91fa;}.a5e337fd-3350-4ca7-85ce-d78a735f550a,.a7d05cf5-6eca-45ff-b751-cd2c64abd68e,.ba807960-fbe0-489e-a2c5-57d76cde4548,.f765fbde-64f0-41c7-aae9-847e190cfefa{fill-rule:evenodd;}.a5e337fd-3350-4ca7-85ce-d78a735f550a{fill:#f3f5f6;}.a7d05cf5-6eca-45ff-b751-cd2c64abd68e{fill:#588bf0;}.ba807960-fbe0-489e-a2c5-57d76cde4548{fill:#5687e9;}.b1430134-d84c-4575-8afa-ead36c04b9d6{fill:#263b66;}.a94836a1-21c3-4ca7-b18c-3f5001e5242a{fill:#575b66;}</style></defs><polygon class="f765fbde-64f0-41c7-aae9-847e190cfefa" points="256 0 84.19 84.24 256 168.47 427.81 84.24 256 0"/><path class="a5e337fd-3350-4ca7-85ce-d78a735f550a" d="M388.13,144l-20.68,10.14a16.72,16.72,0,0,1-13.06,0c-3.61-1.77-3.61-4.63,0-6.4l20.68-10.14-27.62-13.54-27.21,13.34-55.95,27.43,27.21,13.34,17.3-8.48a16.72,16.72,0,0,1,13.06,0l.13.06c3.6,1.77,3.6,4.64,0,6.41l-17.3,8.48-8.29,4.06-27.62,13.54-6.53,3.21a16.81,16.81,0,0,1-13.06,0l-6.66-3.27-20.68-10.14c-3.61-1.77-3.61-4.63,0-6.4h0a16.72,16.72,0,0,1,13.06,0l20.68,10.14,27.62-13.54L256,168.92l-55.95-27.43-27.21,13.34,17.3,8.48c3.61,1.76,3.61,4.63,0,6.4l-.13.06a16.72,16.72,0,0,1-13.06,0l-17.29-8.48-8.3-4.06-27.62-13.55-6.53-3.2c-3.6-1.77-3.6-4.63,0-6.4l6.66-3.26,20.68-10.14a16.72,16.72,0,0,1,13.06,0h0c3.61,1.76,3.61,4.63,0,6.4l-20.68,10.14,27.62,13.54,27.21-13.34,56-27.43L220.5,96.65l-17.3,8.48a16.72,16.72,0,0,1-13.06,0l-.13-.06c-3.6-1.77-3.6-4.64,0-6.41l17.3-8.48,8.29-4.06,27.62-13.55,6.53-3.2a16.81,16.81,0,0,1,13.06,0l6.66,3.27,20.68,10.14c3.61,1.77,3.61,4.63,0,6.4a16.72,16.72,0,0,1-13.06,0L256.41,79,228.79,92.58,256,105.92,312,133.35,339.16,120l-17.3-8.48c-3.61-1.77-3.61-4.63,0-6.4l.13-.06a16.72,16.72,0,0,1,13.06,0l17.29,8.48,8.3,4.06,27.62,13.55,6.53,3.2c3.6,1.76,3.6,4.63,0,6.4Z" transform="translate(0 -53.18)"/><polygon class="a7d05cf5-6eca-45ff-b751-cd2c64abd68e" points="256 168.47 256 252.71 427.81 168.47 427.81 84.24 256 168.47"/><path class="a5e337fd-3350-4ca7-85ce-d78a735f550a" d="M395.4,202.93,294.34,252.48a6.74,6.74,0,1,1-5.93-12.1l101.06-49.55a6.74,6.74,0,1,1,5.93,12.1Z" transform="translate(0 -53.18)"/><polygon class="ba807960-fbe0-489e-a2c5-57d76cde4548" points="256 168.47 256 252.71 84.19 168.47 84.19 84.24 256 168.47"/><path class="a5e337fd-3350-4ca7-85ce-d78a735f550a" d="M116.6,202.93l101.06,49.55a6.74,6.74,0,1,0,5.93-12.1L122.53,190.83a6.74,6.74,0,1,0-5.93,12.1Z" transform="translate(0 -53.18)"/><path class="b1430134-d84c-4575-8afa-ead36c04b9d6" d="M99.31,400.55a48.31,48.31,0,0,1-7-.51,37.34,37.34,0,0,1-6.59-1.59,25.94,25.94,0,0,1-5.55-2.66,5.17,5.17,0,0,1-2-2.3,5,5,0,0,1-.35-2.66,4.52,4.52,0,0,1,1-2.3A3.5,3.5,0,0,1,81,387.3a3.89,3.89,0,0,1,2.78.71,27.2,27.2,0,0,0,7.38,3,34.5,34.5,0,0,0,8.17,1c4.18,0,7.23-.7,9.13-2.1a6.49,6.49,0,0,0,2.86-5.44,5.24,5.24,0,0,0-2-4.36q-2-1.59-6.94-2.62l-8.73-1.83q-7.55-1.58-11.23-5.35a13.65,13.65,0,0,1-3.69-10,15.6,15.6,0,0,1,1.59-7.07,16.21,16.21,0,0,1,4.48-5.47,20.59,20.59,0,0,1,6.91-3.53A30,30,0,0,1,100.5,343a33.41,33.41,0,0,1,9,1.19,26,26,0,0,1,7.7,3.49,4.39,4.39,0,0,1,1.71,2.14,4.78,4.78,0,0,1,.19,2.5,4,4,0,0,1-1.11,2.1,3.59,3.59,0,0,1-2.18,1,5,5,0,0,1-3-.8,22.65,22.65,0,0,0-5.95-2.38,28,28,0,0,0-6.5-.71,17,17,0,0,0-6.27,1,8.84,8.84,0,0,0-4,2.9,7.13,7.13,0,0,0-1.39,4.4,5.81,5.81,0,0,0,1.9,4.56q1.91,1.71,6.51,2.66l8.65,1.83q7.86,1.66,11.71,5.23a12.4,12.4,0,0,1,3.85,9.53,14.87,14.87,0,0,1-6,12.22,20.94,20.94,0,0,1-6.94,3.41A32.48,32.48,0,0,1,99.31,400.55Z" transform="translate(0 -53.18)"/><path class="b1430134-d84c-4575-8afa-ead36c04b9d6" d="M135.18,400.39a4.93,4.93,0,0,1-3.77-1.39,5.38,5.38,0,0,1-1.31-3.85V348.41a5.38,5.38,0,0,1,1.31-3.89,5.94,5.94,0,0,1,7.54,0,5.34,5.34,0,0,1,1.31,3.89v46.74A5.45,5.45,0,0,1,139,399,4.88,4.88,0,0,1,135.18,400.39Z" transform="translate(0 -53.18)"/><path class="b1430134-d84c-4575-8afa-ead36c04b9d6" d="M157.24,400.39a4.44,4.44,0,0,1-3.41-1.27,4.91,4.91,0,0,1-1.19-3.49V347.94a4.7,4.7,0,0,1,1.27-3.53,4.82,4.82,0,0,1,3.49-1.24,5.7,5.7,0,0,1,3.14.76,6.67,6.67,0,0,1,2.1,2.58l19.6,36.26H179.7l19.61-36.26a6.81,6.81,0,0,1,2.06-2.58,5.47,5.47,0,0,1,3.09-.76,4.57,4.57,0,0,1,3.42,1.24,4.88,4.88,0,0,1,1.19,3.53v47.69a5,5,0,0,1-1.15,3.49,5.28,5.28,0,0,1-6.87,0,4.91,4.91,0,0,1-1.19-3.49V358.89h1.75l-16.67,30.39a6.47,6.47,0,0,1-1.67,2,4,4,0,0,1-2.38.63,4.18,4.18,0,0,1-2.46-.67,5.79,5.79,0,0,1-1.66-2l-16.83-30.47h1.91v36.82a5,5,0,0,1-1.15,3.49A4.43,4.43,0,0,1,157.24,400.39Z" transform="translate(0 -53.18)"/><path class="b1430134-d84c-4575-8afa-ead36c04b9d6" d="M221.92,400.39a4.91,4.91,0,0,1-3-.87,3.52,3.52,0,0,1-1.39-2.34,5.9,5.9,0,0,1,.55-3.3L239,347.46a7.59,7.59,0,0,1,2.5-3.29,5.92,5.92,0,0,1,3.38-1,5.77,5.77,0,0,1,3.29,1,7.59,7.59,0,0,1,2.5,3.29l21,46.42a5.69,5.69,0,0,1,.63,3.34,3.45,3.45,0,0,1-1.34,2.34,4.83,4.83,0,0,1-2.94.83,5.06,5.06,0,0,1-3.45-1.07,9,9,0,0,1-2.19-3.29l-5.15-12,4.28,2.78H228l4.29-2.78-5.08,12a10.45,10.45,0,0,1-2.14,3.33A4.49,4.49,0,0,1,221.92,400.39Zm22.78-45.55-11.11,26.43-2.07-2.54H258l-2,2.54-11.19-26.43Z" transform="translate(0 -53.18)"/><path class="b1430134-d84c-4575-8afa-ead36c04b9d6" d="M285.17,400.39a4.43,4.43,0,0,1-3.41-1.27,4.86,4.86,0,0,1-1.19-3.49V347.94a4.67,4.67,0,0,1,1.27-3.53,4.8,4.8,0,0,1,3.49-1.24,5.68,5.68,0,0,1,3.13.76,6.69,6.69,0,0,1,2.11,2.58l19.6,36.26h-2.54l19.6-36.26a6.81,6.81,0,0,1,2.06-2.58,5.48,5.48,0,0,1,3.1-.76,4.53,4.53,0,0,1,3.41,1.24,4.88,4.88,0,0,1,1.19,3.53v47.69a5,5,0,0,1-1.15,3.49,5.27,5.27,0,0,1-6.86,0,4.86,4.86,0,0,1-1.19-3.49V358.89h1.74l-16.66,30.39a6.61,6.61,0,0,1-1.67,2,4,4,0,0,1-2.38.63,4.14,4.14,0,0,1-2.46-.67,5.81,5.81,0,0,1-1.67-2l-16.82-30.47h1.9v36.82a5,5,0,0,1-1.15,3.49A4.42,4.42,0,0,1,285.17,400.39Z" transform="translate(0 -53.18)"/><path class="b1430134-d84c-4575-8afa-ead36c04b9d6" d="M349.85,400.39a5,5,0,0,1-3.06-.87,3.52,3.52,0,0,1-1.39-2.34,5.92,5.92,0,0,1,.56-3.3l21-46.42a7.59,7.59,0,0,1,2.5-3.29,5.89,5.89,0,0,1,3.37-1,5.75,5.75,0,0,1,3.29,1,7.52,7.52,0,0,1,2.5,3.29l21,46.42a5.63,5.63,0,0,1,.64,3.34,3.5,3.5,0,0,1-1.35,2.34,4.81,4.81,0,0,1-2.94.83,5.06,5.06,0,0,1-3.45-1.07,8.91,8.91,0,0,1-2.18-3.29l-5.16-12,4.29,2.78H356l4.28-2.78-5.08,12a10.28,10.28,0,0,1-2.14,3.33A4.48,4.48,0,0,1,349.85,400.39Zm22.77-45.55-11.11,26.43-2.06-2.54H386l-2,2.54-11.19-26.43Z" transform="translate(0 -53.18)"/><path class="b1430134-d84c-4575-8afa-ead36c04b9d6" d="M420.71,400.39a4.93,4.93,0,0,1-3.77-1.39,5.38,5.38,0,0,1-1.31-3.85V352.3H400.16a4.31,4.31,0,0,1-3.21-1.15A4.22,4.22,0,0,1,395.8,348a4.08,4.08,0,0,1,1.15-3.14,4.53,4.53,0,0,1,3.21-1.07h41.11a4.56,4.56,0,0,1,3.21,1.07,4.08,4.08,0,0,1,1.15,3.14,4.22,4.22,0,0,1-1.15,3.13,4.34,4.34,0,0,1-3.21,1.15H425.79v42.85a5.45,5.45,0,0,1-1.27,3.85A4.88,4.88,0,0,1,420.71,400.39Z" transform="translate(0 -53.18)"/><path class="a94836a1-21c3-4ca7-b18c-3f5001e5242a" d="M10.55,440.7l.12-.31.41-.45a1.52,1.52,0,0,1,.51-.61.92.92,0,0,1,.09-.23,1,1,0,0,0,.09-.34l.14-.25s.07-.07.07-.09a1,1,0,0,0-.13-.19l-.08-.32c0-.09-.27-.36-.82-.83h-.12l-1.12-.54-.06-.15-.13,0-.15.06h0l-.53-.16A6.94,6.94,0,0,1,8,436a.12.12,0,0,1-.09,0l-.62-.14a.61.61,0,0,1-.32-.13c0-.05-.12-.09-.26-.14a.83.83,0,0,1-.27-.13.38.38,0,0,0-.25-.06l-.39.09s-.14-.08-.43-.16c0-.1-.08-.15-.1-.15l-.45.06-.46-.22a4.33,4.33,0,0,1-.55-.08,2,2,0,0,1-.6-.18,1.73,1.73,0,0,0-.42-.18l-.09-.1a.44.44,0,0,0-.17-.06H2.22a.45.45,0,0,1-.26-.16,2.29,2.29,0,0,0-.42-.31,1.22,1.22,0,0,1-.44-.48,1.49,1.49,0,0,1-.21-.68s0,0,0-.06l.1-.5a3.29,3.29,0,0,1,.88-1.75.9.9,0,0,1,.51-.6l.06-.22a5.84,5.84,0,0,0,.65-.62,1.77,1.77,0,0,1,.44-.38,3.17,3.17,0,0,0,.39-.27l.28-.12q0-.15.69-.66A5.3,5.3,0,0,1,6,427l.53-.24a3.67,3.67,0,0,1,.77-.24c.1-.28.26-.42.49-.42H8l.31-.31.42,0,.17-.2a.59.59,0,0,1,.47-.16l1.87-.57h.13l.12,0c.08,0,.19-.08.32-.22a.67.67,0,0,1,.5-.22.56.56,0,0,1,.24.13,0,0,0,0,0,0,0l.4-.13.48,0,.6-.15a1.78,1.78,0,0,1,1,.28l0-.06v-.1c0-.17.1-.26.3-.26s.13,0,.15.06l.19.11h.11a2.8,2.8,0,0,1,.4.19.84.84,0,0,1,.29-.16.53.53,0,0,1,.47.25l.26,0c.09-.08.14-.13.16-.13s.14.09.25.25l.09,0h.39s.06,0,.12.1l.17.14a1.2,1.2,0,0,1,.17.2.76.76,0,0,0,.11.14,2.9,2.9,0,0,1,.43-.17c.11,0,.18.08.24.26a.57.57,0,0,0,.27.43.57.57,0,0,1,.27.44.51.51,0,0,1,.34.49l.29.76-.06.27a1.18,1.18,0,0,1,.13.28l-.07.57.07.6a1,1,0,0,1-.45.83.59.59,0,0,0-.3.13,1.45,1.45,0,0,1-.25.13.64.64,0,0,1-.53-.19,1.08,1.08,0,0,0-.26-.29.3.3,0,0,1-.12-.25.92.92,0,0,1,.48-.7.32.32,0,0,0,.31-.14.62.62,0,0,0-.14-.45,2.17,2.17,0,0,1-.3-.34,1.93,1.93,0,0,0-.35-.35,1,1,0,0,1-.3-.33c-.08-.13-.15-.2-.21-.2l-.22,0-.45-.09a5.16,5.16,0,0,1-1.3-.33h-.31l-.84-.12a1.66,1.66,0,0,1-.62.09l-1,.16-.42,0s-.31.08-.85.26l-.16,0h-.41a2.56,2.56,0,0,0-.4.15,3.58,3.58,0,0,1-.61.22l-.14.06a.12.12,0,0,1-.09,0l-.25,0-1.37.67-.21-.12a1.55,1.55,0,0,0-.3-.13c-.14,0-.21.07-.21.22l0,.29a2.56,2.56,0,0,0-.26.19.38.38,0,0,1-.15.09H7.37A.51.51,0,0,0,7,429a.56.56,0,0,1-.29.17,1.18,1.18,0,0,0-.35.14.45.45,0,0,1-.25.13.49.49,0,0,0-.33.28c-.08.15-.17.23-.27.23l-.31-.06-.17.31-.38.09a1.68,1.68,0,0,1-.4.4l-.4.3a1,1,0,0,0-.27.34.75.75,0,0,1-.26.27.8.8,0,0,0-.29.41l-.16.15a.92.92,0,0,0-.39.7c0,.18.13.31.38.39a1.77,1.77,0,0,1,.46.2.43.43,0,0,0,.28.08.94.94,0,0,1,.36.08l.57.24c0,.17.1.25.15.25s.07,0,.13-.12a.33.33,0,0,1,.28-.13.51.51,0,0,1,.38.25l.13-.09h.06l.2.06h0l.19-.09a.12.12,0,0,1,.09,0l.48.15h0L7,434a.81.81,0,0,1,.26.09l.22.13s0,0,.06,0a.4.4,0,0,0,.19-.07.55.55,0,0,1,.23-.07.43.43,0,0,1,.28.17l.28-.1a1.06,1.06,0,0,1,.48.23l.29.06h.34l.52.09a1.59,1.59,0,0,0,.44.36.21.21,0,0,1,.22-.17,2.42,2.42,0,0,1,.76.2l.13,0,.12.1a1.53,1.53,0,0,1,.32-.07c.21,0,.31.08.31.22a1.77,1.77,0,0,1-.09.48s0,0,.09.06a.41.41,0,0,1,.18-.12l.24-.14s.07-.06.1-.06a1.93,1.93,0,0,1,1,.49,1.77,1.77,0,0,1,.75,1.13,1,1,0,0,0,.12.44l-.06.2,0,.25a1.53,1.53,0,0,1-.06.22l0,.23a.26.26,0,0,1-.1.11.24.24,0,0,0-.09.11l.09.26V439a.31.31,0,0,1-.11.17.5.5,0,0,0-.15.2.81.81,0,0,1-.11.2.53.53,0,0,0-.11.24c0,.09-.12.19-.3.31s-.27.21-.27.28,0,.09.06.09a.62.62,0,0,0,.4-.18,1,1,0,0,1,.31-.21,1.6,1.6,0,0,0,.38-.19l1.45-.68a11.47,11.47,0,0,1,1.81-.77.22.22,0,0,1,.25.25A.77.77,0,0,1,18,439a.78.78,0,0,1-.63.85,1.47,1.47,0,0,0-.36.33h-.12a1.17,1.17,0,0,1-.89.43h-.09a2.1,2.1,0,0,1-1.39.64,1.53,1.53,0,0,1-.9.54l-.25.06a1.67,1.67,0,0,1-.54.16s-.07,0-.13.12l-.23.17a1.6,1.6,0,0,0-.64.34,1.3,1.3,0,0,1-.52.32,2.36,2.36,0,0,0-.37.13c-.14.07-.68.42-1.63,1.06l-.2.06a2.47,2.47,0,0,0-.76.46,1.52,1.52,0,0,1-.37.3H7.87a1.32,1.32,0,0,0-.83.46c0,.06-.25.14-.68.26a4.51,4.51,0,0,0-1.23.55l-.91.25a6.32,6.32,0,0,1-.8.18l-1.08.24c-.24,0-.51.1-.82.18A1.65,1.65,0,0,0,1,447l-.28,0a.38.38,0,0,1-.19-.11,2.15,2.15,0,0,0-.35-.21c-.15-.06-.22-.24-.22-.53s.28-.52.85-.77S1.79,445,2,444.9a.59.59,0,0,1,.43-.21,1.11,1.11,0,0,0,.52-.18,2.09,2.09,0,0,1,.66-.28l.62-.33.08,0H4.5a.58.58,0,0,0,.32-.17,1.64,1.64,0,0,1,.45-.24h.19s0,0,.09-.08a1.12,1.12,0,0,1,.28-.2l0,0H6a1.38,1.38,0,0,1,.41-.24,2,2,0,0,0,.45-.25l1.21-.46.28,0a.41.41,0,0,0,.24-.15,1.9,1.9,0,0,1,.69-.3,1.18,1.18,0,0,1,.32-.29,4.5,4.5,0,0,0,.59-.5Zm-5.41,3.87-.22,0a1,1,0,0,1-.42.14,1.82,1.82,0,0,0-.66.29,8.58,8.58,0,0,1-1,.52c-.39.16-.58.27-.58.32a6.26,6.26,0,0,0,1.59-.42L5,445.08a1.1,1.1,0,0,0,.31-.12,1.84,1.84,0,0,1,.33-.17l.25-.19.34-.12c.18-.06.27-.13.27-.19s0-.06-.07-.06a2,2,0,0,0-.88.17Z" transform="translate(0 -53.18)"/><path class="a94836a1-21c3-4ca7-b18c-3f5001e5242a" d="M16.27,439.21l.25-.22h.09c.08,0,.18-.08.33-.23l.16-.06a1.33,1.33,0,0,1,.54-.55l.25-.18a.56.56,0,0,1,.17-.11,1.37,1.37,0,0,0,.38-.3c.17-.17.3-.26.41-.26a.9.9,0,0,1,.25,0,1,1,0,0,1,.37-.36,1.54,1.54,0,0,0,.45-.43l.2-.09a1.55,1.55,0,0,0,.44-.32.69.69,0,0,1,.51-.19,1.44,1.44,0,0,1,.94.45,1.29,1.29,0,0,1,.48.88l-.26,1.21c-.18.89-.37,1.35-.59,1.39l-.06.33c-.15.1-.22.19-.22.25l.09.37c0,.05-.05.13-.17.23s0,0,0,.1v.63a.32.32,0,0,1-.21.28l.09.06a.64.64,0,0,1,.42-.09l.25,0,.34-.34a1.36,1.36,0,0,0,.3-.15,4.45,4.45,0,0,1,.66-.3l2-1.55c.28-.28.49-.42.64-.42s.23.1.23.3a1.08,1.08,0,0,1-.13.56,2.73,2.73,0,0,0-.24.54,1,1,0,0,1-.26.45,1.22,1.22,0,0,0-.24.27,1.83,1.83,0,0,1-.5.42,5.37,5.37,0,0,0-.7.57,3.44,3.44,0,0,1-.47.41l-.67.48-.09.16a1.85,1.85,0,0,1-.29.13,1.63,1.63,0,0,0-.45.25l-.28.16a.79.79,0,0,1-.3.08.58.58,0,0,0-.37.17c-.1.11-.18.17-.25.17l-.23,0-.31.09a1.09,1.09,0,0,1-.64-.32.87.87,0,0,1-.38-.67v-.1l0-.21a1.47,1.47,0,0,0-.09-.32,1.53,1.53,0,0,1-.1-.29l0-.22,0-.09a1.42,1.42,0,0,1,.06-.53.7.7,0,0,0,.1-.3c0-.13,0-.23.06-.32l.08-.38a.45.45,0,0,1,.15-.25c0-.08.06-.22.13-.42l.06-.28.15-.22a.47.47,0,0,0,.15-.33,1.18,1.18,0,0,1,.16-.44.8.8,0,0,0,.14-.28.17.17,0,0,0-.18-.19,1.63,1.63,0,0,0-.39.25l-.28-.09s-.08,0-.17.16-.05.07-.14.09a.46.46,0,0,0-.26.23l-.13,0-.2-.09h-.06c-.1,0-.17.11-.19.34a.77.77,0,0,1-.45.32l-.34.1a.44.44,0,0,0-.25.28.85.85,0,0,1-.31.39.68.68,0,0,1-.31.18c-.29,0-.43-.16-.43-.48l.12-.73Zm6.7-7.75-.09-.61v-.09c0-.48.16-.75.49-.81a4.63,4.63,0,0,0,.65-.2,1.09,1.09,0,0,1,.58.49,1.35,1.35,0,0,1,.31.75.59.59,0,0,1-.05.14,1.48,1.48,0,0,0-.06.41.7.7,0,0,1-.3.53,1,1,0,0,1-.62.23,1,1,0,0,1-.55-.31A1,1,0,0,1,23,431.46Z" transform="translate(0 -53.18)"/><path class="a94836a1-21c3-4ca7-b18c-3f5001e5242a" d="M28.37,437.18l.21-.39.24-.29a1.85,1.85,0,0,0,.32-.76,2.29,2.29,0,0,1,.38-.84.77.77,0,0,1,.61-.23,1.32,1.32,0,0,1,.62.22,2.55,2.55,0,0,1,.74,1.36,5.9,5.9,0,0,1,.37,1.59,1.25,1.25,0,0,0,.11.48,3,3,0,0,1,.13.44,1.66,1.66,0,0,0-.12.29l0,.64-.18.51v.37a1.19,1.19,0,0,0-.19.39.38.38,0,0,0,.06.19,2.55,2.55,0,0,0,.88-.51.7.7,0,0,1,.31-.24,1.55,1.55,0,0,0,.48-.4l.3-.16c.1-.12.19-.23.26-.33a.58.58,0,0,1,.26-.21,1.46,1.46,0,0,0,.34-.22,4.36,4.36,0,0,1,.59-.35l.16-.19a1.91,1.91,0,0,1,.55-.42l.34-.15c.08,0,.15.09.23.28a1.54,1.54,0,0,1,.12.57.72.72,0,0,1-.31.52,4.46,4.46,0,0,0-.41.38,1.12,1.12,0,0,1-.49.22s-.19.22-.51.63l-.31.19-.16.2s-.16.08-.42.12a.65.65,0,0,0-.07.16c0,.1-.14.17-.33.22a4.15,4.15,0,0,0-.57.57l-.33.06a1.08,1.08,0,0,1-.15.36c-.25.06-.39.16-.42.31l-.15.06-.07.05a1.64,1.64,0,0,1-.69.34l-.36.09-.12.19c0,.05-.13.11-.38.2a1.33,1.33,0,0,0-.57.31l-.26.2a1.5,1.5,0,0,0-.6.34h-.22a1.49,1.49,0,0,0-.68.32,1.5,1.5,0,0,1-.75.32A2.34,2.34,0,0,1,26,445a2,2,0,0,1-.55-.56,3.85,3.85,0,0,0-.39-.53.57.57,0,0,1-.18-.33q0-.11.15-.21a1.27,1.27,0,0,0,.31-.45,1.09,1.09,0,0,1,.87-.42.88.88,0,0,0,.23-.1.74.74,0,0,1,.31-.09c.11,0,.24.09.39.28t.06,0l.25,0a.54.54,0,0,0,.23.12,1.21,1.21,0,0,0,.79-.37l.06,0h.13s.08-.09.15-.26l.27-.54.54-.7v-.16a1.45,1.45,0,0,1,.09-.28v-.23c0-.09.06-.15.19-.18a.19.19,0,0,0,.18-.19l0-.12a.58.58,0,0,1-.12-.27L30,439l0-.32.06-.13a1.48,1.48,0,0,1-.06-.25l.06-.38-.08-.3c-.06-.18-.1-.28-.13-.28s-.26.16-.59.48a2.93,2.93,0,0,0-.59.69.9.9,0,0,1-.4.36,1,1,0,0,0-.41.36.4.4,0,0,1-.26.24l-1,.83-1.14.84c-.08.09-.13.14-.15.14-.38,0-.58-.21-.58-.63a2.16,2.16,0,0,1,.24-.73l.16-.1s0,0,0,0,0,0,0,0l.1.06h0a7.49,7.49,0,0,1,.74-.45.58.58,0,0,0,.31-.34l.65-.46a9.36,9.36,0,0,0,.76-.68A4.74,4.74,0,0,0,28.37,437.18Z" transform="translate(0 -53.18)"/><path class="a94836a1-21c3-4ca7-b18c-3f5001e5242a" d="M38.91,430.57l.22-.06.15-.15h0l.14.06h0a1.4,1.4,0,0,0,.66-.15,5.08,5.08,0,0,1,.49-.21l.24-.09.08,0,.25,0c.08,0,.19-.15.33-.44a1.6,1.6,0,0,1,.48-.64,2.15,2.15,0,0,0,.52-.76,2.21,2.21,0,0,0,.14-.24c0-.11.1-.17.13-.17s.27-.1.37-.29c.31-.36.56-.54.76-.54s.44.24.54.74l.15.59a1.72,1.72,0,0,1-.07.22,1,1,0,0,0-.07.42,1,1,0,0,1,0,.28.78.78,0,0,0,0,.16c0,.09.09.13.26.13a.86.86,0,0,0,.34-.13l.1,0a.57.57,0,0,0,.26.1l.44-.16a3.89,3.89,0,0,1,.52-.17,1.84,1.84,0,0,0,.37-.12h.19l.12,0a.64.64,0,0,0,.26-.13,1.54,1.54,0,0,1,.73-.16l.22-.09h.06q.51,0,.51.45a.83.83,0,0,1-.14.32,2.14,2.14,0,0,0-.24.53l-.72.9a.93.93,0,0,1-.71.46s-.17-.14-.39-.42t-.06,0a1,1,0,0,0-.32.06.75.75,0,0,1-.28.07,8,8,0,0,0-.82.23l-.38.06-.29.06-.79.16a1.41,1.41,0,0,0-.64.76s0,.06-.15.14l-.7,1.27a.59.59,0,0,0-.45.4l-.06.09a.51.51,0,0,0-.31.2,1.94,1.94,0,0,1-.27.25l-.28.42c-.11.15-.23.3-.34.47a2,2,0,0,0-.25.55,1,1,0,0,1-.12.33.25.25,0,0,0,0,.17l-.05.12a.61.61,0,0,0-.18.42l.06.25c-.14.5-.22.76-.22.79a1.19,1.19,0,0,0,0,.17v.09a2.12,2.12,0,0,1-.24.86l0,.25-.1.69a2.06,2.06,0,0,0,.1.51c-.05.05-.07.08-.07.1a1.54,1.54,0,0,0,.46.95,2.39,2.39,0,0,1,.46,1.62.86.86,0,0,1-.05.27,2.28,2.28,0,0,0-.06.39.62.62,0,0,1-.24.41.67.67,0,0,1-.38.2c-.55,0-1-.4-1.23-1.19a7.15,7.15,0,0,1-.4-1.54l0-.6-.09-.31.09-1.37-.06-.32.36-1.33v-.48s.07-.11.21-.25,0,0-.06,0-.14.06-.25.18a1.87,1.87,0,0,1-.38.36l-.13.22a.31.31,0,0,0-.12-.07,3.29,3.29,0,0,0-.52.73.72.72,0,0,0-.51.37.56.56,0,0,1-.51.33l-.06,0c0,.3-.19.45-.44.45l-.06,0q-.23.53-.48.51a1,1,0,0,1-.76.64.61.61,0,0,1-.27.28,1.05,1.05,0,0,0-.26.17.23.23,0,0,1-.14.08c-.13,0-.2-.15-.2-.44a.48.48,0,0,1,.1-.27.45.45,0,0,0,.1-.21s0-.08-.15-.18c0-.33.08-.53.24-.61a.83.83,0,0,0,.38-.36.46.46,0,0,1,.31-.26c.15-.05.23-.12.23-.2s.13-.22.4-.43a3.62,3.62,0,0,0,.59-.57c.13-.16.23-.24.31-.24l.06-.06q0-.39.3-.39l.15-.09,0-.13.09-.06h.12l.08-.06a.76.76,0,0,1,.37-.61,8.53,8.53,0,0,0,1.21-1.21,7.88,7.88,0,0,0,1-1.28,4.58,4.58,0,0,1,.39-.75,2.05,2.05,0,0,0,.32-.89.38.38,0,0,0-.09-.13l-.67.33s-.1-.08-.31-.14a1.11,1.11,0,0,0-.34.28c-.07.09-.13.14-.17.14l-.22,0-.68.07a3,3,0,0,0-1.38.38l-.63.18h-.14a.78.78,0,0,0-.38.16l-.35,0a1.83,1.83,0,0,1-.73.27l-.19,0-1.58.43a3.94,3.94,0,0,0-.84.64l-.12,0c-.1,0-.22-.12-.36-.35a1.24,1.24,0,0,1-.21-.63c0-1,.88-1.62,2.63-1.78l.64-.25h0l.17.06h.06a.85.85,0,0,0,.3-.11,3.71,3.71,0,0,1,.89-.29l.64-.17.2,0a.67.67,0,0,0,.35-.12,1.33,1.33,0,0,1,.59-.18,3,3,0,0,0,.55-.12l.25-.06a.82.82,0,0,0,.25-.11,1.07,1.07,0,0,1,.51-.11Z" transform="translate(0 -53.18)"/><path class="a94836a1-21c3-4ca7-b18c-3f5001e5242a" d="M45.29,438.26l.33-.26a.39.39,0,0,0,.4-.39c0-.24.19-.44.51-.62l.19-.26a4,4,0,0,1,1.27-.61,1.32,1.32,0,0,0,.36-.27.07.07,0,0,1,.06,0l.25.07a1.74,1.74,0,0,0,.51-.11,1.77,1.77,0,0,1,.62-.11l.65,0a.83.83,0,0,1,.25.09,1.14,1.14,0,0,0,.48.09.87.87,0,0,1,.62.31.91.91,0,0,1,.29.58,1.41,1.41,0,0,1-.5,1,1.93,1.93,0,0,1-.78.56,1.86,1.86,0,0,1-.41.34.85.85,0,0,0-.28.21.41.41,0,0,1-.24.15.12.12,0,0,1-.1,0,.13.13,0,0,0-.09,0c-.16,0-.34.2-.54.61l-.28,0a.79.79,0,0,0-.34.37.31.31,0,0,1-.32.2c-.39.38-.64.57-.78.57l-.21-.06a.48.48,0,0,0-.13.33c0,.12-.08.19-.25.21l-.2.19-.15,0-.31.32a.94.94,0,0,0-.48.16c0,.12,0,.28-.09.47s-.07.3-.07.32c0,.3.28.45.83.45l.74-.11a1,1,0,0,0,.55-.16,1.06,1.06,0,0,1,.55-.15,1,1,0,0,0,.28-.06l.16.06a1,1,0,0,1,.4-.42,1,1,0,0,1,.46-.19l.16-.09a.41.41,0,0,1,.19-.25l.12-.1a.32.32,0,0,1,.23-.13h.22l.06,0a.73.73,0,0,1,.52-.47.6.6,0,0,0,.42-.23.37.37,0,0,1,.3-.18.54.54,0,0,0,.36-.21,2,2,0,0,1,.37-.34l.3-.23a.28.28,0,0,1,.15-.08c.06,0,.09.05.09.14s0,.14.06.14.07,0,.07-.06a.56.56,0,0,0,0-.15v-.11a.31.31,0,0,1,.25-.31l.7-.45c0-.22.08-.34.18-.38a.64.64,0,0,0,.22-.13.27.27,0,0,1,.17-.06c.14,0,.2.07.2.23l-.07.4.07.42a.44.44,0,0,1-.14.26,1,1,0,0,0-.23.49c0,.22-.12.34-.2.37h-.09a1.38,1.38,0,0,1-.44.34.52.52,0,0,0-.26.2l-.53.6-.26.28c-.07.08-.13.12-.17.12l-.13-.12s0,0-.06,0-.17.06-.19.19a.74.74,0,0,1-.16.32,1.7,1.7,0,0,0-.61.4l-.09,0H51c-.14,0-.23.1-.28.3a.47.47,0,0,1-.44.35,1,1,0,0,0-.52.18.58.58,0,0,1-.14.07,2,2,0,0,0-.44.24l-1.3.47a.7.7,0,0,1-.2.08l-.44.06c-.06,0-.12,0-.18-.13s-.11-.12-.13-.12l-.28.09a2.08,2.08,0,0,1-.58.1.74.74,0,0,1-.35-.11,1.82,1.82,0,0,0-.29-.16c-.3,0-.51-.23-.64-.7l-.18,0a4.84,4.84,0,0,1-.42-1.11.49.49,0,0,0-.3-.17.28.28,0,0,1-.2-.31,1.15,1.15,0,0,1,.3-.93.92.92,0,0,0,.34-.37l.21-.8a.76.76,0,0,0,.16-.31l.36-.65Zm3.28-.93-.18.1a3.28,3.28,0,0,0-.37.27,3.07,3.07,0,0,1-.59.38,1.78,1.78,0,0,0-.59.77,3.79,3.79,0,0,0-.3.71c0,.07,0,.1.1.1l.52-.23a2.9,2.9,0,0,0,.55-.36,7,7,0,0,1,.74-.53l.12-.12a1.07,1.07,0,0,1,.29-.23,1.62,1.62,0,0,0,.38-.31l.15-.07a1.15,1.15,0,0,1,.54-.51q.27-.09.27-.18c0-.13-.1-.19-.29-.19a.85.85,0,0,0-.38.15h-.35a1.23,1.23,0,0,0-.34.19Z" transform="translate(0 -53.18)"/><path class="a94836a1-21c3-4ca7-b18c-3f5001e5242a" d="M59.8,437.53l.44-.2a1.54,1.54,0,0,0,.41-.4l.55-.39a1.8,1.8,0,0,1,.6-.31l.25.09s.09-.06.19-.19a.49.49,0,0,1,.38-.19,1.35,1.35,0,0,1,.76.42c.33.28.49.52.49.74l-.07.53a4.45,4.45,0,0,0,.13.69v.13l-.06.37.06.39-.17.76c0,.19.06.29.2.29a1.08,1.08,0,0,1,.45-.29l.22-.22q.12-.12.18-.12s.1-.05.16-.15a.58.58,0,0,1,.26-.21.37.37,0,0,0,.22-.22A3.75,3.75,0,0,1,66.78,438s.11-.05.21-.16a.73.73,0,0,1,.24-.18l.34-.27.14.07h0a1.73,1.73,0,0,0,.25-.16.68.68,0,0,1,.31-.15,1.31,1.31,0,0,1,1,.39,1.12,1.12,0,0,1,.38.61l-.08.36.11.48v.31l-.08.33a.56.56,0,0,0,.13.26.49.49,0,0,1,.13.23c-.12.14-.18.22-.18.27l0,.27-.08.86a.75.75,0,0,0,.2.35,1.48,1.48,0,0,1,.27-.11.94.94,0,0,0,.26-.1q.09,0,.09-.06h0l.18.07h.06c.09,0,.13-.08.14-.24a.51.51,0,0,1,.31-.4l.37,0a1,1,0,0,0,.13-.25,2.49,2.49,0,0,1,.65-.67,1.58,1.58,0,0,1,.85-.44q.24,0,.24.21a2.12,2.12,0,0,1-.06.33.86.86,0,0,1,.13.37c0,.2-.17.41-.51.64a2.29,2.29,0,0,0-.76.85l-.07.06-.31,0s-.07.08-.14.24-.17.25-.27.27a.35.35,0,0,0-.22.1l-.32.2a5.77,5.77,0,0,0-.62.63c-.34.37-.63.56-.87.56a1.81,1.81,0,0,1-.56-.16,1.39,1.39,0,0,1-.54-.33,2.13,2.13,0,0,0-.4-.39,1.06,1.06,0,0,1-.25-.82s0-.06.08-.11a.21.21,0,0,0,.09-.13,1.43,1.43,0,0,1-.36-.66.69.69,0,0,1,0-.2.56.56,0,0,0,0-.21l0-.54.07-.28,0-.17.09-.79c0-.12-.07-.19-.22-.19s-.1.05-.17.13a.66.66,0,0,1-.27.19.94.94,0,0,0-.35.44,1.16,1.16,0,0,0-.38.31c-.07.1-.12.14-.16.14l-.13,0a.36.36,0,0,0-.18.28v.06l0,.13c0,.09-.08.18-.24.26a2.09,2.09,0,0,0-.57.64.57.57,0,0,0-.22,0l-.18.37a.89.89,0,0,0-.3.33l-.18.09c-.08.13-.15.25-.22.34l-.09.17c-.45.53-.76.79-.94.79s-.38-.23-.63-.7A2.48,2.48,0,0,1,61.8,442l.06-.58a1,1,0,0,0-.13-.24v-.07s.05-.13.13-.35v-.47a.23.23,0,0,0,0-.09v-.08a1.35,1.35,0,0,1,.12-.25l-.09-.44.06-.25,0-.54.06-.49a.44.44,0,0,0-.08-.16c-.06-.08-.1-.11-.12-.11a2,2,0,0,0-.64.35,4.39,4.39,0,0,0-.72.56c-.13.13-.29.29-.5.48a1.07,1.07,0,0,0-.45.79s0,0-.06,0,0,0-.09-.06h-.06s-.22.22-.48.67l-.07.06-.29-.06c-.25,0-.37.26-.37.79,0,.09-.07.15-.19.18a.48.48,0,0,0-.31.27,3.06,3.06,0,0,1-.29.45,1,1,0,0,0-.4.23l-.35.46a4.11,4.11,0,0,0-.37.53.49.49,0,0,1-.21.18q-.18.1-.18.18l.05.26c0,.17-.16.25-.49.25-.62,0-.93-.65-.93-1.94a.89.89,0,0,1,.2-.49,4.83,4.83,0,0,0,.38-.66,6.66,6.66,0,0,0,.69-.85,7.14,7.14,0,0,1,.61-.76l.2-.32a.43.43,0,0,1,.08-.28.38.38,0,0,0,.08-.24c0-.16-.05-.24-.13-.24a.72.72,0,0,0-.46.14,1,1,0,0,1-.38.21.41.41,0,0,0-.27.22,1.16,1.16,0,0,0-.46.4l-.32.38a1.15,1.15,0,0,0-.15.2.23.23,0,0,1-.17.15.39.39,0,0,0-.21.11.39.39,0,0,1-.29.09c-.09,0-.18-.09-.26-.28a1.83,1.83,0,0,1-.11-.35q0-1.14,1.5-2a1.93,1.93,0,0,0,.32-.22,1.18,1.18,0,0,1,.24-.17l.06-.11a2.83,2.83,0,0,1,.94-.53h.21l1-.26c.45-.1.67.4.67,1.5l0,.28.06.13a4.36,4.36,0,0,1,.53-.45,1.62,1.62,0,0,0,.4-.35A1.36,1.36,0,0,1,59.8,437.53Z" transform="translate(0 -53.18)"/><path class="a94836a1-21c3-4ca7-b18c-3f5001e5242a" d="M90.46,424.55l.09-.16a.38.38,0,0,1,.34-.2l.24.06a.12.12,0,0,1,0-.09c0-.13.06-.19.18-.19h.06l.36-.09,1.07-.13a3.36,3.36,0,0,1,1,.19H94l.42.13a1.34,1.34,0,0,0,.4.29c.08,0,.13.05.13.09a1.33,1.33,0,0,0,.38.37l.45.49.07.12a4.64,4.64,0,0,0,.3.49,1.43,1.43,0,0,1,.18.81l-.08.19c.11.05.17.1.17.14l-.09.55v.49a1.36,1.36,0,0,1-.09.51,1.21,1.21,0,0,0-.08.48,1.31,1.31,0,0,1-.22.34v0l.06.42s0,.11-.14.2-.14.16-.14.22a.68.68,0,0,1-.17.49,1.63,1.63,0,0,1-.37.82,2.32,2.32,0,0,0-.44.83,3.23,3.23,0,0,1-.43.86c-.08.26-.14.45-.17.56a1,1,0,0,1-.33.43.86.86,0,0,0-.29.67.74.74,0,0,1-.43.47l-.36.32v.19a1.05,1.05,0,0,1-.37.7l-.53,1.08c-.1.21-.23.31-.4.31l-.06.06a1.16,1.16,0,0,1-.16.59c-.07.09-.14.2-.23.33l-.23.33a2.15,2.15,0,0,0-.23.46,1.5,1.5,0,0,1-.36.56l-.15.34v.12c0,.28-.1.42-.28.42l-.17,0h0a2,2,0,0,1,.09.48,5.7,5.7,0,0,1-.43,1l-.07.24v.25a1.43,1.43,0,0,0-.3.44.51.51,0,0,1-.25.27c-.12.05-.17.09-.17.11l.06.09v.06l-.11.48.08.58a1.2,1.2,0,0,1-.14.32,1,1,0,0,1,.51.79c0,.45-.18.71-.54.79h-.09l-.31,0a1.38,1.38,0,0,1-.76-.15,4.93,4.93,0,0,1-.54-.48l-.21-.13a.46.46,0,0,1-.15-.23L86,446a2.15,2.15,0,0,1-.32-1.31c0-.06,0-.13.14-.21l0-.1,0-.29a8.53,8.53,0,0,1,.34-1l.45-.93a4.28,4.28,0,0,1,.51-.88,3.12,3.12,0,0,1,.16-.57l.09-.07a1,1,0,0,1,.24-.47,1.52,1.52,0,0,0,.3-.61c.15,0,.22,0,.22-.09a.45.45,0,0,0,0-.13v-.06a.64.64,0,0,1,.22-.49,1.35,1.35,0,0,0,.34-.5,1,1,0,0,1,.25-.42,1.2,1.2,0,0,0,.27-.5.82.82,0,0,1,.31-.16c.14,0,.2-.09.2-.15a1.35,1.35,0,0,0-.13-.29,5,5,0,0,1,.9-1.49,1.14,1.14,0,0,0,.12-.3.44.44,0,0,1,.25-.3,3.22,3.22,0,0,1,.4-.87,5.43,5.43,0,0,0,.43-.75c.13-.28.28-.41.47-.41l.06-.1,0-.32a2.55,2.55,0,0,1,.13-.3c.09-.18.17-.29.24-.31s.16-.1.27-.25l-.13-.24a.41.41,0,0,0,.11-.16c0-.07.07-.11.11-.11.26-.14.39-.3.39-.46a1.06,1.06,0,0,0,0-.2v-.07c0-.06.09-.19.28-.41a1,1,0,0,0,.29-.76.77.77,0,0,1,.19-.41.52.52,0,0,0,.15-.31.4.4,0,0,1,.09-.23l-.06-.39a1.51,1.51,0,0,0,.3-.82.54.54,0,0,0-.08-.15.64.64,0,0,1-.08-.33c0-.06,0-.14-.17-.25l-.06-.15a1.8,1.8,0,0,1-.62-.31,1.31,1.31,0,0,0-.78-.14l-.28.06-.23-.06a.29.29,0,0,1-.16.06h0l-.15,0a2,2,0,0,0-.74.21,2.06,2.06,0,0,1-.63.21.69.69,0,0,0-.64.27c-.11.18-.2.27-.26.27l-.15-.06h0c-.08,0-.15.14-.21.43l0,.07a4.42,4.42,0,0,0-1,.69l-1,1.06a2.48,2.48,0,0,0-.56.7.62.62,0,0,1-.31.35,1.56,1.56,0,0,0-.25.64.72.72,0,0,1-.17.55c-.12.09-.17.17-.17.24a.27.27,0,0,0,0,.12s.06.16.12.34v.08a.52.52,0,0,1-.11.32c-.08.1-.12.15-.12.17s.09.14.27.33.27.32.27.4a1.05,1.05,0,0,1-.36.77A1.11,1.11,0,0,1,85,434a.87.87,0,0,1-.56-.17c-.14-.11-.21-.46-.21-1l0-.4.14-.45,0-.48a3,3,0,0,1,.29-.54,3.47,3.47,0,0,0,.37-.69,2.92,2.92,0,0,1,.86-1.41.26.26,0,0,0,.12-.21.58.58,0,0,1,.19-.42s.07-.13.21-.25a.75.75,0,0,0,.27-.4.37.37,0,0,1,.28-.27c.15,0,.26-.18.32-.42a2.69,2.69,0,0,1,.85-.69,1.12,1.12,0,0,1,.55-.55l.42-.27.09-.16a.67.67,0,0,1,.25-.16.87.87,0,0,0,.29-.23,1.77,1.77,0,0,1,.58-.21Z" transform="translate(0 -53.18)"/><path class="a94836a1-21c3-4ca7-b18c-3f5001e5242a" d="M106.92,441.53H107l.15.07a.07.07,0,0,0,.06,0,.58.58,0,0,1,.25-.45.7.7,0,0,1,.35-.44l.86-.52.39-.34.19-.09.12-.16a.5.5,0,0,1,.33-.2c.15,0,.23.06.23.17l-.14.31.06.52a.7.7,0,0,1-.19.49c-.13.15-.33.36-.6.64l-.79.83-.42.22a1.93,1.93,0,0,0-.28.22l-.6.51a.42.42,0,0,1-.14.33h-.25l-.12.06a1.36,1.36,0,0,1-.64.57l-.22.16a.32.32,0,0,1-.2.09l-.43-.06-.3.06a.67.67,0,0,1-.33-.13,2.69,2.69,0,0,0-.43-.19,1.47,1.47,0,0,1-.55-.57,3,3,0,0,1-.37-.66.55.55,0,0,0-.07-.21,1.32,1.32,0,0,1-.07-.18,2.63,2.63,0,0,1,.14-.31v0a.64.64,0,0,0-.08-.22.87.87,0,0,1-.09-.42,1,1,0,0,0-.09-.35.35.35,0,0,0,.12-.19.54.54,0,0,0,0-.18.51.51,0,0,1,0-.17l.09-.76-.06-.39,0-.37q0-.33-.27-.33a.51.51,0,0,0-.31.17l-.11,0a3.59,3.59,0,0,0-.59.34.61.61,0,0,1-.35.13.92.92,0,0,1-.36.17l-.12.09-.25.19a3.58,3.58,0,0,1-.58.52c-.38.31-.73.61-1,.89a1.69,1.69,0,0,1-.67.45c-.14,0-.21.16-.21.4,0,0-.09.12-.28.25a1.71,1.71,0,0,0-.32.34,1.33,1.33,0,0,0-.28-.19c-.14,0-.23.17-.3.51-.06.14-.22.22-.49.25,0,0-.06.09-.11.24l-.06.06H96a1.08,1.08,0,0,0-.22.17.92.92,0,0,1-.32.23c-.14.28-.25.42-.35.42a.46.46,0,0,1-.18-.06,1.26,1.26,0,0,0-.28-.11c-.12,0-.24-.16-.38-.38a1.11,1.11,0,0,1-.21-.57c0-1.14.22-1.77.67-1.87l0-.07v-.12a.31.31,0,0,1,.17-.29,1,1,0,0,0,.37-.34,1,1,0,0,1,.25-.28h.2s.06-.11.06-.33a.25.25,0,0,1,.08-.17.37.37,0,0,0,.09-.22,1.49,1.49,0,0,1,.23-.49,1.65,1.65,0,0,0,.2-.39l0-.06a1.28,1.28,0,0,1-.55.38c-.12,0-.27.18-.47.45l-.25,0a5.82,5.82,0,0,1-.8.54.85.85,0,0,0-.35.36c0,.06,0,.1-.11.12a1.66,1.66,0,0,0-.4.25h-.09c-.26,0-.39-.19-.39-.56l.32-.88a1.36,1.36,0,0,1,.66-.71,7.18,7.18,0,0,0,.88-.55,1.3,1.3,0,0,1,.71-.28l.11-.15a1.19,1.19,0,0,0,.71-.64c.12-.29.29-.43.51-.43a1.5,1.5,0,0,1,1.3.63,1.9,1.9,0,0,1,.45,1l0,.42a2.89,2.89,0,0,1-.09.6.85.85,0,0,0-.19.42c0,.08.06.12.16.12a.45.45,0,0,0,.25-.13,2.08,2.08,0,0,1,.34-.24c.13-.07.21-.13.23-.19a.91.91,0,0,1,.54-.51,1.49,1.49,0,0,0,.48-.23l.16-.12.12-.24a1.65,1.65,0,0,0,.56-.34.64.64,0,0,1,.37-.2,1.3,1.3,0,0,0,.53-.28l.23-.06.21-.12a.74.74,0,0,1,.19-.08l.46-.16a1.42,1.42,0,0,1,.41-.12,1.43,1.43,0,0,1,1.24.64,1.9,1.9,0,0,1,.46,1l0,.28.06.41v.07l-.12.85,0,.29a1.3,1.3,0,0,1-.31,1s-.08.07-.08.16v.14l.31.65c.09.22.17.34.22.34l.5-.14a.59.59,0,0,0,.35-.33,2,2,0,0,0,.44-.37C106.69,441.62,106.79,441.53,106.92,441.53Z" transform="translate(0 -53.18)"/><path class="a94836a1-21c3-4ca7-b18c-3f5001e5242a" d="M107.63,448.72l.16-.34.09-.38s.05-.11.15-.19a.33.33,0,0,0,.14-.22,6.45,6.45,0,0,1,.76-2l.38-.94a.81.81,0,0,1,.28-.49c.15-.12.23-.23.23-.33s-.11-.15-.32-.27-.32-.23-.32-.33.34-.31,1-.61a1.39,1.39,0,0,1,.47-.91.28.28,0,0,0,.11-.22,1.09,1.09,0,0,1,.15-.6l.13-.36a1.25,1.25,0,0,1,.25-.41.7.7,0,0,0,.2-.44v-.12c-.14,0-.33.16-.58.52-.26,0-.47.19-.63.58a.72.72,0,0,1-.58.41,1.07,1.07,0,0,1-.66.52c-.22-.14-.33-.25-.33-.34l.14-1c0-.21.53-.76,1.58-1.62.06,0,.26-.2.61-.59l.85-1,1-1a3.63,3.63,0,0,0,.67-1.39,2.39,2.39,0,0,0,.54-1.16,7.58,7.58,0,0,1,.41-1.27,2.31,2.31,0,0,0,.23-.58,14.94,14.94,0,0,1,.91-2.35l.16-.52.23-.18a2.54,2.54,0,0,0,.06-.48c.12,0,.24-.27.36-.68a2.76,2.76,0,0,1,.37-.86,1.11,1.11,0,0,0,.25-.48,1,1,0,0,1,.38-.52,1,1,0,0,1,.64-.25c.07,0,.2.1.37.32a1.46,1.46,0,0,1,.31.72c0,.28.06.46.08.56a2.1,2.1,0,0,1,0,.4l0,.45a7.91,7.91,0,0,1-.12.79c-.08.44-.14.76-.18.95a.45.45,0,0,1-.32.38c-.17.06-.26.12-.26.19s0,.11.12.14.13.07.13.09a1.73,1.73,0,0,1-.18.41.41.41,0,0,0-.24.66,2.48,2.48,0,0,1-.22.49,3.82,3.82,0,0,1-.37.55,1.55,1.55,0,0,0-.28.63,1.46,1.46,0,0,1-.71.84,1.72,1.72,0,0,0-.38.71.93.93,0,0,1-.47.62l-.21.3v.06a1.12,1.12,0,0,1-.15.51,6.93,6.93,0,0,0-.31.66,1.41,1.41,0,0,1-.29.5,2.49,2.49,0,0,1-.22.65,1.43,1.43,0,0,0-.19.5l-.11.12c-.2,0-.31.13-.31.3l.07.34-.28.51-.06.31a.79.79,0,0,1-.3.52.78.78,0,0,0-.28.58l-.06.37a.26.26,0,0,0,0,.1s.08-.06.19-.17l.24.07a.21.21,0,0,0,.18-.13.49.49,0,0,1,.27-.19l.07,0c0-.15.12-.23.23-.24a.4.4,0,0,0,.26-.14c.07-.09.13-.13.17-.13a1,1,0,0,1,.22.12h0l.14-.06,0-.25a.19.19,0,0,1,.14-.2.36.36,0,0,0,.2-.16l.57-.37a1.63,1.63,0,0,0,.55-.33,1.07,1.07,0,0,1,.39-.26A.76.76,0,0,0,117,439a.86.86,0,0,1,.52-.15,5.09,5.09,0,0,1,.7-.53l.12-.17a.4.4,0,0,1,.13-.06.73.73,0,0,0,.24-.18.39.39,0,0,1,.27-.16.28.28,0,0,1,.31.31.94.94,0,0,1-.47.82l0,0c0,.41-.18.62-.38.62,0,0-.12.09-.22.26l-.2,0a1.65,1.65,0,0,1-.31.34h-.1a8.71,8.71,0,0,0-2,1.44.53.53,0,0,1-.16.13l-.29,0a1.62,1.62,0,0,1-.19.31,2,2,0,0,0-.51.29,2,2,0,0,1-.41.28.59.59,0,0,0-.24.21.56.56,0,0,1-.29.21l-.2.18h-.1a.55.55,0,0,0-.3.16.41.41,0,0,0-.18.29.64.64,0,0,0,.14.25c.08-.06.37.25.87.94a3.46,3.46,0,0,1,.74,2,1.33,1.33,0,0,1-.21.9q-.21.21-.21.3c0,.05,0,.17,0,.36v.06c0,.11-.06.17-.18.19s-.19.06-.21.12v.39l-.06.19c-.13.07-.27.31-.42.73a2.2,2.2,0,0,1-.66.54l0,.06,0,.42a.31.31,0,0,1-.14.25,1.75,1.75,0,0,0-.38.39,1.72,1.72,0,0,1-.49.43.67.67,0,0,1-.24.42,2,2,0,0,0-.37.35l-.09.06c-.09,0-.18.14-.26.35l-.13,0a1.88,1.88,0,0,1-.42.53,1.79,1.79,0,0,0-.31.3l-.24.16a2.28,2.28,0,0,1-.58.63s-.06,0-.12-.09h0s-.08,0-.11.12a.49.49,0,0,1-.17.24,1.19,1.19,0,0,0-.24.31l-.07.06q-.19,0-.63.54a1.32,1.32,0,0,0-.51.22c-.22.25-.37.37-.45.37a2.22,2.22,0,0,1-.34-.26,1,1,0,0,1-.33-.81.48.48,0,0,0-.19-.32c0-.12,0-.28-.06-.5v-.14a.91.91,0,0,1,.13-.43l.09-.33a.53.53,0,0,1,.09-.2,2,2,0,0,0,.18-.44c.08-.24.17-.49.27-.72l0-.16c.12-.49.21-.74.28-.73a4.29,4.29,0,0,0,.19-.62c.06-.25.1-.47.13-.63a.64.64,0,0,1,.22-.4Zm3.21-3,.07.67a3.78,3.78,0,0,1-.26.59,4.76,4.76,0,0,0-.33.86c-.06.22-.17.33-.34.33h-.16a.27.27,0,0,0,0,.12l0,.34a4.33,4.33,0,0,1-.11.72,1,1,0,0,1-.31.65l-.09.11a3.28,3.28,0,0,1-.24.73c-.14.34-.26.6-.35.79a3.32,3.32,0,0,0-.22.71,1.19,1.19,0,0,1-.2.56c-.06.29-.12.52-.18.72s-.14.44-.24.76a.12.12,0,0,0,.1.07c.06,0,.14-.12.23-.35a.42.42,0,0,1,.21-.08c.1,0,.18-.13.25-.33l0-.07a.33.33,0,0,0,.25-.17.33.33,0,0,1,.17-.18.58.58,0,0,0,.22-.16l.11,0a.29.29,0,0,0,.11-.17.65.65,0,0,1,.11-.22h.21l.06,0a1.3,1.3,0,0,1,.31-.64.92.92,0,0,0,.27-.35.82.82,0,0,1,.22-.31.68.68,0,0,0,.2-.4,2.44,2.44,0,0,0,.35-.51.91.91,0,0,1,.22-.31l0-.11-.06-.19v-.06a1.85,1.85,0,0,1,.36-.62,2.62,2.62,0,0,0,.46-.83c.06-.22.12-.4.17-.53a4.28,4.28,0,0,0,.13-.46.89.89,0,0,1,.17-.42.74.74,0,0,0,.12-.44,2.53,2.53,0,0,0-.43-1.21.57.57,0,0,1-.07-.19.74.74,0,0,0-.3-.36.82.82,0,0,0-.39-.21l-.13.06a.65.65,0,0,1-.19.09.28.28,0,0,0-.16.3v.06l0,.34C111.25,445.49,111.11,445.6,110.84,445.75Z" transform="translate(0 -53.18)"/><path class="a94836a1-21c3-4ca7-b18c-3f5001e5242a" d="M124.77,443l-.73.64a.15.15,0,0,0-.12-.07c-.1,0-.23.1-.38.28s-.26.28-.32.28l-.15,0a2,2,0,0,1-.56.34,2.11,2.11,0,0,0-.41.17,1.24,1.24,0,0,1-.44.14.51.51,0,0,0-.32.13,1,1,0,0,1-.6.12l-.25,0a.86.86,0,0,1-.26.09.4.4,0,0,1-.27-.13.48.48,0,0,0-.3-.15.5.5,0,0,1-.33-.22,1.2,1.2,0,0,0-.32-.27.73.73,0,0,1-.24-.22l-.22-.19a1.89,1.89,0,0,1-.51-.68,1.85,1.85,0,0,1-.25-.77v-.07l0-.29,0-.34a.93.93,0,0,0,.16-.27v-.49l.37-1.24c0-.05,0-.12-.13-.2a.67.67,0,0,1-.31.28.32.32,0,0,0-.21.21c0,.12-.09.17-.18.17l-.18-.06a1.57,1.57,0,0,0-.14.32.4.4,0,0,1-.38.29c-.19,0-.28-.08-.28-.22l0-.28-.09-.39a1.24,1.24,0,0,1,.25-.49c.16-.24.31-.38.45-.41a.64.64,0,0,0,.36-.3,2.28,2.28,0,0,1,.65-.58.82.82,0,0,0,.48-.4,1.55,1.55,0,0,1,.56-.28,1.06,1.06,0,0,0,.53-.32,4,4,0,0,1,1.06-.65,3.39,3.39,0,0,1,1.28-.44,1.13,1.13,0,0,0,.34-.07l.4-.13a1.32,1.32,0,0,0,.39-.17.79.79,0,0,1,.33-.11l.45.15a4.75,4.75,0,0,1,.6.2,1.57,1.57,0,0,0,.32.14,2.79,2.79,0,0,1,.59.27.65.65,0,0,1,.3.63,3.58,3.58,0,0,0-.26.42s.12.1.36.19a6.74,6.74,0,0,0,.37.6l.17.54,0,1.27,0,.13c-.11.1-.17.17-.17.2l0,.31-.13.43a.39.39,0,0,1-.15.27.29.29,0,0,0-.14.15l-.09.13a1.42,1.42,0,0,0-.14.27,1.17,1.17,0,0,1-.22.35.5.5,0,0,0-.16.29.34.34,0,0,1-.15.25.57.57,0,0,0-.18.16A.45.45,0,0,1,124.77,443Zm-4.82.4.07.36,0,0h.25l.07,0a2.7,2.7,0,0,0,.47.06,1.14,1.14,0,0,0,.76-.24.81.81,0,0,1,.46-.24c.11,0,.21-.08.28-.23s.13-.23.15-.23h.22l.06,0a.55.55,0,0,1,.32-.52.89.89,0,0,0,.44-.41,1,1,0,0,1,.31-.38.7.7,0,0,0,.23-.35l.12-.19a.33.33,0,0,0,.06-.23l.3-.56a2.89,2.89,0,0,0,.09-.6.58.58,0,0,0-.33-.52.74.74,0,0,1-.33-.72.86.86,0,0,1,.36-.66c.24-.2.36-.33.36-.37a.08.08,0,0,0-.09-.09,1.76,1.76,0,0,0-.36.13c-.07.14-.43.33-1.09.57a2.18,2.18,0,0,0-.36-.16c-.06,0-.12.07-.18.19a1,1,0,0,1-.19.26h-.2s-.09.07-.2.2a.54.54,0,0,1-.43.21l-.19.18a.63.63,0,0,1-.31.51l-.17.2c-.1.13-.24.27-.4.44l-.28.7a1.85,1.85,0,0,0-.17.6.5.5,0,0,1-.21.19.3.3,0,0,0-.16.26s0,.07.11.15a.38.38,0,0,1,.1.19l-.06.2-.06.58Z" transform="translate(0 -53.18)"/><path class="a94836a1-21c3-4ca7-b18c-3f5001e5242a" d="M131.1,437.05l.23-.06.09-.2a4.07,4.07,0,0,0,1.09-.85.39.39,0,0,1,.13-.13.88.88,0,0,0,.24-.21,1.82,1.82,0,0,1,1.36-.58c.62,0,.95.38,1,1.13l.1.24a6.15,6.15,0,0,1,.35.88,4.82,4.82,0,0,1,.22.82,1.61,1.61,0,0,1-.26.84,5.79,5.79,0,0,0-1,1.16l-.16.11a3.2,3.2,0,0,1-.32.56c-.21.07-.31.15-.31.23v.28a.41.41,0,0,1-.07.12,2.93,2.93,0,0,0-.2.36l-.12.19a.63.63,0,0,0-.12.25,1.28,1.28,0,0,1-.18.35.46.46,0,0,0-.12.25c0,.15.2.23.61.23l.23-.09.22.06s.07,0,.15-.1a.9.9,0,0,1,.38-.16,1.53,1.53,0,0,0,.45-.19,2.83,2.83,0,0,1,.46-.22,1.44,1.44,0,0,0,.52-.3,1.75,1.75,0,0,1,.49-.3,1.38,1.38,0,0,0,.45-.29,3.43,3.43,0,0,1,.47-.36,5.91,5.91,0,0,0,.84-.75,1.9,1.9,0,0,1,.51-.32,2,2,0,0,0,.27-.41.67.67,0,0,1,.55-.41c.22,0,.33.1.33.31a.43.43,0,0,1-.16.32v.1l0,.24a.29.29,0,0,1,0,.14.35.35,0,0,1-.12.19.65.65,0,0,0-.16.32.35.35,0,0,1-.3.25q-.09.34-.24.39a1.19,1.19,0,0,0-.41.31,6.09,6.09,0,0,1-.74.62,5.44,5.44,0,0,0-.66.55c-.12.13-.2.19-.24.19l-.12-.06-.13-.06c-.06,0-.1.07-.12.22l-.06.15a1.59,1.59,0,0,1-.24.13l-.09,0h-.06c-.13,0-.19,0-.19.14l.09.15v0c0,.15-.08.22-.24.22a3.18,3.18,0,0,0-1,.57l-.45.09-.38.21a.58.58,0,0,0-.23-.11l-.25.07-.45,0-.56-.31a1.37,1.37,0,0,1-.66-.62,4.34,4.34,0,0,0-.28-.63,1.26,1.26,0,0,1-.17-.44,3.39,3.39,0,0,1,.12-1.07,2.34,2.34,0,0,0,.16-.47.78.78,0,0,1,.18-.33,1.38,1.38,0,0,0,.24-.58,6.57,6.57,0,0,1,.62-1.1,1.48,1.48,0,0,0,.26-.5l.2-.28a1.07,1.07,0,0,0,.1-.24q.06-.21.15-.24a1,1,0,0,0,.13-.28c0-.3-.14-.45-.41-.45,0,0-.11.06-.17.17a.94.94,0,0,1-.42.31,1.78,1.78,0,0,0-.42.24,1.36,1.36,0,0,1-.33.19,1.17,1.17,0,0,0-.44.36l-.26.13c-.09.19-.16.3-.22.32s-.25.08-.58.16a.89.89,0,0,0-.15.18.4.4,0,0,1-.36.17c-.12.13-.24.27-.37.44a1.19,1.19,0,0,0-.32.12l-.31.08a1.3,1.3,0,0,0-.28.29.62.62,0,0,1-.55.21c-.15,0-.23-.13-.23-.38a1.52,1.52,0,0,1,.54-1.21,1.91,1.91,0,0,1,.78-.47.38.38,0,0,0,.31-.19.53.53,0,0,1,.3-.26,1.56,1.56,0,0,0,.56-.45,1.61,1.61,0,0,1,.69-.47Z" transform="translate(0 -53.18)"/><path class="a94836a1-21c3-4ca7-b18c-3f5001e5242a" d="M145.9,437.53l.44-.2a1.54,1.54,0,0,0,.41-.4l.55-.39a1.8,1.8,0,0,1,.6-.31l.25.09s.09-.06.19-.19a.49.49,0,0,1,.39-.19,1.37,1.37,0,0,1,.75.42c.33.28.49.52.49.74l-.07.53a6.35,6.35,0,0,0,.13.69v.13l-.06.37.06.39-.17.76c0,.19.07.29.2.29a1.15,1.15,0,0,1,.45-.29l.22-.22q.12-.12.18-.12s.1-.05.16-.15a.58.58,0,0,1,.26-.21.37.37,0,0,0,.22-.22,3.75,3.75,0,0,1,1.33-1.08s.11-.05.21-.16a.73.73,0,0,1,.24-.18l.34-.27.14.07h0a1.73,1.73,0,0,0,.25-.16.68.68,0,0,1,.31-.15,1.31,1.31,0,0,1,1,.39,1.12,1.12,0,0,1,.38.61l-.08.36.11.48v.31l-.08.33a.56.56,0,0,0,.13.26.55.55,0,0,1,.14.23c-.13.14-.19.22-.19.27l0,.27-.08.86a.75.75,0,0,0,.2.35,1.48,1.48,0,0,1,.27-.11.94.94,0,0,0,.26-.1q.09,0,.09-.06h0l.18.07h.06c.09,0,.13-.08.14-.24a.51.51,0,0,1,.31-.4l.37,0a1,1,0,0,0,.13-.25,2.49,2.49,0,0,1,.65-.67,1.58,1.58,0,0,1,.85-.44q.24,0,.24.21a2.12,2.12,0,0,1-.06.33.86.86,0,0,1,.13.37c0,.2-.17.41-.51.64a2.29,2.29,0,0,0-.76.85l-.06.06-.31,0s-.07.08-.15.24-.17.25-.27.27a.35.35,0,0,0-.22.1l-.32.2a5.77,5.77,0,0,0-.62.63c-.34.37-.63.56-.87.56a1.81,1.81,0,0,1-.56-.16,1.39,1.39,0,0,1-.54-.33,2.38,2.38,0,0,0-.39-.39,1.06,1.06,0,0,1-.26-.82s0-.06.09-.11a.24.24,0,0,0,.08-.13,1.43,1.43,0,0,1-.36-.66.48.48,0,0,1,0-.2.82.82,0,0,0,0-.21l0-.54.06-.28,0-.17.09-.79c0-.12-.07-.19-.22-.19s-.1.05-.17.13a.66.66,0,0,1-.27.19.94.94,0,0,0-.35.44,1.16,1.16,0,0,0-.38.31c-.07.1-.12.14-.16.14l-.13,0a.36.36,0,0,0-.18.28v.06l0,.13c0,.09-.08.18-.23.26a2,2,0,0,0-.58.64.61.61,0,0,0-.22,0l-.18.37a.89.89,0,0,0-.3.33l-.18.09c-.08.13-.15.25-.22.34l-.09.17c-.45.53-.76.79-.93.79s-.39-.23-.64-.7a2.48,2.48,0,0,1-.37-1.08l.06-.58a1,1,0,0,0-.13-.24v-.07s0-.13.13-.35v-.47a.23.23,0,0,0,0-.09v-.08a1.35,1.35,0,0,1,.12-.25l-.09-.44.06-.25,0-.54.06-.49A.44.44,0,0,0,148,438c-.06-.08-.1-.11-.12-.11a2,2,0,0,0-.64.35,4.39,4.39,0,0,0-.72.56c-.13.13-.29.29-.5.48a1.07,1.07,0,0,0-.45.79s0,0-.06,0,0,0-.09-.06h-.06c-.05,0-.21.22-.48.67l-.06.06-.3-.06c-.25,0-.37.26-.37.79,0,.09-.06.15-.19.18a.48.48,0,0,0-.31.27,3.06,3.06,0,0,1-.29.45,1,1,0,0,0-.4.23l-.35.46a5.76,5.76,0,0,0-.37.53.49.49,0,0,1-.21.18q-.18.1-.18.18l.05.26c0,.17-.16.25-.48.25-.62,0-.94-.65-.94-1.94a.89.89,0,0,1,.2-.49,4.83,4.83,0,0,0,.38-.66,7.56,7.56,0,0,0,.7-.85,7.41,7.41,0,0,1,.6-.76l.2-.32a.43.43,0,0,1,.08-.28.38.38,0,0,0,.08-.24c0-.16,0-.24-.13-.24a.72.72,0,0,0-.46.14,1,1,0,0,1-.38.21.41.41,0,0,0-.27.22,1.16,1.16,0,0,0-.46.4l-.32.38a1.15,1.15,0,0,0-.15.2.23.23,0,0,1-.17.15.33.33,0,0,0-.2.11.43.43,0,0,1-.3.09c-.09,0-.18-.09-.25-.28a1.5,1.5,0,0,1-.12-.35q0-1.14,1.5-2a1.58,1.58,0,0,0,.32-.22,1.18,1.18,0,0,1,.24-.17l.07-.11a2.63,2.63,0,0,1,.93-.53h.21l1-.26c.45-.1.67.4.67,1.5l0,.28.06.13a4.44,4.44,0,0,1,.54-.45,1.75,1.75,0,0,0,.39-.35A1.36,1.36,0,0,1,145.9,437.53Z" transform="translate(0 -53.18)"/><path class="a94836a1-21c3-4ca7-b18c-3f5001e5242a" d="M171.32,440.57l.25-.21a.25.25,0,0,0,.28-.21.52.52,0,0,1,.33-.34,1.24,1.24,0,0,0,.53-.5c.17-.25.34-.38.51-.38s.14.05.22.15a.49.49,0,0,1,.12.25,2.13,2.13,0,0,1-.31,1.06l-.06.43-.11.2a.67.67,0,0,0-.3.27,1.32,1.32,0,0,1-.36.34l-.16.21a.72.72,0,0,0-.46.36.42.42,0,0,1-.32.28.83.83,0,0,0-.46.31,1.92,1.92,0,0,1-.37.14l0,.15a1,1,0,0,1-.49.25,2.15,2.15,0,0,0-.49.18.63.63,0,0,1-.23.09,1.22,1.22,0,0,1-.54-.12,1.65,1.65,0,0,0-.51-.15.37.37,0,0,1-.11-.2.65.65,0,0,0-.16-.29.79.79,0,0,1-.14-.49l.07-.29a.33.33,0,0,0-.08-.16.28.28,0,0,1-.08-.15.12.12,0,0,1,0-.09.13.13,0,0,0,0-.1.61.61,0,0,0,0-.17.49.49,0,0,1,0-.15l.09-.76q0-.09-.06-.09s-.11.05-.22.15a.57.57,0,0,1-.38.16.7.7,0,0,0-.2.38,1.38,1.38,0,0,1-.31.28l-.07.1c0,.07-.09.13-.23.17a.62.62,0,0,0-.28.18l-.15.16-.3,0s-.07.11-.17.27a1.2,1.2,0,0,1-.35.39l-1.18,1a5.36,5.36,0,0,1-.54.31l-.1.1a4.13,4.13,0,0,1-1.75.82,2.74,2.74,0,0,1-1-.23c-.37-.16-.57-.35-.6-.56l-.16-.64a1.11,1.11,0,0,1-.14-.6.6.6,0,0,1,0-.25v-.09l0-.52q0-.18.3-.18l0-.42a2.36,2.36,0,0,1,.27-.49,2.82,2.82,0,0,1,.36-.49l.16-.2a.5.5,0,0,1,.22-.39,2.07,2.07,0,0,0,.37-.43,2,2,0,0,1,.53-.48l.46-.46a4.39,4.39,0,0,1,1.18-.87,1.74,1.74,0,0,0,.38-.31,1.67,1.67,0,0,1,.65-.41,4.28,4.28,0,0,0,.72-.34,1.23,1.23,0,0,1,.55-.2H166a6.63,6.63,0,0,0,.82-.38h.1a.93.93,0,0,1,.29.12h0l.25-.12a.27.27,0,0,1,.16,0c.64,0,1,.45,1.05,1.34,0,.18.08.28.16.28s.25-.19.44-.57a1.23,1.23,0,0,1,1.22-.57c.44,0,.66.29.66.86a2.7,2.7,0,0,1-.89,1.9.94.94,0,0,0-.1.28L170,440v0a.43.43,0,0,1-.13.25.56.56,0,0,0-.13.29l0,.39-.06.43a.52.52,0,0,0,.11.39,1.26,1.26,0,0,0,.72-.41c.15-.19.25-.3.31-.32L171,441A1.76,1.76,0,0,1,171.32,440.57Zm-5.14,0a.71.71,0,0,1,.38-.52.83.83,0,0,0,.38-.36,9.18,9.18,0,0,0,.84-.78c.37-.37.55-.6.55-.68s0,0-.06,0h0l-.13.07-.27,0-.3,0-.22-.11-.2,0-.31-.07a.9.9,0,0,0-.42.1,2.81,2.81,0,0,1-.69.23,2.34,2.34,0,0,0-.9.43,1.26,1.26,0,0,1-.59.3,2.45,2.45,0,0,1-.73.66.73.73,0,0,0-.48.55c-.27.21-.4.34-.4.37l-.11.26a1.33,1.33,0,0,1-.31.18.36.36,0,0,0-.22.33.84.84,0,0,1-.21.46.6.6,0,0,0-.18.33c0,.51.1.76.3.76a1.84,1.84,0,0,0,.52-.16,2.2,2.2,0,0,0,.45-.22.57.57,0,0,1,.25-.13l.3-.15a.25.25,0,0,1,.14-.08.33.33,0,0,0,.15-.1.88.88,0,0,1,.28-.19.74.74,0,0,0,.31-.27l.85-.48.33-.25a1.32,1.32,0,0,0,.42-.26A.75.75,0,0,1,166.18,440.57Z" transform="translate(0 -53.18)"/><path class="a94836a1-21c3-4ca7-b18c-3f5001e5242a" d="M175.61,437.18l.22-.39a1.93,1.93,0,0,1,.24-.29,1.85,1.85,0,0,0,.32-.76,2.13,2.13,0,0,1,.38-.84.76.76,0,0,1,.61-.23,1.26,1.26,0,0,1,.61.22,2.48,2.48,0,0,1,.75,1.36,6.18,6.18,0,0,1,.36,1.59,1.47,1.47,0,0,0,.11.48,2.32,2.32,0,0,1,.14.44,1.66,1.66,0,0,0-.12.29l0,.64-.19.51v.37a1.31,1.31,0,0,0-.18.39.38.38,0,0,0,.06.19,2.66,2.66,0,0,0,.88-.51.69.69,0,0,1,.3-.24,1.55,1.55,0,0,0,.49-.4l.3-.16c.1-.12.19-.23.26-.33a.61.61,0,0,1,.25-.21,1.31,1.31,0,0,0,.35-.22,4.36,4.36,0,0,1,.59-.35l.15-.19a2.06,2.06,0,0,1,.55-.42,2.33,2.33,0,0,1,.35-.15c.07,0,.15.09.23.28a1.74,1.74,0,0,1,.11.57.7.7,0,0,1-.3.52,4.46,4.46,0,0,0-.41.38,1.12,1.12,0,0,1-.5.22s-.19.22-.51.63l-.31.19-.15.2s-.16.08-.42.12a.65.65,0,0,0-.07.16c0,.1-.15.17-.33.22a4.15,4.15,0,0,0-.57.57l-.33.06a1.08,1.08,0,0,1-.15.36c-.25.06-.39.16-.42.31l-.16.06-.06.05a1.68,1.68,0,0,1-.7.34l-.35.09-.13.19c0,.05-.12.11-.38.2a1.29,1.29,0,0,0-.56.31l-.26.2a1.65,1.65,0,0,0-.61.34h-.21a1.51,1.51,0,0,0-.69.32,1.47,1.47,0,0,1-.74.32,2.34,2.34,0,0,1-1.23-.23,2,2,0,0,1-.55-.56,4.9,4.9,0,0,0-.39-.53.57.57,0,0,1-.18-.33.29.29,0,0,1,.14-.21,1.27,1.27,0,0,0,.32-.45c.12-.22.4-.36.87-.42a.9.9,0,0,0,.22-.1.82.82,0,0,1,.32-.09c.1,0,.23.09.39.28t.06,0l.25,0a.54.54,0,0,0,.23.12,1.21,1.21,0,0,0,.79-.37l.06,0h.13s.08-.09.15-.26l.26-.54.55-.7v-.16a1.45,1.45,0,0,1,.09-.28v-.23q0-.13.18-.18c.13,0,.19-.09.19-.19l0-.12a.63.63,0,0,1-.13-.27l.16-.31,0-.32.06-.13a1.48,1.48,0,0,1-.06-.25l.06-.38-.08-.3c-.06-.18-.11-.28-.14-.28s-.25.16-.59.48a3.21,3.21,0,0,0-.59.69.86.86,0,0,1-.39.36,1,1,0,0,0-.41.36c-.08.14-.16.22-.27.24l-1,.83-1.13.84c-.08.09-.13.14-.15.14-.39,0-.58-.21-.58-.63a2.32,2.32,0,0,1,.23-.73l.17-.1.05,0s0,0,0,0l.09.06h0a8.5,8.5,0,0,1,.75-.45.62.62,0,0,0,.31-.34l.65-.46a9.36,9.36,0,0,0,.76-.68A4.51,4.51,0,0,0,175.61,437.18Z" transform="translate(0 -53.18)"/><path class="a94836a1-21c3-4ca7-b18c-3f5001e5242a" d="M181.58,439.21l.25-.22h.09c.07,0,.18-.08.32-.23l.16-.06a1.45,1.45,0,0,1,.54-.55l.25-.18a.5.5,0,0,1,.18-.11,1.37,1.37,0,0,0,.37-.3.72.72,0,0,1,.41-.26.81.81,0,0,1,.25,0,1.06,1.06,0,0,1,.37-.36,1.43,1.43,0,0,0,.45-.43l.21-.09a1.71,1.71,0,0,0,.44-.32.66.66,0,0,1,.5-.19,1.44,1.44,0,0,1,.94.45,1.26,1.26,0,0,1,.49.88l-.26,1.21c-.18.89-.38,1.35-.59,1.39l-.07.33c-.14.1-.21.19-.21.25l.09.37c0,.05-.06.13-.17.23s0,0,0,.1v.63a.32.32,0,0,1-.22.28l.09.06a.68.68,0,0,1,.42-.09l.25,0,.34-.34a1.36,1.36,0,0,0,.3-.15,4.45,4.45,0,0,1,.66-.3l2-1.55q.42-.42.63-.42t.24.3a1.08,1.08,0,0,1-.14.56,4.76,4.76,0,0,0-.24.54,1,1,0,0,1-.25.45,1,1,0,0,0-.24.27,1.76,1.76,0,0,1-.51.42,5.24,5.24,0,0,0-.69.57,3.41,3.41,0,0,1-.48.41l-.66.48-.09.16-.29.13a1.69,1.69,0,0,0-.46.25L187,444a.79.79,0,0,1-.3.08.56.56,0,0,0-.36.17c-.11.11-.19.17-.25.17l-.23,0-.31.09a1.11,1.11,0,0,1-.65-.32.9.9,0,0,1-.38-.67v-.1l0-.21a1.47,1.47,0,0,0-.09-.32,2,2,0,0,1-.09-.29l0-.22,0-.09a1.42,1.42,0,0,1,.06-.53.89.89,0,0,0,.09-.3c0-.13,0-.23.06-.32l.08-.38a.4.4,0,0,1,.16-.25l.12-.42.06-.28.16-.22a.5.5,0,0,0,.14-.33,1.05,1.05,0,0,1,.17-.44,1.07,1.07,0,0,0,.14-.28.17.17,0,0,0-.19-.19,1.63,1.63,0,0,0-.39.25l-.28-.09s-.07,0-.17.16,0,.07-.14.09a.46.46,0,0,0-.26.23l-.12,0-.2-.09h-.07c-.1,0-.16.11-.18.34a.84.84,0,0,1-.45.32l-.34.1a.4.4,0,0,0-.25.28.92.92,0,0,1-.31.39.8.8,0,0,1-.31.18c-.29,0-.44-.16-.44-.48l.13-.73Zm6.69-7.75-.09-.61v-.09c0-.48.16-.75.5-.81a4.63,4.63,0,0,0,.65-.2,1.13,1.13,0,0,1,.58.49,1.4,1.4,0,0,1,.3.75.59.59,0,0,1-.05.14,1.48,1.48,0,0,0-.06.41.7.7,0,0,1-.3.53,1,1,0,0,1-.61.23.94.94,0,0,1-.55-.31A1,1,0,0,1,188.27,431.46Z" transform="translate(0 -53.18)"/><path class="a94836a1-21c3-4ca7-b18c-3f5001e5242a" d="M205,431.58l.09,0h.42c.13,0,.31-.14.55-.43a8,8,0,0,1,.82-.3l.06-.06a3.82,3.82,0,0,1,.32-.25h.29a1.17,1.17,0,0,0,.25-.14,3.8,3.8,0,0,1,.93-.34,4,4,0,0,0,.92-.31,5.82,5.82,0,0,1,.68-.09l.43-.08.35,0c.54,0,.94.36,1.17,1.09a.51.51,0,0,0,.08.19.48.48,0,0,1,.08.2,2.09,2.09,0,0,1-.64,1.36l-.21.57a1.18,1.18,0,0,1-.17.24,2,2,0,0,0-.28.47,3.77,3.77,0,0,1-.67.81c-.06.13-.15.32-.26.58a2,2,0,0,1-.29.52,8.52,8.52,0,0,0-.6.93,3.74,3.74,0,0,0-.49.95.88.88,0,0,0-.32.57,2.2,2.2,0,0,1-.32.76l0,.11c.33-.11.5-.29.5-.54,0,0,.08-.11.26-.24l.12-.21a.71.71,0,0,1,.33-.25,1,1,0,0,1,.32-.36l.4-.34a1.52,1.52,0,0,1,.33-.19c.16-.07.33-.32.53-.77,0-.08.1-.15.24-.2a.81.81,0,0,0,.35-.26,1.35,1.35,0,0,1,.23-.24l.12-.18a1.47,1.47,0,0,1,.23-.19l.76-.93c.41-.26.63-.46.67-.6l.12,0h.09l.33-.28a.61.61,0,0,1,.35-.62,1.09,1.09,0,0,0,.5-.35.45.45,0,0,1,.34-.21.39.39,0,0,1,.17.09h0s.07,0,.1-.15v-.16a.63.63,0,0,1,.15-.43.72.72,0,0,1,.42-.23.88.88,0,0,0,.51-.39.75.75,0,0,1,.57-.36.43.43,0,0,0,.42-.25,1.45,1.45,0,0,1,.67-.5,4.84,4.84,0,0,1,.69-.3.72.72,0,0,0,.26-.08.53.53,0,0,1,.24-.06,1.74,1.74,0,0,1,.45.09l.28.06a1.76,1.76,0,0,1,.66.58l.16.15v.06l0,.27v.12c.13.06.2.12.2.19l-.11.2a.51.51,0,0,0-.06.25,1.51,1.51,0,0,1,0,.3,2.4,2.4,0,0,1,0,.28,1.82,1.82,0,0,1-.07.25,1.31,1.31,0,0,1-.08.21,2,2,0,0,1-.11.2l-.12.49a2.48,2.48,0,0,1-.34.71,2.4,2.4,0,0,0-.31.57,2,2,0,0,1-.22.44l0,.1v.21c.32,0,.48-.16.48-.37a.51.51,0,0,1,.39-.48l.34-.28a2,2,0,0,1,1-.93.75.75,0,0,1,.29-.51l.6-.56.42-.23a1.26,1.26,0,0,1,.63-.7l.35-.22c.2-.1.32-.2.35-.3a.53.53,0,0,1,.24-.3c.13-.1.33-.27.59-.51l.12-.06.16-.16a1.76,1.76,0,0,1,.39-.15l.12-.06a2.45,2.45,0,0,1,.7-.4,3.84,3.84,0,0,0,.69-.33l.55-.08a.93.93,0,0,1,.25-.06c1,0,1.47.55,1.47,1.66l0,.24,0,.9c-.26.43-.39.65-.39.67l0,.28a1.37,1.37,0,0,1-.2.36l-.24.37a3.37,3.37,0,0,1-.29.32l-.15.47a.81.81,0,0,1-.27.29v.19c0,.15-.2.38-.6.7a1.12,1.12,0,0,1-.27.59,1.55,1.55,0,0,0-.3.4,1.14,1.14,0,0,1-.31.4,1.74,1.74,0,0,1-.27.68,2.25,2.25,0,0,1-.41.61,1.4,1.4,0,0,0-.3.46l-.14.06c-.06.4-.13.62-.22.67l-.24,0v.06a.24.24,0,0,0,.06.11.27.27,0,0,1,.06.17.26.26,0,0,1-.09.19.24.24,0,0,0-.11.15.71.71,0,0,1-.07.16.59.59,0,0,0-.07.3,1.56,1.56,0,0,1-.24.61,1.88,1.88,0,0,0-.23.53,1.14,1.14,0,0,1-.05.23.58.58,0,0,0,0,.19,3.43,3.43,0,0,1-.07.48c.19.46.33.78.42.94a1.1,1.1,0,0,1,.12.33,1.46,1.46,0,0,1-.16.83c-.1.14-.35.21-.76.21a.91.91,0,0,1-.67-.28.82.82,0,0,0-.51-.27v-.28l0,0h-.25l-.13-.11a.78.78,0,0,1-.19-.21l-.1-.1a1.39,1.39,0,0,1-.21-.51l-.1-.31,0-.24,0-.39a.81.81,0,0,1,0-.25l0-.42a1.35,1.35,0,0,1,.06-.27,2.32,2.32,0,0,0,.07-.5.79.79,0,0,1,.14-.44.51.51,0,0,0,.14-.26.31.31,0,0,1,.09-.18.79.79,0,0,0,.12-.35.64.64,0,0,1,.32-.45c.1-.18.19-.36.26-.52.22-.3.33-.45.34-.45h.22a1,1,0,0,1-.15-.22c0-.28.11-.42.32-.42l.16,0,.06-.12-.06-.27c0-.17.13-.35.4-.52a1.05,1.05,0,0,1,.42-.81l0-.25a2,2,0,0,0,.26-.41,3.87,3.87,0,0,1,.44-.64l.48-.73.21-.25h0l0-.06a.91.91,0,0,0,.06-.16l.09-.24.11-.12c.27-.07.4-.17.4-.28a.7.7,0,0,0-.12-.2v-.06a.48.48,0,0,1,.18-.31,2,2,0,0,0,.35-.52,1.53,1.53,0,0,0,.16-.41c0-.05,0-.07-.06-.07a.65.65,0,0,0-.66.36c0,.06-.21.19-.61.37l-.15.24a.58.58,0,0,1-.33.17.7.7,0,0,0-.36.17l-1,.81a10.16,10.16,0,0,0-1.11,1l-.36.25c-.15.07-.22.13-.22.17a.68.68,0,0,1-.26.4l-.19.23a1.23,1.23,0,0,0-.25-.07.34.34,0,0,0-.29.17q.12.12.12.15c0,.17-.16.34-.47.51l-.66.7-.24.17a1,1,0,0,0-.3.35,4.56,4.56,0,0,1-.55.73,4.37,4.37,0,0,1-.53.56.49.49,0,0,0-.19.21,2.87,2.87,0,0,1-.45.48,1.07,1.07,0,0,0-.39.68c-.2.07-.29.13-.29.18l-.1.16-.12.06a.64.64,0,0,0-.05.21c0,.1-.21.28-.62.53a2.31,2.31,0,0,1-.76.38.3.3,0,0,0-.14.06.31.31,0,0,1-.12.06,2.21,2.21,0,0,1-.41-.18,1.31,1.31,0,0,1-.54-.87l.13-.41-.06-.32a.42.42,0,0,1,.14-.25.53.53,0,0,0,.15-.39c.17-.37.29-.63.37-.79l0-.24a1.35,1.35,0,0,1,.21-.35.9.9,0,0,0,.18-.44.33.33,0,0,1,.2-.3,9.61,9.61,0,0,0,1.26-1.88v-.21l.45-.78c.13-.22.3-.48.49-.77l.14-.36-.51-.18a.39.39,0,0,0-.23.12c0,.18-.31.36-.92.54a1.82,1.82,0,0,0-.48.45l-.43.25a2.08,2.08,0,0,0-.29.25l-.22.2a1.26,1.26,0,0,0-.67.43l-.41.3a1.52,1.52,0,0,0-.25.23,2.74,2.74,0,0,1-.58.34l-.24.25-.24.12a4.71,4.71,0,0,0-.37.45.44.44,0,0,1-.32.22l-.34.12a1.51,1.51,0,0,1-.58.78l-.45.56-.21.17a.38.38,0,0,1-.22.21c-.13.17-.22.28-.26.35l-.19.13c-.28.11-.42.19-.42.25l0,.28c0,.12-.12.22-.37.33a.32.32,0,0,0-.18.25,1,1,0,0,1-.11.35h-.28a1.06,1.06,0,0,0-.3.16.09.09,0,0,0-.06,0l.06.35a.65.65,0,0,1-.24.43,2.29,2.29,0,0,0-.38.43c-.09.12-.16.18-.2.18h-.09l-.09.06a.86.86,0,0,1-.39.64l-.19.23a6,6,0,0,0-.52.78,8.53,8.53,0,0,1-.83,1.13,2.29,2.29,0,0,1-.71.58l-.7.3-.63-.12a.9.9,0,0,0-.27-.28c-.12-.07-.18-.15-.18-.23l-.19-.55a1.23,1.23,0,0,1,.17-.53,2,2,0,0,0,.21-.5,3.06,3.06,0,0,1,.18-.48,2.81,2.81,0,0,0,.14-.33c0-.28,0-.45.13-.52l.6-.46s0,0,0-.06v0l0-.26c.23-.41.39-.61.45-.61l.12,0-.09-.34s0-.11.17-.2a1,1,0,0,0,.26-.31l-.06-.19v-.06a.84.84,0,0,1,.39-.6c0-.08.12-.3.24-.64l.41-.71a.83.83,0,0,1,.33-.39.34.34,0,0,0,.18-.25,1.3,1.3,0,0,1,.11-.31c0,.06,0,.06,0,0s0-.14.07-.3a.59.59,0,0,1,.36-.37c.24-.61.42-.92.56-.92a.32.32,0,0,1,.17.07h.06c.17,0,.25-.07.25-.19a.05.05,0,0,0-.06-.06.4.4,0,0,1-.25.15c-.07,0-.11,0-.11-.06s0,0,.05-.06l.34-.7,0-.29a1.34,1.34,0,0,1,.25-.28l.26-.36v-.15a2.36,2.36,0,0,1,.14-.32,2.59,2.59,0,0,0,.2-.57l.27-.38a1.17,1.17,0,0,0,.06-.35c0-.15,0-.23-.06-.23l-.9.17a11.32,11.32,0,0,0-1.05.59l-.35.08-.42.21a1.78,1.78,0,0,1-.67.23.8.8,0,0,0-.5.23l-.06,0h-.3a2.42,2.42,0,0,0-.23.3c0,.07-.08.1-.11.1-1,.69-1.71,1.11-2,1.25a3.83,3.83,0,0,0-.64.4,2.58,2.58,0,0,1-.37.26v.18a.9.9,0,0,1-.38.6,1.08,1.08,0,0,1-.66.33.7.7,0,0,1-.29-.1,1.2,1.2,0,0,0-.43-.13c-.16,0-.24-.22-.24-.59,0-.53.43-1,1.3-1.44a1.72,1.72,0,0,0,.37-.22,12.9,12.9,0,0,1,1.38-.6l.45-.22a1.52,1.52,0,0,1,.52-.29c.24-.08.43-.16.57-.22a2.39,2.39,0,0,1,.34-.12Zm14.55,3.75.15-.28v0s0,0-.06,0-.19.11-.25.31,0,.1.06.1A.11.11,0,0,0,219.57,435.33Z" transform="translate(0 -53.18)"/><path class="a94836a1-21c3-4ca7-b18c-3f5001e5242a" d="M240.11,440.57l.25-.21a.26.26,0,0,0,.28-.21.52.52,0,0,1,.33-.34,1.24,1.24,0,0,0,.53-.5c.17-.25.34-.38.51-.38a.33.33,0,0,1,.22.15.49.49,0,0,1,.12.25,2.13,2.13,0,0,1-.31,1.06l-.06.43-.11.2a.67.67,0,0,0-.3.27,1.32,1.32,0,0,1-.36.34l-.16.21a.72.72,0,0,0-.46.36.42.42,0,0,1-.32.28.83.83,0,0,0-.46.31,2.21,2.21,0,0,1-.37.14l0,.15a1.07,1.07,0,0,1-.49.25,2.48,2.48,0,0,0-.5.18.61.61,0,0,1-.22.09,1.19,1.19,0,0,1-.54-.12,1.65,1.65,0,0,0-.51-.15.31.31,0,0,1-.11-.2.78.78,0,0,0-.16-.29.79.79,0,0,1-.14-.49l.06-.29a.3.3,0,0,0-.07-.16.22.22,0,0,1-.08-.15.12.12,0,0,1,0-.09.13.13,0,0,0,0-.1.61.61,0,0,0,0-.17.49.49,0,0,1,0-.15l.09-.76q0-.09-.06-.09a.45.45,0,0,0-.22.15.57.57,0,0,1-.38.16.7.7,0,0,0-.21.38,1.05,1.05,0,0,1-.31.28l-.06.1c0,.07-.1.13-.23.17a.62.62,0,0,0-.28.18l-.15.16-.3,0a1.92,1.92,0,0,0-.17.27,1.12,1.12,0,0,1-.36.39l-1.17,1a4.69,4.69,0,0,1-.55.31l-.09.1a4.19,4.19,0,0,1-1.75.82,2.69,2.69,0,0,1-1-.23c-.37-.16-.57-.35-.6-.56l-.16-.64a1.11,1.11,0,0,1-.14-.6.65.65,0,0,1,0-.25v-.09l0-.52q0-.18.3-.18l0-.42a2.36,2.36,0,0,1,.27-.49,2.82,2.82,0,0,1,.36-.49l.16-.2a.51.51,0,0,1,.21-.39,2.13,2.13,0,0,0,.38-.43,2.08,2.08,0,0,1,.52-.48l.47-.46a4.24,4.24,0,0,1,1.18-.87,1.74,1.74,0,0,0,.38-.31,1.67,1.67,0,0,1,.65-.41,4.68,4.68,0,0,0,.72-.34,1.23,1.23,0,0,1,.55-.2h.12a7.52,7.52,0,0,0,.82-.38h.1a1,1,0,0,1,.29.12h0l.25-.12a.24.24,0,0,1,.15,0c.65,0,1,.45,1.06,1.34,0,.18.07.28.16.28s.25-.19.44-.57a1.22,1.22,0,0,1,1.22-.57c.44,0,.66.29.66.86a2.67,2.67,0,0,1-.9,1.9,1.31,1.31,0,0,0-.09.28l-.22.64v0a.43.43,0,0,1-.13.25.48.48,0,0,0-.13.29l0,.39-.06.43c0,.2,0,.33.11.39a1.26,1.26,0,0,0,.72-.41,1,1,0,0,1,.31-.32l.16-.06A1.76,1.76,0,0,1,240.11,440.57Zm-5.15,0a.74.74,0,0,1,.38-.52.74.74,0,0,0,.38-.36,7.88,7.88,0,0,0,.85-.78c.37-.37.55-.6.55-.68s0,0-.06,0h0l-.13.07-.28,0-.29,0-.22-.11-.2,0-.31-.07a.94.94,0,0,0-.43.1,2.69,2.69,0,0,1-.68.23,2.32,2.32,0,0,0-.91.43,1.2,1.2,0,0,1-.58.3,2.59,2.59,0,0,1-.73.66.73.73,0,0,0-.48.55,1.76,1.76,0,0,0-.41.37l-.11.26a1,1,0,0,1-.31.18.37.37,0,0,0-.21.33.84.84,0,0,1-.21.46.6.6,0,0,0-.18.33c0,.51.1.76.29.76a1.67,1.67,0,0,0,.52-.16,2.12,2.12,0,0,0,.46-.22.57.57,0,0,1,.25-.13l.29-.15a.34.34,0,0,1,.14-.08.35.35,0,0,0,.16-.1.88.88,0,0,1,.28-.19.81.81,0,0,0,.31-.27l.85-.48.33-.25a1.14,1.14,0,0,0,.41-.26A.92.92,0,0,1,235,440.57Z" transform="translate(0 -53.18)"/><path class="a94836a1-21c3-4ca7-b18c-3f5001e5242a" d="M241.2,454l-.25.17a.56.56,0,0,1-.33.1,1,1,0,0,1-.75-.51,1.83,1.83,0,0,1-.36-1.06,3.48,3.48,0,0,1,.19-1.38,3.13,3.13,0,0,0,.23-.62s.11-.26.33-.76a5.15,5.15,0,0,1,.63-1.14,7.77,7.77,0,0,0,.49-.73l.06-.13a1.81,1.81,0,0,1,.45-.51c0-.06.2-.27.6-.64a13.64,13.64,0,0,1,1.12-.94l.16-.22a2,2,0,0,1,.43-.23l.9-.25c.08-.08.29-.24.61-.48h.12l.42-.12a5.2,5.2,0,0,1,1.06-.29c.48-.09.75-.19.81-.31a2.62,2.62,0,0,0,.17-.33c0-.1.16-.32.34-.65s.08-.32.11-.42.06-.17.1-.19a1.16,1.16,0,0,0,.18-.3,3.87,3.87,0,0,1,.24-.46s0,0,0,0l-.1-.26a1,1,0,0,1,.26-.46c.09-.05.13-.09.13-.11l-.11-.28.26-.58a.05.05,0,0,0-.06-.06,2.87,2.87,0,0,0-1.3,1,.56.56,0,0,0-.35.32l-.13,0-.09.16s0,.05-.11.08a4,4,0,0,0-.43.24l-.19,0s-.09.11-.15.31a1.09,1.09,0,0,1-.51.38.51.51,0,0,0-.3.17l-.12.15-.16,0c-.21,0-.32.08-.32.25a.48.48,0,0,1-.19.32.68.68,0,0,0-.31.1h-.23a.75.75,0,0,1-.56.42l-.45.3-.26.1a2.4,2.4,0,0,0-.37.22,1.37,1.37,0,0,1-.63.17,2.4,2.4,0,0,0-.67-.24c-.3-.08-.51-.59-.64-1.52h0a.48.48,0,0,0-.27.1.52.52,0,0,1-.21.09c-.24,0-.37-.1-.37-.31a.87.87,0,0,1,.53-.91l.39-.49,1-1c.69-.69,1.16-1.14,1.4-1.33a8.14,8.14,0,0,1,.77-.58l.79-.53a2.62,2.62,0,0,1,.5-.28.75.75,0,0,0,.2-.1,2.59,2.59,0,0,1,.56-.24l.28-.12a5.2,5.2,0,0,1,1.12-.29l.22,0a.47.47,0,0,0,.32-.13,1.32,1.32,0,0,0,.67-.34l.56-.15A1.41,1.41,0,0,1,250,436h.3q.31,0,.42.51t.18.51s.08-.08.19-.23l.21-.15a.84.84,0,0,1,.3-.16.42.42,0,0,1,.46.31v0l.06.08a6.4,6.4,0,0,1,.14.91A1.91,1.91,0,0,1,252,439a2.4,2.4,0,0,0-.38.58,11.09,11.09,0,0,1-.62,1.9c-.06.11-.18.41-.38.89l-.15.16a.1.1,0,0,0-.06.09l0,.22a1.36,1.36,0,0,0-.27.67,1.68,1.68,0,0,1-.24.57l.27.16a2.16,2.16,0,0,1,.54.5,1,1,0,0,1,.3.55,4.63,4.63,0,0,1-.17.6,1.7,1.7,0,0,1-.94.42.92.92,0,0,1-.45-.2l-.1,0v-.06a1.07,1.07,0,0,1-.32-.12.47.47,0,0,0-.22-.07.12.12,0,0,0-.13.13.19.19,0,0,0,0,.12,2.3,2.3,0,0,0-.25.23,2.71,2.71,0,0,1-.22.46,1.86,1.86,0,0,1-.39.55c-.23,0-.38.18-.46.51a1.26,1.26,0,0,1-.3.64l-.15-.06a5.22,5.22,0,0,1-1.06,1.52c-.21,0-.33.09-.33.11a1.05,1.05,0,0,0,0,.2,1.26,1.26,0,0,1-.37.51c-.24.24-.37.35-.41.35l-.16,0-.09.1c0,.2-.27.53-.82,1-.3.16-.46.28-.48.34a2,2,0,0,1-.92.7l-.29.26a1.34,1.34,0,0,1-.41.26Zm5.59-8-.46.06a.63.63,0,0,0-.27-.13s-.07,0-.09.1a1.66,1.66,0,0,1-.82.42,2.42,2.42,0,0,0-.86.35.89.89,0,0,1-.38.19c-.11,0-.16,0-.16.06a1.66,1.66,0,0,0-.23.22,1,1,0,0,0-.31.19.64.64,0,0,1-.33.16c-.18.41-.32.61-.4.61l-.15,0h0a1.22,1.22,0,0,1-.3.46.47.47,0,0,0-.19.18,1,1,0,0,1-.3.26.74.74,0,0,0-.31.47,1,1,0,0,1-.19.45.86.86,0,0,0-.15.52l-.09.22a3.49,3.49,0,0,0-.13.53c-.06.29-.09.45-.09.46a.56.56,0,0,0,.19.39A.37.37,0,0,1,241,452l.92-.38.34-.28a1.82,1.82,0,0,1,.52-.34,1,1,0,0,0,.41-.27,1,1,0,0,1,.3-.31.49.49,0,0,0,.21-.31l.65-.59a1.82,1.82,0,0,0,.38-.44.88.88,0,0,1,.27-.31l.06-.2.14,0c.06,0,.17-.18.33-.5l.42-.7a2.71,2.71,0,0,0,.6-.94l.22-.19s.06-.07.06-.14Zm-.28-4.95.19-.26a.58.58,0,0,1,.32-.19.63.63,0,0,0,.36-.26,2.4,2.4,0,0,1,.88-.78l.16-.1c.15-.3.29-.47.42-.49a.53.53,0,0,0,.32-.28.77.77,0,0,0,.14-.4s0-.06-.09-.06a.57.57,0,0,0-.38.13.49.49,0,0,1-.23.12l-.3,0c-.19.1-.45.23-.78.37l-.28.23a.83.83,0,0,1-.33.16.31.31,0,0,0-.23.19c-.05.11-.12.16-.2.16l-.12.07a.62.62,0,0,1-.36.06,1.74,1.74,0,0,0-.32.26c-.1.12-.17.17-.19.17a1.73,1.73,0,0,1-.61.48.6.6,0,0,0-.34.27.88.88,0,0,0-.49.35,1.59,1.59,0,0,1-.37.37,1.32,1.32,0,0,0-.28.25l-.16.13a1.1,1.1,0,0,0-.25.41,1.4,1.4,0,0,0-.17.49c0,.06,0,.09.11.09a1.6,1.6,0,0,0,.58-.23,2.58,2.58,0,0,0,.55-.34c.09-.09.14-.13.17-.13l.59,0a.49.49,0,0,1,.32-.26.58.58,0,0,0,.35-.26,1.53,1.53,0,0,1,.7-.44l.17-.28Z" transform="translate(0 -53.18)"/><path class="a94836a1-21c3-4ca7-b18c-3f5001e5242a" d="M265.25,440.57l.25-.21a.26.26,0,0,0,.28-.21.52.52,0,0,1,.33-.34,1.24,1.24,0,0,0,.53-.5c.17-.25.34-.38.51-.38a.33.33,0,0,1,.22.15.49.49,0,0,1,.12.25,2.13,2.13,0,0,1-.31,1.06l-.06.43-.11.2a.67.67,0,0,0-.3.27,1.32,1.32,0,0,1-.36.34l-.16.21a.72.72,0,0,0-.46.36.42.42,0,0,1-.32.28.83.83,0,0,0-.46.31,2.21,2.21,0,0,1-.37.14l0,.15a1,1,0,0,1-.49.25,2.15,2.15,0,0,0-.49.18.7.7,0,0,1-.23.09,1.19,1.19,0,0,1-.54-.12,1.65,1.65,0,0,0-.51-.15.31.31,0,0,1-.11-.2.65.65,0,0,0-.16-.29.79.79,0,0,1-.14-.49l.07-.29a.33.33,0,0,0-.08-.16.28.28,0,0,1-.08-.15.12.12,0,0,1,0-.09.13.13,0,0,0,0-.1.61.61,0,0,0,0-.17.49.49,0,0,1,0-.15l.09-.76q0-.09-.06-.09s-.11.05-.22.15a.57.57,0,0,1-.38.16.64.64,0,0,0-.2.38,1.38,1.38,0,0,1-.31.28l-.07.1c0,.07-.1.13-.23.17a.62.62,0,0,0-.28.18L260,442l-.3,0a1.92,1.92,0,0,0-.17.27,1.12,1.12,0,0,1-.36.39l-1.17,1a4.69,4.69,0,0,1-.55.31l-.09.1a4.19,4.19,0,0,1-1.75.82,2.69,2.69,0,0,1-1-.23c-.37-.16-.57-.35-.6-.56l-.16-.64a1.11,1.11,0,0,1-.14-.6.65.65,0,0,1,0-.25v-.09l0-.52q0-.18.3-.18l0-.42a2.36,2.36,0,0,1,.27-.49,2.82,2.82,0,0,1,.36-.49l.16-.2a.51.51,0,0,1,.21-.39,2.13,2.13,0,0,0,.38-.43,2,2,0,0,1,.53-.48l.46-.46a4.39,4.39,0,0,1,1.18-.87,1.74,1.74,0,0,0,.38-.31,1.67,1.67,0,0,1,.65-.41,4.68,4.68,0,0,0,.72-.34,1.23,1.23,0,0,1,.55-.2H260a6.63,6.63,0,0,0,.82-.38h.1a.93.93,0,0,1,.29.12h0l.25-.12a.25.25,0,0,1,.16,0c.64,0,1,.45,1,1.34,0,.18.07.28.16.28s.25-.19.44-.57a1.23,1.23,0,0,1,1.22-.57c.44,0,.66.29.66.86a2.67,2.67,0,0,1-.9,1.9,1.31,1.31,0,0,0-.09.28l-.22.64v0a.43.43,0,0,1-.13.25.48.48,0,0,0-.13.29l0,.39-.06.43a.52.52,0,0,0,.11.39,1.26,1.26,0,0,0,.72-.41,1,1,0,0,1,.31-.32l.16-.06A1.76,1.76,0,0,1,265.25,440.57Zm-5.15,0a.75.75,0,0,1,.39-.52.75.75,0,0,0,.37-.36,7.88,7.88,0,0,0,.85-.78c.37-.37.55-.6.55-.68s0,0-.06,0h0l-.13.07-.28,0-.29,0-.22-.11-.2,0-.31-.07a1,1,0,0,0-.43.1,2.55,2.55,0,0,1-.68.23,2.39,2.39,0,0,0-.91.43,1.2,1.2,0,0,1-.58.3,2.59,2.59,0,0,1-.73.66.73.73,0,0,0-.48.55,1.76,1.76,0,0,0-.41.37l-.11.26a1.09,1.09,0,0,1-.3.18.36.36,0,0,0-.22.33.84.84,0,0,1-.21.46.6.6,0,0,0-.18.33c0,.51.1.76.3.76a1.72,1.72,0,0,0,.51-.16,2.12,2.12,0,0,0,.46-.22.57.57,0,0,1,.25-.13l.29-.15a.34.34,0,0,1,.14-.08.31.31,0,0,0,.16-.1.88.88,0,0,1,.28-.19.81.81,0,0,0,.31-.27l.85-.48.33-.25a1.32,1.32,0,0,0,.42-.26A.77.77,0,0,1,260.1,440.57Z" transform="translate(0 -53.18)"/><path class="a94836a1-21c3-4ca7-b18c-3f5001e5242a" d="M280.71,441.53h.06l.15.07a.09.09,0,0,0,.07,0,.57.57,0,0,1,.24-.45.73.73,0,0,1,.35-.44l.87-.52.38-.34.19-.09.12-.16a.5.5,0,0,1,.33-.2c.16,0,.23.06.23.17l-.14.31.07.52a.71.71,0,0,1-.2.49l-.59.64-.8.83-.42.22a1.44,1.44,0,0,0-.27.22l-.61.51a.42.42,0,0,1-.14.33h-.25l-.12.06a1.31,1.31,0,0,1-.64.57l-.22.16a.32.32,0,0,1-.2.09l-.43-.06-.3.06a.67.67,0,0,1-.33-.13,2.35,2.35,0,0,0-.43-.19,1.47,1.47,0,0,1-.55-.57,2.83,2.83,0,0,1-.36-.66.82.82,0,0,0-.07-.21.62.62,0,0,1-.07-.18,1.49,1.49,0,0,1,.14-.31v0a.78.78,0,0,0-.09-.22.88.88,0,0,1-.08-.42.82.82,0,0,0-.1-.35.33.33,0,0,0,.13-.19.62.62,0,0,0-.05-.18.51.51,0,0,1-.05-.17l.1-.76-.06-.39,0-.37c0-.22-.1-.33-.28-.33a.54.54,0,0,0-.31.17l-.11,0a4.1,4.1,0,0,0-.59.34.61.61,0,0,1-.35.13.85.85,0,0,1-.36.17l-.12.09-.25.19a3.58,3.58,0,0,1-.58.52c-.38.31-.73.61-1,.89a1.69,1.69,0,0,1-.67.45c-.14,0-.21.16-.21.4,0,0-.09.12-.28.25a1.71,1.71,0,0,0-.32.34,1.33,1.33,0,0,0-.28-.19c-.13,0-.23.17-.29.51-.07.14-.23.22-.5.25a.64.64,0,0,0-.11.24l-.06.06h-.16a1.08,1.08,0,0,0-.22.17.92.92,0,0,1-.32.23c-.14.28-.25.42-.34.42a.42.42,0,0,1-.18-.06,1.6,1.6,0,0,0-.29-.11c-.11,0-.24-.16-.38-.38a1.11,1.11,0,0,1-.21-.57c0-1.14.22-1.77.67-1.87l0-.07v-.12a.31.31,0,0,1,.18-.29.94.94,0,0,0,.36-.34,1,1,0,0,1,.25-.28h.2s.06-.11.06-.33a.25.25,0,0,1,.08-.17.37.37,0,0,0,.09-.22,1.49,1.49,0,0,1,.23-.49,1.48,1.48,0,0,0,.21-.39l0-.06a1.35,1.35,0,0,1-.56.38c-.12,0-.27.18-.47.45l-.24,0a6.32,6.32,0,0,1-.81.54.79.79,0,0,0-.34.36c0,.06,0,.1-.11.12a1.48,1.48,0,0,0-.41.25h-.09c-.26,0-.39-.19-.39-.56l.33-.88a1.3,1.3,0,0,1,.65-.71,7.18,7.18,0,0,0,.88-.55,1.33,1.33,0,0,1,.71-.28l.11-.15a1.19,1.19,0,0,0,.71-.64c.13-.29.3-.43.51-.43a1.5,1.5,0,0,1,1.3.63,1.9,1.9,0,0,1,.45,1l0,.42a2.89,2.89,0,0,1-.09.6.9.9,0,0,0-.18.42q0,.12.15.12a.45.45,0,0,0,.25-.13,1.8,1.8,0,0,1,.35-.24c.13-.07.2-.13.22-.19a.91.91,0,0,1,.54-.51,1.49,1.49,0,0,0,.48-.23l.16-.12.12-.24a1.55,1.55,0,0,0,.56-.34.67.67,0,0,1,.37-.2,1.24,1.24,0,0,0,.53-.28l.23-.06.22-.12a.51.51,0,0,1,.18-.08l.46-.16a1.42,1.42,0,0,1,.41-.12,1.45,1.45,0,0,1,1.25.64,2,2,0,0,1,.45,1l0,.28.06.41v.07L279,440l0,.29a1.3,1.3,0,0,1-.31,1c-.05,0-.08.07-.08.16v.14l.31.65c.1.22.17.34.22.34l.5-.14a.63.63,0,0,0,.36-.33,2.26,2.26,0,0,0,.43-.37A.32.32,0,0,1,280.71,441.53Z" transform="translate(0 -53.18)"/><path class="a94836a1-21c3-4ca7-b18c-3f5001e5242a" d="M282.81,454l-.24.17a.6.6,0,0,1-.33.1,1,1,0,0,1-.75-.51,1.84,1.84,0,0,1-.37-1.06,3.44,3.44,0,0,1,.2-1.38,2.46,2.46,0,0,0,.22-.62s.11-.26.34-.76a5.64,5.64,0,0,1,.62-1.14,8,8,0,0,0,.5-.73l.06-.13a1.81,1.81,0,0,1,.45-.51c0-.06.2-.27.6-.64a13.64,13.64,0,0,1,1.12-.94l.16-.22a1.8,1.8,0,0,1,.43-.23l.9-.25a7.26,7.26,0,0,1,.6-.48h.13l.42-.12a5,5,0,0,1,1.06-.29c.47-.09.75-.19.81-.31s.12-.23.17-.33.16-.32.34-.65.07-.32.1-.42.07-.17.11-.19a1,1,0,0,0,.17-.3c.09-.18.17-.33.25-.46a0,0,0,0,0,0,0l-.09-.26a.88.88,0,0,1,.26-.46c.08-.05.13-.09.13-.11l-.11-.28.26-.58a.05.05,0,0,0-.06-.06,4.07,4.07,0,0,1-1,.58c0,.07-.17.19-.34.37a.55.55,0,0,0-.36.32l-.12,0-.09.16s0,.05-.11.08a3.78,3.78,0,0,0-.44.24l-.18,0s-.1.11-.16.31a1,1,0,0,1-.5.38.51.51,0,0,0-.3.17l-.13.15-.15,0c-.22,0-.33.08-.33.25a.5.5,0,0,1-.18.32.65.65,0,0,0-.31.1h-.23a.77.77,0,0,1-.56.42l-.45.3-.26.1a2.4,2.4,0,0,0-.37.22,1.42,1.42,0,0,1-.64.17,2.2,2.2,0,0,0-.66-.24c-.3-.08-.51-.59-.64-1.52h0a.48.48,0,0,0-.27.1.52.52,0,0,1-.21.09c-.25,0-.37-.1-.37-.31a.87.87,0,0,1,.52-.91l.39-.49,1-1c.7-.69,1.16-1.14,1.4-1.33s.5-.39.78-.58l.79-.53a2.62,2.62,0,0,1,.5-.28.58.58,0,0,0,.19-.1,3.08,3.08,0,0,1,.57-.24l.28-.12a5.06,5.06,0,0,1,1.12-.29l.22,0a.47.47,0,0,0,.32-.13,1.32,1.32,0,0,0,.67-.34l.56-.15a1.29,1.29,0,0,1,.39-.08h.29c.22,0,.36.17.43.51s.12.51.18.51.08-.08.18-.23l.22-.15a.84.84,0,0,1,.29-.16.43.43,0,0,1,.47.31v0l.06.08a8.53,8.53,0,0,1,.14.91,1.91,1.91,0,0,1-.32,1.17,2.77,2.77,0,0,0-.38.58,9.56,9.56,0,0,1-.62,1.9c-.05.11-.17.41-.37.89l-.15.16a.11.11,0,0,0-.07.09l0,.22a1.43,1.43,0,0,0-.26.67,1.57,1.57,0,0,1-.25.57l.28.16a2.16,2.16,0,0,1,.54.5,1,1,0,0,1,.3.55s-.06.23-.17.6a1.7,1.7,0,0,1-.95.42,1,1,0,0,1-.45-.2l-.09,0v-.06a1,1,0,0,1-.32-.12.51.51,0,0,0-.22-.07c-.09,0-.13,0-.13.13a.27.27,0,0,0,0,.12l-.25.23a2.26,2.26,0,0,1-.21.46,2.06,2.06,0,0,1-.39.55c-.23,0-.38.18-.47.51a1.27,1.27,0,0,1-.29.64l-.16-.06a5.22,5.22,0,0,1-1.05,1.52c-.22,0-.33.09-.33.11s0,.09,0,.2-.13.28-.37.51-.37.35-.41.35l-.15,0-.1.1c0,.2-.26.53-.82,1-.3.16-.46.28-.48.34s-.39.43-.91.7l-.3.26a1.3,1.3,0,0,1-.4.26Zm5.6-8-.47.06a.56.56,0,0,0-.26-.13s-.07,0-.1.1a1.56,1.56,0,0,1-.82.42,2.51,2.51,0,0,0-.86.35.84.84,0,0,1-.38.19q-.15,0-.15.06a1.66,1.66,0,0,0-.23.22.93.93,0,0,0-.31.19.72.72,0,0,1-.33.16c-.19.41-.32.61-.4.61l-.16,0h0a1.2,1.2,0,0,1-.31.46.52.52,0,0,0-.18.18,1.26,1.26,0,0,1-.31.26.7.7,0,0,0-.3.47,1.07,1.07,0,0,1-.19.45.86.86,0,0,0-.15.52l-.09.22a2.54,2.54,0,0,0-.13.53c-.06.29-.09.45-.09.46a.52.52,0,0,0,.19.39.37.37,0,0,1,.26-.11l.91-.38s.15-.11.35-.28a1.8,1.8,0,0,1,.51-.34,1,1,0,0,0,.41-.27,1.14,1.14,0,0,1,.31-.31.49.49,0,0,0,.21-.31l.65-.59a2.08,2.08,0,0,0,.38-.44.72.72,0,0,1,.27-.31l.06-.2.13,0c.07,0,.18-.18.34-.5l.41-.7a2.88,2.88,0,0,0,.61-.94l.22-.19s.06-.07.06-.14Zm-.28-4.95.19-.26a.55.55,0,0,1,.31-.19.68.68,0,0,0,.37-.26,2.4,2.4,0,0,1,.88-.78l.16-.1c.15-.3.29-.47.41-.49a.52.52,0,0,0,.33-.28.87.87,0,0,0,.14-.4s0-.06-.09-.06a.57.57,0,0,0-.38.13.54.54,0,0,1-.23.12l-.31,0a8.27,8.27,0,0,1-.77.37l-.28.23a1,1,0,0,1-.33.16.31.31,0,0,0-.23.19c-.05.11-.12.16-.2.16l-.12.07a.67.67,0,0,1-.36.06,1.74,1.74,0,0,0-.32.26c-.11.12-.17.17-.19.17a1.67,1.67,0,0,1-.62.48.54.54,0,0,0-.33.27.88.88,0,0,0-.49.35,1.59,1.59,0,0,1-.37.37,1.37,1.37,0,0,0-.29.25l-.15.13a1.22,1.22,0,0,0-.26.41,1.55,1.55,0,0,0-.16.49c0,.06,0,.09.11.09a1.66,1.66,0,0,0,.58-.23,2.58,2.58,0,0,0,.55-.34c.08-.09.14-.13.17-.13l.59,0a.47.47,0,0,1,.32-.26.61.61,0,0,0,.35-.26,1.49,1.49,0,0,1,.69-.44l.18-.28Z" transform="translate(0 -53.18)"/><path class="a94836a1-21c3-4ca7-b18c-3f5001e5242a" d="M308.92,431.58l.09,0h.42c.12,0,.3-.14.54-.43,0,0,.3-.12.83-.3l.06-.06.31-.25h.3a1.52,1.52,0,0,0,.25-.14,3.51,3.51,0,0,1,.92-.34,3.85,3.85,0,0,0,.92-.31,6.18,6.18,0,0,1,.69-.09l.43-.08.34,0c.55,0,.94.36,1.18,1.09a.38.38,0,0,0,.08.19.43.43,0,0,1,.07.2,2.12,2.12,0,0,1-.63,1.36l-.22.57a.92.92,0,0,1-.16.24,2,2,0,0,0-.29.47,3.23,3.23,0,0,1-.67.81l-.26.58a1.7,1.7,0,0,1-.29.52c-.07.08-.27.4-.6.93a3.74,3.74,0,0,0-.49.95.93.93,0,0,0-.32.57,2.18,2.18,0,0,1-.31.76l0,.11c.33-.11.49-.29.49-.54,0,0,.09-.11.26-.24l.13-.21a.65.65,0,0,1,.32-.25q0-.12.33-.36L314,437a1.41,1.41,0,0,1,.34-.19,1.52,1.52,0,0,0,.52-.77c0-.08.1-.15.24-.2a.75.75,0,0,0,.35-.26,1.35,1.35,0,0,1,.23-.24l.13-.18A1.11,1.11,0,0,1,316,435l.76-.93q.6-.39.66-.6l.13,0h.09l.33-.28a.6.6,0,0,1,.34-.62,1.12,1.12,0,0,0,.51-.35.42.42,0,0,1,.34-.21.45.45,0,0,1,.17.09h0s.06,0,.09-.15v-.16a.59.59,0,0,1,.16-.43.73.73,0,0,1,.41-.23.87.87,0,0,0,.52-.39.73.73,0,0,1,.56-.36.46.46,0,0,0,.43-.25,1.41,1.41,0,0,1,.66-.5,4.74,4.74,0,0,1,.7-.3.67.67,0,0,0,.25-.08.53.53,0,0,1,.24-.06,1.6,1.6,0,0,1,.45.09l.28.06a1.78,1.78,0,0,1,.67.58l.15.15v.06l0,.27v.12c.14.06.21.12.21.19l-.11.2a.51.51,0,0,0-.06.25c0,.1,0,.2,0,.3a2.36,2.36,0,0,1,0,.28,1,1,0,0,1-.06.25c0,.07-.06.15-.09.21a1.86,1.86,0,0,1-.1.2l-.13.49a2.17,2.17,0,0,1-.33.71,2.56,2.56,0,0,0-.32.57,1.61,1.61,0,0,1-.22.44l0,.1v.21c.32,0,.48-.16.48-.37a.51.51,0,0,1,.39-.48l.34-.28a2,2,0,0,1,1-.93.73.73,0,0,1,.3-.51l.59-.56.42-.23a1.27,1.27,0,0,1,.64-.7l.34-.22c.21-.1.33-.2.35-.3a.64.64,0,0,1,.24-.3,7.17,7.17,0,0,0,.59-.51l.13-.06.15-.16a2.26,2.26,0,0,1,.39-.15l.13-.06a2.42,2.42,0,0,1,.69-.4,3.9,3.9,0,0,0,.7-.33l.54-.08.25-.06c1,0,1.47.55,1.47,1.66l0,.24,0,.9c-.26.43-.39.65-.39.67l0,.28a1.24,1.24,0,0,1-.21.36l-.24.37a2.71,2.71,0,0,1-.28.32l-.16.47a.87.87,0,0,1-.26.29v.19c0,.15-.2.38-.6.7a1.21,1.21,0,0,1-.28.59,1.5,1.5,0,0,0-.29.4,1.18,1.18,0,0,1-.32.4,1.85,1.85,0,0,1-.26.68,2.86,2.86,0,0,1-.41.61,1.57,1.57,0,0,0-.31.46l-.13.06c-.07.4-.14.62-.22.67l-.25,0v.06a.24.24,0,0,0,.06.11.27.27,0,0,1,.06.17.26.26,0,0,1-.09.19.29.29,0,0,0-.11.15.43.43,0,0,1-.07.16.72.72,0,0,0-.07.3,1.68,1.68,0,0,1-.23.61,1.61,1.61,0,0,0-.23.53,1.14,1.14,0,0,1-.05.23.58.58,0,0,0,0,.19,4.32,4.32,0,0,1-.08.48c.2.46.34.78.42.94a1.1,1.1,0,0,1,.12.33,1.57,1.57,0,0,1-.15.83c-.1.14-.36.21-.76.21a.93.93,0,0,1-.68-.28.8.8,0,0,0-.5-.27v-.28l0,0h-.24l-.14-.11a1,1,0,0,1-.19-.21l-.09-.1a1.37,1.37,0,0,1-.22-.51l-.09-.31,0-.24,0-.39a.81.81,0,0,1,0-.25l0-.42a1.35,1.35,0,0,1,.06-.27,2.27,2.27,0,0,0,.08-.5.79.79,0,0,1,.14-.44.61.61,0,0,0,.14-.26.37.37,0,0,1,.08-.18.68.68,0,0,0,.12-.35.66.66,0,0,1,.33-.45c.1-.18.19-.36.26-.52.22-.3.33-.45.34-.45h.22a.84.84,0,0,1-.16-.22q0-.42.33-.42l.15,0,.06-.12-.06-.27c0-.17.14-.35.41-.52a1,1,0,0,1,.41-.81l0-.25a1.87,1.87,0,0,0,.27-.41,3.77,3.77,0,0,1,.43-.64l.48-.73.22-.25s0,0,0,0l0-.06.05-.16.09-.24.11-.12c.27-.07.41-.17.41-.28a.91.91,0,0,0-.13-.2v-.06a.47.47,0,0,1,.19-.31,2.23,2.23,0,0,0,.35-.52,2.05,2.05,0,0,0,.16-.41c0-.05,0-.07-.06-.07a.67.67,0,0,0-.67.36c0,.06-.2.19-.6.37l-.16.24a.53.53,0,0,1-.32.17.69.69,0,0,0-.37.17l-1,.81a10.45,10.45,0,0,0-1.12,1l-.36.25c-.14.07-.21.13-.21.17s-.09.24-.27.4l-.18.23-.25-.07a.34.34,0,0,0-.3.17c.08.08.13.13.13.15s-.16.34-.47.51l-.67.7-.23.17a.94.94,0,0,0-.31.35,4,4,0,0,1-.55.73,4.37,4.37,0,0,1-.53.56.49.49,0,0,0-.18.21,4.13,4.13,0,0,1-.45.48,1.07,1.07,0,0,0-.39.68q-.3.1-.3.18l-.09.16-.13.06a.7.7,0,0,0,0,.21c0,.1-.22.28-.62.53a2.52,2.52,0,0,1-.76.38.3.3,0,0,0-.14.06.33.33,0,0,1-.13.06,2.58,2.58,0,0,1-.41-.18,1.27,1.27,0,0,1-.53-.87l.12-.41-.06-.32c0-.06.05-.14.15-.25a.52.52,0,0,0,.14-.39c.17-.37.29-.63.38-.79l0-.24a1.35,1.35,0,0,1,.21-.35,1,1,0,0,0,.18-.44.32.32,0,0,1,.2-.3,9.88,9.88,0,0,0,1.25-1.88v-.21l.45-.78c.14-.22.3-.48.5-.77l.14-.36-.51-.18a.41.41,0,0,0-.24.12c0,.18-.3.36-.91.54a1.82,1.82,0,0,0-.48.45l-.43.25a2,2,0,0,0-.3.25l-.22.2a1.23,1.23,0,0,0-.66.43l-.42.3a2.13,2.13,0,0,0-.25.23,2.54,2.54,0,0,1-.57.34l-.25.25-.23.12a3.54,3.54,0,0,0-.37.45.46.46,0,0,1-.33.22l-.34.12a1.43,1.43,0,0,1-.57.78l-.45.56-.22.17a.36.36,0,0,1-.21.21,3.4,3.4,0,0,0-.27.35l-.19.13c-.27.11-.41.19-.41.25l0,.28c0,.12-.13.22-.37.33a.28.28,0,0,0-.18.25,1.32,1.32,0,0,1-.12.35h-.28a.94.94,0,0,0-.29.16.09.09,0,0,0-.06,0l.06.35a.63.63,0,0,1-.25.43,3.35,3.35,0,0,0-.38.43c-.09.12-.15.18-.19.18h-.1l-.09.06a.87.87,0,0,1-.38.64l-.19.23a5.55,5.55,0,0,0-.53.78,8.55,8.55,0,0,1-.82,1.13,2.31,2.31,0,0,1-.72.58l-.69.3-.64-.12a.72.72,0,0,0-.27-.28c-.12-.07-.18-.15-.18-.23l-.18-.55a1.11,1.11,0,0,1,.17-.53,2.46,2.46,0,0,0,.21-.5,2.16,2.16,0,0,1,.17-.48,1.61,1.61,0,0,0,.14-.33c0-.28.05-.45.14-.52l.59-.46s0,0,0-.06v0l0-.26c.24-.41.39-.61.45-.61l.13,0-.1-.34s.06-.11.17-.2a1,1,0,0,0,.27-.31l-.07-.19v-.06a.84.84,0,0,1,.39-.6c0-.08.13-.3.25-.64l.41-.71a.88.88,0,0,1,.32-.39.33.33,0,0,0,.19-.25,1,1,0,0,1,.11-.31c0,.06,0,.06,0,0a2.54,2.54,0,0,0,.08-.3.57.57,0,0,1,.35-.37c.24-.61.43-.92.56-.92a.32.32,0,0,1,.17.07h.07c.16,0,.24-.07.24-.19a.05.05,0,0,0-.06-.06.36.36,0,0,1-.25.15c-.07,0-.11,0-.11-.06s0,0,.05-.06l.34-.7,0-.29a2.42,2.42,0,0,1,.25-.28l.27-.36v-.15a1.43,1.43,0,0,1,.14-.32,2.59,2.59,0,0,0,.2-.57l.26-.38a1.17,1.17,0,0,0,.06-.35c0-.15,0-.23-.06-.23l-.9.17a10.83,10.83,0,0,0-1,.59l-.36.08a2.9,2.9,0,0,0-.41.21,1.84,1.84,0,0,1-.67.23.83.83,0,0,0-.51.23l-.06,0h-.29a1.9,1.9,0,0,0-.24.3c0,.07-.07.1-.11.1-1,.69-1.7,1.11-2,1.25a4.31,4.31,0,0,0-.64.4,2.13,2.13,0,0,1-.37.26v.18a.86.86,0,0,1-.38.6,1.08,1.08,0,0,1-.66.33.67.67,0,0,1-.28-.1,1.25,1.25,0,0,0-.44-.13c-.16,0-.24-.22-.24-.59,0-.53.44-1,1.31-1.44a2,2,0,0,0,.37-.22,11.08,11.08,0,0,1,1.38-.6l.45-.22a1.42,1.42,0,0,1,.52-.29c.24-.08.43-.16.57-.22l.33-.12Zm14.54,3.75.16-.28v0s0,0-.07,0-.18.11-.24.31,0,.1.06.1A.11.11,0,0,0,323.46,435.33Z" transform="translate(0 -53.18)"/><path class="a94836a1-21c3-4ca7-b18c-3f5001e5242a" d="M344,440.57l.24-.21a.25.25,0,0,0,.28-.21.52.52,0,0,1,.33-.34,1.32,1.32,0,0,0,.54-.5c.16-.25.33-.38.51-.38s.13.05.21.15a.54.54,0,0,1,.13.25,2.24,2.24,0,0,1-.31,1.06l-.07.43-.1.2a.65.65,0,0,0-.31.27,1.07,1.07,0,0,1-.36.34l-.16.21a.7.7,0,0,0-.45.36.45.45,0,0,1-.33.28.83.83,0,0,0-.46.31,1.92,1.92,0,0,1-.37.14l0,.15a1,1,0,0,1-.49.25,2.35,2.35,0,0,0-.49.18.63.63,0,0,1-.23.09,1.25,1.25,0,0,1-.54-.12,1.5,1.5,0,0,0-.51-.15.37.37,0,0,1-.11-.2.72.72,0,0,0-.15-.29.73.73,0,0,1-.14-.49l.06-.29a.33.33,0,0,0-.08-.16.28.28,0,0,1-.08-.15.12.12,0,0,1,0-.09.11.11,0,0,0,0-.1.41.41,0,0,0,0-.17.49.49,0,0,1,0-.15l.1-.76c0-.06,0-.09-.07-.09s-.11.05-.22.15a.57.57,0,0,1-.38.16.7.7,0,0,0-.2.38,1.19,1.19,0,0,1-.31.28l-.06.1c0,.07-.1.13-.24.17a.58.58,0,0,0-.27.18l-.16.16-.29,0a1.25,1.25,0,0,0-.17.27,1.35,1.35,0,0,1-.36.39l-1.18,1a3.76,3.76,0,0,1-.54.31l-.1.1a4.13,4.13,0,0,1-1.75.82,2.65,2.65,0,0,1-1-.23c-.38-.16-.58-.35-.61-.56l-.15-.64a1,1,0,0,1-.14-.6.65.65,0,0,1,0-.25v-.09l0-.52c0-.12.1-.18.29-.18l0-.42a2.36,2.36,0,0,1,.27-.49,2.25,2.25,0,0,1,.37-.49l.15-.2a.5.5,0,0,1,.22-.39,2.07,2.07,0,0,0,.37-.43,2,2,0,0,1,.53-.48l.46-.46a4.55,4.55,0,0,1,1.18-.87,1.53,1.53,0,0,0,.38-.31,1.7,1.7,0,0,1,.66-.41,4.19,4.19,0,0,0,.71-.34,1.27,1.27,0,0,1,.55-.2h.12a6.34,6.34,0,0,0,.83-.38h.09a1.05,1.05,0,0,1,.3.12h0l.24-.12a.29.29,0,0,1,.16,0c.64,0,1,.45,1.06,1.34,0,.18.07.28.15.28s.25-.19.44-.57a1.23,1.23,0,0,1,1.22-.57c.44,0,.67.29.67.86a2.67,2.67,0,0,1-.9,1.9,1.33,1.33,0,0,0-.1.28l-.21.64v0a.5.5,0,0,1-.13.25.51.51,0,0,0-.14.29l0,.39-.06.43a.52.52,0,0,0,.11.39,1.26,1.26,0,0,0,.72-.41c.15-.19.25-.3.32-.32l.15-.06A1.55,1.55,0,0,1,344,440.57Zm-5.15,0a.74.74,0,0,1,.38-.52.78.78,0,0,0,.38-.36,8,8,0,0,0,.84-.78c.37-.37.55-.6.55-.68s0,0-.06,0h0l-.12.07-.28,0-.3,0-.21-.11-.21,0-.31-.07a.93.93,0,0,0-.42.1,2.85,2.85,0,0,1-.68.23,2.32,2.32,0,0,0-.91.43,1.26,1.26,0,0,1-.59.3,2.45,2.45,0,0,1-.73.66.73.73,0,0,0-.48.55c-.27.21-.4.34-.4.37l-.11.26a1.15,1.15,0,0,1-.31.18.36.36,0,0,0-.22.33.84.84,0,0,1-.21.46.6.6,0,0,0-.18.33c0,.51.1.76.3.76a1.84,1.84,0,0,0,.52-.16,2.83,2.83,0,0,0,.46-.22.52.52,0,0,1,.24-.13l.3-.15a.29.29,0,0,1,.14-.08.33.33,0,0,0,.15-.1,1,1,0,0,1,.28-.19.69.69,0,0,0,.31-.27l.85-.48.33-.25a1.11,1.11,0,0,0,.42-.26A.75.75,0,0,1,338.86,440.57Z" transform="translate(0 -53.18)"/><path class="a94836a1-21c3-4ca7-b18c-3f5001e5242a" d="M346.26,438.93l.13-.17a.71.71,0,0,0,.51-.31,6.55,6.55,0,0,1,.78-.81c.49-.46.76-.71.81-.74a6.07,6.07,0,0,0,.6-1.35c.12-.06.19-.13.19-.22l.12-.24.14,0,.06-.06v-.14a4,4,0,0,1,.6-1.3c.41-.84.62-1.3.65-1.39s.1-.21.19-.38.23-.5.43-1a6.29,6.29,0,0,1,.89-1.52s.1-.13.18-.35a2.46,2.46,0,0,1,.39-.62l.19-.33.32-.54a4.73,4.73,0,0,1,.43-.61,1.5,1.5,0,0,0,.29-.48.89.89,0,0,1,.24-.35,1.25,1.25,0,0,0,.29-.4.48.48,0,0,1,.46-.28.91.91,0,0,1,.87.49,1.87,1.87,0,0,1,.27.87s-.06.25-.18.67l-.23,1.39c-.21.1-.31.22-.31.36a3,3,0,0,1-.64,1.7,1,1,0,0,0-.1.41.9.9,0,0,1-.27.55,1.82,1.82,0,0,0-.42.73l-1.44,2.06-.13.13a.89.89,0,0,0-.21.26l-.25-.08q-.42,0-.42.27a.69.69,0,0,0,.06.24v0s-.38.55-1.14,1.62a3.25,3.25,0,0,0-.22.61l-.22.46a2.73,2.73,0,0,0-.45.88,2.23,2.23,0,0,1-.35.69,7.76,7.76,0,0,0-.31.73.08.08,0,0,0,.09.09c.06,0,.21-.16.44-.47a3,3,0,0,1,.57-.62,1.15,1.15,0,0,0,.38-.43l.16-.11.26-.18.16,0a.4.4,0,0,0,.15-.22.49.49,0,0,1,.1-.19.55.55,0,0,0,.5-.29c.07-.17.15-.25.24-.25s.19-.09.33-.29A1.4,1.4,0,0,1,353,437a3.65,3.65,0,0,0,.54-.32,3.14,3.14,0,0,1,.72-.33,2.88,2.88,0,0,1,.73-.2h.09l.13,0,.23,0a2.29,2.29,0,0,1,1.09.31.87.87,0,0,1,.46.94l-.12,1-.17.75a8.15,8.15,0,0,1-.25.83,3.93,3.93,0,0,0-.22.73l-.06.29.06.4,0,.33c0,.1.05.15.16.15s.15-.09.34-.28c.11,0,.22,0,.32-.18a2.16,2.16,0,0,1,.42-.45s.06-.08.2-.12a1.6,1.6,0,0,0,.55-.36,3.61,3.61,0,0,1,.61-.6,5.22,5.22,0,0,1,1-.7l.09-.13a.77.77,0,0,1,.48-.26c.15,0,.22.08.22.23a.84.84,0,0,1-.08.33,1.48,1.48,0,0,0-.11.44,2.31,2.31,0,0,1-.31.78l-.06.16a.49.49,0,0,1-.26.31.75.75,0,0,0-.33.25,1.81,1.81,0,0,1-.74.4c-.16.31-.29.46-.39.46l-.27-.12a.7.7,0,0,0-.33.54,3.88,3.88,0,0,0-.48.45l-.31,0c-.08,0-.12.11-.12.34a1.24,1.24,0,0,1-.32.21,3.48,3.48,0,0,0-.49.32,1.27,1.27,0,0,1-.73.14s-.1,0-.18-.11a1,1,0,0,0-.36-.19.51.51,0,0,1-.34-.36,1.93,1.93,0,0,0-.2-.45.58.58,0,0,1-.11-.26l0-.31-.07-.32.14-.22a.8.8,0,0,1-.1-.29l.16-.95a8.26,8.26,0,0,1,.28-1.33s0-.08,0-.19l0-.39,0-.21c0-.16-.05-.24-.16-.25s-.16,0-.18-.08L354,438c-.08,0-.15.06-.21.19a1.48,1.48,0,0,1-.25.35l-.39-.06v0q0,.12-.42.48a1.33,1.33,0,0,0-.67.4.92.92,0,0,0-.42.24,1.88,1.88,0,0,1-.4.27l-.12.25-.25.08a.62.62,0,0,1-.51.4l-.16.3a.52.52,0,0,0-.45.33q-.12.3-.18.3a.19.19,0,0,1-.1,0,.35.35,0,0,0-.14,0c-.22,0-.35.17-.37.51a4.92,4.92,0,0,1-.63.73c-.43.44-.66.67-.69.68s-.09.11-.18.32a1,1,0,0,1-.36.45,2.05,2.05,0,0,0-.35.24.36.36,0,0,1-.18.09c-.21,0-.39-.16-.53-.47s-.2-.47-.2-.48l.1-.32,0-.28.2-.63a3.32,3.32,0,0,1,.44-1,2.76,2.76,0,0,0,.39-1.14,3.14,3.14,0,0,1-.84.47c-.21,0-.31-.14-.31-.41A2.05,2.05,0,0,1,346.26,438.93Z" transform="translate(0 -53.18)"/><path class="a94836a1-21c3-4ca7-b18c-3f5001e5242a" d="M371.56,440.57l.25-.21a.25.25,0,0,0,.28-.21.52.52,0,0,1,.33-.34,1.24,1.24,0,0,0,.53-.5c.17-.25.34-.38.51-.38s.14.05.22.15a.49.49,0,0,1,.12.25,2.13,2.13,0,0,1-.31,1.06l-.06.43-.11.2a.67.67,0,0,0-.3.27,1.18,1.18,0,0,1-.36.34l-.16.21a.7.7,0,0,0-.45.36.45.45,0,0,1-.33.28.83.83,0,0,0-.46.31,1.92,1.92,0,0,1-.37.14l0,.15a1,1,0,0,1-.49.25,2.15,2.15,0,0,0-.49.18.63.63,0,0,1-.23.09,1.22,1.22,0,0,1-.54-.12,1.65,1.65,0,0,0-.51-.15.37.37,0,0,1-.11-.2.65.65,0,0,0-.16-.29.79.79,0,0,1-.13-.49l.06-.29a.33.33,0,0,0-.08-.16.28.28,0,0,1-.08-.15.12.12,0,0,1,0-.09.13.13,0,0,0,0-.1.61.61,0,0,0,0-.17.49.49,0,0,1,0-.15l.1-.76c0-.06,0-.09-.07-.09s-.11.05-.22.15a.57.57,0,0,1-.38.16.7.7,0,0,0-.2.38,1.38,1.38,0,0,1-.31.28l-.06.1a.33.33,0,0,1-.24.17.68.68,0,0,0-.28.18l-.15.16-.3,0s-.07.11-.17.27a1.2,1.2,0,0,1-.35.39l-1.18,1a4.42,4.42,0,0,1-.54.31l-.1.1a4.13,4.13,0,0,1-1.75.82,2.65,2.65,0,0,1-1-.23c-.38-.16-.58-.35-.61-.56l-.15-.64a1,1,0,0,1-.14-.6.65.65,0,0,1,0-.25v-.09l0-.52c0-.12.09-.18.29-.18l0-.42a2.36,2.36,0,0,1,.27-.49,2.25,2.25,0,0,1,.37-.49l.15-.2a.5.5,0,0,1,.22-.39,2.07,2.07,0,0,0,.37-.43,2,2,0,0,1,.53-.48l.46-.46a4.55,4.55,0,0,1,1.18-.87,1.74,1.74,0,0,0,.38-.31,1.67,1.67,0,0,1,.65-.41,3.94,3.94,0,0,0,.72-.34,1.23,1.23,0,0,1,.55-.2h.12a7.11,7.11,0,0,0,.83-.38h.09a.93.93,0,0,1,.29.12h0l.25-.12a.27.27,0,0,1,.16,0c.64,0,1,.45,1,1.34,0,.18.08.28.16.28s.25-.19.44-.57a1.23,1.23,0,0,1,1.22-.57c.44,0,.66.29.66.86a2.7,2.7,0,0,1-.89,1.9.94.94,0,0,0-.1.28l-.21.64v0a.46.46,0,0,1-.14.25.56.56,0,0,0-.13.29l0,.39-.06.43a.52.52,0,0,0,.11.39,1.26,1.26,0,0,0,.72-.41c.15-.19.25-.3.31-.32l.16-.06A1.76,1.76,0,0,1,371.56,440.57Zm-5.14,0a.71.71,0,0,1,.38-.52.83.83,0,0,0,.38-.36,9.18,9.18,0,0,0,.84-.78c.37-.37.55-.6.55-.68s0,0-.06,0h0l-.13.07-.27,0-.3,0-.22-.11-.2,0-.31-.07a.9.9,0,0,0-.42.1,2.81,2.81,0,0,1-.69.23,2.34,2.34,0,0,0-.9.43,1.26,1.26,0,0,1-.59.3,2.45,2.45,0,0,1-.73.66.73.73,0,0,0-.48.55c-.27.21-.4.34-.4.37l-.11.26a1.33,1.33,0,0,1-.31.18.36.36,0,0,0-.22.33.84.84,0,0,1-.21.46.6.6,0,0,0-.18.33c0,.51.1.76.3.76a1.84,1.84,0,0,0,.52-.16,2.2,2.2,0,0,0,.45-.22.64.64,0,0,1,.25-.13l.3-.15a.25.25,0,0,1,.14-.08.33.33,0,0,0,.15-.1,1,1,0,0,1,.28-.19.74.74,0,0,0,.31-.27l.85-.48.33-.25a1.21,1.21,0,0,0,.42-.26A.75.75,0,0,1,366.42,440.57Z" transform="translate(0 -53.18)"/><path class="a94836a1-21c3-4ca7-b18c-3f5001e5242a" d="M375.85,437.18l.22-.39a1.93,1.93,0,0,1,.24-.29,1.85,1.85,0,0,0,.32-.76,2.13,2.13,0,0,1,.38-.84.76.76,0,0,1,.61-.23,1.32,1.32,0,0,1,.62.22,2.55,2.55,0,0,1,.74,1.36,6.33,6.33,0,0,1,.37,1.59,1.42,1.42,0,0,0,.1.48,2.32,2.32,0,0,1,.14.44,1.66,1.66,0,0,0-.12.29l0,.64-.19.51v.37a1.31,1.31,0,0,0-.18.39.38.38,0,0,0,.06.19,2.55,2.55,0,0,0,.88-.51.75.75,0,0,1,.3-.24,1.55,1.55,0,0,0,.49-.4l.3-.16c.1-.12.19-.23.26-.33a.61.61,0,0,1,.25-.21,1.31,1.31,0,0,0,.35-.22,4.36,4.36,0,0,1,.59-.35l.16-.19a1.87,1.87,0,0,1,.54-.42l.35-.15c.08,0,.15.09.23.28a1.74,1.74,0,0,1,.11.57.7.7,0,0,1-.3.52,4.46,4.46,0,0,0-.41.38,1.12,1.12,0,0,1-.49.22,5.72,5.72,0,0,0-.52.63l-.31.19-.15.2s-.16.08-.42.12a.65.65,0,0,0-.07.16c0,.1-.15.17-.33.22a4.15,4.15,0,0,0-.57.57l-.33.06a1.08,1.08,0,0,1-.15.36c-.25.06-.39.16-.42.31a.53.53,0,0,1-.16.06l-.06.05a1.68,1.68,0,0,1-.7.34l-.35.09-.13.19c0,.05-.12.11-.37.2a1.27,1.27,0,0,0-.57.31l-.26.2a1.57,1.57,0,0,0-.61.34h-.21a1.44,1.44,0,0,0-.68.32,1.53,1.53,0,0,1-.75.32,2.34,2.34,0,0,1-1.23-.23,2,2,0,0,1-.55-.56,4.9,4.9,0,0,0-.39-.53.57.57,0,0,1-.18-.33q0-.11.15-.21a1.41,1.41,0,0,0,.31-.45,1.09,1.09,0,0,1,.87-.42.76.76,0,0,0,.22-.1.82.82,0,0,1,.32-.09c.1,0,.23.09.39.28t.06,0l.25,0a.54.54,0,0,0,.23.12,1.21,1.21,0,0,0,.79-.37l.06,0h.13s.08-.09.15-.26l.26-.54.55-.7v-.16a1.45,1.45,0,0,1,.09-.28v-.23c0-.09.06-.15.19-.18a.19.19,0,0,0,.18-.19l0-.12a.58.58,0,0,1-.12-.27l.15-.31,0-.32.06-.13a1.48,1.48,0,0,1-.06-.25l.06-.38-.08-.3c-.06-.18-.1-.28-.14-.28s-.25.16-.59.48a2.8,2.8,0,0,0-.58.69,1,1,0,0,1-.4.36,1,1,0,0,0-.41.36.39.39,0,0,1-.27.24l-1,.83-1.13.84c-.08.09-.13.14-.15.14-.39,0-.58-.21-.58-.63a2.32,2.32,0,0,1,.23-.73l.17-.1.05,0s0,0,0,0l.09.06h0a7.49,7.49,0,0,1,.74-.45.62.62,0,0,0,.31-.34l.65-.46a9.36,9.36,0,0,0,.76-.68A4.51,4.51,0,0,0,375.85,437.18Z" transform="translate(0 -53.18)"/><path class="a94836a1-21c3-4ca7-b18c-3f5001e5242a" d="M381.82,439.21l.25-.22h.09c.07,0,.18-.08.33-.23l.15-.06a1.45,1.45,0,0,1,.54-.55l.25-.18a.5.5,0,0,1,.18-.11,1.37,1.37,0,0,0,.37-.3.72.72,0,0,1,.41-.26.81.81,0,0,1,.25,0A1.06,1.06,0,0,1,385,437a1.43,1.43,0,0,0,.45-.43l.21-.09a1.71,1.71,0,0,0,.44-.32.68.68,0,0,1,.5-.19,1.44,1.44,0,0,1,.94.45,1.26,1.26,0,0,1,.49.88l-.26,1.21c-.18.89-.38,1.35-.59,1.39l-.07.33c-.14.1-.21.19-.21.25l.09.37c0,.05-.06.13-.17.23s0,0,0,.1v.63a.32.32,0,0,1-.22.28l.09.06a.68.68,0,0,1,.42-.09l.25,0,.34-.34a1.36,1.36,0,0,0,.3-.15,4.45,4.45,0,0,1,.66-.3l2-1.55q.42-.42.63-.42t.24.3a1.08,1.08,0,0,1-.14.56,4.76,4.76,0,0,0-.24.54,1,1,0,0,1-.25.45,1,1,0,0,0-.24.27,1.76,1.76,0,0,1-.51.42,5.24,5.24,0,0,0-.69.57,2.92,2.92,0,0,1-.48.41l-.66.48-.09.16-.29.13a1.86,1.86,0,0,0-.46.25l-.28.16a.79.79,0,0,1-.3.08.56.56,0,0,0-.36.17c-.11.11-.19.17-.25.17l-.23,0-.31.09a1.14,1.14,0,0,1-.65-.32.9.9,0,0,1-.38-.67v-.1l0-.21a1.47,1.47,0,0,0-.09-.32,2,2,0,0,1-.09-.29l0-.22,0-.09a1.42,1.42,0,0,1,.06-.53.89.89,0,0,0,.09-.3c0-.13,0-.23.06-.32l.08-.38a.45.45,0,0,1,.16-.25l.12-.42.06-.28.16-.22a.56.56,0,0,0,.15-.33,1,1,0,0,1,.16-.44,1.07,1.07,0,0,0,.14-.28.17.17,0,0,0-.19-.19,1.63,1.63,0,0,0-.39.25l-.27-.09s-.08,0-.18.16,0,.07-.14.09a.46.46,0,0,0-.26.23l-.12,0-.2-.09H384c-.1,0-.16.11-.18.34a.84.84,0,0,1-.45.32l-.34.1a.4.4,0,0,0-.25.28.92.92,0,0,1-.31.39.8.8,0,0,1-.31.18c-.29,0-.44-.16-.44-.48l.13-.73Zm6.69-7.75-.09-.61v-.09c0-.48.17-.75.5-.81a4.63,4.63,0,0,0,.65-.2,1.13,1.13,0,0,1,.58.49,1.4,1.4,0,0,1,.3.75.33.33,0,0,1-.05.14,1.48,1.48,0,0,0-.06.41.7.7,0,0,1-.3.53,1,1,0,0,1-.61.23.94.94,0,0,1-.55-.31A1,1,0,0,1,388.51,431.46Z" transform="translate(0 -53.18)"/><path class="a94836a1-21c3-4ca7-b18c-3f5001e5242a" d="M393.91,437.18l.22-.39a1.93,1.93,0,0,1,.24-.29,2,2,0,0,0,.32-.76,2.13,2.13,0,0,1,.38-.84.76.76,0,0,1,.61-.23,1.26,1.26,0,0,1,.61.22,2.54,2.54,0,0,1,.75,1.36,6.18,6.18,0,0,1,.36,1.59,1.47,1.47,0,0,0,.11.48,3.4,3.4,0,0,1,.14.44,1.66,1.66,0,0,0-.12.29l0,.64-.19.51v.37a1.31,1.31,0,0,0-.18.39.38.38,0,0,0,.06.19,2.66,2.66,0,0,0,.88-.51.64.64,0,0,1,.3-.24,1.55,1.55,0,0,0,.49-.4l.29-.16c.11-.12.19-.23.27-.33a.56.56,0,0,1,.25-.21,1.31,1.31,0,0,0,.35-.22,3.8,3.8,0,0,1,.59-.35l.15-.19a2.06,2.06,0,0,1,.55-.42,2.33,2.33,0,0,1,.35-.15c.07,0,.15.09.23.28a1.74,1.74,0,0,1,.11.57.7.7,0,0,1-.3.52,4.46,4.46,0,0,0-.41.38,1.12,1.12,0,0,1-.5.22s-.19.22-.51.63l-.31.19-.15.2s-.16.08-.42.12a.65.65,0,0,0-.07.16c0,.1-.15.17-.33.22a4.69,4.69,0,0,0-.58.57l-.32.06a1,1,0,0,1-.16.36c-.24.06-.38.16-.41.31l-.16.06-.06.05a1.68,1.68,0,0,1-.7.34l-.35.09-.13.19c0,.05-.12.11-.38.2a1.29,1.29,0,0,0-.56.31l-.27.2a1.5,1.5,0,0,0-.6.34h-.22a1.53,1.53,0,0,0-.68.32,1.51,1.51,0,0,1-.74.32,2.34,2.34,0,0,1-1.23-.23,1.84,1.84,0,0,1-.55-.56,4.81,4.81,0,0,0-.4-.53.61.61,0,0,1-.17-.33.26.26,0,0,1,.14-.21,1.27,1.27,0,0,0,.32-.45q.16-.33.87-.42a.9.9,0,0,0,.22-.1.82.82,0,0,1,.32-.09c.1,0,.23.09.39.28t.06,0l.25,0a.54.54,0,0,0,.23.12,1.21,1.21,0,0,0,.79-.37l.06,0h.12s.09-.09.16-.26l.26-.54.54-.7v-.16a1.15,1.15,0,0,1,.1-.28v-.23q0-.13.18-.18c.13,0,.19-.09.19-.19l0-.12a.53.53,0,0,1-.13-.27l.16-.31,0-.32.06-.13a1.48,1.48,0,0,1-.06-.25l.06-.38-.09-.3c0-.18-.1-.28-.13-.28s-.26.16-.59.48a2.93,2.93,0,0,0-.59.69.86.86,0,0,1-.39.36,1,1,0,0,0-.41.36.43.43,0,0,1-.27.24l-1,.83-1.13.84c-.08.09-.13.14-.16.14q-.57,0-.57-.63a2.32,2.32,0,0,1,.23-.73l.17-.1.05,0s0,0,0,0l.09.06h0a7.19,7.19,0,0,1,.75-.45.62.62,0,0,0,.31-.34l.65-.46a9.36,9.36,0,0,0,.76-.68A4.51,4.51,0,0,0,393.91,437.18Z" transform="translate(0 -53.18)"/><path class="a94836a1-21c3-4ca7-b18c-3f5001e5242a" d="M402.05,437.69l.27-.06.26-.31a1.12,1.12,0,0,1,.41-.3.85.85,0,0,0,.42-.48,2.7,2.7,0,0,1,1.12-.76c.43.19.69.39.77.61a4.06,4.06,0,0,1,.11,1.1,1.19,1.19,0,0,1-.15.5,3.47,3.47,0,0,0-.22.47,3,3,0,0,1-.29.53s0,.06-.08.11a1.14,1.14,0,0,0-.19.32,1.54,1.54,0,0,1-.28.42,1.52,1.52,0,0,0-.28.43,6.24,6.24,0,0,1-.41.78,6.71,6.71,0,0,0-.35,1.07c0,.12,0,.17.1.17a.61.61,0,0,0,.22-.09l.13-.05h.19L404,442a1.62,1.62,0,0,0,.06-.22,2.75,2.75,0,0,1,.42-.18l0,0a.43.43,0,0,1,0-.17c0-.1.1-.17.3-.2a.79.79,0,0,0,.45-.2c0-.13,0-.21.08-.23s.11-.09.18-.22a.46.46,0,0,1,.33-.22c.16,0,.23-.08.23-.18a.9.9,0,0,1,.58-.81.14.14,0,0,0,.12-.15.64.64,0,0,1,.05-.34l.27-.17.31-.41.14-.32a.54.54,0,0,1,.16-.2,1.38,1.38,0,0,0,.23-.35,1.61,1.61,0,0,1,.23-.37l.17-.26a.64.64,0,0,1,.54-.4q.18,0,.75.48a1.79,1.79,0,0,1,.58,1.45c0,.25-.06.4-.19.45s-.22.23-.28.53a3.16,3.16,0,0,1-.31.83,2.9,2.9,0,0,0-.21.41l.07.19v.06a.85.85,0,0,1-.19.57.71.71,0,0,1,.09.27l-.15.24c0,.41.11.61.21.61a.69.69,0,0,0,.25-.06.74.74,0,0,1,.28-.08,1.28,1.28,0,0,0,.47-.22l1-.63.19-.22.14-.09a.72.72,0,0,0,.34-.35.38.38,0,0,1,.3-.26,1.22,1.22,0,0,1,.37-.67L413,439a2.18,2.18,0,0,1,.22-.38,4.2,4.2,0,0,0-.41-1.49v-.1a1,1,0,0,1,.21-.6c.13-.2.26-.3.38-.3l.33,0,.42-.1a2.16,2.16,0,0,1,.67.46,1.4,1.4,0,0,1,.55,1.14,1.73,1.73,0,0,1-.15.75,1.89,1.89,0,0,0-.2.61.63.63,0,0,1-.31.44l-.06.07a1.4,1.4,0,0,1-.61,1.11c-.1.15-.21.34-.33.56s-.21.36-.31.4a1.32,1.32,0,0,0-.24.34,1.18,1.18,0,0,1-.32.42,2.08,2.08,0,0,1-.42.2c-.21.09-.32.2-.32.34l0,.22a4.06,4.06,0,0,0-.7.57l-.31.06a2.43,2.43,0,0,1-1.77.64,1.84,1.84,0,0,1-1.17-.54,1.48,1.48,0,0,1-.62-1.09l-.14-.5a11,11,0,0,1,.09-1.72.16.16,0,0,0,.05-.12c0-.13,0-.19-.11-.19a1.08,1.08,0,0,0-.16.26.51.51,0,0,1-.21.24l-.23.2c-.05.25-.11.39-.16.42a1.19,1.19,0,0,0-.27.24,3.54,3.54,0,0,1-.42.35,4.06,4.06,0,0,1-.63.93V443l-.16.09-.25.25a7,7,0,0,1-1.18.82,4.94,4.94,0,0,1-1.1.58,1,1,0,0,1-.72-.3,1,1,0,0,1-.35-.63,3.34,3.34,0,0,0-.14-.62,1.58,1.58,0,0,1-.09-.42,1.84,1.84,0,0,1,.06-.31c0-.17.06-.32.08-.46a.45.45,0,0,1,0-.24v-.29a1,1,0,0,1,.18-.25.72.72,0,0,0,.18-.45.61.61,0,0,1,.14-.3,2.07,2.07,0,0,0,.19-.34,1.19,1.19,0,0,1,.24-.34,3.4,3.4,0,0,1,.14-.44,1.83,1.83,0,0,0,.11-.35.09.09,0,0,0,0-.06c-.15,0-.36.13-.64.4l-.28.16a5.51,5.51,0,0,0-.69.51c-.15.19-.29.29-.42.29q-.72,0-.72-.66a.53.53,0,0,1,.17-.45.49.49,0,0,0,.21-.24c0-.08.15-.14.38-.19s.48-.29.75-.72c.24,0,.38,0,.42-.11A1.12,1.12,0,0,1,402.05,437.69Z" transform="translate(0 -53.18)"/><path class="a94836a1-21c3-4ca7-b18c-3f5001e5242a" d="M428.68,440.57l.25-.21a.26.26,0,0,0,.28-.21.52.52,0,0,1,.33-.34,1.24,1.24,0,0,0,.53-.5c.17-.25.34-.38.51-.38s.13.05.22.15a.49.49,0,0,1,.12.25,2.13,2.13,0,0,1-.31,1.06l-.06.43-.11.2a.62.62,0,0,0-.3.27,1.25,1.25,0,0,1-.37.34l-.15.21a.72.72,0,0,0-.46.36.44.44,0,0,1-.32.28.8.8,0,0,0-.46.31,2.21,2.21,0,0,1-.37.14l0,.15a1.07,1.07,0,0,1-.49.25,2.48,2.48,0,0,0-.5.18.61.61,0,0,1-.22.09,1.19,1.19,0,0,1-.54-.12,1.63,1.63,0,0,0-.52-.15.35.35,0,0,1-.1-.2.78.78,0,0,0-.16-.29.79.79,0,0,1-.14-.49l.06-.29a.3.3,0,0,0-.07-.16.22.22,0,0,1-.08-.15.12.12,0,0,1,0-.09.13.13,0,0,0,0-.1.61.61,0,0,0,0-.17.49.49,0,0,1,0-.15l.09-.76q0-.09-.06-.09a.51.51,0,0,0-.23.15.52.52,0,0,1-.37.16.64.64,0,0,0-.21.38,1.05,1.05,0,0,1-.31.28l-.06.1c0,.07-.1.13-.23.17a.56.56,0,0,0-.28.18l-.16.16-.29,0a1.92,1.92,0,0,0-.17.27,1.12,1.12,0,0,1-.36.39l-1.17,1a4.69,4.69,0,0,1-.55.31l-.09.1a4.19,4.19,0,0,1-1.75.82,2.69,2.69,0,0,1-1-.23c-.37-.16-.57-.35-.6-.56l-.16-.64a1.11,1.11,0,0,1-.14-.6.65.65,0,0,1,0-.25v-.09l0-.52q0-.18.3-.18l0-.42a2.36,2.36,0,0,1,.27-.49,2.82,2.82,0,0,1,.36-.49l.16-.2a.51.51,0,0,1,.21-.39,2.13,2.13,0,0,0,.38-.43,1.91,1.91,0,0,1,.52-.48l.47-.46a4.24,4.24,0,0,1,1.18-.87,1.74,1.74,0,0,0,.38-.31,1.67,1.67,0,0,1,.65-.41,4.19,4.19,0,0,0,.71-.34,1.3,1.3,0,0,1,.56-.2h.12a7.52,7.52,0,0,0,.82-.38h.1a1,1,0,0,1,.29.12h0l.25-.12a.24.24,0,0,1,.15,0c.65,0,1,.45,1.06,1.34,0,.18.07.28.16.28s.25-.19.44-.57a1.21,1.21,0,0,1,1.21-.57c.45,0,.67.29.67.86a2.67,2.67,0,0,1-.9,1.9,1.31,1.31,0,0,0-.09.28l-.22.64v0a.43.43,0,0,1-.13.25.48.48,0,0,0-.13.29l0,.39-.06.43c0,.2,0,.33.11.39a1.23,1.23,0,0,0,.71-.41,1.11,1.11,0,0,1,.32-.32l.15-.06A2.12,2.12,0,0,1,428.68,440.57Zm-5.15,0a.77.77,0,0,1,.38-.52.78.78,0,0,0,.38-.36,7.88,7.88,0,0,0,.85-.78c.36-.37.55-.6.55-.68s0,0-.06,0h0l-.13.07-.28,0-.29,0-.22-.11-.2,0-.31-.07a.94.94,0,0,0-.43.1,2.69,2.69,0,0,1-.68.23,2.32,2.32,0,0,0-.91.43,1.22,1.22,0,0,1-.59.3,2.36,2.36,0,0,1-.72.66.73.73,0,0,0-.48.55,1.76,1.76,0,0,0-.41.37l-.11.26a1,1,0,0,1-.31.18.37.37,0,0,0-.21.33.84.84,0,0,1-.21.46.6.6,0,0,0-.18.33c0,.51.1.76.29.76a1.67,1.67,0,0,0,.52-.16,2.12,2.12,0,0,0,.46-.22.51.51,0,0,1,.25-.13l.29-.15a.29.29,0,0,1,.14-.08.35.35,0,0,0,.16-.1.88.88,0,0,1,.28-.19.81.81,0,0,0,.31-.27l.85-.48.32-.25a1.11,1.11,0,0,0,.42-.26A.82.82,0,0,1,423.53,440.57Z" transform="translate(0 -53.18)"/><path class="a94836a1-21c3-4ca7-b18c-3f5001e5242a" d="M445.27,426.86l.26-.22.31,0a.73.73,0,0,0,.45-.14.88.88,0,0,1,.3-.16.59.59,0,0,0,.28-.15,1,1,0,0,1,.48-.19.94.94,0,0,0,.45-.2.65.65,0,0,1,.31-.18,2.12,2.12,0,0,0,.41-.13l1.41-.43.17.06h.07a.56.56,0,0,0,.36-.15.64.64,0,0,1,.43-.14,2.28,2.28,0,0,0,.6-.19l.09.09c.17-.18.31-.28.42-.28h.1l.27.07a2,2,0,0,1,.64-.13l.36,0,.09,0a.55.55,0,0,1,.34-.17H454l.64-.15.18.06a.87.87,0,0,1,.58-.16h.15l.16,0,.28-.09a5.07,5.07,0,0,1,1.25-.09l.4.06.42-.16.44.1.17-.06h.06l.15.06h0l1.12-.16.12,0a.38.38,0,0,1,.19-.1l.29.07a1,1,0,0,0,.44-.17l.09.1,1.05-.13.39,0,.34-.06a1,1,0,0,1,.77.27.83.83,0,0,1,.26.55l.06.48L464,425l0,.31a.42.42,0,0,1-.23.24s0,.05-.14.07a1,1,0,0,0-.28.14,2.43,2.43,0,0,1-.91.09.5.5,0,0,1-.5-.24c-.07-.16-.15-.25-.23-.27l-.66-.28a.38.38,0,0,0-.19,0h-.12l-.64.06-.17,0-.22.09-1.14-.06-.47,0-.32-.06a.85.85,0,0,0-.22,0,2.79,2.79,0,0,1-.65.08c-.33,0-.5.13-.5.31a.66.66,0,0,0,.14.37.78.78,0,0,1,.13.33,1.17,1.17,0,0,0-.24.42l-.21.2a7.5,7.5,0,0,1-.58.49,2.23,2.23,0,0,0-.57.61.44.44,0,0,1-.37.28,1.91,1.91,0,0,0-.39.48l-.12.12a.22.22,0,0,0,0,.14.26.26,0,0,1-.09.19l-.14.37a3.52,3.52,0,0,0-.64.81l-.19.09-.18.22h-.22c-.09,0-.14.06-.14.18l.06.45a1.61,1.61,0,0,0-.37.55l-.18.3a2.34,2.34,0,0,0-.33.36,3.19,3.19,0,0,1-.31.67l0,.15a4.88,4.88,0,0,1-1.08,1.52,2.16,2.16,0,0,0-.19.9c-.31.61-.52.91-.63.88a3,3,0,0,1-.2,1c-.11.24-.25.61-.42,1.09a3.32,3.32,0,0,1-.53,1l-.06.12a1.32,1.32,0,0,1-.16.25,7.81,7.81,0,0,1-.29,1.33l-.1.67-.31.87a.39.39,0,0,0,0,.18.52.52,0,0,0,.1.24.66.66,0,0,1,.1.34.72.72,0,0,1-.08.35.67.67,0,0,0-.08.35.62.62,0,0,1-.51.63h-.12l-.33,0a1.5,1.5,0,0,1-1.17-.62,2.49,2.49,0,0,1-.53-1.7,4.62,4.62,0,0,1,.09-.48c.06-.27.1-.45.11-.53a1,1,0,0,1,.08-.26.91.91,0,0,0,.06-.38,2.29,2.29,0,0,1,.38-1.31,8.41,8.41,0,0,0,.5-.81.2.2,0,0,1,.11-.14.9.9,0,0,1,.34-1,1.46,1.46,0,0,1,.11-.28l.33-.79a1.07,1.07,0,0,1,.65-.74s0-.1.18-.25l-.06-.54c0-.08.09-.22.28-.42l.26-.43a.8.8,0,0,1,.41-.48.36.36,0,0,1,.2-.19s.05-.17.13-.39a3.12,3.12,0,0,1,.5-.81q.38-.49.72-1c.24-.35.45-.53.64-.54a.32.32,0,0,0,.32-.33l.09-.57a3.18,3.18,0,0,0,.54-.54l.22-.25a.6.6,0,0,1,.16-.29,1,1,0,0,0,.26-.28,1.45,1.45,0,0,1,.39-.39,2.1,2.1,0,0,1,.91-1.1l.25-.26a2.52,2.52,0,0,1,.43-.51.77.77,0,0,0,.26-.35.61.61,0,0,1,.33-.32c.17-.07.25-.16.25-.25s0-.06-.12-.06a1.58,1.58,0,0,0-.42.09h-.13l-.28.06h-.09l-.26-.06a1.55,1.55,0,0,1-.44.09.73.73,0,0,1-.2.14h-.34l-.18.19-.14,0-.41-.06a.87.87,0,0,0-.45.18s-.17.06-.5.11a3.75,3.75,0,0,0-.95.29,2.11,2.11,0,0,1-.55.21l-.28-.06h0a.47.47,0,0,0-.37.2.77.77,0,0,1-.49.25h-.19a1.65,1.65,0,0,0-.63.18,2.92,2.92,0,0,1-.42.19l-.28,0a1.7,1.7,0,0,1-.32.17.76.76,0,0,0-.26.15.89.89,0,0,1-.25.14,1.1,1.1,0,0,0-.28.17.47.47,0,0,1-.26.13h-.06l-.19,0c-.07,0-.16.06-.28.19a.72.72,0,0,1-.32.24.81.81,0,0,0-.27.15.61.61,0,0,1-.28.11,2.14,2.14,0,0,0-.21.34,1.84,1.84,0,0,1-.36.46,1.85,1.85,0,0,0-.29.3c-.05.08-.09.11-.13.11-.51,0-.76-.31-.76-.94l.31-.67a1.47,1.47,0,0,1,1-1,3.13,3.13,0,0,0,.88-.34Z" transform="translate(0 -53.18)"/><path class="a94836a1-21c3-4ca7-b18c-3f5001e5242a" d="M454,439.21l.25-.22h.1c.07,0,.18-.08.32-.23l.16-.06a1.33,1.33,0,0,1,.54-.55l.25-.18a.5.5,0,0,1,.18-.11,1.55,1.55,0,0,0,.37-.3.72.72,0,0,1,.41-.26.85.85,0,0,1,.25,0,1,1,0,0,1,.37-.36,1.43,1.43,0,0,0,.45-.43l.2-.09a1.6,1.6,0,0,0,.45-.32.65.65,0,0,1,.5-.19,1.44,1.44,0,0,1,.94.45,1.3,1.3,0,0,1,.49.88l-.27,1.21c-.17.89-.37,1.35-.59,1.39l-.06.33c-.14.1-.22.19-.22.25l.1.37c0,.05-.06.13-.17.23s0,0,0,.1v.63a.34.34,0,0,1-.22.28l.09.06a.64.64,0,0,1,.42-.09l.25,0,.34-.34a1.36,1.36,0,0,0,.3-.15,4.45,4.45,0,0,1,.66-.3l2-1.55c.27-.28.49-.42.63-.42s.23.1.23.3a1.08,1.08,0,0,1-.13.56,2.73,2.73,0,0,0-.24.54,1,1,0,0,1-.26.45,1.18,1.18,0,0,0-.23.27,1.92,1.92,0,0,1-.51.42,5.37,5.37,0,0,0-.7.57,2.93,2.93,0,0,1-.47.41l-.66.48-.1.16a1.53,1.53,0,0,1-.28.13,1.56,1.56,0,0,0-.46.25l-.28.16a.79.79,0,0,1-.3.08.6.6,0,0,0-.37.17c-.1.11-.18.17-.25.17l-.23,0-.31.09a1.12,1.12,0,0,1-.64-.32.9.9,0,0,1-.38-.67v-.1l0-.21a1.47,1.47,0,0,0-.09-.32,2,2,0,0,1-.09-.29l0-.22,0-.09a1.42,1.42,0,0,1,.06-.53.89.89,0,0,0,.09-.3c0-.13,0-.23.06-.32l.08-.38a.45.45,0,0,1,.15-.25c0-.08.07-.22.13-.42l.06-.28.16-.22a.5.5,0,0,0,.14-.33,1.18,1.18,0,0,1,.16-.44.8.8,0,0,0,.14-.28.17.17,0,0,0-.18-.19,1.63,1.63,0,0,0-.39.25l-.28-.09s-.08,0-.17.16,0,.07-.14.09a.46.46,0,0,0-.26.23l-.13,0-.2-.09h-.06c-.1,0-.16.11-.19.34a.78.78,0,0,1-.44.32l-.35.1a.41.41,0,0,0-.24.28,1,1,0,0,1-.31.39.8.8,0,0,1-.31.18c-.29,0-.44-.16-.44-.48l.13-.73Zm6.7-7.75-.09-.61v-.09c0-.48.16-.75.49-.81a4.24,4.24,0,0,0,.65-.2,1.14,1.14,0,0,1,.59.49,1.4,1.4,0,0,1,.3.75.59.59,0,0,1-.05.14,1.48,1.48,0,0,0-.06.41.7.7,0,0,1-.3.53,1,1,0,0,1-.62.23A1,1,0,0,1,461,432,1,1,0,0,1,460.68,431.46Z" transform="translate(0 -53.18)"/><path class="a94836a1-21c3-4ca7-b18c-3f5001e5242a" d="M470,437.53l.44-.2a1.72,1.72,0,0,0,.42-.4l.54-.39a1.8,1.8,0,0,1,.6-.31l.25.09s.09-.06.2-.19a.47.47,0,0,1,.38-.19,1.38,1.38,0,0,1,.76.42c.32.28.48.52.48.74l-.06.53a5.32,5.32,0,0,0,.12.69v.13l-.06.37.06.39-.17.76c0,.19.07.29.2.29a1.22,1.22,0,0,1,.45-.29l.22-.22q.12-.12.18-.12c.05,0,.1-.05.17-.15a.51.51,0,0,1,.25-.21.34.34,0,0,0,.22-.22,3.75,3.75,0,0,1,1.33-1.08s.11-.05.21-.16a.73.73,0,0,1,.24-.18l.34-.27.14.07h0a1.28,1.28,0,0,0,.25-.16.73.73,0,0,1,.31-.15,1.3,1.3,0,0,1,1,.39,1.12,1.12,0,0,1,.38.61l-.08.36.11.48v.31l-.08.33a.51.51,0,0,0,.14.26.62.62,0,0,1,.13.23c-.13.14-.19.22-.19.27l0,.27-.07.86a.67.67,0,0,0,.2.35,1.35,1.35,0,0,1,.26-.11.94.94,0,0,0,.26-.1l.09-.06h0l.18.07h.07c.08,0,.13-.08.14-.24a.49.49,0,0,1,.3-.4l.38,0a1.47,1.47,0,0,0,.13-.25,2.2,2.2,0,0,1,.65-.67,1.53,1.53,0,0,1,.84-.44c.16,0,.25.07.25.21a1.57,1.57,0,0,1-.07.33.75.75,0,0,1,.13.37c0,.2-.17.41-.5.64a2.23,2.23,0,0,0-.77.85l-.06.06-.31,0s-.07.08-.15.24-.17.25-.27.27a.38.38,0,0,0-.22.1l-.32.2a6.24,6.24,0,0,0-.61.63c-.35.37-.64.56-.88.56a1.81,1.81,0,0,1-.56-.16,1.48,1.48,0,0,1-.54-.33,2.38,2.38,0,0,0-.39-.39,1.06,1.06,0,0,1-.26-.82s0-.06.09-.11a.24.24,0,0,0,.08-.13,1.48,1.48,0,0,1-.35-.66.69.69,0,0,1,0-.2.82.82,0,0,0,0-.21l0-.54.06-.28,0-.17.09-.79c0-.12-.07-.19-.22-.19s-.09.05-.17.13a.66.66,0,0,1-.27.19,1,1,0,0,0-.35.44,1.28,1.28,0,0,0-.38.31c-.06.1-.12.14-.16.14l-.13,0a.36.36,0,0,0-.18.28v.06l0,.13c0,.09-.08.18-.23.26a2,2,0,0,0-.58.64.51.51,0,0,0-.21,0l-.19.37a.88.88,0,0,0-.29.33l-.19.09a2.51,2.51,0,0,1-.22.34l-.09.17c-.45.53-.76.79-.93.79s-.39-.23-.64-.7A2.48,2.48,0,0,1,472,442l.06-.58a1.13,1.13,0,0,0-.12-.24v-.07a3.42,3.42,0,0,1,.12-.35v-.47a.23.23,0,0,0,0-.09v-.08a1.35,1.35,0,0,1,.12-.25l-.09-.44.06-.25,0-.54.06-.49A.32.32,0,0,0,472,438c-.06-.08-.1-.11-.12-.11a2.14,2.14,0,0,0-.64.35,4.39,4.39,0,0,0-.72.56c-.12.13-.29.29-.5.48a1,1,0,0,0-.44.79s0,0-.07,0,0,0-.09-.06h-.06c-.05,0-.21.22-.48.67l-.06.06-.3-.06c-.24,0-.37.26-.37.79,0,.09-.06.15-.19.18a.44.44,0,0,0-.3.27,3.19,3.19,0,0,1-.3.45,1,1,0,0,0-.4.23l-.34.46a4.88,4.88,0,0,0-.38.53.49.49,0,0,1-.21.18q-.18.1-.18.18l.05.26c0,.17-.16.25-.48.25-.62,0-.93-.65-.93-1.94a.87.87,0,0,1,.19-.49,4,4,0,0,0,.38-.66,6.6,6.6,0,0,0,.7-.85,9.17,9.17,0,0,1,.6-.76l.2-.32a.43.43,0,0,1,.08-.28.38.38,0,0,0,.08-.24c0-.16,0-.24-.13-.24a.72.72,0,0,0-.46.14,1,1,0,0,1-.38.21.41.41,0,0,0-.27.22,1.16,1.16,0,0,0-.46.4l-.32.38a.78.78,0,0,0-.14.2.26.26,0,0,1-.18.15.37.37,0,0,0-.2.11.41.41,0,0,1-.3.09c-.09,0-.17-.09-.25-.28a1.5,1.5,0,0,1-.12-.35c0-.76.5-1.41,1.51-2a1.8,1.8,0,0,0,.31-.22,1.18,1.18,0,0,1,.24-.17l.07-.11a2.63,2.63,0,0,1,.93-.53h.22l1-.26c.45-.1.67.4.67,1.5l0,.28.06.13a5.36,5.36,0,0,1,.54-.45,1.75,1.75,0,0,0,.39-.35A1.58,1.58,0,0,1,470,437.53Z" transform="translate(0 -53.18)"/><path class="a94836a1-21c3-4ca7-b18c-3f5001e5242a" d="M495.38,440.57l.24-.21a.25.25,0,0,0,.28-.21.52.52,0,0,1,.33-.34,1.32,1.32,0,0,0,.54-.5c.16-.25.33-.38.51-.38s.13.05.21.15a.54.54,0,0,1,.13.25,2.24,2.24,0,0,1-.31,1.06l-.07.43-.1.2a.65.65,0,0,0-.31.27,1.07,1.07,0,0,1-.36.34l-.16.21a.7.7,0,0,0-.45.36.45.45,0,0,1-.33.28.83.83,0,0,0-.46.31,1.92,1.92,0,0,1-.37.14l0,.15a1,1,0,0,1-.49.25,2.35,2.35,0,0,0-.49.18.63.63,0,0,1-.23.09,1.25,1.25,0,0,1-.54-.12,1.5,1.5,0,0,0-.51-.15.37.37,0,0,1-.11-.2.72.72,0,0,0-.15-.29.73.73,0,0,1-.14-.49l.06-.29a.33.33,0,0,0-.08-.16.28.28,0,0,1-.08-.15.12.12,0,0,1,0-.09.11.11,0,0,0,0-.1.41.41,0,0,0,0-.17.49.49,0,0,1,0-.15l.1-.76c0-.06,0-.09-.07-.09s-.11.05-.22.15a.57.57,0,0,1-.38.16.7.7,0,0,0-.2.38,1.19,1.19,0,0,1-.31.28l-.06.1c0,.07-.1.13-.24.17a.58.58,0,0,0-.27.18l-.16.16-.29,0a1.25,1.25,0,0,0-.17.27,1.35,1.35,0,0,1-.36.39l-1.18,1a3.76,3.76,0,0,1-.54.31l-.1.1a4.13,4.13,0,0,1-1.75.82,2.65,2.65,0,0,1-1-.23c-.38-.16-.58-.35-.61-.56l-.15-.64a1,1,0,0,1-.14-.6.65.65,0,0,1,0-.25v-.09l0-.52c0-.12.1-.18.29-.18l0-.42a2.36,2.36,0,0,1,.27-.49,2.25,2.25,0,0,1,.37-.49l.15-.2a.5.5,0,0,1,.22-.39,2.07,2.07,0,0,0,.37-.43,2,2,0,0,1,.53-.48l.46-.46a4.55,4.55,0,0,1,1.18-.87,1.53,1.53,0,0,0,.38-.31,1.63,1.63,0,0,1,.66-.41,4.19,4.19,0,0,0,.71-.34,1.27,1.27,0,0,1,.55-.2h.12a6.34,6.34,0,0,0,.83-.38H491a1.05,1.05,0,0,1,.3.12h0l.24-.12a.29.29,0,0,1,.16,0c.64,0,1,.45,1,1.34,0,.18.08.28.16.28s.25-.19.44-.57a1.23,1.23,0,0,1,1.22-.57c.44,0,.67.29.67.86a2.67,2.67,0,0,1-.9,1.9,1.33,1.33,0,0,0-.1.28l-.21.64v0a.46.46,0,0,1-.14.25.56.56,0,0,0-.13.29l0,.39-.06.43a.52.52,0,0,0,.11.39,1.26,1.26,0,0,0,.72-.41c.15-.19.25-.3.32-.32l.15-.06A1.55,1.55,0,0,1,495.38,440.57Zm-5.15,0a.74.74,0,0,1,.38-.52.78.78,0,0,0,.38-.36,8,8,0,0,0,.84-.78c.37-.37.55-.6.55-.68s0,0-.06,0h0l-.12.07-.28,0-.3,0-.21-.11-.21,0-.31-.07a.93.93,0,0,0-.42.1,2.81,2.81,0,0,1-.69.23,2.34,2.34,0,0,0-.9.43,1.26,1.26,0,0,1-.59.3,2.45,2.45,0,0,1-.73.66.73.73,0,0,0-.48.55c-.27.21-.4.34-.4.37l-.11.26a1.15,1.15,0,0,1-.31.18.36.36,0,0,0-.22.33.84.84,0,0,1-.21.46.6.6,0,0,0-.18.33c0,.51.1.76.3.76a1.84,1.84,0,0,0,.52-.16,2.83,2.83,0,0,0,.46-.22.52.52,0,0,1,.24-.13l.3-.15a.29.29,0,0,1,.14-.08.33.33,0,0,0,.15-.1,1,1,0,0,1,.28-.19.69.69,0,0,0,.31-.27l.85-.48.33-.25a1.11,1.11,0,0,0,.42-.26A.75.75,0,0,1,490.23,440.57Z" transform="translate(0 -53.18)"/><path class="a94836a1-21c3-4ca7-b18c-3f5001e5242a" d="M497.63,438.93l.13-.17a.71.71,0,0,0,.51-.31,6.55,6.55,0,0,1,.78-.81c.49-.46.76-.71.81-.74a6.07,6.07,0,0,0,.6-1.35c.13-.06.19-.13.19-.22l.12-.24.14,0L501,435v-.14a4,4,0,0,1,.6-1.3c.41-.84.62-1.3.65-1.39s.1-.21.19-.38a10.28,10.28,0,0,0,.43-1,6.63,6.63,0,0,1,.89-1.52s.1-.13.18-.35a2.46,2.46,0,0,1,.39-.62l.19-.33.32-.54a4.73,4.73,0,0,1,.43-.61,1.5,1.5,0,0,0,.29-.48.89.89,0,0,1,.24-.35,1.25,1.25,0,0,0,.29-.4.48.48,0,0,1,.46-.28.91.91,0,0,1,.87.49,1.9,1.9,0,0,1,.28.87s-.07.25-.19.67l-.23,1.39c-.21.1-.31.22-.31.36a3,3,0,0,1-.64,1.7,1,1,0,0,0-.1.41.9.9,0,0,1-.27.55,1.82,1.82,0,0,0-.42.73l-1.44,2.06-.12.13a.75.75,0,0,0-.22.26l-.25-.08q-.42,0-.42.27a.69.69,0,0,0,.06.24v0s-.38.55-1.14,1.62a3.25,3.25,0,0,0-.22.61l-.22.46a2.94,2.94,0,0,0-.45.88,2.23,2.23,0,0,1-.35.69,7.76,7.76,0,0,0-.31.73.08.08,0,0,0,.09.09c.06,0,.21-.16.44-.47a3.32,3.32,0,0,1,.57-.62,1.17,1.17,0,0,0,.39-.43l.15-.11.26-.18.16,0a.4.4,0,0,0,.15-.22.67.67,0,0,1,.1-.19c.27,0,.44-.13.5-.29s.15-.25.24-.25.19-.09.33-.29a1.4,1.4,0,0,1,.57-.46,3.65,3.65,0,0,0,.54-.32,3.14,3.14,0,0,1,.72-.33,2.88,2.88,0,0,1,.73-.2h.09l.13,0,.23,0a2.26,2.26,0,0,1,1.09.31.87.87,0,0,1,.46.94l-.12,1-.17.75a8.15,8.15,0,0,1-.25.83,3.93,3.93,0,0,0-.22.73l-.06.29.06.4,0,.33c0,.1.05.15.16.15s.15-.09.34-.28c.11,0,.22,0,.32-.18a2.16,2.16,0,0,1,.42-.45s.06-.08.2-.12a1.6,1.6,0,0,0,.55-.36,3.61,3.61,0,0,1,.61-.6,5.22,5.22,0,0,1,1-.7l.1-.13a.73.73,0,0,1,.47-.26c.15,0,.22.08.22.23a.84.84,0,0,1-.08.33,1.48,1.48,0,0,0-.11.44,2.31,2.31,0,0,1-.31.78l-.06.16a.49.49,0,0,1-.26.31.75.75,0,0,0-.33.25,1.81,1.81,0,0,1-.74.4c-.16.31-.29.46-.39.46l-.27-.12a.7.7,0,0,0-.33.54,3.88,3.88,0,0,0-.48.45l-.31,0c-.08,0-.12.11-.12.34a1.24,1.24,0,0,1-.32.21,3.48,3.48,0,0,0-.49.32,1.25,1.25,0,0,1-.72.14.35.35,0,0,1-.19-.11,1,1,0,0,0-.36-.19.51.51,0,0,1-.34-.36,1.93,1.93,0,0,0-.2-.45.58.58,0,0,1-.11-.26l0-.31-.07-.32.14-.22a.8.8,0,0,1-.1-.29l.16-.95a9.6,9.6,0,0,1,.28-1.33s0-.08,0-.19l0-.39,0-.21c0-.16-.05-.24-.16-.25s-.16,0-.18-.08l-.23-.09c-.09,0-.16.06-.22.19a1.24,1.24,0,0,1-.25.35l-.39-.06v0q0,.12-.42.48a1.26,1.26,0,0,0-.66.4.89.89,0,0,0-.43.24,1.88,1.88,0,0,1-.4.27l-.12.25-.25.08a.62.62,0,0,1-.51.4l-.16.3a.52.52,0,0,0-.45.33q-.12.3-.18.3a.19.19,0,0,1-.1,0,.35.35,0,0,0-.14,0c-.22,0-.35.17-.37.51a4.92,4.92,0,0,1-.63.73c-.43.44-.66.67-.69.68s-.09.11-.18.32a.91.91,0,0,1-.36.45,2.57,2.57,0,0,0-.35.24.36.36,0,0,1-.18.09c-.21,0-.39-.16-.52-.47s-.21-.47-.21-.48l.1-.32,0-.28s.06-.22.19-.63a3.61,3.61,0,0,1,.44-1,2.76,2.76,0,0,0,.39-1.14,3.14,3.14,0,0,1-.84.47c-.2,0-.31-.14-.31-.41A2.05,2.05,0,0,1,497.63,438.93Z" transform="translate(0 -53.18)"/></svg>