<svg id="f9389333-43d9-4f21-9a93-fb07da619286" data-name="Layer 1" xmlns="http://www.w3.org/2000/svg" viewBox="0 0 512 376.54"><defs><style>.ac1190f2-a720-428e-bcd8-a56f02c61292{fill:#5c91fa;}.a52e1b5d-4122-48cf-9641-35e8c667d464,.ac1190f2-a720-428e-bcd8-a56f02c61292,.b2420545-a032-41ca-9e96-393bc4ac2996,.f9b4174f-0f0c-4021-a17c-dcc66c379c26{fill-rule:evenodd;}.b2420545-a032-41ca-9e96-393bc4ac2996{fill:#f3f5f6;}.f9b4174f-0f0c-4021-a17c-dcc66c379c26{fill:#588bf0;}.a52e1b5d-4122-48cf-9641-35e8c667d464{fill:#5687e9;}</style></defs><polygon class="ac1190f2-a720-428e-bcd8-a56f02c61292" points="256 0 0 125.52 256 251.03 512 125.52 256 0"/><path class="b2420545-a032-41ca-9e96-393bc4ac2996" d="M452.87,203.08l-30.81,15.11c-5.37,2.63-14.08,2.63-19.46,0s-5.37-6.91,0-9.54l30.82-15.11-41.16-20.18-40.54,19.88-83.36,40.87L308.9,254l25.77-12.63c5.38-2.64,14.09-2.64,19.46,0l.19.09c5.37,2.63,5.37,6.9,0,9.54l-25.77,12.64-12.36,6.05L275,289.86l-9.73,4.77c-5.38,2.64-14.09,2.64-19.46,0l-9.92-4.86-30.81-15.11c-5.38-2.63-5.38-6.91,0-9.54h0c5.37-2.63,14.08-2.63,19.45,0l30.82,15.11,41.15-20.18L256,240.17,172.64,199.3,132.1,219.18l25.77,12.64c5.37,2.63,5.37,6.9,0,9.54l-.19.09c-5.37,2.63-14.09,2.63-19.46,0l-25.77-12.64-12.36-6.06L58.94,202.58l-9.73-4.77c-5.38-2.64-5.38-6.91,0-9.54l9.92-4.87,30.81-15.11c5.37-2.63,14.08-2.63,19.46,0h0c5.37,2.64,5.37,6.91,0,9.55l-30.82,15.1,41.16,20.18,40.54-19.88,83.36-40.87L203.1,132.49l-25.77,12.64c-5.38,2.63-14.09,2.63-19.46,0l-.19-.09c-5.37-2.64-5.37-6.91,0-9.54l25.77-12.64,12.36-6.06L237,96.62l9.73-4.77c5.38-2.63,14.09-2.63,19.46,0l9.92,4.87,30.81,15.1c5.38,2.64,5.38,6.91,0,9.54s-14.08,2.64-19.45,0l-30.82-15.1-41.15,20.18L256,146.31l83.36,40.87,40.54-19.87-25.77-12.64c-5.37-2.63-5.37-6.91,0-9.54l.19-.09c5.37-2.64,14.09-2.64,19.46,0l25.77,12.63,12.36,6.06,41.15,20.18,9.73,4.77c5.38,2.63,5.38,6.9,0,9.54Z" transform="translate(0 -67.73)"/><polygon class="f9b4174f-0f0c-4021-a17c-dcc66c379c26" points="256 251.03 256 376.54 512 251.03 512 125.52 256 251.03"/><path class="b2420545-a032-41ca-9e96-393bc4ac2996" d="M463.71,290.85,313.13,364.69a10,10,0,1,1-8.84-18l150.58-73.83a10,10,0,1,1,8.84,18Z" transform="translate(0 -67.73)"/><polygon class="a52e1b5d-4122-48cf-9641-35e8c667d464" points="256 251.03 256 376.54 0 251.03 0 125.52 256 251.03"/><path class="b2420545-a032-41ca-9e96-393bc4ac2996" d="M48.29,290.85l150.58,73.84a10,10,0,1,0,8.84-18L57.13,272.83a10,10,0,1,0-8.84,18Z" transform="translate(0 -67.73)"/></svg>